%TF.GenerationSoftware,KiCad,Pcbnew,9.0.0*%
%TF.CreationDate,2025-06-18T16:43:11-07:00*%
%TF.ProjectId,EPS_Scales_RevE,4550535f-5363-4616-9c65-735f52657645,rev?*%
%TF.SameCoordinates,Original*%
%TF.FileFunction,Copper,L4,Bot*%
%TF.FilePolarity,Positive*%
%FSLAX46Y46*%
G04 Gerber Fmt 4.6, Leading zero omitted, Abs format (unit mm)*
G04 Created by KiCad (PCBNEW 9.0.0) date 2025-06-18 16:43:11*
%MOMM*%
%LPD*%
G01*
G04 APERTURE LIST*
%TA.AperFunction,ComponentPad*%
%ADD10C,4.700000*%
%TD*%
%TA.AperFunction,ComponentPad*%
%ADD11R,1.400000X1.400000*%
%TD*%
%TA.AperFunction,ComponentPad*%
%ADD12C,1.400000*%
%TD*%
%TA.AperFunction,ComponentPad*%
%ADD13R,1.700000X1.700000*%
%TD*%
%TA.AperFunction,ComponentPad*%
%ADD14O,1.700000X1.700000*%
%TD*%
%TA.AperFunction,ComponentPad*%
%ADD15O,1.300000X2.200000*%
%TD*%
%TA.AperFunction,ComponentPad*%
%ADD16C,3.800000*%
%TD*%
%TA.AperFunction,ViaPad*%
%ADD17C,0.600000*%
%TD*%
%TA.AperFunction,ViaPad*%
%ADD18C,0.800000*%
%TD*%
%TA.AperFunction,Conductor*%
%ADD19C,0.200000*%
%TD*%
%TA.AperFunction,Conductor*%
%ADD20C,0.250000*%
%TD*%
%TA.AperFunction,Conductor*%
%ADD21C,1.000000*%
%TD*%
G04 APERTURE END LIST*
D10*
%TO.P,J5,1,1*%
%TO.N,GND*%
X240012800Y-37000000D03*
%TD*%
%TO.P,J4,1,1*%
%TO.N,GND*%
X240030000Y-116967000D03*
%TD*%
%TO.P,J3,1,1*%
%TO.N,GND*%
X160012800Y-37000000D03*
%TD*%
%TO.P,J2,1,1*%
%TO.N,GND*%
X160012800Y-117000000D03*
%TD*%
D11*
%TO.P,CN1,1,1*%
%TO.N,+5V_Perif*%
X193941000Y-115729000D03*
D12*
%TO.P,CN1,2,2*%
%TO.N,unconnected-(CN1-Pad2)*%
X193941000Y-117729000D03*
%TO.P,CN1,3,3*%
%TO.N,+5V_Perif*%
X195941000Y-115729000D03*
%TO.P,CN1,4,4*%
%TO.N,Net-(CN1-Pad4)*%
X195941000Y-117729000D03*
%TO.P,CN1,5,5*%
%TO.N,+5V_Perif*%
X197941000Y-115729000D03*
%TO.P,CN1,6,6*%
%TO.N,Net-(CN1-Pad6)*%
X197941000Y-117729000D03*
%TO.P,CN1,7,7*%
%TO.N,+5V_Perif*%
X199941000Y-115729000D03*
%TO.P,CN1,8,8*%
%TO.N,Net-(CN1-Pad8)*%
X199941000Y-117729000D03*
%TO.P,CN1,9,9*%
%TO.N,GND*%
X201941000Y-115729000D03*
%TO.P,CN1,10,10*%
%TO.N,Net-(CN1-Pad10)*%
X201941000Y-117729000D03*
%TO.P,CN1,11,11*%
%TO.N,GND*%
X203941000Y-115729000D03*
%TO.P,CN1,12,12*%
%TO.N,Net-(CN1-Pad12)*%
X203941000Y-117729000D03*
%TO.P,CN1,13,13*%
%TO.N,GND*%
X205941000Y-115729000D03*
%TO.P,CN1,14,14*%
%TO.N,Net-(CN1-Pad14)*%
X205941000Y-117729000D03*
%TO.P,CN1,15,15*%
%TO.N,GND*%
X207941000Y-115729000D03*
%TO.P,CN1,16,16*%
%TO.N,WDT_WDI_Perif*%
X207941000Y-117729000D03*
%TD*%
D13*
%TO.P,J8,1,Pin_1*%
%TO.N,+20V_Jetson*%
X234594000Y-62367000D03*
D14*
%TO.P,J8,2,Pin_2*%
X234594000Y-64907000D03*
%TO.P,J8,3,Pin_3*%
%TO.N,GND*%
X234594000Y-67447000D03*
%TO.P,J8,4,Pin_4*%
X234594000Y-69987000D03*
%TD*%
D13*
%TO.P,J9,1,Pin_1*%
%TO.N,+3.3V_OBC*%
X183303000Y-62114250D03*
D14*
%TO.P,J9,2,Pin_2*%
X183303000Y-64654250D03*
%TO.P,J9,3,Pin_3*%
%TO.N,GND*%
X183303000Y-67194250D03*
%TO.P,J9,4,Pin_4*%
X183303000Y-69734250D03*
%TD*%
D11*
%TO.P,J6,1,1*%
%TO.N,+20V_Jetson*%
X217167800Y-115696600D03*
D12*
%TO.P,J6,2,2*%
%TO.N,Net-(J6-Pad2)*%
X217167800Y-117696600D03*
%TO.P,J6,3,3*%
%TO.N,+20V_Jetson*%
X219167800Y-115696600D03*
%TO.P,J6,4,4*%
%TO.N,Net-(J6-Pad4)*%
X219167800Y-117696600D03*
%TO.P,J6,5,5*%
%TO.N,+20V_Jetson*%
X221167800Y-115696600D03*
%TO.P,J6,6,6*%
%TO.N,Net-(J6-Pad6)*%
X221167800Y-117696600D03*
%TO.P,J6,7,7*%
%TO.N,+20V_Jetson*%
X223167800Y-115696600D03*
%TO.P,J6,8,8*%
%TO.N,Net-(J6-Pad8)*%
X223167800Y-117696600D03*
%TO.P,J6,9,9*%
%TO.N,GND*%
X225167800Y-115696600D03*
%TO.P,J6,10,10*%
%TO.N,Net-(J6-Pad10)*%
X225167800Y-117696600D03*
%TO.P,J6,11,11*%
%TO.N,GND*%
X227167800Y-115696600D03*
%TO.P,J6,12,12*%
%TO.N,Net-(J6-Pad12)*%
X227167800Y-117696600D03*
%TO.P,J6,13,13*%
%TO.N,GND*%
X229167800Y-115696600D03*
%TO.P,J6,14,14*%
%TO.N,WDT_WDI_Jetson*%
X229167800Y-117696600D03*
%TO.P,J6,15,15*%
%TO.N,GND*%
X231167800Y-115696600D03*
%TO.P,J6,16,16*%
%TO.N,WDT_WDI_Jetson*%
X231167800Y-117696600D03*
%TD*%
D15*
%TO.P,U8,1,1*%
%TO.N,GND*%
X219901000Y-37815000D03*
%TO.P,U8,2,2*%
X233401000Y-37815000D03*
D16*
%TO.P,U8,3,+*%
%TO.N,+V_Batt*%
X223051000Y-43815000D03*
%TO.P,U8,4,-*%
%TO.N,GND*%
X230251000Y-43815000D03*
%TD*%
D11*
%TO.P,J10,1,1*%
%TO.N,+3.3V_OBC*%
X169157200Y-115798200D03*
D12*
%TO.P,J10,2,2*%
%TO.N,Net-(J10-Pad2)*%
X169157200Y-117798200D03*
%TO.P,J10,3,3*%
%TO.N,+3.3V_OBC*%
X171157200Y-115798200D03*
%TO.P,J10,4,4*%
%TO.N,Net-(J10-Pad4)*%
X171157200Y-117798200D03*
%TO.P,J10,5,5*%
%TO.N,+3.3V_OBC*%
X173157200Y-115798200D03*
%TO.P,J10,6,6*%
%TO.N,OBC SDA*%
X173157200Y-117798200D03*
%TO.P,J10,7,7*%
%TO.N,+3.3V_OBC*%
X175157200Y-115798200D03*
%TO.P,J10,8,8*%
%TO.N,OBC SCL*%
X175157200Y-117798200D03*
%TO.P,J10,9,9*%
%TO.N,GND*%
X177157200Y-115798200D03*
%TO.P,J10,10,10*%
%TO.N,Net-(J10-Pad10)*%
X177157200Y-117798200D03*
%TO.P,J10,11,11*%
%TO.N,GND*%
X179157200Y-115798200D03*
%TO.P,J10,12,12*%
%TO.N,OBC_EN_JETSON*%
X179157200Y-117798200D03*
%TO.P,J10,13,13*%
%TO.N,GND*%
X181157200Y-115798200D03*
%TO.P,J10,14,14*%
%TO.N,OBC_EN_PERIF*%
X181157200Y-117798200D03*
%TO.P,J10,15,15*%
%TO.N,GND*%
X183157200Y-115798200D03*
%TO.P,J10,16,16*%
%TO.N,WDT_WDI_OBC*%
X183157200Y-117798200D03*
%TD*%
D13*
%TO.P,J7,1,Pin_1*%
%TO.N,+5V_Perif*%
X209236000Y-62250500D03*
D14*
%TO.P,J7,2,Pin_2*%
X209236000Y-64790500D03*
%TO.P,J7,3,Pin_3*%
%TO.N,GND*%
X209236000Y-67330500D03*
%TO.P,J7,4,Pin_4*%
X209236000Y-69870500D03*
%TD*%
D17*
%TO.N,+V_Batt*%
X178968400Y-79756000D03*
X178155600Y-80518000D03*
X200456800Y-78638400D03*
X177328400Y-78296000D03*
X201980800Y-77927200D03*
X201218800Y-78638400D03*
X226568000Y-77876400D03*
X227279200Y-78536800D03*
X178954000Y-79108800D03*
X226568000Y-79197200D03*
X227279200Y-79857600D03*
X177328400Y-79108800D03*
X226568000Y-79857600D03*
X201218800Y-77927200D03*
X171791200Y-79696600D03*
X200456800Y-79349600D03*
X178141200Y-79108800D03*
X200456800Y-77927200D03*
X225856800Y-79908400D03*
X201218800Y-77266800D03*
X178141200Y-78296000D03*
X178954000Y-78296000D03*
X225856800Y-79197200D03*
X225856800Y-78536800D03*
D18*
X224790000Y-47142400D03*
D17*
X201980800Y-78638400D03*
X201218800Y-79349600D03*
X225856800Y-77876400D03*
X177393600Y-79756000D03*
X178141200Y-79756000D03*
X177342800Y-80518000D03*
X201980800Y-77266800D03*
X200456800Y-77266800D03*
X226568000Y-78536800D03*
X227279200Y-79197200D03*
D18*
X229108000Y-47193200D03*
X220522800Y-47193200D03*
D17*
X227279200Y-77876400D03*
%TO.N,GND*%
X222694500Y-72707500D03*
D18*
X172339000Y-56388000D03*
D17*
X203149200Y-82651600D03*
X226088000Y-99886400D03*
X176363200Y-76060800D03*
D18*
X191643000Y-56388000D03*
D17*
X234854000Y-95263600D03*
X208280000Y-84277200D03*
X232184000Y-77839200D03*
X199136000Y-82600800D03*
X199771000Y-76073000D03*
X181798800Y-76314800D03*
D18*
X223647000Y-56515000D03*
D17*
X225376800Y-102629600D03*
X193167000Y-95631000D03*
X185456400Y-82664800D03*
X188256000Y-64902250D03*
X207645000Y-76708000D03*
X180020800Y-102121200D03*
X203200000Y-83566000D03*
X209169000Y-79375000D03*
X167625600Y-80785200D03*
X179919200Y-103289600D03*
X176027600Y-85151600D03*
X194818000Y-76962000D03*
X185354800Y-84595200D03*
X235638400Y-83579600D03*
X176078400Y-84237200D03*
X228678800Y-84087600D03*
D18*
X205105000Y-56388000D03*
D17*
X222351600Y-104190800D03*
D18*
X184440400Y-90945200D03*
D17*
X168300400Y-63804800D03*
X231662380Y-63905018D03*
X165244000Y-62641250D03*
X182713200Y-103391200D03*
X191177000Y-62777500D03*
X206304380Y-63788518D03*
X197738000Y-96658000D03*
X194208400Y-63957200D03*
X171403500Y-72454750D03*
D18*
X184288000Y-96990400D03*
X207518000Y-88265000D03*
D17*
X174516800Y-107768800D03*
X172419500Y-66358750D03*
X179990000Y-85151600D03*
X198352500Y-66495000D03*
X194563000Y-98309000D03*
D18*
X230378000Y-56388000D03*
D17*
X167066800Y-85103200D03*
D18*
X231140000Y-48895000D03*
D17*
X185710400Y-102680000D03*
X224665600Y-84138400D03*
X225326000Y-76772400D03*
X184897600Y-86982800D03*
X213614000Y-65018750D03*
X222859600Y-84328000D03*
X168609500Y-68517750D03*
X219557600Y-64160400D03*
X234904800Y-89218400D03*
D18*
X198374000Y-56388000D03*
D17*
X181544800Y-104712000D03*
X219900500Y-68770500D03*
X162323000Y-64766000D03*
D18*
X222758000Y-48768000D03*
X165608000Y-56261000D03*
X179070000Y-56388000D03*
D17*
X228729600Y-83122400D03*
X197336500Y-72591000D03*
X229819200Y-102412800D03*
X179990000Y-84084800D03*
X174669200Y-105432000D03*
X173366000Y-76162400D03*
X171689600Y-80886800D03*
X180371380Y-63652268D03*
D18*
X216916000Y-56515000D03*
D17*
X194542500Y-68654000D03*
D18*
X226949000Y-48895000D03*
D17*
X232133200Y-80176000D03*
D18*
X207518000Y-93472000D03*
D17*
X223710500Y-66611500D03*
X199186800Y-83566000D03*
X216535000Y-62894000D03*
X224665600Y-83071600D03*
%TO.N,/Perif_Subsystem/WD_Perif/WDT-VIN*%
X206439426Y-65055500D03*
X203750000Y-64526500D03*
%TO.N,WDT_WDI_Perif*%
X189992000Y-65278000D03*
%TO.N,Net-(U1-TR{slash}SS)*%
X229644000Y-81901100D03*
X234216000Y-81496800D03*
%TO.N,Net-(U1-BST)*%
X226936360Y-85974820D03*
X223861600Y-86424400D03*
%TO.N,Net-(U1-INTVCC)*%
X234955153Y-85070655D03*
X226982362Y-86756133D03*
%TO.N,+3.3V_OBC*%
X187198000Y-102412800D03*
X183692800Y-99060000D03*
X171043600Y-84124800D03*
X168757600Y-84632800D03*
X185775600Y-99060000D03*
X214782400Y-81280000D03*
X194157600Y-80111600D03*
X192227200Y-97891600D03*
X185318400Y-103581200D03*
X187756800Y-99110800D03*
%TO.N,+20V_Jetson*%
X230632000Y-102717600D03*
X229870000Y-105511600D03*
X228955600Y-102666800D03*
X228193600Y-102616000D03*
X227482400Y-102565200D03*
X228346000Y-105511600D03*
X229057200Y-105460800D03*
X227634800Y-105562400D03*
%TO.N,WDT_WDI_Jetson*%
X215519000Y-65278000D03*
%TO.N,Net-(U10D--)*%
X220218000Y-69977000D03*
X222026842Y-65689842D03*
%TO.N,Net-(U3-TR{slash}SS)*%
X184237200Y-84290400D03*
X180115363Y-82243200D03*
%TO.N,Net-(U3-BST)*%
X177994569Y-86805577D03*
X173467600Y-86576400D03*
%TO.N,Net-(U3-INTVCC)*%
X184237200Y-86170000D03*
X178750800Y-86881200D03*
%TO.N,Net-(U6D--)*%
X196668842Y-65573342D03*
X194860000Y-69860500D03*
%TO.N,Net-(U13-TR{slash}SS)*%
X204619520Y-81332480D03*
X208026000Y-79375000D03*
%TO.N,Net-(U13-BST)*%
X201169997Y-85344000D03*
X198120000Y-85344000D03*
%TO.N,Net-(U13-INTVCC)*%
X206959200Y-85699600D03*
X201930000Y-85344000D03*
%TO.N,/OBC_Subsystem/WD_OBC/WDT-VIN*%
X177817000Y-64390250D03*
X180506426Y-64919250D03*
%TO.N,/Jetson_Subsystem/WD_Jetson/WDT-VIN*%
X231797426Y-65172000D03*
X229108000Y-64643000D03*
%TO.N,WDT_WDI_OBC*%
X162433000Y-65659000D03*
%TO.N,+5V_Perif*%
X198501000Y-98806000D03*
X197612000Y-100203000D03*
X196596000Y-98348800D03*
X197256400Y-98399600D03*
X196850000Y-100203000D03*
X197967600Y-98399600D03*
X198374000Y-100076000D03*
%TO.N,OBC_EN_JETSON*%
X214789948Y-80460232D03*
%TO.N,OBC SDA*%
X171036342Y-108044342D03*
%TO.N,OBC SCL*%
X177082642Y-109061442D03*
%TO.N,OBC_EN_PERIF*%
X189382400Y-79349600D03*
%TO.N,Net-(D15-K)*%
X226060000Y-70673498D03*
X227711000Y-68072000D03*
%TO.N,/Jetson_Subsystem/WD_Jetson/WDT-VP*%
X221582342Y-66961658D03*
X225425000Y-62865000D03*
%TO.N,Net-(R124-Pad1)*%
X197889579Y-72053002D03*
X202311000Y-69469000D03*
%TO.N,Net-(R132-Pad2)*%
X207010000Y-66675000D03*
X203200000Y-67183000D03*
%TO.N,Net-(U6B--)*%
X199917951Y-62003256D03*
X193844000Y-68971500D03*
%TO.N,/Perif_Subsystem/WD_Perif/WDT-VP*%
X196224342Y-66845158D03*
X200067000Y-62748500D03*
%TO.N,Net-(U6A--)*%
X194511820Y-60845754D03*
X198916000Y-61551970D03*
%TO.N,Net-(R141-Pad1)*%
X223760500Y-72166201D03*
X227838000Y-70096498D03*
%TO.N,SDA*%
X221488000Y-103225600D03*
X180390800Y-106019600D03*
X187960000Y-106273600D03*
X172781000Y-106019600D03*
X223469200Y-98602800D03*
%TO.N,Net-(U10B--)*%
X225275951Y-62119756D03*
X219202000Y-69088000D03*
%TO.N,SCL*%
X184048400Y-106832400D03*
X187366538Y-106748370D03*
X192481200Y-99720400D03*
X178473759Y-106768051D03*
X190950942Y-102455342D03*
%TO.N,Net-(U10A--)*%
X219869820Y-60962254D03*
X224274000Y-61668470D03*
%TO.N,Net-(U1-RT)*%
X230994024Y-81375966D03*
X227971956Y-81431431D03*
%TO.N,Net-(U1-EN{slash}UV)*%
X232253602Y-81345025D03*
X227227375Y-81583748D03*
%TO.N,Net-(U3-RT)*%
X179380453Y-82049522D03*
X182764000Y-82410800D03*
%TO.N,Net-(U3-EN{slash}UV)*%
X178649200Y-82256582D03*
X183983200Y-82360000D03*
%TO.N,Net-(U6C-+)*%
X197559658Y-66337158D03*
X197527000Y-71384500D03*
%TO.N,Net-(D8-K)*%
X200568820Y-70419220D03*
X202438000Y-68021200D03*
%TO.N,Net-(U13-EN{slash}UV)*%
X206597000Y-80618426D03*
X201733750Y-80971484D03*
%TO.N,/OBC_Subsystem/WD_OBC/WDT-VP*%
X174134000Y-62612250D03*
X170291342Y-66708908D03*
%TO.N,Net-(R149-Pad2)*%
X231902000Y-66395600D03*
X227729142Y-65234458D03*
%TO.N,Net-(U13-RT)*%
X202467815Y-80774633D03*
X205510612Y-80639652D03*
%TO.N,SYNC_PHASE3*%
X188722000Y-89609203D03*
X192735200Y-89611200D03*
X214579200Y-85242400D03*
X233375200Y-82550000D03*
X219049600Y-85293200D03*
X167690800Y-89434200D03*
%TO.N,SYNC_PHASE1*%
X167828800Y-84696800D03*
X181668499Y-85156786D03*
X181036800Y-82828200D03*
%TO.N,SYNC_PHASE2*%
X207858056Y-81493056D03*
X203989134Y-81757000D03*
X192735200Y-88849200D03*
X188722000Y-88849200D03*
X166116000Y-88849200D03*
%TO.N,Net-(U10C-+)*%
X222917658Y-66453658D03*
X222885000Y-71501000D03*
%TO.N,Net-(U11D--)*%
X170735842Y-65437092D03*
X168927000Y-69724250D03*
%TO.N,Net-(D18-K)*%
X176403000Y-67945000D03*
X174673520Y-70406520D03*
%TO.N,Net-(R157-Pad1)*%
X172469500Y-71913452D03*
X176403000Y-69469000D03*
%TO.N,Net-(U11B--)*%
X167911000Y-68835250D03*
X173984951Y-61867006D03*
%TO.N,Net-(U11A--)*%
X172983000Y-61415720D03*
X168578820Y-60709504D03*
%TO.N,Net-(R165-Pad2)*%
X176416000Y-65130169D03*
X180695600Y-66395600D03*
%TO.N,Net-(U11C-+)*%
X171594000Y-71248250D03*
X171626658Y-66200908D03*
%TD*%
D19*
%TO.N,+V_Batt*%
X223051000Y-44030000D02*
X223012000Y-44069000D01*
X223051000Y-43815000D02*
X223051000Y-44030000D01*
D20*
%TO.N,GND*%
X231662380Y-63905018D02*
X231648000Y-63919398D01*
X180357000Y-63666648D02*
X180357000Y-63755250D01*
X180371380Y-63652268D02*
X180357000Y-63666648D01*
X231648000Y-63919398D02*
X231648000Y-64008000D01*
X206304380Y-63788518D02*
X206290000Y-63802898D01*
X206290000Y-63802898D02*
X206290000Y-63891500D01*
X184897600Y-86982800D02*
X184897600Y-86932000D01*
D21*
X184440400Y-90945200D02*
X184389600Y-90945200D01*
D20*
%TO.N,/Perif_Subsystem/WD_Perif/WDT-VIN*%
X206439426Y-65055500D02*
X204279000Y-65055500D01*
X204279000Y-65055500D02*
X203750000Y-64526500D01*
D19*
%TO.N,WDT_WDI_Perif*%
X193040000Y-119507000D02*
X206121000Y-119507000D01*
X189992000Y-114173000D02*
X189992000Y-116459000D01*
X189992000Y-116459000D02*
X193040000Y-119507000D01*
X206121000Y-119507000D02*
X207899000Y-117729000D01*
X189992000Y-65278000D02*
X189992000Y-114173000D01*
D20*
%TO.N,Net-(U1-TR{slash}SS)*%
X233750834Y-81961966D02*
X234216000Y-81496800D01*
X229704866Y-81961966D02*
X233750834Y-81961966D01*
X229644000Y-81901100D02*
X229704866Y-81961966D01*
%TO.N,Net-(U1-BST)*%
X226486780Y-86424400D02*
X226936360Y-85974820D01*
X223889200Y-86424400D02*
X223875600Y-86410800D01*
X226486780Y-86424400D02*
X223889200Y-86424400D01*
%TO.N,Net-(U1-INTVCC)*%
X226982362Y-86756133D02*
X227771295Y-85967200D01*
X227771295Y-85967200D02*
X234058608Y-85967200D01*
X234058608Y-85967200D02*
X234955153Y-85070655D01*
%TO.N,+3.3V_OBC*%
X207440000Y-79132270D02*
X207783270Y-78789000D01*
X209755000Y-79603600D02*
X213106000Y-79603600D01*
X207783270Y-78789000D02*
X208268730Y-78789000D01*
X209411730Y-78789000D02*
X209755000Y-79132270D01*
X207440000Y-79603600D02*
X207440000Y-79132270D01*
X194157600Y-80111600D02*
X201726800Y-80111600D01*
X201726800Y-80111600D02*
X202234800Y-79603600D01*
X202234800Y-79603600D02*
X207440000Y-79603600D01*
X208268730Y-78789000D02*
X208597500Y-79117770D01*
X208597500Y-79117770D02*
X208926270Y-78789000D01*
X213106000Y-79603600D02*
X214782400Y-81280000D01*
X208926270Y-78789000D02*
X209411730Y-78789000D01*
X209755000Y-79132270D02*
X209755000Y-79603600D01*
D19*
%TO.N,WDT_WDI_Jetson*%
X227584000Y-119380000D02*
X229235000Y-117729000D01*
X215519000Y-117729000D02*
X217170000Y-119380000D01*
X217170000Y-119380000D02*
X227584000Y-119380000D01*
X215519000Y-116205000D02*
X215519000Y-117729000D01*
X215519000Y-65278000D02*
X215519000Y-116205000D01*
X229235000Y-117729000D02*
X231140000Y-117729000D01*
D20*
%TO.N,Net-(U10D--)*%
X220486500Y-69708500D02*
X220218000Y-69977000D01*
X220486500Y-67230184D02*
X220486500Y-69708500D01*
X222026842Y-65689842D02*
X220486500Y-67230184D01*
%TO.N,Net-(U3-TR{slash}SS)*%
X180115363Y-82243200D02*
X181767670Y-82243200D01*
X181767670Y-82243200D02*
X182476635Y-82952165D01*
X183814870Y-84290400D02*
X184237200Y-84290400D01*
X182476635Y-82952165D02*
X183814870Y-84290400D01*
D19*
%TO.N,Net-(U3-BST)*%
X173467600Y-86576400D02*
X173696777Y-86805577D01*
X173696777Y-86805577D02*
X177994569Y-86805577D01*
D20*
%TO.N,Net-(U3-INTVCC)*%
X183526000Y-86881200D02*
X184237200Y-86170000D01*
X178750800Y-86881200D02*
X183526000Y-86881200D01*
%TO.N,Net-(U6D--)*%
X196668842Y-65573342D02*
X195128500Y-67113684D01*
X195128500Y-67113684D02*
X195128500Y-69592000D01*
X195128500Y-69592000D02*
X194860000Y-69860500D01*
D19*
%TO.N,Net-(U13-TR{slash}SS)*%
X208026000Y-80531738D02*
X208026000Y-79349600D01*
X204619520Y-81332480D02*
X207225258Y-81332480D01*
X207225258Y-81332480D02*
X208026000Y-80531738D01*
D20*
%TO.N,Net-(U13-BST)*%
X198120000Y-85344000D02*
X201168000Y-85344000D01*
%TO.N,Net-(U13-INTVCC)*%
X206603600Y-85344000D02*
X206959200Y-85699600D01*
X201930000Y-85344000D02*
X206603600Y-85344000D01*
%TO.N,/OBC_Subsystem/WD_OBC/WDT-VIN*%
X178346000Y-64919250D02*
X177817000Y-64390250D01*
X180506426Y-64919250D02*
X178346000Y-64919250D01*
%TO.N,/Jetson_Subsystem/WD_Jetson/WDT-VIN*%
X231797426Y-65172000D02*
X229637000Y-65172000D01*
X229637000Y-65172000D02*
X229108000Y-64643000D01*
%TO.N,WDT_WDI_OBC*%
X162433000Y-114300000D02*
X167640000Y-119507000D01*
X162433000Y-65659000D02*
X162433000Y-114300000D01*
X181483000Y-119507000D02*
X181864000Y-119126000D01*
X181864000Y-119126000D02*
X183134000Y-117856000D01*
X167640000Y-119507000D02*
X181483000Y-119507000D01*
%TO.N,OBC SDA*%
X172171200Y-109179200D02*
X172171200Y-116850000D01*
X172171200Y-116850000D02*
X173177200Y-117856000D01*
X171036342Y-108044342D02*
X172171200Y-109179200D01*
%TO.N,OBC SCL*%
X177082642Y-109061442D02*
X174143200Y-112000884D01*
X174143200Y-116840800D02*
X175158400Y-117856000D01*
X174143200Y-112000884D02*
X174143200Y-116840800D01*
%TO.N,OBC_EN_PERIF*%
X189382400Y-79349600D02*
X189382400Y-116433600D01*
X189003800Y-116812200D02*
X182196600Y-116812200D01*
X189382400Y-116433600D02*
X189003800Y-116812200D01*
X182196600Y-116812200D02*
X181152800Y-117856000D01*
%TO.N,Net-(D15-K)*%
X227711000Y-69022498D02*
X227711000Y-68072000D01*
X226060000Y-70673498D02*
X227711000Y-69022498D01*
%TO.N,/Jetson_Subsystem/WD_Jetson/WDT-VP*%
X221582342Y-66961658D02*
X225425000Y-63119000D01*
X225425000Y-63119000D02*
X225425000Y-62865000D01*
D19*
%TO.N,Net-(R124-Pad1)*%
X199726998Y-72053002D02*
X202311000Y-69469000D01*
X197889579Y-72053002D02*
X199726998Y-72053002D01*
%TO.N,Net-(R132-Pad2)*%
X203200000Y-67183000D02*
X206502000Y-67183000D01*
X206502000Y-67183000D02*
X207010000Y-66675000D01*
D20*
%TO.N,Net-(U6B--)*%
X193844000Y-67447500D02*
X199288244Y-62003256D01*
X199288244Y-62003256D02*
X199917951Y-62003256D01*
X193844000Y-68971500D02*
X193844000Y-67447500D01*
%TO.N,/Perif_Subsystem/WD_Perif/WDT-VP*%
X196224342Y-66845158D02*
X200067000Y-63002500D01*
X200067000Y-63002500D02*
X200067000Y-62748500D01*
%TO.N,Net-(U6A--)*%
X198209784Y-60845754D02*
X194511820Y-60845754D01*
X198916000Y-61551970D02*
X198209784Y-60845754D01*
D19*
%TO.N,Net-(R141-Pad1)*%
X227838000Y-70096498D02*
X227838000Y-70350498D01*
X227838000Y-70350498D02*
X226022297Y-72166201D01*
X226022297Y-72166201D02*
X223760500Y-72166201D01*
D20*
%TO.N,SDA*%
X223469200Y-101244400D02*
X223469200Y-98602800D01*
X187706000Y-106019600D02*
X187960000Y-106273600D01*
X172781000Y-106019600D02*
X187706000Y-106019600D01*
X221488000Y-103225600D02*
X223469200Y-101244400D01*
%TO.N,Net-(U10B--)*%
X224646244Y-62119756D02*
X225275951Y-62119756D01*
X219202000Y-67564000D02*
X224646244Y-62119756D01*
X219202000Y-69088000D02*
X219202000Y-67564000D01*
%TO.N,SCL*%
X187366538Y-106748370D02*
X187346857Y-106768051D01*
X190950942Y-102455342D02*
X192481200Y-100925084D01*
X192481200Y-100925084D02*
X192481200Y-99720400D01*
X187346857Y-106768051D02*
X178473759Y-106768051D01*
%TO.N,Net-(U10A--)*%
X224274000Y-61668470D02*
X223567784Y-60962254D01*
X223567784Y-60962254D02*
X219869820Y-60962254D01*
%TO.N,Net-(U1-RT)*%
X230994024Y-81375966D02*
X230560658Y-80942600D01*
X230560658Y-80942600D02*
X228424800Y-80942600D01*
X228424800Y-80942600D02*
X228064600Y-80942600D01*
X228064600Y-80942600D02*
X227866000Y-81141200D01*
%TO.N,Net-(U1-EN{slash}UV)*%
X227227375Y-81583748D02*
X227227375Y-81518575D01*
X227227375Y-81518575D02*
X227197442Y-81488642D01*
X227227375Y-81583748D02*
X227202793Y-81559166D01*
X227202793Y-81559166D02*
X227202793Y-81446000D01*
X227197442Y-80996958D02*
X227662800Y-80531600D01*
X231440177Y-80531600D02*
X232253602Y-81345025D01*
X227662800Y-80531600D02*
X231440177Y-80531600D01*
X227197442Y-81488642D02*
X227197442Y-80996958D01*
%TO.N,Net-(U3-RT)*%
X182006600Y-81653400D02*
X179762200Y-81653400D01*
X182764000Y-82410800D02*
X182006600Y-81653400D01*
X179762200Y-81653400D02*
X179360400Y-82055200D01*
%TO.N,Net-(U3-EN{slash}UV)*%
X179309600Y-81242400D02*
X182865600Y-81242400D01*
X182865600Y-81242400D02*
X183983200Y-82360000D01*
X178649200Y-81902800D02*
X179309600Y-81242400D01*
X178649200Y-82256582D02*
X178649200Y-81902800D01*
%TO.N,Net-(U6C-+)*%
X197559658Y-66337158D02*
X197559658Y-71351842D01*
X197559658Y-71351842D02*
X197527000Y-71384500D01*
%TO.N,Net-(D8-K)*%
X200568820Y-70419220D02*
X200568820Y-69890380D01*
X200568820Y-69890380D02*
X202438000Y-68021200D01*
D19*
%TO.N,Net-(U13-EN{slash}UV)*%
X206062652Y-80078652D02*
X206603600Y-80619600D01*
X201733750Y-80971484D02*
X201733750Y-80715324D01*
X201733750Y-80715324D02*
X202370422Y-80078652D01*
X202370422Y-80078652D02*
X206062652Y-80078652D01*
D20*
%TO.N,/OBC_Subsystem/WD_OBC/WDT-VP*%
X170291342Y-66708908D02*
X174134000Y-62866250D01*
X174134000Y-62866250D02*
X174134000Y-62612250D01*
%TO.N,Net-(R149-Pad2)*%
X227729142Y-65234458D02*
X228890284Y-66395600D01*
X228890284Y-66395600D02*
X231902000Y-66395600D01*
D19*
%TO.N,Net-(U13-RT)*%
X202621148Y-80639652D02*
X202488800Y-80772000D01*
X205510612Y-80639652D02*
X202621148Y-80639652D01*
D20*
%TO.N,SYNC_PHASE3*%
X188546997Y-89434200D02*
X188722000Y-89609203D01*
X219049600Y-85293200D02*
X230632000Y-85293200D01*
X230632000Y-85293200D02*
X233375200Y-82550000D01*
X210210400Y-89611200D02*
X214579200Y-85242400D01*
X167690800Y-89434200D02*
X188546997Y-89434200D01*
X192735200Y-89611200D02*
X210210400Y-89611200D01*
%TO.N,SYNC_PHASE1*%
X168869600Y-85737600D02*
X167828800Y-84696800D01*
X181087685Y-85737600D02*
X168869600Y-85737600D01*
X181036800Y-84525087D02*
X181668499Y-85156786D01*
X181668499Y-85156786D02*
X181087685Y-85737600D01*
X181036800Y-82828200D02*
X181036800Y-84525087D01*
%TO.N,SYNC_PHASE2*%
X196826400Y-84758000D02*
X204598800Y-84758000D01*
X166116000Y-88849200D02*
X188722000Y-88849200D01*
X204225134Y-81993000D02*
X207414600Y-81993000D01*
X203989134Y-81757000D02*
X204225134Y-81993000D01*
X204598800Y-84758000D02*
X207873600Y-81483200D01*
X192735200Y-88849200D02*
X196826400Y-84758000D01*
X207414600Y-81993000D02*
X207873600Y-81534000D01*
%TO.N,Net-(U10C-+)*%
X222917658Y-71468342D02*
X222885000Y-71501000D01*
X222917658Y-66453658D02*
X222917658Y-71468342D01*
%TO.N,Net-(U11D--)*%
X169195500Y-69455750D02*
X168927000Y-69724250D01*
X170735842Y-65437092D02*
X169195500Y-66977434D01*
X169195500Y-66977434D02*
X169195500Y-69455750D01*
%TO.N,Net-(D18-K)*%
X174673520Y-70406520D02*
X174673520Y-69674480D01*
X174673520Y-69674480D02*
X176403000Y-67945000D01*
D19*
%TO.N,Net-(R157-Pad1)*%
X172469500Y-71913452D02*
X173958548Y-71913452D01*
X173958548Y-71913452D02*
X176403000Y-69469000D01*
D20*
%TO.N,Net-(U11B--)*%
X167911000Y-68835250D02*
X167911000Y-67311250D01*
X167911000Y-67311250D02*
X173355244Y-61867006D01*
X173355244Y-61867006D02*
X173984951Y-61867006D01*
%TO.N,Net-(U11A--)*%
X172276784Y-60709504D02*
X168578820Y-60709504D01*
X172983000Y-61415720D02*
X172276784Y-60709504D01*
%TO.N,Net-(R165-Pad2)*%
X176416000Y-65130169D02*
X177681431Y-66395600D01*
X177681431Y-66395600D02*
X180695600Y-66395600D01*
%TO.N,Net-(U11C-+)*%
X171626658Y-66200908D02*
X171626658Y-71215592D01*
X171626658Y-71215592D02*
X171594000Y-71248250D01*
%TD*%
M02*
