%TF.GenerationSoftware,KiCad,Pcbnew,9.0.0*%
%TF.CreationDate,2025-06-18T17:13:17-07:00*%
%TF.ProjectId,EPS_Scales_RevE,4550535f-5363-4616-9c65-735f52657645,rev?*%
%TF.SameCoordinates,Original*%
%TF.FileFunction,Copper,L3,Inr*%
%TF.FilePolarity,Positive*%
%FSLAX46Y46*%
G04 Gerber Fmt 4.6, Leading zero omitted, Abs format (unit mm)*
G04 Created by KiCad (PCBNEW 9.0.0) date 2025-06-18 17:13:17*
%MOMM*%
%LPD*%
G01*
G04 APERTURE LIST*
%TA.AperFunction,ComponentPad*%
%ADD10C,4.700000*%
%TD*%
%TA.AperFunction,ComponentPad*%
%ADD11R,1.400000X1.400000*%
%TD*%
%TA.AperFunction,ComponentPad*%
%ADD12C,1.400000*%
%TD*%
%TA.AperFunction,ComponentPad*%
%ADD13R,1.700000X1.700000*%
%TD*%
%TA.AperFunction,ComponentPad*%
%ADD14O,1.700000X1.700000*%
%TD*%
%TA.AperFunction,ComponentPad*%
%ADD15O,1.300000X2.200000*%
%TD*%
%TA.AperFunction,ComponentPad*%
%ADD16C,3.800000*%
%TD*%
%TA.AperFunction,ViaPad*%
%ADD17C,0.600000*%
%TD*%
%TA.AperFunction,ViaPad*%
%ADD18C,0.800000*%
%TD*%
%TA.AperFunction,Conductor*%
%ADD19C,0.250000*%
%TD*%
G04 APERTURE END LIST*
D10*
%TO.N,GND*%
%TO.C,J5*%
X240012800Y-37000000D03*
%TD*%
%TO.N,GND*%
%TO.C,J4*%
X240030000Y-116967000D03*
%TD*%
%TO.N,GND*%
%TO.C,J3*%
X160012800Y-37000000D03*
%TD*%
%TO.N,GND*%
%TO.C,J2*%
X160012800Y-117000000D03*
%TD*%
D11*
%TO.N,+5V_Perif*%
%TO.C,CN1*%
X193941000Y-115729000D03*
D12*
%TO.N,unconnected-(CN1-Pad2)*%
X193941000Y-117729000D03*
%TO.N,+5V_Perif*%
X195941000Y-115729000D03*
%TO.N,Net-(CN1-Pad4)*%
X195941000Y-117729000D03*
%TO.N,+5V_Perif*%
X197941000Y-115729000D03*
%TO.N,Net-(CN1-Pad6)*%
X197941000Y-117729000D03*
%TO.N,+5V_Perif*%
X199941000Y-115729000D03*
%TO.N,Net-(CN1-Pad8)*%
X199941000Y-117729000D03*
%TO.N,GND*%
X201941000Y-115729000D03*
%TO.N,Net-(CN1-Pad10)*%
X201941000Y-117729000D03*
%TO.N,GND*%
X203941000Y-115729000D03*
%TO.N,Net-(CN1-Pad12)*%
X203941000Y-117729000D03*
%TO.N,GND*%
X205941000Y-115729000D03*
%TO.N,Net-(CN1-Pad14)*%
X205941000Y-117729000D03*
%TO.N,GND*%
X207941000Y-115729000D03*
%TO.N,WDT_WDI_Perif*%
X207941000Y-117729000D03*
%TD*%
D13*
%TO.N,+20V_Jetson*%
%TO.C,J8*%
X234594000Y-62367000D03*
D14*
X234594000Y-64907000D03*
%TO.N,GND*%
X234594000Y-67447000D03*
X234594000Y-69987000D03*
%TD*%
D13*
%TO.N,+3.3V_OBC*%
%TO.C,J9*%
X183303000Y-62114250D03*
D14*
X183303000Y-64654250D03*
%TO.N,GND*%
X183303000Y-67194250D03*
X183303000Y-69734250D03*
%TD*%
D11*
%TO.N,+20V_Jetson*%
%TO.C,J6*%
X217167800Y-115696600D03*
D12*
%TO.N,Net-(J6-Pad2)*%
X217167800Y-117696600D03*
%TO.N,+20V_Jetson*%
X219167800Y-115696600D03*
%TO.N,Net-(J6-Pad4)*%
X219167800Y-117696600D03*
%TO.N,+20V_Jetson*%
X221167800Y-115696600D03*
%TO.N,Net-(J6-Pad6)*%
X221167800Y-117696600D03*
%TO.N,+20V_Jetson*%
X223167800Y-115696600D03*
%TO.N,Net-(J6-Pad8)*%
X223167800Y-117696600D03*
%TO.N,GND*%
X225167800Y-115696600D03*
%TO.N,Net-(J6-Pad10)*%
X225167800Y-117696600D03*
%TO.N,GND*%
X227167800Y-115696600D03*
%TO.N,Net-(J6-Pad12)*%
X227167800Y-117696600D03*
%TO.N,GND*%
X229167800Y-115696600D03*
%TO.N,WDT_WDI_Jetson*%
X229167800Y-117696600D03*
%TO.N,GND*%
X231167800Y-115696600D03*
%TO.N,WDT_WDI_Jetson*%
X231167800Y-117696600D03*
%TD*%
D15*
%TO.N,GND*%
%TO.C,U8*%
X219901000Y-37815000D03*
X233401000Y-37815000D03*
D16*
%TO.N,+V_Batt*%
X223051000Y-43815000D03*
%TO.N,GND*%
X230251000Y-43815000D03*
%TD*%
D11*
%TO.N,+3.3V_OBC*%
%TO.C,J10*%
X169157200Y-115798200D03*
D12*
%TO.N,Net-(J10-Pad2)*%
X169157200Y-117798200D03*
%TO.N,+3.3V_OBC*%
X171157200Y-115798200D03*
%TO.N,Net-(J10-Pad4)*%
X171157200Y-117798200D03*
%TO.N,+3.3V_OBC*%
X173157200Y-115798200D03*
%TO.N,OBC SDA*%
X173157200Y-117798200D03*
%TO.N,+3.3V_OBC*%
X175157200Y-115798200D03*
%TO.N,OBC SCL*%
X175157200Y-117798200D03*
%TO.N,GND*%
X177157200Y-115798200D03*
%TO.N,Net-(J10-Pad10)*%
X177157200Y-117798200D03*
%TO.N,GND*%
X179157200Y-115798200D03*
%TO.N,OBC_EN_JETSON*%
X179157200Y-117798200D03*
%TO.N,GND*%
X181157200Y-115798200D03*
%TO.N,OBC_EN_PERIF*%
X181157200Y-117798200D03*
%TO.N,GND*%
X183157200Y-115798200D03*
%TO.N,WDT_WDI_OBC*%
X183157200Y-117798200D03*
%TD*%
D13*
%TO.N,+5V_Perif*%
%TO.C,J7*%
X209236000Y-62250500D03*
D14*
X209236000Y-64790500D03*
%TO.N,GND*%
X209236000Y-67330500D03*
X209236000Y-69870500D03*
%TD*%
D17*
%TO.N,+V_Batt*%
X178968400Y-79756000D03*
X178155600Y-80518000D03*
X200456800Y-78638400D03*
X177328400Y-78296000D03*
X201980800Y-77927200D03*
X201218800Y-78638400D03*
X226568000Y-77876400D03*
X227279200Y-78536800D03*
X178954000Y-79108800D03*
X226568000Y-79197200D03*
X227279200Y-79857600D03*
X177328400Y-79108800D03*
X226568000Y-79857600D03*
X201218800Y-77927200D03*
X171791200Y-79696600D03*
X200456800Y-79349600D03*
X178141200Y-79108800D03*
X200456800Y-77927200D03*
X225856800Y-79908400D03*
X201218800Y-77266800D03*
X178141200Y-78296000D03*
X178954000Y-78296000D03*
X225856800Y-79197200D03*
X225856800Y-78536800D03*
D18*
X224790000Y-47142400D03*
D17*
X201980800Y-78638400D03*
X201218800Y-79349600D03*
X225856800Y-77876400D03*
X177393600Y-79756000D03*
X178141200Y-79756000D03*
X177342800Y-80518000D03*
X201980800Y-77266800D03*
X200456800Y-77266800D03*
X226568000Y-78536800D03*
X227279200Y-79197200D03*
D18*
X229108000Y-47193200D03*
X220522800Y-47193200D03*
D17*
X227279200Y-77876400D03*
%TO.N,GND*%
X222694500Y-72707500D03*
D18*
X172339000Y-56388000D03*
D17*
X203149200Y-82651600D03*
X226088000Y-99886400D03*
X176363200Y-76060800D03*
D18*
X191643000Y-56388000D03*
D17*
X234854000Y-95263600D03*
X208280000Y-84277200D03*
X232184000Y-77839200D03*
X199136000Y-82600800D03*
X199771000Y-76073000D03*
X181798800Y-76314800D03*
D18*
X223647000Y-56515000D03*
D17*
X225376800Y-102629600D03*
X193167000Y-95631000D03*
X185456400Y-82664800D03*
X188256000Y-64902250D03*
X207645000Y-76708000D03*
X180020800Y-102121200D03*
X203200000Y-83566000D03*
X209169000Y-79375000D03*
X167625600Y-80785200D03*
X179919200Y-103289600D03*
X176027600Y-85151600D03*
X194818000Y-76962000D03*
X185354800Y-84595200D03*
X235638400Y-83579600D03*
X176078400Y-84237200D03*
X228678800Y-84087600D03*
D18*
X205105000Y-56388000D03*
D17*
X222351600Y-104190800D03*
D18*
X184440400Y-90945200D03*
D17*
X168300400Y-63804800D03*
X231662380Y-63905018D03*
X165244000Y-62641250D03*
X182713200Y-103391200D03*
X191177000Y-62777500D03*
X206304380Y-63788518D03*
X197738000Y-96658000D03*
X194208400Y-63957200D03*
X171403500Y-72454750D03*
D18*
X184288000Y-96990400D03*
X207518000Y-88265000D03*
D17*
X174516800Y-107768800D03*
X172419500Y-66358750D03*
X179990000Y-85151600D03*
X198352500Y-66495000D03*
X194563000Y-98309000D03*
D18*
X230378000Y-56388000D03*
D17*
X167066800Y-85103200D03*
D18*
X231140000Y-48895000D03*
D17*
X185710400Y-102680000D03*
X224665600Y-84138400D03*
X225326000Y-76772400D03*
X184897600Y-86982800D03*
X213614000Y-65018750D03*
X222859600Y-84328000D03*
X168609500Y-68517750D03*
X219557600Y-64160400D03*
X234904800Y-89218400D03*
D18*
X198374000Y-56388000D03*
D17*
X181544800Y-104712000D03*
X219900500Y-68770500D03*
X162323000Y-64766000D03*
D18*
X222758000Y-48768000D03*
X165608000Y-56261000D03*
X179070000Y-56388000D03*
D17*
X228729600Y-83122400D03*
X197336500Y-72591000D03*
X229819200Y-102412800D03*
X179990000Y-84084800D03*
X174669200Y-105432000D03*
X173366000Y-76162400D03*
X171689600Y-80886800D03*
X180371380Y-63652268D03*
D18*
X216916000Y-56515000D03*
D17*
X194542500Y-68654000D03*
D18*
X226949000Y-48895000D03*
D17*
X232133200Y-80176000D03*
D18*
X207518000Y-93472000D03*
D17*
X223710500Y-66611500D03*
X199186800Y-83566000D03*
X216535000Y-62894000D03*
X224665600Y-83071600D03*
%TO.N,/Perif_Subsystem/WD_Perif/WDT-VIN*%
X206439426Y-65055500D03*
X203750000Y-64526500D03*
%TO.N,WDT_WDI_Perif*%
X189992000Y-65278000D03*
%TO.N,Net-(U1-TR{slash}SS)*%
X229644000Y-81901100D03*
X234216000Y-81496800D03*
%TO.N,Net-(U1-BST)*%
X226936360Y-85974820D03*
X223861600Y-86424400D03*
%TO.N,Net-(U1-INTVCC)*%
X234955153Y-85070655D03*
X226982362Y-86756133D03*
%TO.N,+3.3V_OBC*%
X187198000Y-102412800D03*
X183692800Y-99060000D03*
X171043600Y-84124800D03*
X168757600Y-84632800D03*
X185775600Y-99060000D03*
X214782400Y-81280000D03*
X194157600Y-80111600D03*
X192227200Y-97891600D03*
X185318400Y-103581200D03*
X187756800Y-99110800D03*
%TO.N,+20V_Jetson*%
X230632000Y-102717600D03*
X229870000Y-105511600D03*
X228955600Y-102666800D03*
X228193600Y-102616000D03*
X227482400Y-102565200D03*
X228346000Y-105511600D03*
X229057200Y-105460800D03*
X227634800Y-105562400D03*
%TO.N,WDT_WDI_Jetson*%
X215519000Y-65278000D03*
%TO.N,Net-(U10D--)*%
X220218000Y-69977000D03*
X222026842Y-65689842D03*
%TO.N,Net-(U3-TR{slash}SS)*%
X184237200Y-84290400D03*
X180115363Y-82243200D03*
%TO.N,Net-(U3-BST)*%
X177994569Y-86805577D03*
X173467600Y-86576400D03*
%TO.N,Net-(U3-INTVCC)*%
X184237200Y-86170000D03*
X178750800Y-86881200D03*
%TO.N,Net-(U6D--)*%
X196668842Y-65573342D03*
X194860000Y-69860500D03*
%TO.N,Net-(U13-TR{slash}SS)*%
X204619520Y-81332480D03*
X208026000Y-79375000D03*
%TO.N,Net-(U13-BST)*%
X201169997Y-85344000D03*
X198120000Y-85344000D03*
%TO.N,Net-(U13-INTVCC)*%
X206959200Y-85699600D03*
X201930000Y-85344000D03*
%TO.N,/OBC_Subsystem/WD_OBC/WDT-VIN*%
X177817000Y-64390250D03*
X180506426Y-64919250D03*
%TO.N,/Jetson_Subsystem/WD_Jetson/WDT-VIN*%
X231797426Y-65172000D03*
X229108000Y-64643000D03*
%TO.N,WDT_WDI_OBC*%
X162433000Y-65659000D03*
%TO.N,+5V_Perif*%
X198501000Y-98806000D03*
X197612000Y-100203000D03*
X196596000Y-98348800D03*
X197256400Y-98399600D03*
X196850000Y-100203000D03*
X197967600Y-98399600D03*
X198374000Y-100076000D03*
%TO.N,OBC_EN_JETSON*%
X214789948Y-80460232D03*
%TO.N,OBC SDA*%
X171036342Y-108044342D03*
%TO.N,OBC SCL*%
X177082642Y-109061442D03*
%TO.N,OBC_EN_PERIF*%
X189382400Y-79349600D03*
%TO.N,Net-(D15-K)*%
X226060000Y-70673498D03*
X227711000Y-68072000D03*
%TO.N,/Jetson_Subsystem/WD_Jetson/WDT-VP*%
X221582342Y-66961658D03*
X225425000Y-62865000D03*
%TO.N,Net-(R124-Pad1)*%
X197889579Y-72053002D03*
X202311000Y-69469000D03*
%TO.N,Net-(R132-Pad2)*%
X207010000Y-66675000D03*
X203200000Y-67183000D03*
%TO.N,Net-(U6B--)*%
X199917951Y-62003256D03*
X193844000Y-68971500D03*
%TO.N,/Perif_Subsystem/WD_Perif/WDT-VP*%
X196224342Y-66845158D03*
X200067000Y-62748500D03*
%TO.N,Net-(U6A--)*%
X194511820Y-60845754D03*
X198916000Y-61551970D03*
%TO.N,Net-(R141-Pad1)*%
X223760500Y-72166201D03*
X227838000Y-70096498D03*
%TO.N,SDA*%
X221488000Y-103225600D03*
X180390800Y-106019600D03*
X187960000Y-106273600D03*
X172781000Y-106019600D03*
X223469200Y-98602800D03*
%TO.N,Net-(U10B--)*%
X225275951Y-62119756D03*
X219202000Y-69088000D03*
%TO.N,SCL*%
X184048400Y-106832400D03*
X187366538Y-106748370D03*
X192481200Y-99720400D03*
X178473759Y-106768051D03*
X190950942Y-102455342D03*
%TO.N,Net-(U10A--)*%
X219869820Y-60962254D03*
X224274000Y-61668470D03*
%TO.N,Net-(U1-RT)*%
X230994024Y-81375966D03*
X227971956Y-81431431D03*
%TO.N,Net-(U1-EN{slash}UV)*%
X232253602Y-81345025D03*
X227227375Y-81583748D03*
%TO.N,Net-(U3-RT)*%
X179380453Y-82049522D03*
X182764000Y-82410800D03*
%TO.N,Net-(U3-EN{slash}UV)*%
X178649200Y-82256582D03*
X183983200Y-82360000D03*
%TO.N,Net-(U6C-+)*%
X197559658Y-66337158D03*
X197527000Y-71384500D03*
%TO.N,Net-(D8-K)*%
X200568820Y-70419220D03*
X202438000Y-68021200D03*
%TO.N,Net-(U13-EN{slash}UV)*%
X206597000Y-80618426D03*
X201733750Y-80971484D03*
%TO.N,/OBC_Subsystem/WD_OBC/WDT-VP*%
X174134000Y-62612250D03*
X170291342Y-66708908D03*
%TO.N,Net-(R149-Pad2)*%
X231902000Y-66395600D03*
X227729142Y-65234458D03*
%TO.N,Net-(U13-RT)*%
X202467815Y-80774633D03*
X205510612Y-80639652D03*
%TO.N,SYNC_PHASE3*%
X188722000Y-89609203D03*
X192735200Y-89611200D03*
X214579200Y-85242400D03*
X233375200Y-82550000D03*
X219049600Y-85293200D03*
X167690800Y-89434200D03*
%TO.N,SYNC_PHASE1*%
X167828800Y-84696800D03*
X181668499Y-85156786D03*
X181036800Y-82828200D03*
%TO.N,SYNC_PHASE2*%
X207858056Y-81493056D03*
X203989134Y-81757000D03*
X192735200Y-88849200D03*
X188722000Y-88849200D03*
X166116000Y-88849200D03*
%TO.N,Net-(U10C-+)*%
X222917658Y-66453658D03*
X222885000Y-71501000D03*
%TO.N,Net-(U11D--)*%
X170735842Y-65437092D03*
X168927000Y-69724250D03*
%TO.N,Net-(D18-K)*%
X176403000Y-67945000D03*
X174673520Y-70406520D03*
%TO.N,Net-(R157-Pad1)*%
X172469500Y-71913452D03*
X176403000Y-69469000D03*
%TO.N,Net-(U11B--)*%
X167911000Y-68835250D03*
X173984951Y-61867006D03*
%TO.N,Net-(U11A--)*%
X172983000Y-61415720D03*
X168578820Y-60709504D03*
%TO.N,Net-(R165-Pad2)*%
X176416000Y-65130169D03*
X180695600Y-66395600D03*
%TO.N,Net-(U11C-+)*%
X171594000Y-71248250D03*
X171626658Y-66200908D03*
%TD*%
D19*
%TO.N,+V_Batt*%
X173191800Y-78296000D02*
X171791200Y-79696600D01*
X177328400Y-78296000D02*
X173191800Y-78296000D01*
%TO.N,+3.3V_OBC*%
X171043600Y-92315270D02*
X177788330Y-99060000D01*
X170535600Y-84632800D02*
X171043600Y-84124800D01*
X192227200Y-97891600D02*
X191008000Y-99110800D01*
X183303000Y-64654250D02*
X183303000Y-62213400D01*
X171043600Y-84124800D02*
X171043600Y-92315270D01*
X194157600Y-75539600D02*
X194157600Y-80111600D01*
X177788330Y-99060000D02*
X183692800Y-99060000D01*
X168757600Y-84632800D02*
X170535600Y-84632800D01*
X191008000Y-99110800D02*
X187756800Y-99110800D01*
X183286400Y-64668400D02*
X194157600Y-75539600D01*
X183303000Y-62213400D02*
X183337200Y-62179200D01*
X183303000Y-64651800D02*
X183286400Y-64668400D01*
%TO.N,+20V_Jetson*%
X234594000Y-62382800D02*
X234645200Y-62331600D01*
X230632000Y-102717600D02*
X236321600Y-97028000D01*
X236321600Y-97028000D02*
X236321600Y-83250870D01*
X236321600Y-83250870D02*
X235730000Y-82659270D01*
X234594000Y-64907000D02*
X234594000Y-62382800D01*
X235730000Y-66058000D02*
X234594400Y-64922400D01*
X235730000Y-82659270D02*
X235730000Y-66058000D01*
%TO.N,+5V_Perif*%
X210413600Y-65989200D02*
X210413600Y-88544400D01*
X200152000Y-98806000D02*
X198526400Y-98806000D01*
X209236000Y-64790500D02*
X209236000Y-62271600D01*
X209245200Y-64820800D02*
X210413600Y-65989200D01*
X210413600Y-88544400D02*
X200152000Y-98806000D01*
X209236000Y-62271600D02*
X209194400Y-62230000D01*
%TO.N,OBC_EN_JETSON*%
X210824600Y-84120200D02*
X210824600Y-117597400D01*
X214789948Y-80460232D02*
X214484568Y-80460232D01*
X208584800Y-119837200D02*
X181102000Y-119837200D01*
X214484568Y-80460232D02*
X210824600Y-84120200D01*
X181102000Y-119837200D02*
X179120800Y-117856000D01*
X210824600Y-117597400D02*
X208584800Y-119837200D01*
%TD*%
%TA.AperFunction,Conductor*%
%TO.N,+20V_Jetson*%
G36*
X232859850Y-101823547D02*
G01*
X232906202Y-101875827D01*
X232918000Y-101928617D01*
X232918000Y-105990170D01*
X232898315Y-106057209D01*
X232845511Y-106102964D01*
X232844817Y-106103279D01*
X229412801Y-107645199D01*
X224637600Y-112623599D01*
X224143033Y-116629593D01*
X224115282Y-116693716D01*
X224057270Y-116732656D01*
X224019967Y-116738400D01*
X215737818Y-116738400D01*
X215670779Y-116718715D01*
X215625024Y-116665911D01*
X215615022Y-116597165D01*
X215998256Y-113866625D01*
X216013609Y-113821956D01*
X220415869Y-106181251D01*
X220428040Y-106163791D01*
X221816255Y-104497933D01*
X221874291Y-104459037D01*
X221944148Y-104457691D01*
X221999192Y-104489638D01*
X222068846Y-104559292D01*
X222173853Y-104619918D01*
X222290974Y-104651300D01*
X222290976Y-104651300D01*
X222412224Y-104651300D01*
X222412226Y-104651300D01*
X222529347Y-104619918D01*
X222634354Y-104559292D01*
X222720092Y-104473554D01*
X222780718Y-104368547D01*
X222812100Y-104251426D01*
X222812100Y-104130174D01*
X222780718Y-104013053D01*
X222720092Y-103908046D01*
X222634354Y-103822308D01*
X222621406Y-103814832D01*
X222589672Y-103796510D01*
X222541458Y-103745942D01*
X222528236Y-103677335D01*
X222554205Y-103612471D01*
X222556386Y-103609776D01*
X223423721Y-102568974D01*
X224916300Y-102568974D01*
X224916300Y-102690226D01*
X224947682Y-102807347D01*
X225008308Y-102912354D01*
X225094046Y-102998092D01*
X225199053Y-103058718D01*
X225316174Y-103090100D01*
X225316176Y-103090100D01*
X225437424Y-103090100D01*
X225437426Y-103090100D01*
X225554547Y-103058718D01*
X225659554Y-102998092D01*
X225745292Y-102912354D01*
X225805918Y-102807347D01*
X225837300Y-102690226D01*
X225837300Y-102568974D01*
X225805918Y-102451853D01*
X225745292Y-102346846D01*
X225659554Y-102261108D01*
X225554547Y-102200482D01*
X225437426Y-102169100D01*
X225316174Y-102169100D01*
X225199053Y-102200482D01*
X225199050Y-102200483D01*
X225094049Y-102261106D01*
X225094043Y-102261110D01*
X225008310Y-102346843D01*
X225008306Y-102346849D01*
X224947683Y-102451850D01*
X224947682Y-102451853D01*
X224916300Y-102568974D01*
X223423721Y-102568974D01*
X223940570Y-101948755D01*
X223998606Y-101909859D01*
X224034411Y-101904149D01*
X229437236Y-101842754D01*
X229504495Y-101861676D01*
X229550847Y-101913956D01*
X229561575Y-101982997D01*
X229533275Y-102046879D01*
X229526327Y-102054427D01*
X229450707Y-102130047D01*
X229450706Y-102130049D01*
X229390083Y-102235050D01*
X229390082Y-102235053D01*
X229358700Y-102352174D01*
X229358700Y-102473426D01*
X229390082Y-102590547D01*
X229450708Y-102695554D01*
X229536446Y-102781292D01*
X229641453Y-102841918D01*
X229758574Y-102873300D01*
X229758576Y-102873300D01*
X229879824Y-102873300D01*
X229879826Y-102873300D01*
X229996947Y-102841918D01*
X230101954Y-102781292D01*
X230187692Y-102695554D01*
X230248318Y-102590547D01*
X230279700Y-102473426D01*
X230279700Y-102352174D01*
X230248318Y-102235053D01*
X230187692Y-102130046D01*
X230103521Y-102045875D01*
X230070036Y-101984552D01*
X230075020Y-101914860D01*
X230116892Y-101858927D01*
X230182356Y-101834510D01*
X230189781Y-101834202D01*
X232792591Y-101804625D01*
X232859850Y-101823547D01*
G37*
%TD.AperFunction*%
%TD*%
%TA.AperFunction,Conductor*%
%TO.N,+5V_Perif*%
G36*
X200857039Y-97200085D02*
G01*
X200902794Y-97252889D01*
X200914000Y-97304400D01*
X200914000Y-116512800D01*
X200894315Y-116579839D01*
X200841511Y-116625594D01*
X200790000Y-116636800D01*
X193164000Y-116636800D01*
X193096961Y-116617115D01*
X193051206Y-116564311D01*
X193040000Y-116512800D01*
X193040000Y-98248374D01*
X194102500Y-98248374D01*
X194102500Y-98369626D01*
X194133882Y-98486747D01*
X194194508Y-98591754D01*
X194280246Y-98677492D01*
X194385253Y-98738118D01*
X194502374Y-98769500D01*
X194502376Y-98769500D01*
X194623624Y-98769500D01*
X194623626Y-98769500D01*
X194740747Y-98738118D01*
X194845754Y-98677492D01*
X194931492Y-98591754D01*
X194992118Y-98486747D01*
X195023500Y-98369626D01*
X195023500Y-98248374D01*
X194992118Y-98131253D01*
X194931492Y-98026246D01*
X194845754Y-97940508D01*
X194740747Y-97879882D01*
X194623626Y-97848500D01*
X194502374Y-97848500D01*
X194385253Y-97879882D01*
X194385250Y-97879883D01*
X194280249Y-97940506D01*
X194280243Y-97940510D01*
X194194510Y-98026243D01*
X194194506Y-98026249D01*
X194133883Y-98131250D01*
X194133882Y-98131253D01*
X194102500Y-98248374D01*
X193040000Y-98248374D01*
X193040000Y-97304400D01*
X193059685Y-97237361D01*
X193112489Y-97191606D01*
X193164000Y-97180400D01*
X200790000Y-97180400D01*
X200857039Y-97200085D01*
G37*
%TD.AperFunction*%
%TD*%
%TA.AperFunction,Conductor*%
%TO.N,+3.3V_OBC*%
G36*
X188662600Y-98484687D02*
G01*
X188709568Y-98536414D01*
X188722000Y-98590530D01*
X188722000Y-101852995D01*
X188702315Y-101920034D01*
X188685146Y-101941208D01*
X184231318Y-106341156D01*
X184169792Y-106374267D01*
X184117094Y-106372854D01*
X184117080Y-106372961D01*
X184116058Y-106372826D01*
X184112086Y-106372720D01*
X184109027Y-106371900D01*
X184109026Y-106371900D01*
X183987774Y-106371900D01*
X183870653Y-106403282D01*
X183870650Y-106403283D01*
X183765649Y-106463906D01*
X183765643Y-106463910D01*
X183679910Y-106549643D01*
X183679906Y-106549649D01*
X183619283Y-106654650D01*
X183619282Y-106654653D01*
X183587900Y-106771774D01*
X183587900Y-106893026D01*
X183587901Y-106893029D01*
X183588961Y-106901080D01*
X183586711Y-106901376D01*
X183585321Y-106959485D01*
X183554359Y-107009928D01*
X176123600Y-114350799D01*
X176123600Y-116665200D01*
X176103915Y-116732239D01*
X176051111Y-116777994D01*
X175999600Y-116789200D01*
X167459200Y-116789200D01*
X167392161Y-116769515D01*
X167346406Y-116716711D01*
X167335200Y-116665200D01*
X167335200Y-114454935D01*
X167354885Y-114387896D01*
X167373916Y-114364921D01*
X173036028Y-109000816D01*
X176622142Y-109000816D01*
X176622142Y-109122068D01*
X176653524Y-109239189D01*
X176714150Y-109344196D01*
X176799888Y-109429934D01*
X176904895Y-109490560D01*
X177022016Y-109521942D01*
X177022018Y-109521942D01*
X177143266Y-109521942D01*
X177143268Y-109521942D01*
X177260389Y-109490560D01*
X177365396Y-109429934D01*
X177451134Y-109344196D01*
X177511760Y-109239189D01*
X177543142Y-109122068D01*
X177543142Y-109000816D01*
X177511760Y-108883695D01*
X177451134Y-108778688D01*
X177365396Y-108692950D01*
X177260389Y-108632324D01*
X177143268Y-108600942D01*
X177022016Y-108600942D01*
X176904895Y-108632324D01*
X176904892Y-108632325D01*
X176799891Y-108692948D01*
X176799885Y-108692952D01*
X176714152Y-108778685D01*
X176714148Y-108778691D01*
X176653525Y-108883692D01*
X176653524Y-108883695D01*
X176622142Y-109000816D01*
X173036028Y-109000816D01*
X173850407Y-108229299D01*
X174007040Y-108080910D01*
X174069245Y-108049094D01*
X174138777Y-108055959D01*
X174180001Y-108083247D01*
X174234046Y-108137292D01*
X174339053Y-108197918D01*
X174456174Y-108229300D01*
X174456176Y-108229300D01*
X174577424Y-108229300D01*
X174577426Y-108229300D01*
X174694547Y-108197918D01*
X174799554Y-108137292D01*
X174885292Y-108051554D01*
X174945918Y-107946547D01*
X174977300Y-107829426D01*
X174977300Y-107708174D01*
X174945918Y-107591053D01*
X174885292Y-107486046D01*
X174802234Y-107402988D01*
X174768749Y-107341665D01*
X174773733Y-107271973D01*
X174798606Y-107231410D01*
X175280106Y-106707425D01*
X178013259Y-106707425D01*
X178013259Y-106828677D01*
X178044641Y-106945798D01*
X178105267Y-107050805D01*
X178191005Y-107136543D01*
X178296012Y-107197169D01*
X178413133Y-107228551D01*
X178413135Y-107228551D01*
X178534383Y-107228551D01*
X178534385Y-107228551D01*
X178651506Y-107197169D01*
X178756513Y-107136543D01*
X178842251Y-107050805D01*
X178902877Y-106945798D01*
X178934259Y-106828677D01*
X178934259Y-106707425D01*
X178902877Y-106590304D01*
X178842251Y-106485297D01*
X178756513Y-106399559D01*
X178686508Y-106359141D01*
X178651508Y-106338934D01*
X178651507Y-106338933D01*
X178651506Y-106338933D01*
X178534385Y-106307551D01*
X178413133Y-106307551D01*
X178296012Y-106338933D01*
X178296009Y-106338934D01*
X178191008Y-106399557D01*
X178191002Y-106399561D01*
X178105269Y-106485294D01*
X178105265Y-106485300D01*
X178044642Y-106590301D01*
X178044641Y-106590304D01*
X178013259Y-106707425D01*
X175280106Y-106707425D01*
X175967872Y-105958974D01*
X179930300Y-105958974D01*
X179930300Y-106080226D01*
X179961682Y-106197347D01*
X180022308Y-106302354D01*
X180108046Y-106388092D01*
X180213053Y-106448718D01*
X180330174Y-106480100D01*
X180330176Y-106480100D01*
X180451424Y-106480100D01*
X180451426Y-106480100D01*
X180568547Y-106448718D01*
X180673554Y-106388092D01*
X180759292Y-106302354D01*
X180819918Y-106197347D01*
X180851300Y-106080226D01*
X180851300Y-105958974D01*
X180819918Y-105841853D01*
X180759292Y-105736846D01*
X180673554Y-105651108D01*
X180568547Y-105590482D01*
X180451426Y-105559100D01*
X180330174Y-105559100D01*
X180213053Y-105590482D01*
X180213050Y-105590483D01*
X180108049Y-105651106D01*
X180108043Y-105651110D01*
X180022310Y-105736843D01*
X180022306Y-105736849D01*
X179961683Y-105841850D01*
X179961682Y-105841853D01*
X179930300Y-105958974D01*
X175967872Y-105958974D01*
X177169450Y-104651374D01*
X181084300Y-104651374D01*
X181084300Y-104772626D01*
X181115682Y-104889747D01*
X181176308Y-104994754D01*
X181262046Y-105080492D01*
X181367053Y-105141118D01*
X181484174Y-105172500D01*
X181484176Y-105172500D01*
X181605424Y-105172500D01*
X181605426Y-105172500D01*
X181722547Y-105141118D01*
X181827554Y-105080492D01*
X181913292Y-104994754D01*
X181973918Y-104889747D01*
X182005300Y-104772626D01*
X182005300Y-104651374D01*
X181973918Y-104534253D01*
X181913292Y-104429246D01*
X181827554Y-104343508D01*
X181722547Y-104282882D01*
X181605426Y-104251500D01*
X181484174Y-104251500D01*
X181367053Y-104282882D01*
X181367050Y-104282883D01*
X181262049Y-104343506D01*
X181262043Y-104343510D01*
X181176310Y-104429243D01*
X181176306Y-104429249D01*
X181115683Y-104534250D01*
X181115682Y-104534253D01*
X181084300Y-104651374D01*
X177169450Y-104651374D01*
X178476520Y-103228974D01*
X179458700Y-103228974D01*
X179458700Y-103350226D01*
X179490082Y-103467347D01*
X179550708Y-103572354D01*
X179636446Y-103658092D01*
X179741453Y-103718718D01*
X179858574Y-103750100D01*
X179858576Y-103750100D01*
X179979824Y-103750100D01*
X179979826Y-103750100D01*
X180096947Y-103718718D01*
X180201954Y-103658092D01*
X180287692Y-103572354D01*
X180348318Y-103467347D01*
X180379700Y-103350226D01*
X180379700Y-103330574D01*
X182252700Y-103330574D01*
X182252700Y-103451826D01*
X182284082Y-103568947D01*
X182344708Y-103673954D01*
X182430446Y-103759692D01*
X182535453Y-103820318D01*
X182652574Y-103851700D01*
X182652576Y-103851700D01*
X182773824Y-103851700D01*
X182773826Y-103851700D01*
X182890947Y-103820318D01*
X182995954Y-103759692D01*
X183081692Y-103673954D01*
X183142318Y-103568947D01*
X183173700Y-103451826D01*
X183173700Y-103330574D01*
X183142318Y-103213453D01*
X183081692Y-103108446D01*
X182995954Y-103022708D01*
X182925949Y-102982290D01*
X182890949Y-102962083D01*
X182890948Y-102962082D01*
X182890947Y-102962082D01*
X182773826Y-102930700D01*
X182652574Y-102930700D01*
X182535453Y-102962082D01*
X182535450Y-102962083D01*
X182430449Y-103022706D01*
X182430443Y-103022710D01*
X182344710Y-103108443D01*
X182344706Y-103108449D01*
X182284083Y-103213450D01*
X182284082Y-103213453D01*
X182252700Y-103330574D01*
X180379700Y-103330574D01*
X180379700Y-103228974D01*
X180348318Y-103111853D01*
X180287692Y-103006846D01*
X180201954Y-102921108D01*
X180096947Y-102860482D01*
X179979826Y-102829100D01*
X179858574Y-102829100D01*
X179741453Y-102860482D01*
X179741450Y-102860483D01*
X179636449Y-102921106D01*
X179636443Y-102921110D01*
X179550710Y-103006843D01*
X179550706Y-103006849D01*
X179490083Y-103111850D01*
X179490082Y-103111853D01*
X179458700Y-103228974D01*
X178476520Y-103228974D01*
X179036693Y-102619374D01*
X185249900Y-102619374D01*
X185249900Y-102740625D01*
X185281282Y-102857746D01*
X185281283Y-102857749D01*
X185301490Y-102892749D01*
X185341908Y-102962754D01*
X185427646Y-103048492D01*
X185532653Y-103109118D01*
X185649774Y-103140500D01*
X185649776Y-103140500D01*
X185771024Y-103140500D01*
X185771026Y-103140500D01*
X185888147Y-103109118D01*
X185993154Y-103048492D01*
X186078892Y-102962754D01*
X186139518Y-102857747D01*
X186170900Y-102740626D01*
X186170900Y-102619374D01*
X186139518Y-102502253D01*
X186078892Y-102397246D01*
X185993154Y-102311508D01*
X185888147Y-102250882D01*
X185771026Y-102219500D01*
X185649774Y-102219500D01*
X185532653Y-102250882D01*
X185532650Y-102250883D01*
X185427649Y-102311506D01*
X185427643Y-102311510D01*
X185341910Y-102397243D01*
X185341906Y-102397249D01*
X185281283Y-102502250D01*
X185281282Y-102502253D01*
X185249900Y-102619374D01*
X179036693Y-102619374D01*
X179380187Y-102245572D01*
X179440038Y-102209532D01*
X179509878Y-102211569D01*
X179567530Y-102251042D01*
X179588282Y-102291560D01*
X179588573Y-102291440D01*
X179590064Y-102295040D01*
X179591261Y-102297377D01*
X179591680Y-102298942D01*
X179591681Y-102298946D01*
X179591682Y-102298947D01*
X179652308Y-102403954D01*
X179738046Y-102489692D01*
X179843053Y-102550318D01*
X179960174Y-102581700D01*
X179993337Y-102581700D01*
X180081424Y-102581700D01*
X180081426Y-102581700D01*
X180198547Y-102550318D01*
X180303554Y-102489692D01*
X180389292Y-102403954D01*
X180449918Y-102298947D01*
X180481300Y-102181826D01*
X180481300Y-102060574D01*
X180449918Y-101943453D01*
X180389292Y-101838446D01*
X180303554Y-101752708D01*
X180198549Y-101692083D01*
X180198548Y-101692082D01*
X180147693Y-101678456D01*
X180088033Y-101642090D01*
X180057504Y-101579243D01*
X180065799Y-101509868D01*
X180088476Y-101474786D01*
X182691910Y-98641638D01*
X182751763Y-98605597D01*
X182780330Y-98601575D01*
X188595125Y-98466563D01*
X188662600Y-98484687D01*
G37*
%TD.AperFunction*%
%TD*%
%TA.AperFunction,Conductor*%
%TO.N,+V_Batt*%
G36*
X233369039Y-40558085D02*
G01*
X233414794Y-40610889D01*
X233426000Y-40662400D01*
X233426000Y-81614296D01*
X233406315Y-81681335D01*
X233353511Y-81727090D01*
X233301925Y-81738296D01*
X232773171Y-81737975D01*
X232706143Y-81718250D01*
X232660420Y-81665418D01*
X232650519Y-81596253D01*
X232665860Y-81551974D01*
X232666224Y-81551344D01*
X232682720Y-81522772D01*
X232714102Y-81405651D01*
X232714102Y-81284399D01*
X232682720Y-81167278D01*
X232622094Y-81062271D01*
X232536356Y-80976533D01*
X232431349Y-80915907D01*
X232314228Y-80884525D01*
X232192976Y-80884525D01*
X232075855Y-80915907D01*
X232075852Y-80915908D01*
X231970851Y-80976531D01*
X231970845Y-80976535D01*
X231885112Y-81062268D01*
X231885108Y-81062274D01*
X231824485Y-81167275D01*
X231824484Y-81167278D01*
X231793102Y-81284399D01*
X231793102Y-81405651D01*
X231822362Y-81514850D01*
X231824484Y-81522771D01*
X231824484Y-81522772D01*
X231840980Y-81551344D01*
X231842420Y-81557280D01*
X231846418Y-81561900D01*
X231850560Y-81590839D01*
X231857451Y-81619244D01*
X231855453Y-81625016D01*
X231856319Y-81631064D01*
X231844159Y-81657646D01*
X231834599Y-81685271D01*
X231829796Y-81689047D01*
X231827256Y-81694602D01*
X231802656Y-81710390D01*
X231779677Y-81728461D01*
X231772283Y-81729883D01*
X231768455Y-81732341D01*
X231733517Y-81737343D01*
X231531892Y-81737221D01*
X231464864Y-81717496D01*
X231419141Y-81664664D01*
X231409240Y-81595500D01*
X231420981Y-81561616D01*
X231420031Y-81561223D01*
X231423137Y-81553721D01*
X231423142Y-81553713D01*
X231454524Y-81436592D01*
X231454524Y-81315340D01*
X231423142Y-81198219D01*
X231362516Y-81093212D01*
X231276778Y-81007474D01*
X231200689Y-80963544D01*
X231171773Y-80946849D01*
X231171772Y-80946848D01*
X231171771Y-80946848D01*
X231054650Y-80915466D01*
X230933398Y-80915466D01*
X230816277Y-80946848D01*
X230816274Y-80946849D01*
X230711273Y-81007472D01*
X230711267Y-81007476D01*
X230625534Y-81093209D01*
X230625530Y-81093215D01*
X230564907Y-81198216D01*
X230564906Y-81198219D01*
X230533524Y-81315340D01*
X230533524Y-81436592D01*
X230564898Y-81553681D01*
X230564906Y-81553712D01*
X230568017Y-81561223D01*
X230565890Y-81562103D01*
X230579562Y-81618473D01*
X230556708Y-81684499D01*
X230501785Y-81727687D01*
X230455627Y-81736568D01*
X230152156Y-81736383D01*
X230085129Y-81716658D01*
X230044845Y-81674383D01*
X230035182Y-81657646D01*
X230012492Y-81618346D01*
X229926754Y-81532608D01*
X229825674Y-81474249D01*
X229821749Y-81471983D01*
X229821748Y-81471982D01*
X229821747Y-81471982D01*
X229704626Y-81440600D01*
X229583374Y-81440600D01*
X229466253Y-81471982D01*
X229466250Y-81471983D01*
X229361249Y-81532606D01*
X229361243Y-81532610D01*
X229275510Y-81618343D01*
X229275508Y-81618346D01*
X229243510Y-81673768D01*
X229192942Y-81721983D01*
X229136048Y-81735767D01*
X228528777Y-81735398D01*
X228461749Y-81715673D01*
X228416026Y-81662841D01*
X228406125Y-81593676D01*
X228409071Y-81579329D01*
X228432456Y-81492057D01*
X228432456Y-81370805D01*
X228401074Y-81253684D01*
X228340448Y-81148677D01*
X228254710Y-81062939D01*
X228159803Y-81008144D01*
X228149705Y-81002314D01*
X228149704Y-81002313D01*
X228149703Y-81002313D01*
X228032582Y-80970931D01*
X227911330Y-80970931D01*
X227794209Y-81002313D01*
X227794206Y-81002314D01*
X227689205Y-81062937D01*
X227689199Y-81062941D01*
X227597717Y-81154424D01*
X227596112Y-81152819D01*
X227549165Y-81187093D01*
X227479418Y-81191240D01*
X227445231Y-81177786D01*
X227405128Y-81154633D01*
X227405124Y-81154631D01*
X227405122Y-81154630D01*
X227288001Y-81123248D01*
X227166749Y-81123248D01*
X227049628Y-81154630D01*
X227049625Y-81154631D01*
X226944624Y-81215254D01*
X226944618Y-81215258D01*
X226858885Y-81300991D01*
X226858881Y-81300997D01*
X226798258Y-81405998D01*
X226798257Y-81406001D01*
X226766875Y-81523122D01*
X226766875Y-81610254D01*
X226747190Y-81677293D01*
X226694386Y-81723048D01*
X226642800Y-81734254D01*
X215270561Y-81727350D01*
X215203533Y-81707625D01*
X215157810Y-81654793D01*
X215147909Y-81585628D01*
X215163247Y-81541354D01*
X215211518Y-81457747D01*
X215242900Y-81340626D01*
X215242900Y-81219374D01*
X215211518Y-81102253D01*
X215150892Y-80997246D01*
X215140561Y-80986915D01*
X215115216Y-80961569D01*
X215081731Y-80900246D01*
X215086717Y-80830554D01*
X215115216Y-80786209D01*
X215158440Y-80742986D01*
X215219066Y-80637979D01*
X215250448Y-80520858D01*
X215250448Y-80399606D01*
X215219066Y-80282485D01*
X215158440Y-80177478D01*
X215096336Y-80115374D01*
X231672700Y-80115374D01*
X231672700Y-80236626D01*
X231701877Y-80345515D01*
X231704082Y-80353746D01*
X231704083Y-80353749D01*
X231705901Y-80356898D01*
X231764708Y-80458754D01*
X231850446Y-80544492D01*
X231955453Y-80605118D01*
X232072574Y-80636500D01*
X232072576Y-80636500D01*
X232193824Y-80636500D01*
X232193826Y-80636500D01*
X232310947Y-80605118D01*
X232415954Y-80544492D01*
X232501692Y-80458754D01*
X232562318Y-80353747D01*
X232593700Y-80236626D01*
X232593700Y-80115374D01*
X232562318Y-79998253D01*
X232501692Y-79893246D01*
X232415954Y-79807508D01*
X232310947Y-79746882D01*
X232193826Y-79715500D01*
X232072574Y-79715500D01*
X231955453Y-79746882D01*
X231955450Y-79746883D01*
X231850449Y-79807506D01*
X231850443Y-79807510D01*
X231764710Y-79893243D01*
X231764706Y-79893249D01*
X231704083Y-79998250D01*
X231704082Y-79998253D01*
X231672700Y-80115374D01*
X215096336Y-80115374D01*
X215072702Y-80091740D01*
X214967695Y-80031114D01*
X214850574Y-79999732D01*
X214729322Y-79999732D01*
X214612201Y-80031114D01*
X214612198Y-80031115D01*
X214507197Y-80091738D01*
X214507190Y-80091743D01*
X214439357Y-80159575D01*
X214383778Y-80191666D01*
X214374370Y-80194187D01*
X214374369Y-80194187D01*
X214309267Y-80231775D01*
X214309264Y-80231777D01*
X212851531Y-81689509D01*
X212790208Y-81722994D01*
X212763775Y-81725828D01*
X210823025Y-81724650D01*
X210755997Y-81704925D01*
X210710274Y-81652093D01*
X210699100Y-81600650D01*
X210699100Y-77778574D01*
X231723500Y-77778574D01*
X231723500Y-77899826D01*
X231754882Y-78016947D01*
X231815508Y-78121954D01*
X231901246Y-78207692D01*
X232006253Y-78268318D01*
X232123374Y-78299700D01*
X232123376Y-78299700D01*
X232244624Y-78299700D01*
X232244626Y-78299700D01*
X232361747Y-78268318D01*
X232466754Y-78207692D01*
X232552492Y-78121954D01*
X232613118Y-78016947D01*
X232644500Y-77899826D01*
X232644500Y-77778574D01*
X232613118Y-77661453D01*
X232552492Y-77556446D01*
X232466754Y-77470708D01*
X232361747Y-77410082D01*
X232244626Y-77378700D01*
X232123374Y-77378700D01*
X232006253Y-77410082D01*
X232006250Y-77410083D01*
X231901249Y-77470706D01*
X231901243Y-77470710D01*
X231815510Y-77556443D01*
X231815506Y-77556449D01*
X231754883Y-77661450D01*
X231754882Y-77661453D01*
X231723500Y-77778574D01*
X210699100Y-77778574D01*
X210699100Y-76711774D01*
X224865500Y-76711774D01*
X224865500Y-76833026D01*
X224896882Y-76950147D01*
X224957508Y-77055154D01*
X225043246Y-77140892D01*
X225148253Y-77201518D01*
X225265374Y-77232900D01*
X225265376Y-77232900D01*
X225386624Y-77232900D01*
X225386626Y-77232900D01*
X225503747Y-77201518D01*
X225608754Y-77140892D01*
X225694492Y-77055154D01*
X225755118Y-76950147D01*
X225786500Y-76833026D01*
X225786500Y-76711774D01*
X225755118Y-76594653D01*
X225694492Y-76489646D01*
X225608754Y-76403908D01*
X225503747Y-76343282D01*
X225386626Y-76311900D01*
X225265374Y-76311900D01*
X225148253Y-76343282D01*
X225148250Y-76343283D01*
X225043249Y-76403906D01*
X225043243Y-76403910D01*
X224957510Y-76489643D01*
X224957506Y-76489649D01*
X224896883Y-76594650D01*
X224896882Y-76594653D01*
X224865500Y-76711774D01*
X210699100Y-76711774D01*
X210699100Y-72646874D01*
X222234000Y-72646874D01*
X222234000Y-72768126D01*
X222265382Y-72885247D01*
X222326008Y-72990254D01*
X222411746Y-73075992D01*
X222516753Y-73136618D01*
X222633874Y-73168000D01*
X222633876Y-73168000D01*
X222755124Y-73168000D01*
X222755126Y-73168000D01*
X222872247Y-73136618D01*
X222977254Y-73075992D01*
X223062992Y-72990254D01*
X223123618Y-72885247D01*
X223155000Y-72768126D01*
X223155000Y-72646874D01*
X223123618Y-72529753D01*
X223062992Y-72424746D01*
X222977254Y-72339008D01*
X222878417Y-72281944D01*
X222872249Y-72278383D01*
X222872248Y-72278382D01*
X222872247Y-72278382D01*
X222755126Y-72247000D01*
X222633874Y-72247000D01*
X222516753Y-72278382D01*
X222516750Y-72278383D01*
X222411749Y-72339006D01*
X222411743Y-72339010D01*
X222326010Y-72424743D01*
X222326006Y-72424749D01*
X222265383Y-72529750D01*
X222265382Y-72529753D01*
X222234000Y-72646874D01*
X210699100Y-72646874D01*
X210699100Y-71440374D01*
X222424500Y-71440374D01*
X222424500Y-71561626D01*
X222455882Y-71678747D01*
X222516508Y-71783754D01*
X222602246Y-71869492D01*
X222707253Y-71930118D01*
X222824374Y-71961500D01*
X222824376Y-71961500D01*
X222945624Y-71961500D01*
X222945626Y-71961500D01*
X223062747Y-71930118D01*
X223139784Y-71885640D01*
X223207681Y-71869168D01*
X223273708Y-71892020D01*
X223316899Y-71946941D01*
X223323541Y-72016494D01*
X223321557Y-72025120D01*
X223300000Y-72105573D01*
X223300000Y-72105575D01*
X223300000Y-72226827D01*
X223331382Y-72343948D01*
X223392008Y-72448955D01*
X223477746Y-72534693D01*
X223582753Y-72595319D01*
X223699874Y-72626701D01*
X223699876Y-72626701D01*
X223821124Y-72626701D01*
X223821126Y-72626701D01*
X223938247Y-72595319D01*
X224043254Y-72534693D01*
X224128992Y-72448955D01*
X224189618Y-72343948D01*
X224221000Y-72226827D01*
X224221000Y-72105575D01*
X224189618Y-71988454D01*
X224128992Y-71883447D01*
X224043254Y-71797709D01*
X223938247Y-71737083D01*
X223821126Y-71705701D01*
X223699874Y-71705701D01*
X223582753Y-71737083D01*
X223582752Y-71737083D01*
X223505716Y-71781560D01*
X223437816Y-71798032D01*
X223371789Y-71775179D01*
X223328599Y-71720257D01*
X223321958Y-71650704D01*
X223323934Y-71642111D01*
X223345500Y-71561626D01*
X223345500Y-71440374D01*
X223314118Y-71323253D01*
X223253492Y-71218246D01*
X223167754Y-71132508D01*
X223062747Y-71071882D01*
X222945626Y-71040500D01*
X222824374Y-71040500D01*
X222707253Y-71071882D01*
X222707250Y-71071883D01*
X222602249Y-71132506D01*
X222602243Y-71132510D01*
X222516510Y-71218243D01*
X222516506Y-71218249D01*
X222455883Y-71323250D01*
X222455882Y-71323253D01*
X222424500Y-71440374D01*
X210699100Y-71440374D01*
X210699100Y-70612872D01*
X225599500Y-70612872D01*
X225599500Y-70734124D01*
X225628450Y-70842166D01*
X225630882Y-70851244D01*
X225630883Y-70851247D01*
X225647322Y-70879720D01*
X225691508Y-70956252D01*
X225777246Y-71041990D01*
X225882253Y-71102616D01*
X225999374Y-71133998D01*
X225999376Y-71133998D01*
X226120624Y-71133998D01*
X226120626Y-71133998D01*
X226237747Y-71102616D01*
X226342754Y-71041990D01*
X226428492Y-70956252D01*
X226489118Y-70851245D01*
X226520500Y-70734124D01*
X226520500Y-70612872D01*
X226489118Y-70495751D01*
X226428492Y-70390744D01*
X226342754Y-70305006D01*
X226264379Y-70259756D01*
X226237749Y-70244381D01*
X226237748Y-70244380D01*
X226237747Y-70244380D01*
X226120626Y-70212998D01*
X225999374Y-70212998D01*
X225882253Y-70244380D01*
X225882250Y-70244381D01*
X225777249Y-70305004D01*
X225777243Y-70305008D01*
X225691510Y-70390741D01*
X225691506Y-70390747D01*
X225630883Y-70495748D01*
X225630882Y-70495751D01*
X225599500Y-70612872D01*
X210699100Y-70612872D01*
X210699100Y-69916374D01*
X219757500Y-69916374D01*
X219757500Y-70037626D01*
X219785802Y-70143250D01*
X219788882Y-70154746D01*
X219788883Y-70154749D01*
X219794947Y-70165252D01*
X219849508Y-70259754D01*
X219935246Y-70345492D01*
X220040253Y-70406118D01*
X220157374Y-70437500D01*
X220157376Y-70437500D01*
X220278624Y-70437500D01*
X220278626Y-70437500D01*
X220395747Y-70406118D01*
X220500754Y-70345492D01*
X220586492Y-70259754D01*
X220647118Y-70154747D01*
X220678500Y-70037626D01*
X220678500Y-70035872D01*
X227377500Y-70035872D01*
X227377500Y-70157124D01*
X227408882Y-70274245D01*
X227469508Y-70379252D01*
X227555246Y-70464990D01*
X227660253Y-70525616D01*
X227777374Y-70556998D01*
X227777376Y-70556998D01*
X227898624Y-70556998D01*
X227898626Y-70556998D01*
X228015747Y-70525616D01*
X228120754Y-70464990D01*
X228206492Y-70379252D01*
X228267118Y-70274245D01*
X228298500Y-70157124D01*
X228298500Y-70035872D01*
X228267118Y-69918751D01*
X228206492Y-69813744D01*
X228120754Y-69728006D01*
X228015747Y-69667380D01*
X227898626Y-69635998D01*
X227777374Y-69635998D01*
X227660253Y-69667380D01*
X227660250Y-69667381D01*
X227555249Y-69728004D01*
X227555243Y-69728008D01*
X227469510Y-69813741D01*
X227469506Y-69813747D01*
X227408883Y-69918748D01*
X227408882Y-69918751D01*
X227377500Y-70035872D01*
X220678500Y-70035872D01*
X220678500Y-69916374D01*
X220647118Y-69799253D01*
X220586492Y-69694246D01*
X220500754Y-69608508D01*
X220430749Y-69568090D01*
X220395749Y-69547883D01*
X220395748Y-69547882D01*
X220395747Y-69547882D01*
X220278626Y-69516500D01*
X220157374Y-69516500D01*
X220040253Y-69547882D01*
X220040250Y-69547883D01*
X219935249Y-69608506D01*
X219935243Y-69608510D01*
X219849510Y-69694243D01*
X219849506Y-69694249D01*
X219788883Y-69799250D01*
X219788882Y-69799253D01*
X219757500Y-69916374D01*
X210699100Y-69916374D01*
X210699100Y-69027374D01*
X218741500Y-69027374D01*
X218741500Y-69148626D01*
X218769802Y-69254250D01*
X218772882Y-69265746D01*
X218772883Y-69265749D01*
X218787606Y-69291250D01*
X218833508Y-69370754D01*
X218919246Y-69456492D01*
X219024253Y-69517118D01*
X219141374Y-69548500D01*
X219141376Y-69548500D01*
X219262624Y-69548500D01*
X219262626Y-69548500D01*
X219379747Y-69517118D01*
X219484754Y-69456492D01*
X219570492Y-69370754D01*
X219628885Y-69269613D01*
X219679452Y-69221398D01*
X219748059Y-69208175D01*
X219768359Y-69211837D01*
X219839874Y-69231000D01*
X219839876Y-69231000D01*
X219961124Y-69231000D01*
X219961126Y-69231000D01*
X220078247Y-69199618D01*
X220183254Y-69138992D01*
X220268992Y-69053254D01*
X220329618Y-68948247D01*
X220361000Y-68831126D01*
X220361000Y-68709874D01*
X220329618Y-68592753D01*
X220268992Y-68487746D01*
X220183254Y-68402008D01*
X220101401Y-68354750D01*
X220078249Y-68341383D01*
X220078248Y-68341382D01*
X220078247Y-68341382D01*
X219961126Y-68310000D01*
X219839874Y-68310000D01*
X219722753Y-68341382D01*
X219722750Y-68341383D01*
X219617749Y-68402006D01*
X219617743Y-68402010D01*
X219532010Y-68487743D01*
X219532008Y-68487746D01*
X219473614Y-68588886D01*
X219423046Y-68637101D01*
X219354439Y-68650323D01*
X219334135Y-68646660D01*
X219262627Y-68627500D01*
X219262626Y-68627500D01*
X219141374Y-68627500D01*
X219024253Y-68658882D01*
X219024250Y-68658883D01*
X218919249Y-68719506D01*
X218919243Y-68719510D01*
X218833510Y-68805243D01*
X218833506Y-68805249D01*
X218772883Y-68910250D01*
X218772882Y-68910253D01*
X218741500Y-69027374D01*
X210699100Y-69027374D01*
X210699100Y-68011374D01*
X227250500Y-68011374D01*
X227250500Y-68132626D01*
X227281882Y-68249747D01*
X227342508Y-68354754D01*
X227428246Y-68440492D01*
X227533253Y-68501118D01*
X227650374Y-68532500D01*
X227650376Y-68532500D01*
X227771624Y-68532500D01*
X227771626Y-68532500D01*
X227888747Y-68501118D01*
X227993754Y-68440492D01*
X228079492Y-68354754D01*
X228140118Y-68249747D01*
X228171500Y-68132626D01*
X228171500Y-68011374D01*
X228140118Y-67894253D01*
X228079492Y-67789246D01*
X227993754Y-67703508D01*
X227905763Y-67652706D01*
X227888749Y-67642883D01*
X227888748Y-67642882D01*
X227888747Y-67642882D01*
X227771626Y-67611500D01*
X227650374Y-67611500D01*
X227533253Y-67642882D01*
X227533250Y-67642883D01*
X227428249Y-67703506D01*
X227428243Y-67703510D01*
X227342510Y-67789243D01*
X227342506Y-67789249D01*
X227281883Y-67894250D01*
X227281882Y-67894253D01*
X227250500Y-68011374D01*
X210699100Y-68011374D01*
X210699100Y-66901032D01*
X221121842Y-66901032D01*
X221121842Y-67022284D01*
X221153224Y-67139405D01*
X221213850Y-67244412D01*
X221299588Y-67330150D01*
X221404595Y-67390776D01*
X221521716Y-67422158D01*
X221521718Y-67422158D01*
X221642966Y-67422158D01*
X221642968Y-67422158D01*
X221760089Y-67390776D01*
X221865096Y-67330150D01*
X221950834Y-67244412D01*
X222011460Y-67139405D01*
X222042842Y-67022284D01*
X222042842Y-66901032D01*
X222011460Y-66783911D01*
X221950834Y-66678904D01*
X221865096Y-66593166D01*
X221760089Y-66532540D01*
X221642968Y-66501158D01*
X221521716Y-66501158D01*
X221404595Y-66532540D01*
X221404592Y-66532541D01*
X221299591Y-66593164D01*
X221299585Y-66593168D01*
X221213852Y-66678901D01*
X221213848Y-66678907D01*
X221153225Y-66783908D01*
X221153224Y-66783911D01*
X221121842Y-66901032D01*
X210699100Y-66901032D01*
X210699100Y-66393032D01*
X222457158Y-66393032D01*
X222457158Y-66514284D01*
X222488540Y-66631405D01*
X222549166Y-66736412D01*
X222634904Y-66822150D01*
X222739911Y-66882776D01*
X222857032Y-66914158D01*
X222857034Y-66914158D01*
X222978282Y-66914158D01*
X222978284Y-66914158D01*
X223095405Y-66882776D01*
X223168001Y-66840862D01*
X223235898Y-66824390D01*
X223301925Y-66847242D01*
X223337383Y-66886245D01*
X223342003Y-66894247D01*
X223342006Y-66894251D01*
X223342008Y-66894254D01*
X223427746Y-66979992D01*
X223532753Y-67040618D01*
X223649874Y-67072000D01*
X223649876Y-67072000D01*
X223771124Y-67072000D01*
X223771126Y-67072000D01*
X223888247Y-67040618D01*
X223993254Y-66979992D01*
X224078992Y-66894254D01*
X224139618Y-66789247D01*
X224171000Y-66672126D01*
X224171000Y-66550874D01*
X224139618Y-66433753D01*
X224082588Y-66334974D01*
X231441500Y-66334974D01*
X231441500Y-66456226D01*
X231471825Y-66569400D01*
X231472882Y-66573346D01*
X231472883Y-66573349D01*
X231484326Y-66593168D01*
X231533508Y-66678354D01*
X231619246Y-66764092D01*
X231724253Y-66824718D01*
X231841374Y-66856100D01*
X231841376Y-66856100D01*
X231962624Y-66856100D01*
X231962626Y-66856100D01*
X232079747Y-66824718D01*
X232184754Y-66764092D01*
X232270492Y-66678354D01*
X232331118Y-66573347D01*
X232362500Y-66456226D01*
X232362500Y-66334974D01*
X232331118Y-66217853D01*
X232270492Y-66112846D01*
X232184754Y-66027108D01*
X232090330Y-65972592D01*
X232079749Y-65966483D01*
X232079748Y-65966482D01*
X232079747Y-65966482D01*
X231962626Y-65935100D01*
X231841374Y-65935100D01*
X231724253Y-65966482D01*
X231724250Y-65966483D01*
X231619249Y-66027106D01*
X231619243Y-66027110D01*
X231533510Y-66112843D01*
X231533506Y-66112849D01*
X231472883Y-66217850D01*
X231472882Y-66217853D01*
X231441500Y-66334974D01*
X224082588Y-66334974D01*
X224078992Y-66328746D01*
X223993254Y-66243008D01*
X223914120Y-66197320D01*
X223888249Y-66182383D01*
X223888248Y-66182382D01*
X223888247Y-66182382D01*
X223771126Y-66151000D01*
X223649874Y-66151000D01*
X223532753Y-66182382D01*
X223532750Y-66182383D01*
X223481032Y-66212243D01*
X223463127Y-66222581D01*
X223460158Y-66224295D01*
X223392258Y-66240768D01*
X223326231Y-66217916D01*
X223290771Y-66178908D01*
X223286150Y-66170904D01*
X223200412Y-66085166D01*
X223112656Y-66034500D01*
X223095407Y-66024541D01*
X223095406Y-66024540D01*
X223095405Y-66024540D01*
X222978284Y-65993158D01*
X222857032Y-65993158D01*
X222739911Y-66024540D01*
X222739908Y-66024541D01*
X222634907Y-66085164D01*
X222634901Y-66085168D01*
X222549168Y-66170901D01*
X222549164Y-66170907D01*
X222488541Y-66275908D01*
X222488540Y-66275911D01*
X222457158Y-66393032D01*
X210699100Y-66393032D01*
X210699100Y-65951615D01*
X210699100Y-65951613D01*
X210679644Y-65879001D01*
X210642057Y-65813899D01*
X210588901Y-65760743D01*
X210180067Y-65351909D01*
X210146582Y-65290586D01*
X210151566Y-65220894D01*
X210153160Y-65216842D01*
X210207667Y-65085252D01*
X210222339Y-65011492D01*
X210232955Y-64958124D01*
X213153500Y-64958124D01*
X213153500Y-65079376D01*
X213181802Y-65185000D01*
X213184882Y-65196496D01*
X213184883Y-65196499D01*
X213198968Y-65220894D01*
X213245508Y-65301504D01*
X213331246Y-65387242D01*
X213436253Y-65447868D01*
X213553374Y-65479250D01*
X213553376Y-65479250D01*
X213674624Y-65479250D01*
X213674626Y-65479250D01*
X213791747Y-65447868D01*
X213896754Y-65387242D01*
X213982492Y-65301504D01*
X214031065Y-65217374D01*
X215058500Y-65217374D01*
X215058500Y-65338626D01*
X215089617Y-65454756D01*
X215089882Y-65455746D01*
X215089883Y-65455749D01*
X215106550Y-65484616D01*
X215150508Y-65560754D01*
X215236246Y-65646492D01*
X215341253Y-65707118D01*
X215458374Y-65738500D01*
X215458376Y-65738500D01*
X215579624Y-65738500D01*
X215579626Y-65738500D01*
X215696747Y-65707118D01*
X215801754Y-65646492D01*
X215819030Y-65629216D01*
X221566342Y-65629216D01*
X221566342Y-65750468D01*
X221597355Y-65866209D01*
X221597724Y-65867588D01*
X221597725Y-65867591D01*
X221604313Y-65879001D01*
X221658350Y-65972596D01*
X221744088Y-66058334D01*
X221849095Y-66118960D01*
X221966216Y-66150342D01*
X221966218Y-66150342D01*
X222087466Y-66150342D01*
X222087468Y-66150342D01*
X222204589Y-66118960D01*
X222309596Y-66058334D01*
X222395334Y-65972596D01*
X222455960Y-65867589D01*
X222487342Y-65750468D01*
X222487342Y-65629216D01*
X222455960Y-65512095D01*
X222395334Y-65407088D01*
X222309596Y-65321350D01*
X222221941Y-65270742D01*
X222204591Y-65260725D01*
X222204590Y-65260724D01*
X222204589Y-65260724D01*
X222087468Y-65229342D01*
X221966216Y-65229342D01*
X221849095Y-65260724D01*
X221849092Y-65260725D01*
X221744091Y-65321348D01*
X221744085Y-65321352D01*
X221658352Y-65407085D01*
X221658348Y-65407091D01*
X221597725Y-65512092D01*
X221597724Y-65512095D01*
X221566342Y-65629216D01*
X215819030Y-65629216D01*
X215887492Y-65560754D01*
X215948118Y-65455747D01*
X215979500Y-65338626D01*
X215979500Y-65217374D01*
X215967833Y-65173832D01*
X227268642Y-65173832D01*
X227268642Y-65295084D01*
X227295574Y-65395595D01*
X227300024Y-65412204D01*
X227300025Y-65412207D01*
X227312986Y-65434656D01*
X227360650Y-65517212D01*
X227446388Y-65602950D01*
X227551395Y-65663576D01*
X227668516Y-65694958D01*
X227668518Y-65694958D01*
X227789766Y-65694958D01*
X227789768Y-65694958D01*
X227906889Y-65663576D01*
X228011896Y-65602950D01*
X228097634Y-65517212D01*
X228158260Y-65412205D01*
X228189642Y-65295084D01*
X228189642Y-65173832D01*
X228172907Y-65111374D01*
X231336926Y-65111374D01*
X231336926Y-65232626D01*
X231368308Y-65349747D01*
X231428934Y-65454754D01*
X231514672Y-65540492D01*
X231619679Y-65601118D01*
X231736800Y-65632500D01*
X231736802Y-65632500D01*
X231858050Y-65632500D01*
X231858052Y-65632500D01*
X231975173Y-65601118D01*
X232080180Y-65540492D01*
X232165918Y-65454754D01*
X232226544Y-65349747D01*
X232257926Y-65232626D01*
X232257926Y-65111374D01*
X232226544Y-64994253D01*
X232165918Y-64889246D01*
X232080180Y-64803508D01*
X231975173Y-64742882D01*
X231858052Y-64711500D01*
X231736800Y-64711500D01*
X231619679Y-64742882D01*
X231619676Y-64742883D01*
X231514675Y-64803506D01*
X231514669Y-64803510D01*
X231428936Y-64889243D01*
X231428932Y-64889249D01*
X231368309Y-64994250D01*
X231368308Y-64994253D01*
X231336926Y-65111374D01*
X228172907Y-65111374D01*
X228158260Y-65056711D01*
X228097634Y-64951704D01*
X228011896Y-64865966D01*
X227927951Y-64817500D01*
X227906891Y-64805341D01*
X227906890Y-64805340D01*
X227906889Y-64805340D01*
X227789768Y-64773958D01*
X227668516Y-64773958D01*
X227551395Y-64805340D01*
X227551392Y-64805341D01*
X227446391Y-64865964D01*
X227446385Y-64865968D01*
X227360652Y-64951701D01*
X227360648Y-64951707D01*
X227300025Y-65056708D01*
X227300024Y-65056711D01*
X227268642Y-65173832D01*
X215967833Y-65173832D01*
X215948118Y-65100253D01*
X215887492Y-64995246D01*
X215801754Y-64909508D01*
X215713621Y-64858624D01*
X215696749Y-64848883D01*
X215696748Y-64848882D01*
X215696747Y-64848882D01*
X215579626Y-64817500D01*
X215458374Y-64817500D01*
X215341253Y-64848882D01*
X215341250Y-64848883D01*
X215236249Y-64909506D01*
X215236243Y-64909510D01*
X215150510Y-64995243D01*
X215150506Y-64995249D01*
X215089883Y-65100250D01*
X215089882Y-65100253D01*
X215058500Y-65217374D01*
X214031065Y-65217374D01*
X214043118Y-65196497D01*
X214074500Y-65079376D01*
X214074500Y-64958124D01*
X214043118Y-64841003D01*
X213982492Y-64735996D01*
X213896754Y-64650258D01*
X213791747Y-64589632D01*
X213674626Y-64558250D01*
X213553374Y-64558250D01*
X213436253Y-64589632D01*
X213436250Y-64589633D01*
X213331249Y-64650256D01*
X213331243Y-64650260D01*
X213245510Y-64735993D01*
X213245506Y-64735999D01*
X213184883Y-64841000D01*
X213184882Y-64841003D01*
X213153500Y-64958124D01*
X210232955Y-64958124D01*
X210239379Y-64925828D01*
X210239383Y-64925807D01*
X210246500Y-64890025D01*
X210246500Y-64690971D01*
X210246499Y-64690969D01*
X210207667Y-64495748D01*
X210131493Y-64311849D01*
X210131491Y-64311846D01*
X210131489Y-64311842D01*
X210030391Y-64160538D01*
X210020905Y-64146342D01*
X209974337Y-64099774D01*
X219097100Y-64099774D01*
X219097100Y-64221026D01*
X219128482Y-64338147D01*
X219189108Y-64443154D01*
X219274846Y-64528892D01*
X219379853Y-64589518D01*
X219496974Y-64620900D01*
X219496976Y-64620900D01*
X219618224Y-64620900D01*
X219618226Y-64620900D01*
X219735347Y-64589518D01*
X219747721Y-64582374D01*
X228647500Y-64582374D01*
X228647500Y-64703626D01*
X228678513Y-64819367D01*
X228678882Y-64820746D01*
X228678883Y-64820749D01*
X228694277Y-64847412D01*
X228739508Y-64925754D01*
X228825246Y-65011492D01*
X228930253Y-65072118D01*
X229047374Y-65103500D01*
X229047376Y-65103500D01*
X229168624Y-65103500D01*
X229168626Y-65103500D01*
X229285747Y-65072118D01*
X229390754Y-65011492D01*
X229476492Y-64925754D01*
X229537118Y-64820747D01*
X229568500Y-64703626D01*
X229568500Y-64582374D01*
X229537118Y-64465253D01*
X229476492Y-64360246D01*
X229390754Y-64274508D01*
X229292249Y-64217636D01*
X229285749Y-64213883D01*
X229285748Y-64213882D01*
X229285747Y-64213882D01*
X229168626Y-64182500D01*
X229047374Y-64182500D01*
X228930253Y-64213882D01*
X228930250Y-64213883D01*
X228825249Y-64274506D01*
X228825243Y-64274510D01*
X228739510Y-64360243D01*
X228739506Y-64360249D01*
X228678883Y-64465250D01*
X228678882Y-64465253D01*
X228647500Y-64582374D01*
X219747721Y-64582374D01*
X219840354Y-64528892D01*
X219926092Y-64443154D01*
X219986718Y-64338147D01*
X220018100Y-64221026D01*
X220018100Y-64099774D01*
X219986718Y-63982653D01*
X219926092Y-63877646D01*
X219892838Y-63844392D01*
X231201880Y-63844392D01*
X231201880Y-63965644D01*
X231233262Y-64082765D01*
X231293888Y-64187772D01*
X231379626Y-64273510D01*
X231484633Y-64334136D01*
X231601754Y-64365518D01*
X231601756Y-64365518D01*
X231723004Y-64365518D01*
X231723006Y-64365518D01*
X231840127Y-64334136D01*
X231945134Y-64273510D01*
X232030872Y-64187772D01*
X232091498Y-64082765D01*
X232122880Y-63965644D01*
X232122880Y-63844392D01*
X232091498Y-63727271D01*
X232030872Y-63622264D01*
X231945134Y-63536526D01*
X231840127Y-63475900D01*
X231723006Y-63444518D01*
X231601754Y-63444518D01*
X231484633Y-63475900D01*
X231484630Y-63475901D01*
X231379629Y-63536524D01*
X231379623Y-63536528D01*
X231293890Y-63622261D01*
X231293886Y-63622267D01*
X231233263Y-63727268D01*
X231233262Y-63727271D01*
X231201880Y-63844392D01*
X219892838Y-63844392D01*
X219840354Y-63791908D01*
X219744508Y-63736571D01*
X219735349Y-63731283D01*
X219735348Y-63731282D01*
X219735347Y-63731282D01*
X219618226Y-63699900D01*
X219496974Y-63699900D01*
X219379853Y-63731282D01*
X219379850Y-63731283D01*
X219274849Y-63791906D01*
X219274843Y-63791910D01*
X219189110Y-63877643D01*
X219189106Y-63877649D01*
X219128483Y-63982650D01*
X219128482Y-63982653D01*
X219097100Y-64099774D01*
X209974337Y-64099774D01*
X209880159Y-64005596D01*
X209880155Y-64005593D01*
X209714657Y-63895010D01*
X209714647Y-63895005D01*
X209598047Y-63846707D01*
X209543643Y-63802865D01*
X209521579Y-63736571D01*
X209521500Y-63732146D01*
X209521500Y-63385000D01*
X209541185Y-63317961D01*
X209593989Y-63272206D01*
X209645500Y-63261000D01*
X210101808Y-63261000D01*
X210133018Y-63254791D01*
X210148624Y-63251687D01*
X210201714Y-63216214D01*
X210237187Y-63163124D01*
X210240595Y-63145992D01*
X210246500Y-63116308D01*
X210246500Y-62833374D01*
X216074500Y-62833374D01*
X216074500Y-62954626D01*
X216102802Y-63060250D01*
X216105882Y-63071746D01*
X216105883Y-63071749D01*
X216110626Y-63079964D01*
X216166508Y-63176754D01*
X216252246Y-63262492D01*
X216357253Y-63323118D01*
X216474374Y-63354500D01*
X216474376Y-63354500D01*
X216595624Y-63354500D01*
X216595626Y-63354500D01*
X216712747Y-63323118D01*
X216817754Y-63262492D01*
X216903492Y-63176754D01*
X216964118Y-63071747D01*
X216995500Y-62954626D01*
X216995500Y-62833374D01*
X216964118Y-62716253D01*
X216903492Y-62611246D01*
X216817754Y-62525508D01*
X216714249Y-62465749D01*
X216712749Y-62464883D01*
X216712748Y-62464882D01*
X216712747Y-62464882D01*
X216595626Y-62433500D01*
X216474374Y-62433500D01*
X216357253Y-62464882D01*
X216357250Y-62464883D01*
X216252249Y-62525506D01*
X216252243Y-62525510D01*
X216166510Y-62611243D01*
X216166506Y-62611249D01*
X216105883Y-62716250D01*
X216105882Y-62716253D01*
X216074500Y-62833374D01*
X210246500Y-62833374D01*
X210246500Y-61607844D01*
X223813500Y-61607844D01*
X223813500Y-61729096D01*
X223844882Y-61846217D01*
X223905508Y-61951224D01*
X223991246Y-62036962D01*
X224096253Y-62097588D01*
X224213374Y-62128970D01*
X224213376Y-62128970D01*
X224334624Y-62128970D01*
X224334626Y-62128970D01*
X224451747Y-62097588D01*
X224556754Y-62036962D01*
X224603770Y-61989946D01*
X224665093Y-61956461D01*
X224734785Y-61961445D01*
X224790718Y-62003317D01*
X224815135Y-62068781D01*
X224815451Y-62077627D01*
X224815451Y-62180382D01*
X224846833Y-62297503D01*
X224907459Y-62402510D01*
X224907461Y-62402512D01*
X224998944Y-62493995D01*
X224996831Y-62496107D01*
X225029613Y-62541013D01*
X225033760Y-62610759D01*
X225020307Y-62644945D01*
X224995884Y-62687248D01*
X224995882Y-62687253D01*
X224964500Y-62804374D01*
X224964500Y-62925626D01*
X224995882Y-63042747D01*
X225056508Y-63147754D01*
X225142246Y-63233492D01*
X225247253Y-63294118D01*
X225364374Y-63325500D01*
X225364376Y-63325500D01*
X225485624Y-63325500D01*
X225485626Y-63325500D01*
X225602747Y-63294118D01*
X225707754Y-63233492D01*
X225793492Y-63147754D01*
X225854118Y-63042747D01*
X225885500Y-62925626D01*
X225885500Y-62804374D01*
X225854118Y-62687253D01*
X225793492Y-62582246D01*
X225707754Y-62496508D01*
X225702007Y-62490761D01*
X225704121Y-62488646D01*
X225671344Y-62443766D01*
X225667184Y-62374020D01*
X225680641Y-62339812D01*
X225705069Y-62297503D01*
X225736451Y-62180382D01*
X225736451Y-62059130D01*
X225705069Y-61942009D01*
X225644443Y-61837002D01*
X225558705Y-61751264D01*
X225467270Y-61698474D01*
X225453700Y-61690639D01*
X225453699Y-61690638D01*
X225453698Y-61690638D01*
X225336577Y-61659256D01*
X225215325Y-61659256D01*
X225098204Y-61690638D01*
X225098201Y-61690639D01*
X224993200Y-61751262D01*
X224993194Y-61751266D01*
X224946181Y-61798280D01*
X224884858Y-61831765D01*
X224815166Y-61826781D01*
X224759233Y-61784909D01*
X224734816Y-61719445D01*
X224734500Y-61710599D01*
X224734500Y-61607846D01*
X224734500Y-61607844D01*
X224703118Y-61490723D01*
X224642492Y-61385716D01*
X224556754Y-61299978D01*
X224461547Y-61245010D01*
X224451749Y-61239353D01*
X224451748Y-61239352D01*
X224451747Y-61239352D01*
X224334626Y-61207970D01*
X224213374Y-61207970D01*
X224096253Y-61239352D01*
X224096250Y-61239353D01*
X223991249Y-61299976D01*
X223991243Y-61299980D01*
X223905510Y-61385713D01*
X223905506Y-61385719D01*
X223844883Y-61490720D01*
X223844882Y-61490723D01*
X223813500Y-61607844D01*
X210246500Y-61607844D01*
X210246500Y-61384691D01*
X210237187Y-61337876D01*
X210216058Y-61306254D01*
X210201714Y-61284786D01*
X210148624Y-61249313D01*
X210148623Y-61249312D01*
X210101808Y-61240000D01*
X210101806Y-61240000D01*
X208370194Y-61240000D01*
X208370192Y-61240000D01*
X208323376Y-61249312D01*
X208270286Y-61284786D01*
X208234812Y-61337876D01*
X208225500Y-61384691D01*
X208225500Y-61384694D01*
X208225500Y-63116306D01*
X208225500Y-63116308D01*
X208225499Y-63116308D01*
X208234812Y-63163123D01*
X208234813Y-63163124D01*
X208270286Y-63216214D01*
X208323376Y-63251687D01*
X208370191Y-63261000D01*
X208370194Y-63261000D01*
X208826500Y-63261000D01*
X208893539Y-63280685D01*
X208939294Y-63333489D01*
X208950500Y-63385000D01*
X208950500Y-63732146D01*
X208930815Y-63799185D01*
X208878011Y-63844940D01*
X208873953Y-63846707D01*
X208757352Y-63895005D01*
X208757342Y-63895010D01*
X208591844Y-64005593D01*
X208591840Y-64005596D01*
X208451096Y-64146340D01*
X208451093Y-64146344D01*
X208340510Y-64311842D01*
X208340505Y-64311852D01*
X208264333Y-64495747D01*
X208264331Y-64495755D01*
X208225500Y-64690969D01*
X208225500Y-64890030D01*
X208264331Y-65085244D01*
X208264333Y-65085252D01*
X208340505Y-65269147D01*
X208340510Y-65269157D01*
X208451093Y-65434655D01*
X208451096Y-65434659D01*
X208591840Y-65575403D01*
X208591844Y-65575406D01*
X208757342Y-65685989D01*
X208757346Y-65685991D01*
X208757349Y-65685993D01*
X208941248Y-65762167D01*
X209136469Y-65800999D01*
X209136472Y-65801000D01*
X209136474Y-65801000D01*
X209335528Y-65801000D01*
X209335529Y-65800999D01*
X209530752Y-65762167D01*
X209632437Y-65720046D01*
X209701903Y-65712578D01*
X209764383Y-65743852D01*
X209767569Y-65746927D01*
X210091781Y-66071139D01*
X210125266Y-66132462D01*
X210128100Y-66158820D01*
X210128100Y-66494175D01*
X210108415Y-66561214D01*
X210055611Y-66606969D01*
X209986453Y-66616913D01*
X209922897Y-66587888D01*
X209916419Y-66581856D01*
X209880159Y-66545596D01*
X209880155Y-66545593D01*
X209714657Y-66435010D01*
X209714647Y-66435005D01*
X209530752Y-66358833D01*
X209530744Y-66358831D01*
X209335529Y-66320000D01*
X209335526Y-66320000D01*
X209136474Y-66320000D01*
X209136471Y-66320000D01*
X208941255Y-66358831D01*
X208941247Y-66358833D01*
X208757352Y-66435005D01*
X208757342Y-66435010D01*
X208591844Y-66545593D01*
X208591840Y-66545596D01*
X208451096Y-66686340D01*
X208451093Y-66686344D01*
X208340510Y-66851842D01*
X208340505Y-66851852D01*
X208264333Y-67035747D01*
X208264331Y-67035755D01*
X208225500Y-67230969D01*
X208225500Y-67430030D01*
X208264331Y-67625244D01*
X208264333Y-67625252D01*
X208340505Y-67809147D01*
X208340510Y-67809157D01*
X208451093Y-67974655D01*
X208451096Y-67974659D01*
X208591840Y-68115403D01*
X208591844Y-68115406D01*
X208757342Y-68225989D01*
X208757346Y-68225991D01*
X208757349Y-68225993D01*
X208941248Y-68302167D01*
X209136469Y-68340999D01*
X209136472Y-68341000D01*
X209136474Y-68341000D01*
X209335528Y-68341000D01*
X209335529Y-68340999D01*
X209530752Y-68302167D01*
X209714651Y-68225993D01*
X209880156Y-68115406D01*
X209880159Y-68115403D01*
X209916419Y-68079144D01*
X209977742Y-68045659D01*
X210047434Y-68050643D01*
X210103367Y-68092515D01*
X210127784Y-68157979D01*
X210128100Y-68166825D01*
X210128100Y-69034175D01*
X210108415Y-69101214D01*
X210055611Y-69146969D01*
X209986453Y-69156913D01*
X209922897Y-69127888D01*
X209916419Y-69121856D01*
X209880159Y-69085596D01*
X209880155Y-69085593D01*
X209714657Y-68975010D01*
X209714647Y-68975005D01*
X209530752Y-68898833D01*
X209530744Y-68898831D01*
X209335529Y-68860000D01*
X209335526Y-68860000D01*
X209136474Y-68860000D01*
X209136471Y-68860000D01*
X208941255Y-68898831D01*
X208941247Y-68898833D01*
X208757352Y-68975005D01*
X208757342Y-68975010D01*
X208591844Y-69085593D01*
X208591840Y-69085596D01*
X208451096Y-69226340D01*
X208451093Y-69226344D01*
X208340510Y-69391842D01*
X208340505Y-69391852D01*
X208264333Y-69575747D01*
X208264331Y-69575755D01*
X208225500Y-69770969D01*
X208225500Y-69970030D01*
X208262716Y-70157123D01*
X208264333Y-70165252D01*
X208290734Y-70228989D01*
X208340505Y-70349147D01*
X208340510Y-70349157D01*
X208451093Y-70514655D01*
X208451096Y-70514659D01*
X208591840Y-70655403D01*
X208591844Y-70655406D01*
X208757342Y-70765989D01*
X208757346Y-70765991D01*
X208757349Y-70765993D01*
X208941248Y-70842167D01*
X209130034Y-70879719D01*
X209136469Y-70880999D01*
X209136472Y-70881000D01*
X209136474Y-70881000D01*
X209335528Y-70881000D01*
X209335529Y-70880999D01*
X209530752Y-70842167D01*
X209714651Y-70765993D01*
X209880156Y-70655406D01*
X209880159Y-70655403D01*
X209916419Y-70619144D01*
X209977742Y-70585659D01*
X210047434Y-70590643D01*
X210103367Y-70632515D01*
X210127784Y-70697979D01*
X210128100Y-70706825D01*
X210128100Y-81600153D01*
X210108415Y-81667192D01*
X210055611Y-81712947D01*
X210004025Y-81724153D01*
X208434658Y-81723200D01*
X208367630Y-81703475D01*
X208321907Y-81650643D01*
X208312006Y-81581478D01*
X208314956Y-81567114D01*
X208318556Y-81553682D01*
X208318556Y-81432430D01*
X208287174Y-81315309D01*
X208226548Y-81210302D01*
X208140810Y-81124564D01*
X208042288Y-81067682D01*
X208035805Y-81063939D01*
X208035804Y-81063938D01*
X208035803Y-81063938D01*
X207918682Y-81032556D01*
X207797430Y-81032556D01*
X207680309Y-81063938D01*
X207680306Y-81063939D01*
X207575305Y-81124562D01*
X207575299Y-81124566D01*
X207489566Y-81210299D01*
X207489562Y-81210305D01*
X207428939Y-81315306D01*
X207428938Y-81315309D01*
X207397556Y-81432430D01*
X207397556Y-81553686D01*
X207400966Y-81566412D01*
X207399300Y-81636262D01*
X207360135Y-81694123D01*
X207295905Y-81721624D01*
X207281115Y-81722500D01*
X205141531Y-81721201D01*
X205074503Y-81701476D01*
X205028780Y-81648644D01*
X205018879Y-81579479D01*
X205034217Y-81535203D01*
X205048638Y-81510227D01*
X205080020Y-81393106D01*
X205080020Y-81271854D01*
X205048638Y-81154733D01*
X205048635Y-81154729D01*
X205046851Y-81148068D01*
X205048514Y-81078218D01*
X205087676Y-81020355D01*
X205151905Y-80992851D01*
X205220807Y-81004437D01*
X205228617Y-81008582D01*
X205332865Y-81068770D01*
X205449986Y-81100152D01*
X205449988Y-81100152D01*
X205571236Y-81100152D01*
X205571238Y-81100152D01*
X205688359Y-81068770D01*
X205793366Y-81008144D01*
X205879104Y-80922406D01*
X205939730Y-80817399D01*
X205939732Y-80817390D01*
X205942839Y-80809892D01*
X205945312Y-80810916D01*
X205974790Y-80762521D01*
X206037628Y-80731972D01*
X206107006Y-80740245D01*
X206160898Y-80784714D01*
X206165616Y-80792249D01*
X206228505Y-80901176D01*
X206228507Y-80901178D01*
X206228508Y-80901180D01*
X206314246Y-80986918D01*
X206419253Y-81047544D01*
X206536374Y-81078926D01*
X206536376Y-81078926D01*
X206657624Y-81078926D01*
X206657626Y-81078926D01*
X206774747Y-81047544D01*
X206879754Y-80986918D01*
X206965492Y-80901180D01*
X207026118Y-80796173D01*
X207057500Y-80679052D01*
X207057500Y-80557800D01*
X207026118Y-80440679D01*
X206965492Y-80335672D01*
X206879754Y-80249934D01*
X206809749Y-80209516D01*
X206774749Y-80189309D01*
X206774748Y-80189308D01*
X206774747Y-80189308D01*
X206657626Y-80157926D01*
X206536374Y-80157926D01*
X206419253Y-80189308D01*
X206419250Y-80189309D01*
X206314249Y-80249932D01*
X206314243Y-80249936D01*
X206228510Y-80335669D01*
X206228506Y-80335675D01*
X206167883Y-80440676D01*
X206164773Y-80448186D01*
X206162306Y-80447164D01*
X206132785Y-80495588D01*
X206069936Y-80526113D01*
X206000561Y-80517813D01*
X205946687Y-80473324D01*
X205941995Y-80465828D01*
X205919173Y-80426300D01*
X205879104Y-80356898D01*
X205793366Y-80271160D01*
X205688359Y-80210534D01*
X205571238Y-80179152D01*
X205449986Y-80179152D01*
X205332865Y-80210534D01*
X205332862Y-80210535D01*
X205227861Y-80271158D01*
X205227855Y-80271162D01*
X205142122Y-80356895D01*
X205142118Y-80356901D01*
X205081495Y-80461902D01*
X205081494Y-80461905D01*
X205050112Y-80579026D01*
X205050112Y-80700278D01*
X205075807Y-80796173D01*
X205083280Y-80824064D01*
X205081617Y-80893914D01*
X205042454Y-80951776D01*
X204978226Y-80979280D01*
X204909323Y-80967693D01*
X204901505Y-80963544D01*
X204797269Y-80903363D01*
X204797268Y-80903362D01*
X204797267Y-80903362D01*
X204680146Y-80871980D01*
X204558894Y-80871980D01*
X204441773Y-80903362D01*
X204441770Y-80903363D01*
X204336769Y-80963986D01*
X204336763Y-80963990D01*
X204251030Y-81049723D01*
X204251026Y-81049729D01*
X204190403Y-81154730D01*
X204190401Y-81154734D01*
X204186430Y-81169556D01*
X204177269Y-81203750D01*
X204177043Y-81204592D01*
X204140679Y-81264253D01*
X204077832Y-81294783D01*
X204057268Y-81296500D01*
X203928508Y-81296500D01*
X203811387Y-81327882D01*
X203811384Y-81327883D01*
X203706383Y-81388506D01*
X203706377Y-81388510D01*
X203620644Y-81474243D01*
X203620640Y-81474249D01*
X203560017Y-81579250D01*
X203560014Y-81579257D01*
X203546885Y-81628255D01*
X203510520Y-81687915D01*
X203447672Y-81718443D01*
X203427036Y-81720160D01*
X179737478Y-81705780D01*
X179670450Y-81686055D01*
X179663775Y-81681358D01*
X179558202Y-81620405D01*
X179558201Y-81620404D01*
X179558200Y-81620404D01*
X179441079Y-81589022D01*
X179319827Y-81589022D01*
X179202706Y-81620404D01*
X179202703Y-81620405D01*
X179090661Y-81685093D01*
X179089722Y-81683467D01*
X179034217Y-81704917D01*
X179023841Y-81705346D01*
X169679925Y-81699675D01*
X169612897Y-81679950D01*
X169567174Y-81627118D01*
X169556000Y-81575675D01*
X169556000Y-80826174D01*
X171229100Y-80826174D01*
X171229100Y-80947426D01*
X171259872Y-81062268D01*
X171260482Y-81064546D01*
X171260483Y-81064549D01*
X171280690Y-81099549D01*
X171321108Y-81169554D01*
X171406846Y-81255292D01*
X171511853Y-81315918D01*
X171628974Y-81347300D01*
X171628976Y-81347300D01*
X171750224Y-81347300D01*
X171750226Y-81347300D01*
X171867347Y-81315918D01*
X171972354Y-81255292D01*
X172058092Y-81169554D01*
X172118718Y-81064547D01*
X172150100Y-80947426D01*
X172150100Y-80910858D01*
X201273250Y-80910858D01*
X201273250Y-81032110D01*
X201304485Y-81148680D01*
X201304632Y-81149230D01*
X201304633Y-81149233D01*
X201316367Y-81169556D01*
X201365258Y-81254238D01*
X201450996Y-81339976D01*
X201556003Y-81400602D01*
X201673124Y-81431984D01*
X201673126Y-81431984D01*
X201794374Y-81431984D01*
X201794376Y-81431984D01*
X201911497Y-81400602D01*
X202016504Y-81339976D01*
X202102242Y-81254238D01*
X202109059Y-81242429D01*
X202159625Y-81194213D01*
X202228232Y-81180989D01*
X202278444Y-81197040D01*
X202290068Y-81203751D01*
X202407189Y-81235133D01*
X202407191Y-81235133D01*
X202528439Y-81235133D01*
X202528441Y-81235133D01*
X202645562Y-81203751D01*
X202750569Y-81143125D01*
X202836307Y-81057387D01*
X202896933Y-80952380D01*
X202928315Y-80835259D01*
X202928315Y-80714007D01*
X202896933Y-80596886D01*
X202836307Y-80491879D01*
X202750569Y-80406141D01*
X202659820Y-80353747D01*
X202645564Y-80345516D01*
X202645563Y-80345515D01*
X202645562Y-80345515D01*
X202528441Y-80314133D01*
X202407189Y-80314133D01*
X202290068Y-80345515D01*
X202290065Y-80345516D01*
X202185064Y-80406139D01*
X202185058Y-80406143D01*
X202099325Y-80491876D01*
X202099319Y-80491885D01*
X202092501Y-80503693D01*
X202041932Y-80551906D01*
X201973325Y-80565126D01*
X201923118Y-80549075D01*
X201911497Y-80542366D01*
X201794376Y-80510984D01*
X201673124Y-80510984D01*
X201556003Y-80542366D01*
X201556000Y-80542367D01*
X201450999Y-80602990D01*
X201450993Y-80602994D01*
X201365260Y-80688727D01*
X201365256Y-80688733D01*
X201304633Y-80793734D01*
X201304632Y-80793737D01*
X201273250Y-80910858D01*
X172150100Y-80910858D01*
X172150100Y-80826174D01*
X172118718Y-80709053D01*
X172058092Y-80604046D01*
X171972354Y-80518308D01*
X171881456Y-80465828D01*
X171867349Y-80457683D01*
X171867348Y-80457682D01*
X171867347Y-80457682D01*
X171750226Y-80426300D01*
X171628974Y-80426300D01*
X171511853Y-80457682D01*
X171511850Y-80457683D01*
X171406849Y-80518306D01*
X171406843Y-80518310D01*
X171321110Y-80604043D01*
X171321106Y-80604049D01*
X171260483Y-80709050D01*
X171260482Y-80709053D01*
X171229100Y-80826174D01*
X169556000Y-80826174D01*
X169556000Y-79288974D01*
X188921900Y-79288974D01*
X188921900Y-79410226D01*
X188953282Y-79527347D01*
X189013908Y-79632354D01*
X189099646Y-79718092D01*
X189204653Y-79778718D01*
X189321774Y-79810100D01*
X189321776Y-79810100D01*
X189443024Y-79810100D01*
X189443026Y-79810100D01*
X189560147Y-79778718D01*
X189665154Y-79718092D01*
X189750892Y-79632354D01*
X189811518Y-79527347D01*
X189842900Y-79410226D01*
X189842900Y-79288974D01*
X189811518Y-79171853D01*
X189750892Y-79066846D01*
X189665154Y-78981108D01*
X189560147Y-78920482D01*
X189443026Y-78889100D01*
X189321774Y-78889100D01*
X189204653Y-78920482D01*
X189204650Y-78920483D01*
X189099649Y-78981106D01*
X189099643Y-78981110D01*
X189013910Y-79066843D01*
X189013906Y-79066849D01*
X188953283Y-79171850D01*
X188953282Y-79171853D01*
X188921900Y-79288974D01*
X169556000Y-79288974D01*
X169556000Y-76101774D01*
X172905500Y-76101774D01*
X172905500Y-76223026D01*
X172936712Y-76339510D01*
X172936882Y-76340146D01*
X172936883Y-76340149D01*
X172938847Y-76343550D01*
X172997508Y-76445154D01*
X173083246Y-76530892D01*
X173188253Y-76591518D01*
X173305374Y-76622900D01*
X173305376Y-76622900D01*
X173426624Y-76622900D01*
X173426626Y-76622900D01*
X173543747Y-76591518D01*
X173648754Y-76530892D01*
X173734492Y-76445154D01*
X173795118Y-76340147D01*
X173826500Y-76223026D01*
X173826500Y-76101774D01*
X173799277Y-76000174D01*
X175902700Y-76000174D01*
X175902700Y-76121426D01*
X175934082Y-76238547D01*
X175994708Y-76343554D01*
X176080446Y-76429292D01*
X176185453Y-76489918D01*
X176302574Y-76521300D01*
X176302576Y-76521300D01*
X176423824Y-76521300D01*
X176423826Y-76521300D01*
X176540947Y-76489918D01*
X176645954Y-76429292D01*
X176731692Y-76343554D01*
X176783296Y-76254174D01*
X181338300Y-76254174D01*
X181338300Y-76375426D01*
X181369682Y-76492547D01*
X181430308Y-76597554D01*
X181516046Y-76683292D01*
X181621053Y-76743918D01*
X181738174Y-76775300D01*
X181738176Y-76775300D01*
X181859424Y-76775300D01*
X181859426Y-76775300D01*
X181976547Y-76743918D01*
X182081554Y-76683292D01*
X182167292Y-76597554D01*
X182227918Y-76492547D01*
X182259300Y-76375426D01*
X182259300Y-76254174D01*
X182227918Y-76137053D01*
X182167292Y-76032046D01*
X182081554Y-75946308D01*
X182011549Y-75905890D01*
X181976549Y-75885683D01*
X181976548Y-75885682D01*
X181976547Y-75885682D01*
X181859426Y-75854300D01*
X181738174Y-75854300D01*
X181621053Y-75885682D01*
X181621050Y-75885683D01*
X181516049Y-75946306D01*
X181516043Y-75946310D01*
X181430310Y-76032043D01*
X181430306Y-76032049D01*
X181369683Y-76137050D01*
X181369682Y-76137053D01*
X181338300Y-76254174D01*
X176783296Y-76254174D01*
X176792318Y-76238547D01*
X176823700Y-76121426D01*
X176823700Y-76000174D01*
X176792318Y-75883053D01*
X176731692Y-75778046D01*
X176645954Y-75692308D01*
X176540947Y-75631682D01*
X176423826Y-75600300D01*
X176302574Y-75600300D01*
X176185453Y-75631682D01*
X176185450Y-75631683D01*
X176080449Y-75692306D01*
X176080443Y-75692310D01*
X175994710Y-75778043D01*
X175994706Y-75778049D01*
X175934083Y-75883050D01*
X175934082Y-75883053D01*
X175902700Y-76000174D01*
X173799277Y-76000174D01*
X173795118Y-75984653D01*
X173734492Y-75879646D01*
X173648754Y-75793908D01*
X173543747Y-75733282D01*
X173426626Y-75701900D01*
X173305374Y-75701900D01*
X173188253Y-75733282D01*
X173188250Y-75733283D01*
X173083249Y-75793906D01*
X173083243Y-75793910D01*
X172997510Y-75879643D01*
X172997506Y-75879649D01*
X172936883Y-75984650D01*
X172936882Y-75984653D01*
X172905500Y-76101774D01*
X169556000Y-76101774D01*
X169556000Y-72394124D01*
X170943000Y-72394124D01*
X170943000Y-72515376D01*
X170964421Y-72595319D01*
X170974382Y-72632496D01*
X170974383Y-72632499D01*
X170982684Y-72646876D01*
X171035008Y-72737504D01*
X171120746Y-72823242D01*
X171225753Y-72883868D01*
X171342874Y-72915250D01*
X171342876Y-72915250D01*
X171464124Y-72915250D01*
X171464126Y-72915250D01*
X171581247Y-72883868D01*
X171686254Y-72823242D01*
X171771992Y-72737504D01*
X171832618Y-72632497D01*
X171864000Y-72515376D01*
X171864000Y-72394124D01*
X171832618Y-72277003D01*
X171771992Y-72171996D01*
X171686254Y-72086258D01*
X171581247Y-72025632D01*
X171464126Y-71994250D01*
X171342874Y-71994250D01*
X171225753Y-72025632D01*
X171225750Y-72025633D01*
X171120749Y-72086256D01*
X171120743Y-72086260D01*
X171035010Y-72171993D01*
X171035006Y-72171999D01*
X171001086Y-72230751D01*
X170974382Y-72277003D01*
X170943000Y-72394124D01*
X169556000Y-72394124D01*
X169556000Y-71187624D01*
X171133500Y-71187624D01*
X171133500Y-71308876D01*
X171157369Y-71397955D01*
X171164882Y-71425996D01*
X171164883Y-71425999D01*
X171185090Y-71460999D01*
X171225508Y-71531004D01*
X171311246Y-71616742D01*
X171416253Y-71677368D01*
X171533374Y-71708750D01*
X171533376Y-71708750D01*
X171654624Y-71708750D01*
X171654626Y-71708750D01*
X171771747Y-71677368D01*
X171848784Y-71632890D01*
X171916681Y-71616418D01*
X171982708Y-71639270D01*
X172025899Y-71694191D01*
X172032541Y-71763744D01*
X172030557Y-71772370D01*
X172009000Y-71852824D01*
X172009000Y-71852826D01*
X172009000Y-71974078D01*
X172040382Y-72091199D01*
X172101008Y-72196206D01*
X172186746Y-72281944D01*
X172291753Y-72342570D01*
X172408874Y-72373952D01*
X172408876Y-72373952D01*
X172530124Y-72373952D01*
X172530126Y-72373952D01*
X172647247Y-72342570D01*
X172752254Y-72281944D01*
X172837992Y-72196206D01*
X172898618Y-72091199D01*
X172930000Y-71974078D01*
X172930000Y-71852826D01*
X172898618Y-71735705D01*
X172837992Y-71630698D01*
X172752254Y-71544960D01*
X172647247Y-71484334D01*
X172530126Y-71452952D01*
X172408874Y-71452952D01*
X172291753Y-71484334D01*
X172291752Y-71484334D01*
X172214716Y-71528811D01*
X172146816Y-71545283D01*
X172080789Y-71522430D01*
X172037599Y-71467508D01*
X172030958Y-71397955D01*
X172032935Y-71389355D01*
X172054500Y-71308876D01*
X172054500Y-71187624D01*
X172023118Y-71070503D01*
X171962492Y-70965496D01*
X171876754Y-70879758D01*
X171771747Y-70819132D01*
X171654626Y-70787750D01*
X171533374Y-70787750D01*
X171416253Y-70819132D01*
X171416250Y-70819133D01*
X171311249Y-70879756D01*
X171311243Y-70879760D01*
X171225510Y-70965493D01*
X171225506Y-70965499D01*
X171164883Y-71070500D01*
X171164882Y-71070503D01*
X171133500Y-71187624D01*
X169556000Y-71187624D01*
X169556000Y-70345894D01*
X174213020Y-70345894D01*
X174213020Y-70467146D01*
X174237096Y-70556998D01*
X174244402Y-70584266D01*
X174244403Y-70584269D01*
X174260917Y-70612872D01*
X174305028Y-70689274D01*
X174390766Y-70775012D01*
X174495773Y-70835638D01*
X174612894Y-70867020D01*
X174612896Y-70867020D01*
X174734144Y-70867020D01*
X174734146Y-70867020D01*
X174851267Y-70835638D01*
X174956274Y-70775012D01*
X175042012Y-70689274D01*
X175102638Y-70584267D01*
X175134020Y-70467146D01*
X175134020Y-70345894D01*
X175102638Y-70228773D01*
X175042012Y-70123766D01*
X174956274Y-70038028D01*
X174851267Y-69977402D01*
X174734146Y-69946020D01*
X174612894Y-69946020D01*
X174495773Y-69977402D01*
X174495770Y-69977403D01*
X174390769Y-70038026D01*
X174390763Y-70038030D01*
X174305030Y-70123763D01*
X174305026Y-70123769D01*
X174244403Y-70228770D01*
X174244402Y-70228773D01*
X174213020Y-70345894D01*
X169556000Y-70345894D01*
X169556000Y-69408374D01*
X175942500Y-69408374D01*
X175942500Y-69529626D01*
X175970661Y-69634724D01*
X175973882Y-69646746D01*
X175973883Y-69646749D01*
X175985795Y-69667381D01*
X176034508Y-69751754D01*
X176120246Y-69837492D01*
X176225253Y-69898118D01*
X176342374Y-69929500D01*
X176342376Y-69929500D01*
X176463624Y-69929500D01*
X176463626Y-69929500D01*
X176580747Y-69898118D01*
X176685754Y-69837492D01*
X176771492Y-69751754D01*
X176832118Y-69646747D01*
X176835341Y-69634719D01*
X182292500Y-69634719D01*
X182292500Y-69833780D01*
X182331331Y-70028994D01*
X182331333Y-70029002D01*
X182407505Y-70212897D01*
X182407510Y-70212907D01*
X182518093Y-70378405D01*
X182518096Y-70378409D01*
X182658840Y-70519153D01*
X182658844Y-70519156D01*
X182824342Y-70629739D01*
X182824346Y-70629741D01*
X182824349Y-70629743D01*
X183008248Y-70705917D01*
X183150044Y-70734122D01*
X183203469Y-70744749D01*
X183203472Y-70744750D01*
X183203474Y-70744750D01*
X183402528Y-70744750D01*
X183402529Y-70744749D01*
X183597752Y-70705917D01*
X183781651Y-70629743D01*
X183947156Y-70519156D01*
X184087906Y-70378406D01*
X184198493Y-70212901D01*
X184274667Y-70029002D01*
X184313500Y-69833776D01*
X184313500Y-69634724D01*
X184313500Y-69634721D01*
X184313499Y-69634719D01*
X184295952Y-69546503D01*
X184274667Y-69439498D01*
X184198493Y-69255599D01*
X184198491Y-69255596D01*
X184198489Y-69255592D01*
X184087906Y-69090094D01*
X184087903Y-69090090D01*
X183947159Y-68949346D01*
X183947155Y-68949343D01*
X183781657Y-68838760D01*
X183781647Y-68838755D01*
X183597752Y-68762583D01*
X183597744Y-68762581D01*
X183402529Y-68723750D01*
X183402526Y-68723750D01*
X183203474Y-68723750D01*
X183203471Y-68723750D01*
X183008255Y-68762581D01*
X183008247Y-68762583D01*
X182824352Y-68838755D01*
X182824342Y-68838760D01*
X182658844Y-68949343D01*
X182658840Y-68949346D01*
X182518096Y-69090090D01*
X182518093Y-69090094D01*
X182407510Y-69255592D01*
X182407505Y-69255602D01*
X182331333Y-69439497D01*
X182331331Y-69439505D01*
X182292500Y-69634719D01*
X176835341Y-69634719D01*
X176863500Y-69529626D01*
X176863500Y-69408374D01*
X176832118Y-69291253D01*
X176771492Y-69186246D01*
X176685754Y-69100508D01*
X176580747Y-69039882D01*
X176463626Y-69008500D01*
X176342374Y-69008500D01*
X176225253Y-69039882D01*
X176225250Y-69039883D01*
X176120249Y-69100506D01*
X176120243Y-69100510D01*
X176034510Y-69186243D01*
X176034506Y-69186249D01*
X175973883Y-69291250D01*
X175973882Y-69291253D01*
X175942500Y-69408374D01*
X169556000Y-69408374D01*
X169556000Y-67884374D01*
X175942500Y-67884374D01*
X175942500Y-68005626D01*
X175965782Y-68092515D01*
X175973882Y-68122746D01*
X175973883Y-68122749D01*
X175979585Y-68132625D01*
X176034508Y-68227754D01*
X176120246Y-68313492D01*
X176225253Y-68374118D01*
X176342374Y-68405500D01*
X176342376Y-68405500D01*
X176463624Y-68405500D01*
X176463626Y-68405500D01*
X176580747Y-68374118D01*
X176685754Y-68313492D01*
X176771492Y-68227754D01*
X176832118Y-68122747D01*
X176863500Y-68005626D01*
X176863500Y-67884374D01*
X176832118Y-67767253D01*
X176771492Y-67662246D01*
X176685754Y-67576508D01*
X176580747Y-67515882D01*
X176463626Y-67484500D01*
X176342374Y-67484500D01*
X176225253Y-67515882D01*
X176225250Y-67515883D01*
X176120249Y-67576506D01*
X176120243Y-67576510D01*
X176034510Y-67662243D01*
X176034506Y-67662249D01*
X175973883Y-67767250D01*
X175973882Y-67767253D01*
X175942500Y-67884374D01*
X169556000Y-67884374D01*
X169556000Y-66648282D01*
X169830842Y-66648282D01*
X169830842Y-66769534D01*
X169861185Y-66882775D01*
X169862224Y-66886654D01*
X169862225Y-66886657D01*
X169870526Y-66901034D01*
X169922850Y-66991662D01*
X170008588Y-67077400D01*
X170113595Y-67138026D01*
X170230716Y-67169408D01*
X170230718Y-67169408D01*
X170351966Y-67169408D01*
X170351968Y-67169408D01*
X170469089Y-67138026D01*
X170544099Y-67094719D01*
X182292500Y-67094719D01*
X182292500Y-67293780D01*
X182331331Y-67488994D01*
X182331333Y-67489002D01*
X182407505Y-67672897D01*
X182407510Y-67672907D01*
X182518093Y-67838405D01*
X182518096Y-67838409D01*
X182658840Y-67979153D01*
X182658844Y-67979156D01*
X182824342Y-68089739D01*
X182824346Y-68089741D01*
X182824349Y-68089743D01*
X183008248Y-68165917D01*
X183174311Y-68198949D01*
X183203469Y-68204749D01*
X183203472Y-68204750D01*
X183203474Y-68204750D01*
X183402528Y-68204750D01*
X183402529Y-68204749D01*
X183597752Y-68165917D01*
X183781651Y-68089743D01*
X183947156Y-67979156D01*
X184087906Y-67838406D01*
X184198493Y-67672901D01*
X184274667Y-67489002D01*
X184313500Y-67293776D01*
X184313500Y-67094724D01*
X184313500Y-67094721D01*
X184313499Y-67094719D01*
X184303309Y-67043489D01*
X184274667Y-66899498D01*
X184198493Y-66715599D01*
X184198491Y-66715596D01*
X184198489Y-66715592D01*
X184087906Y-66550094D01*
X184087903Y-66550090D01*
X183947159Y-66409346D01*
X183947155Y-66409343D01*
X183781657Y-66298760D01*
X183781647Y-66298755D01*
X183597752Y-66222583D01*
X183597744Y-66222581D01*
X183402529Y-66183750D01*
X183402526Y-66183750D01*
X183203474Y-66183750D01*
X183203471Y-66183750D01*
X183008255Y-66222581D01*
X183008247Y-66222583D01*
X182824352Y-66298755D01*
X182824342Y-66298760D01*
X182658844Y-66409343D01*
X182658840Y-66409346D01*
X182518096Y-66550090D01*
X182518093Y-66550094D01*
X182407510Y-66715592D01*
X182407505Y-66715602D01*
X182331333Y-66899497D01*
X182331331Y-66899505D01*
X182292500Y-67094719D01*
X170544099Y-67094719D01*
X170574096Y-67077400D01*
X170659834Y-66991662D01*
X170720460Y-66886655D01*
X170751842Y-66769534D01*
X170751842Y-66648282D01*
X170720460Y-66531161D01*
X170659834Y-66426154D01*
X170574096Y-66340416D01*
X170469089Y-66279790D01*
X170351968Y-66248408D01*
X170230716Y-66248408D01*
X170113595Y-66279790D01*
X170113592Y-66279791D01*
X170008591Y-66340414D01*
X170008585Y-66340418D01*
X169922852Y-66426151D01*
X169922848Y-66426157D01*
X169862225Y-66531158D01*
X169862224Y-66531161D01*
X169830842Y-66648282D01*
X169556000Y-66648282D01*
X169556000Y-66140282D01*
X171166158Y-66140282D01*
X171166158Y-66261534D01*
X171192229Y-66358831D01*
X171197540Y-66378654D01*
X171197541Y-66378657D01*
X171217748Y-66413657D01*
X171258166Y-66483662D01*
X171343904Y-66569400D01*
X171448911Y-66630026D01*
X171566032Y-66661408D01*
X171566034Y-66661408D01*
X171687282Y-66661408D01*
X171687284Y-66661408D01*
X171804405Y-66630026D01*
X171877001Y-66588112D01*
X171944898Y-66571640D01*
X172010925Y-66594492D01*
X172046383Y-66633495D01*
X172051003Y-66641497D01*
X172051006Y-66641501D01*
X172051008Y-66641504D01*
X172136746Y-66727242D01*
X172241753Y-66787868D01*
X172358874Y-66819250D01*
X172358876Y-66819250D01*
X172480124Y-66819250D01*
X172480126Y-66819250D01*
X172597247Y-66787868D01*
X172702254Y-66727242D01*
X172787992Y-66641504D01*
X172848618Y-66536497D01*
X172880000Y-66419376D01*
X172880000Y-66334974D01*
X180235100Y-66334974D01*
X180235100Y-66456226D01*
X180265425Y-66569400D01*
X180266482Y-66573346D01*
X180266483Y-66573349D01*
X180277926Y-66593168D01*
X180327108Y-66678354D01*
X180412846Y-66764092D01*
X180517853Y-66824718D01*
X180634974Y-66856100D01*
X180634976Y-66856100D01*
X180756224Y-66856100D01*
X180756226Y-66856100D01*
X180873347Y-66824718D01*
X180978354Y-66764092D01*
X181064092Y-66678354D01*
X181124718Y-66573347D01*
X181156100Y-66456226D01*
X181156100Y-66334974D01*
X181124718Y-66217853D01*
X181064092Y-66112846D01*
X180978354Y-66027108D01*
X180883930Y-65972592D01*
X180873349Y-65966483D01*
X180873348Y-65966482D01*
X180873347Y-65966482D01*
X180756226Y-65935100D01*
X180634974Y-65935100D01*
X180517853Y-65966482D01*
X180517850Y-65966483D01*
X180412849Y-66027106D01*
X180412843Y-66027110D01*
X180327110Y-66112843D01*
X180327106Y-66112849D01*
X180266483Y-66217850D01*
X180266482Y-66217853D01*
X180235100Y-66334974D01*
X172880000Y-66334974D01*
X172880000Y-66298124D01*
X172848618Y-66181003D01*
X172787992Y-66075996D01*
X172702254Y-65990258D01*
X172618383Y-65941835D01*
X172597249Y-65929633D01*
X172597248Y-65929632D01*
X172597247Y-65929632D01*
X172480126Y-65898250D01*
X172358874Y-65898250D01*
X172241753Y-65929632D01*
X172241750Y-65929633D01*
X172169158Y-65971545D01*
X172101258Y-65988018D01*
X172035231Y-65965166D01*
X171999771Y-65926158D01*
X171995150Y-65918154D01*
X171909412Y-65832416D01*
X171804405Y-65771790D01*
X171687284Y-65740408D01*
X171566032Y-65740408D01*
X171448911Y-65771790D01*
X171448908Y-65771791D01*
X171343907Y-65832414D01*
X171343901Y-65832418D01*
X171258168Y-65918151D01*
X171258164Y-65918157D01*
X171197541Y-66023158D01*
X171197540Y-66023161D01*
X171166158Y-66140282D01*
X169556000Y-66140282D01*
X169556000Y-65376466D01*
X170275342Y-65376466D01*
X170275342Y-65497718D01*
X170306367Y-65613504D01*
X170306724Y-65614838D01*
X170306725Y-65614841D01*
X170315026Y-65629218D01*
X170367350Y-65719846D01*
X170453088Y-65805584D01*
X170558095Y-65866210D01*
X170675216Y-65897592D01*
X170675218Y-65897592D01*
X170796466Y-65897592D01*
X170796468Y-65897592D01*
X170913589Y-65866210D01*
X171018596Y-65805584D01*
X171104334Y-65719846D01*
X171164960Y-65614839D01*
X171196342Y-65497718D01*
X171196342Y-65376466D01*
X171164960Y-65259345D01*
X171104334Y-65154338D01*
X171019539Y-65069543D01*
X175955500Y-65069543D01*
X175955500Y-65190795D01*
X175986882Y-65307916D01*
X176047508Y-65412923D01*
X176133246Y-65498661D01*
X176238253Y-65559287D01*
X176355374Y-65590669D01*
X176355376Y-65590669D01*
X176476624Y-65590669D01*
X176476626Y-65590669D01*
X176593747Y-65559287D01*
X176698754Y-65498661D01*
X176784492Y-65412923D01*
X176845118Y-65307916D01*
X176876500Y-65190795D01*
X176876500Y-65069543D01*
X176845118Y-64952422D01*
X176790964Y-64858624D01*
X180045926Y-64858624D01*
X180045926Y-64979876D01*
X180074160Y-65085246D01*
X180077308Y-65096996D01*
X180077309Y-65096999D01*
X180085610Y-65111376D01*
X180137934Y-65202004D01*
X180223672Y-65287742D01*
X180328679Y-65348368D01*
X180445800Y-65379750D01*
X180445802Y-65379750D01*
X180567050Y-65379750D01*
X180567052Y-65379750D01*
X180684173Y-65348368D01*
X180789180Y-65287742D01*
X180874918Y-65202004D01*
X180935544Y-65096997D01*
X180966926Y-64979876D01*
X180966926Y-64858624D01*
X180935544Y-64741503D01*
X180874918Y-64636496D01*
X180789180Y-64550758D01*
X180693900Y-64495748D01*
X180684175Y-64490133D01*
X180684174Y-64490132D01*
X180684173Y-64490132D01*
X180567052Y-64458750D01*
X180445800Y-64458750D01*
X180328679Y-64490132D01*
X180328676Y-64490133D01*
X180223675Y-64550756D01*
X180223669Y-64550760D01*
X180137936Y-64636493D01*
X180137932Y-64636499D01*
X180077309Y-64741500D01*
X180077308Y-64741503D01*
X180045926Y-64858624D01*
X176790964Y-64858624D01*
X176784492Y-64847415D01*
X176698754Y-64761677D01*
X176598207Y-64703626D01*
X176593749Y-64701052D01*
X176593748Y-64701051D01*
X176593747Y-64701051D01*
X176476626Y-64669669D01*
X176355374Y-64669669D01*
X176238253Y-64701051D01*
X176238250Y-64701052D01*
X176133249Y-64761675D01*
X176133243Y-64761679D01*
X176047510Y-64847412D01*
X176047506Y-64847418D01*
X175986883Y-64952419D01*
X175986882Y-64952422D01*
X175955500Y-65069543D01*
X171019539Y-65069543D01*
X171018596Y-65068600D01*
X170919684Y-65011493D01*
X170913591Y-65007975D01*
X170913590Y-65007974D01*
X170913589Y-65007974D01*
X170796468Y-64976592D01*
X170675216Y-64976592D01*
X170558095Y-65007974D01*
X170558092Y-65007975D01*
X170453091Y-65068598D01*
X170453085Y-65068602D01*
X170367352Y-65154335D01*
X170367348Y-65154341D01*
X170306725Y-65259342D01*
X170306724Y-65259345D01*
X170275342Y-65376466D01*
X169556000Y-65376466D01*
X169556000Y-64329624D01*
X177356500Y-64329624D01*
X177356500Y-64450876D01*
X177385271Y-64558250D01*
X177387882Y-64567996D01*
X177387883Y-64567999D01*
X177396184Y-64582376D01*
X177448508Y-64673004D01*
X177534246Y-64758742D01*
X177639253Y-64819368D01*
X177756374Y-64850750D01*
X177756376Y-64850750D01*
X177877624Y-64850750D01*
X177877626Y-64850750D01*
X177994747Y-64819368D01*
X178099754Y-64758742D01*
X178185492Y-64673004D01*
X178246118Y-64567997D01*
X178277500Y-64450876D01*
X178277500Y-64329624D01*
X178246118Y-64212503D01*
X178185492Y-64107496D01*
X178099754Y-64021758D01*
X177994747Y-63961132D01*
X177877626Y-63929750D01*
X177756374Y-63929750D01*
X177639253Y-63961132D01*
X177639250Y-63961133D01*
X177534249Y-64021756D01*
X177534243Y-64021760D01*
X177448510Y-64107493D01*
X177448506Y-64107499D01*
X177387883Y-64212500D01*
X177387882Y-64212503D01*
X177356500Y-64329624D01*
X169556000Y-64329624D01*
X169556000Y-63591642D01*
X179910880Y-63591642D01*
X179910880Y-63712894D01*
X179934988Y-63802865D01*
X179942262Y-63830014D01*
X179942263Y-63830017D01*
X179950564Y-63844394D01*
X180002888Y-63935022D01*
X180088626Y-64020760D01*
X180193633Y-64081386D01*
X180310754Y-64112768D01*
X180310756Y-64112768D01*
X180432004Y-64112768D01*
X180432006Y-64112768D01*
X180549127Y-64081386D01*
X180654134Y-64020760D01*
X180739872Y-63935022D01*
X180800498Y-63830015D01*
X180831880Y-63712894D01*
X180831880Y-63591642D01*
X180800498Y-63474521D01*
X180739872Y-63369514D01*
X180654134Y-63283776D01*
X180549127Y-63223150D01*
X180432006Y-63191768D01*
X180310754Y-63191768D01*
X180193633Y-63223150D01*
X180193630Y-63223151D01*
X180088629Y-63283774D01*
X180088623Y-63283778D01*
X180002890Y-63369511D01*
X180002886Y-63369517D01*
X179942263Y-63474518D01*
X179942262Y-63474521D01*
X179910880Y-63591642D01*
X169556000Y-63591642D01*
X169556000Y-61355094D01*
X172522500Y-61355094D01*
X172522500Y-61476346D01*
X172549071Y-61575509D01*
X172553882Y-61593466D01*
X172553883Y-61593469D01*
X172562184Y-61607846D01*
X172614508Y-61698474D01*
X172700246Y-61784212D01*
X172805253Y-61844838D01*
X172922374Y-61876220D01*
X172922376Y-61876220D01*
X173043624Y-61876220D01*
X173043626Y-61876220D01*
X173160747Y-61844838D01*
X173265754Y-61784212D01*
X173312770Y-61737196D01*
X173374093Y-61703711D01*
X173443785Y-61708695D01*
X173499718Y-61750567D01*
X173524135Y-61816031D01*
X173524451Y-61824877D01*
X173524451Y-61927632D01*
X173553746Y-62036962D01*
X173555833Y-62044752D01*
X173555834Y-62044755D01*
X173564135Y-62059132D01*
X173616459Y-62149760D01*
X173616461Y-62149762D01*
X173707944Y-62241245D01*
X173705831Y-62243357D01*
X173738613Y-62288263D01*
X173742760Y-62358009D01*
X173729307Y-62392195D01*
X173704884Y-62434498D01*
X173704882Y-62434503D01*
X173673500Y-62551624D01*
X173673500Y-62672876D01*
X173677353Y-62687253D01*
X173704882Y-62789996D01*
X173704883Y-62789999D01*
X173713184Y-62804376D01*
X173765508Y-62895004D01*
X173851246Y-62980742D01*
X173956253Y-63041368D01*
X174073374Y-63072750D01*
X174073376Y-63072750D01*
X174194624Y-63072750D01*
X174194626Y-63072750D01*
X174311747Y-63041368D01*
X174416754Y-62980742D01*
X174417438Y-62980058D01*
X182292499Y-62980058D01*
X182301812Y-63026873D01*
X182304741Y-63031256D01*
X182337286Y-63079964D01*
X182390376Y-63115437D01*
X182437191Y-63124750D01*
X182437194Y-63124750D01*
X182893500Y-63124750D01*
X182960539Y-63144435D01*
X183006294Y-63197239D01*
X183017500Y-63248750D01*
X183017500Y-63595896D01*
X182997815Y-63662935D01*
X182945011Y-63708690D01*
X182940953Y-63710457D01*
X182824352Y-63758755D01*
X182824342Y-63758760D01*
X182658844Y-63869343D01*
X182658840Y-63869346D01*
X182518096Y-64010090D01*
X182518093Y-64010094D01*
X182407510Y-64175592D01*
X182407505Y-64175602D01*
X182331333Y-64359497D01*
X182331331Y-64359505D01*
X182292500Y-64554719D01*
X182292500Y-64753780D01*
X182331331Y-64948994D01*
X182331333Y-64949002D01*
X182407505Y-65132897D01*
X182407510Y-65132907D01*
X182518093Y-65298405D01*
X182518096Y-65298409D01*
X182658840Y-65439153D01*
X182658844Y-65439156D01*
X182824342Y-65549739D01*
X182824346Y-65549741D01*
X182824349Y-65549743D01*
X183008248Y-65625917D01*
X183197562Y-65663574D01*
X183203469Y-65664749D01*
X183203472Y-65664750D01*
X183203474Y-65664750D01*
X183402528Y-65664750D01*
X183402529Y-65664749D01*
X183597752Y-65625917D01*
X183692612Y-65586623D01*
X183762081Y-65579155D01*
X183824560Y-65610430D01*
X183827746Y-65613504D01*
X193835781Y-75621539D01*
X193869266Y-75682862D01*
X193872100Y-75709220D01*
X193872100Y-79694492D01*
X193852415Y-79761531D01*
X193835781Y-79782173D01*
X193789110Y-79828843D01*
X193789106Y-79828849D01*
X193728483Y-79933850D01*
X193728482Y-79933853D01*
X193697100Y-80050974D01*
X193697100Y-80172226D01*
X193728482Y-80289347D01*
X193789108Y-80394354D01*
X193874846Y-80480092D01*
X193979853Y-80540718D01*
X194096974Y-80572100D01*
X194096976Y-80572100D01*
X194218224Y-80572100D01*
X194218226Y-80572100D01*
X194335347Y-80540718D01*
X194440354Y-80480092D01*
X194526092Y-80394354D01*
X194586718Y-80289347D01*
X194618100Y-80172226D01*
X194618100Y-80050974D01*
X194586718Y-79933853D01*
X194526092Y-79828846D01*
X194479419Y-79782173D01*
X194445934Y-79720850D01*
X194443100Y-79694492D01*
X194443100Y-79314374D01*
X207565500Y-79314374D01*
X207565500Y-79435626D01*
X207596882Y-79552747D01*
X207657508Y-79657754D01*
X207743246Y-79743492D01*
X207848253Y-79804118D01*
X207965374Y-79835500D01*
X207965376Y-79835500D01*
X208086624Y-79835500D01*
X208086626Y-79835500D01*
X208203747Y-79804118D01*
X208308754Y-79743492D01*
X208394492Y-79657754D01*
X208455118Y-79552747D01*
X208477726Y-79468371D01*
X208514090Y-79408713D01*
X208576936Y-79378183D01*
X208646312Y-79386477D01*
X208700190Y-79430962D01*
X208717273Y-79468369D01*
X208739882Y-79552747D01*
X208800508Y-79657754D01*
X208886246Y-79743492D01*
X208991253Y-79804118D01*
X209108374Y-79835500D01*
X209108376Y-79835500D01*
X209229624Y-79835500D01*
X209229626Y-79835500D01*
X209346747Y-79804118D01*
X209451754Y-79743492D01*
X209537492Y-79657754D01*
X209598118Y-79552747D01*
X209629500Y-79435626D01*
X209629500Y-79314374D01*
X209598118Y-79197253D01*
X209537492Y-79092246D01*
X209451754Y-79006508D01*
X209346747Y-78945882D01*
X209229626Y-78914500D01*
X209108374Y-78914500D01*
X208991253Y-78945882D01*
X208991250Y-78945883D01*
X208886249Y-79006506D01*
X208886243Y-79006510D01*
X208800510Y-79092243D01*
X208800506Y-79092249D01*
X208739883Y-79197250D01*
X208739882Y-79197253D01*
X208717275Y-79281626D01*
X208680910Y-79341287D01*
X208618063Y-79371816D01*
X208548688Y-79363521D01*
X208494810Y-79319036D01*
X208477725Y-79281626D01*
X208455118Y-79197253D01*
X208394492Y-79092246D01*
X208308754Y-79006508D01*
X208203747Y-78945882D01*
X208086626Y-78914500D01*
X207965374Y-78914500D01*
X207848253Y-78945882D01*
X207848250Y-78945883D01*
X207743249Y-79006506D01*
X207743243Y-79006510D01*
X207657510Y-79092243D01*
X207657506Y-79092249D01*
X207596883Y-79197250D01*
X207596882Y-79197253D01*
X207565500Y-79314374D01*
X194443100Y-79314374D01*
X194443100Y-77492065D01*
X194462785Y-77425026D01*
X194515589Y-77379271D01*
X194584747Y-77369327D01*
X194629099Y-77384678D01*
X194640253Y-77391118D01*
X194757374Y-77422500D01*
X194757376Y-77422500D01*
X194878624Y-77422500D01*
X194878626Y-77422500D01*
X194995747Y-77391118D01*
X195100754Y-77330492D01*
X195186492Y-77244754D01*
X195247118Y-77139747D01*
X195278500Y-77022626D01*
X195278500Y-76901374D01*
X195247118Y-76784253D01*
X195186492Y-76679246D01*
X195154620Y-76647374D01*
X207184500Y-76647374D01*
X207184500Y-76768626D01*
X207215882Y-76885747D01*
X207276508Y-76990754D01*
X207362246Y-77076492D01*
X207467253Y-77137118D01*
X207584374Y-77168500D01*
X207584376Y-77168500D01*
X207705624Y-77168500D01*
X207705626Y-77168500D01*
X207822747Y-77137118D01*
X207927754Y-77076492D01*
X208013492Y-76990754D01*
X208074118Y-76885747D01*
X208105500Y-76768626D01*
X208105500Y-76647374D01*
X208074118Y-76530253D01*
X208013492Y-76425246D01*
X207927754Y-76339508D01*
X207822747Y-76278882D01*
X207705626Y-76247500D01*
X207584374Y-76247500D01*
X207467253Y-76278882D01*
X207467250Y-76278883D01*
X207362249Y-76339506D01*
X207362243Y-76339510D01*
X207276510Y-76425243D01*
X207276506Y-76425249D01*
X207215883Y-76530250D01*
X207215882Y-76530253D01*
X207184500Y-76647374D01*
X195154620Y-76647374D01*
X195100754Y-76593508D01*
X195030749Y-76553090D01*
X194995749Y-76532883D01*
X194995748Y-76532882D01*
X194995747Y-76532882D01*
X194878626Y-76501500D01*
X194757374Y-76501500D01*
X194640253Y-76532882D01*
X194640252Y-76532882D01*
X194629099Y-76539322D01*
X194561199Y-76555794D01*
X194495172Y-76532941D01*
X194451982Y-76478019D01*
X194443100Y-76431934D01*
X194443100Y-76012374D01*
X199310500Y-76012374D01*
X199310500Y-76133626D01*
X199334455Y-76223026D01*
X199341882Y-76250746D01*
X199341883Y-76250749D01*
X199343862Y-76254176D01*
X199402508Y-76355754D01*
X199488246Y-76441492D01*
X199593253Y-76502118D01*
X199710374Y-76533500D01*
X199710376Y-76533500D01*
X199831624Y-76533500D01*
X199831626Y-76533500D01*
X199948747Y-76502118D01*
X200053754Y-76441492D01*
X200139492Y-76355754D01*
X200200118Y-76250747D01*
X200231500Y-76133626D01*
X200231500Y-76012374D01*
X200200118Y-75895253D01*
X200139492Y-75790246D01*
X200053754Y-75704508D01*
X199948747Y-75643882D01*
X199831626Y-75612500D01*
X199710374Y-75612500D01*
X199593253Y-75643882D01*
X199593250Y-75643883D01*
X199488249Y-75704506D01*
X199488243Y-75704510D01*
X199402510Y-75790243D01*
X199402506Y-75790249D01*
X199341883Y-75895250D01*
X199341882Y-75895253D01*
X199310500Y-76012374D01*
X194443100Y-76012374D01*
X194443100Y-75502015D01*
X194443100Y-75502013D01*
X194423644Y-75429401D01*
X194386057Y-75364299D01*
X194332901Y-75311143D01*
X191552132Y-72530374D01*
X196876000Y-72530374D01*
X196876000Y-72651626D01*
X196907382Y-72768747D01*
X196968008Y-72873754D01*
X197053746Y-72959492D01*
X197158753Y-73020118D01*
X197275874Y-73051500D01*
X197275876Y-73051500D01*
X197397124Y-73051500D01*
X197397126Y-73051500D01*
X197514247Y-73020118D01*
X197619254Y-72959492D01*
X197704992Y-72873754D01*
X197765618Y-72768747D01*
X197797000Y-72651626D01*
X197797000Y-72637502D01*
X197816685Y-72570463D01*
X197869489Y-72524708D01*
X197921000Y-72513502D01*
X197950203Y-72513502D01*
X197950205Y-72513502D01*
X198067326Y-72482120D01*
X198172333Y-72421494D01*
X198258071Y-72335756D01*
X198318697Y-72230749D01*
X198350079Y-72113628D01*
X198350079Y-71992376D01*
X198318697Y-71875255D01*
X198258071Y-71770248D01*
X198172333Y-71684510D01*
X198082927Y-71632891D01*
X198067328Y-71623885D01*
X198059819Y-71620775D01*
X198060371Y-71619440D01*
X198008263Y-71587673D01*
X197977740Y-71524823D01*
X197980250Y-71472181D01*
X197987500Y-71445126D01*
X197987500Y-71323874D01*
X197956118Y-71206753D01*
X197895492Y-71101746D01*
X197809754Y-71016008D01*
X197710437Y-70958667D01*
X197704749Y-70955383D01*
X197704748Y-70955382D01*
X197704747Y-70955382D01*
X197587626Y-70924000D01*
X197466374Y-70924000D01*
X197349253Y-70955382D01*
X197349250Y-70955383D01*
X197244249Y-71016006D01*
X197244243Y-71016010D01*
X197158510Y-71101743D01*
X197158506Y-71101749D01*
X197097883Y-71206750D01*
X197097882Y-71206753D01*
X197066500Y-71323874D01*
X197066500Y-71445126D01*
X197097882Y-71562247D01*
X197158508Y-71667254D01*
X197244246Y-71752992D01*
X197349253Y-71813618D01*
X197349258Y-71813619D01*
X197351831Y-71814685D01*
X197352977Y-71814700D01*
X197354844Y-71815933D01*
X197356760Y-71816727D01*
X197356606Y-71817097D01*
X197380324Y-71832764D01*
X197408307Y-71849820D01*
X197409327Y-71851921D01*
X197411277Y-71853209D01*
X197424515Y-71883186D01*
X197438836Y-71912667D01*
X197438852Y-71915652D01*
X197439502Y-71917123D01*
X197438911Y-71926088D01*
X197439060Y-71952414D01*
X197438038Y-71958939D01*
X197429079Y-71992376D01*
X197429079Y-72016150D01*
X197427586Y-72025684D01*
X197416627Y-72048906D01*
X197409394Y-72073539D01*
X197401964Y-72079976D01*
X197397767Y-72088871D01*
X197375991Y-72102482D01*
X197356590Y-72119294D01*
X197345096Y-72121794D01*
X197338519Y-72125906D01*
X197326867Y-72125759D01*
X197305079Y-72130500D01*
X197275874Y-72130500D01*
X197158753Y-72161882D01*
X197158750Y-72161883D01*
X197053749Y-72222506D01*
X197053743Y-72222510D01*
X196968010Y-72308243D01*
X196968006Y-72308249D01*
X196907383Y-72413250D01*
X196907382Y-72413253D01*
X196876000Y-72530374D01*
X191552132Y-72530374D01*
X189380352Y-70358594D01*
X200108320Y-70358594D01*
X200108320Y-70479846D01*
X200139702Y-70596967D01*
X200200328Y-70701974D01*
X200286066Y-70787712D01*
X200391073Y-70848338D01*
X200508194Y-70879720D01*
X200508196Y-70879720D01*
X200629444Y-70879720D01*
X200629446Y-70879720D01*
X200746567Y-70848338D01*
X200851574Y-70787712D01*
X200937312Y-70701974D01*
X200997938Y-70596967D01*
X201029320Y-70479846D01*
X201029320Y-70358594D01*
X200997938Y-70241473D01*
X200937312Y-70136466D01*
X200851574Y-70050728D01*
X200746567Y-69990102D01*
X200629446Y-69958720D01*
X200508194Y-69958720D01*
X200391073Y-69990102D01*
X200391070Y-69990103D01*
X200286069Y-70050726D01*
X200286063Y-70050730D01*
X200200330Y-70136463D01*
X200200326Y-70136469D01*
X200139703Y-70241470D01*
X200139702Y-70241473D01*
X200108320Y-70358594D01*
X189380352Y-70358594D01*
X188821632Y-69799874D01*
X194399500Y-69799874D01*
X194399500Y-69921126D01*
X194430882Y-70038247D01*
X194491508Y-70143254D01*
X194577246Y-70228992D01*
X194682253Y-70289618D01*
X194799374Y-70321000D01*
X194799376Y-70321000D01*
X194920624Y-70321000D01*
X194920626Y-70321000D01*
X195037747Y-70289618D01*
X195142754Y-70228992D01*
X195228492Y-70143254D01*
X195289118Y-70038247D01*
X195320500Y-69921126D01*
X195320500Y-69799874D01*
X195289118Y-69682753D01*
X195228492Y-69577746D01*
X195142754Y-69492008D01*
X195055265Y-69441496D01*
X195037749Y-69431383D01*
X195037748Y-69431382D01*
X195037747Y-69431382D01*
X194951879Y-69408374D01*
X201850500Y-69408374D01*
X201850500Y-69529626D01*
X201878661Y-69634724D01*
X201881882Y-69646746D01*
X201881883Y-69646749D01*
X201893795Y-69667381D01*
X201942508Y-69751754D01*
X202028246Y-69837492D01*
X202133253Y-69898118D01*
X202250374Y-69929500D01*
X202250376Y-69929500D01*
X202371624Y-69929500D01*
X202371626Y-69929500D01*
X202488747Y-69898118D01*
X202593754Y-69837492D01*
X202679492Y-69751754D01*
X202740118Y-69646747D01*
X202771500Y-69529626D01*
X202771500Y-69408374D01*
X202740118Y-69291253D01*
X202679492Y-69186246D01*
X202593754Y-69100508D01*
X202488747Y-69039882D01*
X202371626Y-69008500D01*
X202250374Y-69008500D01*
X202133253Y-69039882D01*
X202133250Y-69039883D01*
X202028249Y-69100506D01*
X202028243Y-69100510D01*
X201942510Y-69186243D01*
X201942506Y-69186249D01*
X201881883Y-69291250D01*
X201881882Y-69291253D01*
X201850500Y-69408374D01*
X194951879Y-69408374D01*
X194920626Y-69400000D01*
X194799374Y-69400000D01*
X194682253Y-69431382D01*
X194682250Y-69431383D01*
X194577249Y-69492006D01*
X194577243Y-69492010D01*
X194491510Y-69577743D01*
X194491506Y-69577749D01*
X194430883Y-69682750D01*
X194430882Y-69682753D01*
X194399500Y-69799874D01*
X188821632Y-69799874D01*
X187932632Y-68910874D01*
X193383500Y-68910874D01*
X193383500Y-69032126D01*
X193414716Y-69148625D01*
X193414882Y-69149246D01*
X193414883Y-69149249D01*
X193419308Y-69156913D01*
X193475508Y-69254254D01*
X193561246Y-69339992D01*
X193666253Y-69400618D01*
X193783374Y-69432000D01*
X193783376Y-69432000D01*
X193904624Y-69432000D01*
X193904626Y-69432000D01*
X194021747Y-69400618D01*
X194126754Y-69339992D01*
X194212492Y-69254254D01*
X194270885Y-69153113D01*
X194321452Y-69104898D01*
X194390059Y-69091675D01*
X194410359Y-69095337D01*
X194481874Y-69114500D01*
X194481876Y-69114500D01*
X194603124Y-69114500D01*
X194603126Y-69114500D01*
X194720247Y-69083118D01*
X194825254Y-69022492D01*
X194910992Y-68936754D01*
X194971618Y-68831747D01*
X195003000Y-68714626D01*
X195003000Y-68593374D01*
X194971618Y-68476253D01*
X194910992Y-68371246D01*
X194825254Y-68285508D01*
X194725225Y-68227756D01*
X194720249Y-68224883D01*
X194720248Y-68224882D01*
X194720247Y-68224882D01*
X194603126Y-68193500D01*
X194481874Y-68193500D01*
X194364753Y-68224882D01*
X194364750Y-68224883D01*
X194259749Y-68285506D01*
X194259743Y-68285510D01*
X194174010Y-68371243D01*
X194174008Y-68371246D01*
X194115614Y-68472386D01*
X194065046Y-68520601D01*
X193996439Y-68533823D01*
X193976135Y-68530160D01*
X193904627Y-68511000D01*
X193904626Y-68511000D01*
X193783374Y-68511000D01*
X193666253Y-68542382D01*
X193666250Y-68542383D01*
X193561249Y-68603006D01*
X193561243Y-68603010D01*
X193475510Y-68688743D01*
X193475506Y-68688749D01*
X193414883Y-68793750D01*
X193414882Y-68793753D01*
X193383500Y-68910874D01*
X187932632Y-68910874D01*
X186982332Y-67960574D01*
X201977500Y-67960574D01*
X201977500Y-68081826D01*
X202008882Y-68198947D01*
X202069508Y-68303954D01*
X202155246Y-68389692D01*
X202260253Y-68450318D01*
X202377374Y-68481700D01*
X202377376Y-68481700D01*
X202498624Y-68481700D01*
X202498626Y-68481700D01*
X202615747Y-68450318D01*
X202720754Y-68389692D01*
X202806492Y-68303954D01*
X202867118Y-68198947D01*
X202898500Y-68081826D01*
X202898500Y-67960574D01*
X202867118Y-67843453D01*
X202820595Y-67762873D01*
X202804122Y-67694973D01*
X202826974Y-67628946D01*
X202881896Y-67585755D01*
X202951449Y-67579114D01*
X202989978Y-67593484D01*
X203022253Y-67612118D01*
X203139374Y-67643500D01*
X203139376Y-67643500D01*
X203260624Y-67643500D01*
X203260626Y-67643500D01*
X203377747Y-67612118D01*
X203482754Y-67551492D01*
X203568492Y-67465754D01*
X203629118Y-67360747D01*
X203660500Y-67243626D01*
X203660500Y-67122374D01*
X203629118Y-67005253D01*
X203568492Y-66900246D01*
X203482754Y-66814508D01*
X203377747Y-66753882D01*
X203260626Y-66722500D01*
X203139374Y-66722500D01*
X203022253Y-66753882D01*
X203022250Y-66753883D01*
X202917249Y-66814506D01*
X202917243Y-66814510D01*
X202831510Y-66900243D01*
X202831506Y-66900249D01*
X202770883Y-67005250D01*
X202770882Y-67005253D01*
X202739500Y-67122374D01*
X202739500Y-67243626D01*
X202752938Y-67293776D01*
X202770882Y-67360746D01*
X202770883Y-67360749D01*
X202817404Y-67441326D01*
X202833877Y-67509226D01*
X202811024Y-67575253D01*
X202756103Y-67618444D01*
X202686550Y-67625085D01*
X202648017Y-67610713D01*
X202615749Y-67592083D01*
X202615748Y-67592082D01*
X202615747Y-67592082D01*
X202498626Y-67560700D01*
X202377374Y-67560700D01*
X202260253Y-67592082D01*
X202260250Y-67592083D01*
X202155249Y-67652706D01*
X202155243Y-67652710D01*
X202069510Y-67738443D01*
X202069506Y-67738449D01*
X202008883Y-67843450D01*
X202008882Y-67843453D01*
X201977500Y-67960574D01*
X186982332Y-67960574D01*
X185806290Y-66784532D01*
X195763842Y-66784532D01*
X195763842Y-66905784D01*
X195795058Y-67022283D01*
X195795224Y-67022904D01*
X195795225Y-67022907D01*
X195815432Y-67057907D01*
X195855850Y-67127912D01*
X195941588Y-67213650D01*
X196046595Y-67274276D01*
X196163716Y-67305658D01*
X196163718Y-67305658D01*
X196284966Y-67305658D01*
X196284968Y-67305658D01*
X196402089Y-67274276D01*
X196507096Y-67213650D01*
X196592834Y-67127912D01*
X196653460Y-67022905D01*
X196684842Y-66905784D01*
X196684842Y-66784532D01*
X196653460Y-66667411D01*
X196592834Y-66562404D01*
X196507096Y-66476666D01*
X196407867Y-66419376D01*
X196402091Y-66416041D01*
X196402090Y-66416040D01*
X196402089Y-66416040D01*
X196284968Y-66384658D01*
X196163716Y-66384658D01*
X196046595Y-66416040D01*
X196046592Y-66416041D01*
X195941591Y-66476664D01*
X195941585Y-66476668D01*
X195855852Y-66562401D01*
X195855848Y-66562407D01*
X195795225Y-66667408D01*
X195795224Y-66667411D01*
X195763842Y-66784532D01*
X185806290Y-66784532D01*
X185298290Y-66276532D01*
X197099158Y-66276532D01*
X197099158Y-66397784D01*
X197130374Y-66514283D01*
X197130540Y-66514904D01*
X197130541Y-66514907D01*
X197150748Y-66549907D01*
X197191166Y-66619912D01*
X197276904Y-66705650D01*
X197381911Y-66766276D01*
X197499032Y-66797658D01*
X197499034Y-66797658D01*
X197620282Y-66797658D01*
X197620284Y-66797658D01*
X197737405Y-66766276D01*
X197810001Y-66724362D01*
X197877898Y-66707890D01*
X197943925Y-66730742D01*
X197979383Y-66769745D01*
X197984003Y-66777747D01*
X197984006Y-66777751D01*
X197984008Y-66777754D01*
X198069746Y-66863492D01*
X198174753Y-66924118D01*
X198291874Y-66955500D01*
X198291876Y-66955500D01*
X198413124Y-66955500D01*
X198413126Y-66955500D01*
X198530247Y-66924118D01*
X198635254Y-66863492D01*
X198720992Y-66777754D01*
X198781618Y-66672747D01*
X198797259Y-66614374D01*
X206549500Y-66614374D01*
X206549500Y-66735626D01*
X206580882Y-66852747D01*
X206641508Y-66957754D01*
X206727246Y-67043492D01*
X206832253Y-67104118D01*
X206949374Y-67135500D01*
X206949376Y-67135500D01*
X207070624Y-67135500D01*
X207070626Y-67135500D01*
X207187747Y-67104118D01*
X207292754Y-67043492D01*
X207378492Y-66957754D01*
X207439118Y-66852747D01*
X207470500Y-66735626D01*
X207470500Y-66614374D01*
X207439118Y-66497253D01*
X207378492Y-66392246D01*
X207292754Y-66306508D01*
X207214855Y-66261533D01*
X207187749Y-66245883D01*
X207187748Y-66245882D01*
X207187747Y-66245882D01*
X207070626Y-66214500D01*
X206949374Y-66214500D01*
X206832253Y-66245882D01*
X206832250Y-66245883D01*
X206727249Y-66306506D01*
X206727243Y-66306510D01*
X206641510Y-66392243D01*
X206641506Y-66392249D01*
X206580883Y-66497250D01*
X206580882Y-66497253D01*
X206549500Y-66614374D01*
X198797259Y-66614374D01*
X198813000Y-66555626D01*
X198813000Y-66434374D01*
X198781618Y-66317253D01*
X198720992Y-66212246D01*
X198635254Y-66126508D01*
X198547760Y-66075993D01*
X198530249Y-66065883D01*
X198530248Y-66065882D01*
X198530247Y-66065882D01*
X198413126Y-66034500D01*
X198291874Y-66034500D01*
X198174753Y-66065882D01*
X198174750Y-66065883D01*
X198113288Y-66101368D01*
X198102742Y-66107458D01*
X198102158Y-66107795D01*
X198034258Y-66124268D01*
X197968231Y-66101416D01*
X197932771Y-66062408D01*
X197928150Y-66054404D01*
X197842412Y-65968666D01*
X197737405Y-65908040D01*
X197620284Y-65876658D01*
X197499032Y-65876658D01*
X197381911Y-65908040D01*
X197381908Y-65908041D01*
X197276907Y-65968664D01*
X197276901Y-65968668D01*
X197191168Y-66054401D01*
X197191164Y-66054407D01*
X197130541Y-66159408D01*
X197130540Y-66159411D01*
X197099158Y-66276532D01*
X185298290Y-66276532D01*
X184244241Y-65222483D01*
X184210756Y-65161160D01*
X184215740Y-65091468D01*
X184217361Y-65087349D01*
X184218233Y-65085244D01*
X184274667Y-64949002D01*
X184292644Y-64858626D01*
X184296026Y-64841624D01*
X187795500Y-64841624D01*
X187795500Y-64962876D01*
X187826716Y-65079375D01*
X187826882Y-65079996D01*
X187826883Y-65079999D01*
X187844998Y-65111374D01*
X187887508Y-65185004D01*
X187973246Y-65270742D01*
X188078253Y-65331368D01*
X188195374Y-65362750D01*
X188195376Y-65362750D01*
X188316624Y-65362750D01*
X188316626Y-65362750D01*
X188433747Y-65331368D01*
X188538754Y-65270742D01*
X188592122Y-65217374D01*
X189531500Y-65217374D01*
X189531500Y-65338626D01*
X189562617Y-65454756D01*
X189562882Y-65455746D01*
X189562883Y-65455749D01*
X189579550Y-65484616D01*
X189623508Y-65560754D01*
X189709246Y-65646492D01*
X189814253Y-65707118D01*
X189931374Y-65738500D01*
X189931376Y-65738500D01*
X190052624Y-65738500D01*
X190052626Y-65738500D01*
X190169747Y-65707118D01*
X190274754Y-65646492D01*
X190360492Y-65560754D01*
X190388227Y-65512716D01*
X196208342Y-65512716D01*
X196208342Y-65633968D01*
X196239724Y-65751089D01*
X196300350Y-65856096D01*
X196386088Y-65941834D01*
X196491095Y-66002460D01*
X196608216Y-66033842D01*
X196608218Y-66033842D01*
X196729466Y-66033842D01*
X196729468Y-66033842D01*
X196846589Y-66002460D01*
X196951596Y-65941834D01*
X197037334Y-65856096D01*
X197097960Y-65751089D01*
X197129342Y-65633968D01*
X197129342Y-65512716D01*
X197097960Y-65395595D01*
X197037334Y-65290588D01*
X196951596Y-65204850D01*
X196846589Y-65144224D01*
X196729468Y-65112842D01*
X196608216Y-65112842D01*
X196491095Y-65144224D01*
X196491092Y-65144225D01*
X196386091Y-65204848D01*
X196386085Y-65204852D01*
X196300352Y-65290585D01*
X196300348Y-65290591D01*
X196239725Y-65395592D01*
X196239724Y-65395595D01*
X196208342Y-65512716D01*
X190388227Y-65512716D01*
X190421118Y-65455747D01*
X190452500Y-65338626D01*
X190452500Y-65217374D01*
X190421118Y-65100253D01*
X190360492Y-64995246D01*
X190360120Y-64994874D01*
X205978926Y-64994874D01*
X205978926Y-65116126D01*
X206010308Y-65233247D01*
X206070934Y-65338254D01*
X206156672Y-65423992D01*
X206261679Y-65484618D01*
X206378800Y-65516000D01*
X206378802Y-65516000D01*
X206500050Y-65516000D01*
X206500052Y-65516000D01*
X206617173Y-65484618D01*
X206722180Y-65423992D01*
X206807918Y-65338254D01*
X206868544Y-65233247D01*
X206899926Y-65116126D01*
X206899926Y-64994874D01*
X206868544Y-64877753D01*
X206807918Y-64772746D01*
X206722180Y-64687008D01*
X206617173Y-64626382D01*
X206500052Y-64595000D01*
X206378800Y-64595000D01*
X206261679Y-64626382D01*
X206261676Y-64626383D01*
X206156675Y-64687006D01*
X206156669Y-64687010D01*
X206070936Y-64772743D01*
X206070932Y-64772749D01*
X206010309Y-64877750D01*
X206010308Y-64877753D01*
X205978926Y-64994874D01*
X190360120Y-64994874D01*
X190274754Y-64909508D01*
X190186621Y-64858624D01*
X190169749Y-64848883D01*
X190169748Y-64848882D01*
X190169747Y-64848882D01*
X190052626Y-64817500D01*
X189931374Y-64817500D01*
X189814253Y-64848882D01*
X189814250Y-64848883D01*
X189709249Y-64909506D01*
X189709243Y-64909510D01*
X189623510Y-64995243D01*
X189623506Y-64995249D01*
X189562883Y-65100250D01*
X189562882Y-65100253D01*
X189531500Y-65217374D01*
X188592122Y-65217374D01*
X188624492Y-65185004D01*
X188685118Y-65079997D01*
X188716500Y-64962876D01*
X188716500Y-64841624D01*
X188685118Y-64724503D01*
X188624492Y-64619496D01*
X188538754Y-64533758D01*
X188433747Y-64473132D01*
X188406659Y-64465874D01*
X203289500Y-64465874D01*
X203289500Y-64587126D01*
X203320716Y-64703625D01*
X203320882Y-64704246D01*
X203320883Y-64704249D01*
X203332575Y-64724500D01*
X203381508Y-64809254D01*
X203467246Y-64894992D01*
X203572253Y-64955618D01*
X203689374Y-64987000D01*
X203689376Y-64987000D01*
X203810624Y-64987000D01*
X203810626Y-64987000D01*
X203927747Y-64955618D01*
X204032754Y-64894992D01*
X204118492Y-64809254D01*
X204179118Y-64704247D01*
X204210500Y-64587126D01*
X204210500Y-64465874D01*
X204179118Y-64348753D01*
X204118492Y-64243746D01*
X204032754Y-64158008D01*
X203927747Y-64097382D01*
X203810626Y-64066000D01*
X203689374Y-64066000D01*
X203572253Y-64097382D01*
X203572250Y-64097383D01*
X203467249Y-64158006D01*
X203467243Y-64158010D01*
X203381510Y-64243743D01*
X203381506Y-64243749D01*
X203320883Y-64348750D01*
X203320882Y-64348753D01*
X203289500Y-64465874D01*
X188406659Y-64465874D01*
X188316626Y-64441750D01*
X188195374Y-64441750D01*
X188078253Y-64473132D01*
X188078250Y-64473133D01*
X187973249Y-64533756D01*
X187973243Y-64533760D01*
X187887510Y-64619493D01*
X187887506Y-64619499D01*
X187826883Y-64724500D01*
X187826882Y-64724503D01*
X187795500Y-64841624D01*
X184296026Y-64841624D01*
X184302455Y-64809306D01*
X184313499Y-64753780D01*
X184313500Y-64753778D01*
X184313500Y-64554721D01*
X184313499Y-64554719D01*
X184274667Y-64359498D01*
X184198493Y-64175599D01*
X184198491Y-64175596D01*
X184198489Y-64175592D01*
X184087906Y-64010094D01*
X184087903Y-64010090D01*
X183974387Y-63896574D01*
X193747900Y-63896574D01*
X193747900Y-64017826D01*
X193779282Y-64134947D01*
X193839908Y-64239954D01*
X193925646Y-64325692D01*
X194030653Y-64386318D01*
X194147774Y-64417700D01*
X194147776Y-64417700D01*
X194269024Y-64417700D01*
X194269026Y-64417700D01*
X194386147Y-64386318D01*
X194491154Y-64325692D01*
X194576892Y-64239954D01*
X194637518Y-64134947D01*
X194668900Y-64017826D01*
X194668900Y-63896574D01*
X194637518Y-63779453D01*
X194607749Y-63727892D01*
X205843880Y-63727892D01*
X205843880Y-63849144D01*
X205875262Y-63966265D01*
X205935888Y-64071272D01*
X206021626Y-64157010D01*
X206126633Y-64217636D01*
X206243754Y-64249018D01*
X206243756Y-64249018D01*
X206365004Y-64249018D01*
X206365006Y-64249018D01*
X206482127Y-64217636D01*
X206587134Y-64157010D01*
X206672872Y-64071272D01*
X206733498Y-63966265D01*
X206764880Y-63849144D01*
X206764880Y-63727892D01*
X206733498Y-63610771D01*
X206672872Y-63505764D01*
X206587134Y-63420026D01*
X206499640Y-63369511D01*
X206482129Y-63359401D01*
X206482128Y-63359400D01*
X206482127Y-63359400D01*
X206365006Y-63328018D01*
X206243754Y-63328018D01*
X206126633Y-63359400D01*
X206126630Y-63359401D01*
X206021629Y-63420024D01*
X206021623Y-63420028D01*
X205935890Y-63505761D01*
X205935886Y-63505767D01*
X205875263Y-63610768D01*
X205875262Y-63610771D01*
X205843880Y-63727892D01*
X194607749Y-63727892D01*
X194576892Y-63674446D01*
X194491154Y-63588708D01*
X194400776Y-63536528D01*
X194386149Y-63528083D01*
X194386148Y-63528082D01*
X194386147Y-63528082D01*
X194269026Y-63496700D01*
X194147774Y-63496700D01*
X194030653Y-63528082D01*
X194030650Y-63528083D01*
X193925649Y-63588706D01*
X193925643Y-63588710D01*
X193839910Y-63674443D01*
X193839906Y-63674449D01*
X193779283Y-63779450D01*
X193779282Y-63779453D01*
X193747900Y-63896574D01*
X183974387Y-63896574D01*
X183947159Y-63869346D01*
X183947155Y-63869343D01*
X183781657Y-63758760D01*
X183781647Y-63758755D01*
X183665047Y-63710457D01*
X183610643Y-63666615D01*
X183588579Y-63600321D01*
X183588500Y-63595896D01*
X183588500Y-63248750D01*
X183608185Y-63181711D01*
X183660989Y-63135956D01*
X183712500Y-63124750D01*
X184168808Y-63124750D01*
X184200018Y-63118541D01*
X184215624Y-63115437D01*
X184268714Y-63079964D01*
X184304187Y-63026874D01*
X184307291Y-63011268D01*
X184313500Y-62980058D01*
X184313500Y-62716874D01*
X190716500Y-62716874D01*
X190716500Y-62838126D01*
X190747716Y-62954625D01*
X190747882Y-62955246D01*
X190747883Y-62955249D01*
X190762207Y-62980058D01*
X190808508Y-63060254D01*
X190894246Y-63145992D01*
X190999253Y-63206618D01*
X191116374Y-63238000D01*
X191116376Y-63238000D01*
X191237624Y-63238000D01*
X191237626Y-63238000D01*
X191354747Y-63206618D01*
X191459754Y-63145992D01*
X191545492Y-63060254D01*
X191606118Y-62955247D01*
X191637500Y-62838126D01*
X191637500Y-62716874D01*
X191606118Y-62599753D01*
X191545492Y-62494746D01*
X191459754Y-62409008D01*
X191389749Y-62368590D01*
X191354749Y-62348383D01*
X191354748Y-62348382D01*
X191354747Y-62348382D01*
X191237626Y-62317000D01*
X191116374Y-62317000D01*
X190999253Y-62348382D01*
X190999250Y-62348383D01*
X190894249Y-62409006D01*
X190894243Y-62409010D01*
X190808510Y-62494743D01*
X190808506Y-62494749D01*
X190747883Y-62599750D01*
X190747882Y-62599753D01*
X190716500Y-62716874D01*
X184313500Y-62716874D01*
X184313500Y-61491344D01*
X198455500Y-61491344D01*
X198455500Y-61612596D01*
X198486882Y-61729717D01*
X198547508Y-61834724D01*
X198633246Y-61920462D01*
X198738253Y-61981088D01*
X198855374Y-62012470D01*
X198855376Y-62012470D01*
X198976624Y-62012470D01*
X198976626Y-62012470D01*
X199093747Y-61981088D01*
X199198754Y-61920462D01*
X199245770Y-61873446D01*
X199307093Y-61839961D01*
X199376785Y-61844945D01*
X199432718Y-61886817D01*
X199457135Y-61952281D01*
X199457451Y-61961127D01*
X199457451Y-62063882D01*
X199488833Y-62181003D01*
X199549459Y-62286010D01*
X199549461Y-62286012D01*
X199640944Y-62377495D01*
X199638831Y-62379607D01*
X199671613Y-62424513D01*
X199675760Y-62494259D01*
X199662307Y-62528445D01*
X199637884Y-62570748D01*
X199637882Y-62570753D01*
X199606500Y-62687874D01*
X199606500Y-62809126D01*
X199637716Y-62925625D01*
X199637882Y-62926246D01*
X199637883Y-62926249D01*
X199654266Y-62954625D01*
X199698508Y-63031254D01*
X199784246Y-63116992D01*
X199889253Y-63177618D01*
X200006374Y-63209000D01*
X200006376Y-63209000D01*
X200127624Y-63209000D01*
X200127626Y-63209000D01*
X200244747Y-63177618D01*
X200349754Y-63116992D01*
X200435492Y-63031254D01*
X200496118Y-62926247D01*
X200527500Y-62809126D01*
X200527500Y-62687874D01*
X200496118Y-62570753D01*
X200435492Y-62465746D01*
X200349754Y-62380008D01*
X200344007Y-62374261D01*
X200346121Y-62372146D01*
X200313344Y-62327266D01*
X200309184Y-62257520D01*
X200322641Y-62223312D01*
X200347069Y-62181003D01*
X200378451Y-62063882D01*
X200378451Y-61942630D01*
X200347069Y-61825509D01*
X200286443Y-61720502D01*
X200200705Y-61634764D01*
X200104145Y-61579015D01*
X200095700Y-61574139D01*
X200095699Y-61574138D01*
X200095698Y-61574138D01*
X199978577Y-61542756D01*
X199857325Y-61542756D01*
X199740204Y-61574138D01*
X199740201Y-61574139D01*
X199635200Y-61634762D01*
X199635194Y-61634766D01*
X199588181Y-61681780D01*
X199526858Y-61715265D01*
X199457166Y-61710281D01*
X199401233Y-61668409D01*
X199376816Y-61602945D01*
X199376500Y-61594099D01*
X199376500Y-61491346D01*
X199376500Y-61491344D01*
X199345118Y-61374223D01*
X199284492Y-61269216D01*
X199198754Y-61183478D01*
X199103547Y-61128510D01*
X199093749Y-61122853D01*
X199093748Y-61122852D01*
X199093747Y-61122852D01*
X198976626Y-61091470D01*
X198855374Y-61091470D01*
X198738253Y-61122852D01*
X198738250Y-61122853D01*
X198633249Y-61183476D01*
X198633243Y-61183480D01*
X198547510Y-61269213D01*
X198547506Y-61269219D01*
X198486883Y-61374220D01*
X198486882Y-61374223D01*
X198455500Y-61491344D01*
X184313500Y-61491344D01*
X184313500Y-61248441D01*
X184304187Y-61201626D01*
X184292061Y-61183478D01*
X184268714Y-61148536D01*
X184215624Y-61113063D01*
X184215623Y-61113062D01*
X184168808Y-61103750D01*
X184168806Y-61103750D01*
X182437194Y-61103750D01*
X182437192Y-61103750D01*
X182390376Y-61113062D01*
X182337286Y-61148536D01*
X182301812Y-61201626D01*
X182292500Y-61248441D01*
X182292500Y-61248444D01*
X182292500Y-62980056D01*
X182292500Y-62980058D01*
X182292499Y-62980058D01*
X174417438Y-62980058D01*
X174502492Y-62895004D01*
X174563118Y-62789997D01*
X174594500Y-62672876D01*
X174594500Y-62551624D01*
X174563118Y-62434503D01*
X174502492Y-62329496D01*
X174416754Y-62243758D01*
X174411007Y-62238011D01*
X174413121Y-62235896D01*
X174380344Y-62191016D01*
X174376184Y-62121270D01*
X174389641Y-62087062D01*
X174414069Y-62044753D01*
X174445451Y-61927632D01*
X174445451Y-61806380D01*
X174414069Y-61689259D01*
X174353443Y-61584252D01*
X174267705Y-61498514D01*
X174162698Y-61437888D01*
X174045577Y-61406506D01*
X173924325Y-61406506D01*
X173807204Y-61437888D01*
X173807201Y-61437889D01*
X173702200Y-61498512D01*
X173702194Y-61498516D01*
X173655181Y-61545530D01*
X173642098Y-61552673D01*
X173632072Y-61563710D01*
X173612049Y-61569081D01*
X173593858Y-61579015D01*
X173578988Y-61577951D01*
X173564588Y-61581815D01*
X173544841Y-61575509D01*
X173524166Y-61574031D01*
X173512231Y-61565096D01*
X173498030Y-61560562D01*
X173484826Y-61544580D01*
X173468233Y-61532159D01*
X173462277Y-61517288D01*
X173453527Y-61506698D01*
X173448787Y-61483608D01*
X173444382Y-61472609D01*
X173443500Y-61465252D01*
X173443500Y-61355094D01*
X173412118Y-61237973D01*
X173351492Y-61132966D01*
X173265754Y-61047228D01*
X173160747Y-60986602D01*
X173043626Y-60955220D01*
X172922374Y-60955220D01*
X172805253Y-60986602D01*
X172805250Y-60986603D01*
X172700249Y-61047226D01*
X172700243Y-61047230D01*
X172656004Y-61091470D01*
X172614508Y-61132966D01*
X172614506Y-61132968D01*
X172614506Y-61132969D01*
X172553883Y-61237970D01*
X172553882Y-61237973D01*
X172522500Y-61355094D01*
X169556000Y-61355094D01*
X169556000Y-60785128D01*
X194051320Y-60785128D01*
X194051320Y-60906380D01*
X194082702Y-61023501D01*
X194143328Y-61128508D01*
X194229066Y-61214246D01*
X194334073Y-61274872D01*
X194451194Y-61306254D01*
X194451196Y-61306254D01*
X194572444Y-61306254D01*
X194572446Y-61306254D01*
X194689567Y-61274872D01*
X194794574Y-61214246D01*
X194880312Y-61128508D01*
X194940938Y-61023501D01*
X194972320Y-60906380D01*
X194972320Y-60901628D01*
X219409320Y-60901628D01*
X219409320Y-61022880D01*
X219440702Y-61140001D01*
X219501328Y-61245008D01*
X219587066Y-61330746D01*
X219692073Y-61391372D01*
X219809194Y-61422754D01*
X219809196Y-61422754D01*
X219930444Y-61422754D01*
X219930446Y-61422754D01*
X220047567Y-61391372D01*
X220152574Y-61330746D01*
X220238312Y-61245008D01*
X220298938Y-61140001D01*
X220330320Y-61022880D01*
X220330320Y-60901628D01*
X220298938Y-60784507D01*
X220238312Y-60679500D01*
X220152574Y-60593762D01*
X220047567Y-60533136D01*
X219930446Y-60501754D01*
X219809194Y-60501754D01*
X219692073Y-60533136D01*
X219692070Y-60533137D01*
X219587069Y-60593760D01*
X219587063Y-60593764D01*
X219501330Y-60679497D01*
X219501326Y-60679503D01*
X219440703Y-60784504D01*
X219440702Y-60784507D01*
X219409320Y-60901628D01*
X194972320Y-60901628D01*
X194972320Y-60785128D01*
X194940938Y-60668007D01*
X194880312Y-60563000D01*
X194794574Y-60477262D01*
X194689567Y-60416636D01*
X194572446Y-60385254D01*
X194451194Y-60385254D01*
X194334073Y-60416636D01*
X194334070Y-60416637D01*
X194229069Y-60477260D01*
X194229063Y-60477264D01*
X194143330Y-60562997D01*
X194143326Y-60563003D01*
X194082703Y-60668004D01*
X194082702Y-60668007D01*
X194051320Y-60785128D01*
X169556000Y-60785128D01*
X169556000Y-56314209D01*
X171778500Y-56314209D01*
X171778500Y-56461791D01*
X171816697Y-56604345D01*
X171890488Y-56732155D01*
X171994845Y-56836512D01*
X172122655Y-56910303D01*
X172265209Y-56948500D01*
X172265211Y-56948500D01*
X172412789Y-56948500D01*
X172412791Y-56948500D01*
X172555345Y-56910303D01*
X172683155Y-56836512D01*
X172787512Y-56732155D01*
X172861303Y-56604345D01*
X172899500Y-56461791D01*
X172899500Y-56314209D01*
X178509500Y-56314209D01*
X178509500Y-56461791D01*
X178547697Y-56604345D01*
X178621488Y-56732155D01*
X178725845Y-56836512D01*
X178853655Y-56910303D01*
X178996209Y-56948500D01*
X178996211Y-56948500D01*
X179143789Y-56948500D01*
X179143791Y-56948500D01*
X179286345Y-56910303D01*
X179414155Y-56836512D01*
X179518512Y-56732155D01*
X179592303Y-56604345D01*
X179630500Y-56461791D01*
X179630500Y-56314209D01*
X191082500Y-56314209D01*
X191082500Y-56461791D01*
X191120697Y-56604345D01*
X191194488Y-56732155D01*
X191298845Y-56836512D01*
X191426655Y-56910303D01*
X191569209Y-56948500D01*
X191569211Y-56948500D01*
X191716789Y-56948500D01*
X191716791Y-56948500D01*
X191859345Y-56910303D01*
X191987155Y-56836512D01*
X192091512Y-56732155D01*
X192165303Y-56604345D01*
X192203500Y-56461791D01*
X192203500Y-56314209D01*
X197813500Y-56314209D01*
X197813500Y-56461791D01*
X197851697Y-56604345D01*
X197925488Y-56732155D01*
X198029845Y-56836512D01*
X198157655Y-56910303D01*
X198300209Y-56948500D01*
X198300211Y-56948500D01*
X198447789Y-56948500D01*
X198447791Y-56948500D01*
X198590345Y-56910303D01*
X198718155Y-56836512D01*
X198822512Y-56732155D01*
X198896303Y-56604345D01*
X198934500Y-56461791D01*
X198934500Y-56314209D01*
X204544500Y-56314209D01*
X204544500Y-56461791D01*
X204582697Y-56604345D01*
X204656488Y-56732155D01*
X204760845Y-56836512D01*
X204888655Y-56910303D01*
X205031209Y-56948500D01*
X205031211Y-56948500D01*
X205178789Y-56948500D01*
X205178791Y-56948500D01*
X205321345Y-56910303D01*
X205449155Y-56836512D01*
X205553512Y-56732155D01*
X205627303Y-56604345D01*
X205665500Y-56461791D01*
X205665500Y-56441209D01*
X216355500Y-56441209D01*
X216355500Y-56588791D01*
X216393697Y-56731345D01*
X216467488Y-56859155D01*
X216571845Y-56963512D01*
X216699655Y-57037303D01*
X216842209Y-57075500D01*
X216842211Y-57075500D01*
X216989789Y-57075500D01*
X216989791Y-57075500D01*
X217132345Y-57037303D01*
X217260155Y-56963512D01*
X217364512Y-56859155D01*
X217438303Y-56731345D01*
X217476500Y-56588791D01*
X217476500Y-56441209D01*
X223086500Y-56441209D01*
X223086500Y-56588791D01*
X223124697Y-56731345D01*
X223198488Y-56859155D01*
X223302845Y-56963512D01*
X223430655Y-57037303D01*
X223573209Y-57075500D01*
X223573211Y-57075500D01*
X223720789Y-57075500D01*
X223720791Y-57075500D01*
X223863345Y-57037303D01*
X223991155Y-56963512D01*
X224095512Y-56859155D01*
X224169303Y-56731345D01*
X224207500Y-56588791D01*
X224207500Y-56441209D01*
X224173471Y-56314209D01*
X229817500Y-56314209D01*
X229817500Y-56461791D01*
X229855697Y-56604345D01*
X229929488Y-56732155D01*
X230033845Y-56836512D01*
X230161655Y-56910303D01*
X230304209Y-56948500D01*
X230304211Y-56948500D01*
X230451789Y-56948500D01*
X230451791Y-56948500D01*
X230594345Y-56910303D01*
X230722155Y-56836512D01*
X230826512Y-56732155D01*
X230900303Y-56604345D01*
X230938500Y-56461791D01*
X230938500Y-56314209D01*
X230900303Y-56171655D01*
X230826512Y-56043845D01*
X230722155Y-55939488D01*
X230594345Y-55865697D01*
X230451791Y-55827500D01*
X230304209Y-55827500D01*
X230161655Y-55865697D01*
X230161652Y-55865698D01*
X230033843Y-55939489D01*
X229929489Y-56043843D01*
X229855698Y-56171652D01*
X229855697Y-56171655D01*
X229817500Y-56314209D01*
X224173471Y-56314209D01*
X224169303Y-56298655D01*
X224095512Y-56170845D01*
X223991155Y-56066488D01*
X223863345Y-55992697D01*
X223720791Y-55954500D01*
X223573209Y-55954500D01*
X223430655Y-55992697D01*
X223430652Y-55992698D01*
X223302843Y-56066489D01*
X223198489Y-56170843D01*
X223124698Y-56298652D01*
X223124698Y-56298653D01*
X223124697Y-56298655D01*
X223086500Y-56441209D01*
X217476500Y-56441209D01*
X217438303Y-56298655D01*
X217364512Y-56170845D01*
X217260155Y-56066488D01*
X217132345Y-55992697D01*
X216989791Y-55954500D01*
X216842209Y-55954500D01*
X216699655Y-55992697D01*
X216699652Y-55992698D01*
X216571843Y-56066489D01*
X216467489Y-56170843D01*
X216393698Y-56298652D01*
X216393698Y-56298653D01*
X216393697Y-56298655D01*
X216355500Y-56441209D01*
X205665500Y-56441209D01*
X205665500Y-56314209D01*
X205627303Y-56171655D01*
X205553512Y-56043845D01*
X205449155Y-55939488D01*
X205321345Y-55865697D01*
X205178791Y-55827500D01*
X205031209Y-55827500D01*
X204888655Y-55865697D01*
X204888652Y-55865698D01*
X204760843Y-55939489D01*
X204656489Y-56043843D01*
X204582698Y-56171652D01*
X204582697Y-56171655D01*
X204544500Y-56314209D01*
X198934500Y-56314209D01*
X198896303Y-56171655D01*
X198822512Y-56043845D01*
X198718155Y-55939488D01*
X198590345Y-55865697D01*
X198447791Y-55827500D01*
X198300209Y-55827500D01*
X198157655Y-55865697D01*
X198157652Y-55865698D01*
X198029843Y-55939489D01*
X197925489Y-56043843D01*
X197851698Y-56171652D01*
X197851697Y-56171655D01*
X197813500Y-56314209D01*
X192203500Y-56314209D01*
X192165303Y-56171655D01*
X192091512Y-56043845D01*
X191987155Y-55939488D01*
X191859345Y-55865697D01*
X191716791Y-55827500D01*
X191569209Y-55827500D01*
X191426655Y-55865697D01*
X191426652Y-55865698D01*
X191298843Y-55939489D01*
X191194489Y-56043843D01*
X191120698Y-56171652D01*
X191120697Y-56171655D01*
X191082500Y-56314209D01*
X179630500Y-56314209D01*
X179592303Y-56171655D01*
X179518512Y-56043845D01*
X179414155Y-55939488D01*
X179286345Y-55865697D01*
X179143791Y-55827500D01*
X178996209Y-55827500D01*
X178853655Y-55865697D01*
X178853652Y-55865698D01*
X178725843Y-55939489D01*
X178621489Y-56043843D01*
X178547698Y-56171652D01*
X178547697Y-56171655D01*
X178509500Y-56314209D01*
X172899500Y-56314209D01*
X172861303Y-56171655D01*
X172787512Y-56043845D01*
X172683155Y-55939488D01*
X172555345Y-55865697D01*
X172412791Y-55827500D01*
X172265209Y-55827500D01*
X172122655Y-55865697D01*
X172122652Y-55865698D01*
X171994843Y-55939489D01*
X171890489Y-56043843D01*
X171816698Y-56171652D01*
X171816697Y-56171655D01*
X171778500Y-56314209D01*
X169556000Y-56314209D01*
X169556000Y-48694209D01*
X222197500Y-48694209D01*
X222197500Y-48841791D01*
X222235697Y-48984345D01*
X222309488Y-49112155D01*
X222413845Y-49216512D01*
X222541655Y-49290303D01*
X222684209Y-49328500D01*
X222684211Y-49328500D01*
X222831789Y-49328500D01*
X222831791Y-49328500D01*
X222974345Y-49290303D01*
X223102155Y-49216512D01*
X223206512Y-49112155D01*
X223280303Y-48984345D01*
X223318500Y-48841791D01*
X223318500Y-48821209D01*
X226388500Y-48821209D01*
X226388500Y-48968791D01*
X226426697Y-49111345D01*
X226500488Y-49239155D01*
X226604845Y-49343512D01*
X226732655Y-49417303D01*
X226875209Y-49455500D01*
X226875211Y-49455500D01*
X227022789Y-49455500D01*
X227022791Y-49455500D01*
X227165345Y-49417303D01*
X227293155Y-49343512D01*
X227397512Y-49239155D01*
X227471303Y-49111345D01*
X227509500Y-48968791D01*
X227509500Y-48821209D01*
X230579500Y-48821209D01*
X230579500Y-48968791D01*
X230617697Y-49111345D01*
X230691488Y-49239155D01*
X230795845Y-49343512D01*
X230923655Y-49417303D01*
X231066209Y-49455500D01*
X231066211Y-49455500D01*
X231213789Y-49455500D01*
X231213791Y-49455500D01*
X231356345Y-49417303D01*
X231484155Y-49343512D01*
X231588512Y-49239155D01*
X231662303Y-49111345D01*
X231700500Y-48968791D01*
X231700500Y-48821209D01*
X231662303Y-48678655D01*
X231588512Y-48550845D01*
X231484155Y-48446488D01*
X231356345Y-48372697D01*
X231213791Y-48334500D01*
X231066209Y-48334500D01*
X230923655Y-48372697D01*
X230923652Y-48372698D01*
X230795843Y-48446489D01*
X230691489Y-48550843D01*
X230617698Y-48678652D01*
X230617697Y-48678655D01*
X230579500Y-48821209D01*
X227509500Y-48821209D01*
X227471303Y-48678655D01*
X227397512Y-48550845D01*
X227293155Y-48446488D01*
X227165345Y-48372697D01*
X227022791Y-48334500D01*
X226875209Y-48334500D01*
X226732655Y-48372697D01*
X226732652Y-48372698D01*
X226604843Y-48446489D01*
X226500489Y-48550843D01*
X226426698Y-48678652D01*
X226426697Y-48678655D01*
X226388500Y-48821209D01*
X223318500Y-48821209D01*
X223318500Y-48694209D01*
X223280303Y-48551655D01*
X223206512Y-48423845D01*
X223102155Y-48319488D01*
X222974345Y-48245697D01*
X222831791Y-48207500D01*
X222684209Y-48207500D01*
X222541655Y-48245697D01*
X222541652Y-48245698D01*
X222413843Y-48319489D01*
X222309489Y-48423843D01*
X222235698Y-48551652D01*
X222235697Y-48551655D01*
X222197500Y-48694209D01*
X169556000Y-48694209D01*
X169556000Y-43955545D01*
X169556001Y-43954981D01*
X169557253Y-43679940D01*
X228190500Y-43679940D01*
X228190500Y-43950059D01*
X228219864Y-44173093D01*
X228225756Y-44217846D01*
X228225757Y-44217848D01*
X228295663Y-44478745D01*
X228399026Y-44728284D01*
X228399030Y-44728294D01*
X228534080Y-44962208D01*
X228698508Y-45176495D01*
X228698514Y-45176502D01*
X228889497Y-45367485D01*
X228889504Y-45367491D01*
X229103791Y-45531919D01*
X229337705Y-45666969D01*
X229337706Y-45666969D01*
X229337709Y-45666971D01*
X229587253Y-45770336D01*
X229848154Y-45840244D01*
X230115948Y-45875500D01*
X230115955Y-45875500D01*
X230386045Y-45875500D01*
X230386052Y-45875500D01*
X230653846Y-45840244D01*
X230914747Y-45770336D01*
X231164291Y-45666971D01*
X231398209Y-45531919D01*
X231612497Y-45367490D01*
X231803490Y-45176497D01*
X231967919Y-44962209D01*
X232102971Y-44728291D01*
X232206336Y-44478747D01*
X232276244Y-44217846D01*
X232311500Y-43950052D01*
X232311500Y-43679948D01*
X232276244Y-43412154D01*
X232206336Y-43151253D01*
X232102971Y-42901709D01*
X231967919Y-42667791D01*
X231803490Y-42453503D01*
X231803485Y-42453497D01*
X231612502Y-42262514D01*
X231612495Y-42262508D01*
X231398208Y-42098080D01*
X231164294Y-41963030D01*
X231164284Y-41963026D01*
X230914745Y-41859663D01*
X230784296Y-41824710D01*
X230653846Y-41789756D01*
X230609093Y-41783864D01*
X230386059Y-41754500D01*
X230386052Y-41754500D01*
X230115948Y-41754500D01*
X230115940Y-41754500D01*
X229861043Y-41788059D01*
X229848154Y-41789756D01*
X229793016Y-41804530D01*
X229587254Y-41859663D01*
X229337715Y-41963026D01*
X229337705Y-41963030D01*
X229103791Y-42098080D01*
X228889504Y-42262508D01*
X228889497Y-42262514D01*
X228698514Y-42453497D01*
X228698508Y-42453504D01*
X228534080Y-42667791D01*
X228399030Y-42901705D01*
X228399026Y-42901715D01*
X228295663Y-43151254D01*
X228225757Y-43412151D01*
X228225755Y-43412162D01*
X228190500Y-43679940D01*
X169557253Y-43679940D01*
X169557274Y-43675325D01*
X169557274Y-43675324D01*
X169562837Y-42453497D01*
X169569840Y-40915285D01*
X169589830Y-40848338D01*
X169642842Y-40802824D01*
X169693284Y-40791853D01*
X226720175Y-40538401D01*
X226720726Y-40538400D01*
X233302000Y-40538400D01*
X233369039Y-40558085D01*
G37*
%TD.AperFunction*%
%TD*%
M02*
