%TF.GenerationSoftware,KiCad,Pcbnew,9.0.0*%
%TF.CreationDate,2025-06-18T16:25:47-07:00*%
%TF.ProjectId,EPS_Scales_RevE,4550535f-5363-4616-9c65-735f52657645,rev?*%
%TF.SameCoordinates,Original*%
%TF.FileFunction,Soldermask,Top*%
%TF.FilePolarity,Negative*%
%FSLAX46Y46*%
G04 Gerber Fmt 4.6, Leading zero omitted, Abs format (unit mm)*
G04 Created by KiCad (PCBNEW 9.0.0) date 2025-06-18 16:25:47*
%MOMM*%
%LPD*%
G01*
G04 APERTURE LIST*
G04 Aperture macros list*
%AMRoundRect*
0 Rectangle with rounded corners*
0 $1 Rounding radius*
0 $2 $3 $4 $5 $6 $7 $8 $9 X,Y pos of 4 corners*
0 Add a 4 corners polygon primitive as box body*
4,1,4,$2,$3,$4,$5,$6,$7,$8,$9,$2,$3,0*
0 Add four circle primitives for the rounded corners*
1,1,$1+$1,$2,$3*
1,1,$1+$1,$4,$5*
1,1,$1+$1,$6,$7*
1,1,$1+$1,$8,$9*
0 Add four rect primitives between the rounded corners*
20,1,$1+$1,$2,$3,$4,$5,0*
20,1,$1+$1,$4,$5,$6,$7,0*
20,1,$1+$1,$6,$7,$8,$9,0*
20,1,$1+$1,$8,$9,$2,$3,0*%
%AMFreePoly0*
4,1,43,0.507071,0.757071,0.510000,0.750000,0.510000,-0.750000,0.507071,-0.757071,0.500000,-0.760000,0.000000,-0.760000,-0.007071,-0.757071,-0.007630,-0.755722,-0.065263,-0.755722,-0.067851,-0.755381,-0.193930,-0.721599,-0.196342,-0.720600,-0.309381,-0.655337,-0.311452,-0.653748,-0.403748,-0.561452,-0.405337,-0.559381,-0.470600,-0.446342,-0.471599,-0.443930,-0.505381,-0.317851,-0.505722,-0.315263,
-0.505722,-0.257629,-0.507071,-0.257071,-0.510000,-0.250000,-0.510000,0.250000,-0.507071,0.257071,-0.505722,0.257629,-0.505722,0.315263,-0.505381,0.317851,-0.471599,0.443930,-0.470600,0.446342,-0.405337,0.559381,-0.403748,0.561452,-0.311452,0.653748,-0.309381,0.655337,-0.196342,0.720600,-0.193930,0.721599,-0.067851,0.755381,-0.065263,0.755722,-0.007630,0.755722,-0.007071,0.757071,
0.000000,0.760000,0.500000,0.760000,0.507071,0.757071,0.507071,0.757071,$1*%
%AMFreePoly1*
4,1,43,0.007071,0.757071,0.007630,0.755722,0.065263,0.755722,0.067851,0.755381,0.193930,0.721599,0.196342,0.720600,0.309381,0.655337,0.311452,0.653748,0.403748,0.561452,0.405337,0.559381,0.470600,0.446342,0.471599,0.443930,0.505381,0.317851,0.505722,0.315263,0.505722,0.257629,0.507071,0.257071,0.510000,0.250000,0.510000,-0.250000,0.507071,-0.257071,0.505722,-0.257629,
0.505722,-0.315263,0.505381,-0.317851,0.471599,-0.443930,0.470600,-0.446342,0.405337,-0.559381,0.403748,-0.561452,0.311452,-0.653748,0.309381,-0.655337,0.196342,-0.720600,0.193930,-0.721599,0.067851,-0.755381,0.065263,-0.755722,0.007630,-0.755722,0.007071,-0.757071,0.000000,-0.760000,-0.500000,-0.760000,-0.507071,-0.757071,-0.510000,-0.750000,-0.510000,0.750000,-0.507071,0.757071,
-0.500000,0.760000,0.000000,0.760000,0.007071,0.757071,0.007071,0.757071,$1*%
G04 Aperture macros list end*
%ADD10C,4.720000*%
%ADD11RoundRect,0.010000X0.500000X0.500000X-0.500000X0.500000X-0.500000X-0.500000X0.500000X-0.500000X0*%
%ADD12RoundRect,0.010000X-0.500000X-0.500000X0.500000X-0.500000X0.500000X0.500000X-0.500000X0.500000X0*%
%ADD13RoundRect,0.010000X-0.500000X0.500000X-0.500000X-0.500000X0.500000X-0.500000X0.500000X0.500000X0*%
%ADD14RoundRect,0.010000X-0.285000X-0.270000X0.285000X-0.270000X0.285000X0.270000X-0.285000X0.270000X0*%
%ADD15RoundRect,0.010000X-0.270000X0.395000X-0.270000X-0.395000X0.270000X-0.395000X0.270000X0.395000X0*%
%ADD16RoundRect,0.010000X0.270000X-0.285000X0.270000X0.285000X-0.270000X0.285000X-0.270000X-0.285000X0*%
%ADD17RoundRect,0.010000X-0.395000X-0.270000X0.395000X-0.270000X0.395000X0.270000X-0.395000X0.270000X0*%
%ADD18RoundRect,0.010000X-0.270000X0.285000X-0.270000X-0.285000X0.270000X-0.285000X0.270000X0.285000X0*%
%ADD19RoundRect,0.223750X-0.223750X-0.261250X0.223750X-0.261250X0.223750X0.261250X-0.223750X0.261250X0*%
%ADD20RoundRect,0.010000X0.395000X0.270000X-0.395000X0.270000X-0.395000X-0.270000X0.395000X-0.270000X0*%
%ADD21RoundRect,0.010000X0.700000X0.700000X-0.700000X0.700000X-0.700000X-0.700000X0.700000X-0.700000X0*%
%ADD22C,1.420000*%
%ADD23RoundRect,0.105000X0.642500X0.105000X-0.642500X0.105000X-0.642500X-0.105000X0.642500X-0.105000X0*%
%ADD24RoundRect,0.010000X0.285000X0.270000X-0.285000X0.270000X-0.285000X-0.270000X0.285000X-0.270000X0*%
%ADD25RoundRect,0.102000X-0.555000X-0.260000X0.555000X-0.260000X0.555000X0.260000X-0.555000X0.260000X0*%
%ADD26RoundRect,0.010000X-2.500000X1.400000X-2.500000X-1.400000X2.500000X-1.400000X2.500000X1.400000X0*%
%ADD27RoundRect,0.010000X-2.500000X2.000000X-2.500000X-2.000000X2.500000X-2.000000X2.500000X2.000000X0*%
%ADD28RoundRect,0.254444X-0.630556X0.318056X-0.630556X-0.318056X0.630556X-0.318056X0.630556X0.318056X0*%
%ADD29RoundRect,0.010000X-1.250000X-3.000000X1.250000X-3.000000X1.250000X3.000000X-1.250000X3.000000X0*%
%ADD30RoundRect,0.010000X-0.400000X-0.400000X0.400000X-0.400000X0.400000X0.400000X-0.400000X0.400000X0*%
%ADD31RoundRect,0.205000X-0.205000X-0.280000X0.205000X-0.280000X0.205000X0.280000X-0.205000X0.280000X0*%
%ADD32RoundRect,0.254347X-1.105653X0.330653X-1.105653X-0.330653X1.105653X-0.330653X1.105653X0.330653X0*%
%ADD33O,1.770000X0.360000*%
%ADD34RoundRect,0.010000X-1.250000X-1.450000X1.250000X-1.450000X1.250000X1.450000X-1.250000X1.450000X0*%
%ADD35FreePoly0,180.000000*%
%ADD36FreePoly1,180.000000*%
%ADD37RoundRect,0.010000X0.270000X-0.395000X0.270000X0.395000X-0.270000X0.395000X-0.270000X-0.395000X0*%
%ADD38RoundRect,0.010000X-0.850000X-0.850000X0.850000X-0.850000X0.850000X0.850000X-0.850000X0.850000X0*%
%ADD39O,1.720000X1.720000*%
%ADD40RoundRect,0.205000X0.280000X-0.205000X0.280000X0.205000X-0.280000X0.205000X-0.280000X-0.205000X0*%
%ADD41RoundRect,0.010000X0.140000X0.290000X-0.140000X0.290000X-0.140000X-0.290000X0.140000X-0.290000X0*%
%ADD42RoundRect,0.010000X2.375000X0.850000X-2.375000X0.850000X-2.375000X-0.850000X2.375000X-0.850000X0*%
%ADD43RoundRect,0.010000X0.290000X0.140000X-0.290000X0.140000X-0.290000X-0.140000X0.290000X-0.140000X0*%
%ADD44RoundRect,0.205000X0.205000X0.280000X-0.205000X0.280000X-0.205000X-0.280000X0.205000X-0.280000X0*%
%ADD45RoundRect,0.010000X-1.900000X-2.400000X1.900000X-2.400000X1.900000X2.400000X-1.900000X2.400000X0*%
%ADD46RoundRect,0.010000X0.180000X0.780000X-0.180000X0.780000X-0.180000X-0.780000X0.180000X-0.780000X0*%
%ADD47RoundRect,0.010000X1.095000X1.295000X-1.095000X1.295000X-1.095000X-1.295000X1.095000X-1.295000X0*%
%ADD48RoundRect,0.205000X-0.280000X0.205000X-0.280000X-0.205000X0.280000X-0.205000X0.280000X0.205000X0*%
%ADD49O,1.320000X2.220000*%
%ADD50C,3.820000*%
%ADD51RoundRect,0.010000X-1.450000X-2.700000X1.450000X-2.700000X1.450000X2.700000X-1.450000X2.700000X0*%
%ADD52RoundRect,0.010000X-0.780000X0.180000X-0.780000X-0.180000X0.780000X-0.180000X0.780000X0.180000X0*%
%ADD53RoundRect,0.010000X0.400000X0.400000X-0.400000X0.400000X-0.400000X-0.400000X0.400000X-0.400000X0*%
%ADD54O,1.470000X0.400000*%
%ADD55O,0.300000X1.640000*%
G04 APERTURE END LIST*
%TO.C,JP2*%
G36*
X192851000Y-66419500D02*
G01*
X192551000Y-66419500D01*
X192551000Y-64919500D01*
X192851000Y-64919500D01*
X192851000Y-66419500D01*
G37*
%TO.C,JP3*%
G36*
X218209000Y-66536000D02*
G01*
X217909000Y-66536000D01*
X217909000Y-65036000D01*
X218209000Y-65036000D01*
X218209000Y-66536000D01*
G37*
%TO.C,JP4*%
G36*
X166918000Y-66283250D02*
G01*
X166618000Y-66283250D01*
X166618000Y-64783250D01*
X166918000Y-64783250D01*
X166918000Y-66283250D01*
G37*
%TD*%
D10*
%TO.C,J5*%
X240012800Y-37000000D03*
%TD*%
%TO.C,J4*%
X240030000Y-116967000D03*
%TD*%
%TO.C,J3*%
X160012800Y-37000000D03*
%TD*%
%TO.C,J2*%
X160012800Y-117000000D03*
%TD*%
D11*
%TO.C,TP63*%
X166768000Y-67819250D03*
%TD*%
%TO.C,TP62*%
X167657000Y-72137250D03*
%TD*%
%TO.C,TP61*%
X177245500Y-70803750D03*
%TD*%
D12*
%TO.C,TP60*%
X179976000Y-67438250D03*
%TD*%
%TO.C,TP59*%
X163339000Y-61723250D03*
%TD*%
D11*
%TO.C,TP58*%
X218059000Y-68072000D03*
%TD*%
%TO.C,TP57*%
X218948000Y-72390000D03*
%TD*%
%TO.C,TP56*%
X228536500Y-71056500D03*
%TD*%
D12*
%TO.C,TP55*%
X231267000Y-67691000D03*
%TD*%
%TO.C,TP54*%
X214630000Y-61976000D03*
%TD*%
D13*
%TO.C,TP47*%
X179849000Y-70105250D03*
%TD*%
D11*
%TO.C,TP46*%
X230172600Y-120878200D03*
%TD*%
%TO.C,TP45*%
X219504600Y-120878200D03*
%TD*%
%TO.C,TP44*%
X217371000Y-120878200D03*
%TD*%
%TO.C,TP43*%
X199262000Y-99579000D03*
%TD*%
D12*
%TO.C,TP42*%
X199898000Y-94107000D03*
%TD*%
%TO.C,TP41*%
X208915000Y-80518000D03*
%TD*%
%TO.C,TP40*%
X195199000Y-83693000D03*
%TD*%
%TO.C,TP39*%
X204089000Y-74549000D03*
%TD*%
%TO.C,TP38*%
X218214000Y-79210800D03*
%TD*%
%TO.C,TP37*%
X192633600Y-78232000D03*
%TD*%
%TO.C,TP36*%
X170876800Y-78702400D03*
%TD*%
%TO.C,TP35*%
X182459200Y-85204800D03*
%TD*%
%TO.C,TP34*%
X187488400Y-100800400D03*
%TD*%
%TO.C,TP33*%
X171283200Y-102273600D03*
%TD*%
%TO.C,TP31*%
X180325600Y-75502000D03*
%TD*%
D13*
%TO.C,TP30*%
X231140000Y-70358000D03*
%TD*%
D12*
%TO.C,TP29*%
X231574400Y-104001200D03*
%TD*%
%TO.C,TP28*%
X230152000Y-98870400D03*
%TD*%
%TO.C,TP27*%
X234622400Y-82563600D03*
%TD*%
%TO.C,TP26*%
X220347600Y-84697200D03*
%TD*%
%TO.C,TP25*%
X229136000Y-75197600D03*
%TD*%
%TO.C,TP24*%
X177093200Y-121031000D03*
%TD*%
%TO.C,TP23*%
X171196000Y-120973200D03*
%TD*%
%TO.C,TP22*%
X169164000Y-120973200D03*
%TD*%
%TO.C,TP21*%
X206417000Y-121031000D03*
%TD*%
%TO.C,TP20*%
X204258000Y-121031000D03*
%TD*%
%TO.C,TP19*%
X202099000Y-121031000D03*
%TD*%
%TO.C,TP18*%
X199940000Y-121031000D03*
%TD*%
%TO.C,TP17*%
X197781000Y-121031000D03*
%TD*%
%TO.C,TP16*%
X195707000Y-121031000D03*
%TD*%
D11*
%TO.C,TP15*%
X192701000Y-67955500D03*
%TD*%
%TO.C,TP9*%
X193590000Y-72273500D03*
%TD*%
%TO.C,TP8*%
X203178500Y-70940000D03*
%TD*%
D12*
%TO.C,TP7*%
X205909000Y-67574500D03*
%TD*%
%TO.C,TP6*%
X189272000Y-61859500D03*
%TD*%
D13*
%TO.C,TP5*%
X205782000Y-70241500D03*
%TD*%
D11*
%TO.C,TP4*%
X228039000Y-120878200D03*
%TD*%
%TO.C,TP3*%
X225905400Y-120878200D03*
%TD*%
%TO.C,TP2*%
X223771800Y-120878200D03*
%TD*%
D12*
%TO.C,TP1*%
X221640400Y-120853200D03*
%TD*%
D14*
%TO.C,R171*%
X172129500Y-71186750D03*
X172989500Y-71186750D03*
%TD*%
D12*
%TO.C,TP10*%
X171958000Y-85699600D03*
%TD*%
D14*
%TO.C,R158*%
X169706500Y-71218750D03*
X170566500Y-71218750D03*
%TD*%
%TO.C,R155*%
X223420500Y-71439500D03*
X224280500Y-71439500D03*
%TD*%
D15*
%TO.C,C36*%
X197104000Y-82339000D03*
X197104000Y-83439000D03*
%TD*%
D16*
%TO.C,R64*%
X183983200Y-81648800D03*
X183983200Y-80788800D03*
%TD*%
D17*
%TO.C,C25*%
X184296800Y-83528400D03*
X185396800Y-83528400D03*
%TD*%
D18*
%TO.C,R127*%
X196480000Y-67721000D03*
X196480000Y-68581000D03*
%TD*%
D19*
%TO.C,D14*%
X213700500Y-63875750D03*
X215275500Y-63875750D03*
%TD*%
D20*
%TO.C,C29*%
X169699600Y-80582000D03*
X168599600Y-80582000D03*
%TD*%
D21*
%TO.C,CN1*%
X193941000Y-115729000D03*
D22*
X193941000Y-117729000D03*
X195941000Y-115729000D03*
X195941000Y-117729000D03*
X197941000Y-115729000D03*
X197941000Y-117729000D03*
X199941000Y-115729000D03*
X199941000Y-117729000D03*
X201941000Y-115729000D03*
X201941000Y-117729000D03*
X203941000Y-115729000D03*
X203941000Y-117729000D03*
X205941000Y-115729000D03*
X205941000Y-117729000D03*
X207941000Y-115729000D03*
X207941000Y-117729000D03*
%TD*%
D20*
%TO.C,C27*%
X172807200Y-87541600D03*
X171707200Y-87541600D03*
%TD*%
D23*
%TO.C,U11*%
X175218500Y-65197250D03*
X175218500Y-64547250D03*
X175218500Y-63897250D03*
X175218500Y-63247250D03*
X175218500Y-62597250D03*
X175218500Y-61947250D03*
X175218500Y-61297250D03*
X169493500Y-61297250D03*
X169493500Y-61947250D03*
X169493500Y-62597250D03*
X169493500Y-63247250D03*
X169493500Y-63897250D03*
X169493500Y-64547250D03*
X169493500Y-65197250D03*
%TD*%
D24*
%TO.C,R166*%
X180709000Y-64379250D03*
X179849000Y-64379250D03*
%TD*%
D14*
%TO.C,R165*%
X179849000Y-65649250D03*
X180709000Y-65649250D03*
%TD*%
D19*
%TO.C,D13*%
X188342500Y-63759250D03*
X189917500Y-63759250D03*
%TD*%
D16*
%TO.C,R93*%
X231523600Y-81571200D03*
X231523600Y-80711200D03*
%TD*%
D14*
%TO.C,R60*%
X182716800Y-78194400D03*
X183576800Y-78194400D03*
%TD*%
%TO.C,R28*%
X221214800Y-77382000D03*
X222074800Y-77382000D03*
%TD*%
D25*
%TO.C,D7*%
X228649000Y-61457000D03*
X230979000Y-61457000D03*
%TD*%
%TO.C,D10*%
X177358000Y-61204250D03*
X179688000Y-61204250D03*
%TD*%
D26*
%TO.C,C43*%
X198331000Y-58811500D03*
D27*
X198331000Y-53711500D03*
%TD*%
D24*
%TO.C,R134*%
X201400500Y-68654000D03*
X200540500Y-68654000D03*
%TD*%
D28*
%TO.C,R86*%
X228981000Y-63296500D03*
X228981000Y-66221500D03*
%TD*%
D24*
%TO.C,R151*%
X226758500Y-68770500D03*
X225898500Y-68770500D03*
%TD*%
%TO.C,R143*%
X221903500Y-70040500D03*
X221043500Y-70040500D03*
%TD*%
%TO.C,R73*%
X196469000Y-78740000D03*
X195609000Y-78740000D03*
%TD*%
D29*
%TO.C,L3*%
X195255000Y-89535000D03*
X199715000Y-89535000D03*
%TD*%
D25*
%TO.C,D6*%
X203291000Y-61340500D03*
X205621000Y-61340500D03*
%TD*%
D18*
%TO.C,R160*%
X170547000Y-67584750D03*
X170547000Y-68444750D03*
%TD*%
D26*
%TO.C,C51*%
X230378000Y-58928000D03*
D27*
X230378000Y-53828000D03*
%TD*%
D30*
%TO.C,D17*%
X172045200Y-82385600D03*
X172045200Y-83985600D03*
%TD*%
D16*
%TO.C,R129*%
X191050000Y-62113500D03*
X191050000Y-61253500D03*
%TD*%
D24*
%TO.C,R78*%
X206756000Y-76073000D03*
X205896000Y-76073000D03*
%TD*%
D15*
%TO.C,C81*%
X173181500Y-67205750D03*
X173181500Y-68305750D03*
%TD*%
D19*
%TO.C,D16*%
X162409500Y-63623000D03*
X163984500Y-63623000D03*
%TD*%
D14*
%TO.C,R149*%
X231140000Y-65902000D03*
X232000000Y-65902000D03*
%TD*%
D31*
%TO.C,R47*%
X168408600Y-107413200D03*
X170058600Y-107413200D03*
%TD*%
D26*
%TO.C,C63*%
X165625000Y-58660250D03*
D27*
X165625000Y-53560250D03*
%TD*%
D14*
%TO.C,R124*%
X203164000Y-69331500D03*
X204024000Y-69331500D03*
%TD*%
%TO.C,R125*%
X195639500Y-71355000D03*
X196499500Y-71355000D03*
%TD*%
%TO.C,R88*%
X231324000Y-75908800D03*
X232184000Y-75908800D03*
%TD*%
D17*
%TO.C,C38*%
X208365000Y-78613000D03*
X209465000Y-78613000D03*
%TD*%
D32*
%TO.C,C2*%
X226949000Y-47293000D03*
X226949000Y-50243000D03*
%TD*%
D16*
%TO.C,R56*%
X230710800Y-85178000D03*
X230710800Y-84318000D03*
%TD*%
%TO.C,R62*%
X182764000Y-81645200D03*
X182764000Y-80785200D03*
%TD*%
D33*
%TO.C,U17*%
X175271200Y-77082800D03*
X175271200Y-77732800D03*
X175271200Y-78382800D03*
X175271200Y-79042800D03*
X175271200Y-79692800D03*
X175271200Y-80342800D03*
X175271200Y-80992800D03*
X175271200Y-81642800D03*
X181011200Y-80342800D03*
X181011200Y-80992800D03*
X181011200Y-81642800D03*
X181011200Y-79692800D03*
X181011200Y-79042800D03*
X181011200Y-78382800D03*
X181011200Y-77732800D03*
X181011200Y-77082800D03*
D34*
X178141200Y-79362800D03*
%TD*%
D26*
%TO.C,C50*%
X216916000Y-58913000D03*
D27*
X216916000Y-53813000D03*
%TD*%
D14*
%TO.C,R132*%
X205782000Y-65785500D03*
X206642000Y-65785500D03*
%TD*%
%TO.C,R131*%
X192398000Y-63764500D03*
X193258000Y-63764500D03*
%TD*%
D35*
%TO.C,JP2*%
X193351000Y-65669500D03*
D36*
X192051000Y-65669500D03*
%TD*%
D16*
%TO.C,R104*%
X205232000Y-84299000D03*
X205232000Y-83439000D03*
%TD*%
D37*
%TO.C,C73*%
X217678000Y-62470000D03*
X217678000Y-61370000D03*
%TD*%
%TO.C,C78*%
X235587600Y-85492400D03*
X235587600Y-84392400D03*
%TD*%
D20*
%TO.C,C74*%
X232035000Y-63235000D03*
X230935000Y-63235000D03*
%TD*%
D14*
%TO.C,R61*%
X182713200Y-79464400D03*
X183573200Y-79464400D03*
%TD*%
D28*
%TO.C,R85*%
X203623000Y-63180000D03*
X203623000Y-66105000D03*
%TD*%
D33*
%TO.C,U12*%
X198298000Y-76062500D03*
X198298000Y-76712500D03*
X198298000Y-77362500D03*
X198298000Y-78022500D03*
X198298000Y-78672500D03*
X198298000Y-79322500D03*
X198298000Y-79972500D03*
X198298000Y-80622500D03*
X204038000Y-79322500D03*
X204038000Y-79972500D03*
X204038000Y-80622500D03*
X204038000Y-78672500D03*
X204038000Y-78022500D03*
X204038000Y-77362500D03*
X204038000Y-76712500D03*
X204038000Y-76062500D03*
D34*
X201168000Y-78342500D03*
%TD*%
D14*
%TO.C,R168*%
X172165500Y-69787750D03*
X173025500Y-69787750D03*
%TD*%
D17*
%TO.C,C28*%
X184296800Y-85357200D03*
X185396800Y-85357200D03*
%TD*%
D38*
%TO.C,J8*%
X234594000Y-62367000D03*
D39*
X234594000Y-64907000D03*
X234594000Y-67447000D03*
X234594000Y-69987000D03*
%TD*%
D16*
%TO.C,R77*%
X196596000Y-80948000D03*
X196596000Y-80088000D03*
%TD*%
D40*
%TO.C,R35*%
X169657600Y-84099400D03*
X169657600Y-82449400D03*
%TD*%
D15*
%TO.C,C75*%
X223202500Y-67458500D03*
X223202500Y-68558500D03*
%TD*%
D14*
%TO.C,R81*%
X205232000Y-82169000D03*
X206092000Y-82169000D03*
%TD*%
D16*
%TO.C,R80*%
X207137000Y-80821000D03*
X207137000Y-79961000D03*
%TD*%
D41*
%TO.C,U13*%
X203419000Y-81687000D03*
X202919000Y-81687000D03*
X202419000Y-81687000D03*
X201919000Y-81687000D03*
X201419000Y-81687000D03*
X200919000Y-81687000D03*
X200419000Y-81687000D03*
X199919000Y-81687000D03*
X199419000Y-81687000D03*
X198919000Y-81687000D03*
D42*
X201169000Y-83107000D03*
D43*
X198249000Y-83857000D03*
X198249000Y-83357000D03*
X198249000Y-82857000D03*
X198249000Y-82357000D03*
D41*
X200919000Y-84527000D03*
X200419000Y-84527000D03*
X199919000Y-84527000D03*
X199419000Y-84527000D03*
X198919000Y-84527000D03*
X201419000Y-84527000D03*
X201919000Y-84527000D03*
X202419000Y-84527000D03*
X202919000Y-84527000D03*
X203419000Y-84527000D03*
D43*
X204089000Y-83857000D03*
X204089000Y-83357000D03*
X204089000Y-82857000D03*
X204089000Y-82357000D03*
%TD*%
D14*
%TO.C,R57*%
X172654800Y-77076800D03*
X173514800Y-77076800D03*
%TD*%
%TO.C,R72*%
X195662770Y-77470000D03*
X196522770Y-77470000D03*
%TD*%
D17*
%TO.C,C47*%
X234224800Y-80785600D03*
X235324800Y-80785600D03*
%TD*%
D44*
%TO.C,R46*%
X179456600Y-107514800D03*
X177806600Y-107514800D03*
%TD*%
D23*
%TO.C,U6*%
X201151500Y-65333500D03*
X201151500Y-64683500D03*
X201151500Y-64033500D03*
X201151500Y-63383500D03*
X201151500Y-62733500D03*
X201151500Y-62083500D03*
X201151500Y-61433500D03*
X195426500Y-61433500D03*
X195426500Y-62083500D03*
X195426500Y-62733500D03*
X195426500Y-63383500D03*
X195426500Y-64033500D03*
X195426500Y-64683500D03*
X195426500Y-65333500D03*
%TD*%
D16*
%TO.C,R29*%
X222074800Y-81977600D03*
X222074800Y-81117600D03*
%TD*%
D14*
%TO.C,R135*%
X198098500Y-69924000D03*
X198958500Y-69924000D03*
%TD*%
D38*
%TO.C,J9*%
X183303000Y-62114250D03*
D39*
X183303000Y-64654250D03*
X183303000Y-67194250D03*
X183303000Y-69734250D03*
%TD*%
D45*
%TO.C,L1*%
X216238800Y-92215600D03*
X226138800Y-92215600D03*
%TD*%
D14*
%TO.C,R41*%
X172654800Y-78346800D03*
X173514800Y-78346800D03*
%TD*%
D46*
%TO.C,U16*%
X197809000Y-94074000D03*
X197159000Y-94074000D03*
X196509000Y-94074000D03*
X195859000Y-94074000D03*
X195199000Y-94074000D03*
X194549000Y-99634000D03*
X194549000Y-94074000D03*
X193899000Y-94074000D03*
X193249000Y-94074000D03*
X193249000Y-99634000D03*
X193899000Y-99634000D03*
X195199000Y-99634000D03*
X195859000Y-99634000D03*
X197809000Y-99634000D03*
X197159000Y-99634000D03*
X196509000Y-99634000D03*
%TD*%
D16*
%TO.C,R130*%
X193590000Y-62113500D03*
X193590000Y-61253500D03*
%TD*%
%TO.C,R83*%
X219941200Y-79488400D03*
X219941200Y-78628400D03*
%TD*%
D24*
%TO.C,R126*%
X196545500Y-69924000D03*
X195685500Y-69924000D03*
%TD*%
D47*
%TO.C,C62*%
X229737600Y-95263600D03*
X236617600Y-95263600D03*
%TD*%
D41*
%TO.C,U3*%
X180258800Y-83223600D03*
X179758800Y-83223600D03*
X179258800Y-83223600D03*
X178758800Y-83223600D03*
X178258800Y-83223600D03*
X177758800Y-83223600D03*
X177258800Y-83223600D03*
X176758800Y-83223600D03*
X176258800Y-83223600D03*
X175758800Y-83223600D03*
D42*
X178008800Y-84643600D03*
D43*
X175088800Y-85393600D03*
X175088800Y-84893600D03*
X175088800Y-84393600D03*
X175088800Y-83893600D03*
D41*
X177758800Y-86063600D03*
X177258800Y-86063600D03*
X176758800Y-86063600D03*
X176258800Y-86063600D03*
X175758800Y-86063600D03*
X178258800Y-86063600D03*
X178758800Y-86063600D03*
X179258800Y-86063600D03*
X179758800Y-86063600D03*
X180258800Y-86063600D03*
D43*
X180928800Y-85393600D03*
X180928800Y-84893600D03*
X180928800Y-84393600D03*
X180928800Y-83893600D03*
%TD*%
D17*
%TO.C,C41*%
X207069600Y-85090000D03*
X208169600Y-85090000D03*
%TD*%
D35*
%TO.C,JP3*%
X218709000Y-65786000D03*
D36*
X217409000Y-65786000D03*
%TD*%
D15*
%TO.C,C76*%
X224472500Y-67458500D03*
X224472500Y-68558500D03*
%TD*%
D24*
%TO.C,R169*%
X175429500Y-71150750D03*
X174569500Y-71150750D03*
%TD*%
%TO.C,R107*%
X173442000Y-79667600D03*
X172582000Y-79667600D03*
%TD*%
D16*
%TO.C,R128*%
X195189000Y-68625000D03*
X195189000Y-67765000D03*
%TD*%
D24*
%TO.C,R153*%
X226720500Y-71403500D03*
X225860500Y-71403500D03*
%TD*%
D15*
%TO.C,C54*%
X223040000Y-103137600D03*
X223040000Y-104237600D03*
%TD*%
D21*
%TO.C,J6*%
X217167800Y-115696600D03*
D22*
X217167800Y-117696600D03*
X219167800Y-115696600D03*
X219167800Y-117696600D03*
X221167800Y-115696600D03*
X221167800Y-117696600D03*
X223167800Y-115696600D03*
X223167800Y-117696600D03*
X225167800Y-115696600D03*
X225167800Y-117696600D03*
X227167800Y-115696600D03*
X227167800Y-117696600D03*
X229167800Y-115696600D03*
X229167800Y-117696600D03*
X231167800Y-115696600D03*
X231167800Y-117696600D03*
%TD*%
D48*
%TO.C,R34*%
X169657600Y-85497400D03*
X169657600Y-87147400D03*
%TD*%
D16*
%TO.C,R92*%
X232793600Y-81547600D03*
X232793600Y-80687600D03*
%TD*%
D28*
%TO.C,R94*%
X177690000Y-63043750D03*
X177690000Y-65968750D03*
%TD*%
D16*
%TO.C,R161*%
X169256000Y-68488750D03*
X169256000Y-67628750D03*
%TD*%
D14*
%TO.C,R91*%
X230866800Y-83020800D03*
X231726800Y-83020800D03*
%TD*%
D20*
%TO.C,C83*%
X170663500Y-72475350D03*
X169563500Y-72475350D03*
%TD*%
D15*
%TO.C,C71*%
X197844500Y-67342000D03*
X197844500Y-68442000D03*
%TD*%
D14*
%TO.C,R90*%
X231273200Y-78448800D03*
X232133200Y-78448800D03*
%TD*%
D32*
%TO.C,C1*%
X231199000Y-47293000D03*
X231199000Y-50243000D03*
%TD*%
%TO.C,C3*%
X222699000Y-47293000D03*
X222699000Y-50243000D03*
%TD*%
D14*
%TO.C,R146*%
X217756000Y-63881000D03*
X218616000Y-63881000D03*
%TD*%
D40*
%TO.C,R44*%
X176091600Y-110016200D03*
X176091600Y-108366200D03*
%TD*%
D14*
%TO.C,R141*%
X228522000Y-69448000D03*
X229382000Y-69448000D03*
%TD*%
D49*
%TO.C,U8*%
X219901000Y-37815000D03*
X233401000Y-37815000D03*
D50*
X223051000Y-43815000D03*
X230251000Y-43815000D03*
%TD*%
D51*
%TO.C,L2*%
X166101600Y-94742000D03*
X176001600Y-94742000D03*
%TD*%
D26*
%TO.C,C34*%
X191558000Y-58796500D03*
D27*
X191558000Y-53696500D03*
%TD*%
D47*
%TO.C,C58*%
X202427000Y-88265000D03*
X209307000Y-88265000D03*
%TD*%
D20*
%TO.C,C35*%
X202226000Y-74930000D03*
X201126000Y-74930000D03*
%TD*%
D16*
%TO.C,R164*%
X167657000Y-61977250D03*
X167657000Y-61117250D03*
%TD*%
D52*
%TO.C,U5*%
X178510800Y-100082000D03*
X178510800Y-100732000D03*
X178510800Y-101382000D03*
X178510800Y-102032000D03*
X178510800Y-102692000D03*
X184070800Y-103342000D03*
X178510800Y-103342000D03*
X178510800Y-103992000D03*
X178510800Y-104642000D03*
X184070800Y-104642000D03*
X184070800Y-103992000D03*
X184070800Y-102692000D03*
X184070800Y-102032000D03*
X184070800Y-100082000D03*
X184070800Y-100732000D03*
X184070800Y-101382000D03*
%TD*%
D37*
%TO.C,C60*%
X234216000Y-85501200D03*
X234216000Y-84401200D03*
%TD*%
D18*
%TO.C,R48*%
X194310000Y-77802000D03*
X194310000Y-78662000D03*
%TD*%
D15*
%TO.C,C70*%
X199114500Y-67342000D03*
X199114500Y-68442000D03*
%TD*%
D14*
%TO.C,R152*%
X223456500Y-70040500D03*
X224316500Y-70040500D03*
%TD*%
D21*
%TO.C,J10*%
X169157200Y-115798200D03*
D22*
X169157200Y-117798200D03*
X171157200Y-115798200D03*
X171157200Y-117798200D03*
X173157200Y-115798200D03*
X173157200Y-117798200D03*
X175157200Y-115798200D03*
X175157200Y-117798200D03*
X177157200Y-115798200D03*
X177157200Y-117798200D03*
X179157200Y-115798200D03*
X179157200Y-117798200D03*
X181157200Y-115798200D03*
X181157200Y-117798200D03*
X183157200Y-115798200D03*
X183157200Y-117798200D03*
%TD*%
D47*
%TO.C,C56*%
X179273200Y-96982000D03*
X186153200Y-96982000D03*
%TD*%
D20*
%TO.C,C31*%
X182501200Y-105728000D03*
X181401200Y-105728000D03*
%TD*%
D24*
%TO.C,R154*%
X226758500Y-70040500D03*
X225898500Y-70040500D03*
%TD*%
D37*
%TO.C,C55*%
X229796400Y-104246400D03*
X229796400Y-103146400D03*
%TD*%
D15*
%TO.C,C23*%
X173721600Y-84299200D03*
X173721600Y-85399200D03*
%TD*%
D14*
%TO.C,R162*%
X166465000Y-63628250D03*
X167325000Y-63628250D03*
%TD*%
D16*
%TO.C,R163*%
X165117000Y-61977250D03*
X165117000Y-61117250D03*
%TD*%
D14*
%TO.C,R75*%
X195662770Y-76200000D03*
X196522770Y-76200000D03*
%TD*%
D20*
%TO.C,C72*%
X196596500Y-72611600D03*
X195496500Y-72611600D03*
%TD*%
D44*
%TO.C,R45*%
X174741000Y-103400000D03*
X173091000Y-103400000D03*
%TD*%
D18*
%TO.C,R144*%
X221838000Y-67837500D03*
X221838000Y-68697500D03*
%TD*%
D16*
%TO.C,R58*%
X173620000Y-82993200D03*
X173620000Y-82133200D03*
%TD*%
D24*
%TO.C,R159*%
X170612500Y-69787750D03*
X169752500Y-69787750D03*
%TD*%
D26*
%TO.C,C64*%
X172398000Y-58675250D03*
D27*
X172398000Y-53575250D03*
%TD*%
D37*
%TO.C,C68*%
X192320000Y-62353500D03*
X192320000Y-61253500D03*
%TD*%
D14*
%TO.C,R157*%
X177231000Y-69195250D03*
X178091000Y-69195250D03*
%TD*%
D23*
%TO.C,U10*%
X226509500Y-65450000D03*
X226509500Y-64800000D03*
X226509500Y-64150000D03*
X226509500Y-63500000D03*
X226509500Y-62850000D03*
X226509500Y-62200000D03*
X226509500Y-61550000D03*
X220784500Y-61550000D03*
X220784500Y-62200000D03*
X220784500Y-62850000D03*
X220784500Y-63500000D03*
X220784500Y-64150000D03*
X220784500Y-64800000D03*
X220784500Y-65450000D03*
%TD*%
D25*
%TO.C,D15*%
X223815500Y-73088500D03*
X226145500Y-73088500D03*
%TD*%
D24*
%TO.C,R82*%
X222098400Y-79922000D03*
X221238400Y-79922000D03*
%TD*%
D44*
%TO.C,R43*%
X179456600Y-105990800D03*
X177806600Y-105990800D03*
%TD*%
D24*
%TO.C,R150*%
X232000000Y-64632000D03*
X231140000Y-64632000D03*
%TD*%
%TO.C,R138*%
X201362500Y-71287000D03*
X200502500Y-71287000D03*
%TD*%
D35*
%TO.C,JP4*%
X167418000Y-65533250D03*
D36*
X166118000Y-65533250D03*
%TD*%
D53*
%TO.C,D9*%
X195072000Y-81826000D03*
X195072000Y-80226000D03*
%TD*%
D54*
%TO.C,U9*%
X176158000Y-107224800D03*
X176158000Y-106564800D03*
X176158000Y-105914800D03*
X176158000Y-105264800D03*
X171758000Y-105264800D03*
X171758000Y-105914800D03*
X171758000Y-106564800D03*
X171758000Y-107224800D03*
%TD*%
D15*
%TO.C,C82*%
X171911500Y-67205750D03*
X171911500Y-68305750D03*
%TD*%
D14*
%TO.C,R89*%
X231296800Y-77178800D03*
X232156800Y-77178800D03*
%TD*%
D38*
%TO.C,J7*%
X209236000Y-62250500D03*
D39*
X209236000Y-64790500D03*
X209236000Y-67330500D03*
X209236000Y-69870500D03*
%TD*%
D14*
%TO.C,R142*%
X220997500Y-71471500D03*
X221857500Y-71471500D03*
%TD*%
D24*
%TO.C,R167*%
X175467500Y-68517750D03*
X174607500Y-68517750D03*
%TD*%
D25*
%TO.C,D18*%
X172524500Y-72835750D03*
X174854500Y-72835750D03*
%TD*%
D20*
%TO.C,C59*%
X222684400Y-86373600D03*
X221584400Y-86373600D03*
%TD*%
%TO.C,C45*%
X227298400Y-75604000D03*
X226198400Y-75604000D03*
%TD*%
%TO.C,C24*%
X178479200Y-75908400D03*
X177379200Y-75908400D03*
%TD*%
D24*
%TO.C,R137*%
X203975000Y-67955500D03*
X203115000Y-67955500D03*
%TD*%
D15*
%TO.C,C32*%
X185761200Y-100504400D03*
X185761200Y-101604400D03*
%TD*%
D16*
%TO.C,R79*%
X205867000Y-80694000D03*
X205867000Y-79834000D03*
%TD*%
D24*
%TO.C,R140*%
X201400500Y-69924000D03*
X200540500Y-69924000D03*
%TD*%
D17*
%TO.C,C30*%
X173366000Y-108734000D03*
X174466000Y-108734000D03*
%TD*%
D16*
%TO.C,R65*%
X182052800Y-87744800D03*
X182052800Y-86884800D03*
%TD*%
D20*
%TO.C,C77*%
X221954500Y-72728100D03*
X220854500Y-72728100D03*
%TD*%
D16*
%TO.C,R147*%
X216408000Y-62230000D03*
X216408000Y-61370000D03*
%TD*%
%TO.C,R148*%
X218948000Y-62230000D03*
X218948000Y-61370000D03*
%TD*%
D14*
%TO.C,R136*%
X198062500Y-71323000D03*
X198922500Y-71323000D03*
%TD*%
D24*
%TO.C,R103*%
X207362000Y-83439000D03*
X206502000Y-83439000D03*
%TD*%
D14*
%TO.C,R63*%
X182029200Y-83477600D03*
X182889200Y-83477600D03*
%TD*%
D55*
%TO.C,U7*%
X168085900Y-82282000D03*
X167585900Y-82282000D03*
X167085900Y-82282000D03*
X166585900Y-82282000D03*
X166085900Y-82282000D03*
X166085900Y-86502000D03*
X166585900Y-86502000D03*
X167085900Y-86502000D03*
X167585900Y-86502000D03*
X168085900Y-86502000D03*
%TD*%
D26*
%TO.C,C53*%
X223689000Y-58928000D03*
D27*
X223689000Y-53828000D03*
%TD*%
D47*
%TO.C,C61*%
X229737600Y-89213600D03*
X236617600Y-89213600D03*
%TD*%
D53*
%TO.C,D4*%
X220449200Y-82855600D03*
X220449200Y-81255600D03*
%TD*%
D26*
%TO.C,C65*%
X179087000Y-58675250D03*
D27*
X179087000Y-53575250D03*
%TD*%
D14*
%TO.C,R59*%
X182716800Y-76924400D03*
X183576800Y-76924400D03*
%TD*%
%TO.C,R66*%
X183248400Y-86932000D03*
X184108400Y-86932000D03*
%TD*%
D31*
%TO.C,R42*%
X168408600Y-105889200D03*
X170058600Y-105889200D03*
%TD*%
D16*
%TO.C,R145*%
X220547000Y-68741500D03*
X220547000Y-67881500D03*
%TD*%
D24*
%TO.C,R87*%
X222074800Y-78652000D03*
X221214800Y-78652000D03*
%TD*%
D14*
%TO.C,R108*%
X172556800Y-80886800D03*
X173416800Y-80886800D03*
%TD*%
D15*
%TO.C,C46*%
X222024000Y-83283600D03*
X222024000Y-84383600D03*
%TD*%
D47*
%TO.C,C52*%
X179273200Y-90932000D03*
X186153200Y-90932000D03*
%TD*%
D37*
%TO.C,C49*%
X198881000Y-97843000D03*
X198881000Y-96743000D03*
%TD*%
D24*
%TO.C,R156*%
X229333000Y-68072000D03*
X228473000Y-68072000D03*
%TD*%
%TO.C,R55*%
X232844400Y-85103600D03*
X231984400Y-85103600D03*
%TD*%
D37*
%TO.C,C79*%
X166387000Y-62217250D03*
X166387000Y-61117250D03*
%TD*%
D24*
%TO.C,R172*%
X178042000Y-67819250D03*
X177182000Y-67819250D03*
%TD*%
%TO.C,R74*%
X206756000Y-78613000D03*
X205896000Y-78613000D03*
%TD*%
D33*
%TO.C,U15*%
X223878400Y-76711100D03*
X223878400Y-77361100D03*
X223878400Y-78011100D03*
X223878400Y-78671100D03*
X223878400Y-79321100D03*
X223878400Y-79971100D03*
X223878400Y-80621100D03*
X223878400Y-81271100D03*
X229618400Y-79971100D03*
X229618400Y-80621100D03*
X229618400Y-81271100D03*
X229618400Y-79321100D03*
X229618400Y-78671100D03*
X229618400Y-78011100D03*
X229618400Y-77361100D03*
X229618400Y-76711100D03*
D34*
X226748400Y-78991100D03*
%TD*%
D20*
%TO.C,C40*%
X197146000Y-85344000D03*
X196046000Y-85344000D03*
%TD*%
D25*
%TO.C,D8*%
X198457500Y-72972000D03*
X200787500Y-72972000D03*
%TD*%
D17*
%TO.C,C26*%
X179632000Y-87236800D03*
X180732000Y-87236800D03*
%TD*%
D24*
%TO.C,R76*%
X206749389Y-77343000D03*
X205889389Y-77343000D03*
%TD*%
%TO.C,R170*%
X175467500Y-69787750D03*
X174607500Y-69787750D03*
%TD*%
D41*
%TO.C,U1*%
X228947600Y-82312000D03*
X228447600Y-82312000D03*
X227947600Y-82312000D03*
X227447600Y-82312000D03*
X226947600Y-82312000D03*
X226447600Y-82312000D03*
X225947600Y-82312000D03*
X225447600Y-82312000D03*
X224947600Y-82312000D03*
X224447600Y-82312000D03*
D42*
X226697600Y-83732000D03*
D43*
X223777600Y-84482000D03*
X223777600Y-83982000D03*
X223777600Y-83482000D03*
X223777600Y-82982000D03*
D41*
X226447600Y-85152000D03*
X225947600Y-85152000D03*
X225447600Y-85152000D03*
X224947600Y-85152000D03*
X224447600Y-85152000D03*
X226947600Y-85152000D03*
X227447600Y-85152000D03*
X227947600Y-85152000D03*
X228447600Y-85152000D03*
X228947600Y-85152000D03*
D43*
X229617600Y-84482000D03*
X229617600Y-83982000D03*
X229617600Y-83482000D03*
X229617600Y-82982000D03*
%TD*%
D37*
%TO.C,C48*%
X192151000Y-96858000D03*
X192151000Y-95758000D03*
%TD*%
D46*
%TO.C,U2*%
X228663600Y-98528800D03*
X228013600Y-98528800D03*
X227363600Y-98528800D03*
X226713600Y-98528800D03*
X226053600Y-98528800D03*
X225403600Y-104088800D03*
X225403600Y-98528800D03*
X224753600Y-98528800D03*
X224103600Y-98528800D03*
X224103600Y-104088800D03*
X224753600Y-104088800D03*
X226053600Y-104088800D03*
X226713600Y-104088800D03*
X228663600Y-104088800D03*
X228013600Y-104088800D03*
X227363600Y-104088800D03*
%TD*%
D37*
%TO.C,C39*%
X208534000Y-83354000D03*
X208534000Y-82254000D03*
%TD*%
D20*
%TO.C,C69*%
X206677000Y-63118500D03*
X205577000Y-63118500D03*
%TD*%
%TO.C,C80*%
X180744000Y-62982250D03*
X179644000Y-62982250D03*
%TD*%
D24*
%TO.C,R133*%
X206642000Y-64515500D03*
X205782000Y-64515500D03*
%TD*%
D26*
%TO.C,C44*%
X205020000Y-58811500D03*
D27*
X205020000Y-53711500D03*
%TD*%
D47*
%TO.C,C57*%
X202427000Y-93472000D03*
X209307000Y-93472000D03*
%TD*%
M02*
