%TF.GenerationSoftware,KiCad,Pcbnew,9.0.0*%
%TF.CreationDate,2025-06-18T17:13:18-07:00*%
%TF.ProjectId,EPS_Scales_RevE,4550535f-5363-4616-9c65-735f52657645,rev?*%
%TF.SameCoordinates,Original*%
%TF.FileFunction,Legend,Bot*%
%TF.FilePolarity,Positive*%
%FSLAX46Y46*%
G04 Gerber Fmt 4.6, Leading zero omitted, Abs format (unit mm)*
G04 Created by KiCad (PCBNEW 9.0.0) date 2025-06-18 17:13:18*
%MOMM*%
%LPD*%
G01*
G04 APERTURE LIST*
G04 Aperture macros list*
%AMRoundRect*
0 Rectangle with rounded corners*
0 $1 Rounding radius*
0 $2 $3 $4 $5 $6 $7 $8 $9 X,Y pos of 4 corners*
0 Add a 4 corners polygon primitive as box body*
4,1,4,$2,$3,$4,$5,$6,$7,$8,$9,$2,$3,0*
0 Add four circle primitives for the rounded corners*
1,1,$1+$1,$2,$3*
1,1,$1+$1,$4,$5*
1,1,$1+$1,$6,$7*
1,1,$1+$1,$8,$9*
0 Add four rect primitives between the rounded corners*
20,1,$1+$1,$2,$3,$4,$5,0*
20,1,$1+$1,$4,$5,$6,$7,0*
20,1,$1+$1,$6,$7,$8,$9,0*
20,1,$1+$1,$8,$9,$2,$3,0*%
G04 Aperture macros list end*
%ADD10C,4.720000*%
%ADD11RoundRect,0.010000X0.700000X0.700000X-0.700000X0.700000X-0.700000X-0.700000X0.700000X-0.700000X0*%
%ADD12C,1.420000*%
%ADD13RoundRect,0.010000X-0.850000X-0.850000X0.850000X-0.850000X0.850000X0.850000X-0.850000X0.850000X0*%
%ADD14O,1.720000X1.720000*%
%ADD15O,1.320000X2.220000*%
%ADD16C,3.820000*%
G04 APERTURE END LIST*
%LPC*%
D10*
%TO.C,J5*%
X240012800Y-37000000D03*
%TD*%
%TO.C,J4*%
X240030000Y-116967000D03*
%TD*%
%TO.C,J3*%
X160012800Y-37000000D03*
%TD*%
%TO.C,J2*%
X160012800Y-117000000D03*
%TD*%
D11*
%TO.C,CN1*%
X193941000Y-115729000D03*
D12*
X193941000Y-117729000D03*
X195941000Y-115729000D03*
X195941000Y-117729000D03*
X197941000Y-115729000D03*
X197941000Y-117729000D03*
X199941000Y-115729000D03*
X199941000Y-117729000D03*
X201941000Y-115729000D03*
X201941000Y-117729000D03*
X203941000Y-115729000D03*
X203941000Y-117729000D03*
X205941000Y-115729000D03*
X205941000Y-117729000D03*
X207941000Y-115729000D03*
X207941000Y-117729000D03*
%TD*%
D13*
%TO.C,J8*%
X234594000Y-62367000D03*
D14*
X234594000Y-64907000D03*
X234594000Y-67447000D03*
X234594000Y-69987000D03*
%TD*%
D13*
%TO.C,J9*%
X183303000Y-62114250D03*
D14*
X183303000Y-64654250D03*
X183303000Y-67194250D03*
X183303000Y-69734250D03*
%TD*%
D11*
%TO.C,J6*%
X217167800Y-115696600D03*
D12*
X217167800Y-117696600D03*
X219167800Y-115696600D03*
X219167800Y-117696600D03*
X221167800Y-115696600D03*
X221167800Y-117696600D03*
X223167800Y-115696600D03*
X223167800Y-117696600D03*
X225167800Y-115696600D03*
X225167800Y-117696600D03*
X227167800Y-115696600D03*
X227167800Y-117696600D03*
X229167800Y-115696600D03*
X229167800Y-117696600D03*
X231167800Y-115696600D03*
X231167800Y-117696600D03*
%TD*%
D15*
%TO.C,U8*%
X219901000Y-37815000D03*
X233401000Y-37815000D03*
D16*
X223051000Y-43815000D03*
X230251000Y-43815000D03*
%TD*%
D11*
%TO.C,J10*%
X169157200Y-115798200D03*
D12*
X169157200Y-117798200D03*
X171157200Y-115798200D03*
X171157200Y-117798200D03*
X173157200Y-115798200D03*
X173157200Y-117798200D03*
X175157200Y-115798200D03*
X175157200Y-117798200D03*
X177157200Y-115798200D03*
X177157200Y-117798200D03*
X179157200Y-115798200D03*
X179157200Y-117798200D03*
X181157200Y-115798200D03*
X181157200Y-117798200D03*
X183157200Y-115798200D03*
X183157200Y-117798200D03*
%TD*%
D13*
%TO.C,J7*%
X209236000Y-62250500D03*
D14*
X209236000Y-64790500D03*
X209236000Y-67330500D03*
X209236000Y-69870500D03*
%TD*%
%LPD*%
M02*
