%TF.GenerationSoftware,KiCad,Pcbnew,9.0.0*%
%TF.CreationDate,2025-04-02T11:38:25-07:00*%
%TF.ProjectId,RTW_production_pathfinder_V1a,5254575f-7072-46f6-9475-6374696f6e5f,rev?*%
%TF.SameCoordinates,Original*%
%TF.FileFunction,Copper,L2,Bot*%
%TF.FilePolarity,Positive*%
%FSLAX46Y46*%
G04 Gerber Fmt 4.6, Leading zero omitted, Abs format (unit mm)*
G04 Created by KiCad (PCBNEW 9.0.0) date 2025-04-02 11:38:25*
%MOMM*%
%LPD*%
G01*
G04 APERTURE LIST*
%TA.AperFunction,ComponentPad*%
%ADD10R,1.700000X1.700000*%
%TD*%
%TA.AperFunction,ComponentPad*%
%ADD11O,1.700000X1.700000*%
%TD*%
%TA.AperFunction,ComponentPad*%
%ADD12C,3.800000*%
%TD*%
%TA.AperFunction,ViaPad*%
%ADD13C,0.600000*%
%TD*%
%TA.AperFunction,Conductor*%
%ADD14C,0.200000*%
%TD*%
G04 APERTURE END LIST*
D10*
%TO.P,J1,1,Pin_1*%
%TO.N,VBIAS_1*%
X153700000Y-83700000D03*
D11*
%TO.P,J1,2,Pin_2*%
X153700000Y-86240000D03*
%TO.P,J1,3,Pin_3*%
%TO.N,GND*%
X153700000Y-88780000D03*
%TO.P,J1,4,Pin_4*%
X153700000Y-91320000D03*
%TD*%
D12*
%TO.P,H1,1*%
%TO.N,N/C*%
X181000000Y-80000000D03*
%TD*%
%TO.P,H2,1*%
%TO.N,N/C*%
X131000000Y-80000000D03*
%TD*%
D10*
%TO.P,J18,1,Pin_1*%
%TO.N,WDT_WDI_1*%
X147800000Y-83800000D03*
D11*
%TO.P,J18,2,Pin_2*%
X147800000Y-86340000D03*
%TO.P,J18,3,Pin_3*%
%TO.N,GND*%
X147800000Y-88880000D03*
%TO.P,J18,4,Pin_4*%
X147800000Y-91420000D03*
%TD*%
D10*
%TO.P,J15,1,Pin_1*%
%TO.N,~{RESET_1}*%
X177800000Y-84200000D03*
D11*
%TO.P,J15,2,Pin_2*%
X177800000Y-86740000D03*
%TO.P,J15,3,Pin_3*%
%TO.N,GND*%
X177800000Y-89280000D03*
%TO.P,J15,4,Pin_4*%
X177800000Y-91820000D03*
%TD*%
D12*
%TO.P,H4,1*%
%TO.N,N/C*%
X181000000Y-97000000D03*
%TD*%
%TO.P,H3,1*%
%TO.N,N/C*%
X131000000Y-97000000D03*
%TD*%
D13*
%TO.N,GND*%
X164300000Y-82100000D03*
X159300000Y-91100000D03*
X158000000Y-83700000D03*
X156300000Y-87400000D03*
X166000000Y-93500000D03*
X156900000Y-83550000D03*
X156700000Y-85100000D03*
X171400000Y-86200000D03*
X160800000Y-91100000D03*
X162200000Y-91900000D03*
%TO.N,Net-(U1C--)*%
X168374265Y-88474265D03*
X161437500Y-84237500D03*
%TO.N,Net-(U1D--)*%
X167700000Y-91300000D03*
X167424265Y-88575735D03*
%TO.N,Net-(U1D-+)*%
X172600000Y-88100000D03*
X170700000Y-89800000D03*
%TO.N,Net-(U1C-+)*%
X170675000Y-90599612D03*
X171103290Y-87999999D03*
%TO.N,/Watchdog1/WDT-VP*%
X165400000Y-87600000D03*
X165336158Y-89267761D03*
%TO.N,VBIAS_1*%
X165278260Y-86126790D03*
X169234761Y-92622205D03*
X165941855Y-89790384D03*
%TD*%
D14*
%TO.N,Net-(U1C--)*%
X164000000Y-84000000D02*
X161675000Y-84000000D01*
X161675000Y-84000000D02*
X161437500Y-84237500D01*
X168374265Y-88474265D02*
X168374265Y-88374265D01*
X168374265Y-88374265D02*
X164000000Y-84000000D01*
%TO.N,Net-(U1D--)*%
X167424265Y-88575735D02*
X167435204Y-88575735D01*
X167435204Y-88575735D02*
X167975735Y-89116266D01*
X167975735Y-91024265D02*
X167700000Y-91300000D01*
X167975735Y-89116266D02*
X167975735Y-91024265D01*
%TO.N,Net-(U1D-+)*%
X170900000Y-89800000D02*
X170700000Y-89800000D01*
X172600000Y-88100000D02*
X170900000Y-89800000D01*
%TO.N,Net-(U1C-+)*%
X171103290Y-87999999D02*
X170099000Y-89004289D01*
X170099000Y-89004289D02*
X170099000Y-90048943D01*
X170649669Y-90599612D02*
X170675000Y-90599612D01*
X170099000Y-90048943D02*
X170649669Y-90599612D01*
%TO.N,/Watchdog1/WDT-VP*%
X165336158Y-87663842D02*
X165400000Y-87600000D01*
X165400000Y-87600000D02*
X165500000Y-87600000D01*
X165336158Y-89267761D02*
X165336158Y-87663842D01*
%TO.N,VBIAS_1*%
X165941855Y-90541855D02*
X168022205Y-92622205D01*
X168022205Y-92622205D02*
X169234761Y-92622205D01*
X166100000Y-86948530D02*
X165278260Y-86126790D01*
X165941855Y-89790384D02*
X165941855Y-90541855D01*
X165941855Y-89790384D02*
X166100000Y-89632239D01*
X166100000Y-89632239D02*
X166100000Y-86948530D01*
%TD*%
M02*
