M48
; DRILL file {KiCad 9.0.0} date 2025-04-02T11:38:25-0700
; FORMAT={-:-/ absolute / inch / decimal}
; #@! TF.CreationDate,2025-04-02T11:38:25-07:00
; #@! TF.GenerationSoftware,Kicad,Pcbnew,9.0.0
; #@! TF.FileFunction,Plated,1,2,PTH
FMAT,2
INCH
; #@! TA.AperFunction,Plated,PTH,ViaDrill
T1C0.0118
; #@! TA.AperFunction,Plated,PTH,ComponentDrill
T2C0.0394
; #@! TA.AperFunction,Plated,PTH,ComponentDrill
T3C0.0866
%
G90
G05
T1
X6.1535Y-3.4409
X6.1693Y-3.3504
X6.1772Y-3.2894
X6.2205Y-3.2953
X6.2717Y-3.5866
X6.3307Y-3.5866
X6.3558Y-3.3164
X6.3858Y-3.6181
X6.4685Y-3.2323
X6.507Y-3.3908
X6.5093Y-3.5145
X6.5118Y-3.4488
X6.5331Y-3.5351
X6.5354Y-3.6811
X6.5915Y-3.4872
X6.6024Y-3.5945
X6.6289Y-3.4832
X6.6628Y-3.6465
X6.7195Y-3.5669
X6.7205Y-3.5354
X6.7363Y-3.4646
X6.748Y-3.3937
X6.7953Y-3.4685
T2
X5.8189Y-3.2992
X5.8189Y-3.3992
X5.8189Y-3.4992
X5.8189Y-3.5992
X6.0512Y-3.2953
X6.0512Y-3.3953
X6.0512Y-3.4953
X6.0512Y-3.5953
X7.0Y-3.315
X7.0Y-3.415
X7.0Y-3.515
X7.0Y-3.615
T3
X5.1575Y-3.1496
X5.1575Y-3.8189
X7.126Y-3.1496
X7.126Y-3.8189
M30
