%TF.GenerationSoftware,KiCad,Pcbnew,9.0.4*%
%TF.CreationDate,2025-09-18T12:22:58-07:00*%
%TF.ProjectId,periph_ethernet_switch,70657269-7068-45f6-9574-6865726e6574,rev?*%
%TF.SameCoordinates,Original*%
%TF.FileFunction,Soldermask,Top*%
%TF.FilePolarity,Negative*%
%FSLAX46Y46*%
G04 Gerber Fmt 4.6, Leading zero omitted, Abs format (unit mm)*
G04 Created by KiCad (PCBNEW 9.0.4) date 2025-09-18 12:22:58*
%MOMM*%
%LPD*%
G01*
G04 APERTURE LIST*
G04 Aperture macros list*
%AMRoundRect*
0 Rectangle with rounded corners*
0 $1 Rounding radius*
0 $2 $3 $4 $5 $6 $7 $8 $9 X,Y pos of 4 corners*
0 Add a 4 corners polygon primitive as box body*
4,1,4,$2,$3,$4,$5,$6,$7,$8,$9,$2,$3,0*
0 Add four circle primitives for the rounded corners*
1,1,$1+$1,$2,$3*
1,1,$1+$1,$4,$5*
1,1,$1+$1,$6,$7*
1,1,$1+$1,$8,$9*
0 Add four rect primitives between the rounded corners*
20,1,$1+$1,$2,$3,$4,$5,0*
20,1,$1+$1,$4,$5,$6,$7,0*
20,1,$1+$1,$6,$7,$8,$9,0*
20,1,$1+$1,$8,$9,$2,$3,0*%
G04 Aperture macros list end*
%ADD10C,0.000000*%
%ADD11RoundRect,0.218750X-0.381250X0.218750X-0.381250X-0.218750X0.381250X-0.218750X0.381250X0.218750X0*%
%ADD12RoundRect,0.218750X-0.218750X-0.381250X0.218750X-0.381250X0.218750X0.381250X-0.218750X0.381250X0*%
%ADD13RoundRect,0.200000X0.275000X-0.200000X0.275000X0.200000X-0.275000X0.200000X-0.275000X-0.200000X0*%
%ADD14R,1.500000X1.000000*%
%ADD15RoundRect,0.102000X0.762000X0.762000X-0.762000X0.762000X-0.762000X-0.762000X0.762000X-0.762000X0*%
%ADD16C,1.728000*%
%ADD17C,1.918500*%
%ADD18C,2.566200*%
%ADD19RoundRect,0.200000X-0.275000X0.200000X-0.275000X-0.200000X0.275000X-0.200000X0.275000X0.200000X0*%
%ADD20RoundRect,0.225000X0.250000X-0.225000X0.250000X0.225000X-0.250000X0.225000X-0.250000X-0.225000X0*%
%ADD21RoundRect,0.225000X-0.250000X0.225000X-0.250000X-0.225000X0.250000X-0.225000X0.250000X0.225000X0*%
%ADD22RoundRect,0.225000X-0.225000X-0.250000X0.225000X-0.250000X0.225000X0.250000X-0.225000X0.250000X0*%
%ADD23RoundRect,0.200000X-0.200000X-0.275000X0.200000X-0.275000X0.200000X0.275000X-0.200000X0.275000X0*%
%ADD24RoundRect,0.200000X0.200000X0.275000X-0.200000X0.275000X-0.200000X-0.275000X0.200000X-0.275000X0*%
%ADD25R,1.000000X1.000000*%
%ADD26R,1.400000X1.400000*%
%ADD27C,1.400000*%
%ADD28R,1.070000X0.530000*%
%ADD29R,1.700000X1.700000*%
%ADD30C,1.700000*%
%ADD31R,1.000000X1.500000*%
%ADD32RoundRect,0.225000X0.225000X0.250000X-0.225000X0.250000X-0.225000X-0.250000X0.225000X-0.250000X0*%
%ADD33R,1.050000X1.150000*%
%ADD34R,1.200000X1.400000*%
%ADD35C,6.000000*%
%ADD36R,1.000000X3.800000*%
%ADD37R,3.800000X1.000000*%
%ADD38C,0.610000*%
%ADD39R,0.200000X1.520000*%
%ADD40R,1.520000X0.200000*%
%ADD41R,10.500000X10.500000*%
%ADD42R,0.530000X1.070000*%
G04 APERTURE END LIST*
D10*
%TO.C,JP2*%
G36*
X115910001Y-81167498D02*
G01*
X114410001Y-81167498D01*
X114410001Y-80867498D01*
X115910001Y-80867498D01*
X115910001Y-81167498D01*
G37*
%TO.C,JP1*%
G36*
X135650000Y-76715001D02*
G01*
X135350000Y-76715001D01*
X135350000Y-75215001D01*
X135650000Y-75215001D01*
X135650000Y-76715001D01*
G37*
%TD*%
D11*
%TO.C,FB2*%
X113010000Y-84682500D03*
X113010000Y-82557500D03*
%TD*%
D12*
%TO.C,FB1*%
X137247500Y-78140000D03*
X139372500Y-78140000D03*
%TD*%
D13*
%TO.C,R3*%
X167779999Y-129029998D03*
X167779999Y-127379998D03*
%TD*%
%TO.C,R21*%
X174810000Y-74980000D03*
X174810000Y-73330000D03*
%TD*%
D14*
%TO.C,JP2*%
X115160001Y-80367499D03*
X115160001Y-81667497D03*
%TD*%
D13*
%TO.C,R24*%
X184980000Y-92650001D03*
X184980000Y-91000001D03*
%TD*%
D15*
%TO.C,J1*%
X143942453Y-133340348D03*
D16*
X141910453Y-133340348D03*
X139878453Y-133340348D03*
X137846453Y-133340348D03*
X135814453Y-133340348D03*
X133782453Y-133340348D03*
X144958453Y-130800347D03*
X142926453Y-130800347D03*
X140894453Y-130800347D03*
X136830453Y-130800347D03*
X134798453Y-130800347D03*
X132766453Y-130800347D03*
D17*
X144958453Y-128260348D03*
X142418453Y-128260348D03*
X135306453Y-128260348D03*
X132766453Y-128260348D03*
D18*
X146926954Y-151755348D03*
X130797952Y-151755348D03*
%TD*%
D19*
%TO.C,R30*%
X130927499Y-74257500D03*
X130927499Y-75907500D03*
%TD*%
D20*
%TO.C,C41*%
X169300022Y-131927866D03*
X169300022Y-130377866D03*
%TD*%
D21*
%TO.C,C58*%
X124907501Y-71057499D03*
X124907501Y-72607499D03*
%TD*%
D20*
%TO.C,C44*%
X207039997Y-118498095D03*
X207039997Y-116948095D03*
%TD*%
D22*
%TO.C,C20*%
X113627500Y-86355000D03*
X115177500Y-86355000D03*
%TD*%
D23*
%TO.C,R26*%
X144695000Y-102740000D03*
X146345000Y-102740000D03*
%TD*%
D13*
%TO.C,R6*%
X169300022Y-129017866D03*
X169300022Y-127367866D03*
%TD*%
%TO.C,R14*%
X185190000Y-69530000D03*
X185190000Y-67880000D03*
%TD*%
D24*
%TO.C,R34*%
X121507499Y-76769998D03*
X119857499Y-76769998D03*
%TD*%
D13*
%TO.C,R22*%
X174810001Y-80640000D03*
X174810001Y-78990000D03*
%TD*%
D15*
%TO.C,J3*%
X183520024Y-133342867D03*
D16*
X181488024Y-133342867D03*
X179456024Y-133342867D03*
X177424024Y-133342867D03*
X175392024Y-133342867D03*
X173360024Y-133342867D03*
X184536024Y-130802866D03*
X182504024Y-130802866D03*
X180472024Y-130802866D03*
X176408024Y-130802866D03*
X174376024Y-130802866D03*
X172344024Y-130802866D03*
D17*
X184536024Y-128262867D03*
X181996024Y-128262867D03*
X174884024Y-128262867D03*
X172344024Y-128262867D03*
D18*
X186504525Y-151757867D03*
X170375523Y-151757867D03*
%TD*%
D25*
%TO.C,TP5*%
X133455002Y-66195000D03*
%TD*%
D26*
%TO.C,CN1*%
X135450000Y-63570000D03*
D27*
X135450000Y-61570000D03*
X133450000Y-63570000D03*
X133450000Y-61570000D03*
X131450000Y-63570000D03*
X131450000Y-61570000D03*
X129450000Y-63570000D03*
X129450000Y-61570000D03*
X127450000Y-63570000D03*
X127450000Y-61570000D03*
X125450000Y-63570000D03*
X125450000Y-61570000D03*
X123450000Y-63570000D03*
X123450000Y-61570000D03*
X121450000Y-63570000D03*
X121450000Y-61570000D03*
%TD*%
D13*
%TO.C,R15*%
X184950000Y-74960000D03*
X184950000Y-73310000D03*
%TD*%
D28*
%TO.C,U2*%
X127042500Y-71059999D03*
X127042500Y-72009999D03*
X127042500Y-72959999D03*
X129342500Y-72959999D03*
X129342500Y-72009999D03*
X129342500Y-71059999D03*
%TD*%
D20*
%TO.C,C37*%
X149489997Y-131944999D03*
X149489997Y-130394999D03*
%TD*%
D15*
%TO.C,J4*%
X202959999Y-119913096D03*
D16*
X200927999Y-119913096D03*
X198895999Y-119913096D03*
X196863999Y-119913096D03*
X194831999Y-119913096D03*
X192799999Y-119913096D03*
X203975999Y-117373095D03*
X201943999Y-117373095D03*
X199911999Y-117373095D03*
X195847999Y-117373095D03*
X193815999Y-117373095D03*
X191783999Y-117373095D03*
D17*
X203975999Y-114833096D03*
X201435999Y-114833096D03*
X194323999Y-114833096D03*
X191783999Y-114833096D03*
D18*
X205944500Y-138328096D03*
X189815498Y-138328096D03*
%TD*%
D29*
%TO.C,J10*%
X190760000Y-74450000D03*
D30*
X190760000Y-76990000D03*
X190760000Y-79530000D03*
%TD*%
D20*
%TO.C,C45*%
X188739997Y-118498095D03*
X188739997Y-116948095D03*
%TD*%
D13*
%TO.C,R12*%
X175210000Y-64240000D03*
X175210000Y-62590000D03*
%TD*%
D31*
%TO.C,JP1*%
X134850001Y-75965001D03*
X136149999Y-75965001D03*
%TD*%
D29*
%TO.C,J13*%
X156210000Y-64970000D03*
D30*
X158750000Y-64970000D03*
X161289999Y-64970000D03*
X163830000Y-64970000D03*
%TD*%
D32*
%TO.C,C60*%
X119757499Y-70899997D03*
X118207499Y-70899997D03*
%TD*%
D20*
%TO.C,C35*%
X148022451Y-131925347D03*
X148022451Y-130375347D03*
%TD*%
D19*
%TO.C,R29*%
X123437500Y-69412501D03*
X123437500Y-71062501D03*
%TD*%
D20*
%TO.C,C55*%
X147820000Y-100700000D03*
X147820000Y-99150000D03*
%TD*%
%TO.C,C46*%
X188739999Y-121468096D03*
X188739999Y-119918096D03*
%TD*%
D13*
%TO.C,R20*%
X193270000Y-80640000D03*
X193270000Y-78990000D03*
%TD*%
D29*
%TO.C,J6*%
X172700000Y-63700000D03*
D30*
X172700000Y-66240000D03*
X172700000Y-68780000D03*
%TD*%
D25*
%TO.C,TP2*%
X146040001Y-61680000D03*
%TD*%
D21*
%TO.C,C56*%
X142780000Y-98265000D03*
X142780000Y-99815000D03*
%TD*%
D29*
%TO.C,J7*%
X182650000Y-63330000D03*
D30*
X182650000Y-65870000D03*
X182650000Y-68410000D03*
%TD*%
D20*
%TO.C,C38*%
X149489999Y-134915000D03*
X149489999Y-133365000D03*
%TD*%
%TO.C,C59*%
X125527501Y-75957501D03*
X125527501Y-74407501D03*
%TD*%
D24*
%TO.C,R25*%
X147250001Y-66570000D03*
X145600001Y-66570000D03*
%TD*%
D20*
%TO.C,C51*%
X128431763Y-121470188D03*
X128431763Y-119920188D03*
%TD*%
%TO.C,C10*%
X140842500Y-77500000D03*
X140842500Y-75950000D03*
%TD*%
D13*
%TO.C,R16*%
X184940000Y-80630000D03*
X184940000Y-78980000D03*
%TD*%
D33*
%TO.C,SW1*%
X147909998Y-65070000D03*
X147909998Y-61670000D03*
X149410000Y-65070000D03*
X149410000Y-61670000D03*
%TD*%
D34*
%TO.C,X1*%
X146190000Y-100790000D03*
X146190000Y-98590000D03*
X144490000Y-98590000D03*
X144490000Y-100790000D03*
%TD*%
D29*
%TO.C,J12*%
X182470000Y-86450001D03*
D30*
X182470000Y-88990001D03*
X182470000Y-91530000D03*
%TD*%
D25*
%TO.C,TP6*%
X131455000Y-66194999D03*
%TD*%
D22*
%TO.C,C54*%
X148605000Y-66570000D03*
X150155000Y-66570000D03*
%TD*%
D13*
%TO.C,R5*%
X187590024Y-129012865D03*
X187590024Y-127362865D03*
%TD*%
D20*
%TO.C,C48*%
X128451763Y-118500190D03*
X128451763Y-116950190D03*
%TD*%
D13*
%TO.C,R4*%
X149489997Y-129034999D03*
X149489997Y-127384999D03*
%TD*%
D15*
%TO.C,J2*%
X163709999Y-133360000D03*
D16*
X161677999Y-133360000D03*
X159645999Y-133360000D03*
X157613999Y-133360000D03*
X155581999Y-133360000D03*
X153549999Y-133360000D03*
X164725999Y-130819999D03*
X162693999Y-130819999D03*
X160661999Y-130819999D03*
X156597999Y-130819999D03*
X154565999Y-130819999D03*
X152533999Y-130819999D03*
D17*
X164725999Y-128280000D03*
X162185999Y-128280000D03*
X155073999Y-128280000D03*
X152533999Y-128280000D03*
D18*
X166694500Y-151775000D03*
X150565498Y-151775000D03*
%TD*%
D15*
%TO.C,J5*%
X124371765Y-119915191D03*
D16*
X122339765Y-119915191D03*
X120307765Y-119915191D03*
X118275765Y-119915191D03*
X116243765Y-119915191D03*
X114211765Y-119915191D03*
X125387765Y-117375190D03*
X123355765Y-117375190D03*
X121323765Y-117375190D03*
X117259765Y-117375190D03*
X115227765Y-117375190D03*
X113195765Y-117375190D03*
D17*
X125387765Y-114835191D03*
X122847765Y-114835191D03*
X115735765Y-114835191D03*
X113195765Y-114835191D03*
D18*
X127356266Y-138330191D03*
X111227264Y-138330191D03*
%TD*%
D13*
%TO.C,R23*%
X184970000Y-86985001D03*
X184970000Y-85335001D03*
%TD*%
D22*
%TO.C,C61*%
X114922500Y-71449997D03*
X116472500Y-71449997D03*
%TD*%
D13*
%TO.C,R17*%
X193040000Y-63925000D03*
X193040000Y-62275000D03*
%TD*%
D20*
%TO.C,C50*%
X110151765Y-121470191D03*
X110151765Y-119920191D03*
%TD*%
%TO.C,C39*%
X167769997Y-134914997D03*
X167769997Y-133364997D03*
%TD*%
%TO.C,C36*%
X167789997Y-131944999D03*
X167789997Y-130394999D03*
%TD*%
%TO.C,C34*%
X148002451Y-134895345D03*
X148002451Y-133345345D03*
%TD*%
D13*
%TO.C,R10*%
X110151763Y-115590190D03*
X110151763Y-113940190D03*
%TD*%
D35*
%TO.C,H1*%
X205920000Y-67400000D03*
%TD*%
D25*
%TO.C,TP9*%
X125455002Y-66194997D03*
%TD*%
D13*
%TO.C,R8*%
X188739997Y-115588095D03*
X188739997Y-113938095D03*
%TD*%
%TO.C,R18*%
X193040000Y-69595000D03*
X193040000Y-67945000D03*
%TD*%
D19*
%TO.C,R31*%
X130857499Y-69432500D03*
X130857499Y-71082500D03*
%TD*%
D25*
%TO.C,TP1*%
X154330000Y-78210000D03*
%TD*%
D13*
%TO.C,R1*%
X148012453Y-129010346D03*
X148012453Y-127360346D03*
%TD*%
%TO.C,R2*%
X129722451Y-129015347D03*
X129722451Y-127365347D03*
%TD*%
D36*
%TO.C,U4*%
X113120000Y-74300000D03*
X110720000Y-74300000D03*
%TD*%
D29*
%TO.C,J14*%
X136119999Y-71635000D03*
D30*
X136119999Y-69095000D03*
%TD*%
D20*
%TO.C,C32*%
X129722451Y-131925347D03*
X129722451Y-130375347D03*
%TD*%
D37*
%TO.C,U5*%
X128420000Y-77880000D03*
X128420000Y-80280000D03*
%TD*%
D20*
%TO.C,C33*%
X129722453Y-134895348D03*
X129722453Y-133345348D03*
%TD*%
%TO.C,C43*%
X187580022Y-134897864D03*
X187580022Y-133347864D03*
%TD*%
D25*
%TO.C,TP8*%
X127455000Y-66194999D03*
%TD*%
D20*
%TO.C,C42*%
X169300024Y-134897867D03*
X169300024Y-133347867D03*
%TD*%
D13*
%TO.C,R9*%
X128441765Y-115585189D03*
X128441765Y-113935189D03*
%TD*%
D25*
%TO.C,TP4*%
X135455000Y-66194999D03*
%TD*%
D21*
%TO.C,C28*%
X115142500Y-83365000D03*
X115142500Y-84915000D03*
%TD*%
D25*
%TO.C,TP7*%
X129455000Y-66194998D03*
%TD*%
D29*
%TO.C,J8*%
X182440000Y-74430000D03*
D30*
X182440000Y-76970000D03*
X182440000Y-79510000D03*
%TD*%
D13*
%TO.C,R19*%
X193270000Y-74990000D03*
X193270000Y-73340000D03*
%TD*%
D25*
%TO.C,TP3*%
X151290000Y-61690000D03*
%TD*%
D35*
%TO.C,H4*%
X205920000Y-152610000D03*
%TD*%
%TO.C,H3*%
X112070000Y-152620000D03*
%TD*%
D38*
%TO.C,U1*%
X154819999Y-90982096D03*
X154819999Y-92182096D03*
X154819999Y-93382096D03*
X154819999Y-94582096D03*
X154819999Y-95782096D03*
X154819999Y-96982096D03*
X154819999Y-98182096D03*
X154819999Y-99382096D03*
X156019999Y-90982096D03*
X156019999Y-92182096D03*
X156019999Y-93382096D03*
X156019999Y-94582096D03*
X156019999Y-95782096D03*
X156019999Y-96982096D03*
X156019999Y-98182096D03*
X156019999Y-99382096D03*
X157219999Y-90982096D03*
X157219999Y-92182096D03*
X157219999Y-93382096D03*
X157219999Y-94582096D03*
X157219999Y-95782096D03*
X157219999Y-96982096D03*
X157219999Y-98182096D03*
X157219999Y-99382096D03*
X158419999Y-90982096D03*
X158419999Y-92182096D03*
X158419999Y-93382096D03*
X158419999Y-94582096D03*
X158419999Y-95782096D03*
X158419999Y-96982096D03*
X158419999Y-98182096D03*
X158419999Y-99382096D03*
X159619999Y-90982096D03*
X159619999Y-92182096D03*
X159619999Y-93382096D03*
X159619999Y-94582096D03*
X159619999Y-95782096D03*
X159619999Y-96982096D03*
X159619999Y-98182096D03*
X159619999Y-99382096D03*
X160819999Y-90982096D03*
X160819999Y-92182096D03*
X160819999Y-93382096D03*
X160819999Y-94582096D03*
X160819999Y-95782096D03*
X160819999Y-96982096D03*
X160819999Y-98182096D03*
X160819999Y-99382096D03*
X162019999Y-90982096D03*
X162019999Y-92182096D03*
X162019999Y-93382096D03*
X162019999Y-94582096D03*
X162019999Y-95782096D03*
X162019999Y-96982096D03*
X162019999Y-98182096D03*
X162019999Y-99382096D03*
X163219999Y-90982096D03*
X163219999Y-92182096D03*
X163219999Y-93382096D03*
X163219999Y-94582096D03*
X163219999Y-95782096D03*
X163219999Y-96982096D03*
X163219999Y-98182096D03*
X163219999Y-99382096D03*
D39*
X152819999Y-102842096D03*
X153219999Y-102842096D03*
X153619999Y-102842096D03*
X154019999Y-102842096D03*
X154419999Y-102842096D03*
X154819999Y-102842096D03*
X155219999Y-102842096D03*
X155619999Y-102842096D03*
X156019999Y-102842096D03*
X156419999Y-102842096D03*
X156819999Y-102842096D03*
X157219999Y-102842096D03*
X157619999Y-102842096D03*
X158019999Y-102842096D03*
X158419999Y-102842096D03*
X158819999Y-102842096D03*
X159219999Y-102842096D03*
X159619999Y-102842096D03*
X160019999Y-102842096D03*
X160419999Y-102842096D03*
X160819999Y-102842096D03*
X161219999Y-102842096D03*
X161619999Y-102842096D03*
X162019999Y-102842096D03*
X162419999Y-102842096D03*
X162819999Y-102842096D03*
X163219999Y-102842096D03*
X163619999Y-102842096D03*
X164019999Y-102842096D03*
X164419999Y-102842096D03*
X164819999Y-102842096D03*
X165219999Y-102842096D03*
D40*
X166679999Y-101382096D03*
X166679999Y-100982096D03*
X166679999Y-100582096D03*
X166679999Y-100182096D03*
X166679999Y-99782096D03*
X166679999Y-99382096D03*
X166679999Y-98982096D03*
X166679999Y-98582096D03*
X166679999Y-98182096D03*
X166679999Y-97782096D03*
X166679999Y-97382096D03*
X166679999Y-96982096D03*
X166679999Y-96582096D03*
X166679999Y-96182096D03*
X166679999Y-95782096D03*
X166679999Y-95382096D03*
X166679999Y-94982096D03*
X166679999Y-94582096D03*
X166679999Y-94182096D03*
X166679999Y-93782096D03*
X166679999Y-93382096D03*
X166679999Y-92982096D03*
X166679999Y-92582096D03*
X166679999Y-92182096D03*
X166679999Y-91782096D03*
X166679999Y-91382096D03*
X166679999Y-90982096D03*
X166679999Y-90582096D03*
X166679999Y-90182096D03*
X166679999Y-89782096D03*
X166679999Y-89382096D03*
X166679999Y-88982096D03*
D39*
X165219999Y-87522096D03*
X164819999Y-87522096D03*
X164419999Y-87522096D03*
X164019999Y-87522096D03*
X163619999Y-87522096D03*
X163219999Y-87522096D03*
X162819999Y-87522096D03*
X162419999Y-87522096D03*
X162019999Y-87522096D03*
X161619999Y-87522096D03*
X161219999Y-87522096D03*
X160819999Y-87522096D03*
X160419999Y-87522096D03*
X160019999Y-87522096D03*
X159619999Y-87522096D03*
X159219999Y-87522096D03*
X158819999Y-87522096D03*
X158419999Y-87522096D03*
X158019999Y-87522096D03*
X157619999Y-87522096D03*
X157219999Y-87522096D03*
X156819999Y-87522096D03*
X156419999Y-87522096D03*
X156019999Y-87522096D03*
X155619999Y-87522096D03*
X155219999Y-87522096D03*
X154819999Y-87522096D03*
X154419999Y-87522096D03*
X154019999Y-87522096D03*
X153619999Y-87522096D03*
X153219999Y-87522096D03*
X152819999Y-87522096D03*
D40*
X151359999Y-88982096D03*
X151359999Y-89382096D03*
X151359999Y-89782096D03*
X151359999Y-90182096D03*
X151359999Y-90582096D03*
X151359999Y-90982096D03*
X151359999Y-91382096D03*
X151359999Y-91782096D03*
X151359999Y-92182096D03*
X151359999Y-92582096D03*
X151359999Y-92982096D03*
X151359999Y-93382096D03*
X151359999Y-93782096D03*
X151359999Y-94182096D03*
X151359999Y-94582096D03*
X151359999Y-94982096D03*
X151359999Y-95382096D03*
X151359999Y-95782096D03*
X151359999Y-96182096D03*
X151359999Y-96582096D03*
X151359999Y-96982096D03*
X151359999Y-97382096D03*
X151359999Y-97782096D03*
X151359999Y-98182096D03*
X151359999Y-98582096D03*
X151359999Y-98982096D03*
X151359999Y-99382096D03*
X151359999Y-99782096D03*
X151359999Y-100182096D03*
X151359999Y-100582096D03*
X151359999Y-100982096D03*
X151359999Y-101382096D03*
D41*
X159019999Y-95182096D03*
%TD*%
D29*
%TO.C,J11*%
X172300000Y-74440001D03*
D30*
X172300000Y-76980001D03*
X172300000Y-79520000D03*
%TD*%
D13*
%TO.C,R13*%
X185150000Y-63860000D03*
X185150000Y-62210000D03*
%TD*%
D24*
%TO.C,R33*%
X116757501Y-76769998D03*
X115107501Y-76769998D03*
%TD*%
D22*
%TO.C,C1*%
X137852500Y-75965000D03*
X139402500Y-75965000D03*
%TD*%
D13*
%TO.C,R7*%
X207029999Y-115583094D03*
X207029999Y-113933094D03*
%TD*%
D20*
%TO.C,C47*%
X207019997Y-121468093D03*
X207019997Y-119918093D03*
%TD*%
%TO.C,C40*%
X187600022Y-131927866D03*
X187600022Y-130377866D03*
%TD*%
%TO.C,C62*%
X132397501Y-75857499D03*
X132397501Y-74307499D03*
%TD*%
%TO.C,C49*%
X110151763Y-118500190D03*
X110151763Y-116950190D03*
%TD*%
D42*
%TO.C,U3*%
X119820001Y-72957498D03*
X118870001Y-72957498D03*
X117920001Y-72957498D03*
X117920001Y-75257498D03*
X118870001Y-75257498D03*
X119820001Y-75257498D03*
%TD*%
D29*
%TO.C,J15*%
X119469999Y-81637499D03*
D30*
X122009999Y-81637499D03*
%TD*%
D29*
%TO.C,J9*%
X190520000Y-63390000D03*
D30*
X190520000Y-65930000D03*
X190520000Y-68470000D03*
%TD*%
D22*
%TO.C,C63*%
X115157501Y-78239998D03*
X116707501Y-78239998D03*
%TD*%
D24*
%TO.C,R32*%
X121402500Y-69429998D03*
X119752500Y-69429998D03*
%TD*%
D13*
%TO.C,R11*%
X175210000Y-69900000D03*
X175210000Y-68250000D03*
%TD*%
D35*
%TO.C,H2*%
X112060000Y-67390000D03*
%TD*%
M02*
