M48
; DRILL file {KiCad 9.0.3} date 2026-03-10T10:06:39-0700
; FORMAT={-:-/ absolute / inch / decimal}
; #@! TF.CreationDate,2026-03-10T10:06:39-07:00
; #@! TF.GenerationSoftware,Kicad,Pcbnew,9.0.3
; #@! TF.FileFunction,Plated,1,6,PTH
FMAT,2
INCH
; #@! TA.AperFunction,Plated,PTH,ViaDrill
T1C0.0098
; #@! TA.AperFunction,Plated,PTH,ViaDrill
T2C0.0118
; #@! TA.AperFunction,Plated,PTH,ComponentDrill
T3C0.0118
; #@! TA.AperFunction,Plated,PTH,ComponentDrill
T4C0.0315
; #@! TA.AperFunction,Plated,PTH,ComponentDrill
T5C0.0315
; #@! TA.AperFunction,Plated,PTH,ComponentDrill
T6C0.0394
; #@! TA.AperFunction,Plated,PTH,ComponentDrill
T7C0.0400
; #@! TA.AperFunction,Plated,PTH,ComponentDrill
T8C0.0450
; #@! TA.AperFunction,Plated,PTH,ComponentDrill
T9C0.0547
; #@! TA.AperFunction,Plated,PTH,ComponentDrill
T10C0.0620
; #@! TA.AperFunction,Plated,PTH,ComponentDrill
T11C0.1181
%
G90
G05
T1
X5.9587Y-3.9197
X5.9768Y-3.9378
X6.0358Y-3.9228
X6.0539Y-3.9409
X6.6788Y-4.7252
X6.6788Y-4.7508
X6.8501Y-4.6875
X6.8501Y-4.7131
X7.5232Y-4.2476
X7.5413Y-4.2295
X7.618Y-4.2126
X7.6361Y-4.1945
T2
X3.9921Y-4.1571
X4.0075Y-4.4857
X4.0846Y-2.9213
X4.0886Y-3.002
X4.2638Y-3.0482
X4.3362Y-3.8849
X4.3372Y-3.9804
X4.3382Y-3.4824
X4.3382Y-3.5828
X4.3382Y-3.6871
X4.3411Y-3.7865
X4.3505Y-2.5759
X4.3963Y-3.8367
X4.4435Y-3.7383
X4.4436Y-4.1517
X4.4659Y-4.1294
X4.4807Y-2.5275
X4.5139Y-2.7452
X4.5173Y-3.6389
X4.5774Y-3.4361
X4.6049Y-3.5375
X4.6165Y-2.5322
X4.6719Y-2.6551
X4.7858Y-4.5893
X4.8283Y-4.4267
X4.8378Y-5.1196
X4.8412Y-2.4961
X4.8795Y-4.222
X4.95Y-4.3378
X4.9535Y-4.5827
X4.9815Y-4.3378
X5.0659Y-2.627
X5.1447Y-2.6535
X5.1747Y-4.681
X5.197Y-4.7033
X5.2205Y-3.248
X5.2693Y-3.7894
X5.4656Y-3.2864
X5.4953Y-3.8193
X5.5152Y-4.5483
X5.522Y-2.5039
X5.5291Y-3.2885
X5.5375Y-4.5706
X5.578Y-3.863
X5.5783Y-3.3889
X5.5846Y-5.1145
X5.5931Y-3.4647
X5.652Y-4.9574
X5.6724Y-4.6354
X5.7468Y-3.7534
X5.7504Y-3.6401
X5.7539Y-3.2751
X5.7539Y-3.5979
X5.7547Y-3.3649
X5.7547Y-3.7011
X5.7547Y-3.4909
X5.7579Y-3.4439
X5.7598Y-3.5394
X5.778Y-3.7416
X5.7958Y-3.6655
X5.8748Y-3.7448
X5.8819Y-3.1388
X5.9102Y-3.7468
X5.9125Y-3.0631
X5.9398Y-3.2716
X5.9425Y-2.9253
X5.9504Y-3.7479
X5.9669Y-2.9773
X5.9937Y-2.9942
X6.0065Y-2.9529
X6.0114Y-3.1182
X6.0299Y-3.744
X6.0634Y-3.7452
X6.0933Y-3.2696
X6.1028Y-3.7444
X6.1614Y-3.2763
X6.1677Y-4.5823
X6.1772Y-2.3248
X6.2028Y-3.7456
X6.2229Y-3.574
X6.2236Y-3.4968
X6.2236Y-3.5282
X6.2244Y-3.707
X6.2252Y-3.3668
X6.2256Y-3.6054
X6.2264Y-3.4109
X6.2287Y-3.6428
X6.2329Y-3.7547
X6.3504Y-4.7697
X6.3642Y-5.107
X6.4169Y-3.5001
X6.4425Y-4.9582
X6.4594Y-2.5011
X6.5066Y-2.1712
X6.5197Y-2.3378
X6.5311Y-2.6251
X6.6664Y-2.3924
X6.7145Y-2.4983
X6.8988Y-4.4728
X7.0583Y-4.2181
X7.1614Y-4.5924
X7.185Y-2.6516
X7.1858Y-5.0105
X7.247Y-2.2687
X7.4139Y-2.4237
X7.4596Y-2.2736
X7.5197Y-2.5266
X7.8736Y-4.1098
X7.8807Y-4.6027
T3
X5.8252Y-3.3449
X5.8252Y-3.3921
X5.8252Y-3.4394
X5.8252Y-3.4866
X5.8252Y-3.5338
X5.8252Y-3.5811
X5.8252Y-3.6283
X5.8252Y-3.6756
X5.8724Y-3.3449
X5.8724Y-3.3921
X5.8724Y-3.4394
X5.8724Y-3.4866
X5.8724Y-3.5338
X5.8724Y-3.5811
X5.8724Y-3.6283
X5.8724Y-3.6756
X5.9197Y-3.3449
X5.9197Y-3.3921
X5.9197Y-3.4394
X5.9197Y-3.4866
X5.9197Y-3.5338
X5.9197Y-3.5811
X5.9197Y-3.6283
X5.9197Y-3.6756
X5.9669Y-3.3449
X5.9669Y-3.3921
X5.9669Y-3.4394
X5.9669Y-3.4866
X5.9669Y-3.5338
X5.9669Y-3.5811
X5.9669Y-3.6283
X5.9669Y-3.6756
X6.0142Y-3.3449
X6.0142Y-3.3921
X6.0142Y-3.4394
X6.0142Y-3.4866
X6.0142Y-3.5338
X6.0142Y-3.5811
X6.0142Y-3.6283
X6.0142Y-3.6756
X6.0614Y-3.3449
X6.0614Y-3.3921
X6.0614Y-3.4394
X6.0614Y-3.4866
X6.0614Y-3.5338
X6.0614Y-3.5811
X6.0614Y-3.6283
X6.0614Y-3.6756
X6.1087Y-3.3449
X6.1087Y-3.3921
X6.1087Y-3.4394
X6.1087Y-3.4866
X6.1087Y-3.5338
X6.1087Y-3.5811
X6.1087Y-3.6283
X6.1087Y-3.6756
X6.1559Y-3.3449
X6.1559Y-3.3921
X6.1559Y-3.4394
X6.1559Y-3.4866
X6.1559Y-3.5338
X6.1559Y-3.5811
X6.1559Y-3.6283
X6.1559Y-3.6756
T4
X4.5114Y-2.1869
X4.5114Y-2.2657
X4.5902Y-2.1869
X4.5902Y-2.2657
X4.6689Y-2.1869
X4.6689Y-2.2657
X4.7476Y-2.1869
X4.7476Y-2.2657
X4.8264Y-2.1869
X4.8264Y-2.2657
X4.9051Y-2.1869
X4.9051Y-2.2657
X4.9839Y-2.1869
X4.9839Y-2.2657
X5.0626Y-2.1869
X5.0626Y-2.2657
T5
X3.8986Y-3.3384
X3.8986Y-3.4384
X3.8986Y-3.5384
X3.8986Y-3.6384
X3.8986Y-3.7384
X3.8986Y-3.8384
X3.8986Y-3.9384
X4.1986Y-3.3384
X4.1986Y-3.4384
X4.1986Y-3.5384
X4.1986Y-3.6384
X4.1986Y-3.7384
X4.1986Y-3.8384
X4.1986Y-3.9384
T6
X5.964Y-2.2235
X6.064Y-2.2235
X6.164Y-2.2235
X6.264Y-2.2235
T7
X4.1864Y-4.384
X4.2264Y-4.484
X4.2664Y-4.384
X4.3064Y-4.484
X4.3464Y-4.384
X4.3864Y-4.484
X4.4664Y-4.484
X4.5064Y-4.384
X4.5464Y-4.484
X4.5864Y-4.384
X4.6264Y-4.484
X4.6664Y-4.384
X4.9569Y-4.9125
X4.9969Y-5.0125
X5.0369Y-4.9125
X5.0769Y-5.0125
X5.1169Y-4.9125
X5.1569Y-5.0125
X5.2369Y-5.0125
X5.2769Y-4.9125
X5.3169Y-5.0125
X5.3569Y-4.9125
X5.3969Y-5.0125
X5.4369Y-4.9125
X5.7352Y-4.9133
X5.7752Y-5.0133
X5.8152Y-4.9133
X5.8552Y-5.0133
X5.8952Y-4.9133
X5.9352Y-5.0133
X6.0152Y-5.0133
X6.0552Y-4.9133
X6.0952Y-5.0133
X6.1352Y-4.9133
X6.1752Y-5.0133
X6.2152Y-4.9133
X6.5151Y-4.9126
X6.5551Y-5.0126
X6.5951Y-4.9126
X6.6351Y-5.0126
X6.6751Y-4.9126
X6.7151Y-5.0126
X6.7951Y-5.0126
X6.8351Y-4.9126
X6.8751Y-5.0126
X6.9151Y-4.9126
X6.9551Y-5.0126
X6.9951Y-4.9126
X7.2805Y-4.3839
X7.3205Y-4.4839
X7.3605Y-4.3839
X7.4005Y-4.4839
X7.4405Y-4.3839
X7.4805Y-4.4839
X7.5605Y-4.4839
X7.6005Y-4.3839
X7.6405Y-4.4839
X7.6805Y-4.3839
X7.7205Y-4.4839
X7.7605Y-4.3839
T8
X4.1864Y-4.284
X4.2864Y-4.284
X4.5664Y-4.284
X4.6664Y-4.284
X4.9569Y-4.8125
X5.0569Y-4.8125
X5.3369Y-4.8125
X5.4369Y-4.8125
X5.7352Y-4.8133
X5.8352Y-4.8133
X6.1152Y-4.8133
X6.2152Y-4.8133
X6.5151Y-4.8126
X6.6151Y-4.8126
X6.8951Y-4.8126
X6.9951Y-4.8126
X7.2805Y-4.2839
X7.3805Y-4.2839
X7.6605Y-4.2839
X7.7605Y-4.2839
T9
X5.2648Y-2.1988
X5.2785Y-2.3898
X6.0846Y-2.5906
X6.2094Y-2.6835
X6.3484Y-2.8244
T10
X4.1089Y-5.209
X4.7439Y-5.209
X4.8794Y-5.7375
X5.5144Y-5.7375
X5.6577Y-5.7383
X6.2927Y-5.7383
X6.4376Y-5.7376
X7.0726Y-5.7376
X7.203Y-5.2089
X7.838Y-5.2089
T11
X4.1417Y-2.416
X4.1421Y-5.7716
X7.837Y-2.4164
X7.837Y-5.7712
M30
