M48
; DRILL file {KiCad 9.0.4} date 2025-09-18T12:22:58-0700
; FORMAT={-:-/ absolute / inch / decimal}
; #@! TF.CreationDate,2025-09-18T12:22:58-07:00
; #@! TF.GenerationSoftware,Kicad,Pcbnew,9.0.4
; #@! TF.FileFunction,Plated,1,4,PTH
FMAT,2
INCH
; #@! TA.AperFunction,Plated,PTH,ViaDrill
T1C0.0098
; #@! TA.AperFunction,Plated,PTH,ViaDrill
T2C0.0118
; #@! TA.AperFunction,Plated,PTH,ComponentDrill
T3C0.0118
; #@! TA.AperFunction,Plated,PTH,ComponentDrill
T4C0.0315
; #@! TA.AperFunction,Plated,PTH,ComponentDrill
T5C0.0394
; #@! TA.AperFunction,Plated,PTH,ComponentDrill
T6C0.0400
; #@! TA.AperFunction,Plated,PTH,ComponentDrill
T7C0.0450
; #@! TA.AperFunction,Plated,PTH,ComponentDrill
T8C0.0620
; #@! TA.AperFunction,Plated,PTH,ComponentDrill
T9C0.1181
%
G90
G05
T1
X5.792Y-4.79
X5.8081Y-4.8061
X5.8646Y-3.862
X5.8646Y-3.8847
X6.0554Y-4.405
X6.0714Y-4.421
X6.2233Y-4.2046
X6.2394Y-4.2206
X6.3123Y-4.1654
X6.335Y-4.1654
X6.4855Y-4.1622
X6.5082Y-4.1622
X7.7865Y-4.4765
X7.8025Y-4.4605
T2
X4.2776Y-4.7228
X4.3366Y-4.4378
X4.4736Y-3.4598
X4.6206Y-2.813
X4.732Y-4.3413
X4.732Y-4.3699
X4.7508Y-2.7646
X4.784Y-2.9823
X4.8866Y-2.7693
X4.942Y-2.8922
X4.9749Y-4.7161
X4.9952Y-4.6958
X5.0559Y-4.4441
X5.0559Y-4.8264
X5.0602Y-5.0138
X5.0984Y-4.6638
X5.1079Y-5.3567
X5.1113Y-2.7332
X5.2717Y-3.6673
X5.5457Y-3.1173
X5.6425Y-3.9846
X5.7319Y-2.5866
X5.7446Y-5.2566
X5.7648Y-5.2363
X5.8094Y-3.8681
X5.8232Y-2.6539
X5.8232Y-3.6047
X5.8484Y-3.626
X5.8547Y-5.3516
X5.8563Y-3.6657
X5.8617Y-3.7063
X5.8819Y-2.5205
X5.8941Y-4.9748
X5.8969Y-2.8768
X5.922Y-5.1945
X6.0169Y-3.9906
X6.0205Y-3.8772
X6.024Y-3.5122
X6.024Y-3.835
X6.0248Y-3.5662
X6.0248Y-3.602
X6.0248Y-3.9382
X6.0249Y-3.7454
X6.0262Y-3.7139
X6.0299Y-3.7765
X6.048Y-3.9787
X6.0492Y-3.1457
X6.074Y-3.4957
X6.0909Y-3.3213
X6.103Y-3.5079
X6.1097Y-3.296
X6.1283Y-3.228
X6.1449Y-3.9819
X6.163Y-3.3248
X6.1803Y-3.9839
X6.1826Y-3.3002
X6.2098Y-3.5087
X6.2201Y-3.3335
X6.2205Y-3.985
X6.2559Y-3.3469
X6.3Y-3.9811
X6.3335Y-3.9823
X6.3634Y-3.5067
X6.3728Y-3.9815
X6.4248Y-3.9588
X6.4315Y-3.5134
X6.4728Y-3.9827
X6.493Y-3.8111
X6.4937Y-3.7339
X6.4937Y-3.7654
X6.4945Y-3.9441
X6.4953Y-3.6039
X6.4957Y-3.8425
X6.4965Y-3.648
X6.4988Y-3.8799
X6.503Y-3.9918
X6.5139Y-5.2519
X6.5341Y-5.2316
X6.6343Y-5.3441
X6.6362Y-4.9776
X6.6906Y-3.8275
X6.6906Y-3.8561
X6.7126Y-5.1953
X7.032Y-5.0471
X7.0522Y-5.0269
X7.2815Y-3.6909
X7.2831Y-2.8398
X7.2839Y-3.3209
X7.289Y-2.4079
X7.2902Y-2.7787
X7.3002Y-3.2321
X7.3104Y-5.2499
X7.3306Y-5.2296
X7.4268Y-5.0118
X7.4276Y-4.4291
X7.4315Y-4.8295
X7.4559Y-5.2476
X8.1508Y-4.8398
X8.1512Y-4.4398
T3
X6.0953Y-3.582
X6.0953Y-3.6292
X6.0953Y-3.6765
X6.0953Y-3.7237
X6.0953Y-3.7709
X6.0953Y-3.8182
X6.0953Y-3.8654
X6.0953Y-3.9127
X6.1425Y-3.582
X6.1425Y-3.6292
X6.1425Y-3.6765
X6.1425Y-3.7237
X6.1425Y-3.7709
X6.1425Y-3.8182
X6.1425Y-3.8654
X6.1425Y-3.9127
X6.1898Y-3.582
X6.1898Y-3.6292
X6.1898Y-3.6765
X6.1898Y-3.7237
X6.1898Y-3.7709
X6.1898Y-3.8182
X6.1898Y-3.8654
X6.1898Y-3.9127
X6.237Y-3.582
X6.237Y-3.6292
X6.237Y-3.6765
X6.237Y-3.7237
X6.237Y-3.7709
X6.237Y-3.8182
X6.237Y-3.8654
X6.237Y-3.9127
X6.2843Y-3.582
X6.2843Y-3.6292
X6.2843Y-3.6765
X6.2843Y-3.7237
X6.2843Y-3.7709
X6.2843Y-3.8182
X6.2843Y-3.8654
X6.2843Y-3.9127
X6.3315Y-3.582
X6.3315Y-3.6292
X6.3315Y-3.6765
X6.3315Y-3.7237
X6.3315Y-3.7709
X6.3315Y-3.8182
X6.3315Y-3.8654
X6.3315Y-3.9127
X6.3787Y-3.582
X6.3787Y-3.6292
X6.3787Y-3.6765
X6.3787Y-3.7237
X6.3787Y-3.7709
X6.3787Y-3.8182
X6.3787Y-3.8654
X6.3787Y-3.9127
X6.426Y-3.582
X6.426Y-3.6292
X6.426Y-3.6765
X6.426Y-3.7237
X6.426Y-3.7709
X6.426Y-3.8182
X6.426Y-3.8654
X6.426Y-3.9127
T4
X4.7815Y-2.424
X4.7815Y-2.5028
X4.8602Y-2.424
X4.8602Y-2.5028
X4.939Y-2.424
X4.939Y-2.5028
X5.0177Y-2.424
X5.0177Y-2.5028
X5.0965Y-2.424
X5.0965Y-2.5028
X5.1752Y-2.424
X5.1752Y-2.5028
X5.2539Y-2.424
X5.2539Y-2.5028
X5.3327Y-2.424
X5.3327Y-2.5028
T5
X4.7035Y-3.2141
X4.8035Y-3.2141
X5.3591Y-2.7203
X5.3591Y-2.8203
X6.15Y-2.5579
X6.25Y-2.5579
X6.35Y-2.5579
X6.45Y-2.5579
X6.7835Y-2.9307
X6.7835Y-3.0307
X6.7835Y-3.1307
X6.7992Y-2.5079
X6.7992Y-2.6079
X6.7992Y-2.7079
X7.1827Y-2.9303
X7.1827Y-3.0303
X7.1827Y-3.1303
X7.1839Y-3.4035
X7.1839Y-3.5035
X7.1839Y-3.6035
X7.1909Y-2.4933
X7.1909Y-2.5933
X7.1909Y-2.6933
X7.5008Y-2.4957
X7.5008Y-2.5957
X7.5008Y-2.6957
X7.5102Y-2.9311
X7.5102Y-3.0311
X7.5102Y-3.1311
T6
X4.4565Y-4.6211
X4.4965Y-4.7211
X4.5365Y-4.6211
X4.5765Y-4.7211
X4.6165Y-4.6211
X4.6565Y-4.7211
X4.7365Y-4.7211
X4.7765Y-4.6211
X4.8165Y-4.7211
X4.8565Y-4.6211
X4.8965Y-4.7211
X4.9365Y-4.6211
X5.227Y-5.1496
X5.267Y-5.2496
X5.307Y-5.1496
X5.347Y-5.2496
X5.387Y-5.1496
X5.427Y-5.2496
X5.507Y-5.2496
X5.547Y-5.1496
X5.587Y-5.2496
X5.627Y-5.1496
X5.667Y-5.2496
X5.707Y-5.1496
X6.0053Y-5.1504
X6.0453Y-5.2504
X6.0853Y-5.1504
X6.1253Y-5.2504
X6.1653Y-5.1504
X6.2053Y-5.2504
X6.2853Y-5.2504
X6.3253Y-5.1504
X6.3653Y-5.2504
X6.4053Y-5.1504
X6.4453Y-5.2504
X6.4853Y-5.1504
X6.7852Y-5.1497
X6.8252Y-5.2497
X6.8652Y-5.1497
X6.9052Y-5.2497
X6.9452Y-5.1497
X6.9852Y-5.2497
X7.0652Y-5.2497
X7.1052Y-5.1497
X7.1452Y-5.2497
X7.1852Y-5.1497
X7.2252Y-5.2497
X7.2652Y-5.1497
X7.5506Y-4.621
X7.5906Y-4.721
X7.6306Y-4.621
X7.6706Y-4.721
X7.7106Y-4.621
X7.7506Y-4.721
X7.8306Y-4.721
X7.8706Y-4.621
X7.9106Y-4.721
X7.9506Y-4.621
X7.9906Y-4.721
X8.0306Y-4.621
T7
X4.4565Y-4.5211
X4.5565Y-4.5211
X4.8365Y-4.5211
X4.9365Y-4.5211
X5.227Y-5.0496
X5.327Y-5.0496
X5.607Y-5.0496
X5.707Y-5.0496
X6.0053Y-5.0504
X6.1053Y-5.0504
X6.3853Y-5.0504
X6.4853Y-5.0504
X6.7852Y-5.0497
X6.8852Y-5.0497
X7.1652Y-5.0497
X7.2652Y-5.0497
X7.5506Y-4.521
X7.6506Y-4.521
X7.9306Y-4.521
X8.0306Y-4.521
T8
X4.379Y-5.4461
X5.014Y-5.4461
X5.1495Y-5.9746
X5.7845Y-5.9746
X5.9278Y-5.9754
X6.5628Y-5.9754
X6.7077Y-5.9747
X7.3427Y-5.9747
X7.4731Y-5.446
X8.1081Y-5.446
T9
X4.4118Y-2.6531
X4.4122Y-6.0087
X8.1071Y-2.6535
X8.1071Y-6.0083
M30
