%TF.GenerationSoftware,KiCad,Pcbnew,9.0.3*%
%TF.CreationDate,2026-03-10T10:06:39-07:00*%
%TF.ProjectId,periph_ethernet_switch,70657269-7068-45f6-9574-6865726e6574,rev?*%
%TF.SameCoordinates,Original*%
%TF.FileFunction,Legend,Bot*%
%TF.FilePolarity,Positive*%
%FSLAX46Y46*%
G04 Gerber Fmt 4.6, Leading zero omitted, Abs format (unit mm)*
G04 Created by KiCad (PCBNEW 9.0.3) date 2026-03-10 10:06:39*
%MOMM*%
%LPD*%
G01*
G04 APERTURE LIST*
G04 Aperture macros list*
%AMRoundRect*
0 Rectangle with rounded corners*
0 $1 Rounding radius*
0 $2 $3 $4 $5 $6 $7 $8 $9 X,Y pos of 4 corners*
0 Add a 4 corners polygon primitive as box body*
4,1,4,$2,$3,$4,$5,$6,$7,$8,$9,$2,$3,0*
0 Add four circle primitives for the rounded corners*
1,1,$1+$1,$2,$3*
1,1,$1+$1,$4,$5*
1,1,$1+$1,$6,$7*
1,1,$1+$1,$8,$9*
0 Add four rect primitives between the rounded corners*
20,1,$1+$1,$2,$3,$4,$5,0*
20,1,$1+$1,$4,$5,$6,$7,0*
20,1,$1+$1,$6,$7,$8,$9,0*
20,1,$1+$1,$8,$9,$2,$3,0*%
G04 Aperture macros list end*
%ADD10C,0.150000*%
%ADD11C,0.120000*%
%ADD12C,3.251200*%
%ADD13RoundRect,0.102000X0.762000X0.762000X-0.762000X0.762000X-0.762000X-0.762000X0.762000X-0.762000X0*%
%ADD14C,1.728000*%
%ADD15C,1.918500*%
%ADD16C,2.566200*%
%ADD17R,1.400000X1.400000*%
%ADD18C,1.400000*%
%ADD19C,1.900000*%
%ADD20RoundRect,0.250000X0.550000X0.550000X-0.550000X0.550000X-0.550000X-0.550000X0.550000X-0.550000X0*%
%ADD21C,1.600000*%
%ADD22C,6.000000*%
%ADD23R,1.700000X1.700000*%
%ADD24C,1.700000*%
%ADD25C,0.610000*%
%ADD26RoundRect,0.225000X0.225000X0.250000X-0.225000X0.250000X-0.225000X-0.250000X0.225000X-0.250000X0*%
%ADD27RoundRect,0.225000X-0.225000X-0.250000X0.225000X-0.250000X0.225000X0.250000X-0.225000X0.250000X0*%
%ADD28RoundRect,0.200000X-0.200000X-0.275000X0.200000X-0.275000X0.200000X0.275000X-0.200000X0.275000X0*%
%ADD29RoundRect,0.225000X-0.250000X0.225000X-0.250000X-0.225000X0.250000X-0.225000X0.250000X0.225000X0*%
%ADD30RoundRect,0.225000X0.250000X-0.225000X0.250000X0.225000X-0.250000X0.225000X-0.250000X-0.225000X0*%
%ADD31RoundRect,0.250000X1.100000X-0.325000X1.100000X0.325000X-1.100000X0.325000X-1.100000X-0.325000X0*%
G04 APERTURE END LIST*
D10*
X155542857Y-60934819D02*
X155876190Y-60458628D01*
X156114285Y-60934819D02*
X156114285Y-59934819D01*
X156114285Y-59934819D02*
X155733333Y-59934819D01*
X155733333Y-59934819D02*
X155638095Y-59982438D01*
X155638095Y-59982438D02*
X155590476Y-60030057D01*
X155590476Y-60030057D02*
X155542857Y-60125295D01*
X155542857Y-60125295D02*
X155542857Y-60268152D01*
X155542857Y-60268152D02*
X155590476Y-60363390D01*
X155590476Y-60363390D02*
X155638095Y-60411009D01*
X155638095Y-60411009D02*
X155733333Y-60458628D01*
X155733333Y-60458628D02*
X156114285Y-60458628D01*
X155161904Y-60030057D02*
X155114285Y-59982438D01*
X155114285Y-59982438D02*
X155019047Y-59934819D01*
X155019047Y-59934819D02*
X154780952Y-59934819D01*
X154780952Y-59934819D02*
X154685714Y-59982438D01*
X154685714Y-59982438D02*
X154638095Y-60030057D01*
X154638095Y-60030057D02*
X154590476Y-60125295D01*
X154590476Y-60125295D02*
X154590476Y-60220533D01*
X154590476Y-60220533D02*
X154638095Y-60363390D01*
X154638095Y-60363390D02*
X155209523Y-60934819D01*
X155209523Y-60934819D02*
X154590476Y-60934819D01*
X153971428Y-59934819D02*
X153876190Y-59934819D01*
X153876190Y-59934819D02*
X153780952Y-59982438D01*
X153780952Y-59982438D02*
X153733333Y-60030057D01*
X153733333Y-60030057D02*
X153685714Y-60125295D01*
X153685714Y-60125295D02*
X153638095Y-60315771D01*
X153638095Y-60315771D02*
X153638095Y-60553866D01*
X153638095Y-60553866D02*
X153685714Y-60744342D01*
X153685714Y-60744342D02*
X153733333Y-60839580D01*
X153733333Y-60839580D02*
X153780952Y-60887200D01*
X153780952Y-60887200D02*
X153876190Y-60934819D01*
X153876190Y-60934819D02*
X153971428Y-60934819D01*
X153971428Y-60934819D02*
X154066666Y-60887200D01*
X154066666Y-60887200D02*
X154114285Y-60839580D01*
X154114285Y-60839580D02*
X154161904Y-60744342D01*
X154161904Y-60744342D02*
X154209523Y-60553866D01*
X154209523Y-60553866D02*
X154209523Y-60315771D01*
X154209523Y-60315771D02*
X154161904Y-60125295D01*
X154161904Y-60125295D02*
X154114285Y-60030057D01*
X154114285Y-60030057D02*
X154066666Y-59982438D01*
X154066666Y-59982438D02*
X153971428Y-59934819D01*
D11*
%TO.C,C16*%
X144255558Y-82897518D02*
X143974398Y-82897518D01*
X144255558Y-83917518D02*
X143974398Y-83917518D01*
%TO.C,C29*%
X144285558Y-85987518D02*
X144004398Y-85987518D01*
X144285558Y-87007518D02*
X144004398Y-87007518D01*
%TO.C,C19*%
X160339397Y-83467518D02*
X160620559Y-83467518D01*
X160339397Y-84487518D02*
X160620559Y-84487518D01*
%TO.C,C21*%
X160479397Y-86537518D02*
X160760559Y-86537518D01*
X160479397Y-87557518D02*
X160760559Y-87557518D01*
%TO.C,C7*%
X144310558Y-90447518D02*
X144029398Y-90447518D01*
X144310558Y-91467518D02*
X144029398Y-91467518D01*
%TO.C,C1*%
X144290558Y-87477518D02*
X144009398Y-87477518D01*
X144290558Y-88497518D02*
X144009398Y-88497518D01*
%TO.C,R20*%
X154662742Y-58527500D02*
X155137258Y-58527500D01*
X154662742Y-59572500D02*
X155137258Y-59572500D01*
%TO.C,C13*%
X144370558Y-93417518D02*
X144089398Y-93417518D01*
X144370558Y-94437518D02*
X144089398Y-94437518D01*
%TO.C,C15*%
X158819978Y-97456937D02*
X158819978Y-97738099D01*
X159839978Y-97456937D02*
X159839978Y-97738099D01*
%TO.C,C3*%
X147969978Y-97266937D02*
X147969978Y-97548099D01*
X148989978Y-97266937D02*
X148989978Y-97548099D01*
%TO.C,C22*%
X160499397Y-88027518D02*
X160780559Y-88027518D01*
X160499397Y-89047518D02*
X160780559Y-89047518D01*
%TO.C,C10*%
X155679978Y-97536937D02*
X155679978Y-97818099D01*
X156699978Y-97536937D02*
X156699978Y-97818099D01*
%TO.C,C11*%
X157219978Y-97536937D02*
X157219978Y-97818099D01*
X158239978Y-97536937D02*
X158239978Y-97818099D01*
%TO.C,C26*%
X160504397Y-94177518D02*
X160785559Y-94177518D01*
X160504397Y-95197518D02*
X160785559Y-95197518D01*
%TO.C,C9*%
X151039978Y-97236937D02*
X151039978Y-97518099D01*
X152059978Y-97236937D02*
X152059978Y-97518099D01*
%TO.C,C20*%
X160434397Y-85017518D02*
X160715559Y-85017518D01*
X160434397Y-86037518D02*
X160715559Y-86037518D01*
%TO.C,C14*%
X144359978Y-96196937D02*
X144359978Y-96478099D01*
X145379978Y-96196937D02*
X145379978Y-96478099D01*
%TO.C,C28*%
X154519978Y-81128099D02*
X154519978Y-80846937D01*
X155539978Y-81128099D02*
X155539978Y-80846937D01*
%TO.C,C5*%
X154119978Y-97426937D02*
X154119978Y-97708099D01*
X155139978Y-97426937D02*
X155139978Y-97708099D01*
%TO.C,C4*%
X144300558Y-88957518D02*
X144019398Y-88957518D01*
X144300558Y-89977518D02*
X144019398Y-89977518D01*
%TO.C,C18*%
X156059978Y-81048099D02*
X156059978Y-80766937D01*
X157079978Y-81048099D02*
X157079978Y-80766937D01*
%TO.C,C17*%
X144275558Y-84457518D02*
X143994398Y-84457518D01*
X144275558Y-85477518D02*
X143994398Y-85477518D01*
%TO.C,C12*%
X144320558Y-91937518D02*
X144039398Y-91937518D01*
X144320558Y-92957518D02*
X144039398Y-92957518D01*
%TO.C,C27*%
X150339978Y-81358099D02*
X150339978Y-81076937D01*
X151359978Y-81358099D02*
X151359978Y-81076937D01*
%TO.C,C24*%
X160459397Y-91067518D02*
X160740559Y-91067518D01*
X160459397Y-92087518D02*
X160740559Y-92087518D01*
%TO.C,C23*%
X160504397Y-89547518D02*
X160785559Y-89547518D01*
X160504397Y-90567518D02*
X160785559Y-90567518D01*
%TO.C,C58*%
X203160000Y-131301252D02*
X203160000Y-129878748D01*
X205880000Y-131301252D02*
X205880000Y-129878748D01*
%TO.C,C25*%
X160489397Y-92637518D02*
X160770559Y-92637518D01*
X160489397Y-93657518D02*
X160770559Y-93657518D01*
%TO.C,C2*%
X152649978Y-97426937D02*
X152649978Y-97708099D01*
X153669978Y-97426937D02*
X153669978Y-97708099D01*
%TO.C,C6*%
X149479978Y-97296937D02*
X149479978Y-97578099D01*
X150499978Y-97296937D02*
X150499978Y-97578099D01*
%TO.C,C8*%
X146129978Y-97306937D02*
X146129978Y-97588099D01*
X147149978Y-97306937D02*
X147149978Y-97588099D01*
%TD*%
%LPC*%
D12*
%TO.C,J1*%
X138352431Y-142557866D03*
X125652431Y-142557866D03*
D13*
X137082431Y-127317866D03*
D14*
X135050431Y-127317866D03*
X133018431Y-127317866D03*
X130986431Y-127317866D03*
X128954431Y-127317866D03*
X126922431Y-127317866D03*
X138098431Y-124777865D03*
X136066431Y-124777865D03*
X134034431Y-124777865D03*
X129970431Y-124777865D03*
X127938431Y-124777865D03*
X125906431Y-124777865D03*
D15*
X138098431Y-122237866D03*
X135558431Y-122237866D03*
X128446431Y-122237866D03*
X125906431Y-122237866D03*
D16*
X140066932Y-145732866D03*
X123937930Y-145732866D03*
%TD*%
D12*
%TO.C,J3*%
X177930002Y-142560385D03*
X165230002Y-142560385D03*
D13*
X176660002Y-127320385D03*
D14*
X174628002Y-127320385D03*
X172596002Y-127320385D03*
X170564002Y-127320385D03*
X168532002Y-127320385D03*
X166500002Y-127320385D03*
X177676002Y-124780384D03*
X175644002Y-124780384D03*
X173612002Y-124780384D03*
X169548002Y-124780384D03*
X167516002Y-124780384D03*
X165484002Y-124780384D03*
D15*
X177676002Y-122240385D03*
X175136002Y-122240385D03*
X168024002Y-122240385D03*
X165484002Y-122240385D03*
D16*
X179644503Y-145735385D03*
X163515501Y-145735385D03*
%TD*%
D17*
%TO.C,CN1*%
X128589978Y-57547518D03*
D18*
X128589978Y-55547518D03*
X126589978Y-57547518D03*
X126589978Y-55547518D03*
X124589978Y-57547518D03*
X124589978Y-55547518D03*
X122589978Y-57547518D03*
X122589978Y-55547518D03*
X120589978Y-57547518D03*
X120589978Y-55547518D03*
X118589978Y-57547518D03*
X118589978Y-55547518D03*
X116589978Y-57547518D03*
X116589978Y-55547518D03*
X114589978Y-57547518D03*
X114589978Y-55547518D03*
%TD*%
D19*
%TO.C,TP9*%
X133725000Y-55850000D03*
%TD*%
%TO.C,TP3*%
X157720000Y-68160000D03*
%TD*%
D20*
%TO.C,SW1*%
X106644978Y-100035018D03*
D21*
X106644978Y-97495018D03*
X106644978Y-94955018D03*
X106644978Y-92415018D03*
X106644978Y-89875018D03*
X106644978Y-87335018D03*
X106644978Y-84795018D03*
X99024978Y-84795018D03*
X99024978Y-87335018D03*
X99024978Y-89875018D03*
X99024978Y-92415018D03*
X99024978Y-94955018D03*
X99024978Y-97495018D03*
X99024978Y-100035018D03*
%TD*%
D12*
%TO.C,J4*%
X197369977Y-129130614D03*
X184669977Y-129130614D03*
D13*
X196099977Y-113890614D03*
D14*
X194067977Y-113890614D03*
X192035977Y-113890614D03*
X190003977Y-113890614D03*
X187971977Y-113890614D03*
X185939977Y-113890614D03*
X197115977Y-111350613D03*
X195083977Y-111350613D03*
X193051977Y-111350613D03*
X188987977Y-111350613D03*
X186955977Y-111350613D03*
X184923977Y-111350613D03*
D15*
X197115977Y-108810614D03*
X194575977Y-108810614D03*
X187463977Y-108810614D03*
X184923977Y-108810614D03*
D16*
X199084478Y-132305614D03*
X182955476Y-132305614D03*
%TD*%
D19*
%TO.C,TP10*%
X134075000Y-60700000D03*
%TD*%
D12*
%TO.C,J2*%
X158119977Y-142577518D03*
X145419977Y-142577518D03*
D13*
X156849977Y-127337518D03*
D14*
X154817977Y-127337518D03*
X152785977Y-127337518D03*
X150753977Y-127337518D03*
X148721977Y-127337518D03*
X146689977Y-127337518D03*
X157865977Y-124797517D03*
X155833977Y-124797517D03*
X153801977Y-124797517D03*
X149737977Y-124797517D03*
X147705977Y-124797517D03*
X145673977Y-124797517D03*
D15*
X157865977Y-122257518D03*
X155325977Y-122257518D03*
X148213977Y-122257518D03*
X145673977Y-122257518D03*
D16*
X159834478Y-145752518D03*
X143705476Y-145752518D03*
%TD*%
D12*
%TO.C,J5*%
X118781743Y-129132709D03*
X106081743Y-129132709D03*
D13*
X117511743Y-113892709D03*
D14*
X115479743Y-113892709D03*
X113447743Y-113892709D03*
X111415743Y-113892709D03*
X109383743Y-113892709D03*
X107351743Y-113892709D03*
X118527743Y-111352708D03*
X116495743Y-111352708D03*
X114463743Y-111352708D03*
X110399743Y-111352708D03*
X108367743Y-111352708D03*
X106335743Y-111352708D03*
D15*
X118527743Y-108812709D03*
X115987743Y-108812709D03*
X108875743Y-108812709D03*
X106335743Y-108812709D03*
D16*
X120496244Y-132307709D03*
X104367242Y-132307709D03*
%TD*%
D22*
%TO.C,H1*%
X199059978Y-61377518D03*
%TD*%
D23*
%TO.C,J6*%
X151484978Y-56477518D03*
D24*
X154024978Y-56477518D03*
X156564978Y-56477518D03*
X159104978Y-56477518D03*
%TD*%
D22*
%TO.C,H4*%
X199059978Y-146587518D03*
%TD*%
%TO.C,H3*%
X105209978Y-146597518D03*
%TD*%
D25*
%TO.C,U1*%
X147959977Y-84959614D03*
X147959977Y-86159614D03*
X147959977Y-87359614D03*
X147959977Y-88559614D03*
X147959977Y-89759614D03*
X147959977Y-90959614D03*
X147959977Y-92159614D03*
X147959977Y-93359614D03*
X149159977Y-84959614D03*
X149159977Y-86159614D03*
X149159977Y-87359614D03*
X149159977Y-88559614D03*
X149159977Y-89759614D03*
X149159977Y-90959614D03*
X149159977Y-92159614D03*
X149159977Y-93359614D03*
X150359977Y-84959614D03*
X150359977Y-86159614D03*
X150359977Y-87359614D03*
X150359977Y-88559614D03*
X150359977Y-89759614D03*
X150359977Y-90959614D03*
X150359977Y-92159614D03*
X150359977Y-93359614D03*
X151559977Y-84959614D03*
X151559977Y-86159614D03*
X151559977Y-87359614D03*
X151559977Y-88559614D03*
X151559977Y-89759614D03*
X151559977Y-90959614D03*
X151559977Y-92159614D03*
X151559977Y-93359614D03*
X152759977Y-84959614D03*
X152759977Y-86159614D03*
X152759977Y-87359614D03*
X152759977Y-88559614D03*
X152759977Y-89759614D03*
X152759977Y-90959614D03*
X152759977Y-92159614D03*
X152759977Y-93359614D03*
X153959977Y-84959614D03*
X153959977Y-86159614D03*
X153959977Y-87359614D03*
X153959977Y-88559614D03*
X153959977Y-89759614D03*
X153959977Y-90959614D03*
X153959977Y-92159614D03*
X153959977Y-93359614D03*
X155159977Y-84959614D03*
X155159977Y-86159614D03*
X155159977Y-87359614D03*
X155159977Y-88559614D03*
X155159977Y-89759614D03*
X155159977Y-90959614D03*
X155159977Y-92159614D03*
X155159977Y-93359614D03*
X156359977Y-84959614D03*
X156359977Y-86159614D03*
X156359977Y-87359614D03*
X156359977Y-88559614D03*
X156359977Y-89759614D03*
X156359977Y-90959614D03*
X156359977Y-92159614D03*
X156359977Y-93359614D03*
%TD*%
D19*
%TO.C,TP1*%
X154550000Y-65800000D03*
%TD*%
%TO.C,TP2*%
X161250000Y-71740000D03*
%TD*%
D22*
%TO.C,H2*%
X105199978Y-61367518D03*
%TD*%
D26*
%TO.C,C16*%
X144889978Y-83407518D03*
X143339978Y-83407518D03*
%TD*%
%TO.C,C29*%
X144919978Y-86497518D03*
X143369978Y-86497518D03*
%TD*%
D27*
%TO.C,C19*%
X159704978Y-83977518D03*
X161254978Y-83977518D03*
%TD*%
%TO.C,C21*%
X159844978Y-87047518D03*
X161394978Y-87047518D03*
%TD*%
D26*
%TO.C,C7*%
X144944978Y-90957518D03*
X143394978Y-90957518D03*
%TD*%
%TO.C,C1*%
X144924978Y-87987518D03*
X143374978Y-87987518D03*
%TD*%
D28*
%TO.C,R20*%
X154075000Y-59050000D03*
X155725000Y-59050000D03*
%TD*%
D26*
%TO.C,C13*%
X145004978Y-93927518D03*
X143454978Y-93927518D03*
%TD*%
D29*
%TO.C,C15*%
X159329978Y-96822518D03*
X159329978Y-98372518D03*
%TD*%
%TO.C,C3*%
X148479978Y-96632518D03*
X148479978Y-98182518D03*
%TD*%
D27*
%TO.C,C22*%
X159864978Y-88537518D03*
X161414978Y-88537518D03*
%TD*%
D29*
%TO.C,C10*%
X156189978Y-96902518D03*
X156189978Y-98452518D03*
%TD*%
%TO.C,C11*%
X157729978Y-96902518D03*
X157729978Y-98452518D03*
%TD*%
D27*
%TO.C,C26*%
X159869978Y-94687518D03*
X161419978Y-94687518D03*
%TD*%
D29*
%TO.C,C9*%
X151549978Y-96602518D03*
X151549978Y-98152518D03*
%TD*%
D27*
%TO.C,C20*%
X159799978Y-85527518D03*
X161349978Y-85527518D03*
%TD*%
D29*
%TO.C,C14*%
X144869978Y-95562518D03*
X144869978Y-97112518D03*
%TD*%
D30*
%TO.C,C28*%
X155029978Y-81762518D03*
X155029978Y-80212518D03*
%TD*%
D29*
%TO.C,C5*%
X154629978Y-96792518D03*
X154629978Y-98342518D03*
%TD*%
D26*
%TO.C,C4*%
X144934978Y-89467518D03*
X143384978Y-89467518D03*
%TD*%
D30*
%TO.C,C18*%
X156569978Y-81682518D03*
X156569978Y-80132518D03*
%TD*%
D26*
%TO.C,C17*%
X144909978Y-84967518D03*
X143359978Y-84967518D03*
%TD*%
%TO.C,C12*%
X144954978Y-92447518D03*
X143404978Y-92447518D03*
%TD*%
D30*
%TO.C,C27*%
X150849978Y-81992518D03*
X150849978Y-80442518D03*
%TD*%
D27*
%TO.C,C24*%
X159824978Y-91577518D03*
X161374978Y-91577518D03*
%TD*%
%TO.C,C23*%
X159869978Y-90057518D03*
X161419978Y-90057518D03*
%TD*%
D31*
%TO.C,C58*%
X204520000Y-132065001D03*
X204520000Y-129114999D03*
%TD*%
D27*
%TO.C,C25*%
X159854978Y-93147518D03*
X161404978Y-93147518D03*
%TD*%
D29*
%TO.C,C2*%
X153159978Y-96792518D03*
X153159978Y-98342518D03*
%TD*%
%TO.C,C6*%
X149989978Y-96662518D03*
X149989978Y-98212518D03*
%TD*%
%TO.C,C8*%
X146639978Y-96672518D03*
X146639978Y-98222518D03*
%TD*%
%LPD*%
M02*
