M48
; DRILL file {KiCad 9.0.0} date 2025-04-17T09:53:27-0700
; FORMAT={-:-/ absolute / inch / decimal}
; #@! TF.CreationDate,2025-04-17T09:53:27-07:00
; #@! TF.GenerationSoftware,Kicad,Pcbnew,9.0.0
; #@! TF.FileFunction,Plated,1,4,PTH
FMAT,2
INCH
; #@! TA.AperFunction,Plated,PTH,ComponentDrill
T1C0.0197
; #@! TA.AperFunction,Plated,PTH,ComponentDrill
T2C0.0236
; #@! TA.AperFunction,Plated,PTH,ComponentDrill
T3C0.0394
; #@! TA.AperFunction,Plated,PTH,ComponentDrill
T4C0.1063
%
G90
G05
T1
X5.1026Y-2.6614
X5.1026Y-2.935
X5.1026Y-3.2087
X5.1026Y-3.4823
X5.1259Y-2.605
X5.1259Y-2.7178
X5.1259Y-2.8787
X5.1259Y-2.9914
X5.1259Y-3.1523
X5.1259Y-3.265
X5.1259Y-3.4259
X5.1259Y-3.5387
X5.1823Y-2.5817
X5.1823Y-2.7411
X5.1823Y-2.8553
X5.1823Y-3.0148
X5.1823Y-3.1289
X5.1823Y-3.2884
X5.1823Y-3.4026
X5.1823Y-3.562
X5.2387Y-2.605
X5.2387Y-2.7178
X5.2387Y-2.8787
X5.2387Y-2.9914
X5.2387Y-3.1523
X5.2387Y-3.265
X5.2387Y-3.4259
X5.2387Y-3.5387
X5.262Y-2.6614
X5.262Y-2.935
X5.262Y-3.2087
X5.262Y-3.4823
T3
X5.8315Y-3.7894
X5.8315Y-3.8894
X5.8315Y-3.9894
X5.8315Y-4.0894
X6.9571Y-4.048
X6.9571Y-4.148
X6.9571Y-4.248
X6.9571Y-4.348
X7.2157Y-2.6161
X7.2157Y-2.7161
X7.2157Y-2.8161
X7.2157Y-2.9161
T4
X5.1823Y-2.6614
X5.1823Y-2.935
X5.1823Y-3.2087
X5.1823Y-3.4823
X5.5228Y-3.1693
X5.8063Y-3.1693
T2
G00X5.3988Y-2.9114
M15
G01X5.3988Y-2.9547
M16
G05
G00X5.9303Y-2.9114
M15
G01X5.9303Y-2.9547
M16
G05
M30
