%TF.GenerationSoftware,KiCad,Pcbnew,9.0.0*%
%TF.CreationDate,2025-06-04T12:22:04-07:00*%
%TF.ProjectId,EPS_Scales_RevD,4550535f-5363-4616-9c65-735f52657644,rev?*%
%TF.SameCoordinates,Original*%
%TF.FileFunction,Copper,L4,Bot*%
%TF.FilePolarity,Positive*%
%FSLAX46Y46*%
G04 Gerber Fmt 4.6, Leading zero omitted, Abs format (unit mm)*
G04 Created by KiCad (PCBNEW 9.0.0) date 2025-06-04 12:22:04*
%MOMM*%
%LPD*%
G01*
G04 APERTURE LIST*
%TA.AperFunction,ComponentPad*%
%ADD10C,5.000000*%
%TD*%
%TA.AperFunction,ComponentPad*%
%ADD11R,1.400000X1.400000*%
%TD*%
%TA.AperFunction,ComponentPad*%
%ADD12C,1.400000*%
%TD*%
%TA.AperFunction,ComponentPad*%
%ADD13R,1.700000X1.700000*%
%TD*%
%TA.AperFunction,ComponentPad*%
%ADD14O,1.700000X1.700000*%
%TD*%
%TA.AperFunction,ComponentPad*%
%ADD15O,1.300000X2.200000*%
%TD*%
%TA.AperFunction,ComponentPad*%
%ADD16C,3.800000*%
%TD*%
%TA.AperFunction,ViaPad*%
%ADD17C,0.600000*%
%TD*%
%TA.AperFunction,ViaPad*%
%ADD18C,1.000000*%
%TD*%
%TA.AperFunction,Conductor*%
%ADD19C,0.250000*%
%TD*%
%TA.AperFunction,Conductor*%
%ADD20C,0.200000*%
%TD*%
%TA.AperFunction,Conductor*%
%ADD21C,1.000000*%
%TD*%
G04 APERTURE END LIST*
D10*
%TO.P,J3,1,1*%
%TO.N,GND*%
X160012800Y-37000000D03*
%TD*%
D11*
%TO.P,CN1,1,1*%
%TO.N,+5V_Perif*%
X193941000Y-115729000D03*
D12*
%TO.P,CN1,2,2*%
%TO.N,unconnected-(CN1-Pad2)*%
X193941000Y-117729000D03*
%TO.P,CN1,3,3*%
%TO.N,+5V_Perif*%
X195941000Y-115729000D03*
%TO.P,CN1,4,4*%
%TO.N,Net-(CN1-Pad4)*%
X195941000Y-117729000D03*
%TO.P,CN1,5,5*%
%TO.N,+5V_Perif*%
X197941000Y-115729000D03*
%TO.P,CN1,6,6*%
%TO.N,Net-(CN1-Pad6)*%
X197941000Y-117729000D03*
%TO.P,CN1,7,7*%
%TO.N,+5V_Perif*%
X199941000Y-115729000D03*
%TO.P,CN1,8,8*%
%TO.N,Net-(CN1-Pad8)*%
X199941000Y-117729000D03*
%TO.P,CN1,9,9*%
%TO.N,GND*%
X201941000Y-115729000D03*
%TO.P,CN1,10,10*%
%TO.N,Net-(CN1-Pad10)*%
X201941000Y-117729000D03*
%TO.P,CN1,11,11*%
%TO.N,GND*%
X203941000Y-115729000D03*
%TO.P,CN1,12,12*%
%TO.N,Net-(CN1-Pad12)*%
X203941000Y-117729000D03*
%TO.P,CN1,13,13*%
%TO.N,GND*%
X205941000Y-115729000D03*
%TO.P,CN1,14,14*%
%TO.N,Net-(CN1-Pad14)*%
X205941000Y-117729000D03*
%TO.P,CN1,15,15*%
%TO.N,GND*%
X207941000Y-115729000D03*
%TO.P,CN1,16,16*%
%TO.N,WDT_WDI_Perif*%
X207941000Y-117729000D03*
%TD*%
D13*
%TO.P,J8,1,Pin_1*%
%TO.N,+20V_Jetson*%
X229258200Y-89255200D03*
D14*
%TO.P,J8,2,Pin_2*%
X231798200Y-89255200D03*
%TO.P,J8,3,Pin_3*%
%TO.N,GND*%
X234338200Y-89255200D03*
%TO.P,J8,4,Pin_4*%
X236878200Y-89255200D03*
%TD*%
D13*
%TO.P,J7,1,Pin_1*%
%TO.N,+5V_Perif*%
X202383800Y-84709000D03*
D14*
%TO.P,J7,2,Pin_2*%
X204923800Y-84709000D03*
%TO.P,J7,3,Pin_3*%
%TO.N,GND*%
X207463800Y-84709000D03*
%TO.P,J7,4,Pin_4*%
X210003800Y-84709000D03*
%TD*%
D10*
%TO.P,J2,1,1*%
%TO.N,GND*%
X160012800Y-117000000D03*
%TD*%
D11*
%TO.P,J6,1,1*%
%TO.N,+20V_Jetson*%
X217167800Y-115696600D03*
D12*
%TO.P,J6,2,2*%
%TO.N,Net-(J6-Pad2)*%
X217167800Y-117696600D03*
%TO.P,J6,3,3*%
%TO.N,+20V_Jetson*%
X219167800Y-115696600D03*
%TO.P,J6,4,4*%
%TO.N,Net-(J6-Pad4)*%
X219167800Y-117696600D03*
%TO.P,J6,5,5*%
%TO.N,+20V_Jetson*%
X221167800Y-115696600D03*
%TO.P,J6,6,6*%
%TO.N,Net-(J6-Pad6)*%
X221167800Y-117696600D03*
%TO.P,J6,7,7*%
%TO.N,+20V_Jetson*%
X223167800Y-115696600D03*
%TO.P,J6,8,8*%
%TO.N,Net-(J6-Pad8)*%
X223167800Y-117696600D03*
%TO.P,J6,9,9*%
%TO.N,GND*%
X225167800Y-115696600D03*
%TO.P,J6,10,10*%
%TO.N,Net-(J6-Pad10)*%
X225167800Y-117696600D03*
%TO.P,J6,11,11*%
%TO.N,GND*%
X227167800Y-115696600D03*
%TO.P,J6,12,12*%
%TO.N,Net-(J6-Pad12)*%
X227167800Y-117696600D03*
%TO.P,J6,13,13*%
%TO.N,GND*%
X229167800Y-115696600D03*
%TO.P,J6,14,14*%
%TO.N,WDT_WDI_Jetson*%
X229167800Y-117696600D03*
%TO.P,J6,15,15*%
%TO.N,GND*%
X231167800Y-115696600D03*
%TO.P,J6,16,16*%
%TO.N,WDT_WDI_Jetson*%
X231167800Y-117696600D03*
%TD*%
D15*
%TO.P,U8,1,1*%
%TO.N,GND*%
X219901000Y-37815000D03*
%TO.P,U8,2,2*%
X233401000Y-37815000D03*
D16*
%TO.P,U8,3,+*%
%TO.N,+V_Batt*%
X223051000Y-43815000D03*
%TO.P,U8,4,-*%
%TO.N,GND*%
X230251000Y-43815000D03*
%TD*%
D11*
%TO.P,J10,1,1*%
%TO.N,+3.3V_OBC*%
X169157200Y-115798200D03*
D12*
%TO.P,J10,2,2*%
%TO.N,Net-(J10-Pad2)*%
X169157200Y-117798200D03*
%TO.P,J10,3,3*%
%TO.N,+3.3V_OBC*%
X171157200Y-115798200D03*
%TO.P,J10,4,4*%
%TO.N,Net-(J10-Pad4)*%
X171157200Y-117798200D03*
%TO.P,J10,5,5*%
%TO.N,+3.3V_OBC*%
X173157200Y-115798200D03*
%TO.P,J10,6,6*%
%TO.N,OBC SDA*%
X173157200Y-117798200D03*
%TO.P,J10,7,7*%
%TO.N,+3.3V_OBC*%
X175157200Y-115798200D03*
%TO.P,J10,8,8*%
%TO.N,OBC SCL*%
X175157200Y-117798200D03*
%TO.P,J10,9,9*%
%TO.N,GND*%
X177157200Y-115798200D03*
%TO.P,J10,10,10*%
%TO.N,Net-(J10-Pad10)*%
X177157200Y-117798200D03*
%TO.P,J10,11,11*%
%TO.N,GND*%
X179157200Y-115798200D03*
%TO.P,J10,12,12*%
%TO.N,OBC_EN_JETSON*%
X179157200Y-117798200D03*
%TO.P,J10,13,13*%
%TO.N,GND*%
X181157200Y-115798200D03*
%TO.P,J10,14,14*%
%TO.N,OBC_EN_PERIF*%
X181157200Y-117798200D03*
%TO.P,J10,15,15*%
%TO.N,GND*%
X183157200Y-115798200D03*
%TO.P,J10,16,16*%
%TO.N,WDT_WDI_OBC*%
X183157200Y-117798200D03*
%TD*%
D10*
%TO.P,J5,1,1*%
%TO.N,GND*%
X240012800Y-37000000D03*
%TD*%
D13*
%TO.P,J18,1,Pin_1*%
%TO.N,+3.3V_OBC*%
X170596474Y-75468400D03*
D14*
%TO.P,J18,2,Pin_2*%
X173136474Y-75468400D03*
%TO.P,J18,3,Pin_3*%
%TO.N,GND*%
X175676474Y-75468400D03*
%TO.P,J18,4,Pin_4*%
X178216474Y-75468400D03*
%TD*%
D10*
%TO.P,J4,1,1*%
%TO.N,GND*%
X240030000Y-116967000D03*
%TD*%
D17*
%TO.N,+V_Batt*%
X169418000Y-89535000D03*
X224178200Y-87121600D03*
D18*
X230793000Y-47067500D03*
D17*
X161544000Y-93795200D03*
X194976000Y-88392000D03*
D18*
X226543000Y-47092500D03*
D17*
X218996600Y-89204400D03*
D18*
X222243000Y-47117500D03*
D17*
X170815000Y-89535000D03*
X170815000Y-91440000D03*
X220165000Y-91033200D03*
X194976000Y-90170000D03*
X196246000Y-90170000D03*
X196246000Y-88392000D03*
X169418000Y-91440000D03*
X220165000Y-89204400D03*
X162687000Y-96647000D03*
X218895000Y-91033200D03*
%TO.N,GND*%
X202692000Y-96139000D03*
X226327400Y-90931600D03*
X205359000Y-96393000D03*
X223520000Y-97790000D03*
X197358000Y-98171000D03*
X226412800Y-88290000D03*
X196373000Y-94234000D03*
D18*
X203034200Y-78739600D03*
D17*
X228287800Y-97917000D03*
X212595800Y-89128200D03*
X163123200Y-90366200D03*
X200787000Y-98425000D03*
X226261000Y-100151800D03*
D18*
X172212000Y-52324000D03*
X238441800Y-83286200D03*
D17*
X233299000Y-97663000D03*
X191088000Y-94996000D03*
X226187000Y-97176600D03*
D18*
X215073800Y-78587200D03*
D17*
X171251200Y-98494200D03*
X202215000Y-88646000D03*
D18*
X232306200Y-110311800D03*
X240016600Y-66040000D03*
D17*
X160274000Y-58547000D03*
D18*
X164334474Y-54513000D03*
D17*
X173029200Y-85667200D03*
X165155200Y-96081200D03*
X170688000Y-95377000D03*
X193706000Y-97409000D03*
X228346000Y-105156000D03*
X184658000Y-96647000D03*
X199396700Y-59419600D03*
D18*
X244487000Y-83184600D03*
X230793000Y-50067500D03*
X171246874Y-69499000D03*
D17*
X212633635Y-90456660D03*
X221488000Y-99314000D03*
X167695200Y-95758000D03*
D18*
X207301400Y-64212600D03*
D17*
X220218000Y-99314000D03*
X197358000Y-97468000D03*
X167259000Y-87376000D03*
X212090000Y-70231000D03*
X216662000Y-87122000D03*
X209708000Y-95885000D03*
X183896000Y-85598000D03*
X218694000Y-86741000D03*
X208534000Y-69798800D03*
X216027000Y-95504000D03*
X193579000Y-84201000D03*
D18*
X236728000Y-66167000D03*
D17*
X202215000Y-87249000D03*
X163250200Y-95954200D03*
D18*
X203948600Y-64212600D03*
D17*
X188626000Y-88265000D03*
D18*
X226593000Y-50242500D03*
D17*
X221488000Y-72390000D03*
X176839200Y-97478200D03*
D18*
X208946000Y-102362000D03*
D17*
X166806200Y-97478200D03*
X219075000Y-99314000D03*
D18*
X225535000Y-68351000D03*
D17*
X163123200Y-91636200D03*
X233201200Y-96922600D03*
X176624200Y-90874200D03*
X174193274Y-60558200D03*
X176839200Y-96208200D03*
X226325600Y-89636200D03*
X163123200Y-89096200D03*
X171251200Y-99256200D03*
X194437000Y-97409000D03*
X176624200Y-89604200D03*
D18*
X196121800Y-63753600D03*
X182427200Y-102050200D03*
X209028600Y-78688800D03*
X233361800Y-66167000D03*
X210603400Y-64263400D03*
D17*
X191897000Y-67945000D03*
X193628000Y-94022000D03*
D18*
X232447400Y-83337000D03*
D17*
X218059000Y-99314000D03*
D18*
X182427200Y-110051200D03*
D17*
X178617200Y-105987200D03*
X196596000Y-98171000D03*
X174244000Y-78232000D03*
X176624200Y-88334200D03*
X188753000Y-89535000D03*
D18*
X177241274Y-69448200D03*
D17*
X237998000Y-74396200D03*
X192786000Y-86360000D03*
X180213000Y-60960000D03*
X228809900Y-64017000D03*
D18*
X232357000Y-102488600D03*
X183286474Y-69346600D03*
D17*
X205740000Y-106426000D03*
X220165000Y-94944800D03*
X216913800Y-97383200D03*
X167822200Y-98494200D03*
X192817000Y-96393000D03*
X202215000Y-89916000D03*
X184277000Y-93726000D03*
X217587800Y-95718542D03*
X238148200Y-112242200D03*
D18*
X175514000Y-52324000D03*
D17*
X204187100Y-86868000D03*
X167822200Y-99256200D03*
X178871200Y-89477200D03*
D18*
X178816074Y-52324000D03*
D17*
X164647200Y-95504000D03*
X183642000Y-77343000D03*
D18*
X208946000Y-110490000D03*
D17*
X208946000Y-96266000D03*
X196469000Y-97536000D03*
X241427000Y-74803000D03*
X179760200Y-97605200D03*
D18*
X222268000Y-50067500D03*
D17*
%TO.N,/Perif_Subsystem/WD_Perif/WDT-VIN*%
X200152000Y-69342000D03*
X200332194Y-72713002D03*
D18*
%TO.N,WDT_WDI_Perif*%
X208938200Y-71576800D03*
X204669800Y-90678000D03*
D17*
%TO.N,Net-(U6C--)*%
X203237400Y-67157200D03*
X205929800Y-72389600D03*
X195326000Y-70104000D03*
%TO.N,Net-(U1-BST)*%
X219961800Y-101219000D03*
X216812200Y-100939200D03*
%TO.N,Net-(U1-INTVCC)*%
X219936638Y-102112318D03*
X224178200Y-101066200D03*
%TO.N,Net-(U1-FB)*%
X226949000Y-104902000D03*
X224178200Y-102082200D03*
%TO.N,+3.3V_OBC*%
X180848000Y-85852000D03*
D18*
X179578000Y-95631000D03*
D17*
X204597000Y-96901000D03*
X179705000Y-98425000D03*
D18*
X182499000Y-93218000D03*
D17*
X228473000Y-98679000D03*
X199390000Y-93345000D03*
D18*
X179705000Y-94869000D03*
X165862074Y-72648600D03*
X181284200Y-93414200D03*
D17*
X211328000Y-97282000D03*
D18*
%TO.N,+20V_Jetson*%
X228699400Y-95325800D03*
X227062600Y-86486600D03*
%TO.N,WDT_WDI_Jetson*%
X234211200Y-112369200D03*
X238351400Y-76174200D03*
D17*
%TO.N,Net-(U4C--)*%
X235343000Y-76987000D03*
X232650600Y-71754600D03*
X227089200Y-77850600D03*
%TO.N,Net-(U4D--)*%
X228535800Y-71805400D03*
X232193400Y-75717000D03*
%TO.N,Net-(U3-FB)*%
X172466000Y-101219000D03*
X177038000Y-104394000D03*
%TO.N,Net-(U3-BST)*%
X169600200Y-101092000D03*
X164647200Y-100526200D03*
%TO.N,Net-(U3-INTVCC)*%
X172521200Y-100272200D03*
X170008618Y-101732935D03*
%TO.N,Net-(U6D--)*%
X202692000Y-71120000D03*
X199122600Y-67208000D03*
%TO.N,Net-(U13-BST)*%
X190912000Y-99949000D03*
X195832154Y-100677233D03*
%TO.N,Net-(U13-INTVCC)*%
X198628000Y-99314000D03*
X196469000Y-101092000D03*
%TO.N,/OBC_Subsystem/WD_OBC/WDT-VIN*%
X168299484Y-60012926D03*
X168471889Y-63109317D03*
%TO.N,/Jetson_Subsystem/WD_Jetson/WDT-VIN*%
X229616000Y-74041000D03*
X229696515Y-76837982D03*
%TO.N,Net-(U13-FB)*%
X202438000Y-103886000D03*
X198651200Y-100177200D03*
D18*
%TO.N,WDT_WDI_OBC*%
X177150874Y-62336200D03*
D17*
X182006874Y-75604200D03*
X186182000Y-115951000D03*
%TO.N,Net-(U14C--)*%
X165875200Y-64012600D03*
X171450074Y-57916600D03*
X174142474Y-63149000D03*
%TO.N,Net-(U14D--)*%
X167132000Y-58039000D03*
X170992874Y-61879000D03*
D18*
%TO.N,+5V_Perif*%
X205177800Y-93853000D03*
D17*
%TO.N,OBC SDA*%
X168783000Y-80899000D03*
%TO.N,OBC SCL*%
X172466000Y-80899000D03*
%TO.N,OBC_EN_PERIF*%
X188722000Y-90932000D03*
%TO.N,Net-(JP1-A)*%
X238289400Y-72821400D03*
X238391000Y-69570200D03*
%TO.N,Net-(JP2-A)*%
X208876200Y-68224000D03*
X208977800Y-64972800D03*
%TO.N,Net-(JP5-A)*%
X177088874Y-58983400D03*
X177190474Y-55732200D03*
%TO.N,Net-(U4B--)*%
X224979800Y-73075400D03*
X229324245Y-75973560D03*
%TO.N,/Jetson_Subsystem/WD_Jetson/WDT-VP*%
X229362000Y-75184000D03*
X224917000Y-71755000D03*
%TO.N,Net-(R20-Pad1)*%
X242505800Y-69773400D03*
X240588830Y-71535005D03*
%TO.N,Net-(U4C-+)*%
X226402200Y-76225000D03*
X232091800Y-76631400D03*
%TO.N,Net-(D3-K)*%
X223354200Y-71602200D03*
X232599800Y-75056600D03*
X226568000Y-74676000D03*
X226187000Y-80645000D03*
%TO.N,Net-(U6B--)*%
X195566600Y-68478000D03*
X199756800Y-71247000D03*
%TO.N,/Perif_Subsystem/WD_Perif/WDT-VP*%
X199821000Y-70129683D03*
X195580000Y-67004800D03*
%TO.N,Net-(U7-MOD)*%
X178054000Y-89408000D03*
X177165000Y-85852000D03*
%TO.N,Net-(R39-Pad1)*%
X213092600Y-65176000D03*
X211074000Y-66929000D03*
%TO.N,SDA*%
X202057000Y-98679000D03*
X199771000Y-97790000D03*
X172445185Y-78121036D03*
X182372000Y-100965000D03*
X184150000Y-99441000D03*
X213106000Y-100457000D03*
X174244000Y-97155000D03*
X223549735Y-99299614D03*
X204597000Y-98806000D03*
%TO.N,SCL*%
X205232000Y-97790000D03*
X182753000Y-98806000D03*
X208153000Y-97790000D03*
X228727000Y-99822000D03*
%TO.N,Net-(U1-EN{slash}UV)*%
X218082200Y-96646600D03*
X219964000Y-96520000D03*
%TO.N,Net-(U3-EN{slash}UV)*%
X168148000Y-96520000D03*
X169926000Y-96705198D03*
%TO.N,Net-(U6C-+)*%
X202678600Y-72034000D03*
X196989000Y-71627600D03*
%TO.N,Net-(D8-K)*%
X196850000Y-76200000D03*
X203186600Y-70459200D03*
X193941000Y-67004800D03*
%TO.N,Net-(U13-EN{slash}UV)*%
X196215000Y-95631000D03*
X194056000Y-95504000D03*
%TO.N,Net-(U14B--)*%
X163779274Y-59237400D03*
X168233190Y-61999505D03*
%TO.N,/OBC_Subsystem/WD_OBC/WDT-VP*%
X163703000Y-57912000D03*
X168268015Y-61145331D03*
%TO.N,Net-(R93-Pad1)*%
X181305274Y-55935400D03*
X179197000Y-57912000D03*
%TO.N,Net-(U14C-+)*%
X165201674Y-62387000D03*
X170891274Y-62793400D03*
%TO.N,Net-(D12-K)*%
X171399274Y-61218600D03*
X164973000Y-66929000D03*
X162153674Y-57764200D03*
X165354000Y-60833000D03*
%TO.N,SYNC_PHASE3*%
X222631000Y-97409000D03*
X206121000Y-90297000D03*
X188849000Y-84582000D03*
X182245000Y-88265000D03*
%TO.N,SYNC_PHASE1*%
X173863000Y-94615000D03*
X179451000Y-90932000D03*
%TO.N,SYNC_PHASE2*%
X198247000Y-93853000D03*
X184531000Y-90678000D03*
%TD*%
D19*
%TO.N,GND*%
X238148200Y-112115200D02*
X238148200Y-111988200D01*
X200787000Y-98425000D02*
X200660000Y-98298000D01*
X228346000Y-105156000D02*
X228219000Y-105156000D01*
X218694000Y-86741000D02*
X218567000Y-86741000D01*
%TO.N,/Perif_Subsystem/WD_Perif/WDT-VIN*%
X200341800Y-72703396D02*
X200341800Y-70475000D01*
X200406000Y-69596000D02*
X200152000Y-69342000D01*
X200406000Y-70410800D02*
X200406000Y-69596000D01*
X200341800Y-70475000D02*
X200406000Y-70410800D01*
X200332194Y-72713002D02*
X200341800Y-72703396D01*
%TO.N,WDT_WDI_Perif*%
X204669800Y-90678000D02*
X208661000Y-86686800D01*
D20*
X206910800Y-113129200D02*
X206910800Y-116613800D01*
X206910800Y-92919000D02*
X206910800Y-113129200D01*
D19*
X206955800Y-116713000D02*
X207971800Y-117729000D01*
X208661000Y-83947000D02*
X210820000Y-81788000D01*
D20*
X204669800Y-90678000D02*
X206910800Y-92919000D01*
X206910800Y-116613800D02*
X207010000Y-116713000D01*
D19*
X210820000Y-81788000D02*
X210820000Y-73458600D01*
X210820000Y-73458600D02*
X208938200Y-71576800D01*
X208661000Y-86686800D02*
X208661000Y-83947000D01*
%TO.N,Net-(U6C--)*%
X192389712Y-67303582D02*
X192389712Y-66714813D01*
X203780800Y-67700600D02*
X203780800Y-71247000D01*
X192389712Y-66714813D02*
X192978482Y-66126043D01*
X204923800Y-72390000D02*
X205939800Y-72390000D01*
X202143043Y-66126043D02*
X203200000Y-67183000D01*
X195063130Y-69977000D02*
X192389712Y-67303582D01*
X203780800Y-71247000D02*
X204923800Y-72390000D01*
X195199000Y-69977000D02*
X195063130Y-69977000D01*
X203237400Y-67157200D02*
X203780800Y-67700600D01*
X192978482Y-66126043D02*
X202143043Y-66126043D01*
X195326000Y-70104000D02*
X195199000Y-69977000D01*
%TO.N,Net-(U1-BST)*%
X219961800Y-100990000D02*
X219911000Y-100939200D01*
X219911000Y-100939200D02*
X216812200Y-100939200D01*
X219961800Y-101219000D02*
X219961800Y-100990000D01*
%TO.N,Net-(U1-INTVCC)*%
X224127400Y-101015400D02*
X224178200Y-101066200D01*
X219936638Y-102112318D02*
X220956956Y-101092000D01*
X220956956Y-101092000D02*
X224155000Y-101092000D01*
%TO.N,Net-(U1-FB)*%
X226718200Y-104622200D02*
X224178200Y-102082200D01*
X226949000Y-104902000D02*
X226718200Y-104671200D01*
X226718200Y-104671200D02*
X226718200Y-104622200D01*
%TO.N,+3.3V_OBC*%
X213200600Y-94139400D02*
X211328000Y-96012000D01*
X228473000Y-98679000D02*
X228727000Y-98679000D01*
X211328000Y-96012000D02*
X211328000Y-97282000D01*
X228981000Y-97317923D02*
X225802477Y-94139400D01*
X228981000Y-97317923D02*
X228981000Y-98425000D01*
X225802477Y-94139400D02*
X213200600Y-94139400D01*
D21*
X182499000Y-93218000D02*
X182499000Y-93345000D01*
D19*
X228727000Y-98679000D02*
X228905409Y-98500591D01*
X228981000Y-98425000D02*
X228854000Y-98552000D01*
%TO.N,WDT_WDI_Jetson*%
X234211200Y-112369200D02*
X235278000Y-112369200D01*
X235585000Y-78940600D02*
X238351400Y-76174200D01*
X235278000Y-112369200D02*
X235585000Y-112062200D01*
X235585000Y-112062200D02*
X235585000Y-78940600D01*
%TO.N,Net-(U4C--)*%
X227164200Y-77850600D02*
X227537800Y-78224200D01*
X235343000Y-76720000D02*
X232650600Y-74027600D01*
X227537800Y-78224200D02*
X234105800Y-78224200D01*
X235343000Y-76987000D02*
X235343000Y-76720000D01*
X234105800Y-78224200D02*
X235343000Y-76987000D01*
X232650600Y-74027600D02*
X232650600Y-71754600D01*
%TO.N,Net-(U4D--)*%
X228535800Y-72059400D02*
X228535800Y-71805400D01*
X232193400Y-75717000D02*
X228535800Y-72059400D01*
%TO.N,Net-(U3-FB)*%
X172523800Y-101161200D02*
X174172200Y-101161200D01*
X172466000Y-101219000D02*
X172523800Y-101161200D01*
X177038000Y-104027000D02*
X177038000Y-104394000D01*
X174172200Y-101161200D02*
X177038000Y-104027000D01*
%TO.N,Net-(U3-BST)*%
X169542400Y-101034200D02*
X165155200Y-101034200D01*
X165155200Y-101034200D02*
X164647200Y-100526200D01*
X169600200Y-101092000D02*
X169542400Y-101034200D01*
%TO.N,Net-(U3-INTVCC)*%
X171124200Y-100272200D02*
X172521200Y-100272200D01*
X170008618Y-101512312D02*
X170186200Y-101334730D01*
X170186200Y-101334730D02*
X170186200Y-101210200D01*
X170008618Y-101732935D02*
X170008618Y-101512312D01*
X170186200Y-101210200D02*
X171124200Y-100272200D01*
%TO.N,Net-(U6D--)*%
X202692000Y-71031400D02*
X199081800Y-67421200D01*
X199081800Y-67421200D02*
X199081800Y-67183000D01*
X202692000Y-71120000D02*
X202692000Y-71031400D01*
%TO.N,Net-(U13-BST)*%
X191166000Y-99695000D02*
X190912000Y-99949000D01*
X195849500Y-100076000D02*
X195468500Y-99695000D01*
X195468500Y-99695000D02*
X191166000Y-99695000D01*
X195832154Y-100077846D02*
X195834000Y-100076000D01*
X195832154Y-100677233D02*
X195832154Y-100077846D01*
%TO.N,Net-(U13-INTVCC)*%
X197120290Y-99441000D02*
X198501000Y-99441000D01*
X196469000Y-101092000D02*
X196469000Y-100475035D01*
X196469000Y-100475035D02*
X196469000Y-100092290D01*
X196469000Y-100092290D02*
X197112145Y-99449145D01*
X198501000Y-99441000D02*
X198628000Y-99314000D01*
%TO.N,/OBC_Subsystem/WD_OBC/WDT-VIN*%
X168910000Y-62691874D02*
X168910000Y-60706000D01*
X168528999Y-63099175D02*
X168528999Y-63049031D01*
X168910000Y-60706000D02*
X168299484Y-60095484D01*
X168528999Y-63049031D02*
X168552843Y-63049031D01*
X168299484Y-60095484D02*
X168299484Y-60012926D01*
X168471889Y-63109317D02*
X168518857Y-63109317D01*
X168518857Y-63109317D02*
X168528999Y-63099175D01*
X168552843Y-63049031D02*
X168910000Y-62691874D01*
%TO.N,/Jetson_Subsystem/WD_Jetson/WDT-VIN*%
X230124000Y-74549000D02*
X229616000Y-74041000D01*
X230124000Y-76516400D02*
X230124000Y-74549000D01*
X229696515Y-76837982D02*
X229739534Y-76881001D01*
X229739534Y-76881001D02*
X229759399Y-76881001D01*
X229759399Y-76881001D02*
X230124000Y-76516400D01*
%TO.N,Net-(U13-FB)*%
X202438000Y-103886000D02*
X202539200Y-103987200D01*
X202539200Y-103987200D02*
X202588200Y-103987200D01*
X202360000Y-103886000D02*
X202438000Y-103886000D01*
X198651200Y-100177200D02*
X202360000Y-103886000D01*
%TO.N,WDT_WDI_OBC*%
X184334800Y-117798200D02*
X186182000Y-115951000D01*
X179847874Y-65033200D02*
X179847874Y-73445200D01*
X179847874Y-73445200D02*
X182006874Y-75604200D01*
X183157200Y-117798200D02*
X184334800Y-117798200D01*
X177150874Y-62336200D02*
X179847874Y-65033200D01*
%TO.N,Net-(U14C--)*%
X171450074Y-60327337D02*
X171450074Y-57916600D01*
X165963674Y-64012600D02*
X166337274Y-64386200D01*
X172905274Y-64386200D02*
X174142474Y-63149000D01*
X174142474Y-63019737D02*
X171450074Y-60327337D01*
X166337274Y-64386200D02*
X172905274Y-64386200D01*
X174142474Y-63149000D02*
X174142474Y-63019737D01*
%TO.N,Net-(U14D--)*%
X167132000Y-58039000D02*
X167314400Y-58221400D01*
X167314400Y-58221400D02*
X167335274Y-58221400D01*
X167335274Y-58221400D02*
X170992874Y-61879000D01*
%TO.N,OBC SDA*%
X168656000Y-94234000D02*
X168656000Y-81026000D01*
X174162289Y-116793111D02*
X174162289Y-108772988D01*
X173157200Y-117798200D02*
X174162289Y-116793111D01*
X168656000Y-81026000D02*
X168783000Y-80899000D01*
X178127200Y-104808077D02*
X178127200Y-103705200D01*
X174162289Y-108772988D02*
X178127200Y-104808077D01*
X178127200Y-103705200D02*
X168656000Y-94234000D01*
%TO.N,OBC SCL*%
X171704000Y-96266000D02*
X179203200Y-103765200D01*
X171704000Y-82423000D02*
X171704000Y-96266000D01*
X176073200Y-116882200D02*
X175157200Y-117798200D01*
X172466000Y-80899000D02*
X172466000Y-81661000D01*
X179197000Y-113411000D02*
X178149985Y-113411000D01*
X176149000Y-115411985D02*
X176149000Y-116840000D01*
X179203200Y-103765200D02*
X179203200Y-113404800D01*
X178149985Y-113411000D02*
X176149000Y-115411985D01*
X179203200Y-113404800D02*
X179197000Y-113411000D01*
X172466000Y-81661000D02*
X171704000Y-82423000D01*
%TO.N,OBC_EN_PERIF*%
X183213200Y-100977470D02*
X183213200Y-114347785D01*
X182167000Y-97487000D02*
X182167000Y-99931270D01*
X188722000Y-90932000D02*
X182167000Y-97487000D01*
X182171200Y-116786800D02*
X181102000Y-117856000D01*
X182171200Y-115389785D02*
X182171200Y-116786800D01*
X182167000Y-99931270D02*
X183213200Y-100977470D01*
X183213200Y-114347785D02*
X182171200Y-115389785D01*
%TO.N,Net-(JP1-A)*%
X238289400Y-69671800D02*
X238391000Y-69570200D01*
X238289400Y-72821400D02*
X238289400Y-69671800D01*
%TO.N,Net-(JP2-A)*%
X208733800Y-68199000D02*
X208860800Y-68199000D01*
X208977800Y-64972800D02*
X208977800Y-67955000D01*
X208977800Y-67955000D02*
X208733800Y-68199000D01*
%TO.N,Net-(JP5-A)*%
X177088874Y-58983400D02*
X177088874Y-55833800D01*
X177088874Y-55833800D02*
X177190474Y-55732200D01*
%TO.N,Net-(U4B--)*%
X229324245Y-75973560D02*
X229042685Y-75692000D01*
X229042685Y-75692000D02*
X228561600Y-75692000D01*
X225945000Y-73075400D02*
X224979800Y-73075400D01*
X228561600Y-75692000D02*
X225945000Y-73075400D01*
%TO.N,/Jetson_Subsystem/WD_Jetson/WDT-VP*%
X225069800Y-71602200D02*
X224917000Y-71755000D01*
X225274229Y-71602200D02*
X225069800Y-71602200D01*
X229362000Y-75184000D02*
X228854000Y-74676000D01*
X228854000Y-74676000D02*
X228348029Y-74676000D01*
X228348029Y-74676000D02*
X225274229Y-71602200D01*
%TO.N,Net-(R20-Pad1)*%
X240693395Y-71535005D02*
X242455000Y-69773400D01*
X240588830Y-71535005D02*
X240693395Y-71535005D01*
X242455000Y-69773400D02*
X242505800Y-69773400D01*
%TO.N,Net-(U4C-+)*%
X227809923Y-77632723D02*
X226402200Y-76225000D01*
X232091800Y-76631400D02*
X231090477Y-77632723D01*
X231090477Y-77632723D02*
X227809923Y-77632723D01*
%TO.N,Net-(D3-K)*%
X226568000Y-74930000D02*
X226568000Y-74676000D01*
X225640200Y-75857800D02*
X226568000Y-74930000D01*
X223880200Y-71076200D02*
X223354200Y-71602200D01*
X228937200Y-71076200D02*
X223880200Y-71076200D01*
X232599800Y-75056600D02*
X232599800Y-74738800D01*
X225640200Y-80136600D02*
X225640200Y-75857800D01*
X232599800Y-74738800D02*
X228937200Y-71076200D01*
X226187000Y-80645000D02*
X226148600Y-80645000D01*
X226148600Y-80645000D02*
X225640200Y-80136600D01*
%TO.N,Net-(U6B--)*%
X196621000Y-68478000D02*
X199462800Y-71319800D01*
X195566600Y-68478000D02*
X196621000Y-68478000D01*
X199462800Y-71319800D02*
X199462800Y-71374000D01*
%TO.N,/Perif_Subsystem/WD_Perif/WDT-VP*%
X199821000Y-70027000D02*
X199517000Y-69723000D01*
X199465683Y-69671683D02*
X196850000Y-67056000D01*
X199821000Y-70129683D02*
X199821000Y-70027000D01*
X196850000Y-67056000D02*
X195580000Y-67056000D01*
%TO.N,Net-(U7-MOD)*%
X177419000Y-86106000D02*
X177419000Y-89281000D01*
X177165000Y-85852000D02*
X177419000Y-86106000D01*
X177419000Y-89281000D02*
X177546000Y-89408000D01*
X177546000Y-89408000D02*
X178054000Y-89408000D01*
%TO.N,Net-(R39-Pad1)*%
X211213000Y-66989800D02*
X213051800Y-65151000D01*
X211074000Y-66929000D02*
X211134800Y-66989800D01*
X211134800Y-66989800D02*
X211213000Y-66989800D01*
%TO.N,SDA*%
X202184000Y-98806000D02*
X204597000Y-98806000D01*
X214884000Y-99949000D02*
X214376000Y-100457000D01*
X223139000Y-99949000D02*
X214884000Y-99949000D01*
X196950048Y-99030000D02*
X197290532Y-99030000D01*
X172212000Y-83439000D02*
X172212000Y-95123000D01*
X182372000Y-100965000D02*
X182245000Y-100965000D01*
X174244000Y-97155000D02*
X178054000Y-100965000D01*
X172593000Y-78268851D02*
X172593000Y-79121000D01*
X178054000Y-100965000D02*
X182372000Y-100965000D01*
X173355000Y-79883000D02*
X173355000Y-82296000D01*
X223139000Y-99568000D02*
X223139000Y-99949000D01*
X172593000Y-79121000D02*
X173355000Y-79883000D01*
X197290532Y-99030000D02*
X197945123Y-99030000D01*
X199185123Y-97790000D02*
X199771000Y-97790000D01*
X223407386Y-99299614D02*
X223139000Y-99568000D01*
X173355000Y-82296000D02*
X172212000Y-83439000D01*
X196811048Y-99169000D02*
X196950048Y-99030000D01*
X184422000Y-99169000D02*
X196811048Y-99169000D01*
X184150000Y-99441000D02*
X184422000Y-99169000D01*
X214376000Y-100457000D02*
X213106000Y-100457000D01*
X223549735Y-99299614D02*
X223407386Y-99299614D01*
X197945123Y-99030000D02*
X199185123Y-97790000D01*
X172445185Y-78121036D02*
X172593000Y-78268851D01*
X202057000Y-98679000D02*
X202184000Y-98806000D01*
X172212000Y-95123000D02*
X174244000Y-97155000D01*
%TO.N,SCL*%
X194310000Y-98425000D02*
X195852000Y-96883000D01*
X209042000Y-98679000D02*
X208153000Y-97790000D01*
X228600000Y-99822000D02*
X227457000Y-98679000D01*
X202342123Y-96883000D02*
X203249123Y-97790000D01*
X183134000Y-98425000D02*
X194310000Y-98425000D01*
X182753000Y-98806000D02*
X183134000Y-98425000D01*
X203249123Y-97790000D02*
X205232000Y-97790000D01*
X195852000Y-96883000D02*
X202342123Y-96883000D01*
X227457000Y-98679000D02*
X209042000Y-98679000D01*
X228727000Y-99822000D02*
X228600000Y-99822000D01*
%TO.N,Net-(U1-EN{slash}UV)*%
X218082200Y-96646600D02*
X219834800Y-96646600D01*
%TO.N,Net-(U3-EN{slash}UV)*%
X169914998Y-96716200D02*
X168344200Y-96716200D01*
X168344200Y-96716200D02*
X168148000Y-96520000D01*
X169926000Y-96705198D02*
X169914998Y-96716200D01*
%TO.N,Net-(U6C-+)*%
X201240800Y-73406000D02*
X202637800Y-72009000D01*
X196989000Y-71627600D02*
X198767400Y-73406000D01*
X198767400Y-73406000D02*
X201240800Y-73406000D01*
%TO.N,Net-(D8-K)*%
X199263000Y-76454000D02*
X197049800Y-76454000D01*
X193941000Y-67757200D02*
X196287800Y-70104000D01*
X196850000Y-76200000D02*
X196850000Y-76162200D01*
X203306200Y-72410800D02*
X199263000Y-76454000D01*
X203186600Y-70459200D02*
X203306200Y-70578800D01*
X203306200Y-70578800D02*
X203306200Y-72410800D01*
X193941000Y-67004800D02*
X193941000Y-67757200D01*
X196287800Y-75600000D02*
X196287800Y-70104000D01*
X196850000Y-76162200D02*
X196287800Y-75600000D01*
%TO.N,Net-(U13-EN{slash}UV)*%
X193960000Y-95758000D02*
X193833000Y-95631000D01*
X196088000Y-95758000D02*
X193960000Y-95758000D01*
X196215000Y-95631000D02*
X196088000Y-95758000D01*
%TO.N,Net-(U14B--)*%
X168209715Y-62022980D02*
X167530054Y-62022980D01*
X168233190Y-61999505D02*
X168209715Y-62022980D01*
X164744474Y-59237400D02*
X163779274Y-59237400D01*
X167530054Y-62022980D02*
X164744474Y-59237400D01*
%TO.N,/OBC_Subsystem/WD_OBC/WDT-VP*%
X167227551Y-60918048D02*
X164073703Y-57764200D01*
X164073703Y-57764200D02*
X163850800Y-57764200D01*
X168040732Y-60918048D02*
X167227551Y-60918048D01*
X163850800Y-57764200D02*
X163703000Y-57912000D01*
X168268015Y-61145331D02*
X168040732Y-60918048D01*
%TO.N,Net-(R93-Pad1)*%
X181254474Y-55935400D02*
X181305274Y-55935400D01*
X179434709Y-57674291D02*
X179515583Y-57674291D01*
X179197000Y-57912000D02*
X179434709Y-57674291D01*
X179515583Y-57674291D02*
X181254474Y-55935400D01*
%TO.N,Net-(U14C-+)*%
X166609397Y-63794723D02*
X169889951Y-63794723D01*
X169889951Y-63794723D02*
X170891274Y-62793400D01*
X165201674Y-62387000D02*
X166609397Y-63794723D01*
%TO.N,Net-(D12-K)*%
X164439674Y-61620326D02*
X164439674Y-66298600D01*
X167418874Y-57238200D02*
X162679674Y-57238200D01*
X164973000Y-66831926D02*
X164973000Y-66929000D01*
X164439674Y-66298600D02*
X164973000Y-66831926D01*
X165354000Y-60833000D02*
X165227000Y-60833000D01*
X165227000Y-60833000D02*
X164439674Y-61620326D01*
X162679674Y-57238200D02*
X162153674Y-57764200D01*
X171399274Y-61218600D02*
X167418874Y-57238200D01*
%TO.N,SYNC_PHASE3*%
X185801000Y-84582000D02*
X182245000Y-88138000D01*
X207296800Y-95663800D02*
X207296800Y-91472800D01*
X209695000Y-98062000D02*
X207296800Y-95663800D01*
X222631000Y-97409000D02*
X221978000Y-98062000D01*
X221978000Y-98062000D02*
X209695000Y-98062000D01*
X207296800Y-91472800D02*
X206121000Y-90297000D01*
X188849000Y-84582000D02*
X185801000Y-84582000D01*
%TO.N,SYNC_PHASE1*%
X173863000Y-94615000D02*
X177546000Y-90932000D01*
X177546000Y-90932000D02*
X179324000Y-90932000D01*
%TO.N,SYNC_PHASE2*%
X185039000Y-90170000D02*
X193675000Y-90170000D01*
X197358000Y-93853000D02*
X198247000Y-93853000D01*
X184531000Y-90678000D02*
X185039000Y-90170000D01*
X193675000Y-90170000D02*
X197358000Y-93853000D01*
%TD*%
M02*
