%TF.GenerationSoftware,KiCad,Pcbnew,9.0.0*%
%TF.CreationDate,2025-06-05T10:35:15-07:00*%
%TF.ProjectId,EPS_Scales_RevD,4550535f-5363-4616-9c65-735f52657644,rev?*%
%TF.SameCoordinates,Original*%
%TF.FileFunction,Soldermask,Top*%
%TF.FilePolarity,Negative*%
%FSLAX46Y46*%
G04 Gerber Fmt 4.6, Leading zero omitted, Abs format (unit mm)*
G04 Created by KiCad (PCBNEW 9.0.0) date 2025-06-05 10:35:15*
%MOMM*%
%LPD*%
G01*
G04 APERTURE LIST*
G04 Aperture macros list*
%AMRoundRect*
0 Rectangle with rounded corners*
0 $1 Rounding radius*
0 $2 $3 $4 $5 $6 $7 $8 $9 X,Y pos of 4 corners*
0 Add a 4 corners polygon primitive as box body*
4,1,4,$2,$3,$4,$5,$6,$7,$8,$9,$2,$3,0*
0 Add four circle primitives for the rounded corners*
1,1,$1+$1,$2,$3*
1,1,$1+$1,$4,$5*
1,1,$1+$1,$6,$7*
1,1,$1+$1,$8,$9*
0 Add four rect primitives between the rounded corners*
20,1,$1+$1,$2,$3,$4,$5,0*
20,1,$1+$1,$4,$5,$6,$7,0*
20,1,$1+$1,$6,$7,$8,$9,0*
20,1,$1+$1,$8,$9,$2,$3,0*%
%AMFreePoly0*
4,1,43,0.507071,0.757071,0.510000,0.750000,0.510000,-0.750000,0.507071,-0.757071,0.500000,-0.760000,0.000000,-0.760000,-0.007071,-0.757071,-0.007630,-0.755722,-0.065263,-0.755722,-0.067851,-0.755381,-0.193930,-0.721599,-0.196342,-0.720600,-0.309381,-0.655337,-0.311452,-0.653748,-0.403748,-0.561452,-0.405337,-0.559381,-0.470600,-0.446342,-0.471599,-0.443930,-0.505381,-0.317851,-0.505722,-0.315263,
-0.505722,-0.257629,-0.507071,-0.257071,-0.510000,-0.250000,-0.510000,0.250000,-0.507071,0.257071,-0.505722,0.257629,-0.505722,0.315263,-0.505381,0.317851,-0.471599,0.443930,-0.470600,0.446342,-0.405337,0.559381,-0.403748,0.561452,-0.311452,0.653748,-0.309381,0.655337,-0.196342,0.720600,-0.193930,0.721599,-0.067851,0.755381,-0.065263,0.755722,-0.007630,0.755722,-0.007071,0.757071,
0.000000,0.760000,0.500000,0.760000,0.507071,0.757071,0.507071,0.757071,$1*%
%AMFreePoly1*
4,1,43,0.007071,0.757071,0.007630,0.755722,0.065263,0.755722,0.067851,0.755381,0.193930,0.721599,0.196342,0.720600,0.309381,0.655337,0.311452,0.653748,0.403748,0.561452,0.405337,0.559381,0.470600,0.446342,0.471599,0.443930,0.505381,0.317851,0.505722,0.315263,0.505722,0.257629,0.507071,0.257071,0.510000,0.250000,0.510000,-0.250000,0.507071,-0.257071,0.505722,-0.257629,
0.505722,-0.315263,0.505381,-0.317851,0.471599,-0.443930,0.470600,-0.446342,0.405337,-0.559381,0.403748,-0.561452,0.311452,-0.653748,0.309381,-0.655337,0.196342,-0.720600,0.193930,-0.721599,0.067851,-0.755381,0.065263,-0.755722,0.007630,-0.755722,0.007071,-0.757071,0.000000,-0.760000,-0.500000,-0.760000,-0.507071,-0.757071,-0.510000,-0.750000,-0.510000,0.750000,-0.507071,0.757071,
-0.500000,0.760000,0.000000,0.760000,0.007071,0.757071,0.007071,0.757071,$1*%
G04 Aperture macros list end*
%ADD10RoundRect,0.010000X0.285000X0.270000X-0.285000X0.270000X-0.285000X-0.270000X0.285000X-0.270000X0*%
%ADD11RoundRect,0.010000X-0.500000X-0.500000X0.500000X-0.500000X0.500000X0.500000X-0.500000X0.500000X0*%
%ADD12RoundRect,0.102000X-0.260000X0.555000X-0.260000X-0.555000X0.260000X-0.555000X0.260000X0.555000X0*%
%ADD13RoundRect,0.010000X1.750000X0.600000X-1.750000X0.600000X-1.750000X-0.600000X1.750000X-0.600000X0*%
%ADD14RoundRect,0.010000X-0.400000X0.400000X-0.400000X-0.400000X0.400000X-0.400000X0.400000X0.400000X0*%
%ADD15RoundRect,0.010000X0.270000X-0.395000X0.270000X0.395000X-0.270000X0.395000X-0.270000X-0.395000X0*%
%ADD16RoundRect,0.254444X0.630556X-0.318056X0.630556X0.318056X-0.630556X0.318056X-0.630556X-0.318056X0*%
%ADD17RoundRect,0.205000X0.205000X0.280000X-0.205000X0.280000X-0.205000X-0.280000X0.205000X-0.280000X0*%
%ADD18RoundRect,0.205000X-0.280000X0.205000X-0.280000X-0.205000X0.280000X-0.205000X0.280000X0.205000X0*%
%ADD19RoundRect,0.010000X-0.285000X-0.270000X0.285000X-0.270000X0.285000X0.270000X-0.285000X0.270000X0*%
%ADD20RoundRect,0.254347X-1.105653X0.330653X-1.105653X-0.330653X1.105653X-0.330653X1.105653X0.330653X0*%
%ADD21RoundRect,0.223750X0.223750X0.261250X-0.223750X0.261250X-0.223750X-0.261250X0.223750X-0.261250X0*%
%ADD22RoundRect,0.010000X0.500000X0.500000X-0.500000X0.500000X-0.500000X-0.500000X0.500000X-0.500000X0*%
%ADD23RoundRect,0.010000X-0.500000X0.500000X-0.500000X-0.500000X0.500000X-0.500000X0.500000X0.500000X0*%
%ADD24C,5.020000*%
%ADD25RoundRect,0.254347X-0.330653X-1.105653X0.330653X-1.105653X0.330653X1.105653X-0.330653X1.105653X0*%
%ADD26RoundRect,0.010000X0.700000X0.700000X-0.700000X0.700000X-0.700000X-0.700000X0.700000X-0.700000X0*%
%ADD27C,1.420000*%
%ADD28RoundRect,0.010000X0.500000X-0.500000X0.500000X0.500000X-0.500000X0.500000X-0.500000X-0.500000X0*%
%ADD29RoundRect,0.010000X0.395000X0.270000X-0.395000X0.270000X-0.395000X-0.270000X0.395000X-0.270000X0*%
%ADD30RoundRect,0.010000X0.850000X-0.850000X0.850000X0.850000X-0.850000X0.850000X-0.850000X-0.850000X0*%
%ADD31O,1.720000X1.720000*%
%ADD32RoundRect,0.205000X-0.205000X-0.280000X0.205000X-0.280000X0.205000X0.280000X-0.205000X0.280000X0*%
%ADD33RoundRect,0.010000X-0.395000X-0.270000X0.395000X-0.270000X0.395000X0.270000X-0.395000X0.270000X0*%
%ADD34RoundRect,0.205000X0.280000X-0.205000X0.280000X0.205000X-0.280000X0.205000X-0.280000X-0.205000X0*%
%ADD35RoundRect,0.010000X-0.600000X1.750000X-0.600000X-1.750000X0.600000X-1.750000X0.600000X1.750000X0*%
%ADD36RoundRect,0.010000X-0.270000X0.395000X-0.270000X-0.395000X0.270000X-0.395000X0.270000X0.395000X0*%
%ADD37RoundRect,0.223750X0.261250X-0.223750X0.261250X0.223750X-0.261250X0.223750X-0.261250X-0.223750X0*%
%ADD38RoundRect,0.010000X1.750000X-1.750000X1.750000X1.750000X-1.750000X1.750000X-1.750000X-1.750000X0*%
%ADD39RoundRect,0.010000X-1.750000X1.750000X-1.750000X-1.750000X1.750000X-1.750000X1.750000X1.750000X0*%
%ADD40RoundRect,0.010000X0.270000X-0.285000X0.270000X0.285000X-0.270000X0.285000X-0.270000X-0.285000X0*%
%ADD41RoundRect,0.010000X1.095000X1.295000X-1.095000X1.295000X-1.095000X-1.295000X1.095000X-1.295000X0*%
%ADD42RoundRect,0.010000X0.600000X-1.750000X0.600000X1.750000X-0.600000X1.750000X-0.600000X-1.750000X0*%
%ADD43FreePoly0,180.000000*%
%ADD44FreePoly1,180.000000*%
%ADD45RoundRect,0.010000X1.750000X-2.000000X1.750000X2.000000X-1.750000X2.000000X-1.750000X-2.000000X0*%
%ADD46O,1.770000X0.360000*%
%ADD47RoundRect,0.010000X-1.250000X-1.450000X1.250000X-1.450000X1.250000X1.450000X-1.250000X1.450000X0*%
%ADD48O,1.470000X0.400000*%
%ADD49RoundRect,0.010000X0.140000X0.290000X-0.140000X0.290000X-0.140000X-0.290000X0.140000X-0.290000X0*%
%ADD50RoundRect,0.010000X2.375000X0.850000X-2.375000X0.850000X-2.375000X-0.850000X2.375000X-0.850000X0*%
%ADD51RoundRect,0.010000X0.290000X0.140000X-0.290000X0.140000X-0.290000X-0.140000X0.290000X-0.140000X0*%
%ADD52RoundRect,0.010000X-0.780000X0.180000X-0.780000X-0.180000X0.780000X-0.180000X0.780000X0.180000X0*%
%ADD53O,0.300000X1.640000*%
%ADD54RoundRect,0.010000X-0.270000X0.285000X-0.270000X-0.285000X0.270000X-0.285000X0.270000X0.285000X0*%
%ADD55RoundRect,0.105000X-0.642500X-0.105000X0.642500X-0.105000X0.642500X0.105000X-0.642500X0.105000X0*%
%ADD56O,1.320000X2.220000*%
%ADD57C,3.820000*%
%ADD58RoundRect,0.010000X-1.750000X-1.750000X1.750000X-1.750000X1.750000X1.750000X-1.750000X1.750000X0*%
%ADD59RoundRect,0.254347X0.330653X1.105653X-0.330653X1.105653X-0.330653X-1.105653X0.330653X-1.105653X0*%
G04 APERTURE END LIST*
%TO.C,JP1*%
G36*
X230067100Y-68475400D02*
G01*
X229767100Y-68475400D01*
X229767100Y-66975400D01*
X230067100Y-66975400D01*
X230067100Y-68475400D01*
G37*
%TO.C,JP2*%
G36*
X200653900Y-63878000D02*
G01*
X200353900Y-63878000D01*
X200353900Y-62378000D01*
X200653900Y-62378000D01*
X200653900Y-63878000D01*
G37*
%TO.C,JP5*%
G36*
X168866574Y-54637400D02*
G01*
X168566574Y-54637400D01*
X168566574Y-53137400D01*
X168866574Y-53137400D01*
X168866574Y-54637400D01*
G37*
%TD*%
D10*
%TO.C,R103*%
X205185000Y-107188000D03*
X204325000Y-107188000D03*
%TD*%
D11*
%TO.C,TP17*%
X197781000Y-121031000D03*
%TD*%
D12*
%TO.C,D12*%
X161137674Y-60510800D03*
X161137674Y-62840800D03*
%TD*%
%TO.C,D3*%
X222338200Y-74348800D03*
X222338200Y-76678800D03*
%TD*%
D13*
%TO.C,C43*%
X189995000Y-61341000D03*
X184655000Y-61341000D03*
%TD*%
D14*
%TO.C,D17*%
X165409200Y-94684200D03*
X163809200Y-94684200D03*
%TD*%
D12*
%TO.C,D10*%
X164292874Y-70112000D03*
X164292874Y-72442000D03*
%TD*%
D15*
%TO.C,C28*%
X173791200Y-99933200D03*
X173791200Y-98833200D03*
%TD*%
D16*
%TO.C,R11*%
X225346600Y-81853100D03*
X225346600Y-78928100D03*
%TD*%
D17*
%TO.C,R91*%
X182028674Y-59897800D03*
X180378674Y-59897800D03*
%TD*%
D18*
%TO.C,R93*%
X181356074Y-55161200D03*
X181356074Y-56811200D03*
%TD*%
D19*
%TO.C,R104*%
X204325000Y-105791000D03*
X205185000Y-105791000D03*
%TD*%
D11*
%TO.C,TP36*%
X165816874Y-51720200D03*
%TD*%
D20*
%TO.C,C3*%
X222293000Y-48529700D03*
X222293000Y-51479700D03*
%TD*%
D21*
%TO.C,D7*%
X204923800Y-87630000D03*
X203348800Y-87630000D03*
%TD*%
D22*
%TO.C,TP47*%
X230563700Y-65357400D03*
%TD*%
D19*
%TO.C,R58*%
X164168200Y-93033200D03*
X165028200Y-93033200D03*
%TD*%
%TO.C,R61*%
X174709200Y-90874200D03*
X175569200Y-90874200D03*
%TD*%
D23*
%TO.C,TP29*%
X230172600Y-93053000D03*
%TD*%
D24*
%TO.C,J3*%
X160012800Y-37000000D03*
%TD*%
D14*
%TO.C,D9*%
X191293000Y-93599000D03*
X189693000Y-93599000D03*
%TD*%
D25*
%TO.C,C67*%
X163015474Y-54513000D03*
X165965474Y-54513000D03*
%TD*%
D26*
%TO.C,CN1*%
X193941000Y-115729000D03*
D27*
X193941000Y-117729000D03*
X195941000Y-115729000D03*
X195941000Y-117729000D03*
X197941000Y-115729000D03*
X197941000Y-117729000D03*
X199941000Y-115729000D03*
X199941000Y-117729000D03*
X201941000Y-115729000D03*
X201941000Y-117729000D03*
X203941000Y-115729000D03*
X203941000Y-117729000D03*
X205941000Y-115729000D03*
X205941000Y-117729000D03*
X207941000Y-115729000D03*
X207941000Y-117729000D03*
%TD*%
D18*
%TO.C,R26*%
X224107000Y-73861000D03*
X224107000Y-75511000D03*
%TD*%
D28*
%TO.C,TP50*%
X183184874Y-56443400D03*
%TD*%
D20*
%TO.C,C9*%
X207301400Y-62939000D03*
X207301400Y-65889000D03*
%TD*%
D29*
%TO.C,C5*%
X220914400Y-86689800D03*
X219814400Y-86689800D03*
%TD*%
D30*
%TO.C,J8*%
X229258200Y-89255200D03*
D31*
X231798200Y-89255200D03*
X234338200Y-89255200D03*
X236878200Y-89255200D03*
%TD*%
D32*
%TO.C,R97*%
X162864874Y-63199800D03*
X164514874Y-63199800D03*
%TD*%
%TO.C,R42*%
X167632200Y-78555200D03*
X169282200Y-78555200D03*
%TD*%
D33*
%TO.C,C50*%
X208438000Y-97028000D03*
X209538000Y-97028000D03*
%TD*%
D17*
%TO.C,R92*%
X182016874Y-58290600D03*
X180366874Y-58290600D03*
%TD*%
D34*
%TO.C,R69*%
X196277800Y-70913600D03*
X196277800Y-69263600D03*
%TD*%
D10*
%TO.C,R107*%
X162869200Y-93033200D03*
X162009200Y-93033200D03*
%TD*%
D19*
%TO.C,R41*%
X164168200Y-90366200D03*
X165028200Y-90366200D03*
%TD*%
D20*
%TO.C,C66*%
X172161274Y-53698400D03*
X172161274Y-56648400D03*
%TD*%
D35*
%TO.C,C47*%
X220255400Y-78737000D03*
X220255400Y-84077000D03*
%TD*%
D36*
%TO.C,C24*%
X162234200Y-94473200D03*
X162234200Y-95573200D03*
%TD*%
D20*
%TO.C,C2*%
X226543000Y-48529700D03*
X226543000Y-51479700D03*
%TD*%
D33*
%TO.C,C32*%
X183147200Y-95827200D03*
X184247200Y-95827200D03*
%TD*%
D17*
%TO.C,R12*%
X228938400Y-78815800D03*
X227288400Y-78815800D03*
%TD*%
D37*
%TO.C,D11*%
X183683174Y-76315500D03*
X183683174Y-74740500D03*
%TD*%
D38*
%TO.C,L1*%
X214656200Y-106349400D03*
D39*
X224556200Y-106349400D03*
%TD*%
D11*
%TO.C,TP21*%
X206417000Y-121031000D03*
%TD*%
D19*
%TO.C,R56*%
X227355000Y-105739800D03*
X228215000Y-105739800D03*
%TD*%
D22*
%TO.C,TP1*%
X221638200Y-120878200D03*
%TD*%
D19*
%TO.C,R50*%
X213689800Y-91744400D03*
X214549800Y-91744400D03*
%TD*%
D20*
%TO.C,C65*%
X175514074Y-53698400D03*
X175514074Y-56648400D03*
%TD*%
%TO.C,C17*%
X203948600Y-62939000D03*
X203948600Y-65889000D03*
%TD*%
D33*
%TO.C,C31*%
X183147200Y-94557200D03*
X184247200Y-94557200D03*
%TD*%
D18*
%TO.C,R20*%
X242556600Y-68999200D03*
X242556600Y-70649200D03*
%TD*%
D19*
%TO.C,R5*%
X213693400Y-93039800D03*
X214553400Y-93039800D03*
%TD*%
D22*
%TO.C,TP2*%
X223771800Y-120878200D03*
%TD*%
D10*
%TO.C,R77*%
X190453000Y-92075000D03*
X189593000Y-92075000D03*
%TD*%
D11*
%TO.C,TP37*%
X190023000Y-85217000D03*
%TD*%
D40*
%TO.C,R72*%
X199423300Y-61162800D03*
X199423300Y-60302800D03*
%TD*%
D30*
%TO.C,J7*%
X202383800Y-84709000D03*
D31*
X204923800Y-84709000D03*
X207463800Y-84709000D03*
X210003800Y-84709000D03*
%TD*%
D24*
%TO.C,J2*%
X160012800Y-117000000D03*
%TD*%
D41*
%TO.C,C53*%
X204363000Y-110490000D03*
X211243000Y-110490000D03*
%TD*%
D20*
%TO.C,C21*%
X233361800Y-67536400D03*
X233361800Y-70486400D03*
%TD*%
D18*
%TO.C,R70*%
X194693800Y-69263600D03*
X194693800Y-70913600D03*
%TD*%
D29*
%TO.C,C25*%
X171745200Y-94811200D03*
X170645200Y-94811200D03*
%TD*%
D34*
%TO.C,R9*%
X197852600Y-67826200D03*
X197852600Y-66176200D03*
%TD*%
D11*
%TO.C,TP5*%
X198766000Y-79400000D03*
%TD*%
D10*
%TO.C,R52*%
X221130200Y-95605200D03*
X220270200Y-95605200D03*
%TD*%
D34*
%TO.C,R25*%
X225691000Y-75511000D03*
X225691000Y-73861000D03*
%TD*%
%TO.C,R67*%
X197852600Y-70940800D03*
X197852600Y-69290800D03*
%TD*%
D42*
%TO.C,C6*%
X204089000Y-80775000D03*
X204089000Y-75435000D03*
%TD*%
D33*
%TO.C,C15*%
X232329800Y-98446600D03*
X233429800Y-98446600D03*
%TD*%
D11*
%TO.C,TP19*%
X202099000Y-121031000D03*
%TD*%
D17*
%TO.C,R18*%
X243229200Y-73735800D03*
X241579200Y-73735800D03*
%TD*%
D41*
%TO.C,C55*%
X227291400Y-110311800D03*
X234171400Y-110311800D03*
%TD*%
D43*
%TO.C,JP1*%
X230567100Y-67725400D03*
D44*
X229267100Y-67725400D03*
%TD*%
D45*
%TO.C,L3*%
X189611000Y-106426000D03*
X201611000Y-106426000D03*
%TD*%
D10*
%TO.C,R54*%
X217026400Y-96358577D03*
X216166400Y-96358577D03*
%TD*%
D46*
%TO.C,U15*%
X216647400Y-87864200D03*
X216647400Y-88514200D03*
X216647400Y-89164200D03*
X216647400Y-89824200D03*
X216647400Y-90474200D03*
X216647400Y-91124200D03*
X216647400Y-91774200D03*
X216647400Y-92424200D03*
X222387400Y-91124200D03*
X222387400Y-91774200D03*
X222387400Y-92424200D03*
X222387400Y-90474200D03*
X222387400Y-89824200D03*
X222387400Y-89164200D03*
X222387400Y-88514200D03*
X222387400Y-87864200D03*
D47*
X219517400Y-90144200D03*
%TD*%
D41*
%TO.C,C48*%
X204363000Y-102362000D03*
X211243000Y-102362000D03*
%TD*%
D34*
%TO.C,R90*%
X182006774Y-76353000D03*
X182006774Y-74703000D03*
%TD*%
D32*
%TO.C,R21*%
X227303400Y-80441400D03*
X228953400Y-80441400D03*
%TD*%
D10*
%TO.C,R62*%
X171548000Y-96081200D03*
X170688000Y-96081200D03*
%TD*%
D29*
%TO.C,C39*%
X197135000Y-93599000D03*
X196035000Y-93599000D03*
%TD*%
D11*
%TO.C,TP32*%
X175100200Y-92652200D03*
%TD*%
D36*
%TO.C,C11*%
X215745400Y-98890600D03*
X215745400Y-99990600D03*
%TD*%
D43*
%TO.C,JP2*%
X201153900Y-63128000D03*
D44*
X199853900Y-63128000D03*
%TD*%
D43*
%TO.C,JP5*%
X169366574Y-53887400D03*
D44*
X168066574Y-53887400D03*
%TD*%
D36*
%TO.C,C14*%
X229512200Y-105850200D03*
X229512200Y-106950200D03*
%TD*%
D22*
%TO.C,TP15*%
X201150500Y-60760000D03*
%TD*%
D28*
%TO.C,TP13*%
X230669400Y-70281400D03*
%TD*%
D20*
%TO.C,C1*%
X230793000Y-48529700D03*
X230793000Y-51479700D03*
%TD*%
D32*
%TO.C,R24*%
X224065400Y-77037800D03*
X225715400Y-77037800D03*
%TD*%
D19*
%TO.C,R81*%
X200339000Y-87249000D03*
X201199000Y-87249000D03*
%TD*%
D48*
%TO.C,U9*%
X175252200Y-80097400D03*
X175252200Y-79437400D03*
X175252200Y-78787400D03*
X175252200Y-78137400D03*
X170852200Y-78137400D03*
X170852200Y-78787400D03*
X170852200Y-79437400D03*
X170852200Y-80097400D03*
%TD*%
D19*
%TO.C,R59*%
X174748200Y-88334200D03*
X175608200Y-88334200D03*
%TD*%
%TO.C,R7*%
X224435800Y-88290000D03*
X225295800Y-88290000D03*
%TD*%
D22*
%TO.C,TP44*%
X217371000Y-120878200D03*
%TD*%
D10*
%TO.C,R76*%
X190463629Y-89524323D03*
X189603629Y-89524323D03*
%TD*%
D33*
%TO.C,C13*%
X223840200Y-100101000D03*
X224940200Y-100101000D03*
%TD*%
D49*
%TO.C,U3*%
X171850200Y-97455200D03*
X171350200Y-97455200D03*
X170850200Y-97455200D03*
X170350200Y-97455200D03*
X169850200Y-97455200D03*
X169350200Y-97455200D03*
X168850200Y-97455200D03*
X168350200Y-97455200D03*
X167850200Y-97455200D03*
X167350200Y-97455200D03*
D50*
X169600200Y-98875200D03*
D51*
X166680200Y-99625200D03*
X166680200Y-99125200D03*
X166680200Y-98625200D03*
X166680200Y-98125200D03*
D49*
X169350200Y-100295200D03*
X168850200Y-100295200D03*
X168350200Y-100295200D03*
X167850200Y-100295200D03*
X167350200Y-100295200D03*
X169850200Y-100295200D03*
X170350200Y-100295200D03*
X170850200Y-100295200D03*
X171350200Y-100295200D03*
X171850200Y-100295200D03*
D51*
X172520200Y-99625200D03*
X172520200Y-99125200D03*
X172520200Y-98625200D03*
X172520200Y-98125200D03*
%TD*%
D19*
%TO.C,R82*%
X189593000Y-90805000D03*
X190453000Y-90805000D03*
%TD*%
D25*
%TO.C,C18*%
X239608400Y-76174200D03*
X242558400Y-76174200D03*
%TD*%
D20*
%TO.C,C64*%
X178859274Y-53690200D03*
X178859274Y-56640200D03*
%TD*%
D52*
%TO.C,U16*%
X201086000Y-93160000D03*
X201086000Y-93810000D03*
X201086000Y-94460000D03*
X201086000Y-95110000D03*
X201086000Y-95770000D03*
X206646000Y-96420000D03*
X201086000Y-96420000D03*
X201086000Y-97070000D03*
X201086000Y-97720000D03*
X206646000Y-97720000D03*
X206646000Y-97070000D03*
X206646000Y-95770000D03*
X206646000Y-95110000D03*
X206646000Y-93160000D03*
X206646000Y-93810000D03*
X206646000Y-94460000D03*
%TD*%
D37*
%TO.C,D2*%
X238148200Y-112902700D03*
X238148200Y-111327700D03*
%TD*%
D25*
%TO.C,C37*%
X171046200Y-85667200D03*
X173996200Y-85667200D03*
%TD*%
D11*
%TO.C,TP20*%
X204258000Y-121031000D03*
%TD*%
D34*
%TO.C,R44*%
X169473200Y-83317200D03*
X169473200Y-81667200D03*
%TD*%
D32*
%TO.C,R68*%
X194652200Y-72440400D03*
X196302200Y-72440400D03*
%TD*%
D17*
%TO.C,R85*%
X167737874Y-64977800D03*
X166087874Y-64977800D03*
%TD*%
%TO.C,R95*%
X167576000Y-63199800D03*
X165926000Y-63199800D03*
%TD*%
D19*
%TO.C,R28*%
X213691600Y-89128200D03*
X214551600Y-89128200D03*
%TD*%
D26*
%TO.C,J6*%
X217167800Y-115696600D03*
D27*
X217167800Y-117696600D03*
X219167800Y-115696600D03*
X219167800Y-117696600D03*
X221167800Y-115696600D03*
X221167800Y-117696600D03*
X223167800Y-115696600D03*
X223167800Y-117696600D03*
X225167800Y-115696600D03*
X225167800Y-117696600D03*
X227167800Y-115696600D03*
X227167800Y-117696600D03*
X229167800Y-115696600D03*
X229167800Y-117696600D03*
X231167800Y-115696600D03*
X231167800Y-117696600D03*
%TD*%
D36*
%TO.C,C4*%
X218323600Y-94411400D03*
X218323600Y-95511400D03*
%TD*%
D11*
%TO.C,TP35*%
X173664200Y-95954200D03*
%TD*%
D53*
%TO.C,U7*%
X177816000Y-92407000D03*
X178316000Y-92407000D03*
X178816000Y-92407000D03*
X179316000Y-92407000D03*
X179816000Y-92407000D03*
X179816000Y-88187000D03*
X179316000Y-88187000D03*
X178816000Y-88187000D03*
X178316000Y-88187000D03*
X177816000Y-88187000D03*
%TD*%
D33*
%TO.C,C41*%
X199760000Y-98933000D03*
X200860000Y-98933000D03*
%TD*%
D40*
%TO.C,R1*%
X228836500Y-65760200D03*
X228836500Y-64900200D03*
%TD*%
D34*
%TO.C,R34*%
X177855200Y-86619200D03*
X177855200Y-84969200D03*
%TD*%
D54*
%TO.C,R63*%
X166933200Y-94254200D03*
X166933200Y-95114200D03*
%TD*%
D41*
%TO.C,C52*%
X177463200Y-102050200D03*
X184343200Y-102050200D03*
%TD*%
D25*
%TO.C,C22*%
X224216000Y-68351000D03*
X227166000Y-68351000D03*
%TD*%
D10*
%TO.C,R55*%
X228215000Y-107060600D03*
X227355000Y-107060600D03*
%TD*%
D11*
%TO.C,TP38*%
X214107200Y-86131000D03*
%TD*%
D20*
%TO.C,C20*%
X236714600Y-67536400D03*
X236714600Y-70486400D03*
%TD*%
D55*
%TO.C,U6*%
X201492500Y-68458400D03*
X201492500Y-69108400D03*
X201492500Y-69758400D03*
X201492500Y-70408400D03*
X201492500Y-71058400D03*
X201492500Y-71708400D03*
X201492500Y-72358400D03*
X207217500Y-72358400D03*
X207217500Y-71708400D03*
X207217500Y-71058400D03*
X207217500Y-70408400D03*
X207217500Y-69758400D03*
X207217500Y-69108400D03*
X207217500Y-68458400D03*
%TD*%
D56*
%TO.C,U8*%
X219901000Y-37815000D03*
X233401000Y-37815000D03*
D57*
X223051000Y-43815000D03*
X230251000Y-43815000D03*
%TD*%
D23*
%TO.C,TP52*%
X159054874Y-60405800D03*
%TD*%
D11*
%TO.C,TP26*%
X224826000Y-92735000D03*
%TD*%
%TO.C,TP34*%
X183443200Y-97605200D03*
%TD*%
D18*
%TO.C,R14*%
X225681800Y-70765000D03*
X225681800Y-72415000D03*
%TD*%
D19*
%TO.C,R6*%
X213690635Y-90456660D03*
X214550635Y-90456660D03*
%TD*%
D11*
%TO.C,TP10*%
X228179200Y-83997400D03*
%TD*%
D12*
%TO.C,D1*%
X225493400Y-83950000D03*
X225493400Y-86280000D03*
%TD*%
D18*
%TO.C,R16*%
X222541400Y-70773600D03*
X222541400Y-72423600D03*
%TD*%
D15*
%TO.C,C26*%
X179760200Y-106622200D03*
X179760200Y-105522200D03*
%TD*%
D17*
%TO.C,R33*%
X213816000Y-69138400D03*
X212166000Y-69138400D03*
%TD*%
D25*
%TO.C,C7*%
X210195200Y-71501000D03*
X213145200Y-71501000D03*
%TD*%
D26*
%TO.C,J10*%
X169157200Y-115798200D03*
D27*
X169157200Y-117798200D03*
X171157200Y-115798200D03*
X171157200Y-117798200D03*
X173157200Y-115798200D03*
X173157200Y-117798200D03*
X175157200Y-115798200D03*
X175157200Y-117798200D03*
X177157200Y-115798200D03*
X177157200Y-117798200D03*
X179157200Y-115798200D03*
X179157200Y-117798200D03*
X181157200Y-115798200D03*
X181157200Y-117798200D03*
X183157200Y-115798200D03*
X183157200Y-117798200D03*
%TD*%
D28*
%TO.C,TP11*%
X239813400Y-73431000D03*
%TD*%
D22*
%TO.C,TP45*%
X219504600Y-120878200D03*
%TD*%
D28*
%TO.C,TP51*%
X169468874Y-56443400D03*
%TD*%
D12*
%TO.C,D6*%
X196080200Y-79352600D03*
X196080200Y-81682600D03*
%TD*%
D32*
%TO.C,R71*%
X197890200Y-77469600D03*
X199540200Y-77469600D03*
%TD*%
D22*
%TO.C,TP46*%
X230172600Y-120878200D03*
%TD*%
D34*
%TO.C,R30*%
X194703000Y-67817600D03*
X194703000Y-66167600D03*
%TD*%
D24*
%TO.C,J5*%
X240012800Y-37000000D03*
%TD*%
D17*
%TO.C,R8*%
X199525200Y-74218400D03*
X197875200Y-74218400D03*
%TD*%
D32*
%TO.C,R100*%
X166102874Y-68229000D03*
X167752874Y-68229000D03*
%TD*%
D11*
%TO.C,TP23*%
X171378200Y-120973200D03*
%TD*%
D28*
%TO.C,TP6*%
X210400200Y-68833600D03*
%TD*%
D10*
%TO.C,R101*%
X192866000Y-95377000D03*
X192006000Y-95377000D03*
%TD*%
D11*
%TO.C,TP25*%
X222743200Y-86334200D03*
%TD*%
D25*
%TO.C,C63*%
X178407874Y-62336200D03*
X181357874Y-62336200D03*
%TD*%
D33*
%TO.C,C51*%
X208354000Y-94869000D03*
X209454000Y-94869000D03*
%TD*%
D29*
%TO.C,C10*%
X221079400Y-94284400D03*
X219979400Y-94284400D03*
%TD*%
D55*
%TO.C,U4*%
X230905700Y-73055800D03*
X230905700Y-73705800D03*
X230905700Y-74355800D03*
X230905700Y-75005800D03*
X230905700Y-75655800D03*
X230905700Y-76305800D03*
X230905700Y-76955800D03*
X236630700Y-76955800D03*
X236630700Y-76305800D03*
X236630700Y-75655800D03*
X236630700Y-75005800D03*
X236630700Y-74355800D03*
X236630700Y-73705800D03*
X236630700Y-73055800D03*
%TD*%
D20*
%TO.C,C8*%
X210646600Y-62930800D03*
X210646600Y-65880800D03*
%TD*%
D17*
%TO.C,R22*%
X228790000Y-77037800D03*
X227140000Y-77037800D03*
%TD*%
D19*
%TO.C,R4*%
X224410400Y-90931600D03*
X225270400Y-90931600D03*
%TD*%
D34*
%TO.C,R86*%
X166065274Y-58585600D03*
X166065274Y-56935600D03*
%TD*%
D11*
%TO.C,TP33*%
X184078200Y-106495200D03*
%TD*%
D41*
%TO.C,C54*%
X227342200Y-102488600D03*
X234222200Y-102488600D03*
%TD*%
D30*
%TO.C,J18*%
X170596474Y-75468400D03*
D31*
X173136474Y-75468400D03*
X175676474Y-75468400D03*
X178216474Y-75468400D03*
%TD*%
D34*
%TO.C,R35*%
X176290200Y-86619200D03*
X176290200Y-84969200D03*
%TD*%
D46*
%TO.C,U17*%
X167238200Y-88213200D03*
X167238200Y-88863200D03*
X167238200Y-89513200D03*
X167238200Y-90173200D03*
X167238200Y-90823200D03*
X167238200Y-91473200D03*
X167238200Y-92123200D03*
X167238200Y-92773200D03*
X172978200Y-91473200D03*
X172978200Y-92123200D03*
X172978200Y-92773200D03*
X172978200Y-90823200D03*
X172978200Y-90173200D03*
X172978200Y-89513200D03*
X172978200Y-88863200D03*
X172978200Y-88213200D03*
D47*
X170108200Y-90493200D03*
%TD*%
D24*
%TO.C,J4*%
X240030000Y-116967000D03*
%TD*%
D18*
%TO.C,R31*%
X193128200Y-66176200D03*
X193128200Y-67826200D03*
%TD*%
D36*
%TO.C,C23*%
X168330200Y-94515200D03*
X168330200Y-95615200D03*
%TD*%
D14*
%TO.C,D4*%
X215427800Y-94640000D03*
X213827800Y-94640000D03*
%TD*%
D19*
%TO.C,R108*%
X164168200Y-91636200D03*
X165028200Y-91636200D03*
%TD*%
%TO.C,R66*%
X177601200Y-105352200D03*
X178461200Y-105352200D03*
%TD*%
D23*
%TO.C,TP27*%
X222806600Y-95935400D03*
%TD*%
D34*
%TO.C,R45*%
X175569200Y-83317200D03*
X175569200Y-81667200D03*
%TD*%
D11*
%TO.C,TP39*%
X199294000Y-85471000D03*
%TD*%
D54*
%TO.C,R83*%
X192866000Y-93247000D03*
X192866000Y-94107000D03*
%TD*%
%TO.C,R53*%
X217002800Y-94235400D03*
X217002800Y-95095400D03*
%TD*%
D10*
%TO.C,R102*%
X197262000Y-94869000D03*
X196402000Y-94869000D03*
%TD*%
D19*
%TO.C,R79*%
X200339000Y-88646000D03*
X201199000Y-88646000D03*
%TD*%
D34*
%TO.C,R46*%
X172521200Y-83317200D03*
X172521200Y-81667200D03*
%TD*%
D42*
%TO.C,C42*%
X173609000Y-71631000D03*
X173609000Y-66291000D03*
%TD*%
D28*
%TO.C,TP7*%
X214972200Y-65684000D03*
%TD*%
D15*
%TO.C,C49*%
X206533000Y-106976000D03*
X206533000Y-105876000D03*
%TD*%
D35*
%TO.C,C46*%
X241300000Y-80007000D03*
X241300000Y-85347000D03*
%TD*%
D23*
%TO.C,TP9*%
X190842200Y-69646400D03*
%TD*%
D52*
%TO.C,U2*%
X224852600Y-94569800D03*
X224852600Y-95219800D03*
X224852600Y-95869800D03*
X224852600Y-96519800D03*
X224852600Y-97179800D03*
X230412600Y-97829800D03*
X224852600Y-97829800D03*
X224852600Y-98479800D03*
X224852600Y-99129800D03*
X230412600Y-99129800D03*
X230412600Y-98479800D03*
X230412600Y-97179800D03*
X230412600Y-96519800D03*
X230412600Y-94569800D03*
X230412600Y-95219800D03*
X230412600Y-95869800D03*
%TD*%
D42*
%TO.C,C35*%
X211836000Y-80775000D03*
X211836000Y-75435000D03*
%TD*%
D28*
%TO.C,TP8*%
X201256200Y-65684000D03*
%TD*%
D34*
%TO.C,R47*%
X170997200Y-83317200D03*
X170997200Y-81667200D03*
%TD*%
D18*
%TO.C,R87*%
X164481274Y-56927000D03*
X164481274Y-58577000D03*
%TD*%
D36*
%TO.C,C40*%
X191547000Y-98002000D03*
X191547000Y-99102000D03*
%TD*%
D11*
%TO.C,TP48*%
X166978674Y-70159400D03*
%TD*%
D41*
%TO.C,C56*%
X177474200Y-110051200D03*
X184354200Y-110051200D03*
%TD*%
D11*
%TO.C,TP31*%
X163631200Y-97478200D03*
%TD*%
D18*
%TO.C,R39*%
X213143400Y-64401800D03*
X213143400Y-66051800D03*
%TD*%
D58*
%TO.C,L2*%
X164420200Y-106368200D03*
X174780200Y-106368200D03*
%TD*%
D18*
%TO.C,R29*%
X196268600Y-66167600D03*
X196268600Y-67817600D03*
%TD*%
D20*
%TO.C,C19*%
X240059800Y-67528200D03*
X240059800Y-70478200D03*
%TD*%
D28*
%TO.C,TP12*%
X244385400Y-70281400D03*
%TD*%
D11*
%TO.C,TP22*%
X169092200Y-120973200D03*
%TD*%
D19*
%TO.C,R3*%
X224408600Y-89636200D03*
X225268600Y-89636200D03*
%TD*%
D32*
%TO.C,R27*%
X227303400Y-82067000D03*
X228953400Y-82067000D03*
%TD*%
D49*
%TO.C,U1*%
X222001955Y-97432710D03*
X221501955Y-97432710D03*
X221001955Y-97432710D03*
X220501955Y-97432710D03*
X220001955Y-97432710D03*
X219501955Y-97432710D03*
X219001955Y-97432710D03*
X218501955Y-97432710D03*
X218001955Y-97432710D03*
X217501955Y-97432710D03*
D50*
X219751955Y-98852710D03*
D51*
X216831955Y-99602710D03*
X216831955Y-99102710D03*
X216831955Y-98602710D03*
X216831955Y-98102710D03*
D49*
X219501955Y-100272710D03*
X219001955Y-100272710D03*
X218501955Y-100272710D03*
X218001955Y-100272710D03*
X217501955Y-100272710D03*
X220001955Y-100272710D03*
X220501955Y-100272710D03*
X221001955Y-100272710D03*
X221501955Y-100272710D03*
X222001955Y-100272710D03*
D51*
X222671955Y-99602710D03*
X222671955Y-99102710D03*
X222671955Y-98602710D03*
X222671955Y-98102710D03*
%TD*%
D22*
%TO.C,TP53*%
X169363174Y-51519400D03*
%TD*%
D23*
%TO.C,TP14*%
X220255400Y-74243800D03*
%TD*%
D34*
%TO.C,R48*%
X174045200Y-83317200D03*
X174045200Y-81667200D03*
%TD*%
D11*
%TO.C,TP24*%
X177093200Y-120973200D03*
%TD*%
D55*
%TO.C,U14*%
X169705174Y-59217800D03*
X169705174Y-59867800D03*
X169705174Y-60517800D03*
X169705174Y-61167800D03*
X169705174Y-61817800D03*
X169705174Y-62467800D03*
X169705174Y-63117800D03*
X175430174Y-63117800D03*
X175430174Y-62467800D03*
X175430174Y-61817800D03*
X175430174Y-61167800D03*
X175430174Y-60517800D03*
X175430174Y-59867800D03*
X175430174Y-59217800D03*
%TD*%
D19*
%TO.C,R60*%
X174719200Y-89604200D03*
X175579200Y-89604200D03*
%TD*%
D46*
%TO.C,U12*%
X192741000Y-87001000D03*
X192741000Y-87651000D03*
X192741000Y-88301000D03*
X192741000Y-88961000D03*
X192741000Y-89611000D03*
X192741000Y-90261000D03*
X192741000Y-90911000D03*
X192741000Y-91561000D03*
X198481000Y-90261000D03*
X198481000Y-90911000D03*
X198481000Y-91561000D03*
X198481000Y-89611000D03*
X198481000Y-88961000D03*
X198481000Y-88301000D03*
X198481000Y-87651000D03*
X198481000Y-87001000D03*
D47*
X195611000Y-89281000D03*
%TD*%
D34*
%TO.C,R96*%
X166065274Y-61700200D03*
X166065274Y-60050200D03*
%TD*%
D17*
%TO.C,R32*%
X204961300Y-89306400D03*
X203311300Y-89306400D03*
%TD*%
D33*
%TO.C,C16*%
X232041600Y-96160600D03*
X233141600Y-96160600D03*
%TD*%
D19*
%TO.C,R80*%
X200339000Y-89916000D03*
X201199000Y-89916000D03*
%TD*%
D32*
%TO.C,R94*%
X166102874Y-66603400D03*
X167752874Y-66603400D03*
%TD*%
D18*
%TO.C,R99*%
X162906474Y-60023000D03*
X162906474Y-61673000D03*
%TD*%
D10*
%TO.C,R65*%
X178461200Y-106749200D03*
X177601200Y-106749200D03*
%TD*%
D32*
%TO.C,R49*%
X197890200Y-75844000D03*
X199540200Y-75844000D03*
%TD*%
D11*
%TO.C,TP16*%
X193590000Y-121031000D03*
%TD*%
D13*
%TO.C,C34*%
X192411000Y-77216000D03*
X187071000Y-77216000D03*
%TD*%
D34*
%TO.C,R13*%
X227265800Y-72423600D03*
X227265800Y-70773600D03*
%TD*%
%TO.C,R23*%
X227265800Y-75538200D03*
X227265800Y-73888200D03*
%TD*%
D12*
%TO.C,D8*%
X192925000Y-69751400D03*
X192925000Y-72081400D03*
%TD*%
D42*
%TO.C,C44*%
X181483000Y-71634000D03*
X181483000Y-66294000D03*
%TD*%
D34*
%TO.C,R88*%
X162915674Y-58577000D03*
X162915674Y-56927000D03*
%TD*%
%TO.C,R98*%
X164490474Y-61673000D03*
X164490474Y-60023000D03*
%TD*%
D17*
%TO.C,R51*%
X199451800Y-72440400D03*
X197801800Y-72440400D03*
%TD*%
D18*
%TO.C,R89*%
X161340874Y-56935600D03*
X161340874Y-58585600D03*
%TD*%
D11*
%TO.C,TP18*%
X199940000Y-121031000D03*
%TD*%
D35*
%TO.C,C45*%
X233553000Y-80007000D03*
X233553000Y-85347000D03*
%TD*%
D28*
%TO.C,TP49*%
X178612874Y-59593000D03*
%TD*%
D16*
%TO.C,R84*%
X164146074Y-68015100D03*
X164146074Y-65090100D03*
%TD*%
D25*
%TO.C,C33*%
X194802800Y-63753600D03*
X197752800Y-63753600D03*
%TD*%
D10*
%TO.C,R75*%
X190468866Y-88245353D03*
X189608866Y-88245353D03*
%TD*%
%TO.C,R64*%
X166957400Y-96394200D03*
X166097400Y-96394200D03*
%TD*%
D11*
%TO.C,TP40*%
X200564000Y-91694000D03*
%TD*%
D22*
%TO.C,TP3*%
X225905400Y-120878200D03*
%TD*%
D32*
%TO.C,R43*%
X167632200Y-80079200D03*
X169282200Y-80079200D03*
%TD*%
D19*
%TO.C,R57*%
X164168200Y-89096200D03*
X165028200Y-89096200D03*
%TD*%
D36*
%TO.C,C27*%
X165536200Y-98791200D03*
X165536200Y-99891200D03*
%TD*%
D22*
%TO.C,TP4*%
X228039000Y-120878200D03*
%TD*%
D52*
%TO.C,U5*%
X175583200Y-94245200D03*
X175583200Y-94895200D03*
X175583200Y-95545200D03*
X175583200Y-96195200D03*
X175583200Y-96855200D03*
X181143200Y-97505200D03*
X175583200Y-97505200D03*
X175583200Y-98155200D03*
X175583200Y-98805200D03*
X181143200Y-98805200D03*
X181143200Y-98155200D03*
X181143200Y-96855200D03*
X181143200Y-96195200D03*
X181143200Y-94245200D03*
X181143200Y-94895200D03*
X181143200Y-95545200D03*
%TD*%
D17*
%TO.C,R19*%
X243217400Y-72128600D03*
X241567400Y-72128600D03*
%TD*%
D34*
%TO.C,R15*%
X224116200Y-72415000D03*
X224116200Y-70765000D03*
%TD*%
D11*
%TO.C,TP42*%
X208311000Y-106426000D03*
%TD*%
D34*
%TO.C,R17*%
X236497200Y-112940200D03*
X236497200Y-111290200D03*
%TD*%
D29*
%TO.C,C38*%
X197346000Y-85852000D03*
X196246000Y-85852000D03*
%TD*%
D36*
%TO.C,C36*%
X194263000Y-93303000D03*
X194263000Y-94403000D03*
%TD*%
D59*
%TO.C,C29*%
X182554200Y-85667200D03*
X179604200Y-85667200D03*
%TD*%
D17*
%TO.C,R38*%
X213804200Y-67531200D03*
X212154200Y-67531200D03*
%TD*%
D11*
%TO.C,TP41*%
X198913000Y-94869000D03*
%TD*%
D28*
%TO.C,TP28*%
X231239400Y-106400200D03*
%TD*%
D11*
%TO.C,TP43*%
X206533000Y-91567000D03*
%TD*%
D16*
%TO.C,R2*%
X195933400Y-77255700D03*
X195933400Y-74330700D03*
%TD*%
D49*
%TO.C,U13*%
X197861000Y-96370000D03*
X197361000Y-96370000D03*
X196861000Y-96370000D03*
X196361000Y-96370000D03*
X195861000Y-96370000D03*
X195361000Y-96370000D03*
X194861000Y-96370000D03*
X194361000Y-96370000D03*
X193861000Y-96370000D03*
X193361000Y-96370000D03*
D50*
X195611000Y-97790000D03*
D51*
X192691000Y-98540000D03*
X192691000Y-98040000D03*
X192691000Y-97540000D03*
X192691000Y-97040000D03*
D49*
X195361000Y-99210000D03*
X194861000Y-99210000D03*
X194361000Y-99210000D03*
X193861000Y-99210000D03*
X193361000Y-99210000D03*
X195861000Y-99210000D03*
X196361000Y-99210000D03*
X196861000Y-99210000D03*
X197361000Y-99210000D03*
X197861000Y-99210000D03*
D51*
X198531000Y-98540000D03*
X198531000Y-98040000D03*
X198531000Y-97540000D03*
X198531000Y-97040000D03*
%TD*%
M02*
