M48
; DRILL file {KiCad 9.0.0} date 2025-06-04T12:24:45-0700
; FORMAT={-:-/ absolute / inch / decimal}
; #@! TF.CreationDate,2025-06-04T12:24:45-07:00
; #@! TF.GenerationSoftware,Kicad,Pcbnew,9.0.0
; #@! TF.FileFunction,Plated,1,4,PTH
FMAT,2
INCH
; #@! TA.AperFunction,Plated,PTH,ViaDrill
T1C0.0118
; #@! TA.AperFunction,Plated,PTH,ViaDrill
T2C0.0197
; #@! TA.AperFunction,Plated,PTH,ComponentDrill
T3C0.0236
; #@! TA.AperFunction,Plated,PTH,ComponentDrill
T4C0.0315
; #@! TA.AperFunction,Plated,PTH,ComponentDrill
T5C0.0394
; #@! TA.AperFunction,Plated,PTH,ComponentDrill
T6C0.0984
; #@! TA.AperFunction,Plated,PTH,ComponentDrill
T7C0.1102
%
G90
G05
T1
X6.31Y-2.305
X6.36Y-3.6927
X6.384Y-2.2742
X6.405Y-3.805
X6.4222Y-3.5077
X6.4222Y-3.5577
X6.4222Y-3.6077
X6.4272Y-3.7777
X6.445Y-2.28
X6.448Y-2.3322
X6.4822Y-3.76
X6.4822Y-3.9577
X6.495Y-2.635
X6.5022Y-3.7827
X6.504Y-2.4562
X6.51Y-2.395
X6.5305Y-2.5202
X6.5672Y-3.8377
X6.58Y-2.285
X6.585Y-3.44
X6.6022Y-3.77
X6.6072Y-3.8777
X6.6072Y-3.9077
X6.62Y-3.8
X6.6234Y-2.4409
X6.6247Y-2.4073
X6.626Y-2.3627
X6.6328Y-2.4846
X6.645Y-3.185
X6.67Y-3.525
X6.67Y-3.56
X6.67Y-3.6
X6.6772Y-3.98
X6.69Y-3.8073
X6.6933Y-4.0052
X6.695Y-3.545
X6.7Y-3.58
X6.72Y-3.755
X6.725Y-3.525
X6.725Y-3.565
X6.725Y-3.6
X6.728Y-2.4722
X6.732Y-2.4362
X6.7422Y-3.8777
X6.7422Y-3.9077
X6.748Y-2.4102
X6.75Y-2.2802
X6.7892Y-3.0756
X6.79Y-3.185
X6.79Y-3.985
X6.7922Y-3.9477
X6.8122Y-3.3727
X6.845Y-3.725
X6.856Y-2.4862
X6.858Y-2.3842
X6.86Y-3.08
X6.86Y-3.825
X6.9537Y-3.4777
X6.9537Y-3.5277
X6.9537Y-3.5777
X6.9622Y-3.7877
X6.9622Y-3.8377
X6.97Y-4.11
X6.972Y-2.3222
X6.975Y-3.38
X6.976Y-2.1942
X7.01Y-3.52
X7.0322Y-4.1727
X7.0422Y-3.5227
X7.055Y-2.28
X7.065Y-3.58
X7.075Y-3.875
X7.0772Y-3.8427
X7.095Y-2.4
X7.12Y-3.38
X7.138Y-2.2022
X7.1656Y-2.9765
X7.175Y-3.475
X7.18Y-3.975
X7.195Y-3.89
X7.23Y-3.045
X7.24Y-3.37
X7.25Y-3.915
X7.255Y-3.69
X7.265Y-3.57
X7.27Y-3.805
X7.33Y-4.565
X7.4262Y-3.475
X7.43Y-3.58
X7.4312Y-3.525
X7.435Y-3.33
X7.5162Y-3.935
X7.5231Y-3.74
X7.555Y-2.675
X7.59Y-3.4
X7.5912Y-3.795
X7.6212Y-3.315
X7.6231Y-3.7017
X7.6262Y-3.835
X7.6355Y-2.638
X7.64Y-3.76
X7.655Y-3.835
X7.675Y-3.52
X7.6762Y-3.48
X7.6762Y-3.55
X7.69Y-2.76
X7.6995Y-2.696
X7.7Y-2.638
X7.7Y-3.535
X7.7012Y-3.5056
X7.7099Y-3.9637
X7.725Y-3.52
X7.725Y-3.765
X7.7262Y-3.48
X7.7262Y-3.55
X7.7312Y-3.71
X7.735Y-3.84
X7.735Y-3.98
X7.74Y-3.865
X7.75Y-3.0
X7.7555Y-2.82
X7.77Y-3.8373
X7.77Y-3.865
X7.805Y-3.695
X7.82Y-3.91
X7.8209Y-3.944
X7.8395Y-2.646
X7.85Y-3.675
X7.8503Y-2.3394
X7.8644Y-2.805
X7.865Y-3.85
X7.867Y-2.761
X7.88Y-2.73
X7.8871Y-2.8627
X7.905Y-3.875
X7.955Y-3.885
X7.9612Y-3.435
X7.9612Y-3.49
X7.9612Y-3.54
X7.97Y-4.09
X7.9795Y-2.836
X7.98Y-2.8
X7.98Y-3.785
X7.9995Y-2.774
X8.0015Y-2.644
X8.0389Y-3.42
X8.055Y-3.815
X8.055Y-3.89
X8.08Y-3.85
X8.085Y-3.795
X8.1Y-4.19
X8.1075Y-2.85
X8.115Y-3.555
X8.195Y-3.85
X8.21Y-2.748
X8.2235Y-2.686
X8.2262Y-3.79
X8.2275Y-2.558
X8.2562Y-3.775
X8.31Y-2.635
X8.32Y-3.83
X8.35Y-2.765
X8.3699Y-3.509
X8.3714Y-3.5613
X8.3895Y-2.566
X8.39Y-3.955
X8.505Y-3.76
X8.53Y-3.43
X8.5359Y-3.974
X8.5399Y-3.834
X8.5664Y-3.7684
X8.585Y-3.91
X8.5859Y-3.805
X8.61Y-3.415
X8.6179Y-3.584
X8.62Y-3.55
X8.6219Y-3.512
X8.625Y-3.91
X8.6424Y-3.53
X8.645Y-3.57
X8.6589Y-4.0202
X8.6599Y-3.985
X8.66Y-3.8
X8.665Y-3.55
X8.6679Y-3.512
X8.6679Y-3.584
X8.6679Y-3.738
X8.67Y-3.91
X8.72Y-2.85
X8.72Y-3.91
X8.765Y-3.835
X8.7935Y-2.819
X8.8Y-3.85
X8.8012Y-3.9094
X8.8259Y-3.43
X8.8259Y-3.979
X8.8259Y-4.019
X8.855Y-2.825
X8.8575Y-2.877
X8.905Y-3.175
X8.905Y-3.8259
X8.9079Y-3.943
X8.9105Y-3.529
X8.9105Y-3.58
X8.9135Y-3.001
X8.9139Y-3.476
X8.92Y-2.94
X8.935Y-4.13
X8.9405Y-3.065
X8.9877Y-3.855
X8.99Y-4.14
X8.995Y-3.885
X8.9975Y-2.827
X9.005Y-3.93
X9.0083Y-2.5204
X9.0285Y-2.9911
X9.03Y-2.96
X9.04Y-2.915
X9.0432Y-3.0251
X9.1375Y-3.017
X9.1415Y-2.981
X9.1575Y-2.955
X9.1595Y-2.825
X9.1811Y-3.8159
X9.185Y-3.845
X9.2655Y-3.031
X9.37Y-2.929
X9.3759Y-4.419
X9.3815Y-2.867
X9.3855Y-2.739
X9.472Y-2.8163
X9.505Y-2.945
X9.5475Y-2.747
T2
X6.4699Y-2.1462
X6.53Y-2.8602
X6.742Y-2.7362
X6.78Y-2.06
X6.91Y-2.06
X6.9744Y-2.4542
X6.978Y-2.7342
X7.04Y-2.06
X7.07Y-3.765
X7.075Y-3.735
X7.1372Y-3.6777
X7.1822Y-4.0177
X7.1822Y-4.3327
X7.185Y-3.67
X7.216Y-2.7302
X7.7213Y-2.51
X7.9935Y-3.1
X8.0295Y-2.5281
X8.0579Y-3.57
X8.0779Y-3.695
X8.1615Y-2.5281
X8.2259Y-2.818
X8.2262Y-4.03
X8.2262Y-4.35
X8.2295Y-3.098
X8.2915Y-2.5301
X8.4675Y-3.094
X8.7497Y-1.855
X8.7507Y-1.9712
X8.8793Y-2.691
X8.919Y-1.854
X8.921Y-1.9781
X8.9395Y-3.405
X9.0039Y-3.753
X9.0863Y-1.8531
X9.0863Y-1.9712
X9.1459Y-4.343
X9.1479Y-4.035
X9.1515Y-3.281
X9.1875Y-2.605
X9.2209Y-4.424
X9.32Y-2.605
X9.3839Y-2.999
X9.3875Y-3.279
X9.4495Y-2.6
X9.6255Y-3.275
T4
X6.6597Y-4.559
X6.6597Y-4.6377
X6.7385Y-4.559
X6.7385Y-4.6377
X6.8172Y-4.559
X6.8172Y-4.6377
X6.896Y-4.559
X6.896Y-4.6377
X6.9747Y-4.559
X6.9747Y-4.6377
X7.0534Y-4.559
X7.0534Y-4.6377
X7.1322Y-4.559
X7.1322Y-4.6377
X7.2109Y-4.559
X7.2109Y-4.6377
X7.6355Y-4.5563
X7.6355Y-4.635
X7.7142Y-4.5563
X7.7142Y-4.635
X7.793Y-4.5563
X7.793Y-4.635
X7.8717Y-4.5563
X7.8717Y-4.635
X7.9504Y-4.5563
X7.9504Y-4.635
X8.0292Y-4.5563
X8.0292Y-4.635
X8.1079Y-4.5563
X8.1079Y-4.635
X8.1867Y-4.5563
X8.1867Y-4.635
X8.5499Y-4.555
X8.5499Y-4.6337
X8.6287Y-4.555
X8.6287Y-4.6337
X8.7074Y-4.555
X8.7074Y-4.6337
X8.7861Y-4.555
X8.7861Y-4.6337
X8.8649Y-4.555
X8.8649Y-4.6337
X8.9436Y-4.555
X8.9436Y-4.6337
X9.0224Y-4.555
X9.0224Y-4.6337
X9.1011Y-4.555
X9.1011Y-4.6337
T5
X6.7164Y-2.9712
X6.8164Y-2.9712
X6.9164Y-2.9712
X7.0164Y-2.9712
X7.9679Y-3.335
X8.0679Y-3.335
X8.1679Y-3.335
X8.2679Y-3.335
X9.0259Y-3.514
X9.1259Y-3.514
X9.2259Y-3.514
X9.3259Y-3.514
T6
X6.2997Y-1.4567
X6.2997Y-4.6063
X9.4493Y-1.4567
X9.45Y-4.605
T7
X8.7815Y-1.725
X9.065Y-1.725
T3
G00X8.6575Y-1.5065
M15
G01X8.6575Y-1.4711
M16
G05
G00X9.189Y-1.5065
M15
G01X9.189Y-1.4711
M16
G05
M30
