%TF.GenerationSoftware,KiCad,Pcbnew,9.0.0*%
%TF.CreationDate,2025-04-17T09:53:27-07:00*%
%TF.ProjectId,EPS_Scales_RevC,4550535f-5363-4616-9c65-735f52657643,rev?*%
%TF.SameCoordinates,Original*%
%TF.FileFunction,Soldermask,Top*%
%TF.FilePolarity,Negative*%
%FSLAX46Y46*%
G04 Gerber Fmt 4.6, Leading zero omitted, Abs format (unit mm)*
G04 Created by KiCad (PCBNEW 9.0.0) date 2025-04-17 09:53:27*
%MOMM*%
%LPD*%
G01*
G04 APERTURE LIST*
G04 Aperture macros list*
%AMRoundRect*
0 Rectangle with rounded corners*
0 $1 Rounding radius*
0 $2 $3 $4 $5 $6 $7 $8 $9 X,Y pos of 4 corners*
0 Add a 4 corners polygon primitive as box body*
4,1,4,$2,$3,$4,$5,$6,$7,$8,$9,$2,$3,0*
0 Add four circle primitives for the rounded corners*
1,1,$1+$1,$2,$3*
1,1,$1+$1,$4,$5*
1,1,$1+$1,$6,$7*
1,1,$1+$1,$8,$9*
0 Add four rect primitives between the rounded corners*
20,1,$1+$1,$2,$3,$4,$5,0*
20,1,$1+$1,$4,$5,$6,$7,0*
20,1,$1+$1,$6,$7,$8,$9,0*
20,1,$1+$1,$8,$9,$2,$3,0*%
%AMFreePoly0*
4,1,23,0.500000,-0.750000,0.000000,-0.750000,0.000000,-0.745722,-0.065263,-0.745722,-0.191342,-0.711940,-0.304381,-0.646677,-0.396677,-0.554381,-0.461940,-0.441342,-0.495722,-0.315263,-0.495722,-0.250000,-0.500000,-0.250000,-0.500000,0.250000,-0.495722,0.250000,-0.495722,0.315263,-0.461940,0.441342,-0.396677,0.554381,-0.304381,0.646677,-0.191342,0.711940,-0.065263,0.745722,0.000000,0.745722,
0.000000,0.750000,0.500000,0.750000,0.500000,-0.750000,0.500000,-0.750000,$1*%
%AMFreePoly1*
4,1,23,0.000000,0.745722,0.065263,0.745722,0.191342,0.711940,0.304381,0.646677,0.396677,0.554381,0.461940,0.441342,0.495722,0.315263,0.495722,0.250000,0.500000,0.250000,0.500000,-0.250000,0.495722,-0.250000,0.495722,-0.315263,0.461940,-0.441342,0.396677,-0.554381,0.304381,-0.646677,0.191342,-0.711940,0.065263,-0.745722,0.000000,-0.745722,0.000000,-0.750000,-0.500000,-0.750000,
-0.500000,0.750000,0.000000,0.750000,0.000000,0.745722,0.000000,0.745722,$1*%
G04 Aperture macros list end*
%ADD10C,0.000000*%
%ADD11RoundRect,0.200000X-0.200000X-0.275000X0.200000X-0.275000X0.200000X0.275000X-0.200000X0.275000X0*%
%ADD12R,1.000000X1.000000*%
%ADD13RoundRect,0.250000X-0.312500X-1.075000X0.312500X-1.075000X0.312500X1.075000X-0.312500X1.075000X0*%
%ADD14FreePoly0,0.000000*%
%ADD15FreePoly1,0.000000*%
%ADD16RoundRect,0.102000X-0.402400X-0.150000X0.402400X-0.150000X0.402400X0.150000X-0.402400X0.150000X0*%
%ADD17RoundRect,0.102000X-0.305000X-1.100000X0.305000X-1.100000X0.305000X1.100000X-0.305000X1.100000X0*%
%ADD18RoundRect,0.250000X-0.312500X-0.625000X0.312500X-0.625000X0.312500X0.625000X-0.312500X0.625000X0*%
%ADD19RoundRect,0.045000X-0.435000X-0.135000X0.435000X-0.135000X0.435000X0.135000X-0.435000X0.135000X0*%
%ADD20RoundRect,0.045000X-0.135000X-0.435000X0.135000X-0.435000X0.135000X0.435000X-0.135000X0.435000X0*%
%ADD21RoundRect,0.102000X-0.760000X-0.710000X0.760000X-0.710000X0.760000X0.710000X-0.760000X0.710000X0*%
%ADD22RoundRect,0.100000X-0.637500X-0.100000X0.637500X-0.100000X0.637500X0.100000X-0.637500X0.100000X0*%
%ADD23RoundRect,0.250000X-0.362500X-1.425000X0.362500X-1.425000X0.362500X1.425000X-0.362500X1.425000X0*%
%ADD24R,0.700000X0.250000*%
%ADD25R,0.250000X0.700000*%
%ADD26R,1.200000X1.700000*%
%ADD27R,0.375000X0.375000*%
%ADD28RoundRect,0.112500X-0.187500X-0.112500X0.187500X-0.112500X0.187500X0.112500X-0.187500X0.112500X0*%
%ADD29C,0.800000*%
%ADD30C,5.400000*%
%ADD31RoundRect,0.218750X-0.218750X-0.256250X0.218750X-0.256250X0.218750X0.256250X-0.218750X0.256250X0*%
%ADD32R,1.430000X5.500000*%
%ADD33R,1.333500X0.279400*%
%ADD34R,1.700000X1.700000*%
%ADD35O,1.700000X1.700000*%
%ADD36R,1.092200X2.006600*%
%ADD37R,2.006600X2.794000*%
%ADD38R,0.900000X2.000000*%
%ADD39RoundRect,1.025000X-1.025000X-1.025000X1.025000X-1.025000X1.025000X1.025000X-1.025000X1.025000X0*%
%ADD40C,4.100000*%
%ADD41R,0.508000X0.406400*%
%ADD42R,0.558800X0.406400*%
G04 APERTURE END LIST*
%TO.C,JP1*%
G36*
X170950000Y-86780000D02*
G01*
X171250000Y-86780000D01*
X171250000Y-88280000D01*
X170950000Y-88280000D01*
X170950000Y-86780000D01*
G37*
%TO.C,JP3*%
G36*
X152420000Y-98500000D02*
G01*
X152720000Y-98500000D01*
X152720000Y-100000000D01*
X152420000Y-100000000D01*
X152420000Y-98500000D01*
G37*
%TO.C,JP2*%
G36*
X152420000Y-94950000D02*
G01*
X152720000Y-94950000D01*
X152720000Y-96450000D01*
X152420000Y-96450000D01*
X152420000Y-94950000D01*
G37*
%TO.C,JP5*%
G36*
X164380000Y-116110000D02*
G01*
X164680000Y-116110000D01*
X164680000Y-117610000D01*
X164380000Y-117610000D01*
X164380000Y-116110000D01*
G37*
D10*
%TO.C,J11*%
G36*
X160574007Y-32909201D02*
G01*
X162301207Y-32909201D01*
X162301207Y-34434202D01*
X161961202Y-34434202D01*
X161961202Y-33854193D01*
X160574007Y-33854201D01*
X160574000Y-33912880D01*
X160015200Y-33912880D01*
X160015200Y-33506480D01*
X160574000Y-33506480D01*
X160574000Y-33262894D01*
X160015200Y-33262894D01*
X160015200Y-32856494D01*
X160574000Y-32856494D01*
X160574007Y-32909201D01*
G37*
G36*
X162301207Y-32560201D02*
G01*
X160574007Y-32560201D01*
X160574000Y-32612908D01*
X160015200Y-32612908D01*
X160015200Y-32206508D01*
X160574000Y-32206508D01*
X160574000Y-31962922D01*
X160015200Y-31962922D01*
X160015200Y-31556522D01*
X160574000Y-31556522D01*
X160574007Y-31615201D01*
X161961202Y-31615209D01*
X161961202Y-31035200D01*
X162301207Y-31035200D01*
X162301207Y-32560201D01*
G37*
%TO.C,J18*%
G36*
X119944007Y-46259201D02*
G01*
X121671207Y-46259201D01*
X121671207Y-47784202D01*
X121331202Y-47784202D01*
X121331202Y-47204193D01*
X119944007Y-47204201D01*
X119944000Y-47262880D01*
X119385200Y-47262880D01*
X119385200Y-46856480D01*
X119944000Y-46856480D01*
X119944000Y-46612894D01*
X119385200Y-46612894D01*
X119385200Y-46206494D01*
X119944000Y-46206494D01*
X119944007Y-46259201D01*
G37*
G36*
X121671207Y-45910201D02*
G01*
X119944007Y-45910201D01*
X119944000Y-45962908D01*
X119385200Y-45962908D01*
X119385200Y-45556508D01*
X119944000Y-45556508D01*
X119944000Y-45312922D01*
X119385200Y-45312922D01*
X119385200Y-44906522D01*
X119944000Y-44906522D01*
X119944007Y-44965201D01*
X121331202Y-44965209D01*
X121331202Y-44385200D01*
X121671207Y-44385200D01*
X121671207Y-45910201D01*
G37*
%TO.C,J7*%
G36*
X121444007Y-71719201D02*
G01*
X123171207Y-71719201D01*
X123171207Y-73244202D01*
X122831202Y-73244202D01*
X122831202Y-72664193D01*
X121444007Y-72664201D01*
X121444000Y-72722880D01*
X120885200Y-72722880D01*
X120885200Y-72316480D01*
X121444000Y-72316480D01*
X121444000Y-72072894D01*
X120885200Y-72072894D01*
X120885200Y-71666494D01*
X121444000Y-71666494D01*
X121444007Y-71719201D01*
G37*
G36*
X123171207Y-71370201D02*
G01*
X121444007Y-71370201D01*
X121444000Y-71422908D01*
X120885200Y-71422908D01*
X120885200Y-71016508D01*
X121444000Y-71016508D01*
X121444000Y-70772922D01*
X120885200Y-70772922D01*
X120885200Y-70366522D01*
X121444000Y-70366522D01*
X121444007Y-70425201D01*
X122831202Y-70425209D01*
X122831202Y-69845200D01*
X123171207Y-69845200D01*
X123171207Y-71370201D01*
G37*
%TD*%
D11*
%TO.C,R73*%
X161935000Y-95180000D03*
X163585000Y-95180000D03*
%TD*%
%TO.C,R31*%
X154395000Y-56720000D03*
X156045000Y-56720000D03*
%TD*%
D12*
%TO.C,TP7*%
X113980000Y-87620000D03*
%TD*%
D11*
%TO.C,R54*%
X142965000Y-100200000D03*
X144615000Y-100200000D03*
%TD*%
D13*
%TO.C,C25*%
X129037500Y-40380000D03*
X131962500Y-40380000D03*
%TD*%
D12*
%TO.C,TP47*%
X113980000Y-48950000D03*
%TD*%
D14*
%TO.C,JP1*%
X170450000Y-87530000D03*
D15*
X171750000Y-87530000D03*
%TD*%
D11*
%TO.C,R55*%
X142965000Y-102710000D03*
X144615000Y-102710000D03*
%TD*%
%TO.C,R89*%
X89745000Y-52080000D03*
X91395000Y-52080000D03*
%TD*%
D16*
%TO.C,U1*%
X119767400Y-90647600D03*
D17*
X120719800Y-91397600D03*
D16*
X119767400Y-91147600D03*
X119767400Y-91647600D03*
X119767400Y-92147600D03*
X121672200Y-92147600D03*
X121672200Y-91647600D03*
X121672200Y-91147600D03*
X121672200Y-90647600D03*
%TD*%
D12*
%TO.C,OV_TP1*%
X110930000Y-78470000D03*
%TD*%
%TO.C,TP25*%
X138340000Y-113560000D03*
%TD*%
D11*
%TO.C,R22*%
X174115000Y-75420000D03*
X175765000Y-75420000D03*
%TD*%
D13*
%TO.C,C43*%
X129497500Y-104450000D03*
X132422500Y-104450000D03*
%TD*%
D18*
%TO.C,R39*%
X158087500Y-116730000D03*
X161012500Y-116730000D03*
%TD*%
D13*
%TO.C,C67*%
X170117500Y-117080000D03*
X173042500Y-117080000D03*
%TD*%
D19*
%TO.C,U3*%
X115985000Y-70905000D03*
X115985000Y-71405000D03*
X115985000Y-71905000D03*
X115985000Y-72405000D03*
D20*
X116670000Y-73090000D03*
X116670000Y-70220000D03*
X117170000Y-70220000D03*
X117170000Y-73090000D03*
D21*
X117420000Y-71655000D03*
D20*
X117670000Y-70220000D03*
X117670000Y-73090000D03*
X118170000Y-73090000D03*
D19*
X118855000Y-72405000D03*
X118855000Y-71905000D03*
X118855000Y-71405000D03*
X118855000Y-70905000D03*
D20*
X118170000Y-70220000D03*
%TD*%
D13*
%TO.C,C4*%
X93917500Y-79050000D03*
X96842500Y-79050000D03*
%TD*%
D12*
%TO.C,TP6*%
X113980000Y-84570000D03*
%TD*%
D22*
%TO.C,U13*%
X175897500Y-95275000D03*
X175897500Y-95925000D03*
X175897500Y-96575000D03*
X175897500Y-97225000D03*
X175897500Y-97875000D03*
X175897500Y-98525000D03*
X175897500Y-99175000D03*
X181622500Y-99175000D03*
X181622500Y-98525000D03*
X181622500Y-97875000D03*
X181622500Y-97225000D03*
X181622500Y-96575000D03*
X181622500Y-95925000D03*
X181622500Y-95275000D03*
%TD*%
D13*
%TO.C,C13*%
X99527500Y-95890000D03*
X102452500Y-95890000D03*
%TD*%
D22*
%TO.C,U9*%
X144427500Y-110335000D03*
X144427500Y-110985000D03*
X144427500Y-111635000D03*
X144427500Y-112285000D03*
X144427500Y-112935000D03*
X144427500Y-113585000D03*
X144427500Y-114235000D03*
X150152500Y-114235000D03*
X150152500Y-113585000D03*
X150152500Y-112935000D03*
X150152500Y-112285000D03*
X150152500Y-111635000D03*
X150152500Y-110985000D03*
X150152500Y-110335000D03*
%TD*%
D23*
%TO.C,R93*%
X110787500Y-55970000D03*
X116712500Y-55970000D03*
%TD*%
D12*
%TO.C,TP31*%
X110930000Y-52000000D03*
%TD*%
D13*
%TO.C,C38*%
X140257500Y-53010000D03*
X143182500Y-53010000D03*
%TD*%
D24*
%TO.C,U15*%
X119995000Y-56075000D03*
X119995000Y-56575000D03*
X119995000Y-57075000D03*
X119995000Y-57575000D03*
X119995000Y-58075000D03*
X119995000Y-58575000D03*
X119995000Y-59075000D03*
X119995000Y-59575000D03*
D25*
X120645000Y-60225000D03*
X121145000Y-60225000D03*
D26*
X121195000Y-56875000D03*
X121195000Y-58775000D03*
D25*
X121645000Y-60225000D03*
X122145000Y-60225000D03*
D26*
X122595000Y-56875000D03*
X122595000Y-58775000D03*
D25*
X122645000Y-60225000D03*
X123145000Y-60225000D03*
D24*
X123795000Y-57075000D03*
X123795000Y-58075000D03*
X123795000Y-58575000D03*
X123795000Y-59075000D03*
X123795000Y-59575000D03*
D27*
X120082000Y-55512000D03*
X120082000Y-60138000D03*
X123708000Y-55512000D03*
X123708000Y-60138000D03*
D24*
X123795000Y-57575000D03*
X123795000Y-56575000D03*
X123795000Y-56075000D03*
D25*
X123145000Y-55425000D03*
X122645000Y-55425000D03*
X122145000Y-55425000D03*
X121645000Y-55425000D03*
X121145000Y-55425000D03*
X120645000Y-55425000D03*
%TD*%
D11*
%TO.C,R30*%
X154395000Y-54210000D03*
X156045000Y-54210000D03*
%TD*%
%TO.C,R91*%
X89745000Y-57100000D03*
X91395000Y-57100000D03*
%TD*%
D28*
%TO.C,D1*%
X178795000Y-80660000D03*
X180895000Y-80660000D03*
%TD*%
D12*
%TO.C,TP18*%
X158560000Y-42850000D03*
%TD*%
D13*
%TO.C,C14*%
X105137500Y-79050000D03*
X108062500Y-79050000D03*
%TD*%
%TO.C,C36*%
X140257500Y-44590000D03*
X143182500Y-44590000D03*
%TD*%
D12*
%TO.C,TP32*%
X113980000Y-39800000D03*
%TD*%
D13*
%TO.C,C1*%
X153997500Y-66230000D03*
X156922500Y-66230000D03*
%TD*%
%TO.C,C12*%
X99527500Y-91680000D03*
X102452500Y-91680000D03*
%TD*%
D29*
%TO.C,J3*%
X129605000Y-74550000D03*
X130198109Y-73118109D03*
X130198109Y-75981891D03*
X131630000Y-72525000D03*
D30*
X131630000Y-74550000D03*
D29*
X131630000Y-76575000D03*
X133061891Y-73118109D03*
X133061891Y-75981891D03*
X133655000Y-74550000D03*
%TD*%
D19*
%TO.C,U8*%
X155115000Y-32095000D03*
X155115000Y-32595000D03*
X155115000Y-33095000D03*
X155115000Y-33595000D03*
D20*
X155800000Y-34280000D03*
X155800000Y-31410000D03*
X156300000Y-31410000D03*
X156300000Y-34280000D03*
D21*
X156550000Y-32845000D03*
D20*
X156800000Y-31410000D03*
X156800000Y-34280000D03*
X157300000Y-34280000D03*
D19*
X157985000Y-33595000D03*
X157985000Y-33095000D03*
X157985000Y-32595000D03*
X157985000Y-32095000D03*
D20*
X157300000Y-31410000D03*
%TD*%
D12*
%TO.C,TP26*%
X141390000Y-110510000D03*
%TD*%
D13*
%TO.C,C63*%
X170117500Y-100240000D03*
X173042500Y-100240000D03*
%TD*%
D11*
%TO.C,R33*%
X158405000Y-49190000D03*
X160055000Y-49190000D03*
%TD*%
%TO.C,R7*%
X89745000Y-93260000D03*
X91395000Y-93260000D03*
%TD*%
D13*
%TO.C,C27*%
X129037500Y-48800000D03*
X131962500Y-48800000D03*
%TD*%
D31*
%TO.C,D2*%
X174532500Y-87050000D03*
X176107500Y-87050000D03*
%TD*%
D11*
%TO.C,R6*%
X89745000Y-90750000D03*
X91395000Y-90750000D03*
%TD*%
D31*
%TO.C,D5*%
X149782500Y-116850000D03*
X151357500Y-116850000D03*
%TD*%
D23*
%TO.C,R10*%
X115627500Y-66570000D03*
X121552500Y-66570000D03*
%TD*%
D11*
%TO.C,R42*%
X134945000Y-100200000D03*
X136595000Y-100200000D03*
%TD*%
D13*
%TO.C,C5*%
X93917500Y-83260000D03*
X96842500Y-83260000D03*
%TD*%
D12*
%TO.C,TP2*%
X110930000Y-84570000D03*
%TD*%
%TO.C,TP45*%
X164370000Y-113560000D03*
%TD*%
D28*
%TO.C,D6*%
X151515000Y-102500000D03*
X153615000Y-102500000D03*
%TD*%
D13*
%TO.C,C17*%
X161607500Y-66230000D03*
X164532500Y-66230000D03*
%TD*%
D29*
%TO.C,J5*%
X129605000Y-88450000D03*
X130198109Y-87018109D03*
X130198109Y-89881891D03*
X131630000Y-86425000D03*
D30*
X131630000Y-88450000D03*
D29*
X131630000Y-90475000D03*
X133061891Y-87018109D03*
X133061891Y-89881891D03*
X133655000Y-88450000D03*
%TD*%
D11*
%TO.C,R15*%
X170105000Y-72910000D03*
X171755000Y-72910000D03*
%TD*%
%TO.C,R68*%
X157925000Y-97690000D03*
X159575000Y-97690000D03*
%TD*%
D32*
%TO.C,L2*%
X147235000Y-43105000D03*
X151275000Y-43105000D03*
%TD*%
D11*
%TO.C,R32*%
X154395000Y-59230000D03*
X156045000Y-59230000D03*
%TD*%
D12*
%TO.C,TP19*%
X158560000Y-45900000D03*
%TD*%
D11*
%TO.C,R29*%
X154395000Y-51700000D03*
X156045000Y-51700000D03*
%TD*%
%TO.C,R86*%
X89745000Y-44550000D03*
X91395000Y-44550000D03*
%TD*%
D23*
%TO.C,R38*%
X145907500Y-50380000D03*
X151832500Y-50380000D03*
%TD*%
D11*
%TO.C,R43*%
X134945000Y-102710000D03*
X136595000Y-102710000D03*
%TD*%
D18*
%TO.C,R11*%
X179017500Y-86730000D03*
X181942500Y-86730000D03*
%TD*%
D11*
%TO.C,R2*%
X89745000Y-80710000D03*
X91395000Y-80710000D03*
%TD*%
%TO.C,R44*%
X134945000Y-105220000D03*
X136595000Y-105220000D03*
%TD*%
D13*
%TO.C,C19*%
X170117500Y-96030000D03*
X173042500Y-96030000D03*
%TD*%
%TO.C,C72*%
X93917500Y-57220000D03*
X96842500Y-57220000D03*
%TD*%
%TO.C,C73*%
X99527500Y-40380000D03*
X102452500Y-40380000D03*
%TD*%
D12*
%TO.C,TP14*%
X167400000Y-77850000D03*
%TD*%
%TO.C,OV_TP2*%
X155510000Y-39800000D03*
%TD*%
%TO.C,TP11*%
X167400000Y-68700000D03*
%TD*%
D22*
%TO.C,U4*%
X170437500Y-80535000D03*
X170437500Y-81185000D03*
X170437500Y-81835000D03*
X170437500Y-82485000D03*
X170437500Y-83135000D03*
X170437500Y-83785000D03*
X170437500Y-84435000D03*
X176162500Y-84435000D03*
X176162500Y-83785000D03*
X176162500Y-83135000D03*
X176162500Y-82485000D03*
X176162500Y-81835000D03*
X176162500Y-81185000D03*
X176162500Y-80535000D03*
%TD*%
D13*
%TO.C,C69*%
X93917500Y-44590000D03*
X96842500Y-44590000D03*
%TD*%
D11*
%TO.C,R21*%
X174115000Y-72910000D03*
X175765000Y-72910000D03*
%TD*%
D13*
%TO.C,C77*%
X99527500Y-57220000D03*
X102452500Y-57220000D03*
%TD*%
D11*
%TO.C,R69*%
X157925000Y-100200000D03*
X159575000Y-100200000D03*
%TD*%
D12*
%TO.C,TP22*%
X135290000Y-110510000D03*
%TD*%
D11*
%TO.C,R56*%
X142965000Y-105220000D03*
X144615000Y-105220000D03*
%TD*%
%TO.C,R49*%
X138955000Y-102710000D03*
X140605000Y-102710000D03*
%TD*%
%TO.C,R82*%
X165945000Y-102710000D03*
X167595000Y-102710000D03*
%TD*%
%TO.C,R79*%
X165945000Y-95180000D03*
X167595000Y-95180000D03*
%TD*%
D12*
%TO.C,UV_TP4*%
X117030000Y-45900000D03*
%TD*%
D14*
%TO.C,JP3*%
X151920000Y-99250000D03*
D15*
X153220000Y-99250000D03*
%TD*%
D11*
%TO.C,R24*%
X178125000Y-65380000D03*
X179775000Y-65380000D03*
%TD*%
D12*
%TO.C,TP10*%
X167400000Y-65650000D03*
%TD*%
D11*
%TO.C,R19*%
X174115000Y-67890000D03*
X175765000Y-67890000D03*
%TD*%
%TO.C,R13*%
X170105000Y-67890000D03*
X171755000Y-67890000D03*
%TD*%
D12*
%TO.C,TP5*%
X113980000Y-81520000D03*
%TD*%
%TO.C,TP17*%
X158560000Y-39800000D03*
%TD*%
D14*
%TO.C,JP2*%
X151920000Y-95700000D03*
D15*
X153220000Y-95700000D03*
%TD*%
D11*
%TO.C,R18*%
X174115000Y-65380000D03*
X175765000Y-65380000D03*
%TD*%
D12*
%TO.C,TP44*%
X164370000Y-110510000D03*
%TD*%
D13*
%TO.C,C28*%
X129037500Y-53010000D03*
X131962500Y-53010000D03*
%TD*%
%TO.C,C6*%
X93917500Y-87470000D03*
X96842500Y-87470000D03*
%TD*%
%TO.C,C18*%
X129497500Y-96030000D03*
X132422500Y-96030000D03*
%TD*%
%TO.C,C9*%
X99527500Y-79050000D03*
X102452500Y-79050000D03*
%TD*%
D33*
%TO.C,U7*%
X154871950Y-26833840D03*
X154871950Y-27334220D03*
X154871950Y-27834600D03*
X154871950Y-28334980D03*
X154871950Y-28835360D03*
X159304250Y-28835360D03*
X159304250Y-28334980D03*
X159304250Y-27834600D03*
X159304250Y-27334220D03*
X159304250Y-26833840D03*
%TD*%
D11*
%TO.C,R47*%
X138955000Y-97690000D03*
X140605000Y-97690000D03*
%TD*%
D13*
%TO.C,C3*%
X153997500Y-74650000D03*
X156922500Y-74650000D03*
%TD*%
%TO.C,C32*%
X134647500Y-48800000D03*
X137572500Y-48800000D03*
%TD*%
D12*
%TO.C,TP41*%
X158270000Y-113560000D03*
%TD*%
D28*
%TO.C,D3*%
X178795000Y-83610000D03*
X180895000Y-83610000D03*
%TD*%
D11*
%TO.C,R41*%
X134945000Y-97690000D03*
X136595000Y-97690000D03*
%TD*%
D13*
%TO.C,C46*%
X129497500Y-117080000D03*
X132422500Y-117080000D03*
%TD*%
D34*
%TO.C,J8*%
X183280000Y-66450000D03*
D35*
X183280000Y-68990000D03*
X183280000Y-71530000D03*
X183280000Y-74070000D03*
%TD*%
D34*
%TO.C,J16*%
X176710000Y-102820000D03*
D35*
X176710000Y-105360000D03*
X176710000Y-107900000D03*
X176710000Y-110440000D03*
%TD*%
D11*
%TO.C,R37*%
X158405000Y-59230000D03*
X160055000Y-59230000D03*
%TD*%
%TO.C,R81*%
X165945000Y-100200000D03*
X167595000Y-100200000D03*
%TD*%
D14*
%TO.C,JP5*%
X163880000Y-116860000D03*
D15*
X165180000Y-116860000D03*
%TD*%
D12*
%TO.C,TP49*%
X117030000Y-39800000D03*
%TD*%
D11*
%TO.C,R3*%
X89745000Y-83220000D03*
X91395000Y-83220000D03*
%TD*%
%TO.C,R75*%
X161935000Y-100200000D03*
X163585000Y-100200000D03*
%TD*%
D24*
%TO.C,U6*%
X146425000Y-55375000D03*
X146425000Y-55875000D03*
X146425000Y-56375000D03*
X146425000Y-56875000D03*
X146425000Y-57375000D03*
X146425000Y-57875000D03*
X146425000Y-58375000D03*
X146425000Y-58875000D03*
D25*
X147075000Y-59525000D03*
X147575000Y-59525000D03*
D26*
X147625000Y-56175000D03*
X147625000Y-58075000D03*
D25*
X148075000Y-59525000D03*
X148575000Y-59525000D03*
D26*
X149025000Y-56175000D03*
X149025000Y-58075000D03*
D25*
X149075000Y-59525000D03*
X149575000Y-59525000D03*
D24*
X150225000Y-56375000D03*
X150225000Y-57375000D03*
X150225000Y-57875000D03*
X150225000Y-58375000D03*
X150225000Y-58875000D03*
D27*
X146512000Y-54812000D03*
X146512000Y-59438000D03*
X150138000Y-54812000D03*
X150138000Y-59438000D03*
D24*
X150225000Y-56875000D03*
X150225000Y-55875000D03*
X150225000Y-55375000D03*
D25*
X149575000Y-54725000D03*
X149075000Y-54725000D03*
X148575000Y-54725000D03*
X148075000Y-54725000D03*
X147575000Y-54725000D03*
X147075000Y-54725000D03*
%TD*%
D12*
%TO.C,TP3*%
X110930000Y-87620000D03*
%TD*%
D11*
%TO.C,R88*%
X89745000Y-49570000D03*
X91395000Y-49570000D03*
%TD*%
D36*
%TO.C,J6*%
X108409399Y-73908700D03*
X108409399Y-65628300D03*
X106409400Y-73908700D03*
X106409400Y-65628300D03*
X104409399Y-73908700D03*
X104409399Y-65628300D03*
X102409400Y-73908700D03*
X102409400Y-65628300D03*
X100409399Y-73908700D03*
X100409399Y-65628300D03*
X98409401Y-73908700D03*
X98409401Y-65628300D03*
X96409400Y-73908700D03*
X96409400Y-65628300D03*
X94409400Y-73908700D03*
X94409400Y-65628300D03*
D37*
X90068300Y-69768500D03*
X112750500Y-69768500D03*
%TD*%
D11*
%TO.C,R50*%
X138955000Y-105220000D03*
X140605000Y-105220000D03*
%TD*%
D13*
%TO.C,C75*%
X99527500Y-48800000D03*
X102452500Y-48800000D03*
%TD*%
D11*
%TO.C,R8*%
X89745000Y-95770000D03*
X91395000Y-95770000D03*
%TD*%
D13*
%TO.C,C21*%
X161607500Y-74650000D03*
X164532500Y-74650000D03*
%TD*%
D12*
%TO.C,TP48*%
X113980000Y-52000000D03*
%TD*%
D11*
%TO.C,R78*%
X161935000Y-107730000D03*
X163585000Y-107730000D03*
%TD*%
D38*
%TO.C,J1*%
X137130000Y-74500000D03*
X150630000Y-74500000D03*
D39*
X147480000Y-80500000D03*
D40*
X140280000Y-80500000D03*
%TD*%
D32*
%TO.C,L4*%
X116955000Y-30285000D03*
X120995000Y-30285000D03*
%TD*%
D11*
%TO.C,R67*%
X157925000Y-95180000D03*
X159575000Y-95180000D03*
%TD*%
D12*
%TO.C,TP46*%
X113980000Y-45900000D03*
%TD*%
D11*
%TO.C,R72*%
X157925000Y-107730000D03*
X159575000Y-107730000D03*
%TD*%
D41*
%TO.C,J11*%
X163160800Y-31759722D03*
X163160800Y-32409708D03*
X163160800Y-33059694D03*
X163160800Y-33709680D03*
D42*
X160294600Y-33709680D03*
X160294600Y-33059694D03*
X160294600Y-32409708D03*
X160294600Y-31759722D03*
%TD*%
D12*
%TO.C,UV_TP1*%
X117030000Y-84570000D03*
%TD*%
D11*
%TO.C,R25*%
X178125000Y-67890000D03*
X179775000Y-67890000D03*
%TD*%
%TO.C,R46*%
X138955000Y-95180000D03*
X140605000Y-95180000D03*
%TD*%
D13*
%TO.C,C44*%
X129497500Y-108660000D03*
X132422500Y-108660000D03*
%TD*%
D24*
%TO.C,U2*%
X120455000Y-79495000D03*
X120455000Y-79995000D03*
X120455000Y-80495000D03*
X120455000Y-80995000D03*
X120455000Y-81495000D03*
X120455000Y-81995000D03*
X120455000Y-82495000D03*
X120455000Y-82995000D03*
D25*
X121105000Y-83645000D03*
X121605000Y-83645000D03*
D26*
X121655000Y-80295000D03*
X121655000Y-82195000D03*
D25*
X122105000Y-83645000D03*
X122605000Y-83645000D03*
D26*
X123055000Y-80295000D03*
X123055000Y-82195000D03*
D25*
X123105000Y-83645000D03*
X123605000Y-83645000D03*
D24*
X124255000Y-80495000D03*
X124255000Y-81495000D03*
X124255000Y-81995000D03*
X124255000Y-82495000D03*
X124255000Y-82995000D03*
D27*
X120542000Y-78932000D03*
X120542000Y-83558000D03*
X124168000Y-78932000D03*
X124168000Y-83558000D03*
D24*
X124255000Y-80995000D03*
X124255000Y-79995000D03*
X124255000Y-79495000D03*
D25*
X123605000Y-78845000D03*
X123105000Y-78845000D03*
X122605000Y-78845000D03*
X122105000Y-78845000D03*
X121605000Y-78845000D03*
X121105000Y-78845000D03*
%TD*%
D12*
%TO.C,TP50*%
X117030000Y-42850000D03*
%TD*%
D16*
%TO.C,U5*%
X161877400Y-26957600D03*
D17*
X162829800Y-27707600D03*
D16*
X161877400Y-27457600D03*
X161877400Y-27957600D03*
X161877400Y-28457600D03*
X163782200Y-28457600D03*
X163782200Y-27957600D03*
X163782200Y-27457600D03*
X163782200Y-26957600D03*
%TD*%
D11*
%TO.C,R92*%
X89745000Y-59610000D03*
X91395000Y-59610000D03*
%TD*%
%TO.C,R45*%
X134945000Y-107730000D03*
X136595000Y-107730000D03*
%TD*%
%TO.C,R9*%
X89745000Y-98280000D03*
X91395000Y-98280000D03*
%TD*%
D13*
%TO.C,C74*%
X99527500Y-44590000D03*
X102452500Y-44590000D03*
%TD*%
D11*
%TO.C,R83*%
X89745000Y-39530000D03*
X91395000Y-39530000D03*
%TD*%
D12*
%TO.C,TP28*%
X110930000Y-42850000D03*
%TD*%
D11*
%TO.C,R1*%
X89745000Y-78200000D03*
X91395000Y-78200000D03*
%TD*%
D13*
%TO.C,C34*%
X134647500Y-57220000D03*
X137572500Y-57220000D03*
%TD*%
D16*
%TO.C,U14*%
X119457400Y-50107600D03*
D17*
X120409800Y-50857600D03*
D16*
X119457400Y-50607600D03*
X119457400Y-51107600D03*
X119457400Y-51607600D03*
X121362200Y-51607600D03*
X121362200Y-51107600D03*
X121362200Y-50607600D03*
X121362200Y-50107600D03*
%TD*%
D13*
%TO.C,C8*%
X93917500Y-95890000D03*
X96842500Y-95890000D03*
%TD*%
%TO.C,C20*%
X161607500Y-70440000D03*
X164532500Y-70440000D03*
%TD*%
%TO.C,C37*%
X140257500Y-48800000D03*
X143182500Y-48800000D03*
%TD*%
D11*
%TO.C,R51*%
X138955000Y-107730000D03*
X140605000Y-107730000D03*
%TD*%
D13*
%TO.C,C68*%
X93917500Y-40380000D03*
X96842500Y-40380000D03*
%TD*%
D11*
%TO.C,R5*%
X89745000Y-88240000D03*
X91395000Y-88240000D03*
%TD*%
D41*
%TO.C,J18*%
X122530800Y-45109722D03*
X122530800Y-45759708D03*
X122530800Y-46409694D03*
X122530800Y-47059680D03*
D42*
X119664600Y-47059680D03*
X119664600Y-46409694D03*
X119664600Y-45759708D03*
X119664600Y-45109722D03*
%TD*%
D12*
%TO.C,TP42*%
X161320000Y-110510000D03*
%TD*%
D11*
%TO.C,R76*%
X161935000Y-102710000D03*
X163585000Y-102710000D03*
%TD*%
%TO.C,R70*%
X157925000Y-102710000D03*
X159575000Y-102710000D03*
%TD*%
D12*
%TO.C,TP12*%
X167400000Y-71750000D03*
%TD*%
%TO.C,TP4*%
X113980000Y-78470000D03*
%TD*%
D34*
%TO.C,J12*%
X148120000Y-96250000D03*
D35*
X148120000Y-98790000D03*
X148120000Y-101330000D03*
X148120000Y-103870000D03*
%TD*%
D13*
%TO.C,C42*%
X129497500Y-100240000D03*
X132422500Y-100240000D03*
%TD*%
D11*
%TO.C,R20*%
X174115000Y-70400000D03*
X175765000Y-70400000D03*
%TD*%
D13*
%TO.C,C71*%
X93917500Y-53010000D03*
X96842500Y-53010000D03*
%TD*%
D29*
%TO.C,J4*%
X129605000Y-81500000D03*
X130198109Y-80068109D03*
X130198109Y-82931891D03*
X131630000Y-79475000D03*
D30*
X131630000Y-81500000D03*
D29*
X131630000Y-83525000D03*
X133061891Y-80068109D03*
X133061891Y-82931891D03*
X133655000Y-81500000D03*
%TD*%
D13*
%TO.C,C2*%
X153997500Y-70440000D03*
X156922500Y-70440000D03*
%TD*%
D12*
%TO.C,TP34*%
X113980000Y-42850000D03*
%TD*%
D11*
%TO.C,R35*%
X158405000Y-54210000D03*
X160055000Y-54210000D03*
%TD*%
%TO.C,R52*%
X142965000Y-95180000D03*
X144615000Y-95180000D03*
%TD*%
D28*
%TO.C,D9*%
X175505000Y-117170000D03*
X177605000Y-117170000D03*
%TD*%
D13*
%TO.C,C80*%
X105137500Y-48800000D03*
X108062500Y-48800000D03*
%TD*%
D12*
%TO.C,TP15*%
X155510000Y-42850000D03*
%TD*%
D28*
%TO.C,D10*%
X151515000Y-105450000D03*
X153615000Y-105450000D03*
%TD*%
D11*
%TO.C,R85*%
X89745000Y-42040000D03*
X91395000Y-42040000D03*
%TD*%
D13*
%TO.C,C35*%
X140257500Y-40380000D03*
X143182500Y-40380000D03*
%TD*%
D28*
%TO.C,D4*%
X175505000Y-114220000D03*
X177605000Y-114220000D03*
%TD*%
D12*
%TO.C,TP16*%
X155510000Y-45900000D03*
%TD*%
D11*
%TO.C,R16*%
X170105000Y-75420000D03*
X171755000Y-75420000D03*
%TD*%
D13*
%TO.C,C65*%
X170117500Y-108660000D03*
X173042500Y-108660000D03*
%TD*%
D19*
%TO.C,U16*%
X120295000Y-40165000D03*
X120295000Y-40665000D03*
X120295000Y-41165000D03*
X120295000Y-41665000D03*
D20*
X120980000Y-42350000D03*
X120980000Y-39480000D03*
X121480000Y-39480000D03*
X121480000Y-42350000D03*
D21*
X121730000Y-40915000D03*
D20*
X121980000Y-39480000D03*
X121980000Y-42350000D03*
X122480000Y-42350000D03*
D19*
X123165000Y-41665000D03*
X123165000Y-41165000D03*
X123165000Y-40665000D03*
X123165000Y-40165000D03*
D20*
X122480000Y-39480000D03*
%TD*%
D11*
%TO.C,R23*%
X174115000Y-77930000D03*
X175765000Y-77930000D03*
%TD*%
D13*
%TO.C,C29*%
X129037500Y-57220000D03*
X131962500Y-57220000D03*
%TD*%
%TO.C,C24*%
X161607500Y-87280000D03*
X164532500Y-87280000D03*
%TD*%
%TO.C,C66*%
X170117500Y-112870000D03*
X173042500Y-112870000D03*
%TD*%
D29*
%TO.C,J2*%
X129605000Y-67600000D03*
X130198109Y-66168109D03*
X130198109Y-69031891D03*
X131630000Y-65575000D03*
D30*
X131630000Y-67600000D03*
D29*
X131630000Y-69625000D03*
X133061891Y-66168109D03*
X133061891Y-69031891D03*
X133655000Y-67600000D03*
%TD*%
D11*
%TO.C,R36*%
X158405000Y-56720000D03*
X160055000Y-56720000D03*
%TD*%
D12*
%TO.C,TP29*%
X110930000Y-45900000D03*
%TD*%
D11*
%TO.C,R90*%
X89745000Y-54590000D03*
X91395000Y-54590000D03*
%TD*%
D13*
%TO.C,C30*%
X134647500Y-40380000D03*
X137572500Y-40380000D03*
%TD*%
D12*
%TO.C,TP21*%
X161610000Y-42850000D03*
%TD*%
D11*
%TO.C,R27*%
X178125000Y-72910000D03*
X179775000Y-72910000D03*
%TD*%
D13*
%TO.C,C11*%
X99527500Y-87470000D03*
X102452500Y-87470000D03*
%TD*%
%TO.C,C79*%
X105137500Y-44590000D03*
X108062500Y-44590000D03*
%TD*%
D11*
%TO.C,R53*%
X142965000Y-97690000D03*
X144615000Y-97690000D03*
%TD*%
D13*
%TO.C,C64*%
X170117500Y-104450000D03*
X173042500Y-104450000D03*
%TD*%
%TO.C,C31*%
X134647500Y-44590000D03*
X137572500Y-44590000D03*
%TD*%
D12*
%TO.C,TP43*%
X161320000Y-113560000D03*
%TD*%
D36*
%TO.C,J10*%
X147539399Y-35238700D03*
X147539399Y-26958300D03*
X145539400Y-35238700D03*
X145539400Y-26958300D03*
X143539399Y-35238700D03*
X143539399Y-26958300D03*
X141539400Y-35238700D03*
X141539400Y-26958300D03*
X139539399Y-35238700D03*
X139539399Y-26958300D03*
X137539401Y-35238700D03*
X137539401Y-26958300D03*
X135539400Y-35238700D03*
X135539400Y-26958300D03*
X133539400Y-35238700D03*
X133539400Y-26958300D03*
D37*
X129198300Y-31098500D03*
X151880500Y-31098500D03*
%TD*%
D12*
%TO.C,TP24*%
X138340000Y-110510000D03*
%TD*%
D11*
%TO.C,R48*%
X138955000Y-100200000D03*
X140605000Y-100200000D03*
%TD*%
D36*
%TO.C,J14*%
X108409399Y-35238700D03*
X108409399Y-26958300D03*
X106409400Y-35238700D03*
X106409400Y-26958300D03*
X104409399Y-35238700D03*
X104409399Y-26958300D03*
X102409400Y-35238700D03*
X102409400Y-26958300D03*
X100409399Y-35238700D03*
X100409399Y-26958300D03*
X98409401Y-35238700D03*
X98409401Y-26958300D03*
X96409400Y-35238700D03*
X96409400Y-26958300D03*
X94409400Y-35238700D03*
X94409400Y-26958300D03*
D37*
X90068300Y-31098500D03*
X112750500Y-31098500D03*
%TD*%
D11*
%TO.C,R71*%
X157925000Y-105220000D03*
X159575000Y-105220000D03*
%TD*%
%TO.C,R87*%
X89745000Y-47060000D03*
X91395000Y-47060000D03*
%TD*%
%TO.C,R34*%
X158405000Y-51700000D03*
X160055000Y-51700000D03*
%TD*%
D13*
%TO.C,C23*%
X161607500Y-83070000D03*
X164532500Y-83070000D03*
%TD*%
%TO.C,C10*%
X99527500Y-83260000D03*
X102452500Y-83260000D03*
%TD*%
D12*
%TO.C,TP20*%
X161610000Y-39800000D03*
%TD*%
%TO.C,TP23*%
X135290000Y-113560000D03*
%TD*%
D11*
%TO.C,R17*%
X170105000Y-77930000D03*
X171755000Y-77930000D03*
%TD*%
%TO.C,R74*%
X161935000Y-97690000D03*
X163585000Y-97690000D03*
%TD*%
D13*
%TO.C,C70*%
X93917500Y-48800000D03*
X96842500Y-48800000D03*
%TD*%
D11*
%TO.C,R40*%
X134945000Y-95180000D03*
X136595000Y-95180000D03*
%TD*%
%TO.C,R77*%
X161935000Y-105220000D03*
X163585000Y-105220000D03*
%TD*%
D12*
%TO.C,TP40*%
X158270000Y-110510000D03*
%TD*%
D13*
%TO.C,C76*%
X99527500Y-53010000D03*
X102452500Y-53010000D03*
%TD*%
D12*
%TO.C,TP13*%
X167400000Y-74800000D03*
%TD*%
D11*
%TO.C,R14*%
X170105000Y-70400000D03*
X171755000Y-70400000D03*
%TD*%
%TO.C,R26*%
X178125000Y-70400000D03*
X179775000Y-70400000D03*
%TD*%
D13*
%TO.C,C33*%
X134647500Y-53010000D03*
X137572500Y-53010000D03*
%TD*%
D11*
%TO.C,R28*%
X154395000Y-49190000D03*
X156045000Y-49190000D03*
%TD*%
D13*
%TO.C,C15*%
X105137500Y-83260000D03*
X108062500Y-83260000D03*
%TD*%
%TO.C,C78*%
X105137500Y-40380000D03*
X108062500Y-40380000D03*
%TD*%
D12*
%TO.C,UV_TP2*%
X161610000Y-45900000D03*
%TD*%
%TO.C,OV_TP4*%
X110930000Y-39800000D03*
%TD*%
%TO.C,TP8*%
X117030000Y-78470000D03*
%TD*%
D11*
%TO.C,R12*%
X170105000Y-65380000D03*
X171755000Y-65380000D03*
%TD*%
D13*
%TO.C,C22*%
X161607500Y-78860000D03*
X164532500Y-78860000D03*
%TD*%
D12*
%TO.C,TP1*%
X110930000Y-81520000D03*
%TD*%
D13*
%TO.C,C45*%
X129497500Y-112870000D03*
X132422500Y-112870000D03*
%TD*%
%TO.C,C7*%
X93917500Y-91680000D03*
X96842500Y-91680000D03*
%TD*%
%TO.C,C26*%
X129037500Y-44590000D03*
X131962500Y-44590000D03*
%TD*%
D32*
%TO.C,L1*%
X112115000Y-93975000D03*
X116155000Y-93975000D03*
%TD*%
D31*
%TO.C,D8*%
X179932500Y-114040000D03*
X181507500Y-114040000D03*
%TD*%
D18*
%TO.C,R57*%
X144257500Y-117200000D03*
X147182500Y-117200000D03*
%TD*%
D41*
%TO.C,J7*%
X124030800Y-70569722D03*
X124030800Y-71219708D03*
X124030800Y-71869694D03*
X124030800Y-72519680D03*
D42*
X121164600Y-72519680D03*
X121164600Y-71869694D03*
X121164600Y-71219708D03*
X121164600Y-70569722D03*
%TD*%
D13*
%TO.C,C16*%
X105137500Y-87470000D03*
X108062500Y-87470000D03*
%TD*%
D12*
%TO.C,TP27*%
X141390000Y-113560000D03*
%TD*%
%TO.C,TP30*%
X110930000Y-48950000D03*
%TD*%
D11*
%TO.C,R4*%
X89745000Y-85730000D03*
X91395000Y-85730000D03*
%TD*%
D12*
%TO.C,TP9*%
X117030000Y-81520000D03*
%TD*%
D11*
%TO.C,R80*%
X165945000Y-97690000D03*
X167595000Y-97690000D03*
%TD*%
M02*
