M48
; DRILL file {KiCad 9.0.0} date 2025-07-09T13:02:27-0700
; FORMAT={-:-/ absolute / inch / decimal}
; #@! TF.CreationDate,2025-07-09T13:02:27-07:00
; #@! TF.GenerationSoftware,Kicad,Pcbnew,9.0.0
; #@! TF.FileFunction,Plated,1,4,PTH
FMAT,2
INCH
; #@! TA.AperFunction,Plated,PTH,ViaDrill
T1C0.0118
; #@! TA.AperFunction,Plated,PTH,ViaDrill
T2C0.0157
; #@! TA.AperFunction,Plated,PTH,ComponentDrill
T3C0.0236
; #@! TA.AperFunction,Plated,PTH,ComponentDrill
T4C0.0315
; #@! TA.AperFunction,Plated,PTH,ComponentDrill
T5C0.0394
; #@! TA.AperFunction,Plated,PTH,ComponentDrill
T6C0.1063
; #@! TA.AperFunction,Plated,PTH,ComponentDrill
T7C0.1102
%
G90
G05
T1
X6.3907Y-2.5498
X6.395Y-2.585
X6.5057Y-2.4662
X6.54Y-3.498
X6.5774Y-3.3505
X6.5955Y-4.1181
X6.5994Y-3.1805
X6.602Y-3.521
X6.6074Y-3.3345
X6.6107Y-2.71
X6.626Y-2.512
X6.6358Y-4.0768
X6.6368Y-4.0404
X6.637Y-2.3901
X6.6382Y-2.6975
X6.644Y-3.332
X6.6507Y-2.745
X6.6683Y-4.0778
X6.6693Y-4.0404
X6.7044Y-2.6263
X6.7169Y-4.136
X6.7219Y-2.5763
X6.7337Y-4.2537
X6.734Y-3.312
X6.7482Y-2.8525
X6.7557Y-2.805
X6.757Y-2.6063
X6.7594Y-3.1845
X6.7634Y-3.1377
X6.7882Y-2.6125
X6.7901Y-2.8312
X6.8024Y-4.174
X6.8104Y-2.4179
X6.8254Y-2.9985
X6.8294Y-3.4085
X6.8498Y-2.4357
X6.8557Y-2.465
X6.8707Y-4.2429
X6.8767Y-4.1509
X6.8769Y-2.7719
X6.9302Y-3.3524
X6.9322Y-3.3164
X6.9434Y-2.9945
X6.945Y-2.675
X6.945Y-2.735
X6.9455Y-2.5642
X6.9718Y-4.2938
X6.9814Y-3.0825
X6.9814Y-3.1145
X6.982Y-4.1427
X6.982Y-3.17
X6.984Y-3.14
X7.0007Y-2.535
X7.0077Y-3.4175
X7.0134Y-3.0825
X7.0134Y-3.1145
X7.0134Y-3.14
X7.014Y-3.17
X7.0265Y-4.2035
X7.0334Y-3.2384
X7.0374Y-3.4205
X7.0454Y-3.0825
X7.0454Y-3.1145
X7.046Y-3.14
X7.0622Y-3.2303
X7.0834Y-4.0665
X7.0862Y-3.3104
X7.0862Y-3.3524
X7.0874Y-4.0205
X7.0912Y-3.2379
X7.1012Y-2.506
X7.102Y-4.174
X7.1066Y-2.5559
X7.114Y-2.614
X7.1274Y-3.261
X7.1474Y-4.1225
X7.1523Y-3.3526
X7.1574Y-3.0045
X7.1934Y-4.0705
X7.1954Y-3.2445
X7.232Y-3.9
X7.2434Y-3.2425
X7.246Y-4.206
X7.2534Y-3.3185
X7.2534Y-3.3925
X7.2794Y-3.4245
X7.296Y-4.078
X7.2974Y-3.3305
X7.3014Y-3.2545
X7.3114Y-4.0425
X7.314Y-3.9
X7.37Y-4.032
X7.3766Y-4.2027
X7.392Y-3.902
X7.4Y-4.184
X7.4117Y-2.5552
X7.43Y-3.498
X7.43Y-3.5279
X7.456Y-3.124
X7.48Y-2.57
X7.504Y-3.498
X7.506Y-3.53
X7.5148Y-3.2746
X7.5178Y-4.0337
X7.5197Y-3.7411
X7.5267Y-2.4716
X7.5404Y-3.3809
X7.5551Y-3.315
X7.5551Y-3.3474
X7.568Y-3.854
X7.578Y-3.974
X7.5896Y-3.315
X7.5896Y-3.3465
X7.6317Y-2.7154
X7.6394Y-3.3799
X7.644Y-3.154
X7.646Y-2.518
X7.65Y-3.92
X7.6579Y-2.3955
X7.658Y-3.816
X7.6592Y-2.7029
X7.6614Y-3.3455
X7.67Y-3.03
X7.6717Y-2.7504
X7.7254Y-2.6317
X7.74Y-4.034
X7.742Y-3.924
X7.7429Y-2.5816
X7.7692Y-2.8579
X7.77Y-3.928
X7.772Y-4.032
X7.7767Y-2.8104
X7.7779Y-2.6117
X7.786Y-3.854
X7.7909Y-2.8367
X7.798Y-3.928
X7.798Y-4.026
X7.8Y-3.36
X7.8092Y-2.6179
X7.8313Y-2.4233
X7.84Y-3.252
X7.842Y-3.29
X7.865Y-2.995
X7.866Y-3.798
X7.8708Y-2.4411
X7.8767Y-2.4704
X7.892Y-3.042
X7.892Y-3.068
X7.892Y-3.096
X7.892Y-3.124
X7.8964Y-2.7724
X7.9201Y-3.36
X7.922Y-3.042
X7.922Y-3.068
X7.922Y-3.096
X7.922Y-3.124
X7.9423Y-3.1879
X7.95Y-3.36
X7.952Y-3.042
X7.952Y-3.068
X7.952Y-3.096
X7.965Y-2.735
X7.97Y-2.678
X7.9712Y-3.1801
X7.998Y-3.254
X8.0Y-2.645
X8.0Y-3.29
X8.0217Y-2.5404
X8.0311Y-3.2188
X8.0559Y-3.2021
X8.091Y-3.1748
X8.1222Y-2.5114
X8.1275Y-2.5612
X8.1337Y-3.174
X8.148Y-3.374
X8.15Y-2.625
X8.175Y-3.02
X8.1834Y-3.2084
X8.19Y-3.125
X8.2Y-3.318
X8.235Y-3.125
X8.41Y-2.5598
X8.448Y-3.356
X8.456Y-3.2
X8.4563Y-3.1677
X8.485Y-2.57
X8.525Y-2.4761
X8.624Y-3.358
X8.63Y-2.72
X8.644Y-2.526
X8.6563Y-2.4001
X8.6575Y-2.7075
X8.67Y-2.755
X8.6791Y-3.9262
X8.6801Y-3.8898
X8.7156Y-3.8888
X8.7156Y-3.9252
X8.72Y-4.064
X8.7237Y-2.6363
X8.7352Y-4.1388
X8.7412Y-2.5862
X8.754Y-4.102
X8.7675Y-2.8625
X8.774Y-3.32
X8.775Y-2.815
X8.7763Y-2.6163
X8.7963Y-3.9833
X8.798Y-3.882
X8.8075Y-2.6225
X8.8095Y-2.8412
X8.8134Y-3.4025
X8.8297Y-2.4279
X8.8337Y-3.939
X8.8451Y-3.2705
X8.8451Y-3.3125
X8.8691Y-2.4457
X8.8711Y-3.0225
X8.8731Y-4.0405
X8.875Y-2.475
X8.892Y-3.066
X8.892Y-3.092
X8.892Y-3.118
X8.892Y-3.146
X8.9Y-2.7824
X8.9011Y-3.9325
X8.92Y-3.066
X8.92Y-3.092
X8.92Y-3.118
X8.92Y-3.144
X8.9345Y-3.3848
X8.9363Y-3.4156
X8.946Y-3.212
X8.948Y-3.066
X8.948Y-3.092
X8.948Y-3.118
X8.948Y-3.144
X8.956Y-4.038
X8.962Y-4.156
X8.965Y-2.68
X8.9657Y-2.5683
X8.97Y-2.7597
X8.9753Y-3.206
X8.984Y-4.04
X8.99Y-4.154
X9.0031Y-3.3105
X9.0051Y-3.2725
X9.014Y-4.042
X9.018Y-4.152
X9.02Y-2.545
X9.032Y-2.656
X9.0411Y-3.2245
X9.048Y-4.032
X9.05Y-4.154
X9.08Y-4.044
X9.0943Y-3.2038
X9.1206Y-2.5159
X9.1259Y-2.5658
X9.13Y-2.614
X9.1391Y-3.1565
X9.1411Y-3.0645
X9.1438Y-3.2026
X9.188Y-3.25
X9.2211Y-3.2085
X9.2462Y-3.7505
X9.2482Y-3.5125
X9.2502Y-3.3492
X9.2771Y-3.2905
T2
X6.52Y-2.215
X6.785Y-2.22
X7.05Y-2.22
X7.2554Y-3.8185
X7.2614Y-3.5805
X7.545Y-2.22
X7.81Y-2.22
X8.075Y-2.22
X8.17Y-3.475
X8.17Y-3.68
X8.54Y-2.225
X8.682Y-1.858
X8.77Y-1.92
X8.805Y-2.225
X8.85Y-1.856
X8.935Y-1.925
X9.02Y-1.858
X9.07Y-2.22
X9.1Y-1.925
T4
X6.6597Y-4.559
X6.6597Y-4.6377
X6.7385Y-4.559
X6.7385Y-4.6377
X6.8172Y-4.559
X6.8172Y-4.6377
X6.896Y-4.559
X6.896Y-4.6377
X6.9747Y-4.559
X6.9747Y-4.6377
X7.0534Y-4.559
X7.0534Y-4.6377
X7.1322Y-4.559
X7.1322Y-4.6377
X7.2109Y-4.559
X7.2109Y-4.6377
X7.6355Y-4.5563
X7.6355Y-4.635
X7.7142Y-4.5563
X7.7142Y-4.635
X7.793Y-4.5563
X7.793Y-4.635
X7.8717Y-4.5563
X7.8717Y-4.635
X7.9504Y-4.5563
X7.9504Y-4.635
X8.0292Y-4.5563
X8.0292Y-4.635
X8.1079Y-4.5563
X8.1079Y-4.635
X8.1867Y-4.5563
X8.1867Y-4.635
X8.5499Y-4.555
X8.5499Y-4.6337
X8.6287Y-4.555
X8.6287Y-4.6337
X8.7074Y-4.555
X8.7074Y-4.6337
X8.7861Y-4.555
X8.7861Y-4.6337
X8.8649Y-4.555
X8.8649Y-4.6337
X8.9436Y-4.555
X8.9436Y-4.6337
X9.0224Y-4.555
X9.0224Y-4.6337
X9.1011Y-4.555
X9.1011Y-4.6337
T5
X7.2167Y-2.4454
X7.2167Y-2.5454
X7.2167Y-2.6454
X7.2167Y-2.7454
X8.2376Y-2.4508
X8.2376Y-2.5508
X8.2376Y-2.6508
X8.2376Y-2.7508
X9.236Y-2.4554
X9.236Y-2.5554
X9.236Y-2.6554
X9.236Y-2.7554
T6
X6.2997Y-1.4567
X6.2997Y-4.6063
X9.4493Y-1.4567
X9.45Y-4.605
T7
X8.7815Y-1.725
X9.065Y-1.725
T3
G00X8.6575Y-1.5065
M15
G01X8.6575Y-1.4711
M16
G05
G00X9.189Y-1.5065
M15
G01X9.189Y-1.4711
M16
G05
M30
