%TF.GenerationSoftware,KiCad,Pcbnew,9.0.3*%
%TF.CreationDate,2025-07-11T15:18:27-07:00*%
%TF.ProjectId,imx8x_carrier_v1,696d7838-785f-4636-9172-726965725f76,A*%
%TF.SameCoordinates,Original*%
%TF.FileFunction,Soldermask,Bot*%
%TF.FilePolarity,Negative*%
%FSLAX46Y46*%
G04 Gerber Fmt 4.6, Leading zero omitted, Abs format (unit mm)*
G04 Created by KiCad (PCBNEW 9.0.3) date 2025-07-11 15:18:27*
%MOMM*%
%LPD*%
G01*
G04 APERTURE LIST*
G04 Aperture macros list*
%AMRoundRect*
0 Rectangle with rounded corners*
0 $1 Rounding radius*
0 $2 $3 $4 $5 $6 $7 $8 $9 X,Y pos of 4 corners*
0 Add a 4 corners polygon primitive as box body*
4,1,4,$2,$3,$4,$5,$6,$7,$8,$9,$2,$3,0*
0 Add four circle primitives for the rounded corners*
1,1,$1+$1,$2,$3*
1,1,$1+$1,$4,$5*
1,1,$1+$1,$6,$7*
1,1,$1+$1,$8,$9*
0 Add four rect primitives between the rounded corners*
20,1,$1+$1,$2,$3,$4,$5,0*
20,1,$1+$1,$4,$5,$6,$7,0*
20,1,$1+$1,$6,$7,$8,$9,0*
20,1,$1+$1,$8,$9,$2,$3,0*%
G04 Aperture macros list end*
%ADD10O,1.700000X1.700000*%
%ADD11R,1.700000X1.700000*%
%ADD12C,1.400000*%
%ADD13R,1.400000X1.400000*%
%ADD14C,1.016000*%
%ADD15C,2.500000*%
%ADD16C,1.520000*%
%ADD17C,3.250000*%
%ADD18R,1.000000X1.000000*%
%ADD19C,4.700000*%
%ADD20RoundRect,0.225000X0.250000X-0.225000X0.250000X0.225000X-0.250000X0.225000X-0.250000X-0.225000X0*%
%ADD21RoundRect,0.225000X-0.225000X-0.250000X0.225000X-0.250000X0.225000X0.250000X-0.225000X0.250000X0*%
%ADD22RoundRect,0.135000X0.135000X0.185000X-0.135000X0.185000X-0.135000X-0.185000X0.135000X-0.185000X0*%
%ADD23RoundRect,0.225000X0.225000X0.250000X-0.225000X0.250000X-0.225000X-0.250000X0.225000X-0.250000X0*%
%ADD24RoundRect,0.225000X-0.250000X0.225000X-0.250000X-0.225000X0.250000X-0.225000X0.250000X0.225000X0*%
%ADD25R,0.800000X1.680000*%
%ADD26R,1.290000X1.400000*%
%ADD27R,1.290000X1.300000*%
%ADD28R,1.600000X1.500000*%
%ADD29R,1.700000X1.500000*%
%ADD30R,1.500000X1.700000*%
G04 APERTURE END LIST*
D10*
%TO.C,J5*%
X71215000Y-135375000D03*
X71215000Y-132835000D03*
X73755000Y-135375000D03*
X73755000Y-132835000D03*
X76295000Y-135375000D03*
X76294999Y-132835000D03*
X78835000Y-135375000D03*
X78835000Y-132835000D03*
X81375000Y-135375000D03*
X81375000Y-132835000D03*
X83915000Y-135375000D03*
X83915000Y-132835000D03*
X86455000Y-135375000D03*
X86455000Y-132835000D03*
X88995000Y-135375000D03*
X88995001Y-132835000D03*
X91535000Y-135375000D03*
X91535000Y-132835000D03*
X94075000Y-135375000D03*
D11*
X94075000Y-132835000D03*
%TD*%
D12*
%TO.C,CN1*%
X115224800Y-133467600D03*
X115224800Y-135467600D03*
X117224800Y-133467600D03*
X117224800Y-135467600D03*
X119224800Y-133467600D03*
X119224800Y-135467600D03*
X121224800Y-133467600D03*
X121224800Y-135467600D03*
X123224800Y-133467600D03*
X123224800Y-135467600D03*
X125224800Y-133467600D03*
X125224800Y-135467600D03*
X127224800Y-133467600D03*
X127224800Y-135467600D03*
X129224800Y-133467600D03*
D13*
X129224800Y-135467600D03*
%TD*%
D14*
%TO.C,J1*%
X112720600Y-54951800D03*
X112720600Y-93423800D03*
%TD*%
%TO.C,J4*%
X82304000Y-50464000D03*
X82304000Y-88936000D03*
%TD*%
D15*
%TO.C,RJ1*%
X148769999Y-97200000D03*
X148769999Y-80940000D03*
D16*
X143059999Y-82210000D03*
X143060000Y-84500000D03*
X143060000Y-93640000D03*
X143059999Y-95930000D03*
X147879999Y-85510000D03*
X149659999Y-86530000D03*
X147879999Y-87550000D03*
X149659999Y-88570000D03*
X147879999Y-89590000D03*
X149659999Y-90610000D03*
X147879999Y-91630000D03*
X149659999Y-92650000D03*
D17*
X152200000Y-95420000D03*
X152200000Y-82720000D03*
%TD*%
D15*
%TO.C,RJ2*%
X148799999Y-78200000D03*
X148799999Y-61940000D03*
D16*
X143089999Y-63210000D03*
X143090000Y-65500000D03*
X143090000Y-74640000D03*
X143089999Y-76930000D03*
X147909999Y-66510000D03*
X149689999Y-67530000D03*
X147909999Y-68550000D03*
X149689999Y-69570000D03*
X147909999Y-70590000D03*
X149689999Y-71610000D03*
X147909999Y-72630000D03*
X149689999Y-73650000D03*
D17*
X152230000Y-76420000D03*
X152230000Y-63720000D03*
%TD*%
D13*
%TO.C,CN3*%
X102300000Y-106075000D03*
D12*
X100300000Y-106075000D03*
X102300000Y-108075000D03*
X100300000Y-108075000D03*
X102300000Y-110075000D03*
X100300000Y-110075000D03*
X102300000Y-112075000D03*
X100300000Y-112075000D03*
X102300000Y-114075000D03*
X100300000Y-114075000D03*
X102300000Y-116075000D03*
X100300000Y-116075000D03*
X102300000Y-118075000D03*
X100300000Y-118075000D03*
X102300000Y-120075000D03*
X100300000Y-120075000D03*
%TD*%
D11*
%TO.C,J6*%
X63650000Y-68375000D03*
D10*
X66190000Y-68375000D03*
X63650000Y-70915000D03*
X66190000Y-70915000D03*
X63650000Y-73455000D03*
X66190000Y-73455000D03*
X63650000Y-75995000D03*
X66190000Y-75995000D03*
X63650000Y-78535000D03*
X66190000Y-78535000D03*
%TD*%
D11*
%TO.C,J9*%
X63650000Y-91485000D03*
D10*
X66190000Y-91485000D03*
X63650000Y-94025000D03*
X66190000Y-94025000D03*
X63650000Y-96564999D03*
X66190000Y-96565000D03*
X63650000Y-99105000D03*
X66190000Y-99105000D03*
X63650000Y-101645000D03*
X66190000Y-101645000D03*
X63650000Y-104185000D03*
X66190000Y-104185000D03*
X63650000Y-106725000D03*
X66190000Y-106725000D03*
X63650000Y-109265001D03*
X66190000Y-109265000D03*
X63650000Y-111805000D03*
X66190000Y-111805000D03*
X63650000Y-114345000D03*
X66190000Y-114345000D03*
X63650000Y-116885000D03*
X66190000Y-116885000D03*
%TD*%
D11*
%TO.C,J2*%
X74590000Y-39950000D03*
D10*
X77130000Y-39950000D03*
X79669999Y-39950000D03*
X82210000Y-39950000D03*
X84750000Y-39950000D03*
%TD*%
D18*
%TO.C,TP12*%
X77801600Y-85019800D03*
%TD*%
D19*
%TO.C,H3*%
X148318400Y-127769800D03*
%TD*%
D11*
%TO.C,J3*%
X98270000Y-135500000D03*
D10*
X100810000Y-135500000D03*
X103349999Y-135500000D03*
X105890000Y-135500000D03*
X108430000Y-135500000D03*
%TD*%
D11*
%TO.C,J8*%
X63650000Y-87625000D03*
D10*
X63650000Y-85085000D03*
X63650000Y-82545001D03*
%TD*%
D19*
%TO.C,H2*%
X148318400Y-47769800D03*
%TD*%
%TO.C,H4*%
X68318400Y-127769800D03*
%TD*%
%TO.C,H6*%
X116556000Y-50557700D03*
%TD*%
D18*
%TO.C,TP4*%
X94247600Y-80455900D03*
%TD*%
%TO.C,TP10*%
X127177800Y-130683000D03*
%TD*%
%TO.C,TP8*%
X77800000Y-82950000D03*
%TD*%
D13*
%TO.C,CN4*%
X142225000Y-43325000D03*
D12*
X142225000Y-41325000D03*
X140225000Y-43325000D03*
X140225000Y-41325000D03*
X138225000Y-43325000D03*
X138225000Y-41325000D03*
X136225000Y-43325000D03*
X136225000Y-41325000D03*
X134225000Y-43325000D03*
X134225000Y-41325000D03*
X132225000Y-43325000D03*
X132225000Y-41325000D03*
X130225000Y-43325000D03*
X130225000Y-41325000D03*
X128225000Y-43325000D03*
X128225000Y-41325000D03*
%TD*%
D18*
%TO.C,TP5*%
X89555800Y-56933100D03*
%TD*%
%TO.C,TP7*%
X77800000Y-87125000D03*
%TD*%
%TO.C,TP9*%
X129184400Y-130683000D03*
%TD*%
D19*
%TO.C,H5*%
X82545400Y-94575900D03*
%TD*%
D11*
%TO.C,J10*%
X63640000Y-54440001D03*
D10*
X66180000Y-54440001D03*
X63640000Y-56980001D03*
X66180000Y-56980001D03*
X63640000Y-59520000D03*
X66180000Y-59520001D03*
X63640000Y-62060001D03*
X66180000Y-62060001D03*
X63640000Y-64600001D03*
X66180000Y-64600001D03*
%TD*%
D18*
%TO.C,TP11*%
X121200000Y-130530000D03*
%TD*%
D19*
%TO.C,H1*%
X68318400Y-47769800D03*
%TD*%
D18*
%TO.C,TP6*%
X109375000Y-90950000D03*
%TD*%
D20*
%TO.C,C3*%
X135979999Y-64595000D03*
X135979999Y-63045000D03*
%TD*%
D18*
%TO.C,TP2*%
X128900000Y-111300000D03*
%TD*%
D20*
%TO.C,C7*%
X129866798Y-64585001D03*
X129866798Y-63035001D03*
%TD*%
D21*
%TO.C,C27*%
X130149999Y-81300000D03*
X131699999Y-81300000D03*
%TD*%
D22*
%TO.C,R94*%
X116461999Y-73728600D03*
X115442001Y-73728600D03*
%TD*%
D23*
%TO.C,C29*%
X128694999Y-76780000D03*
X127144999Y-76780000D03*
%TD*%
D20*
%TO.C,C6*%
X131333400Y-64595000D03*
X131333400Y-63045000D03*
%TD*%
%TO.C,C4*%
X134433400Y-64595000D03*
X134433400Y-63045000D03*
%TD*%
D23*
%TO.C,C28*%
X128704999Y-81350001D03*
X127154999Y-81350001D03*
%TD*%
%TO.C,C25*%
X128715000Y-79860001D03*
X127165000Y-79860001D03*
%TD*%
D24*
%TO.C,C24*%
X139799999Y-74300000D03*
X139799999Y-75850000D03*
%TD*%
%TO.C,C20*%
X135389999Y-74300000D03*
X135389999Y-75850000D03*
%TD*%
D25*
%TO.C,Card1*%
X95590000Y-53650000D03*
X96690000Y-53650000D03*
X97790000Y-53650000D03*
X98890000Y-53650000D03*
X99990001Y-53650000D03*
X101090000Y-53650000D03*
X102190000Y-53650001D03*
X103290000Y-53650000D03*
D26*
X105350000Y-44690000D03*
D27*
X105350000Y-52160000D03*
D28*
X104700001Y-53790000D03*
D29*
X92040000Y-53740000D03*
D30*
X91950000Y-38890000D03*
X105240000Y-38890000D03*
%TD*%
D24*
%TO.C,C23*%
X138319999Y-74300000D03*
X138319999Y-75850000D03*
%TD*%
D18*
%TO.C,TP1*%
X126771400Y-111201200D03*
%TD*%
D21*
%TO.C,C26*%
X130144999Y-79840000D03*
X131694999Y-79840000D03*
%TD*%
D20*
%TO.C,C5*%
X132876798Y-64595001D03*
X132876798Y-63045001D03*
%TD*%
D22*
%TO.C,R96*%
X116459999Y-74770000D03*
X115440001Y-74770000D03*
%TD*%
D21*
%TO.C,C31*%
X130139999Y-76840000D03*
X131689999Y-76840000D03*
%TD*%
D23*
%TO.C,C30*%
X128695000Y-78330002D03*
X127145000Y-78330002D03*
%TD*%
D24*
%TO.C,C19*%
X136849999Y-74300000D03*
X136849999Y-75850000D03*
%TD*%
D20*
%TO.C,C8*%
X128396799Y-64581803D03*
X128396799Y-63031803D03*
%TD*%
D21*
%TO.C,C32*%
X130144999Y-78360000D03*
X131694999Y-78360000D03*
%TD*%
M02*
