M48
; DRILL file {KiCad 9.0.3} date 2025-07-11T15:18:27-0700
; FORMAT={-:-/ absolute / inch / decimal}
; #@! TF.CreationDate,2025-07-11T15:18:27-07:00
; #@! TF.GenerationSoftware,Kicad,Pcbnew,9.0.3
; #@! TF.FileFunction,Plated,1,6,PTH
FMAT,2
INCH
; #@! TA.AperFunction,Plated,PTH,ViaDrill
T1C0.0059
; #@! TA.AperFunction,Plated,PTH,ViaDrill
T2C0.0118
; #@! TA.AperFunction,Plated,PTH,ComponentDrill
T3C0.0197
; #@! TA.AperFunction,Plated,PTH,ComponentDrill
T4C0.0315
; #@! TA.AperFunction,Plated,PTH,ComponentDrill
T5C0.0350
; #@! TA.AperFunction,Plated,PTH,ComponentDrill
T6C0.0394
; #@! TA.AperFunction,Plated,PTH,ComponentDrill
T7C0.0618
; #@! TA.AperFunction,Plated,PTH,ComponentDrill
T8C0.1063
; #@! TA.AperFunction,Plated,PTH,ComponentDrill
T9C0.1280
%
G90
G05
T1
X2.726Y-3.3724
X2.9083Y-3.372
X2.9571Y-3.4252
X3.0945Y-5.0827
X3.1939Y-5.0837
X3.198Y-3.0492
X3.1984Y-3.2461
X3.1988Y-2.1437
X3.1988Y-2.2421
X3.1988Y-2.3406
X3.1988Y-2.439
X3.1988Y-2.5374
X3.1988Y-2.6358
X3.1988Y-2.7343
X3.1988Y-2.8327
X3.1988Y-2.8917
X3.1988Y-2.9114
X3.1988Y-2.9311
X3.1988Y-2.9508
X3.1988Y-2.9715
X3.1988Y-2.9902
X3.1988Y-3.1083
X3.1988Y-3.187
X3.1988Y-3.2657
X3.1988Y-3.2854
X3.1988Y-3.3051
X3.1988Y-3.3248
X3.1988Y-3.3642
X3.1988Y-3.3839
X3.2549Y-3.064
X3.2549Y-3.1063
X3.2587Y-2.6039
X3.2717Y-3.2846
X3.3209Y-2.6547
X3.3213Y-2.6031
X3.3217Y-3.4835
X3.3376Y-3.0591
X3.3553Y-3.187
X3.3665Y-3.0488
X3.3957Y-3.1339
X3.4409Y-2.065
X3.4409Y-2.0846
X3.4409Y-2.1043
X3.4409Y-2.124
X3.4409Y-2.1634
X3.4409Y-2.1831
X3.4409Y-2.2028
X3.4409Y-2.2224
X3.4409Y-3.3051
X3.4418Y-2.1437
X3.4418Y-2.2618
X3.4418Y-2.3996
X3.4418Y-2.498
X3.4418Y-2.5965
X3.4418Y-2.6555
X3.4418Y-2.7343
X3.4418Y-2.8327
X3.4418Y-2.9311
X3.4418Y-3.0295
X3.4418Y-3.1476
X3.4418Y-3.2264
X3.4418Y-3.3248
X3.4419Y-2.6949
X3.4419Y-2.7146
X3.4419Y-3.0492
X3.4419Y-3.1083
X3.4419Y-3.128
X3.4419Y-3.2461
X3.4419Y-3.3445
X3.4419Y-3.3642
X3.4419Y-3.3839
X3.4419Y-3.4035
X3.4419Y-3.4232
X3.4425Y-3.2665
X3.4429Y-3.2854
X3.4567Y-3.2067
X3.4734Y-3.4528
X3.5069Y-3.6998
X3.5177Y-3.1673
X3.5177Y-3.5768
X3.5187Y-3.3278
X3.5197Y-3.2687
X3.5197Y-3.3907
X3.5197Y-3.4518
X3.5197Y-3.5138
X3.5677Y-2.6976
X3.5787Y-3.1683
X3.5797Y-3.3278
X3.5807Y-3.2687
X3.5807Y-3.4518
X3.5807Y-3.5138
X3.5817Y-3.3907
X3.6053Y-1.8071
X3.607Y-1.8257
X3.6205Y-1.5307
X3.6236Y-2.1157
X3.6953Y-5.0831
X3.7008Y-1.5213
X3.7622Y-2.235
X3.7634Y-2.1122
X3.7634Y-2.1783
X3.7972Y-3.0157
X3.7992Y-2.235
X3.8067Y-2.1122
X3.8071Y-2.178
X3.8474Y-2.2913
X3.85Y-2.1122
X3.8504Y-2.161
X3.861Y-1.987
X3.8848Y-4.5039
X3.8868Y-4.3051
X3.8933Y-2.1122
X3.9122Y-2.235
X3.9205Y-1.9882
X3.9366Y-2.1122
X3.9374Y-2.1606
X3.9594Y-2.2827
X3.9606Y-2.2138
X3.9715Y-4.1073
X3.9799Y-2.1122
X4.0098Y-4.125
X4.0154Y-1.6063
X4.0232Y-2.1122
X4.0232Y-2.1799
X4.0232Y-2.2362
X4.0295Y-4.124
X4.0303Y-1.5598
X4.0551Y-1.6075
X4.0665Y-2.1122
X4.0665Y-2.1122
X4.0665Y-2.1795
X4.122Y-2.1177
X4.1357Y-2.4399
X4.1357Y-2.4799
X4.1357Y-2.5199
X4.1357Y-2.5599
X4.137Y-2.6006
X4.1373Y-2.651
X4.1433Y-1.5311
X4.1476Y-1.7594
X4.1476Y-2.0535
X4.2726Y-4.6319
X4.3327Y-4.5719
X4.3337Y-4.6319
X4.3953Y-3.0685
X4.3961Y-3.5602
X4.3963Y-2.2613
X4.3963Y-2.3204
X4.3963Y-2.3598
X4.3963Y-2.4188
X4.3963Y-2.4582
X4.3963Y-2.4779
X4.3963Y-2.4976
X4.3963Y-2.5172
X4.3963Y-2.5369
X4.3963Y-2.5566
X4.3963Y-2.5763
X4.3963Y-2.596
X4.3963Y-2.6157
X4.3963Y-2.6353
X4.3963Y-2.655
X4.3963Y-2.6747
X4.3963Y-2.7141
X4.3963Y-2.8322
X4.3963Y-2.9306
X4.3963Y-2.9503
X4.3963Y-2.97
X4.3963Y-2.9897
X4.3963Y-3.0094
X4.3963Y-3.0881
X4.3963Y-3.1078
X4.3963Y-3.1275
X4.3963Y-3.1472
X4.3963Y-3.1668
X4.3963Y-3.1865
X4.3963Y-3.2062
X4.3963Y-3.2259
X4.3963Y-3.2456
X4.3963Y-3.2653
X4.3963Y-3.285
X4.3963Y-3.3046
X4.3963Y-3.3243
X4.3963Y-3.344
X4.3963Y-3.3637
X4.3963Y-3.4031
X4.3963Y-3.4227
X4.3963Y-3.4424
X4.3963Y-3.4621
X4.3963Y-3.4818
X4.3963Y-3.5015
X4.3963Y-3.5212
X4.3963Y-3.5409
X4.3963Y-3.5802
X4.3963Y-3.5999
X4.3967Y-2.438
X4.3969Y-2.7728
X4.4575Y-3.7402
X4.4626Y-4.3366
X4.4626Y-4.4636
X4.4626Y-4.5246
X4.4626Y-4.5866
X4.4636Y-4.3996
X4.4685Y-4.7372
X4.4783Y-3.376
X4.497Y-2.7972
X4.5128Y-4.9793
X4.5148Y-2.8179
X4.5449Y-2.9035
X4.5449Y-2.9445
X4.562Y-4.9793
X4.5758Y-4.503
X4.5758Y-4.5443
X4.5768Y-4.4213
X4.5768Y-4.4616
X4.5778Y-4.2461
X4.5787Y-4.2874
X4.5787Y-4.3287
X4.5787Y-4.3819
X4.5797Y-3.2264
X4.6132Y-5.1181
X4.6393Y-2.281
X4.6393Y-2.3401
X4.6393Y-2.3991
X4.6393Y-2.4582
X4.6393Y-2.5172
X4.6393Y-2.5763
X4.6393Y-2.6157
X4.6393Y-2.6747
X4.6393Y-2.7338
X4.6393Y-2.7928
X4.6393Y-2.8519
X4.6393Y-2.8716
X4.6393Y-2.8913
X4.6393Y-2.9109
X4.6393Y-2.9306
X4.6393Y-2.9503
X4.6393Y-2.97
X4.6393Y-2.9897
X4.6393Y-3.0094
X4.6393Y-3.029
X4.6393Y-3.0684
X4.6393Y-3.0881
X4.6393Y-3.1078
X4.6393Y-3.1275
X4.6393Y-3.1472
X4.6393Y-3.1668
X4.6393Y-3.1865
X4.6393Y-3.2062
X4.6393Y-3.2259
X4.6393Y-3.2456
X4.6393Y-3.2653
X4.6393Y-3.3046
X4.6393Y-3.3243
X4.6393Y-3.344
X4.6393Y-3.3637
X4.6393Y-3.3834
X4.6393Y-3.4031
X4.6393Y-3.4621
X4.6393Y-3.5999
X4.6717Y-4.5516
X4.6742Y-5.1181
X4.6772Y-4.0098
X4.6772Y-4.0709
X4.6772Y-4.1329
X4.6772Y-4.1939
X4.6874Y-3.2854
X4.6957Y-3.5211
X4.6957Y-3.5409
X4.6976Y-3.4227
X4.6976Y-3.4425
X4.7346Y-2.3008
X4.7346Y-2.3402
X4.7354Y-2.224
X4.7354Y-2.2622
X4.7461Y-5.0571
X4.748Y-4.9335
X4.8081Y-5.0571
X4.811Y-4.2343
X4.812Y-4.1919
X4.814Y-4.5856
X4.815Y-4.2904
X4.815Y-4.3297
X4.8165Y-4.4283
X4.8213Y-2.6579
X4.8799Y-2.6587
X4.8868Y-4.6575
X4.8907Y-5.0482
X4.9055Y-2.9602
X4.9063Y-4.2193
X4.9183Y-1.9404
X4.9224Y-2.9472
X4.9311Y-4.0669
X4.9378Y-2.6587
X4.9413Y-2.9598
X4.9543Y-2.8329
X4.9543Y-2.8701
X4.9547Y-2.7559
X4.9547Y-2.7929
X4.9587Y-4.9616
X4.9656Y-4.6565
X4.9715Y-4.0669
X4.9911Y-4.6043
X4.9944Y-2.8508
X4.9949Y-2.7752
X5.0039Y-3.9892
X5.0047Y-3.9638
X5.0047Y-4.0154
X5.0049Y-4.6545
X5.0118Y-4.0669
X5.0246Y-4.6545
X5.0276Y-2.8866
X5.028Y-2.8126
X5.0283Y-2.7378
X5.0531Y-4.0669
X5.064Y-4.6555
X5.0817Y-4.7736
X5.0827Y-4.6555
X5.0925Y-2.9429
X5.0984Y-5.062
X5.1033Y-4.2185
X5.1033Y-4.6545
X5.1209Y-2.6386
X5.1209Y-2.6583
X5.1209Y-2.678
X5.1209Y-2.6976
X5.1209Y-2.7173
X5.1209Y-2.737
X5.1209Y-2.7567
X5.123Y-4.7736
X5.1366Y-3.9484
X5.1417Y-3.3819
X5.1417Y-4.2205
X5.1492Y-2.6102
X5.1614Y-4.6555
X5.1634Y-3.9488
X5.1839Y-3.1756
X5.1919Y-4.0669
X5.1929Y-3.4016
X5.1988Y-4.774
X5.2067Y-4.0024
X5.2083Y-2.8835
X5.2083Y-2.9768
X5.2197Y-1.8646
X5.228Y-2.8835
X5.2295Y-2.9366
X5.2333Y-4.0679
X5.2402Y-3.1323
X5.2476Y-2.6102
X5.2476Y-2.8835
X5.253Y-4.4281
X5.2579Y-2.5114
X5.2726Y-4.2146
X5.287Y-2.6102
X5.2874Y-2.922
X5.2874Y-2.9634
X5.2972Y-4.7224
X5.2976Y-4.6283
X5.3059Y-2.2539
X5.3061Y-5.127
X5.3063Y-2.3173
X5.3067Y-2.6102
X5.315Y-5.313
X5.322Y-2.3976
X5.3374Y-4.2894
X5.3376Y-5.2215
X5.3425Y-3.0949
X5.3425Y-3.1323
X5.348Y-4.2563
X5.3657Y-2.6102
X5.3657Y-2.8835
X5.3787Y-4.5882
X5.3941Y-2.6976
X5.3941Y-2.7567
X5.3941Y-2.8157
X5.3941Y-3.0803
X5.395Y-4.9173
X5.395Y-4.9813
X5.4026Y-5.312
X5.4087Y-2.4606
X5.4112Y-5.1644
X5.4114Y-5.128
X5.4124Y-5.0886
X5.4197Y-3.0803
X5.4197Y-3.0024
X5.431Y-5.1644
X5.4453Y-3.0803
X5.4685Y-4.4163
X5.4685Y-5.312
X5.4695Y-4.3356
X5.4695Y-4.376
X5.4695Y-4.4577
X5.4695Y-4.5394
X5.4705Y-4.253
X5.4705Y-4.2943
X5.4705Y-4.499
X5.4705Y-4.5807
X5.4744Y-2.954
X5.4783Y-2.6346
X5.4862Y-5.2077
X5.4914Y-2.7761
X5.502Y-2.3819
X5.5049Y-5.1467
X5.5054Y-2.7901
X5.5142Y-2.6495
X5.5142Y-2.6694
X5.5315Y-5.2185
X5.5531Y-5.313
X5.5758Y-4.939
X5.5758Y-5.001
X5.6398Y-4.7106
X5.6398Y-4.8238
X5.6693Y-4.7648
X5.6886Y-3.3028
X5.6886Y-3.7154
X5.6957Y-3.0004
X5.6972Y-2.5335
X5.6978Y-4.7106
X5.6978Y-4.8238
X5.7039Y-2.2453
X5.8531Y-4.0287
X6.0161Y-2.7937
X6.0169Y-3.5424
X6.0531Y-2.7283
X6.0539Y-2.9016
X6.0543Y-3.4764
X6.0547Y-3.65
X6.0909Y-2.7937
X6.0917Y-3.5424
T2
X4.3201Y-3.0123
X4.5374Y-3.0268
X4.8659Y-3.2621
X4.9269Y-3.2633
X5.0061Y-3.2028
X5.0295Y-3.2827
X5.055Y-2.4816
X5.1201Y-3.2453
X5.124Y-3.2008
X5.1706Y-2.5431
X5.1846Y-3.0252
X5.2575Y-2.7469
X5.3425Y-3.0575
X5.3657Y-2.2874
X5.507Y-2.2481
X5.7027Y-2.3193
T3
X3.063Y-3.2657
X3.063Y-3.4301
X3.0631Y-3.3472
X3.5258Y-2.2415
X3.7105Y-3.1676
X4.3061Y-3.5807
X4.7717Y-5.139
X4.991Y-4.378
X5.007Y-5.145
X5.0748Y-4.3819
X5.086Y-5.145
T4
X3.9488Y-4.1762
X3.9488Y-4.2549
X3.9488Y-4.3337
X3.9488Y-4.4124
X3.9488Y-4.4911
X3.9488Y-4.5699
X3.9488Y-4.6486
X3.9488Y-4.7274
X4.0276Y-4.1762
X4.0276Y-4.2549
X4.0276Y-4.3337
X4.0276Y-4.4124
X4.0276Y-4.4911
X4.0276Y-4.5699
X4.0276Y-4.6486
X4.0276Y-4.7274
X4.5364Y-5.2546
X4.5364Y-5.3334
X4.6151Y-5.2546
X4.6151Y-5.3334
X4.6939Y-5.2546
X4.6939Y-5.3334
X4.7726Y-5.2546
X4.7726Y-5.3334
X4.8514Y-5.2546
X4.8514Y-5.3334
X4.9301Y-5.2546
X4.9301Y-5.3334
X5.0089Y-5.2546
X5.0089Y-5.3334
X5.0482Y-1.627
X5.0482Y-1.7057
X5.0876Y-5.2546
X5.0876Y-5.3334
X5.127Y-1.627
X5.127Y-1.7057
X5.2057Y-1.627
X5.2057Y-1.7057
X5.2844Y-1.627
X5.2844Y-1.7057
X5.3632Y-1.627
X5.3632Y-1.7057
X5.4419Y-1.627
X5.4419Y-1.7057
X5.5207Y-1.627
X5.5207Y-1.7057
X5.5994Y-1.627
X5.5994Y-1.7057
T5
X5.6323Y-3.2366
X5.6323Y-3.7768
X5.6323Y-3.3268
X5.6323Y-3.6866
X5.6335Y-2.4886
X5.6335Y-3.0287
X5.6335Y-2.5787
X5.6335Y-2.9386
X5.822Y-3.3665
X5.822Y-3.4469
X5.822Y-3.5272
X5.822Y-3.6075
X5.8232Y-2.6185
X5.8232Y-2.6988
X5.8232Y-2.7791
X5.8232Y-2.8594
X5.8921Y-3.4067
X5.8921Y-3.487
X5.8921Y-3.5673
X5.8921Y-3.6476
X5.8933Y-2.6587
X5.8933Y-2.739
X5.8933Y-2.8193
X5.8933Y-2.8996
T6
X2.5055Y-2.1433
X2.5055Y-2.2433
X2.5055Y-2.3433
X2.5055Y-2.4433
X2.5055Y-2.5433
X2.5059Y-2.6919
X2.5059Y-2.7919
X2.5059Y-2.8919
X2.5059Y-2.9919
X2.5059Y-3.0919
X2.5059Y-3.2498
X2.5059Y-3.3498
X2.5059Y-3.4498
X2.5059Y-3.6018
X2.5059Y-3.7018
X2.5059Y-3.8018
X2.5059Y-3.9018
X2.5059Y-4.0018
X2.5059Y-4.1018
X2.5059Y-4.2018
X2.5059Y-4.3018
X2.5059Y-4.4018
X2.5059Y-4.5018
X2.5059Y-4.6018
X2.6055Y-2.1433
X2.6055Y-2.2433
X2.6055Y-2.3433
X2.6055Y-2.4433
X2.6055Y-2.5433
X2.6059Y-2.6919
X2.6059Y-2.7919
X2.6059Y-2.8919
X2.6059Y-2.9919
X2.6059Y-3.0919
X2.6059Y-3.6018
X2.6059Y-3.7018
X2.6059Y-3.8018
X2.6059Y-3.9018
X2.6059Y-4.0018
X2.6059Y-4.1018
X2.6059Y-4.2018
X2.6059Y-4.3018
X2.6059Y-4.4018
X2.6059Y-4.5018
X2.6059Y-4.6018
X2.8037Y-5.2297
X2.8037Y-5.3297
X2.9037Y-5.2297
X2.9037Y-5.3297
X2.9366Y-1.5728
X3.0037Y-5.2297
X3.0037Y-5.3297
X3.0366Y-1.5728
X3.1037Y-5.2297
X3.1037Y-5.3297
X3.1366Y-1.5728
X3.2037Y-5.2297
X3.2037Y-5.3297
X3.2366Y-1.5728
X3.3037Y-5.2297
X3.3037Y-5.3297
X3.3366Y-1.5728
X3.4037Y-5.2297
X3.4037Y-5.3297
X3.5037Y-5.3297
X3.5037Y-5.2297
X3.6037Y-5.2297
X3.6037Y-5.3297
X3.7037Y-5.2297
X3.7037Y-5.3297
X3.8689Y-5.3346
X3.9689Y-5.3346
X4.0689Y-5.3346
X4.1689Y-5.3346
X4.2689Y-5.3346
T7
X5.8571Y-3.1866
X5.8571Y-3.8268
X5.8583Y-2.4386
X5.8583Y-3.0787
T8
X2.6897Y-1.8807
X2.6897Y-5.0303
X3.2498Y-3.7235
X4.5888Y-1.9905
X5.8393Y-1.8807
X5.8393Y-5.0303
T9
X5.9921Y-3.2567
X5.9921Y-3.7567
X5.9933Y-2.5087
X5.9933Y-3.0087
M30
