%TF.GenerationSoftware,KiCad,Pcbnew,9.0.0*%
%TF.CreationDate,2025-08-10T01:38:07-07:00*%
%TF.ProjectId,imx8x_carrier_v2,696d7838-785f-4636-9172-726965725f76,A*%
%TF.SameCoordinates,Original*%
%TF.FileFunction,Soldermask,Bot*%
%TF.FilePolarity,Negative*%
%FSLAX46Y46*%
G04 Gerber Fmt 4.6, Leading zero omitted, Abs format (unit mm)*
G04 Created by KiCad (PCBNEW 9.0.0) date 2025-08-10 01:38:07*
%MOMM*%
%LPD*%
G01*
G04 APERTURE LIST*
G04 Aperture macros list*
%AMRoundRect*
0 Rectangle with rounded corners*
0 $1 Rounding radius*
0 $2 $3 $4 $5 $6 $7 $8 $9 X,Y pos of 4 corners*
0 Add a 4 corners polygon primitive as box body*
4,1,4,$2,$3,$4,$5,$6,$7,$8,$9,$2,$3,0*
0 Add four circle primitives for the rounded corners*
1,1,$1+$1,$2,$3*
1,1,$1+$1,$4,$5*
1,1,$1+$1,$6,$7*
1,1,$1+$1,$8,$9*
0 Add four rect primitives between the rounded corners*
20,1,$1+$1,$2,$3,$4,$5,0*
20,1,$1+$1,$4,$5,$6,$7,0*
20,1,$1+$1,$6,$7,$8,$9,0*
20,1,$1+$1,$8,$9,$2,$3,0*%
%AMRotRect*
0 Rectangle, with rotation*
0 The origin of the aperture is its center*
0 $1 length*
0 $2 width*
0 $3 Rotation angle, in degrees counterclockwise*
0 Add horizontal line*
21,1,$1,$2,0,0,$3*%
%AMFreePoly0*
4,1,15,0.030697,0.149468,0.210697,0.009468,0.229614,-0.023798,0.230000,-0.030000,0.230000,-0.110000,0.215355,-0.145355,0.180000,-0.160000,-0.180000,-0.160000,-0.215355,-0.145355,-0.230000,-0.110000,-0.230000,0.110000,-0.215355,0.145355,-0.180000,0.160000,0.000000,0.160000,0.030697,0.149468,0.030697,0.149468,$1*%
%AMFreePoly1*
4,1,15,0.215355,0.155355,0.230000,0.120000,0.230000,0.040000,0.215355,0.004645,0.210697,0.000532,0.030697,-0.139468,0.000000,-0.150000,-0.180000,-0.150000,-0.215355,-0.135355,-0.230000,-0.100000,-0.230000,0.120000,-0.215355,0.155355,-0.180000,0.170000,0.180000,0.170000,0.215355,0.155355,0.215355,0.155355,$1*%
%AMFreePoly2*
4,1,15,0.215355,0.155355,0.230000,0.120000,0.230000,-0.100000,0.215355,-0.135355,0.180000,-0.150000,0.000000,-0.150000,-0.030697,-0.139468,-0.210697,0.000532,-0.229614,0.033798,-0.230000,0.040000,-0.230000,0.120000,-0.215355,0.155355,-0.180000,0.170000,0.180000,0.170000,0.215355,0.155355,0.215355,0.155355,$1*%
%AMFreePoly3*
4,1,15,0.215355,0.145355,0.230000,0.110000,0.230000,-0.110000,0.215355,-0.145355,0.180000,-0.160000,-0.180000,-0.160000,-0.215355,-0.145355,-0.230000,-0.110000,-0.230000,-0.030000,-0.215355,0.005355,-0.210697,0.009468,-0.030697,0.149468,0.000000,0.160000,0.180000,0.160000,0.215355,0.145355,0.215355,0.145355,$1*%
G04 Aperture macros list end*
%ADD10R,1.700000X1.700000*%
%ADD11O,1.700000X1.700000*%
%ADD12C,3.250000*%
%ADD13C,1.520000*%
%ADD14C,2.500000*%
%ADD15R,1.400000X1.400000*%
%ADD16C,1.400000*%
%ADD17R,1.000000X1.000000*%
%ADD18C,4.700000*%
%ADD19C,1.016000*%
%ADD20R,1.150000X1.400000*%
%ADD21RoundRect,0.225000X0.225000X0.250000X-0.225000X0.250000X-0.225000X-0.250000X0.225000X-0.250000X0*%
%ADD22RoundRect,0.135000X-0.135000X-0.185000X0.135000X-0.185000X0.135000X0.185000X-0.135000X0.185000X0*%
%ADD23R,1.100000X0.600000*%
%ADD24RoundRect,0.225000X-0.225000X-0.250000X0.225000X-0.250000X0.225000X0.250000X-0.225000X0.250000X0*%
%ADD25RoundRect,0.135000X0.185000X-0.135000X0.185000X0.135000X-0.185000X0.135000X-0.185000X-0.135000X0*%
%ADD26RoundRect,0.150000X0.150000X-0.587500X0.150000X0.587500X-0.150000X0.587500X-0.150000X-0.587500X0*%
%ADD27RoundRect,0.135000X-0.185000X0.135000X-0.185000X-0.135000X0.185000X-0.135000X0.185000X0.135000X0*%
%ADD28FreePoly0,90.000000*%
%ADD29FreePoly1,90.000000*%
%ADD30FreePoly2,90.000000*%
%ADD31FreePoly3,90.000000*%
%ADD32RotRect,0.480000X0.480000X45.000000*%
%ADD33RoundRect,0.225000X0.250000X-0.225000X0.250000X0.225000X-0.250000X0.225000X-0.250000X-0.225000X0*%
%ADD34R,0.780000X0.380000*%
%ADD35R,1.680000X0.800000*%
%ADD36R,1.400000X1.290000*%
%ADD37R,1.300000X1.290000*%
%ADD38R,1.500000X1.600000*%
%ADD39R,1.500000X1.700000*%
%ADD40R,1.700000X1.500000*%
%ADD41RoundRect,0.135000X0.135000X0.185000X-0.135000X0.185000X-0.135000X-0.185000X0.135000X-0.185000X0*%
%ADD42O,0.280000X0.850000*%
%ADD43O,0.850000X0.280000*%
%ADD44R,4.100000X4.100000*%
%ADD45R,0.600000X1.100000*%
%ADD46R,0.490000X1.160000*%
%ADD47R,0.490000X1.180000*%
%ADD48RoundRect,0.150000X-0.587500X-0.150000X0.587500X-0.150000X0.587500X0.150000X-0.587500X0.150000X0*%
G04 APERTURE END LIST*
D10*
%TO.C,J3*%
X71297800Y-65633600D03*
D11*
X71297800Y-68173600D03*
X71297800Y-70713600D03*
X71297800Y-73253600D03*
X71297800Y-75793600D03*
%TD*%
D12*
%TO.C,RJ1*%
X114790000Y-120140000D03*
X127490000Y-120140000D03*
D13*
X124720000Y-117600000D03*
X123700000Y-115820000D03*
X122680000Y-117600000D03*
X121660000Y-115820000D03*
X120640000Y-117600000D03*
X119620000Y-115820000D03*
X118600000Y-117600000D03*
X117580000Y-115820000D03*
X128000000Y-111000000D03*
X125710000Y-111000000D03*
X116570000Y-111000000D03*
X114280000Y-111000000D03*
D14*
X113010000Y-116710000D03*
X129270000Y-116710000D03*
%TD*%
D15*
%TO.C,CN2*%
X149910800Y-33546800D03*
D16*
X149910800Y-31546800D03*
X147910800Y-33546800D03*
X147910800Y-31546800D03*
X145910800Y-33546800D03*
X145910800Y-31546800D03*
X143910800Y-33546800D03*
X143910800Y-31546800D03*
X141910800Y-33546800D03*
X141910800Y-31546800D03*
X139910800Y-33546800D03*
X139910800Y-31546800D03*
X137910800Y-33546800D03*
X137910800Y-31546800D03*
X135910800Y-33546800D03*
X135910800Y-31546800D03*
%TD*%
D17*
%TO.C,TP10*%
X79425800Y-121386600D03*
%TD*%
%TO.C,TP12*%
X119590200Y-45111600D03*
%TD*%
%TO.C,TP9*%
X79425800Y-123621800D03*
%TD*%
D18*
%TO.C,H3*%
X76840200Y-115628400D03*
%TD*%
D12*
%TO.C,RJ2*%
X135280001Y-120150001D03*
X147980001Y-120150001D03*
D13*
X145210001Y-117610001D03*
X144190001Y-115830001D03*
X143170001Y-117610001D03*
X142150001Y-115830001D03*
X141130001Y-117610001D03*
X140110001Y-115830001D03*
X139090001Y-117610001D03*
X138070001Y-115830001D03*
X148490001Y-111010001D03*
X146200001Y-111010001D03*
X137060001Y-111010001D03*
X134770001Y-111010001D03*
D14*
X133500001Y-116720001D03*
X149760001Y-116720001D03*
%TD*%
D18*
%TO.C,H2*%
X156840200Y-115628400D03*
%TD*%
D15*
%TO.C,CN1*%
X97490000Y-122980000D03*
D16*
X97490000Y-120980000D03*
X95490000Y-122980000D03*
X95490000Y-120980000D03*
X93490000Y-122980000D03*
X93490000Y-120980000D03*
X91490000Y-122980000D03*
X91490000Y-120980000D03*
X89490000Y-122980000D03*
X89490000Y-120980000D03*
X87490000Y-122980000D03*
X87490000Y-120980000D03*
X85490000Y-122980000D03*
X85490000Y-120980000D03*
X83490000Y-122980000D03*
X83490000Y-120980000D03*
%TD*%
D18*
%TO.C,H4*%
X76840200Y-35628400D03*
%TD*%
%TO.C,H6*%
X154052300Y-83866000D03*
%TD*%
D15*
%TO.C,CN3*%
X128981200Y-33629600D03*
D16*
X128981200Y-31629600D03*
X126981200Y-33629600D03*
X126981200Y-31629600D03*
X124981200Y-33629600D03*
X124981200Y-31629600D03*
X122981200Y-33629600D03*
X122981200Y-31629600D03*
X120981200Y-33629600D03*
X120981200Y-31629600D03*
X118981200Y-33629600D03*
X118981200Y-31629600D03*
X116981200Y-33629600D03*
X116981200Y-31629600D03*
X114981200Y-33629600D03*
X114981200Y-31629600D03*
%TD*%
D17*
%TO.C,TP8*%
X121660000Y-45110000D03*
%TD*%
%TO.C,TP1*%
X113741200Y-76174600D03*
%TD*%
%TO.C,TP7*%
X117485000Y-45110000D03*
%TD*%
D19*
%TO.C,J4*%
X115654000Y-53668000D03*
X154126000Y-53668000D03*
%TD*%
D18*
%TO.C,H5*%
X110040000Y-49860000D03*
%TD*%
D17*
%TO.C,TP2*%
X125550000Y-46420000D03*
%TD*%
%TO.C,TP11*%
X87426400Y-115074800D03*
%TD*%
D19*
%TO.C,J1*%
X111194000Y-84108000D03*
X149666000Y-84108000D03*
%TD*%
D18*
%TO.C,H1*%
X156840200Y-35628400D03*
%TD*%
D20*
%TO.C,Y1*%
X133890003Y-103087335D03*
X133890003Y-105287335D03*
X132290003Y-105287335D03*
X132290003Y-103087335D03*
%TD*%
D21*
%TO.C,C18*%
X135950003Y-93337334D03*
X134400003Y-93337334D03*
%TD*%
%TO.C,C56*%
X153621602Y-99585538D03*
X152071602Y-99585538D03*
%TD*%
D22*
%TO.C,R29*%
X126810000Y-112450000D03*
X127830000Y-112450000D03*
%TD*%
D23*
%TO.C,TV4*%
X140829999Y-119509999D03*
X140829999Y-120459999D03*
X140829999Y-121409999D03*
X138129999Y-121409999D03*
X138129999Y-120459999D03*
X138129999Y-119509999D03*
%TD*%
D24*
%TO.C,C1*%
X132016200Y-100685600D03*
X133566200Y-100685600D03*
%TD*%
D25*
%TO.C,R94*%
X130881400Y-83772000D03*
X130881400Y-82752000D03*
%TD*%
D22*
%TO.C,R7*%
X135650003Y-101727335D03*
X136670003Y-101727335D03*
%TD*%
D26*
%TO.C,Q1*%
X126959400Y-102308900D03*
X125059400Y-102308900D03*
X126009400Y-100433900D03*
%TD*%
D25*
%TO.C,R2*%
X142830003Y-96637335D03*
X142830003Y-95617335D03*
%TD*%
%TO.C,R20*%
X144290003Y-94767335D03*
X144290003Y-93747335D03*
%TD*%
D21*
%TO.C,C9*%
X135945003Y-90410738D03*
X134395003Y-90410738D03*
%TD*%
%TO.C,C10*%
X135955003Y-91870736D03*
X134405003Y-91870736D03*
%TD*%
D24*
%TO.C,C54*%
X147975003Y-92237335D03*
X149525003Y-92237335D03*
%TD*%
D27*
%TO.C,R138*%
X158290003Y-99297336D03*
X158290003Y-100317336D03*
%TD*%
D22*
%TO.C,R8*%
X145630002Y-102207335D03*
X146650002Y-102207335D03*
%TD*%
D28*
%TO.C,U9*%
X146570003Y-93367335D03*
D29*
X145930003Y-93367335D03*
D30*
X145930003Y-92507335D03*
D31*
X146570003Y-92507335D03*
D32*
X146250003Y-92937335D03*
%TD*%
D27*
%TO.C,R137*%
X157290003Y-99297336D03*
X157290003Y-100317336D03*
%TD*%
D33*
%TO.C,C58*%
X153496602Y-93050538D03*
X153496602Y-91500538D03*
%TD*%
D25*
%TO.C,R3*%
X143770003Y-96627335D03*
X143770003Y-95607335D03*
%TD*%
D22*
%TO.C,R117*%
X154276602Y-94305538D03*
X155296602Y-94305538D03*
%TD*%
D21*
%TO.C,C16*%
X135960003Y-96297334D03*
X134410003Y-96297334D03*
%TD*%
D24*
%TO.C,C13*%
X137370003Y-91857334D03*
X138920003Y-91857334D03*
%TD*%
D34*
%TO.C,U3*%
X147650003Y-106218137D03*
X147650003Y-105568137D03*
X147650003Y-104918137D03*
X149630003Y-104918137D03*
X149630003Y-105568137D03*
X149630003Y-106218137D03*
%TD*%
D23*
%TO.C,TV2*%
X120330001Y-119450000D03*
X120330001Y-120400000D03*
X120330001Y-121350000D03*
X117630001Y-121350000D03*
X117630001Y-120400000D03*
X117630001Y-119450000D03*
%TD*%
D35*
%TO.C,Card1*%
X150960000Y-62900000D03*
X150960000Y-64000000D03*
X150960000Y-65100000D03*
X150960000Y-66200000D03*
X150960000Y-67300000D03*
X150960000Y-68400000D03*
X150960000Y-69500000D03*
X150960000Y-70600000D03*
D36*
X159920000Y-72660000D03*
D37*
X152450000Y-72660000D03*
D38*
X150820000Y-72010000D03*
D39*
X150870000Y-59350000D03*
D40*
X165720000Y-59260000D03*
X165720000Y-72550000D03*
%TD*%
D23*
%TO.C,TV3*%
X145180000Y-119500000D03*
X145180000Y-120450000D03*
X145180000Y-121400000D03*
X142480000Y-121400000D03*
X142480000Y-120450000D03*
X142480000Y-119500000D03*
%TD*%
D22*
%TO.C,R17*%
X137290003Y-107057335D03*
X138310003Y-107057335D03*
%TD*%
D41*
%TO.C,R114*%
X146780004Y-91707335D03*
X145760004Y-91707335D03*
%TD*%
D22*
%TO.C,R27*%
X125850000Y-113400000D03*
X126870000Y-113400000D03*
%TD*%
%TO.C,R30*%
X134810001Y-113410001D03*
X135830001Y-113410001D03*
%TD*%
D41*
%TO.C,R10*%
X138310003Y-105957335D03*
X137290003Y-105957335D03*
%TD*%
D25*
%TO.C,R96*%
X129840000Y-83770000D03*
X129840000Y-82750000D03*
%TD*%
D27*
%TO.C,R9*%
X135723403Y-105319135D03*
X135723403Y-106339135D03*
%TD*%
D25*
%TO.C,R4*%
X144710003Y-96627335D03*
X144710003Y-95607335D03*
%TD*%
D24*
%TO.C,C14*%
X137360003Y-90387334D03*
X138910003Y-90387334D03*
%TD*%
D22*
%TO.C,R12*%
X145980003Y-101167335D03*
X147000003Y-101167335D03*
%TD*%
D27*
%TO.C,R24*%
X146421805Y-105388337D03*
X146421805Y-106408337D03*
%TD*%
D41*
%TO.C,R28*%
X116390000Y-112450000D03*
X115370000Y-112450000D03*
%TD*%
D33*
%TO.C,C22*%
X128642505Y-104224835D03*
X128642505Y-102674835D03*
%TD*%
D25*
%TO.C,R115*%
X156260003Y-100327336D03*
X156260003Y-99307336D03*
%TD*%
D24*
%TO.C,C12*%
X137370003Y-93327334D03*
X138920003Y-93327334D03*
%TD*%
%TO.C,C2*%
X131898403Y-107629135D03*
X133448403Y-107629135D03*
%TD*%
D25*
%TO.C,R1*%
X141880003Y-96647335D03*
X141880003Y-95627335D03*
%TD*%
D21*
%TO.C,C55*%
X147010003Y-94417335D03*
X145460003Y-94417335D03*
%TD*%
D22*
%TO.C,R5*%
X145610002Y-99227335D03*
X146630002Y-99227335D03*
%TD*%
D42*
%TO.C,U1*%
X143910003Y-104917335D03*
X143410003Y-104917335D03*
X142910003Y-104917335D03*
X142410003Y-104917335D03*
X141910003Y-104917335D03*
X141410003Y-104917335D03*
X140910003Y-104917335D03*
X140410003Y-104917335D03*
X139910003Y-104917335D03*
X139410003Y-104917335D03*
X138910003Y-104917335D03*
X138410003Y-104917335D03*
D43*
X137690003Y-104197335D03*
X137690003Y-103697335D03*
X137690003Y-103197335D03*
X137690003Y-102697335D03*
X137690003Y-102197335D03*
X137690003Y-101697335D03*
X137690003Y-101197335D03*
X137690003Y-100697335D03*
X137690003Y-100197335D03*
X137690003Y-99697335D03*
X137690003Y-99197335D03*
X137690003Y-98697335D03*
D42*
X138410003Y-97977335D03*
X138910003Y-97977335D03*
X139410003Y-97977335D03*
X139910003Y-97977335D03*
X140410003Y-97977335D03*
X140910003Y-97977335D03*
X141410003Y-97977335D03*
X141910003Y-97977335D03*
X142410003Y-97977335D03*
X142910003Y-97977335D03*
X143410003Y-97977335D03*
X143910003Y-97977335D03*
D43*
X144630003Y-98697335D03*
X144630003Y-99197335D03*
X144630003Y-99697335D03*
X144630003Y-100197335D03*
X144630003Y-100697335D03*
X144630003Y-101197335D03*
X144630003Y-101697335D03*
X144630003Y-102197335D03*
X144630003Y-102697335D03*
X144630003Y-103197335D03*
X144630003Y-103697335D03*
X144630003Y-104197335D03*
D44*
X141160003Y-101447335D03*
%TD*%
D24*
%TO.C,C15*%
X137380003Y-96267334D03*
X138930003Y-96267334D03*
%TD*%
D45*
%TO.C,U2*%
X150950003Y-103607335D03*
X150000003Y-103607335D03*
X149050003Y-103607335D03*
X149050003Y-101007335D03*
X150950003Y-101007335D03*
%TD*%
D41*
%TO.C,R31*%
X136890001Y-112460001D03*
X135870001Y-112460001D03*
%TD*%
D22*
%TO.C,R32*%
X147310001Y-112460001D03*
X148330001Y-112460001D03*
%TD*%
D23*
%TO.C,TV1*%
X124680000Y-119450000D03*
X124680000Y-120400000D03*
X124680000Y-121350000D03*
X121980000Y-121350000D03*
X121980000Y-120400000D03*
X121980000Y-119450000D03*
%TD*%
D41*
%TO.C,R15*%
X126392231Y-108729775D03*
X125372231Y-108729775D03*
%TD*%
D33*
%TO.C,C21*%
X130242505Y-104224839D03*
X130242505Y-102674839D03*
%TD*%
D46*
%TO.C,U10*%
X153820003Y-95657335D03*
X154770003Y-95657335D03*
X155720003Y-95657335D03*
D47*
X155720003Y-97957335D03*
X153820003Y-97957335D03*
%TD*%
D41*
%TO.C,R23*%
X149111803Y-107388337D03*
X148091803Y-107388337D03*
%TD*%
D25*
%TO.C,R6*%
X140930003Y-96647336D03*
X140930003Y-95627336D03*
%TD*%
D24*
%TO.C,C11*%
X137380003Y-94787334D03*
X138930003Y-94787334D03*
%TD*%
D27*
%TO.C,R22*%
X146418406Y-103368338D03*
X146418406Y-104388338D03*
%TD*%
D25*
%TO.C,R21*%
X141390003Y-94777335D03*
X141390003Y-93757335D03*
%TD*%
%TO.C,R116*%
X155196602Y-100315538D03*
X155196602Y-99295538D03*
%TD*%
D22*
%TO.C,R26*%
X114310001Y-113400000D03*
X115330001Y-113400000D03*
%TD*%
D48*
%TO.C,Q2*%
X125198900Y-98550900D03*
X125198900Y-96650900D03*
X127073900Y-97600900D03*
%TD*%
D41*
%TO.C,R11*%
X147000004Y-100197335D03*
X145980004Y-100197335D03*
%TD*%
D25*
%TO.C,R16*%
X146140003Y-98287334D03*
X146140003Y-97267334D03*
%TD*%
D22*
%TO.C,R13*%
X125487258Y-103799777D03*
X126507258Y-103799777D03*
%TD*%
D41*
%TO.C,R25*%
X147130005Y-107391738D03*
X146110005Y-107391738D03*
%TD*%
D22*
%TO.C,R33*%
X146350001Y-113410001D03*
X147370001Y-113410001D03*
%TD*%
D21*
%TO.C,C17*%
X135955003Y-94817335D03*
X134405003Y-94817335D03*
%TD*%
D33*
%TO.C,C57*%
X155100002Y-93050538D03*
X155100002Y-91500538D03*
%TD*%
D27*
%TO.C,R18*%
X143346603Y-93745535D03*
X143346603Y-94765535D03*
%TD*%
%TO.C,R19*%
X142330003Y-93757336D03*
X142330003Y-94777336D03*
%TD*%
%TO.C,R14*%
X147080003Y-97267336D03*
X147080003Y-98287336D03*
%TD*%
M02*
