%TF.GenerationSoftware,KiCad,Pcbnew,9.0.3*%
%TF.CreationDate,2025-07-11T15:18:26-07:00*%
%TF.ProjectId,imx8x_carrier_v1,696d7838-785f-4636-9172-726965725f76,A*%
%TF.SameCoordinates,Original*%
%TF.FileFunction,Soldermask,Top*%
%TF.FilePolarity,Negative*%
%FSLAX46Y46*%
G04 Gerber Fmt 4.6, Leading zero omitted, Abs format (unit mm)*
G04 Created by KiCad (PCBNEW 9.0.3) date 2025-07-11 15:18:26*
%MOMM*%
%LPD*%
G01*
G04 APERTURE LIST*
G04 Aperture macros list*
%AMRoundRect*
0 Rectangle with rounded corners*
0 $1 Rounding radius*
0 $2 $3 $4 $5 $6 $7 $8 $9 X,Y pos of 4 corners*
0 Add a 4 corners polygon primitive as box body*
4,1,4,$2,$3,$4,$5,$6,$7,$8,$9,$2,$3,0*
0 Add four circle primitives for the rounded corners*
1,1,$1+$1,$2,$3*
1,1,$1+$1,$4,$5*
1,1,$1+$1,$6,$7*
1,1,$1+$1,$8,$9*
0 Add four rect primitives between the rounded corners*
20,1,$1+$1,$2,$3,$4,$5,0*
20,1,$1+$1,$4,$5,$6,$7,0*
20,1,$1+$1,$6,$7,$8,$9,0*
20,1,$1+$1,$8,$9,$2,$3,0*%
%AMRotRect*
0 Rectangle, with rotation*
0 The origin of the aperture is its center*
0 $1 length*
0 $2 width*
0 $3 Rotation angle, in degrees counterclockwise*
0 Add horizontal line*
21,1,$1,$2,0,0,$3*%
%AMFreePoly0*
4,1,15,0.215355,0.145355,0.230000,0.110000,0.230000,0.030000,0.215355,-0.005355,0.210697,-0.009468,0.030697,-0.149468,0.000000,-0.160000,-0.180000,-0.160000,-0.215355,-0.145355,-0.230000,-0.110000,-0.230000,0.110000,-0.215355,0.145355,-0.180000,0.160000,0.180000,0.160000,0.215355,0.145355,0.215355,0.145355,$1*%
%AMFreePoly1*
4,1,15,0.030697,0.139468,0.210697,-0.000532,0.229614,-0.033798,0.230000,-0.040000,0.230000,-0.120000,0.215355,-0.155355,0.180000,-0.170000,-0.180000,-0.170000,-0.215355,-0.155355,-0.230000,-0.120000,-0.230000,0.100000,-0.215355,0.135355,-0.180000,0.150000,0.000000,0.150000,0.030697,0.139468,0.030697,0.139468,$1*%
%AMFreePoly2*
4,1,15,0.215355,0.135355,0.230000,0.100000,0.230000,-0.120000,0.215355,-0.155355,0.180000,-0.170000,-0.180000,-0.170000,-0.215355,-0.155355,-0.230000,-0.120000,-0.230000,-0.040000,-0.215355,-0.004645,-0.210697,-0.000532,-0.030697,0.139468,0.000000,0.150000,0.180000,0.150000,0.215355,0.135355,0.215355,0.135355,$1*%
%AMFreePoly3*
4,1,15,0.215355,0.145355,0.230000,0.110000,0.230000,-0.110000,0.215355,-0.145355,0.180000,-0.160000,0.000000,-0.160000,-0.030697,-0.149468,-0.210697,-0.009468,-0.229614,0.023798,-0.230000,0.030000,-0.230000,0.110000,-0.215355,0.145355,-0.180000,0.160000,0.180000,0.160000,0.215355,0.145355,0.215355,0.145355,$1*%
%AMFreePoly4*
4,1,23,0.500000,-0.750000,0.000000,-0.750000,0.000000,-0.745722,-0.065263,-0.745722,-0.191342,-0.711940,-0.304381,-0.646677,-0.396677,-0.554381,-0.461940,-0.441342,-0.495722,-0.315263,-0.495722,-0.250000,-0.500000,-0.250000,-0.500000,0.250000,-0.495722,0.250000,-0.495722,0.315263,-0.461940,0.441342,-0.396677,0.554381,-0.304381,0.646677,-0.191342,0.711940,-0.065263,0.745722,0.000000,0.745722,
0.000000,0.750000,0.500000,0.750000,0.500000,-0.750000,0.500000,-0.750000,$1*%
%AMFreePoly5*
4,1,23,0.000000,0.745722,0.065263,0.745722,0.191342,0.711940,0.304381,0.646677,0.396677,0.554381,0.461940,0.441342,0.495722,0.315263,0.495722,0.250000,0.500000,0.250000,0.500000,-0.250000,0.495722,-0.250000,0.495722,-0.315263,0.461940,-0.441342,0.396677,-0.554381,0.304381,-0.646677,0.191342,-0.711940,0.065263,-0.745722,0.000000,-0.745722,0.000000,-0.750000,-0.500000,-0.750000,
-0.500000,0.750000,0.000000,0.750000,0.000000,0.745722,0.000000,0.745722,$1*%
G04 Aperture macros list end*
%ADD10C,0.000000*%
%ADD11RoundRect,0.135000X-0.135000X-0.185000X0.135000X-0.185000X0.135000X0.185000X-0.135000X0.185000X0*%
%ADD12O,1.700000X1.700000*%
%ADD13R,1.700000X1.700000*%
%ADD14C,1.400000*%
%ADD15R,1.400000X1.400000*%
%ADD16RoundRect,0.135000X0.185000X-0.135000X0.185000X0.135000X-0.185000X0.135000X-0.185000X-0.135000X0*%
%ADD17RoundRect,0.135000X-0.185000X0.135000X-0.185000X-0.135000X0.185000X-0.135000X0.185000X0.135000X0*%
%ADD18RoundRect,0.102000X0.725000X-0.152500X0.725000X0.152500X-0.725000X0.152500X-0.725000X-0.152500X0*%
%ADD19C,2.500000*%
%ADD20C,1.520000*%
%ADD21C,3.250000*%
%ADD22RoundRect,0.135000X0.135000X0.185000X-0.135000X0.185000X-0.135000X-0.185000X0.135000X-0.185000X0*%
%ADD23RoundRect,0.225000X-0.225000X-0.250000X0.225000X-0.250000X0.225000X0.250000X-0.225000X0.250000X0*%
%ADD24RoundRect,0.225000X0.225000X0.250000X-0.225000X0.250000X-0.225000X-0.250000X0.225000X-0.250000X0*%
%ADD25R,1.400000X1.150000*%
%ADD26RoundRect,0.225000X0.250000X-0.225000X0.250000X0.225000X-0.250000X0.225000X-0.250000X-0.225000X0*%
%ADD27R,0.450000X1.380000*%
%ADD28R,2.380000X1.900000*%
%ADD29R,1.480000X2.100000*%
%ADD30R,1.180000X1.900000*%
%ADD31R,0.600000X1.100000*%
%ADD32R,0.420000X0.600000*%
%ADD33RoundRect,0.225000X-0.250000X0.225000X-0.250000X-0.225000X0.250000X-0.225000X0.250000X0.225000X0*%
%ADD34FreePoly0,180.000000*%
%ADD35FreePoly1,180.000000*%
%ADD36FreePoly2,180.000000*%
%ADD37FreePoly3,180.000000*%
%ADD38RotRect,0.480000X0.480000X225.000000*%
%ADD39R,1.000000X1.000000*%
%ADD40R,1.130000X1.380000*%
%ADD41R,1.200000X1.400000*%
%ADD42R,0.380000X0.780000*%
%ADD43RoundRect,0.150000X0.587500X0.150000X-0.587500X0.150000X-0.587500X-0.150000X0.587500X-0.150000X0*%
%ADD44C,4.700000*%
%ADD45R,1.270000X0.760000*%
%ADD46R,1.000000X1.100000*%
%ADD47R,2.000000X0.700000*%
%ADD48R,1.100000X0.600000*%
%ADD49FreePoly4,270.000000*%
%ADD50FreePoly5,270.000000*%
%ADD51R,2.200000X0.900000*%
%ADD52R,2.200000X3.500000*%
%ADD53O,0.850000X0.280000*%
%ADD54O,0.280000X0.850000*%
%ADD55R,4.100000X4.100000*%
%ADD56O,0.590000X2.050000*%
%ADD57R,1.160000X0.490000*%
%ADD58R,1.180000X0.490000*%
%ADD59C,0.200000*%
%ADD60R,0.600000X0.420000*%
%ADD61O,0.280000X1.800000*%
%ADD62O,1.800000X0.280000*%
G04 APERTURE END LIST*
D10*
%TO.C,G\u002A\u002A\u002A*%
G36*
X76448846Y-105295288D02*
G01*
X76436635Y-105307500D01*
X76424423Y-105295288D01*
X76436635Y-105283077D01*
X76448846Y-105295288D01*
G37*
G36*
X76546538Y-105441827D02*
G01*
X76534327Y-105454038D01*
X76522115Y-105441827D01*
X76534327Y-105429615D01*
X76546538Y-105441827D01*
G37*
G36*
X76644231Y-105417404D02*
G01*
X76632019Y-105429615D01*
X76619808Y-105417404D01*
X76632019Y-105405192D01*
X76644231Y-105417404D01*
G37*
G36*
X76644231Y-105515096D02*
G01*
X76632019Y-105527308D01*
X76619808Y-105515096D01*
X76632019Y-105502885D01*
X76644231Y-105515096D01*
G37*
G36*
X76766346Y-105368558D02*
G01*
X76754135Y-105380769D01*
X76741923Y-105368558D01*
X76754135Y-105356346D01*
X76766346Y-105368558D01*
G37*
G36*
X76815192Y-105490673D02*
G01*
X76802981Y-105502885D01*
X76790769Y-105490673D01*
X76802981Y-105478461D01*
X76815192Y-105490673D01*
G37*
G36*
X76912885Y-105515096D02*
G01*
X76900673Y-105527308D01*
X76888461Y-105515096D01*
X76900673Y-105502885D01*
X76912885Y-105515096D01*
G37*
G36*
X77035000Y-105466250D02*
G01*
X77022788Y-105478461D01*
X77010577Y-105466250D01*
X77022788Y-105454038D01*
X77035000Y-105466250D01*
G37*
G36*
X77059423Y-105661635D02*
G01*
X77047211Y-105673846D01*
X77035000Y-105661635D01*
X77047211Y-105649423D01*
X77059423Y-105661635D01*
G37*
G36*
X77132692Y-105466250D02*
G01*
X77120481Y-105478461D01*
X77108269Y-105466250D01*
X77120481Y-105454038D01*
X77132692Y-105466250D01*
G37*
G36*
X77205961Y-105417404D02*
G01*
X77193750Y-105429615D01*
X77181538Y-105417404D01*
X77193750Y-105405192D01*
X77205961Y-105417404D01*
G37*
G36*
X77303654Y-105368558D02*
G01*
X77291442Y-105380769D01*
X77279231Y-105368558D01*
X77291442Y-105356346D01*
X77303654Y-105368558D01*
G37*
G36*
X78182885Y-106125673D02*
G01*
X78170673Y-106137885D01*
X78158461Y-106125673D01*
X78170673Y-106113461D01*
X78182885Y-106125673D01*
G37*
G36*
X78720192Y-105124327D02*
G01*
X78707981Y-105136538D01*
X78695769Y-105124327D01*
X78707981Y-105112115D01*
X78720192Y-105124327D01*
G37*
G36*
X78842308Y-105173173D02*
G01*
X78830096Y-105185385D01*
X78817885Y-105173173D01*
X78830096Y-105160961D01*
X78842308Y-105173173D01*
G37*
G36*
X78891154Y-106174519D02*
G01*
X78878942Y-106186731D01*
X78866731Y-106174519D01*
X78878942Y-106162308D01*
X78891154Y-106174519D01*
G37*
G36*
X79697115Y-105808173D02*
G01*
X79684904Y-105820385D01*
X79672692Y-105808173D01*
X79684904Y-105795961D01*
X79697115Y-105808173D01*
G37*
G36*
X79721538Y-105563942D02*
G01*
X79709327Y-105576154D01*
X79697115Y-105563942D01*
X79709327Y-105551731D01*
X79721538Y-105563942D01*
G37*
G36*
X79819231Y-105661635D02*
G01*
X79807019Y-105673846D01*
X79794808Y-105661635D01*
X79807019Y-105649423D01*
X79819231Y-105661635D01*
G37*
G36*
X79843654Y-105490673D02*
G01*
X79831442Y-105502885D01*
X79819231Y-105490673D01*
X79831442Y-105478461D01*
X79843654Y-105490673D01*
G37*
G36*
X79843654Y-105612788D02*
G01*
X79831442Y-105625000D01*
X79819231Y-105612788D01*
X79831442Y-105600577D01*
X79843654Y-105612788D01*
G37*
G36*
X79868077Y-105124327D02*
G01*
X79855865Y-105136538D01*
X79843654Y-105124327D01*
X79855865Y-105112115D01*
X79868077Y-105124327D01*
G37*
G36*
X79941346Y-105588365D02*
G01*
X79929135Y-105600577D01*
X79916923Y-105588365D01*
X79929135Y-105576154D01*
X79941346Y-105588365D01*
G37*
G36*
X80063461Y-105588365D02*
G01*
X80051250Y-105600577D01*
X80039038Y-105588365D01*
X80051250Y-105576154D01*
X80063461Y-105588365D01*
G37*
G36*
X80112308Y-105710481D02*
G01*
X80100096Y-105722692D01*
X80087885Y-105710481D01*
X80100096Y-105698269D01*
X80112308Y-105710481D01*
G37*
G36*
X80136731Y-105588365D02*
G01*
X80124519Y-105600577D01*
X80112308Y-105588365D01*
X80124519Y-105576154D01*
X80136731Y-105588365D01*
G37*
G36*
X80307692Y-105563942D02*
G01*
X80295481Y-105576154D01*
X80283269Y-105563942D01*
X80295481Y-105551731D01*
X80307692Y-105563942D01*
G37*
G36*
X80429808Y-105588365D02*
G01*
X80417596Y-105600577D01*
X80405385Y-105588365D01*
X80417596Y-105576154D01*
X80429808Y-105588365D01*
G37*
G36*
X80503077Y-105466250D02*
G01*
X80490865Y-105478461D01*
X80478654Y-105466250D01*
X80490865Y-105454038D01*
X80503077Y-105466250D01*
G37*
G36*
X80503077Y-105686058D02*
G01*
X80490865Y-105698269D01*
X80478654Y-105686058D01*
X80490865Y-105673846D01*
X80503077Y-105686058D01*
G37*
G36*
X80527500Y-105246442D02*
G01*
X80515288Y-105258654D01*
X80503077Y-105246442D01*
X80515288Y-105234231D01*
X80527500Y-105246442D01*
G37*
G36*
X80527500Y-105319711D02*
G01*
X80515288Y-105331923D01*
X80503077Y-105319711D01*
X80515288Y-105307500D01*
X80527500Y-105319711D01*
G37*
G36*
X80576346Y-105222019D02*
G01*
X80564135Y-105234231D01*
X80551923Y-105222019D01*
X80564135Y-105209808D01*
X80576346Y-105222019D01*
G37*
G36*
X76489551Y-105486602D02*
G01*
X76492474Y-105515587D01*
X76489551Y-105519167D01*
X76475032Y-105515814D01*
X76473269Y-105502885D01*
X76482205Y-105482782D01*
X76489551Y-105486602D01*
G37*
G36*
X78809743Y-106146026D02*
G01*
X78806391Y-106160545D01*
X78793461Y-106162308D01*
X78773358Y-106153372D01*
X78777179Y-106146026D01*
X78806164Y-106143103D01*
X78809743Y-106146026D01*
G37*
G36*
X79043798Y-107269594D02*
G01*
X79046866Y-107278508D01*
X79013269Y-107281913D01*
X78978597Y-107278075D01*
X78982740Y-107269594D01*
X79032743Y-107266368D01*
X79043798Y-107269594D01*
G37*
G36*
X80226282Y-105559872D02*
G01*
X80229205Y-105588856D01*
X80226282Y-105592436D01*
X80211762Y-105589083D01*
X80210000Y-105576154D01*
X80218936Y-105556051D01*
X80226282Y-105559872D01*
G37*
G36*
X80132957Y-105659302D02*
G01*
X80158971Y-105682006D01*
X80161154Y-105687499D01*
X80149563Y-105697537D01*
X80125432Y-105675044D01*
X80122187Y-105670072D01*
X80119308Y-105653360D01*
X80132957Y-105659302D01*
G37*
G36*
X76465607Y-105762891D02*
G01*
X76461058Y-105771538D01*
X76438046Y-105794862D01*
X76433752Y-105795961D01*
X76432085Y-105780185D01*
X76436635Y-105771538D01*
X76459646Y-105748214D01*
X76463940Y-105747115D01*
X76465607Y-105762891D01*
G37*
G36*
X77198299Y-105323276D02*
G01*
X77193750Y-105331923D01*
X77170738Y-105355247D01*
X77166444Y-105356346D01*
X77164778Y-105340570D01*
X77169327Y-105331923D01*
X77192339Y-105308599D01*
X77196633Y-105307500D01*
X77198299Y-105323276D01*
G37*
G36*
X79787145Y-105616353D02*
G01*
X79782596Y-105625000D01*
X79759584Y-105648324D01*
X79755290Y-105649423D01*
X79753624Y-105633647D01*
X79758173Y-105625000D01*
X79781185Y-105601676D01*
X79785479Y-105600577D01*
X79787145Y-105616353D01*
G37*
G36*
X79792926Y-105736020D02*
G01*
X79794808Y-105744233D01*
X79776985Y-105778759D01*
X79770385Y-105783750D01*
X79747843Y-105782633D01*
X79745961Y-105774421D01*
X79763784Y-105739895D01*
X79770385Y-105734904D01*
X79792926Y-105736020D01*
G37*
G36*
X80254743Y-105831407D02*
G01*
X80258846Y-105840737D01*
X80239006Y-105858810D01*
X80222211Y-105861090D01*
X80189680Y-105850068D01*
X80185577Y-105840737D01*
X80205416Y-105822664D01*
X80222211Y-105820385D01*
X80254743Y-105831407D01*
G37*
G36*
X80290490Y-105496284D02*
G01*
X80295481Y-105502885D01*
X80294364Y-105525426D01*
X80286152Y-105527308D01*
X80251625Y-105509485D01*
X80246635Y-105502885D01*
X80247751Y-105480343D01*
X80255963Y-105478461D01*
X80290490Y-105496284D01*
G37*
G36*
X80467064Y-105583818D02*
G01*
X80484760Y-105597462D01*
X80522730Y-105633110D01*
X80522564Y-105649022D01*
X80518279Y-105649423D01*
X80497892Y-105632733D01*
X80475538Y-105606683D01*
X80454416Y-105577754D01*
X80467064Y-105583818D01*
G37*
G36*
X82475726Y-117229510D02*
G01*
X82469135Y-117745944D01*
X82377533Y-117748501D01*
X82285932Y-117751058D01*
X82285947Y-117232067D01*
X82285961Y-116713077D01*
X82384139Y-116713077D01*
X82482317Y-116713077D01*
X82475726Y-117229510D01*
G37*
G36*
X80443500Y-105644387D02*
G01*
X80442082Y-105687462D01*
X80455119Y-105711551D01*
X80474066Y-105740676D01*
X80472423Y-105747115D01*
X80448809Y-105730773D01*
X80428949Y-105709446D01*
X80410003Y-105672779D01*
X80429541Y-105642282D01*
X80451222Y-105625307D01*
X80443500Y-105644387D01*
G37*
G36*
X78533369Y-106117880D02*
G01*
X78568367Y-106119966D01*
X78593942Y-106123611D01*
X78575377Y-106126541D01*
X78517376Y-106128427D01*
X78439327Y-106128964D01*
X78352665Y-106128167D01*
X78302942Y-106126090D01*
X78294286Y-106123060D01*
X78324136Y-106119850D01*
X78427039Y-106116265D01*
X78533369Y-106117880D01*
G37*
G36*
X83745726Y-115632356D02*
G01*
X83752317Y-116151346D01*
X83653373Y-116151346D01*
X83584436Y-116144040D01*
X83545349Y-116125017D01*
X83542449Y-116120128D01*
X83539101Y-116087045D01*
X83536780Y-116013076D01*
X83535568Y-115906173D01*
X83535545Y-115774289D01*
X83536795Y-115625375D01*
X83537110Y-115601138D01*
X83543750Y-115113365D01*
X83641442Y-115113365D01*
X83739135Y-115113365D01*
X83745726Y-115632356D01*
G37*
G36*
X83336154Y-116798558D02*
G01*
X83336154Y-116884038D01*
X83214038Y-116884038D01*
X83091923Y-116884038D01*
X83091923Y-117311442D01*
X83091923Y-117738846D01*
X82994231Y-117738846D01*
X82896538Y-117738846D01*
X82896538Y-117311442D01*
X82896538Y-116884038D01*
X82762211Y-116884038D01*
X82627885Y-116884038D01*
X82627885Y-116798558D01*
X82627885Y-116713077D01*
X82982019Y-116713077D01*
X83336154Y-116713077D01*
X83336154Y-116798558D01*
G37*
G36*
X82902644Y-115911817D02*
G01*
X83006442Y-115919327D01*
X83009758Y-116029231D01*
X82999396Y-116132078D01*
X82965926Y-116218348D01*
X82915502Y-116277212D01*
X82857053Y-116297885D01*
X82815516Y-116292555D01*
X82813665Y-116268659D01*
X82822410Y-116250644D01*
X82842479Y-116197868D01*
X82846362Y-116154605D01*
X82833942Y-116135801D01*
X82823269Y-116139135D01*
X82808260Y-116126968D01*
X82800011Y-116072402D01*
X82798846Y-116029268D01*
X82798846Y-115904307D01*
X82902644Y-115911817D01*
G37*
G36*
X79883987Y-105658064D02*
G01*
X79912306Y-105686346D01*
X79943028Y-105725373D01*
X79948380Y-105747115D01*
X79913918Y-105760251D01*
X79865734Y-105758261D01*
X79827523Y-105744157D01*
X79821822Y-105734904D01*
X79892500Y-105734904D01*
X79904711Y-105747115D01*
X79916923Y-105734904D01*
X79904711Y-105722692D01*
X79892500Y-105734904D01*
X79821822Y-105734904D01*
X79819231Y-105730699D01*
X79836467Y-105711099D01*
X79860105Y-105715487D01*
X79888522Y-105719191D01*
X79885028Y-105689744D01*
X79883063Y-105684481D01*
X79872969Y-105653903D01*
X79883987Y-105658064D01*
G37*
G36*
X87747625Y-113724191D02*
G01*
X87805577Y-113757885D01*
X87843324Y-113826681D01*
X87853971Y-113920276D01*
X87836012Y-114021866D01*
X87830604Y-114037160D01*
X87812972Y-114072212D01*
X87785153Y-114091014D01*
X87733624Y-114098546D01*
X87660502Y-114099808D01*
X87573977Y-114096845D01*
X87523110Y-114085580D01*
X87494943Y-114062443D01*
X87488936Y-114052567D01*
X87467383Y-113980762D01*
X87463542Y-113893807D01*
X87476142Y-113811562D01*
X87503914Y-113753886D01*
X87508317Y-113749458D01*
X87575065Y-113717094D01*
X87662104Y-113708878D01*
X87747625Y-113724191D01*
G37*
G36*
X78573654Y-116920673D02*
G01*
X78573654Y-117128269D01*
X78744615Y-117128269D01*
X78915577Y-117128269D01*
X78915577Y-116920673D01*
X78915577Y-116713077D01*
X79013269Y-116713077D01*
X79110961Y-116713077D01*
X79110961Y-117225961D01*
X79110961Y-117738846D01*
X79013269Y-117738846D01*
X78915577Y-117738846D01*
X78915577Y-117519038D01*
X78915577Y-117299231D01*
X78742882Y-117299231D01*
X78570187Y-117299231D01*
X78578026Y-117519094D01*
X78585865Y-117738958D01*
X78482067Y-117738902D01*
X78378269Y-117738846D01*
X78378269Y-117225961D01*
X78378269Y-116713077D01*
X78475961Y-116713077D01*
X78573654Y-116713077D01*
X78573654Y-116920673D01*
G37*
G36*
X79110906Y-115314856D02*
G01*
X79110851Y-115528558D01*
X79281868Y-115520448D01*
X79452885Y-115512338D01*
X79452885Y-115306746D01*
X79452885Y-115101154D01*
X79550577Y-115101154D01*
X79648269Y-115101154D01*
X79648269Y-115626250D01*
X79648269Y-116151346D01*
X79550577Y-116151346D01*
X79452885Y-116151346D01*
X79452885Y-115919327D01*
X79452885Y-115687308D01*
X79281923Y-115687308D01*
X79110961Y-115687308D01*
X79110961Y-115919327D01*
X79110961Y-116151346D01*
X79013269Y-116151346D01*
X78915577Y-116151346D01*
X78915577Y-115626250D01*
X78915577Y-115101154D01*
X79013269Y-115101154D01*
X79110961Y-115101154D01*
X79110906Y-115314856D01*
G37*
G36*
X80136731Y-112316923D02*
G01*
X80136731Y-112756538D01*
X80515288Y-112756538D01*
X80893846Y-112756538D01*
X80893846Y-112316923D01*
X80893846Y-111877308D01*
X81095336Y-111877308D01*
X81296827Y-111877308D01*
X81296827Y-112988558D01*
X81296827Y-114099808D01*
X81095336Y-114099808D01*
X80893846Y-114099808D01*
X80893846Y-113623558D01*
X80893846Y-113147308D01*
X80515288Y-113147308D01*
X80136731Y-113147308D01*
X80136731Y-113623558D01*
X80136731Y-114099808D01*
X79953558Y-114099808D01*
X79770385Y-114099808D01*
X79770385Y-112988558D01*
X79770385Y-111877308D01*
X79953558Y-111877308D01*
X80136731Y-111877308D01*
X80136731Y-112316923D01*
G37*
G36*
X81400625Y-115106530D02*
G01*
X81712019Y-115113365D01*
X81719599Y-115204952D01*
X81727179Y-115296538D01*
X81505897Y-115296538D01*
X81284615Y-115296538D01*
X81284615Y-115420381D01*
X81284615Y-115544224D01*
X81437260Y-115537994D01*
X81589904Y-115531765D01*
X81589904Y-115615642D01*
X81589904Y-115699519D01*
X81437215Y-115699519D01*
X81284526Y-115699519D01*
X81284571Y-115835001D01*
X81284615Y-115970484D01*
X81510529Y-115970701D01*
X81736442Y-115970919D01*
X81744022Y-116061133D01*
X81751602Y-116151346D01*
X81420416Y-116151346D01*
X81089231Y-116151346D01*
X81089231Y-115625520D01*
X81089231Y-115099694D01*
X81400625Y-115106530D01*
G37*
G36*
X82299171Y-111871960D02*
G01*
X82971835Y-111878824D01*
X82964715Y-112063845D01*
X82957596Y-112248866D01*
X82487452Y-112245898D01*
X82017308Y-112242931D01*
X82017268Y-112505840D01*
X82017229Y-112768750D01*
X82359191Y-112761357D01*
X82701154Y-112753964D01*
X82701154Y-112950636D01*
X82701154Y-113147308D01*
X82359231Y-113147308D01*
X82017308Y-113147308D01*
X82017308Y-113428173D01*
X82017308Y-113709038D01*
X82530192Y-113709038D01*
X83043077Y-113709038D01*
X83043077Y-113904423D01*
X83043077Y-114099808D01*
X82334808Y-114099808D01*
X81626538Y-114099808D01*
X81626523Y-112982452D01*
X81626507Y-111865096D01*
X82299171Y-111871960D01*
G37*
G36*
X86315769Y-116798558D02*
G01*
X86315769Y-116884038D01*
X86095961Y-116884038D01*
X85876154Y-116884038D01*
X85876154Y-117006154D01*
X85876154Y-117128269D01*
X86047115Y-117128269D01*
X86218077Y-117128269D01*
X86218077Y-117213750D01*
X86218077Y-117299231D01*
X86047115Y-117299231D01*
X85876154Y-117299231D01*
X85876154Y-117433558D01*
X85876154Y-117567885D01*
X86108173Y-117567885D01*
X86340192Y-117567885D01*
X86340192Y-117653365D01*
X86340192Y-117738846D01*
X86010481Y-117738846D01*
X85680769Y-117738846D01*
X85680769Y-117225961D01*
X85680769Y-116713077D01*
X85998269Y-116713077D01*
X86315769Y-116713077D01*
X86315769Y-116798558D01*
G37*
G36*
X87585769Y-115198846D02*
G01*
X87585769Y-115296538D01*
X87365961Y-115296538D01*
X87146154Y-115296538D01*
X87146154Y-115420337D01*
X87146154Y-115544135D01*
X87311010Y-115538027D01*
X87475865Y-115531918D01*
X87483445Y-115621824D01*
X87491025Y-115711731D01*
X87317313Y-115711731D01*
X87143601Y-115711731D01*
X87150983Y-115838947D01*
X87158365Y-115966164D01*
X87384279Y-115959772D01*
X87610192Y-115953381D01*
X87610192Y-116052363D01*
X87610192Y-116151346D01*
X87280481Y-116151346D01*
X86950769Y-116151346D01*
X86950769Y-115626250D01*
X86950769Y-115101154D01*
X87268269Y-115101154D01*
X87585769Y-115101154D01*
X87585769Y-115198846D01*
G37*
G36*
X70969908Y-111799966D02*
G01*
X71034769Y-111853130D01*
X71070124Y-111927278D01*
X71071130Y-112010578D01*
X71032942Y-112091199D01*
X71015822Y-112110437D01*
X70935330Y-112160362D01*
X70845281Y-112165232D01*
X70755814Y-112124693D01*
X70749351Y-112119766D01*
X70696576Y-112052314D01*
X70682170Y-111973502D01*
X70683444Y-111968356D01*
X70733846Y-111968356D01*
X70753260Y-112047501D01*
X70802960Y-112099532D01*
X70870138Y-112118977D01*
X70941984Y-112100362D01*
X70978077Y-112072692D01*
X71020640Y-112001364D01*
X71017939Y-111925369D01*
X70986503Y-111873125D01*
X70925237Y-111836171D01*
X70854416Y-111835204D01*
X70789167Y-111864524D01*
X70744617Y-111918430D01*
X70733846Y-111968356D01*
X70683444Y-111968356D01*
X70701549Y-111895231D01*
X70750130Y-111829398D01*
X70823328Y-111787904D01*
X70880385Y-111779615D01*
X70969908Y-111799966D01*
G37*
G36*
X81699808Y-116798558D02*
G01*
X81699808Y-116884038D01*
X81480000Y-116884038D01*
X81260192Y-116884038D01*
X81260192Y-117006154D01*
X81260192Y-117128269D01*
X81431154Y-117128269D01*
X81602115Y-117128269D01*
X81602115Y-117213750D01*
X81602115Y-117299231D01*
X81431154Y-117299231D01*
X81260192Y-117299231D01*
X81260192Y-117433558D01*
X81260192Y-117567885D01*
X81492211Y-117567885D01*
X81724231Y-117567885D01*
X81724231Y-117652007D01*
X81724231Y-117736130D01*
X81404611Y-117743594D01*
X81284986Y-117745636D01*
X81184151Y-117745935D01*
X81111523Y-117744568D01*
X81076518Y-117741614D01*
X81074899Y-117740881D01*
X81071884Y-117714511D01*
X81069229Y-117646651D01*
X81067076Y-117544658D01*
X81065568Y-117415886D01*
X81064848Y-117267692D01*
X81064808Y-117221891D01*
X81064808Y-116713077D01*
X81382308Y-116713077D01*
X81699808Y-116713077D01*
X81699808Y-116798558D01*
G37*
G36*
X94683150Y-111798335D02*
G01*
X94745743Y-111847188D01*
X94780468Y-111915211D01*
X94786591Y-111991443D01*
X94763382Y-112064923D01*
X94710107Y-112124688D01*
X94626036Y-112159777D01*
X94618891Y-112161040D01*
X94549530Y-112162967D01*
X94493338Y-112135432D01*
X94466834Y-112112720D01*
X94410338Y-112033897D01*
X94397971Y-111964801D01*
X94448654Y-111964801D01*
X94467003Y-112014137D01*
X94510834Y-112068177D01*
X94563322Y-112109448D01*
X94599596Y-112121538D01*
X94630396Y-112105743D01*
X94676122Y-112067156D01*
X94681783Y-112061591D01*
X94729874Y-112001189D01*
X94736956Y-111947637D01*
X94705027Y-111884630D01*
X94703711Y-111882742D01*
X94648387Y-111839285D01*
X94580311Y-111831273D01*
X94514411Y-111853904D01*
X94465614Y-111902377D01*
X94448654Y-111964801D01*
X94397971Y-111964801D01*
X94395413Y-111950508D01*
X94417914Y-111873460D01*
X94473696Y-111813662D01*
X94558614Y-111782021D01*
X94593420Y-111779615D01*
X94683150Y-111798335D01*
G37*
G36*
X80853821Y-115362364D02*
G01*
X80797169Y-115470154D01*
X80745844Y-115566401D01*
X80705633Y-115640345D01*
X80682866Y-115680343D01*
X80663432Y-115741235D01*
X80652185Y-115843934D01*
X80649615Y-115942891D01*
X80649615Y-116151346D01*
X80551923Y-116151346D01*
X80454231Y-116151346D01*
X80454231Y-115954241D01*
X80454231Y-115757135D01*
X80283269Y-115439673D01*
X80223168Y-115327395D01*
X80172313Y-115231102D01*
X80134774Y-115158602D01*
X80114621Y-115117703D01*
X80112308Y-115111682D01*
X80134116Y-115105318D01*
X80189106Y-115101573D01*
X80218809Y-115101154D01*
X80259723Y-115101337D01*
X80291444Y-115105963D01*
X80319041Y-115121144D01*
X80347584Y-115152994D01*
X80382143Y-115207627D01*
X80427788Y-115291155D01*
X80489589Y-115409693D01*
X80514447Y-115457639D01*
X80530100Y-115484279D01*
X80545069Y-115491605D01*
X80564953Y-115474001D01*
X80595352Y-115425854D01*
X80641865Y-115341550D01*
X80655641Y-115316067D01*
X80765121Y-115113365D01*
X80878323Y-115105922D01*
X80991526Y-115098478D01*
X80853821Y-115362364D01*
G37*
G36*
X85259471Y-115105785D02*
G01*
X85351058Y-115113365D01*
X85352300Y-115491923D01*
X85353964Y-115625896D01*
X85357729Y-115744811D01*
X85363117Y-115839061D01*
X85369648Y-115899035D01*
X85373311Y-115913432D01*
X85417346Y-115956244D01*
X85489770Y-115976681D01*
X85569770Y-115970630D01*
X85608799Y-115950260D01*
X85638092Y-115907734D01*
X85658784Y-115837590D01*
X85672010Y-115734367D01*
X85678904Y-115592605D01*
X85680633Y-115436971D01*
X85680769Y-115101154D01*
X85766250Y-115101154D01*
X85851731Y-115101154D01*
X85853456Y-115327067D01*
X85854193Y-115533180D01*
X85852226Y-115696447D01*
X85846544Y-115822836D01*
X85836135Y-115918318D01*
X85819988Y-115988863D01*
X85797094Y-116040441D01*
X85766440Y-116079021D01*
X85727016Y-116110574D01*
X85719985Y-116115266D01*
X85628299Y-116152486D01*
X85515775Y-116166861D01*
X85405379Y-116157165D01*
X85341813Y-116135474D01*
X85283835Y-116101867D01*
X85240285Y-116063505D01*
X85209138Y-116013222D01*
X85188363Y-115943848D01*
X85175935Y-115848217D01*
X85169824Y-115719159D01*
X85168004Y-115549507D01*
X85167976Y-115520978D01*
X85167885Y-115098205D01*
X85259471Y-115105785D01*
G37*
G36*
X80640259Y-116721234D02*
G01*
X80770427Y-116747303D01*
X80861182Y-116793678D01*
X80915974Y-116862753D01*
X80938256Y-116956924D01*
X80936400Y-117038619D01*
X80921340Y-117125697D01*
X80889888Y-117186843D01*
X80847752Y-117230617D01*
X80800923Y-117267632D01*
X80753931Y-117288348D01*
X80690245Y-117297351D01*
X80600384Y-117299231D01*
X80429808Y-117299231D01*
X80429808Y-117525144D01*
X80429808Y-117751058D01*
X80342292Y-117751058D01*
X80281780Y-117748491D01*
X80246622Y-117742185D01*
X80244599Y-117740881D01*
X80241559Y-117714511D01*
X80238881Y-117646651D01*
X80236710Y-117544658D01*
X80235190Y-117415886D01*
X80234464Y-117267692D01*
X80234423Y-117221891D01*
X80234423Y-117128269D01*
X80429808Y-117128269D01*
X80559250Y-117128269D01*
X80638104Y-117123032D01*
X80698392Y-117109634D01*
X80718000Y-117098961D01*
X80744365Y-117044842D01*
X80743727Y-116978886D01*
X80718246Y-116923940D01*
X80700067Y-116909321D01*
X80646921Y-116893706D01*
X80570215Y-116884818D01*
X80541317Y-116884038D01*
X80429808Y-116884038D01*
X80429808Y-117006154D01*
X80429808Y-117128269D01*
X80234423Y-117128269D01*
X80234423Y-117006154D01*
X80234423Y-116713077D01*
X80467227Y-116713077D01*
X80640259Y-116721234D01*
G37*
G36*
X78454432Y-115123076D02*
G01*
X78565640Y-115185687D01*
X78652436Y-115284254D01*
X78711597Y-115414041D01*
X78739900Y-115570315D01*
X78738077Y-115712115D01*
X78704961Y-115875236D01*
X78638859Y-116004448D01*
X78540813Y-116097949D01*
X78501315Y-116120817D01*
X78408690Y-116160217D01*
X78330809Y-116171389D01*
X78244417Y-116156798D01*
X78222067Y-116150407D01*
X78114505Y-116093777D01*
X78030657Y-115998291D01*
X77973056Y-115869110D01*
X77944237Y-115711394D01*
X77943240Y-115621176D01*
X78138556Y-115621176D01*
X78151069Y-115757188D01*
X78197195Y-115868090D01*
X78231944Y-115911086D01*
X78290490Y-115962101D01*
X78337265Y-115977909D01*
X78389172Y-115962844D01*
X78404045Y-115955237D01*
X78468517Y-115893945D01*
X78512203Y-115793281D01*
X78532907Y-115659049D01*
X78534316Y-115611320D01*
X78521809Y-115478598D01*
X78485768Y-115376444D01*
X78429904Y-115309145D01*
X78357929Y-115280991D01*
X78273553Y-115296271D01*
X78265027Y-115300137D01*
X78219440Y-115331480D01*
X78187862Y-115382202D01*
X78161275Y-115466861D01*
X78160951Y-115468136D01*
X78138556Y-115621176D01*
X77943240Y-115621176D01*
X77942804Y-115581663D01*
X77967652Y-115410841D01*
X78021138Y-115275262D01*
X78101570Y-115177066D01*
X78207260Y-115118395D01*
X78322036Y-115101154D01*
X78454432Y-115123076D01*
G37*
G36*
X84163101Y-116716200D02*
G01*
X84256176Y-116724474D01*
X84321216Y-116736252D01*
X84329804Y-116739054D01*
X84434478Y-116803234D01*
X84516800Y-116902471D01*
X84574057Y-117027097D01*
X84603538Y-117167445D01*
X84602530Y-117313849D01*
X84568320Y-117456639D01*
X84545719Y-117508609D01*
X84492220Y-117598318D01*
X84429592Y-117661140D01*
X84347884Y-117702181D01*
X84237144Y-117726547D01*
X84096992Y-117738846D01*
X83996794Y-117742480D01*
X83916620Y-117742137D01*
X83867774Y-117738030D01*
X83858409Y-117734332D01*
X83855525Y-117705910D01*
X83853393Y-117636179D01*
X83852538Y-117567885D01*
X84044423Y-117567885D01*
X84141730Y-117567885D01*
X84227964Y-117555048D01*
X84303540Y-117509701D01*
X84318797Y-117496562D01*
X84358420Y-117458731D01*
X84382121Y-117423619D01*
X84393985Y-117377491D01*
X84398100Y-117306613D01*
X84398558Y-117228452D01*
X84397147Y-117127937D01*
X84390675Y-117062583D01*
X84375778Y-117018737D01*
X84349093Y-116982742D01*
X84334269Y-116967387D01*
X84250498Y-116912307D01*
X84157201Y-116890398D01*
X84044423Y-116877686D01*
X84044423Y-117222785D01*
X84044423Y-117567885D01*
X83852538Y-117567885D01*
X83852097Y-117532672D01*
X83851720Y-117402922D01*
X83852346Y-117254462D01*
X83852607Y-117222785D01*
X83852668Y-117215342D01*
X83857214Y-116713077D01*
X84059132Y-116713077D01*
X84163101Y-116716200D01*
G37*
G36*
X79760218Y-116716043D02*
G01*
X79819272Y-116729987D01*
X79871670Y-116762480D01*
X79915490Y-116800169D01*
X79999217Y-116897061D01*
X80049674Y-117011238D01*
X80071266Y-117153943D01*
X80072750Y-117201538D01*
X80057860Y-117380550D01*
X80010100Y-117528815D01*
X79930944Y-117643432D01*
X79821868Y-117721499D01*
X79804304Y-117729343D01*
X79679775Y-117760337D01*
X79560173Y-117744409D01*
X79505375Y-117721836D01*
X79410084Y-117654385D01*
X79343336Y-117557442D01*
X79302587Y-117425919D01*
X79286565Y-117284572D01*
X79287189Y-117211376D01*
X79477308Y-117211376D01*
X79489674Y-117358778D01*
X79526008Y-117467827D01*
X79585162Y-117536667D01*
X79665991Y-117563443D01*
X79694673Y-117562963D01*
X79760882Y-117547207D01*
X79807905Y-117504633D01*
X79829170Y-117471538D01*
X79865748Y-117377966D01*
X79880872Y-117269431D01*
X79876529Y-117156938D01*
X79854705Y-117051494D01*
X79817384Y-116964104D01*
X79766553Y-116905775D01*
X79723923Y-116888120D01*
X79624025Y-116891916D01*
X79550174Y-116936283D01*
X79502053Y-117021634D01*
X79479346Y-117148385D01*
X79477308Y-117211376D01*
X79287189Y-117211376D01*
X79288015Y-117114402D01*
X79314152Y-116979336D01*
X79367654Y-116870874D01*
X79443108Y-116787484D01*
X79499062Y-116744163D01*
X79552972Y-116721777D01*
X79625186Y-116713756D01*
X79673472Y-116713077D01*
X79760218Y-116716043D01*
G37*
G36*
X86318358Y-115114358D02*
G01*
X86446379Y-115116747D01*
X86535883Y-115123667D01*
X86597094Y-115136477D01*
X86640239Y-115156538D01*
X86641455Y-115157328D01*
X86722643Y-115236921D01*
X86766615Y-115337332D01*
X86772185Y-115446394D01*
X86738164Y-115551939D01*
X86686701Y-115620725D01*
X86614395Y-115693031D01*
X86697101Y-115903703D01*
X86733325Y-115997852D01*
X86761487Y-116074625D01*
X86777561Y-116122865D01*
X86779808Y-116132861D01*
X86758188Y-116144645D01*
X86704450Y-116150992D01*
X86686232Y-116151346D01*
X86592656Y-116151346D01*
X86508265Y-115937644D01*
X86468267Y-115838110D01*
X86439002Y-115775201D01*
X86413444Y-115740035D01*
X86384568Y-115723733D01*
X86345347Y-115717415D01*
X86333187Y-115716362D01*
X86242500Y-115708782D01*
X86242500Y-115930064D01*
X86242500Y-116151346D01*
X86144322Y-116151346D01*
X86046144Y-116151346D01*
X86052735Y-115632356D01*
X86053898Y-115540769D01*
X86242500Y-115540769D01*
X86359181Y-115540769D01*
X86445114Y-115532474D01*
X86515230Y-115511270D01*
X86530143Y-115502750D01*
X86571016Y-115458404D01*
X86584423Y-115419013D01*
X86564446Y-115354022D01*
X86503806Y-115313568D01*
X86401444Y-115297031D01*
X86375082Y-115296538D01*
X86242500Y-115296538D01*
X86242500Y-115418654D01*
X86242500Y-115540769D01*
X86053898Y-115540769D01*
X86055449Y-115418654D01*
X86059327Y-115113365D01*
X86318358Y-115114358D01*
G37*
G36*
X82511079Y-115601827D02*
G01*
X82560024Y-115748841D01*
X82603225Y-115881057D01*
X82638360Y-115991168D01*
X82663108Y-116071867D01*
X82675147Y-116115846D01*
X82675934Y-116120817D01*
X82653471Y-116142280D01*
X82586811Y-116151157D01*
X82571647Y-116151346D01*
X82466564Y-116151346D01*
X82430078Y-116010913D01*
X82393593Y-115870481D01*
X82244488Y-115863272D01*
X82095383Y-115856063D01*
X82048341Y-115997599D01*
X82020964Y-116075618D01*
X81997197Y-116118638D01*
X81965536Y-116138109D01*
X81914479Y-116145481D01*
X81898572Y-116146685D01*
X81834487Y-116149711D01*
X81807718Y-116140665D01*
X81806894Y-116111441D01*
X81812934Y-116085627D01*
X81825854Y-116041463D01*
X81851611Y-115959510D01*
X81887460Y-115848275D01*
X81930661Y-115716263D01*
X81939238Y-115690378D01*
X82139423Y-115690378D01*
X82161104Y-115703725D01*
X82215293Y-115711172D01*
X82237581Y-115711731D01*
X82299623Y-115709390D01*
X82324440Y-115696495D01*
X82323622Y-115664234D01*
X82320011Y-115649070D01*
X82286938Y-115527229D01*
X82259717Y-115447757D01*
X82239167Y-115412706D01*
X82227829Y-115418654D01*
X82200157Y-115493372D01*
X82172903Y-115573154D01*
X82151146Y-115642382D01*
X82139969Y-115685437D01*
X82139423Y-115690378D01*
X81939238Y-115690378D01*
X81978470Y-115571982D01*
X81980734Y-115565192D01*
X82131445Y-115113365D01*
X82239232Y-115113365D01*
X82347019Y-115113365D01*
X82511079Y-115601827D01*
G37*
G36*
X85204210Y-116716222D02*
G01*
X85264595Y-116729866D01*
X85315948Y-116760319D01*
X85348622Y-116787484D01*
X85431766Y-116889210D01*
X85487555Y-117017116D01*
X85516122Y-117160439D01*
X85517598Y-117308416D01*
X85492114Y-117450284D01*
X85439800Y-117575279D01*
X85360789Y-117672638D01*
X85337613Y-117690878D01*
X85239444Y-117736257D01*
X85122919Y-117754604D01*
X85009401Y-117744123D01*
X84951722Y-117723302D01*
X84855556Y-117648171D01*
X84781459Y-117537515D01*
X84732688Y-117400886D01*
X84713002Y-117251674D01*
X84917634Y-117251674D01*
X84926943Y-117340542D01*
X84962027Y-117445946D01*
X85017808Y-117521677D01*
X85086646Y-117563346D01*
X85160904Y-117566566D01*
X85232944Y-117526947D01*
X85239865Y-117520327D01*
X85292806Y-117437240D01*
X85323770Y-117325756D01*
X85332064Y-117201441D01*
X85316996Y-117079862D01*
X85277873Y-116976587D01*
X85264962Y-116956444D01*
X85197956Y-116898332D01*
X85118024Y-116882422D01*
X85038139Y-116909504D01*
X85001316Y-116940420D01*
X84954351Y-117019464D01*
X84925445Y-117128658D01*
X84917634Y-117251674D01*
X84713002Y-117251674D01*
X84712496Y-117247839D01*
X84724139Y-117087925D01*
X84728144Y-117067211D01*
X84755395Y-116967606D01*
X84796189Y-116891951D01*
X84862345Y-116816875D01*
X84923325Y-116759007D01*
X84971761Y-116727970D01*
X85027922Y-116715436D01*
X85112077Y-116713077D01*
X85114975Y-116713077D01*
X85204210Y-116716222D01*
G37*
G36*
X85723510Y-111881518D02*
G01*
X85880313Y-111885094D01*
X85997525Y-111889233D01*
X86084394Y-111895188D01*
X86150170Y-111904211D01*
X86204101Y-111917554D01*
X86255437Y-111936469D01*
X86310896Y-111961048D01*
X86474642Y-112062092D01*
X86608594Y-112199663D01*
X86711491Y-112370643D01*
X86782075Y-112571913D01*
X86819085Y-112800355D01*
X86821261Y-113052851D01*
X86808291Y-113191954D01*
X86759228Y-113431623D01*
X86677135Y-113638218D01*
X86563013Y-113810125D01*
X86417864Y-113945729D01*
X86294802Y-114019933D01*
X86243012Y-114044321D01*
X86195827Y-114062210D01*
X86144268Y-114074790D01*
X86079352Y-114083253D01*
X85992097Y-114088789D01*
X85873523Y-114092589D01*
X85723510Y-114095680D01*
X85290000Y-114103763D01*
X85290000Y-113715164D01*
X85680769Y-113715164D01*
X85886716Y-113704354D01*
X85997104Y-113696184D01*
X86074277Y-113682899D01*
X86133852Y-113660522D01*
X86187695Y-113627687D01*
X86292031Y-113526269D01*
X86368976Y-113387891D01*
X86417091Y-113216972D01*
X86434934Y-113017935D01*
X86430225Y-112883144D01*
X86403775Y-112686353D01*
X86356462Y-112531459D01*
X86285064Y-112414807D01*
X86186358Y-112332744D01*
X86057123Y-112281618D01*
X85894135Y-112257775D01*
X85877814Y-112256848D01*
X85680769Y-112246879D01*
X85680769Y-112981021D01*
X85680769Y-113715164D01*
X85290000Y-113715164D01*
X85290000Y-112988163D01*
X85290000Y-112981021D01*
X85290000Y-111872563D01*
X85723510Y-111881518D01*
G37*
G36*
X84703045Y-112958029D02*
G01*
X84774709Y-113178456D01*
X84841925Y-113385118D01*
X84903151Y-113573278D01*
X84956842Y-113738196D01*
X85001457Y-113875135D01*
X85035452Y-113979358D01*
X85057284Y-114046125D01*
X85065257Y-114070273D01*
X85059924Y-114085648D01*
X85026006Y-114094160D01*
X84956469Y-114096664D01*
X84863840Y-114094696D01*
X84651498Y-114087596D01*
X84560374Y-113806731D01*
X84469249Y-113525865D01*
X84153038Y-113525865D01*
X83836827Y-113525865D01*
X83741774Y-113812836D01*
X83646721Y-114099808D01*
X83443861Y-114099808D01*
X83241002Y-114099808D01*
X83262342Y-114032644D01*
X83274719Y-113994032D01*
X83300196Y-113914821D01*
X83336875Y-113800899D01*
X83382861Y-113658153D01*
X83436257Y-113492471D01*
X83495166Y-113309740D01*
X83543607Y-113159519D01*
X83555421Y-113122885D01*
X83958405Y-113122885D01*
X84161605Y-113122885D01*
X84266603Y-113120776D01*
X84327557Y-113113984D01*
X84349107Y-113101809D01*
X84347466Y-113094828D01*
X84333383Y-113061548D01*
X84308090Y-112992095D01*
X84275244Y-112896821D01*
X84240655Y-112792668D01*
X84151184Y-112518564D01*
X84054795Y-112820724D01*
X83958405Y-113122885D01*
X83555421Y-113122885D01*
X83608637Y-112957876D01*
X83672398Y-112760171D01*
X83732444Y-112573982D01*
X83786330Y-112406891D01*
X83831613Y-112266478D01*
X83865848Y-112160324D01*
X83880325Y-112115433D01*
X83957118Y-111877308D01*
X84154438Y-111877308D01*
X84351758Y-111877308D01*
X84703045Y-112958029D01*
G37*
G36*
X78093075Y-105237209D02*
G01*
X78094740Y-105240913D01*
X78120446Y-105284471D01*
X78141248Y-105296435D01*
X78141806Y-105296069D01*
X78144610Y-105299199D01*
X78134242Y-105312588D01*
X78116574Y-105356696D01*
X78109989Y-105416183D01*
X78114983Y-105461013D01*
X78127795Y-105463030D01*
X78129428Y-105460662D01*
X78152665Y-105447843D01*
X78187354Y-105476070D01*
X78189873Y-105478979D01*
X78212433Y-105515315D01*
X78202998Y-105527308D01*
X78185458Y-105535930D01*
X78188576Y-105541140D01*
X78217566Y-105548321D01*
X78283674Y-105555992D01*
X78375202Y-105562942D01*
X78426215Y-105565738D01*
X78533895Y-105569560D01*
X78599614Y-105568001D01*
X78630026Y-105560416D01*
X78631785Y-105546160D01*
X78631573Y-105545800D01*
X78624085Y-105527393D01*
X78647219Y-105542683D01*
X78649868Y-105544816D01*
X78678140Y-105556642D01*
X78717552Y-105546861D01*
X78779249Y-105511681D01*
X78813306Y-105489215D01*
X78893613Y-105427689D01*
X78932036Y-105374801D01*
X78932089Y-105321168D01*
X78899143Y-105260037D01*
X78879356Y-105225041D01*
X78887381Y-105219760D01*
X78889424Y-105220950D01*
X78918970Y-105255049D01*
X78951152Y-105313859D01*
X78955906Y-105324787D01*
X78975562Y-105429813D01*
X78946707Y-105533399D01*
X78869675Y-105634394D01*
X78864634Y-105639289D01*
X78790398Y-105710481D01*
X78425584Y-105718346D01*
X78060769Y-105726211D01*
X78062753Y-105449692D01*
X78064195Y-105332221D01*
X78067078Y-105257915D01*
X78072273Y-105221096D01*
X78080648Y-105216086D01*
X78093075Y-105237209D01*
G37*
G36*
X87852631Y-111801869D02*
G01*
X87981091Y-111835994D01*
X88093816Y-111900297D01*
X88199990Y-111997443D01*
X88284395Y-112112203D01*
X88311832Y-112166976D01*
X88348469Y-112299290D01*
X88347181Y-112437089D01*
X88306724Y-112584404D01*
X88225856Y-112745268D01*
X88103331Y-112923712D01*
X88062214Y-112976346D01*
X87963864Y-113104417D01*
X87895894Y-113206389D01*
X87853943Y-113290502D01*
X87833652Y-113364995D01*
X87830000Y-113415177D01*
X87830000Y-113489231D01*
X87643464Y-113489231D01*
X87456929Y-113489231D01*
X87472905Y-113353298D01*
X87501722Y-113219294D01*
X87559065Y-113084862D01*
X87649475Y-112941255D01*
X87759792Y-112800585D01*
X87830431Y-112712275D01*
X87891943Y-112627502D01*
X87934757Y-112559776D01*
X87945193Y-112538888D01*
X87968896Y-112429322D01*
X87949690Y-112328960D01*
X87893512Y-112246530D01*
X87806296Y-112190762D01*
X87694613Y-112170385D01*
X87619834Y-112176785D01*
X87562315Y-112202845D01*
X87501451Y-112256331D01*
X87447136Y-112319673D01*
X87408746Y-112380900D01*
X87400297Y-112402869D01*
X87384935Y-112448258D01*
X87373388Y-112463461D01*
X87347881Y-112452394D01*
X87291554Y-112423226D01*
X87216047Y-112382005D01*
X87207481Y-112377225D01*
X87128252Y-112331965D01*
X87084209Y-112300946D01*
X87067848Y-112274678D01*
X87071661Y-112243667D01*
X87081068Y-112217356D01*
X87143900Y-112100296D01*
X87236970Y-111985782D01*
X87344379Y-111891730D01*
X87401383Y-111856460D01*
X87536209Y-111809407D01*
X87692734Y-111790994D01*
X87852631Y-111801869D01*
G37*
G36*
X78952039Y-112237548D02*
G01*
X78989770Y-112355075D01*
X79039553Y-112509307D01*
X79098236Y-112690531D01*
X79162670Y-112889030D01*
X79229702Y-113095089D01*
X79296184Y-113298995D01*
X79308864Y-113337829D01*
X79367761Y-113518482D01*
X79421471Y-113683864D01*
X79468189Y-113828364D01*
X79506108Y-113946369D01*
X79533422Y-114032268D01*
X79548325Y-114080449D01*
X79550577Y-114088839D01*
X79528027Y-114093802D01*
X79467863Y-114097595D01*
X79381313Y-114099623D01*
X79343518Y-114099808D01*
X79136459Y-114099808D01*
X79045908Y-113806731D01*
X78955357Y-113513654D01*
X78634468Y-113513654D01*
X78313580Y-113513654D01*
X78220525Y-113806731D01*
X78127469Y-114099808D01*
X77921512Y-114099808D01*
X77821672Y-114099246D01*
X77761734Y-114095837D01*
X77732753Y-114086999D01*
X77725783Y-114070147D01*
X77731263Y-114044856D01*
X77741939Y-114010838D01*
X77766244Y-113935340D01*
X77802572Y-113823293D01*
X77849318Y-113679625D01*
X77904875Y-113509266D01*
X77967639Y-113317147D01*
X78031198Y-113122885D01*
X78438644Y-113122885D01*
X78641917Y-113122885D01*
X78746939Y-113120777D01*
X78807916Y-113113988D01*
X78829489Y-113101818D01*
X78827850Y-113094828D01*
X78813736Y-113061493D01*
X78788447Y-112992053D01*
X78755669Y-112896935D01*
X78722048Y-112795645D01*
X78633586Y-112524519D01*
X78536115Y-112823702D01*
X78438644Y-113122885D01*
X78031198Y-113122885D01*
X78036004Y-113108197D01*
X78093150Y-112933758D01*
X78439327Y-111877612D01*
X78638126Y-111877460D01*
X78836925Y-111877308D01*
X78952039Y-112237548D01*
G37*
G36*
X85416871Y-108708365D02*
G01*
X85414423Y-108839160D01*
X85413825Y-108970419D01*
X85415077Y-109083521D01*
X85416871Y-109138219D01*
X85424327Y-109293265D01*
X85729615Y-108864646D01*
X86034904Y-108436027D01*
X86273029Y-108434841D01*
X86374149Y-108435322D01*
X86453946Y-108437576D01*
X86501949Y-108441200D01*
X86511154Y-108443998D01*
X86497523Y-108465945D01*
X86459345Y-108521688D01*
X86400686Y-108605437D01*
X86325616Y-108711401D01*
X86238203Y-108833789D01*
X86193947Y-108895430D01*
X85876741Y-109336519D01*
X86111210Y-109770423D01*
X86193707Y-109922817D01*
X86278604Y-110079168D01*
X86359331Y-110227406D01*
X86429313Y-110355460D01*
X86477262Y-110442718D01*
X86530133Y-110540025D01*
X86572872Y-110621582D01*
X86600653Y-110677984D01*
X86608901Y-110699160D01*
X86586323Y-110706239D01*
X86525690Y-110710303D01*
X86437724Y-110710859D01*
X86382987Y-110709540D01*
X86157019Y-110701868D01*
X86028126Y-110453097D01*
X85961662Y-110325627D01*
X85883105Y-110176193D01*
X85803540Y-110025829D01*
X85749914Y-109925179D01*
X85600596Y-109646031D01*
X85506485Y-109754217D01*
X85412375Y-109862404D01*
X85414378Y-110285977D01*
X85416382Y-110709550D01*
X85229019Y-110713381D01*
X85138659Y-110713970D01*
X85069266Y-110712057D01*
X85033502Y-110708050D01*
X85031501Y-110707035D01*
X85029436Y-110681297D01*
X85027512Y-110611575D01*
X85025773Y-110502729D01*
X85024260Y-110359621D01*
X85023018Y-110187113D01*
X85022090Y-109990066D01*
X85021519Y-109773341D01*
X85021346Y-109565256D01*
X85021346Y-108433654D01*
X85222836Y-108433606D01*
X85424327Y-108433558D01*
X85416871Y-108708365D01*
G37*
G36*
X85284499Y-104969474D02*
G01*
X85767459Y-104977788D01*
X85925605Y-105057034D01*
X86079562Y-105156705D01*
X86191240Y-105280727D01*
X86261293Y-105430161D01*
X86290380Y-105606067D01*
X86291346Y-105648272D01*
X86276417Y-105785600D01*
X86228891Y-105911702D01*
X86178865Y-105993478D01*
X86112662Y-106077554D01*
X86041917Y-106151181D01*
X85978266Y-106201610D01*
X85952947Y-106214071D01*
X85954138Y-106238227D01*
X85972019Y-106301424D01*
X86004354Y-106397670D01*
X86048906Y-106520975D01*
X86103441Y-106665348D01*
X86165721Y-106824800D01*
X86233512Y-106993339D01*
X86304578Y-107164975D01*
X86332425Y-107230817D01*
X86326620Y-107246099D01*
X86289300Y-107255609D01*
X86214206Y-107260280D01*
X86129103Y-107261171D01*
X85912788Y-107260996D01*
X85729615Y-106785096D01*
X85546442Y-106309196D01*
X85369375Y-106309021D01*
X85192308Y-106308846D01*
X85192308Y-106785096D01*
X85192308Y-107261346D01*
X84996923Y-107261346D01*
X84801538Y-107261346D01*
X84801538Y-106111253D01*
X84801538Y-105918077D01*
X85192308Y-105918077D01*
X85406940Y-105918077D01*
X85525285Y-105915376D01*
X85611165Y-105905443D01*
X85680757Y-105885530D01*
X85730546Y-105863125D01*
X85805728Y-105816806D01*
X85850962Y-105761737D01*
X85875771Y-105703299D01*
X85896497Y-105634068D01*
X85897028Y-105585167D01*
X85875807Y-105531777D01*
X85863560Y-105508563D01*
X85818753Y-105447883D01*
X85755182Y-105405013D01*
X85665177Y-105377434D01*
X85541073Y-105362626D01*
X85406010Y-105358223D01*
X85192308Y-105356346D01*
X85192308Y-105637211D01*
X85192308Y-105918077D01*
X84801538Y-105918077D01*
X84801538Y-105637211D01*
X84801538Y-104961160D01*
X85284499Y-104969474D01*
G37*
G36*
X86889103Y-116698530D02*
G01*
X86938062Y-116720995D01*
X86999684Y-116761944D01*
X87060079Y-116810316D01*
X87105359Y-116855054D01*
X87121731Y-116883759D01*
X87103434Y-116909432D01*
X87061684Y-116942188D01*
X87018664Y-116965824D01*
X86986781Y-116961252D01*
X86944792Y-116924677D01*
X86940679Y-116920574D01*
X86870096Y-116873243D01*
X86797897Y-116860883D01*
X86735608Y-116880146D01*
X86694755Y-116927682D01*
X86686126Y-116994524D01*
X86696025Y-117034961D01*
X86721690Y-117066153D01*
X86773569Y-117096664D01*
X86853077Y-117131348D01*
X87001450Y-117207275D01*
X87102167Y-117293163D01*
X87155162Y-117388903D01*
X87160372Y-117494390D01*
X87129198Y-117587562D01*
X87062157Y-117673030D01*
X86965024Y-117732261D01*
X86850823Y-117761971D01*
X86732577Y-117758879D01*
X86623312Y-117719703D01*
X86617802Y-117716424D01*
X86548096Y-117662642D01*
X86492733Y-117599869D01*
X86463942Y-117542787D01*
X86462308Y-117529736D01*
X86482198Y-117500860D01*
X86525576Y-117473629D01*
X86574344Y-117458232D01*
X86609352Y-117474190D01*
X86635777Y-117504468D01*
X86702644Y-117559725D01*
X86783640Y-117585498D01*
X86864098Y-117581233D01*
X86929354Y-117546373D01*
X86952148Y-117516462D01*
X86969474Y-117458134D01*
X86951420Y-117405795D01*
X86894050Y-117354486D01*
X86793426Y-117299250D01*
X86771549Y-117289027D01*
X86652447Y-117229540D01*
X86572962Y-117175248D01*
X86525784Y-117117788D01*
X86503604Y-117048798D01*
X86498942Y-116977163D01*
X86503439Y-116897565D01*
X86522953Y-116844339D01*
X86566524Y-116795377D01*
X86577237Y-116785652D01*
X86677243Y-116722661D01*
X86790601Y-116692691D01*
X86889103Y-116698530D01*
G37*
G36*
X84750310Y-115103919D02*
G01*
X84806188Y-115118113D01*
X84856448Y-115152584D01*
X84907548Y-115201417D01*
X85007811Y-115301680D01*
X84938933Y-115337769D01*
X84887265Y-115359679D01*
X84850756Y-115351940D01*
X84814159Y-115321346D01*
X84753308Y-115283259D01*
X84674292Y-115275841D01*
X84663891Y-115276581D01*
X84601322Y-115286191D01*
X84572238Y-115308866D01*
X84561583Y-115353650D01*
X84570287Y-115419179D01*
X84603105Y-115478314D01*
X84648543Y-115513178D01*
X84666201Y-115516346D01*
X84723589Y-115531122D01*
X84800492Y-115568663D01*
X84880361Y-115618793D01*
X84946646Y-115671332D01*
X84979078Y-115708770D01*
X85011964Y-115798743D01*
X85019214Y-115900019D01*
X85000548Y-115991268D01*
X84983229Y-116023936D01*
X84905510Y-116095906D01*
X84797765Y-116143807D01*
X84674681Y-116163238D01*
X84557697Y-116151506D01*
X84498898Y-116124811D01*
X84431857Y-116077150D01*
X84369824Y-116020385D01*
X84326050Y-115966378D01*
X84313077Y-115932524D01*
X84332708Y-115906419D01*
X84380991Y-115873463D01*
X84391376Y-115867880D01*
X84447102Y-115844044D01*
X84474231Y-115847888D01*
X84479909Y-115858094D01*
X84519277Y-115919016D01*
X84581882Y-115959200D01*
X84655594Y-115978109D01*
X84728278Y-115975206D01*
X84787804Y-115949954D01*
X84822037Y-115901816D01*
X84825961Y-115873407D01*
X84813901Y-115820843D01*
X84773240Y-115773177D01*
X84697253Y-115724518D01*
X84606154Y-115680756D01*
X84496224Y-115623873D01*
X84425681Y-115563921D01*
X84385652Y-115490278D01*
X84367524Y-115395085D01*
X84363424Y-115318632D01*
X84375166Y-115267601D01*
X84410916Y-115219175D01*
X84441912Y-115187241D01*
X84496876Y-115137240D01*
X84546027Y-115111521D01*
X84610084Y-115102183D01*
X84667642Y-115101154D01*
X84750310Y-115103919D01*
G37*
G36*
X83697772Y-104970949D02*
G01*
X83900640Y-104977788D01*
X84019526Y-105344135D01*
X84058031Y-105463213D01*
X84108215Y-105619063D01*
X84166943Y-105801912D01*
X84231081Y-106001986D01*
X84297492Y-106209512D01*
X84363042Y-106414716D01*
X84376017Y-106455385D01*
X84434303Y-106637987D01*
X84488096Y-106806266D01*
X84535531Y-106954409D01*
X84574744Y-107076604D01*
X84603871Y-107167041D01*
X84621050Y-107219908D01*
X84624712Y-107230817D01*
X84617535Y-107246127D01*
X84578459Y-107255693D01*
X84501312Y-107260423D01*
X84417663Y-107261346D01*
X84199524Y-107261346D01*
X84105755Y-106955377D01*
X84011987Y-106649407D01*
X83693548Y-106656194D01*
X83375108Y-106662981D01*
X83281410Y-106962163D01*
X83187711Y-107261346D01*
X82981067Y-107261346D01*
X82887488Y-107259761D01*
X82816001Y-107255531D01*
X82777845Y-107249449D01*
X82774423Y-107246816D01*
X82781620Y-107220799D01*
X82801997Y-107154072D01*
X82833738Y-107052411D01*
X82875023Y-106921593D01*
X82924035Y-106767392D01*
X82978956Y-106595586D01*
X83003134Y-106520230D01*
X83068557Y-106316097D01*
X83096250Y-106229361D01*
X83513646Y-106229361D01*
X83520391Y-106245430D01*
X83559900Y-106255115D01*
X83638509Y-106259481D01*
X83696499Y-106260000D01*
X83891109Y-106260000D01*
X83801285Y-105967333D01*
X83755393Y-105821844D01*
X83720873Y-105721949D01*
X83696979Y-105665921D01*
X83682968Y-105652035D01*
X83678095Y-105678566D01*
X83678077Y-105681695D01*
X83671076Y-105717309D01*
X83652465Y-105787392D01*
X83625833Y-105879989D01*
X83594769Y-105983150D01*
X83562862Y-106084919D01*
X83533700Y-106173345D01*
X83513646Y-106229361D01*
X83096250Y-106229361D01*
X83136531Y-106103197D01*
X83203543Y-105892597D01*
X83266076Y-105695365D01*
X83320616Y-105522567D01*
X83363375Y-105386141D01*
X83494904Y-104964110D01*
X83697772Y-104970949D01*
G37*
G36*
X82187302Y-108391482D02*
G01*
X82338255Y-108421840D01*
X82438821Y-108465545D01*
X82597997Y-108585481D01*
X82724701Y-108739998D01*
X82819168Y-108929694D01*
X82881635Y-109155167D01*
X82912338Y-109417013D01*
X82913699Y-109667019D01*
X82898697Y-109883116D01*
X82869557Y-110063607D01*
X82823404Y-110220416D01*
X82757360Y-110365466D01*
X82735973Y-110403767D01*
X82627277Y-110545284D01*
X82487658Y-110655976D01*
X82326298Y-110732393D01*
X82152374Y-110771087D01*
X81975065Y-110768610D01*
X81846346Y-110737993D01*
X81682590Y-110659750D01*
X81548454Y-110546539D01*
X81439388Y-110394113D01*
X81403228Y-110324304D01*
X81326965Y-110116827D01*
X81278869Y-109882739D01*
X81258839Y-109634022D01*
X81261689Y-109543746D01*
X81675385Y-109543746D01*
X81686499Y-109792545D01*
X81719863Y-109997905D01*
X81775509Y-110159887D01*
X81853468Y-110278554D01*
X81953772Y-110353966D01*
X82076453Y-110386186D01*
X82110182Y-110387500D01*
X82182197Y-110382413D01*
X82235702Y-110360533D01*
X82291854Y-110311927D01*
X82309052Y-110294155D01*
X82387512Y-110181780D01*
X82449237Y-110031919D01*
X82492348Y-109853616D01*
X82514967Y-109655917D01*
X82515216Y-109447868D01*
X82506448Y-109343529D01*
X82476720Y-109166760D01*
X82430266Y-109028285D01*
X82363400Y-108919320D01*
X82301397Y-108854952D01*
X82229029Y-108801579D01*
X82159778Y-108778819D01*
X82108044Y-108775738D01*
X81983569Y-108798269D01*
X81878420Y-108863994D01*
X81793820Y-108970740D01*
X81730996Y-109116333D01*
X81691171Y-109298598D01*
X81675571Y-109515360D01*
X81675385Y-109543746D01*
X81261689Y-109543746D01*
X81266774Y-109382662D01*
X81302572Y-109140641D01*
X81366135Y-108919945D01*
X81415993Y-108805820D01*
X81502795Y-108675501D01*
X81619069Y-108558651D01*
X81750892Y-108467271D01*
X81865615Y-108418340D01*
X82024344Y-108389870D01*
X82187302Y-108391482D01*
G37*
G36*
X81955130Y-104947263D02*
G01*
X82093451Y-104976370D01*
X82151635Y-104998749D01*
X82257739Y-105064790D01*
X82366335Y-105159184D01*
X82460390Y-105265511D01*
X82513364Y-105347447D01*
X82587318Y-105523395D01*
X82635447Y-105718974D01*
X82659612Y-105943536D01*
X82663377Y-106101250D01*
X82647641Y-106388416D01*
X82601837Y-106639174D01*
X82526263Y-106852884D01*
X82421217Y-107028906D01*
X82286994Y-107166600D01*
X82123893Y-107265327D01*
X82122060Y-107266141D01*
X82009699Y-107301743D01*
X81878819Y-107322309D01*
X81751398Y-107325580D01*
X81663173Y-107313324D01*
X81481100Y-107241968D01*
X81326449Y-107131088D01*
X81200043Y-106982131D01*
X81102708Y-106796545D01*
X81035268Y-106575775D01*
X80998546Y-106321268D01*
X80991627Y-106137074D01*
X81409141Y-106137074D01*
X81418900Y-106315577D01*
X81447459Y-106485455D01*
X81494547Y-106638686D01*
X81559895Y-106767243D01*
X81643234Y-106863104D01*
X81702345Y-106901876D01*
X81790801Y-106936078D01*
X81866442Y-106937772D01*
X81952620Y-106907285D01*
X81956589Y-106905414D01*
X82055552Y-106831648D01*
X82135082Y-106713428D01*
X82195230Y-106550628D01*
X82236051Y-106343124D01*
X82249514Y-106219233D01*
X82253476Y-106035110D01*
X82235985Y-105856885D01*
X82199500Y-105693126D01*
X82146477Y-105552398D01*
X82079374Y-105443269D01*
X82008395Y-105378794D01*
X81899632Y-105337308D01*
X81785976Y-105335947D01*
X81682378Y-105373988D01*
X81651764Y-105396053D01*
X81563485Y-105497310D01*
X81495353Y-105630066D01*
X81447097Y-105786294D01*
X81418450Y-105957972D01*
X81409141Y-106137074D01*
X80991627Y-106137074D01*
X80991538Y-106134706D01*
X81007502Y-105870644D01*
X81054248Y-105631677D01*
X81130060Y-105421418D01*
X81233221Y-105243477D01*
X81362014Y-105101466D01*
X81514722Y-104998995D01*
X81536410Y-104988689D01*
X81657690Y-104953114D01*
X81803570Y-104939408D01*
X81955130Y-104947263D01*
G37*
G36*
X71808603Y-113541129D02*
G01*
X71814880Y-113546464D01*
X71822087Y-113552634D01*
X71828827Y-113558234D01*
X71833699Y-113561858D01*
X71835108Y-113562500D01*
X71853155Y-113579499D01*
X71904049Y-113629380D01*
X71986116Y-113710474D01*
X72097678Y-113821108D01*
X72237060Y-113959611D01*
X72402585Y-114124311D01*
X72592577Y-114313539D01*
X72805359Y-114525621D01*
X73039256Y-114758887D01*
X73292591Y-115011666D01*
X73563688Y-115282286D01*
X73850870Y-115569076D01*
X74152461Y-115870365D01*
X74466786Y-116184481D01*
X74792167Y-116509752D01*
X75126929Y-116844509D01*
X75154243Y-116871827D01*
X75489412Y-117207131D01*
X75815088Y-117533094D01*
X76129610Y-117848047D01*
X76431318Y-118150320D01*
X76718550Y-118438244D01*
X76989644Y-118710151D01*
X77242941Y-118964370D01*
X77476779Y-119199234D01*
X77689496Y-119413072D01*
X77879432Y-119604215D01*
X78044925Y-119770996D01*
X78184315Y-119911743D01*
X78295940Y-120024788D01*
X78378139Y-120108463D01*
X78429251Y-120161097D01*
X78447616Y-120181022D01*
X78447610Y-120181154D01*
X78429060Y-120164140D01*
X78377697Y-120114218D01*
X78295204Y-120033063D01*
X78183261Y-119922351D01*
X78043549Y-119783759D01*
X77877751Y-119618963D01*
X77687547Y-119429638D01*
X77474619Y-119217462D01*
X77240648Y-118984110D01*
X76987315Y-118731259D01*
X76716302Y-118460585D01*
X76429290Y-118173763D01*
X76127960Y-117872471D01*
X75813994Y-117558384D01*
X75489073Y-117233179D01*
X75154878Y-116898532D01*
X75138652Y-116882279D01*
X74737419Y-116480405D01*
X74369293Y-116111699D01*
X74032873Y-115774756D01*
X73726762Y-115468169D01*
X73449559Y-115190534D01*
X73199867Y-114940444D01*
X72976285Y-114716493D01*
X72777417Y-114517276D01*
X72601861Y-114341387D01*
X72448220Y-114187420D01*
X72315095Y-114053970D01*
X72201086Y-113939630D01*
X72104795Y-113842994D01*
X72024823Y-113762658D01*
X71959771Y-113697214D01*
X71908240Y-113645259D01*
X71868831Y-113605384D01*
X71840145Y-113576186D01*
X71820784Y-113556257D01*
X71809348Y-113544193D01*
X71804438Y-113538588D01*
X71804657Y-113538035D01*
X71808603Y-113541129D01*
G37*
G36*
X83739135Y-108438050D02*
G01*
X83912383Y-108441217D01*
X84044260Y-108444821D01*
X84142240Y-108449616D01*
X84213798Y-108456356D01*
X84266406Y-108465794D01*
X84307539Y-108478684D01*
X84344672Y-108495781D01*
X84352556Y-108499920D01*
X84511086Y-108607282D01*
X84626909Y-108737422D01*
X84699374Y-108889324D01*
X84727833Y-109061972D01*
X84728269Y-109087663D01*
X84707664Y-109242489D01*
X84650602Y-109392803D01*
X84564208Y-109524200D01*
X84467859Y-109613963D01*
X84410039Y-109660267D01*
X84375636Y-109698785D01*
X84371009Y-109714910D01*
X84419447Y-109834593D01*
X84473172Y-109969044D01*
X84529272Y-110110781D01*
X84584835Y-110252323D01*
X84636950Y-110386190D01*
X84682705Y-110504901D01*
X84719187Y-110600975D01*
X84743486Y-110666931D01*
X84752689Y-110695288D01*
X84752702Y-110695523D01*
X84730612Y-110703740D01*
X84673530Y-110709413D01*
X84595245Y-110712459D01*
X84509550Y-110712797D01*
X84430234Y-110710345D01*
X84371089Y-110705021D01*
X84346712Y-110697930D01*
X84334861Y-110672663D01*
X84308414Y-110608779D01*
X84270177Y-110513304D01*
X84222958Y-110393262D01*
X84169564Y-110255678D01*
X84157983Y-110225612D01*
X83980671Y-109764711D01*
X83798845Y-109757674D01*
X83617019Y-109750637D01*
X83617019Y-110230062D01*
X83617019Y-110709487D01*
X83427730Y-110713349D01*
X83337978Y-110713717D01*
X83270215Y-110711221D01*
X83236478Y-110706382D01*
X83234799Y-110705000D01*
X83234008Y-110678838D01*
X83233171Y-110608704D01*
X83232314Y-110499469D01*
X83231465Y-110356008D01*
X83230648Y-110183193D01*
X83229890Y-109985898D01*
X83229216Y-109768996D01*
X83228704Y-109561241D01*
X83228179Y-109318990D01*
X83617312Y-109318990D01*
X83618122Y-109338527D01*
X83635161Y-109351045D01*
X83676810Y-109358068D01*
X83751452Y-109361120D01*
X83852412Y-109361731D01*
X84004256Y-109357232D01*
X84111100Y-109343864D01*
X84161703Y-109327596D01*
X84258914Y-109255603D01*
X84313784Y-109165073D01*
X84323937Y-109061759D01*
X84303203Y-108985001D01*
X84265497Y-108919054D01*
X84211317Y-108873013D01*
X84132684Y-108843888D01*
X84021619Y-108828689D01*
X83874674Y-108824423D01*
X83629231Y-108824423D01*
X83627362Y-109050336D01*
X83625679Y-109154996D01*
X83622753Y-109244335D01*
X83619095Y-109304719D01*
X83617312Y-109318990D01*
X83228179Y-109318990D01*
X83226250Y-108429694D01*
X83739135Y-108438050D01*
G37*
G36*
X76052666Y-106203868D02*
G01*
X76005290Y-106253551D01*
X75926930Y-106334174D01*
X75819367Y-106443940D01*
X75684384Y-106581053D01*
X75523760Y-106743715D01*
X75339277Y-106930131D01*
X75132716Y-107138504D01*
X74905857Y-107367035D01*
X74660483Y-107613930D01*
X74398373Y-107877391D01*
X74121310Y-108155622D01*
X73831073Y-108446826D01*
X73529444Y-108749205D01*
X73234637Y-109044511D01*
X72923094Y-109356643D01*
X72620838Y-109659827D01*
X72329685Y-109952227D01*
X72051449Y-110232004D01*
X71787947Y-110497324D01*
X71540992Y-110746348D01*
X71312401Y-110977240D01*
X71103987Y-111188162D01*
X70917568Y-111377279D01*
X70754956Y-111542754D01*
X70617969Y-111682749D01*
X70508420Y-111795427D01*
X70428125Y-111878953D01*
X70378899Y-111931489D01*
X70362607Y-111950884D01*
X70354224Y-112011244D01*
X70359269Y-112042191D01*
X70379183Y-112068190D01*
X70430024Y-112124821D01*
X70508112Y-112208247D01*
X70609766Y-112314631D01*
X70731306Y-112440133D01*
X70869050Y-112580918D01*
X71019317Y-112733146D01*
X71097137Y-112811490D01*
X71250819Y-112966167D01*
X71392787Y-113109598D01*
X71519549Y-113238217D01*
X71627616Y-113348456D01*
X71713497Y-113436748D01*
X71773701Y-113499527D01*
X71804738Y-113533226D01*
X71808156Y-113538077D01*
X71788885Y-113521333D01*
X71738850Y-113473491D01*
X71661682Y-113398140D01*
X71561012Y-113298865D01*
X71440471Y-113179254D01*
X71303688Y-113042894D01*
X71154295Y-112893372D01*
X71072714Y-112811490D01*
X70917608Y-112655010D01*
X70773200Y-112508067D01*
X70643174Y-112374499D01*
X70531211Y-112258145D01*
X70440992Y-112162845D01*
X70376199Y-112092438D01*
X70340513Y-112050762D01*
X70334754Y-112041951D01*
X70332086Y-111987819D01*
X70344700Y-111934095D01*
X70363919Y-111911069D01*
X70415381Y-111855908D01*
X70496889Y-111770817D01*
X70606249Y-111658000D01*
X70741264Y-111519663D01*
X70899739Y-111358010D01*
X71079480Y-111175247D01*
X71278289Y-110973579D01*
X71493972Y-110755210D01*
X71724332Y-110522345D01*
X71967176Y-110277190D01*
X72220306Y-110021950D01*
X72481527Y-109758829D01*
X72748644Y-109490032D01*
X73019461Y-109217765D01*
X73291783Y-108944233D01*
X73563414Y-108671640D01*
X73832159Y-108402191D01*
X74095821Y-108138092D01*
X74352206Y-107881547D01*
X74599118Y-107634762D01*
X74834361Y-107399941D01*
X75055740Y-107179290D01*
X75261059Y-106975013D01*
X75448123Y-106789316D01*
X75614735Y-106624403D01*
X75758702Y-106482479D01*
X75877826Y-106365749D01*
X75969913Y-106276420D01*
X76032766Y-106216694D01*
X76064191Y-106188778D01*
X76067279Y-106186922D01*
X76052666Y-106203868D01*
G37*
G36*
X95156383Y-111938365D02*
G01*
X95162783Y-111996904D01*
X95153333Y-112060463D01*
X95135621Y-112087530D01*
X95089877Y-112141730D01*
X95015421Y-112223759D01*
X94911576Y-112334317D01*
X94777665Y-112474103D01*
X94613008Y-112643814D01*
X94416927Y-112844150D01*
X94188745Y-113075809D01*
X93927783Y-113339490D01*
X93633364Y-113635891D01*
X93304808Y-113965710D01*
X93268512Y-114002097D01*
X93072424Y-114198660D01*
X92844352Y-114427289D01*
X92586808Y-114685467D01*
X92302303Y-114970677D01*
X91993348Y-115280401D01*
X91662453Y-115612122D01*
X91312132Y-115963322D01*
X90944893Y-116331483D01*
X90563249Y-116714089D01*
X90169711Y-117108622D01*
X89766790Y-117512563D01*
X89356996Y-117923397D01*
X88942843Y-118338604D01*
X88526839Y-118755668D01*
X88111497Y-119172072D01*
X87699328Y-119585297D01*
X87292843Y-119992827D01*
X87229948Y-120055884D01*
X86851758Y-120434944D01*
X86482005Y-120805345D01*
X86122218Y-121165565D01*
X85773924Y-121514079D01*
X85438651Y-121849366D01*
X85117928Y-122169901D01*
X84813283Y-122474163D01*
X84526244Y-122760627D01*
X84258340Y-123027771D01*
X84011097Y-123274072D01*
X83786045Y-123498006D01*
X83584712Y-123698051D01*
X83408625Y-123872683D01*
X83259314Y-124020379D01*
X83138305Y-124139616D01*
X83047128Y-124228872D01*
X82987310Y-124286623D01*
X82960380Y-124311346D01*
X82960037Y-124311605D01*
X82873378Y-124362298D01*
X82783696Y-124381066D01*
X82753020Y-124381923D01*
X82641254Y-124381923D01*
X80552502Y-122287942D01*
X78463750Y-120193961D01*
X80552539Y-122275731D01*
X82641328Y-124357500D01*
X82756934Y-124357500D01*
X82817055Y-124354779D01*
X82865394Y-124342052D01*
X82915096Y-124312467D01*
X82979305Y-124259176D01*
X83024972Y-124217824D01*
X83056224Y-124187730D01*
X83119933Y-124125066D01*
X83214587Y-124031349D01*
X83338675Y-123908091D01*
X83490684Y-123756807D01*
X83669103Y-123579011D01*
X83872422Y-123376217D01*
X84099127Y-123149941D01*
X84347708Y-122901695D01*
X84616653Y-122632994D01*
X84904451Y-122345352D01*
X85209590Y-122040284D01*
X85530558Y-121719304D01*
X85865844Y-121383926D01*
X86213936Y-121035664D01*
X86573323Y-120676033D01*
X86942493Y-120306546D01*
X87319935Y-119928718D01*
X87704137Y-119544064D01*
X88093587Y-119154096D01*
X88486775Y-118760331D01*
X88882188Y-118364281D01*
X89278314Y-117967462D01*
X89673643Y-117571386D01*
X90066663Y-117177569D01*
X90455862Y-116787526D01*
X90839729Y-116402769D01*
X91216752Y-116024813D01*
X91585420Y-115655173D01*
X91944220Y-115295362D01*
X92291642Y-114946896D01*
X92626174Y-114611287D01*
X92946304Y-114290051D01*
X93250521Y-113984702D01*
X93537313Y-113696753D01*
X93805169Y-113427720D01*
X94052577Y-113179116D01*
X94278026Y-112952455D01*
X94480004Y-112749252D01*
X94656999Y-112571022D01*
X94807500Y-112419277D01*
X94929995Y-112295533D01*
X95022974Y-112201304D01*
X95084923Y-112138103D01*
X95114333Y-112107446D01*
X95116625Y-112104755D01*
X95130777Y-112056620D01*
X95137808Y-111987394D01*
X95137951Y-111978910D01*
X95140548Y-111926902D01*
X95148306Y-111920540D01*
X95156383Y-111938365D01*
G37*
G36*
X81150555Y-108525240D02*
G01*
X81142894Y-108568324D01*
X81128087Y-108654108D01*
X81107065Y-108777118D01*
X81080755Y-108931881D01*
X81050089Y-109112923D01*
X81015995Y-109314769D01*
X80979402Y-109531946D01*
X80957001Y-109665150D01*
X80780829Y-110713474D01*
X80611560Y-110707337D01*
X80526474Y-110703344D01*
X80463395Y-110698671D01*
X80435437Y-110694299D01*
X80435214Y-110694124D01*
X80427284Y-110669568D01*
X80408671Y-110604173D01*
X80381125Y-110504336D01*
X80346400Y-110376455D01*
X80306246Y-110226926D01*
X80270208Y-110091553D01*
X80225946Y-109926087D01*
X80184648Y-109774378D01*
X80148278Y-109643436D01*
X80118802Y-109540269D01*
X80098186Y-109471887D01*
X80089522Y-109447211D01*
X80066767Y-109398365D01*
X80064951Y-109447211D01*
X80058082Y-109482707D01*
X80039947Y-109556191D01*
X80012705Y-109660011D01*
X79978510Y-109786511D01*
X79939519Y-109928038D01*
X79897889Y-110076939D01*
X79855774Y-110225560D01*
X79815332Y-110366247D01*
X79778719Y-110491346D01*
X79748090Y-110593203D01*
X79725603Y-110664164D01*
X79713412Y-110696577D01*
X79712719Y-110697537D01*
X79683317Y-110704855D01*
X79619993Y-110710866D01*
X79553094Y-110713758D01*
X79470013Y-110713678D01*
X79423493Y-110706166D01*
X79401410Y-110687756D01*
X79394433Y-110668365D01*
X79386890Y-110631641D01*
X79371864Y-110553950D01*
X79350690Y-110442370D01*
X79324705Y-110303979D01*
X79295246Y-110145854D01*
X79269898Y-110008942D01*
X79232873Y-109808832D01*
X79192979Y-109593942D01*
X79152899Y-109378679D01*
X79115317Y-109177445D01*
X79082915Y-109004647D01*
X79073007Y-108952025D01*
X79046348Y-108809110D01*
X79023160Y-108681880D01*
X79004880Y-108578457D01*
X78992945Y-108506968D01*
X78988789Y-108475775D01*
X79003906Y-108460590D01*
X79053252Y-108452916D01*
X79142709Y-108452120D01*
X79193991Y-108453698D01*
X79399250Y-108461530D01*
X79412699Y-108539178D01*
X79420583Y-108586792D01*
X79434653Y-108673878D01*
X79453505Y-108791654D01*
X79475735Y-108931341D01*
X79499937Y-109084156D01*
X79503274Y-109105288D01*
X79527339Y-109255845D01*
X79549537Y-109391257D01*
X79568524Y-109503606D01*
X79582958Y-109584974D01*
X79591497Y-109627443D01*
X79592317Y-109630385D01*
X79602743Y-109623561D01*
X79621982Y-109577204D01*
X79647168Y-109499210D01*
X79672006Y-109410577D01*
X79705002Y-109286506D01*
X79745880Y-109133961D01*
X79789629Y-108971583D01*
X79831239Y-108818013D01*
X79834457Y-108806183D01*
X79929135Y-108458232D01*
X80091817Y-108458154D01*
X80254500Y-108458077D01*
X80377917Y-108964856D01*
X80415841Y-109122334D01*
X80450648Y-109270142D01*
X80480304Y-109399393D01*
X80502780Y-109501202D01*
X80516044Y-109566683D01*
X80517669Y-109576251D01*
X80529804Y-109636802D01*
X80541484Y-109668255D01*
X80545478Y-109669393D01*
X80552073Y-109644121D01*
X80565787Y-109578663D01*
X80585153Y-109480919D01*
X80608703Y-109358788D01*
X80634969Y-109220171D01*
X80662485Y-109072967D01*
X80689782Y-108925076D01*
X80715393Y-108784397D01*
X80737851Y-108658831D01*
X80755689Y-108556276D01*
X80767438Y-108484634D01*
X80771631Y-108451971D01*
X80794185Y-108443517D01*
X80854089Y-108437127D01*
X80939859Y-108433864D01*
X80969833Y-108433654D01*
X81167936Y-108433654D01*
X81150555Y-108525240D01*
G37*
G36*
X78098343Y-106155587D02*
G01*
X78094972Y-106172049D01*
X78095517Y-106210191D01*
X78104005Y-106219898D01*
X78135523Y-106225871D01*
X78205992Y-106232480D01*
X78305533Y-106238987D01*
X78424272Y-106244652D01*
X78446315Y-106245503D01*
X78616049Y-106255164D01*
X78744336Y-106271035D01*
X78838382Y-106294991D01*
X78905392Y-106328908D01*
X78952571Y-106374659D01*
X78954939Y-106377835D01*
X78997484Y-106412688D01*
X79020231Y-106420492D01*
X79047435Y-106409170D01*
X79047072Y-106370084D01*
X79021641Y-106313967D01*
X78983406Y-106262283D01*
X78927788Y-106198942D01*
X78995363Y-106258537D01*
X79048626Y-106323674D01*
X79088142Y-106402804D01*
X79090606Y-106410485D01*
X79097638Y-106513859D01*
X79063467Y-106618833D01*
X78993995Y-106714091D01*
X78895129Y-106788319D01*
X78892819Y-106789550D01*
X78847012Y-106811760D01*
X78801198Y-106827289D01*
X78745599Y-106837314D01*
X78670437Y-106843014D01*
X78565935Y-106845567D01*
X78423274Y-106846154D01*
X78060769Y-106846154D01*
X78060769Y-106516442D01*
X78427115Y-106516442D01*
X78439327Y-106528654D01*
X78451538Y-106516442D01*
X78439327Y-106504231D01*
X78427115Y-106516442D01*
X78060769Y-106516442D01*
X78060769Y-106492019D01*
X78062334Y-106352702D01*
X78062795Y-106341342D01*
X78205435Y-106341342D01*
X78223042Y-106371853D01*
X78241861Y-106417593D01*
X78237922Y-106442932D01*
X78237214Y-106451646D01*
X78250446Y-106445401D01*
X78269762Y-106416183D01*
X78266318Y-106403226D01*
X78267952Y-106391290D01*
X78318001Y-106391290D01*
X78332089Y-106394357D01*
X78340508Y-106391379D01*
X78388819Y-106391668D01*
X78419526Y-106403752D01*
X78464272Y-106427102D01*
X78472055Y-106421993D01*
X78466712Y-106414679D01*
X78630641Y-106414679D01*
X78633993Y-106429199D01*
X78646923Y-106430961D01*
X78667026Y-106422025D01*
X78663205Y-106414679D01*
X78634221Y-106411756D01*
X78630641Y-106414679D01*
X78466712Y-106414679D01*
X78454107Y-106397422D01*
X78440826Y-106357692D01*
X78598077Y-106357692D01*
X78606410Y-106381480D01*
X78608847Y-106382115D01*
X78629699Y-106365001D01*
X78634711Y-106357692D01*
X78632775Y-106335187D01*
X78623941Y-106333269D01*
X78599071Y-106350998D01*
X78598077Y-106357692D01*
X78440826Y-106357692D01*
X78437645Y-106348177D01*
X78441518Y-106324153D01*
X78442015Y-106292564D01*
X78630641Y-106292564D01*
X78633993Y-106307083D01*
X78646923Y-106308846D01*
X78667026Y-106299910D01*
X78663205Y-106292564D01*
X78634221Y-106289641D01*
X78630641Y-106292564D01*
X78442015Y-106292564D01*
X78442041Y-106290893D01*
X78429728Y-106284423D01*
X78406020Y-106297080D01*
X78405584Y-106302740D01*
X78405434Y-106343703D01*
X78391653Y-106350327D01*
X78383162Y-106340349D01*
X78361080Y-106328648D01*
X78335047Y-106357763D01*
X78318001Y-106391290D01*
X78267952Y-106391290D01*
X78270697Y-106371236D01*
X78290791Y-106349961D01*
X78311812Y-106329714D01*
X78293533Y-106321973D01*
X78260039Y-106321058D01*
X78212451Y-106324252D01*
X78205435Y-106341342D01*
X78062795Y-106341342D01*
X78064608Y-106296635D01*
X78256154Y-106296635D01*
X78268365Y-106308846D01*
X78280577Y-106296635D01*
X78268365Y-106284423D01*
X78256154Y-106296635D01*
X78064608Y-106296635D01*
X78066765Y-106243428D01*
X78073668Y-106170106D01*
X78082648Y-106138646D01*
X78084426Y-106137885D01*
X78098343Y-106155587D01*
G37*
G36*
X82823047Y-99588814D02*
G01*
X82846691Y-99607320D01*
X82904621Y-99660357D01*
X82996846Y-99747932D01*
X83123371Y-99870052D01*
X83284206Y-100026726D01*
X83479357Y-100217959D01*
X83708831Y-100443760D01*
X83972637Y-100704135D01*
X84270781Y-100999093D01*
X84603271Y-101328639D01*
X84970113Y-101692783D01*
X85371317Y-102091531D01*
X85806889Y-102524890D01*
X86276836Y-102992868D01*
X86781165Y-103495472D01*
X87319885Y-104032710D01*
X87893003Y-104604588D01*
X88500525Y-105211114D01*
X88961693Y-105671713D01*
X89418508Y-106128100D01*
X89866668Y-106575964D01*
X90304925Y-107014055D01*
X90732030Y-107441121D01*
X91146736Y-107855910D01*
X91547794Y-108257172D01*
X91933957Y-108643656D01*
X92303977Y-109014109D01*
X92656605Y-109367281D01*
X92990594Y-109701921D01*
X93304695Y-110016777D01*
X93597661Y-110310598D01*
X93868243Y-110582132D01*
X94115194Y-110830129D01*
X94337265Y-111053338D01*
X94533209Y-111250506D01*
X94701777Y-111420383D01*
X94841721Y-111561717D01*
X94951794Y-111673257D01*
X95030746Y-111753753D01*
X95077332Y-111801952D01*
X95090347Y-111816250D01*
X95077108Y-111804696D01*
X95030545Y-111759808D01*
X94951871Y-111682794D01*
X94842299Y-111574862D01*
X94703042Y-111437220D01*
X94535314Y-111271075D01*
X94340327Y-111077635D01*
X94119295Y-110858108D01*
X93873430Y-110613703D01*
X93603947Y-110345626D01*
X93312057Y-110055085D01*
X92998975Y-109743289D01*
X92665913Y-109411445D01*
X92314084Y-109060761D01*
X91944701Y-108692445D01*
X91558979Y-108307704D01*
X91158129Y-107907747D01*
X90743365Y-107493781D01*
X90315900Y-107067015D01*
X89876947Y-106628655D01*
X89427719Y-106179909D01*
X89006795Y-105759327D01*
X88548107Y-105301068D01*
X88098036Y-104851648D01*
X87657823Y-104412296D01*
X87228710Y-103984245D01*
X86811937Y-103568726D01*
X86408744Y-103166971D01*
X86020372Y-102780212D01*
X85648063Y-102409679D01*
X85293056Y-102056605D01*
X84956593Y-101722220D01*
X84639914Y-101407758D01*
X84344260Y-101114448D01*
X84070872Y-100843523D01*
X83820990Y-100596215D01*
X83595855Y-100373754D01*
X83396709Y-100177373D01*
X83224790Y-100008302D01*
X83081342Y-99867774D01*
X82967603Y-99757020D01*
X82884815Y-99677272D01*
X82834219Y-99629761D01*
X82817304Y-99615594D01*
X82746801Y-99609074D01*
X82705368Y-99612697D01*
X82679351Y-99631627D01*
X82620262Y-99684245D01*
X82529272Y-99769406D01*
X82407549Y-99885962D01*
X82256262Y-100032767D01*
X82076581Y-100208672D01*
X81869676Y-100412532D01*
X81636714Y-100643199D01*
X81378865Y-100899525D01*
X81097299Y-101180365D01*
X80793184Y-101484571D01*
X80600436Y-101677776D01*
X78552346Y-103732211D01*
X78713635Y-103739526D01*
X78874924Y-103746842D01*
X80403376Y-102223784D01*
X80668948Y-101959219D01*
X80902339Y-101726952D01*
X81105916Y-101524751D01*
X81282048Y-101350388D01*
X81433106Y-101201631D01*
X81561456Y-101076251D01*
X81669470Y-100972017D01*
X81759515Y-100886699D01*
X81833960Y-100818068D01*
X81895175Y-100763892D01*
X81945529Y-100721942D01*
X81987390Y-100689988D01*
X82023128Y-100665799D01*
X82055112Y-100647146D01*
X82085710Y-100631797D01*
X82102788Y-100623964D01*
X82233425Y-100570780D01*
X82368079Y-100525265D01*
X82492755Y-100491500D01*
X82593460Y-100473563D01*
X82625062Y-100471731D01*
X82685245Y-100471731D01*
X82632142Y-100415205D01*
X82586582Y-100336554D01*
X82581830Y-100281871D01*
X82626611Y-100281871D01*
X82643983Y-100344933D01*
X82682165Y-100384865D01*
X82752990Y-100418766D01*
X82815077Y-100408580D01*
X82872448Y-100361473D01*
X82910731Y-100310612D01*
X82915418Y-100263945D01*
X82906799Y-100233687D01*
X82865405Y-100173910D01*
X82818621Y-100144511D01*
X82744636Y-100138293D01*
X82683559Y-100166888D01*
X82642010Y-100218635D01*
X82626611Y-100281871D01*
X82581830Y-100281871D01*
X82578984Y-100249126D01*
X82608712Y-100168931D01*
X82643390Y-100131580D01*
X82725398Y-100090439D01*
X82806171Y-100087997D01*
X82878265Y-100116605D01*
X82934236Y-100168614D01*
X82966640Y-100236373D01*
X82968035Y-100312233D01*
X82930975Y-100388544D01*
X82912995Y-100408648D01*
X82856183Y-100465460D01*
X83016793Y-100480085D01*
X83117444Y-100495293D01*
X83219870Y-100525180D01*
X83339627Y-100574808D01*
X83409423Y-100607904D01*
X83641442Y-100721098D01*
X88873269Y-105951174D01*
X89377461Y-106455212D01*
X89848258Y-106925909D01*
X90286819Y-107364445D01*
X90694308Y-107772000D01*
X91071883Y-108149754D01*
X91420708Y-108498889D01*
X91741942Y-108820585D01*
X92036748Y-109116022D01*
X92306285Y-109386381D01*
X92551716Y-109632841D01*
X92774201Y-109856584D01*
X92974902Y-110058790D01*
X93154979Y-110240640D01*
X93315594Y-110403313D01*
X93457908Y-110547991D01*
X93583082Y-110675853D01*
X93692278Y-110788081D01*
X93786655Y-110885854D01*
X93867376Y-110970354D01*
X93935601Y-111042760D01*
X93992492Y-111104253D01*
X94039210Y-111156013D01*
X94076915Y-111199222D01*
X94106770Y-111235059D01*
X94129935Y-111264704D01*
X94147571Y-111289339D01*
X94160840Y-111310144D01*
X94170902Y-111328299D01*
X94178918Y-111344985D01*
X94179036Y-111345247D01*
X94259559Y-111574456D01*
X94305513Y-111820721D01*
X94315814Y-112070401D01*
X94289381Y-112309857D01*
X94263927Y-112415105D01*
X94254683Y-112447873D01*
X94246098Y-112478335D01*
X94236943Y-112507784D01*
X94225988Y-112537512D01*
X94212004Y-112568811D01*
X94193763Y-112602972D01*
X94170035Y-112641288D01*
X94139591Y-112685051D01*
X94101203Y-112735554D01*
X94053641Y-112794087D01*
X93995676Y-112861943D01*
X93926079Y-112940415D01*
X93843622Y-113030794D01*
X93747075Y-113134373D01*
X93635208Y-113252442D01*
X93506795Y-113386296D01*
X93360604Y-113537225D01*
X93195407Y-113706522D01*
X93009975Y-113895478D01*
X92803080Y-114105387D01*
X92573492Y-114337539D01*
X92319981Y-114593228D01*
X92041320Y-114873744D01*
X91736278Y-115180381D01*
X91403628Y-115514429D01*
X91042139Y-115877182D01*
X90650584Y-116269932D01*
X90227732Y-116693970D01*
X89772356Y-117150588D01*
X89494842Y-117428866D01*
X89096135Y-117828716D01*
X88703633Y-118222405D01*
X88318940Y-118608324D01*
X87943660Y-118984861D01*
X87579394Y-119350407D01*
X87227748Y-119703350D01*
X86890323Y-120042081D01*
X86568725Y-120364988D01*
X86264555Y-120670462D01*
X85979417Y-120956891D01*
X85714914Y-121222665D01*
X85472651Y-121466173D01*
X85254230Y-121685806D01*
X85061254Y-121879952D01*
X84895327Y-122047001D01*
X84758052Y-122185343D01*
X84651033Y-122293366D01*
X84575873Y-122369461D01*
X84544994Y-122400904D01*
X84408527Y-122539150D01*
X84263783Y-122683416D01*
X84120536Y-122824121D01*
X83988565Y-122951684D01*
X83877644Y-123056523D01*
X83849371Y-123082629D01*
X83695833Y-123217715D01*
X83562228Y-123320764D01*
X83437835Y-123397772D01*
X83311936Y-123454733D01*
X83173812Y-123497645D01*
X83062254Y-123522909D01*
X82859904Y-123563750D01*
X82914856Y-123617829D01*
X82961986Y-123692072D01*
X82961629Y-123772285D01*
X82914062Y-123854210D01*
X82898417Y-123870917D01*
X82830309Y-123925074D01*
X82766111Y-123938377D01*
X82690803Y-123912283D01*
X82659069Y-123894128D01*
X82588921Y-123828663D01*
X82569136Y-123769347D01*
X82629407Y-123769347D01*
X82649367Y-123830474D01*
X82657192Y-123839731D01*
X82708736Y-123863422D01*
X82779267Y-123867211D01*
X82844401Y-123851939D01*
X82872178Y-123832329D01*
X82896272Y-123779555D01*
X82902644Y-123734711D01*
X82883173Y-123659765D01*
X82833364Y-123612800D01*
X82766122Y-123599084D01*
X82694352Y-123623884D01*
X82672548Y-123640804D01*
X82637737Y-123698315D01*
X82629407Y-123769347D01*
X82569136Y-123769347D01*
X82562725Y-123750126D01*
X82580507Y-123666809D01*
X82642293Y-123587003D01*
X82658079Y-123573659D01*
X82681104Y-123552497D01*
X82679076Y-123539268D01*
X82644610Y-123530315D01*
X82570322Y-123521981D01*
X82549810Y-123520046D01*
X82324979Y-123475512D01*
X82102940Y-123383689D01*
X81962709Y-123300709D01*
X81928216Y-123272005D01*
X81861032Y-123210242D01*
X81762817Y-123117084D01*
X81635232Y-122994196D01*
X81479939Y-122843244D01*
X81298599Y-122665894D01*
X81092873Y-122463809D01*
X80864423Y-122238656D01*
X80614909Y-121992099D01*
X80345992Y-121725804D01*
X80059335Y-121441436D01*
X79756598Y-121140660D01*
X79439442Y-120825141D01*
X79109528Y-120496544D01*
X78768519Y-120156534D01*
X78418074Y-119806778D01*
X78059855Y-119448939D01*
X77695524Y-119084683D01*
X77326741Y-118715675D01*
X76955167Y-118343580D01*
X76582465Y-117970064D01*
X76210295Y-117596791D01*
X75840318Y-117225427D01*
X75474195Y-116857637D01*
X75113588Y-116495086D01*
X74760158Y-116139440D01*
X74415566Y-115792363D01*
X74081474Y-115455520D01*
X73759542Y-115130577D01*
X73451431Y-114819199D01*
X73158803Y-114523051D01*
X72883320Y-114243799D01*
X72626641Y-113983106D01*
X72390430Y-113742640D01*
X72176345Y-113524064D01*
X71986050Y-113329044D01*
X71821205Y-113159244D01*
X71683471Y-113016332D01*
X71574509Y-112901970D01*
X71495981Y-112817825D01*
X71449548Y-112765562D01*
X71438593Y-112751470D01*
X71363325Y-112620564D01*
X71310573Y-112483803D01*
X71277571Y-112329800D01*
X71261556Y-112147164D01*
X71258942Y-112011635D01*
X71260337Y-111924575D01*
X71698331Y-111924575D01*
X71698558Y-111999423D01*
X71699217Y-112122065D01*
X71702885Y-112209220D01*
X71712096Y-112274247D01*
X71729385Y-112330502D01*
X71757286Y-112391343D01*
X71781979Y-112439038D01*
X71792730Y-112457175D01*
X71808824Y-112480148D01*
X71831412Y-112509122D01*
X71861648Y-112545267D01*
X71900685Y-112589748D01*
X71949676Y-112643733D01*
X72009775Y-112708388D01*
X72082134Y-112784882D01*
X72167906Y-112874382D01*
X72268245Y-112978054D01*
X72384304Y-113097065D01*
X72517236Y-113232583D01*
X72668194Y-113385776D01*
X72838331Y-113557809D01*
X73028800Y-113749850D01*
X73240754Y-113963067D01*
X73475347Y-114198626D01*
X73733731Y-114457695D01*
X74017060Y-114741441D01*
X74326486Y-115051031D01*
X74663164Y-115387632D01*
X75028245Y-115752411D01*
X75422883Y-116146535D01*
X75848232Y-116571172D01*
X76305443Y-117027489D01*
X76795672Y-117516653D01*
X76993894Y-117714423D01*
X77413793Y-118133265D01*
X77825266Y-118543535D01*
X78226936Y-118943864D01*
X78617424Y-119332885D01*
X78995355Y-119709231D01*
X79359349Y-120071534D01*
X79708031Y-120418426D01*
X80040023Y-120748541D01*
X80353947Y-121060511D01*
X80648426Y-121352969D01*
X80922083Y-121624546D01*
X81173539Y-121873876D01*
X81401419Y-122099592D01*
X81604344Y-122300324D01*
X81780938Y-122474708D01*
X81929822Y-122621374D01*
X82049619Y-122738955D01*
X82138953Y-122826084D01*
X82196445Y-122881394D01*
X82220519Y-122903373D01*
X82331315Y-122973928D01*
X82445946Y-123021124D01*
X82576708Y-123048034D01*
X82735900Y-123057729D01*
X82835481Y-123056950D01*
X82959864Y-123052642D01*
X83049719Y-123045086D01*
X83119359Y-123031559D01*
X83183101Y-123009338D01*
X83250673Y-122977969D01*
X83267830Y-122968084D01*
X83290356Y-122952348D01*
X83319408Y-122929622D01*
X83356144Y-122898763D01*
X83401721Y-122858631D01*
X83457297Y-122808085D01*
X83524029Y-122745983D01*
X83603074Y-122671186D01*
X83662427Y-122614324D01*
X83954461Y-122614324D01*
X83970142Y-122667506D01*
X84013352Y-122694285D01*
X84027751Y-122695183D01*
X84081058Y-122693634D01*
X84026106Y-122671547D01*
X83978984Y-122635045D01*
X83977639Y-122586916D01*
X84000054Y-122555484D01*
X84017683Y-122523390D01*
X84014245Y-122511873D01*
X83993480Y-122518766D01*
X83971779Y-122549023D01*
X83954461Y-122614324D01*
X83662427Y-122614324D01*
X83695592Y-122582551D01*
X83802738Y-122478937D01*
X83819878Y-122462243D01*
X84096195Y-122462243D01*
X84115409Y-122497471D01*
X84124671Y-122507452D01*
X84164816Y-122541025D01*
X84184530Y-122536337D01*
X84187259Y-122528696D01*
X84177124Y-122487656D01*
X84162836Y-122474118D01*
X84114200Y-122452541D01*
X84096195Y-122462243D01*
X83819878Y-122462243D01*
X83829882Y-122452500D01*
X84288654Y-122452500D01*
X84297590Y-122472603D01*
X84304936Y-122468782D01*
X84307859Y-122439797D01*
X84304936Y-122436218D01*
X84290416Y-122439570D01*
X84288654Y-122452500D01*
X83829882Y-122452500D01*
X83874552Y-122408993D01*
X84142489Y-122408993D01*
X84148601Y-122425622D01*
X84164447Y-122406201D01*
X84203542Y-122384268D01*
X84231237Y-122389330D01*
X84260552Y-122396980D01*
X84249877Y-122379801D01*
X84247555Y-122377435D01*
X84205683Y-122360369D01*
X84162958Y-122372535D01*
X84142514Y-122406983D01*
X84142489Y-122408993D01*
X83874552Y-122408993D01*
X83925672Y-122359204D01*
X83991257Y-122294971D01*
X84240182Y-122294971D01*
X84259777Y-122337767D01*
X84307348Y-122368533D01*
X84364027Y-122380890D01*
X84410947Y-122368461D01*
X84421979Y-122356429D01*
X84411103Y-122341486D01*
X84365705Y-122335690D01*
X84360036Y-122335788D01*
X84299775Y-122327177D01*
X84262278Y-122303639D01*
X84244005Y-122286558D01*
X84240182Y-122294971D01*
X83991257Y-122294971D01*
X84065549Y-122222211D01*
X84123294Y-122165411D01*
X84370709Y-122165411D01*
X84371130Y-122174202D01*
X84404151Y-122211974D01*
X84408921Y-122217166D01*
X84455718Y-122265678D01*
X84475663Y-122278474D01*
X84473014Y-122257499D01*
X84468187Y-122244225D01*
X84436218Y-122203864D01*
X84401790Y-122179853D01*
X84370709Y-122165411D01*
X84123294Y-122165411D01*
X84164429Y-122124949D01*
X84422721Y-122124949D01*
X84452717Y-122157117D01*
X84459355Y-122162778D01*
X84520153Y-122213355D01*
X84534883Y-122155860D01*
X84541742Y-122110577D01*
X84606154Y-122110577D01*
X84615090Y-122130680D01*
X84622436Y-122126859D01*
X84625359Y-122097874D01*
X84622436Y-122094295D01*
X84607916Y-122097647D01*
X84606154Y-122110577D01*
X84541742Y-122110577D01*
X84542676Y-122104410D01*
X84539807Y-122080048D01*
X84516708Y-122059794D01*
X84500731Y-122077304D01*
X84501859Y-122116683D01*
X84507153Y-122153304D01*
X84491798Y-122149390D01*
X84482476Y-122141106D01*
X84441659Y-122115190D01*
X84424202Y-122111389D01*
X84422721Y-122124949D01*
X84164429Y-122124949D01*
X84223528Y-122066816D01*
X84302725Y-121988647D01*
X84534484Y-121988647D01*
X84540549Y-122001294D01*
X84554192Y-122018990D01*
X84589840Y-122056960D01*
X84605753Y-122056795D01*
X84606154Y-122052510D01*
X84589464Y-122032123D01*
X84563413Y-122009769D01*
X84534484Y-121988647D01*
X84302725Y-121988647D01*
X84352402Y-121939615D01*
X84581731Y-121939615D01*
X84590667Y-121959718D01*
X84598013Y-121955897D01*
X84600936Y-121926913D01*
X84598013Y-121923333D01*
X84583493Y-121926686D01*
X84581731Y-121939615D01*
X84352402Y-121939615D01*
X84397372Y-121895229D01*
X84632505Y-121895229D01*
X84651293Y-121934436D01*
X84681656Y-121952535D01*
X84719817Y-121980379D01*
X84720212Y-122016635D01*
X84716220Y-122048807D01*
X84736191Y-122040748D01*
X84741889Y-122036139D01*
X84763152Y-121998682D01*
X84751320Y-121961474D01*
X84717166Y-121923935D01*
X84692810Y-121915192D01*
X84654006Y-121896297D01*
X84646752Y-121884663D01*
X84635908Y-121874969D01*
X84632505Y-121895229D01*
X84397372Y-121895229D01*
X84400767Y-121891878D01*
X84493084Y-121800511D01*
X84712694Y-121800511D01*
X84719435Y-121822892D01*
X84750105Y-121859327D01*
X84789525Y-121894607D01*
X84822514Y-121913521D01*
X84825961Y-121914006D01*
X84853745Y-121902071D01*
X84874808Y-121888536D01*
X84899052Y-121869397D01*
X84882457Y-121871343D01*
X84874808Y-121873590D01*
X84832042Y-121866338D01*
X84783317Y-121834648D01*
X84740395Y-121804254D01*
X84713008Y-121800216D01*
X84712694Y-121800511D01*
X84493084Y-121800511D01*
X84563559Y-121730761D01*
X84806034Y-121730761D01*
X84835852Y-121765194D01*
X84877099Y-121807670D01*
X84895881Y-121814474D01*
X84899231Y-121798952D01*
X84880734Y-121773740D01*
X84844279Y-121746646D01*
X84806985Y-121724702D01*
X84806034Y-121730761D01*
X84563559Y-121730761D01*
X84598422Y-121696257D01*
X84648549Y-121646538D01*
X84885536Y-121646538D01*
X84888525Y-121659979D01*
X84920484Y-121692610D01*
X84923654Y-121695385D01*
X84971011Y-121730208D01*
X85003954Y-121744231D01*
X85003970Y-121731634D01*
X84972537Y-121700770D01*
X84965836Y-121695385D01*
X84917657Y-121661513D01*
X84886280Y-121646574D01*
X84885536Y-121646538D01*
X84648549Y-121646538D01*
X84758549Y-121537434D01*
X84996884Y-121537434D01*
X85024879Y-121571311D01*
X85038301Y-121583403D01*
X85090392Y-121622306D01*
X85116184Y-121630373D01*
X85110617Y-121608747D01*
X85082539Y-121573419D01*
X85067420Y-121561058D01*
X85167885Y-121561058D01*
X85180096Y-121573269D01*
X85192308Y-121561058D01*
X85180096Y-121548846D01*
X85167885Y-121561058D01*
X85067420Y-121561058D01*
X85037474Y-121536575D01*
X85003987Y-121524423D01*
X84996884Y-121537434D01*
X84758549Y-121537434D01*
X84812707Y-121483718D01*
X85224872Y-121483718D01*
X85228224Y-121498237D01*
X85241154Y-121500000D01*
X85261257Y-121491064D01*
X85257436Y-121483718D01*
X85228451Y-121480795D01*
X85224872Y-121483718D01*
X84812707Y-121483718D01*
X84817653Y-121478812D01*
X84875301Y-121421533D01*
X85119038Y-121421533D01*
X85139818Y-121438160D01*
X85173682Y-121444875D01*
X85208627Y-121444170D01*
X85199203Y-121430761D01*
X85192000Y-121426024D01*
X85166034Y-121414519D01*
X85265577Y-121414519D01*
X85277788Y-121426731D01*
X85290000Y-121414519D01*
X85277788Y-121402308D01*
X85265577Y-121414519D01*
X85166034Y-121414519D01*
X85142303Y-121404004D01*
X85119709Y-121415348D01*
X85119038Y-121421533D01*
X84875301Y-121421533D01*
X84982949Y-121314575D01*
X85229887Y-121314575D01*
X85261701Y-121339006D01*
X85265577Y-121341250D01*
X85320614Y-121368026D01*
X85352119Y-121375003D01*
X85352324Y-121362278D01*
X85328072Y-121340473D01*
X85275683Y-121312432D01*
X85242592Y-121305481D01*
X85229887Y-121314575D01*
X84982949Y-121314575D01*
X85059615Y-121238400D01*
X85127061Y-121171292D01*
X85391142Y-121171292D01*
X85399534Y-121211245D01*
X85428606Y-121249494D01*
X85463210Y-121270505D01*
X85483398Y-121265897D01*
X85477024Y-121244966D01*
X85454652Y-121228301D01*
X85419168Y-121192150D01*
X85412115Y-121168308D01*
X85429880Y-121128358D01*
X85473049Y-121117893D01*
X85526432Y-121139227D01*
X85538708Y-121149009D01*
X85574000Y-121174848D01*
X85580067Y-121163163D01*
X85579086Y-121159822D01*
X85542758Y-121107960D01*
X85489076Y-121090015D01*
X85434821Y-121104963D01*
X85396773Y-121151778D01*
X85391142Y-121171292D01*
X85127061Y-121171292D01*
X85226255Y-121072596D01*
X85558654Y-121072596D01*
X85570865Y-121084808D01*
X85583077Y-121072596D01*
X85570865Y-121060385D01*
X85558654Y-121072596D01*
X85226255Y-121072596D01*
X85269922Y-121029148D01*
X85517811Y-121029148D01*
X85538649Y-121017904D01*
X85545883Y-121012002D01*
X85589411Y-120996565D01*
X85626373Y-121011613D01*
X85641515Y-121045295D01*
X85628770Y-121076396D01*
X85614172Y-121100247D01*
X85638482Y-121095801D01*
X85640680Y-121094965D01*
X85675183Y-121067379D01*
X85680769Y-121050445D01*
X85662706Y-121002136D01*
X85620138Y-120972325D01*
X85570499Y-120966312D01*
X85531223Y-120989402D01*
X85524073Y-121002781D01*
X85517811Y-121029148D01*
X85269922Y-121029148D01*
X85325467Y-120973882D01*
X85410605Y-120889076D01*
X85639565Y-120889076D01*
X85661761Y-120929087D01*
X85680465Y-120950157D01*
X85726005Y-120991722D01*
X85760249Y-121011313D01*
X85762553Y-121011538D01*
X85765039Y-120996646D01*
X85738703Y-120960266D01*
X85733873Y-120955012D01*
X85696347Y-120905115D01*
X85683600Y-120872001D01*
X85733552Y-120872001D01*
X85739495Y-120885649D01*
X85764086Y-120911869D01*
X85778224Y-120906490D01*
X85778461Y-120903076D01*
X85761114Y-120882418D01*
X85750265Y-120874879D01*
X85733552Y-120872001D01*
X85683600Y-120872001D01*
X85680769Y-120864647D01*
X85673638Y-120843976D01*
X85651785Y-120859792D01*
X85639565Y-120889076D01*
X85410605Y-120889076D01*
X85474932Y-120825000D01*
X85718233Y-120825000D01*
X85731838Y-120828475D01*
X85742184Y-120824849D01*
X85773296Y-120826787D01*
X85778461Y-120839405D01*
X85793270Y-120856418D01*
X85802885Y-120852788D01*
X85821709Y-120860990D01*
X85828050Y-120894087D01*
X85830821Y-120932561D01*
X85842830Y-120925407D01*
X85855243Y-120904959D01*
X85866740Y-120865338D01*
X85845300Y-120824625D01*
X85823616Y-120801361D01*
X85783129Y-120763801D01*
X85760300Y-120759375D01*
X85738773Y-120786161D01*
X85735723Y-120791027D01*
X85718233Y-120825000D01*
X85474932Y-120825000D01*
X85616366Y-120684117D01*
X85933470Y-120367962D01*
X86277936Y-120024278D01*
X86650923Y-119651923D01*
X87053587Y-119249756D01*
X87487086Y-118816636D01*
X87952578Y-118351422D01*
X88451220Y-117852973D01*
X88540325Y-117763894D01*
X89049478Y-117255006D01*
X89525341Y-116779577D01*
X89969029Y-116336395D01*
X90381659Y-115924246D01*
X90764346Y-115541918D01*
X91118204Y-115188196D01*
X91444349Y-114861867D01*
X91743897Y-114561719D01*
X92017963Y-114286537D01*
X92267662Y-114035109D01*
X92494110Y-113806221D01*
X92698423Y-113598660D01*
X92881715Y-113411213D01*
X93045101Y-113242665D01*
X93189698Y-113091805D01*
X93316621Y-112957418D01*
X93426985Y-112838291D01*
X93521905Y-112733211D01*
X93602497Y-112640965D01*
X93669877Y-112560340D01*
X93725159Y-112490121D01*
X93769459Y-112429096D01*
X93803892Y-112376051D01*
X93829574Y-112329774D01*
X93847620Y-112289050D01*
X93859146Y-112252666D01*
X93865267Y-112219410D01*
X93867098Y-112188068D01*
X93865755Y-112157426D01*
X93862353Y-112126271D01*
X93858007Y-112093390D01*
X93853833Y-112057570D01*
X93850947Y-112017596D01*
X93850288Y-111987725D01*
X93851417Y-111931629D01*
X93853805Y-111881821D01*
X93855953Y-111836572D01*
X93856362Y-111794153D01*
X93853533Y-111752835D01*
X93845968Y-111710889D01*
X93832168Y-111666586D01*
X93810634Y-111618196D01*
X93779866Y-111563990D01*
X93738368Y-111502240D01*
X93684639Y-111431215D01*
X93617180Y-111349188D01*
X93534494Y-111254429D01*
X93435081Y-111145208D01*
X93317442Y-111019797D01*
X93180079Y-110876467D01*
X93021493Y-110713488D01*
X92840185Y-110529132D01*
X92634656Y-110321668D01*
X92403407Y-110089369D01*
X92144940Y-109830505D01*
X91857756Y-109543347D01*
X91540355Y-109226165D01*
X91191240Y-108877231D01*
X90912351Y-108598316D01*
X88110865Y-105795574D01*
X88109729Y-106107162D01*
X88101048Y-106332568D01*
X88074679Y-106520427D01*
X88027425Y-106679838D01*
X87956091Y-106819902D01*
X87857481Y-106949719D01*
X87788387Y-107022083D01*
X87707522Y-107096501D01*
X87631006Y-107152862D01*
X87549962Y-107193829D01*
X87455511Y-107222066D01*
X87338777Y-107240239D01*
X87190881Y-107251013D01*
X87005721Y-107256991D01*
X86584423Y-107266179D01*
X86584423Y-106870577D01*
X86975192Y-106870577D01*
X87115625Y-106870441D01*
X87214733Y-106865378D01*
X87311471Y-106852619D01*
X87353750Y-106843316D01*
X87457333Y-106792587D01*
X87554284Y-106705439D01*
X87632987Y-106594042D01*
X87669518Y-106512494D01*
X87711168Y-106340040D01*
X87726439Y-106150584D01*
X87716161Y-105959027D01*
X87681165Y-105780272D01*
X87622283Y-105629220D01*
X87620039Y-105625056D01*
X87551395Y-105522970D01*
X87469240Y-105452774D01*
X87363304Y-105408786D01*
X87223315Y-105385328D01*
X87180332Y-105381908D01*
X86975192Y-105368287D01*
X86975192Y-106119432D01*
X86975192Y-106870577D01*
X86584423Y-106870577D01*
X86584423Y-106119432D01*
X86584423Y-106114076D01*
X86584423Y-104961973D01*
X86938565Y-104969881D01*
X87292706Y-104977788D01*
X85503709Y-103186361D01*
X85254094Y-102936646D01*
X85011329Y-102694244D01*
X84777992Y-102461707D01*
X84556663Y-102241583D01*
X84349921Y-102036425D01*
X84160346Y-101848783D01*
X83990517Y-101681206D01*
X83843013Y-101536246D01*
X83720414Y-101416452D01*
X83625299Y-101324375D01*
X83560247Y-101262567D01*
X83533843Y-101238557D01*
X83396329Y-101125992D01*
X83276875Y-101045636D01*
X83162384Y-100992082D01*
X83039759Y-100959919D01*
X82895904Y-100943738D01*
X82810822Y-100939918D01*
X82639395Y-100940706D01*
X82499738Y-100957735D01*
X82376164Y-100995676D01*
X82252984Y-101059204D01*
X82127721Y-101143396D01*
X82086192Y-101178195D01*
X82013425Y-101244631D01*
X81912568Y-101339645D01*
X81786766Y-101460177D01*
X81639167Y-101603170D01*
X81472916Y-101765566D01*
X81291160Y-101944305D01*
X81097046Y-102136329D01*
X80893719Y-102338580D01*
X80735186Y-102497027D01*
X79489699Y-103744423D01*
X79740716Y-103744423D01*
X79888508Y-103748080D01*
X80004716Y-103760468D01*
X80106151Y-103783709D01*
X80142289Y-103795142D01*
X80354568Y-103891282D01*
X80537358Y-104025986D01*
X80688659Y-104197441D01*
X80801424Y-104392748D01*
X80857211Y-104513750D01*
X80864236Y-105962741D01*
X80865729Y-106282447D01*
X80866657Y-106557401D01*
X80866688Y-106791698D01*
X80865493Y-106989433D01*
X80862741Y-107154699D01*
X80858102Y-107291590D01*
X80851243Y-107404201D01*
X80841836Y-107496627D01*
X80829549Y-107572960D01*
X80814052Y-107637297D01*
X80795013Y-107693730D01*
X80772103Y-107746354D01*
X80744991Y-107799264D01*
X80713346Y-107856553D01*
X80710952Y-107860834D01*
X80582406Y-108041696D01*
X80417550Y-108190150D01*
X80238810Y-108295309D01*
X80075673Y-108372596D01*
X78562427Y-108380078D01*
X78247872Y-108381519D01*
X77978208Y-108382445D01*
X77749480Y-108382779D01*
X77557735Y-108382442D01*
X77399018Y-108381356D01*
X77269375Y-108379444D01*
X77164852Y-108376628D01*
X77081496Y-108372829D01*
X77015352Y-108367971D01*
X76962467Y-108361974D01*
X76918886Y-108354761D01*
X76883682Y-108347002D01*
X76686580Y-108274504D01*
X76511323Y-108161893D01*
X76361989Y-108014557D01*
X76242655Y-107837884D01*
X76157398Y-107637261D01*
X76110296Y-107418074D01*
X76102639Y-107314985D01*
X76102618Y-107314300D01*
X77425756Y-107314300D01*
X77426736Y-107340351D01*
X77432986Y-107361055D01*
X77449539Y-107377025D01*
X77481428Y-107388876D01*
X77533688Y-107397223D01*
X77611352Y-107402679D01*
X77719453Y-107405860D01*
X77863024Y-107407378D01*
X78047100Y-107407849D01*
X78192578Y-107407885D01*
X78419053Y-107407364D01*
X78602425Y-107405640D01*
X78748427Y-107402470D01*
X78862793Y-107397610D01*
X78951256Y-107390818D01*
X79019551Y-107381850D01*
X79073099Y-107370544D01*
X79204918Y-107329297D01*
X79326486Y-107278625D01*
X79429440Y-107223296D01*
X79505415Y-107168080D01*
X79546049Y-107117746D01*
X79550577Y-107098256D01*
X79562119Y-107074535D01*
X79572722Y-107076765D01*
X79584686Y-107068432D01*
X79581008Y-107037453D01*
X79577455Y-106999673D01*
X79600957Y-106997554D01*
X79606465Y-106999540D01*
X79634527Y-107001317D01*
X79632064Y-106978879D01*
X79615294Y-106964673D01*
X79581361Y-106980460D01*
X79526447Y-107026156D01*
X79421642Y-107109604D01*
X79309130Y-107180805D01*
X79204273Y-107230780D01*
X79147596Y-107247610D01*
X79108063Y-107253029D01*
X79107369Y-107247893D01*
X79110961Y-107246286D01*
X79304624Y-107151978D01*
X79453253Y-107048585D01*
X79560389Y-106932150D01*
X79573320Y-106907211D01*
X79623846Y-106907211D01*
X79636058Y-106919423D01*
X79648269Y-106907211D01*
X79636058Y-106895000D01*
X79623846Y-106907211D01*
X79573320Y-106907211D01*
X79629576Y-106798712D01*
X79649147Y-106711827D01*
X79794808Y-106711827D01*
X79807019Y-106724038D01*
X79819231Y-106711827D01*
X79807019Y-106699615D01*
X79794808Y-106711827D01*
X79649147Y-106711827D01*
X79664354Y-106644312D01*
X79666259Y-106625569D01*
X79665730Y-106565288D01*
X79697115Y-106565288D01*
X79709327Y-106577500D01*
X79721538Y-106565288D01*
X79709327Y-106553077D01*
X79697115Y-106565288D01*
X79665730Y-106565288D01*
X79665086Y-106492019D01*
X79697115Y-106492019D01*
X79709327Y-106504231D01*
X79721538Y-106492019D01*
X79709327Y-106479808D01*
X79697115Y-106492019D01*
X79665086Y-106492019D01*
X79664966Y-106478356D01*
X79647703Y-106418750D01*
X79770385Y-106418750D01*
X79782596Y-106430961D01*
X79794808Y-106418750D01*
X79782596Y-106406538D01*
X79770385Y-106418750D01*
X79647703Y-106418750D01*
X79628349Y-106351923D01*
X79551441Y-106232291D01*
X79509597Y-106184612D01*
X79467774Y-106150096D01*
X79794808Y-106150096D01*
X79807019Y-106162308D01*
X79808610Y-106160717D01*
X80411373Y-106160717D01*
X80414713Y-106162308D01*
X80437001Y-106145114D01*
X80442019Y-106137885D01*
X80527500Y-106137885D01*
X80546085Y-106161598D01*
X80551923Y-106162308D01*
X80575636Y-106143722D01*
X80576346Y-106137885D01*
X80557761Y-106114171D01*
X80551923Y-106113461D01*
X80528210Y-106132047D01*
X80527500Y-106137885D01*
X80442019Y-106137885D01*
X80448243Y-106115052D01*
X80444902Y-106113461D01*
X80422614Y-106130655D01*
X80417596Y-106137885D01*
X80411373Y-106160717D01*
X79808610Y-106160717D01*
X79819231Y-106150096D01*
X79807019Y-106137885D01*
X79794808Y-106150096D01*
X79467774Y-106150096D01*
X79438181Y-106125673D01*
X80234423Y-106125673D01*
X80246635Y-106137885D01*
X80258846Y-106125673D01*
X80246635Y-106113461D01*
X80234423Y-106125673D01*
X79438181Y-106125673D01*
X79408588Y-106101250D01*
X79794808Y-106101250D01*
X79807019Y-106113461D01*
X79819231Y-106101250D01*
X79807019Y-106089038D01*
X79794808Y-106101250D01*
X79408588Y-106101250D01*
X79366912Y-106066855D01*
X79336788Y-106052404D01*
X79770385Y-106052404D01*
X79782596Y-106064615D01*
X79794808Y-106052404D01*
X79782596Y-106040192D01*
X79770385Y-106052404D01*
X79336788Y-106052404D01*
X79234968Y-106003558D01*
X79941346Y-106003558D01*
X79953558Y-106015769D01*
X79959397Y-106009930D01*
X80122900Y-106009930D01*
X80146907Y-106013841D01*
X80178584Y-106009351D01*
X80178847Y-106003558D01*
X80283269Y-106003558D01*
X80295481Y-106015769D01*
X80307692Y-106003558D01*
X80295481Y-105991346D01*
X80283269Y-106003558D01*
X80178847Y-106003558D01*
X80178962Y-106001014D01*
X80146275Y-105995183D01*
X80132151Y-105999085D01*
X80122900Y-106009930D01*
X79959397Y-106009930D01*
X79965769Y-106003558D01*
X79953558Y-105991346D01*
X79941346Y-106003558D01*
X79234968Y-106003558D01*
X79195666Y-105984704D01*
X79174874Y-105979232D01*
X80336088Y-105979232D01*
X80342976Y-106000263D01*
X80375217Y-106030703D01*
X80415409Y-106056335D01*
X80439650Y-106063839D01*
X80439368Y-106051048D01*
X80427731Y-106038751D01*
X80478654Y-106038751D01*
X80496383Y-106063621D01*
X80503077Y-106064615D01*
X80526865Y-106056282D01*
X80527500Y-106053845D01*
X80510386Y-106032993D01*
X80503077Y-106027981D01*
X80480571Y-106029917D01*
X80478654Y-106038751D01*
X80427731Y-106038751D01*
X80408937Y-106018891D01*
X80405206Y-106015614D01*
X80362169Y-105985017D01*
X80336421Y-105978932D01*
X80336088Y-105979232D01*
X79174874Y-105979232D01*
X79081703Y-105954711D01*
X79599423Y-105954711D01*
X79611635Y-105966923D01*
X79623846Y-105954711D01*
X79611635Y-105942500D01*
X79599423Y-105954711D01*
X79081703Y-105954711D01*
X79076820Y-105953426D01*
X78981621Y-105935708D01*
X79096543Y-105892085D01*
X79252696Y-105811858D01*
X79377265Y-105705601D01*
X79468042Y-105579980D01*
X79498576Y-105502885D01*
X79550577Y-105502885D01*
X79559513Y-105522987D01*
X79566859Y-105519167D01*
X79569782Y-105490182D01*
X79566859Y-105486602D01*
X79552339Y-105489955D01*
X79550577Y-105502885D01*
X79498576Y-105502885D01*
X79522823Y-105441662D01*
X79539401Y-105297313D01*
X79515571Y-105153598D01*
X79449127Y-105017184D01*
X79404912Y-104960154D01*
X79303417Y-104860690D01*
X79193650Y-104788701D01*
X79064470Y-104739318D01*
X78904736Y-104707671D01*
X78800834Y-104696151D01*
X78658137Y-104686444D01*
X78486217Y-104679456D01*
X78297876Y-104675266D01*
X78105919Y-104673955D01*
X77923150Y-104675599D01*
X77762371Y-104680278D01*
X77636386Y-104688072D01*
X77627260Y-104688922D01*
X77474615Y-104703668D01*
X77474615Y-105994361D01*
X77474615Y-107285053D01*
X78201202Y-107292212D01*
X78927788Y-107299370D01*
X78176766Y-107298675D01*
X77990850Y-107299013D01*
X77821685Y-107300299D01*
X77675168Y-107302411D01*
X77557195Y-107305227D01*
X77473662Y-107308623D01*
X77430465Y-107312478D01*
X77425756Y-107314300D01*
X76102618Y-107314300D01*
X76097043Y-107136604D01*
X74995135Y-108243062D01*
X74760994Y-108478294D01*
X74503756Y-108736951D01*
X74231347Y-109011050D01*
X73951693Y-109292608D01*
X73672721Y-109573642D01*
X73402357Y-109846169D01*
X73148527Y-110102205D01*
X72919157Y-110333767D01*
X72863234Y-110390265D01*
X72635560Y-110620224D01*
X72439629Y-110818518D01*
X72273060Y-110988433D01*
X72133475Y-111133255D01*
X72018495Y-111256273D01*
X71925740Y-111360774D01*
X71852832Y-111450043D01*
X71797391Y-111527369D01*
X71757038Y-111596037D01*
X71729394Y-111659336D01*
X71712081Y-111720553D01*
X71702719Y-111782973D01*
X71698929Y-111849885D01*
X71698331Y-111924575D01*
X71260337Y-111924575D01*
X71261605Y-111845443D01*
X71270235Y-111717509D01*
X71285790Y-111617503D01*
X71300930Y-111559808D01*
X71315445Y-111513809D01*
X71330082Y-111470764D01*
X71346601Y-111428750D01*
X71366762Y-111385842D01*
X71392327Y-111340116D01*
X71425054Y-111289648D01*
X71466705Y-111232513D01*
X71519039Y-111166789D01*
X71583817Y-111090550D01*
X71662800Y-111001873D01*
X71757746Y-110898833D01*
X71870418Y-110779506D01*
X72002574Y-110641968D01*
X72155976Y-110484295D01*
X72332383Y-110304563D01*
X72533556Y-110100848D01*
X72761255Y-109871226D01*
X73017240Y-109613771D01*
X73303272Y-109326562D01*
X73621110Y-109007672D01*
X73798765Y-108829469D01*
X76070288Y-106550957D01*
X76084329Y-106362738D01*
X76087975Y-106291294D01*
X76091604Y-106178732D01*
X76093442Y-106101250D01*
X77303654Y-106101250D01*
X77315865Y-106113461D01*
X77328077Y-106101250D01*
X77315865Y-106089038D01*
X77303654Y-106101250D01*
X76093442Y-106101250D01*
X76094021Y-106076827D01*
X77035000Y-106076827D01*
X77047211Y-106089038D01*
X77059423Y-106076827D01*
X77047211Y-106064615D01*
X77035000Y-106076827D01*
X76094021Y-106076827D01*
X76094600Y-106052404D01*
X76986154Y-106052404D01*
X76998365Y-106064615D01*
X77010577Y-106052404D01*
X76998365Y-106040192D01*
X76986154Y-106052404D01*
X76094600Y-106052404D01*
X76095065Y-106032780D01*
X76095600Y-106003558D01*
X76473269Y-106003558D01*
X76485481Y-106015769D01*
X76497692Y-106003558D01*
X76485481Y-105991346D01*
X76473269Y-106003558D01*
X76095600Y-106003558D01*
X76096046Y-105979135D01*
X77059423Y-105979135D01*
X77071635Y-105991346D01*
X77083846Y-105979135D01*
X77303654Y-105979135D01*
X77315865Y-105991346D01*
X77328077Y-105979135D01*
X77315865Y-105966923D01*
X77303654Y-105979135D01*
X77083846Y-105979135D01*
X77071635Y-105966923D01*
X77059423Y-105979135D01*
X76096046Y-105979135D01*
X76096493Y-105954711D01*
X76522115Y-105954711D01*
X76534327Y-105966923D01*
X76546538Y-105954711D01*
X76534327Y-105942500D01*
X76522115Y-105954711D01*
X76096493Y-105954711D01*
X76096843Y-105935589D01*
X76402035Y-105935589D01*
X76412272Y-105941567D01*
X76429951Y-105942500D01*
X76470468Y-105922594D01*
X76481209Y-105905865D01*
X76570961Y-105905865D01*
X76583173Y-105918077D01*
X76584763Y-105916487D01*
X76674642Y-105916487D01*
X76677983Y-105918077D01*
X76700271Y-105900883D01*
X76705288Y-105893654D01*
X76708910Y-105880368D01*
X76750064Y-105880368D01*
X76760651Y-105904995D01*
X76770417Y-105903350D01*
X76784122Y-105881442D01*
X76815192Y-105881442D01*
X76827404Y-105893654D01*
X76836855Y-105884202D01*
X76871190Y-105884202D01*
X76888285Y-105905756D01*
X76888535Y-105905911D01*
X76909102Y-105912215D01*
X76904587Y-105899986D01*
X76909017Y-105870995D01*
X76925456Y-105860261D01*
X76966763Y-105867282D01*
X76991554Y-105893225D01*
X77018687Y-105925297D01*
X77032780Y-105928438D01*
X77024367Y-105906249D01*
X76988939Y-105865250D01*
X76973387Y-105850173D01*
X76948096Y-105827385D01*
X77014514Y-105827385D01*
X77020456Y-105841034D01*
X77045048Y-105867253D01*
X77059185Y-105861875D01*
X77059423Y-105858460D01*
X77042076Y-105837803D01*
X77031226Y-105830264D01*
X77014514Y-105827385D01*
X76948096Y-105827385D01*
X76933428Y-105814168D01*
X76932776Y-105813688D01*
X77110335Y-105813688D01*
X77123094Y-105855022D01*
X77151355Y-105881410D01*
X77196686Y-105892964D01*
X77238127Y-105887876D01*
X77243120Y-105881442D01*
X77303654Y-105881442D01*
X77315865Y-105893654D01*
X77328077Y-105881442D01*
X77315865Y-105869231D01*
X77303654Y-105881442D01*
X77243120Y-105881442D01*
X77254808Y-105866382D01*
X77235474Y-105849593D01*
X77205904Y-105851899D01*
X77153326Y-105845167D01*
X77133377Y-105824219D01*
X77113343Y-105798690D01*
X77110335Y-105813688D01*
X76932776Y-105813688D01*
X76917339Y-105802324D01*
X76919351Y-105805758D01*
X76916786Y-105835554D01*
X76896593Y-105856982D01*
X76871190Y-105884202D01*
X76836855Y-105884202D01*
X76839615Y-105881442D01*
X76827404Y-105869231D01*
X76815192Y-105881442D01*
X76784122Y-105881442D01*
X76790568Y-105871138D01*
X76790769Y-105867789D01*
X76774383Y-105845249D01*
X76770417Y-105844808D01*
X76752195Y-105864573D01*
X76750064Y-105880368D01*
X76708910Y-105880368D01*
X76711512Y-105870821D01*
X76708171Y-105869231D01*
X76685883Y-105886424D01*
X76680865Y-105893654D01*
X76674642Y-105916487D01*
X76584763Y-105916487D01*
X76595385Y-105905865D01*
X76583173Y-105893654D01*
X76570961Y-105905865D01*
X76481209Y-105905865D01*
X76483427Y-105902411D01*
X76489988Y-105876033D01*
X76470380Y-105884420D01*
X76455511Y-105895500D01*
X76416897Y-105924734D01*
X76402035Y-105935589D01*
X76096843Y-105935589D01*
X76098204Y-105861167D01*
X76100872Y-105671619D01*
X76102914Y-105471866D01*
X76103561Y-105385035D01*
X76105400Y-105151608D01*
X76108044Y-104961026D01*
X76112252Y-104807289D01*
X76117483Y-104708831D01*
X76342175Y-104708831D01*
X76342744Y-104782404D01*
X76345694Y-104939396D01*
X76349940Y-105052861D01*
X76355926Y-105128112D01*
X76364095Y-105170459D01*
X76374894Y-105185215D01*
X76376443Y-105185385D01*
X76384623Y-105206855D01*
X76384418Y-105260600D01*
X76382220Y-105283831D01*
X76381132Y-105354238D01*
X76392596Y-105406451D01*
X76397424Y-105414300D01*
X76411933Y-105450075D01*
X76407006Y-105463315D01*
X76390561Y-105495855D01*
X76382077Y-105540829D01*
X76383072Y-105579020D01*
X76395067Y-105591213D01*
X76396966Y-105590240D01*
X76409972Y-105602934D01*
X76414906Y-105657088D01*
X76413650Y-105705276D01*
X76411681Y-105781187D01*
X76418886Y-105820740D01*
X76439149Y-105836134D01*
X76456105Y-105838639D01*
X76506534Y-105856136D01*
X76525650Y-105874113D01*
X76541910Y-105889130D01*
X76546164Y-105863125D01*
X76543689Y-105857019D01*
X76570961Y-105857019D01*
X76583173Y-105869231D01*
X76595385Y-105857019D01*
X76583173Y-105844808D01*
X76619808Y-105844808D01*
X76628744Y-105864911D01*
X76636090Y-105861090D01*
X76639013Y-105832105D01*
X76636090Y-105828526D01*
X76621570Y-105831878D01*
X76619808Y-105844808D01*
X76583173Y-105844808D01*
X76570961Y-105857019D01*
X76543689Y-105857019D01*
X76531506Y-105826961D01*
X76514585Y-105820385D01*
X76495634Y-105798624D01*
X76490932Y-105759327D01*
X76522115Y-105759327D01*
X76534327Y-105771538D01*
X76546538Y-105759327D01*
X76542467Y-105755256D01*
X76579102Y-105755256D01*
X76582455Y-105769776D01*
X76595385Y-105771538D01*
X76615487Y-105762602D01*
X76614342Y-105760401D01*
X76652372Y-105760401D01*
X76663684Y-105792238D01*
X76672724Y-105795961D01*
X76692686Y-105777458D01*
X76693077Y-105772980D01*
X76692325Y-105771538D01*
X76986154Y-105771538D01*
X76995090Y-105791641D01*
X77002436Y-105787820D01*
X77005359Y-105758836D01*
X77002436Y-105755256D01*
X76987916Y-105758609D01*
X76986154Y-105771538D01*
X76692325Y-105771538D01*
X76675580Y-105739411D01*
X76672724Y-105737419D01*
X76654884Y-105744891D01*
X76652372Y-105760401D01*
X76614342Y-105760401D01*
X76611667Y-105755256D01*
X76582682Y-105752333D01*
X76579102Y-105755256D01*
X76542467Y-105755256D01*
X76534327Y-105747115D01*
X76522115Y-105759327D01*
X76490932Y-105759327D01*
X76488756Y-105741146D01*
X76490851Y-105710481D01*
X76546538Y-105710481D01*
X76558750Y-105722692D01*
X76570961Y-105710481D01*
X76558750Y-105698269D01*
X76546538Y-105710481D01*
X76490851Y-105710481D01*
X76494323Y-105659657D01*
X76501240Y-105621425D01*
X76524581Y-105621425D01*
X76533712Y-105652609D01*
X76537733Y-105656900D01*
X76568308Y-105661620D01*
X76593324Y-105638427D01*
X76595385Y-105627629D01*
X76575527Y-105610831D01*
X76558750Y-105608718D01*
X76524581Y-105621425D01*
X76501240Y-105621425D01*
X76507221Y-105588365D01*
X76512165Y-105563942D01*
X76522115Y-105563942D01*
X76534327Y-105576154D01*
X76546538Y-105563942D01*
X76534327Y-105551731D01*
X76522115Y-105563942D01*
X76512165Y-105563942D01*
X76517765Y-105536275D01*
X76520989Y-105515096D01*
X76532628Y-105512427D01*
X76548782Y-105533927D01*
X76579890Y-105561984D01*
X76600659Y-105560682D01*
X76615766Y-105559306D01*
X76609928Y-105572380D01*
X76608157Y-105597519D01*
X76617600Y-105600577D01*
X76631510Y-105618708D01*
X76627102Y-105641218D01*
X76623890Y-105668788D01*
X76637994Y-105665489D01*
X76669919Y-105668036D01*
X76678925Y-105679800D01*
X76685337Y-105682171D01*
X76681006Y-105645754D01*
X76680546Y-105643317D01*
X76678839Y-105594519D01*
X76692611Y-105576154D01*
X76710694Y-105597865D01*
X76720906Y-105652781D01*
X76720905Y-105725574D01*
X76718750Y-105747115D01*
X76725960Y-105758862D01*
X76745801Y-105737752D01*
X76815192Y-105737752D01*
X76835745Y-105745373D01*
X76864038Y-105747115D01*
X76903740Y-105737836D01*
X76905468Y-105735407D01*
X77140217Y-105735407D01*
X77152015Y-105751784D01*
X77166816Y-105794259D01*
X77162846Y-105817255D01*
X77157152Y-105843366D01*
X77178661Y-105832018D01*
X77185319Y-105826702D01*
X77222832Y-105808744D01*
X77238737Y-105812455D01*
X77253692Y-105810236D01*
X77254808Y-105801473D01*
X77233314Y-105763287D01*
X77180434Y-105735643D01*
X77160029Y-105731177D01*
X77140217Y-105735407D01*
X76905468Y-105735407D01*
X76912885Y-105724979D01*
X76893435Y-105712416D01*
X76864038Y-105715616D01*
X76824582Y-105729794D01*
X76815192Y-105737752D01*
X76745801Y-105737752D01*
X76752657Y-105730458D01*
X76754162Y-105728389D01*
X76771796Y-105710481D01*
X76986154Y-105710481D01*
X76998365Y-105722692D01*
X77010577Y-105710481D01*
X77254808Y-105710481D01*
X77267019Y-105722692D01*
X77279231Y-105710481D01*
X77267019Y-105698269D01*
X77254808Y-105710481D01*
X77010577Y-105710481D01*
X76998365Y-105698269D01*
X76986154Y-105710481D01*
X76771796Y-105710481D01*
X76789583Y-105692418D01*
X76815176Y-105686047D01*
X76845247Y-105682482D01*
X76850164Y-105676537D01*
X76882197Y-105662824D01*
X76919015Y-105664429D01*
X76955934Y-105670346D01*
X76949768Y-105665320D01*
X77023757Y-105665320D01*
X77044942Y-105687693D01*
X77069486Y-105690128D01*
X77095647Y-105680784D01*
X77094831Y-105671862D01*
X77102368Y-105648136D01*
X77114223Y-105641226D01*
X77123122Y-105630441D01*
X77102163Y-105626928D01*
X77097731Y-105625000D01*
X77291442Y-105625000D01*
X77293379Y-105647505D01*
X77302212Y-105649423D01*
X77327083Y-105631694D01*
X77328077Y-105625000D01*
X77319744Y-105601212D01*
X77317307Y-105600577D01*
X77296455Y-105617691D01*
X77291442Y-105625000D01*
X77097731Y-105625000D01*
X77064984Y-105610753D01*
X77058117Y-105595391D01*
X77123353Y-105595391D01*
X77133459Y-105600577D01*
X77154450Y-105580783D01*
X77157115Y-105563942D01*
X77151890Y-105531357D01*
X77147517Y-105527308D01*
X77131769Y-105546405D01*
X77123860Y-105563942D01*
X77123353Y-105595391D01*
X77058117Y-105595391D01*
X77057706Y-105594471D01*
X77049417Y-105588533D01*
X77036339Y-105612788D01*
X77023757Y-105665320D01*
X76949768Y-105665320D01*
X76946812Y-105662910D01*
X76925096Y-105652943D01*
X76867869Y-105645119D01*
X76845721Y-105655432D01*
X76819693Y-105665379D01*
X76815192Y-105649423D01*
X76807851Y-105631230D01*
X76778642Y-105649353D01*
X76778558Y-105649423D01*
X76750867Y-105664615D01*
X76740378Y-105640129D01*
X76739031Y-105621885D01*
X76738808Y-105612788D01*
X76912885Y-105612788D01*
X76925096Y-105625000D01*
X76937308Y-105612788D01*
X76933238Y-105608718D01*
X76969872Y-105608718D01*
X76973224Y-105623237D01*
X76986154Y-105625000D01*
X77006257Y-105616064D01*
X77002436Y-105608718D01*
X76973451Y-105605795D01*
X76969872Y-105608718D01*
X76933238Y-105608718D01*
X76925096Y-105600577D01*
X76912885Y-105612788D01*
X76738808Y-105612788D01*
X76738211Y-105588365D01*
X76766346Y-105588365D01*
X76778558Y-105600577D01*
X76790769Y-105588365D01*
X76778558Y-105576154D01*
X76766346Y-105588365D01*
X76738211Y-105588365D01*
X76737754Y-105569673D01*
X76738738Y-105546504D01*
X76722183Y-105538078D01*
X76698890Y-105542702D01*
X76672134Y-105548757D01*
X76688508Y-105533550D01*
X76690828Y-105531892D01*
X76730112Y-105522672D01*
X76778168Y-105531482D01*
X76816509Y-105551740D01*
X76826647Y-105576866D01*
X76825197Y-105579725D01*
X76832809Y-105597653D01*
X76850385Y-105600577D01*
X76883779Y-105586472D01*
X76888461Y-105573506D01*
X76909040Y-105557248D01*
X76955625Y-105561669D01*
X77000555Y-105570368D01*
X77002567Y-105562365D01*
X76975380Y-105539894D01*
X76943795Y-105513314D01*
X76945126Y-105504881D01*
X76984666Y-105513165D01*
X77028726Y-105525508D01*
X77096153Y-105535780D01*
X77123229Y-105522861D01*
X77146876Y-105522240D01*
X77185638Y-105556606D01*
X77192879Y-105565352D01*
X77236551Y-105608499D01*
X77263156Y-105606620D01*
X77264512Y-105604634D01*
X77264076Y-105579429D01*
X77251992Y-105576154D01*
X77245569Y-105561449D01*
X77258545Y-105542270D01*
X77287626Y-105542270D01*
X77291442Y-105551731D01*
X77313389Y-105575030D01*
X77317307Y-105576154D01*
X77327797Y-105557258D01*
X77328077Y-105551731D01*
X77309302Y-105528246D01*
X77302212Y-105527308D01*
X77287626Y-105542270D01*
X77258545Y-105542270D01*
X77270504Y-105524594D01*
X77276810Y-105517673D01*
X77310812Y-105469707D01*
X77305490Y-105442962D01*
X77281796Y-105445386D01*
X77279231Y-105456667D01*
X77269763Y-105474445D01*
X77263098Y-105470470D01*
X77265194Y-105442848D01*
X77265890Y-105441827D01*
X77352500Y-105441827D01*
X77364711Y-105454038D01*
X77376923Y-105441827D01*
X77364711Y-105429615D01*
X77352500Y-105441827D01*
X77265890Y-105441827D01*
X77289112Y-105407767D01*
X77313848Y-105366509D01*
X77306890Y-105346135D01*
X77291208Y-105316068D01*
X77285159Y-105265326D01*
X77288782Y-105215113D01*
X77302113Y-105186632D01*
X77306604Y-105185385D01*
X77316180Y-105167052D01*
X77310859Y-105144510D01*
X77307754Y-105115507D01*
X77336048Y-105119320D01*
X77363954Y-105121210D01*
X77375416Y-105090923D01*
X77376923Y-105051732D01*
X77383452Y-104991170D01*
X77399369Y-104954859D01*
X77401346Y-104953365D01*
X77416185Y-104921731D01*
X77424850Y-104859806D01*
X77425769Y-104829809D01*
X77438145Y-104733104D01*
X77473089Y-104674026D01*
X77501932Y-104633980D01*
X77491406Y-104616352D01*
X77499280Y-104610912D01*
X77551676Y-104605965D01*
X77644273Y-104601619D01*
X77772748Y-104597980D01*
X77932779Y-104595154D01*
X78120045Y-104593247D01*
X78330222Y-104592368D01*
X78463750Y-104592375D01*
X78672736Y-104594454D01*
X78840105Y-104600774D01*
X78972990Y-104612542D01*
X79078527Y-104630966D01*
X79163851Y-104657255D01*
X79236094Y-104692615D01*
X79295902Y-104733250D01*
X79349150Y-104771532D01*
X79384893Y-104792963D01*
X79390261Y-104794615D01*
X79416808Y-104812302D01*
X79461744Y-104857257D01*
X79514624Y-104917322D01*
X79565000Y-104980338D01*
X79602427Y-105034147D01*
X79613093Y-105053967D01*
X79635500Y-105093853D01*
X79649860Y-105102383D01*
X79656039Y-105117733D01*
X79659920Y-105168910D01*
X79660613Y-105211635D01*
X79656683Y-105280670D01*
X79646797Y-105324148D01*
X79639391Y-105331847D01*
X79627647Y-105352726D01*
X79628726Y-105402934D01*
X79628866Y-105403902D01*
X79630655Y-105450324D01*
X79620517Y-105464136D01*
X79619707Y-105463692D01*
X79609787Y-105470716D01*
X79614473Y-105489264D01*
X79638635Y-105514232D01*
X79653445Y-105511897D01*
X79667380Y-105516979D01*
X79661743Y-105547752D01*
X79664517Y-105603946D01*
X79695761Y-105641719D01*
X79738538Y-105687912D01*
X79739130Y-105715615D01*
X79709327Y-105722692D01*
X79677373Y-105742381D01*
X79672692Y-105761118D01*
X79656431Y-105788180D01*
X79621408Y-105788888D01*
X79588263Y-105765755D01*
X79579961Y-105749821D01*
X79581634Y-105728315D01*
X79600405Y-105735511D01*
X79621825Y-105740352D01*
X79616852Y-105715269D01*
X79614808Y-105674381D01*
X79616257Y-105672405D01*
X79648269Y-105672405D01*
X79665998Y-105697275D01*
X79672692Y-105698269D01*
X79696480Y-105689936D01*
X79697115Y-105687499D01*
X79680001Y-105666647D01*
X79672692Y-105661635D01*
X79650187Y-105663571D01*
X79648269Y-105672405D01*
X79616257Y-105672405D01*
X79624413Y-105661284D01*
X79631620Y-105631804D01*
X79617471Y-105599445D01*
X79585169Y-105560511D01*
X79564514Y-105554463D01*
X79565962Y-105581021D01*
X79575000Y-105600577D01*
X79587893Y-105640706D01*
X79576626Y-105649423D01*
X79562451Y-105667291D01*
X79566168Y-105686058D01*
X79563818Y-105717394D01*
X79550343Y-105722692D01*
X79530510Y-105702291D01*
X79532382Y-105660324D01*
X79544304Y-105597955D01*
X79480340Y-105654218D01*
X79430699Y-105701713D01*
X79397315Y-105740369D01*
X79396172Y-105742100D01*
X79365088Y-105772233D01*
X79307040Y-105815559D01*
X79261782Y-105845434D01*
X79200356Y-105886792D01*
X79179177Y-105909567D01*
X79195036Y-105917482D01*
X79199557Y-105917613D01*
X79255625Y-105902360D01*
X79280824Y-105882766D01*
X79283406Y-105881442D01*
X79477308Y-105881442D01*
X79489519Y-105893654D01*
X79501731Y-105881442D01*
X79489519Y-105869231D01*
X79477308Y-105881442D01*
X79283406Y-105881442D01*
X79325412Y-105859904D01*
X79363192Y-105867629D01*
X79420509Y-105872916D01*
X79442534Y-105859671D01*
X79459199Y-105823723D01*
X79453928Y-105791568D01*
X79431522Y-105782853D01*
X79424572Y-105786153D01*
X79416909Y-105780894D01*
X79427546Y-105759327D01*
X79477308Y-105759327D01*
X79489519Y-105771538D01*
X79501731Y-105759327D01*
X79489519Y-105747115D01*
X79477308Y-105759327D01*
X79427546Y-105759327D01*
X79431464Y-105751383D01*
X79464296Y-105717288D01*
X79504791Y-105724390D01*
X79508838Y-105726496D01*
X79543462Y-105766887D01*
X79542588Y-105799448D01*
X79538740Y-105831676D01*
X79558572Y-105823805D01*
X79562788Y-105820385D01*
X79584978Y-105808609D01*
X79584807Y-105834784D01*
X79581326Y-105849518D01*
X79559509Y-105902442D01*
X79540508Y-105926486D01*
X79535235Y-105937699D01*
X79558680Y-105932592D01*
X79567649Y-105930288D01*
X79721538Y-105930288D01*
X79733750Y-105942500D01*
X79745961Y-105930288D01*
X79733750Y-105918077D01*
X79721538Y-105930288D01*
X79567649Y-105930288D01*
X79606761Y-105920241D01*
X79624441Y-105918077D01*
X79637236Y-105898138D01*
X79635883Y-105871957D01*
X79711106Y-105871957D01*
X79714869Y-105884257D01*
X79736661Y-105885268D01*
X79775683Y-105895861D01*
X79785060Y-105911971D01*
X79795075Y-105958689D01*
X79806046Y-105968362D01*
X79812054Y-105936394D01*
X79812849Y-105930288D01*
X79916923Y-105930288D01*
X79929135Y-105942500D01*
X79941346Y-105930288D01*
X79929135Y-105918077D01*
X79916923Y-105930288D01*
X79812849Y-105930288D01*
X79818277Y-105888583D01*
X79897374Y-105888583D01*
X79904711Y-105892906D01*
X79944848Y-105880745D01*
X79965769Y-105869231D01*
X79985318Y-105849879D01*
X79977981Y-105845556D01*
X79937844Y-105857716D01*
X79916923Y-105869231D01*
X79897374Y-105888583D01*
X79818277Y-105888583D01*
X79818740Y-105885029D01*
X79822230Y-105869231D01*
X79814623Y-105841858D01*
X79782596Y-105840743D01*
X79736779Y-105854450D01*
X79711106Y-105871957D01*
X79635883Y-105871957D01*
X79635626Y-105866990D01*
X79636842Y-105829956D01*
X79660669Y-105829289D01*
X79699182Y-105829067D01*
X79709327Y-105820385D01*
X79740512Y-105808020D01*
X79758955Y-105811853D01*
X79789884Y-105811198D01*
X79794808Y-105800353D01*
X79795925Y-105799547D01*
X79966866Y-105799547D01*
X79980014Y-105812641D01*
X79996812Y-105822628D01*
X80026885Y-105850625D01*
X80028415Y-105866661D01*
X80036599Y-105883351D01*
X80051250Y-105885513D01*
X80073619Y-105872654D01*
X80070592Y-105861010D01*
X80074437Y-105847322D01*
X80099544Y-105853428D01*
X80129152Y-105861308D01*
X80120091Y-105842213D01*
X80111812Y-105831999D01*
X80082417Y-105807741D01*
X80060037Y-105825096D01*
X80059885Y-105825334D01*
X80042982Y-105843725D01*
X80039412Y-105826490D01*
X80019035Y-105800994D01*
X79996298Y-105796704D01*
X79966866Y-105799547D01*
X79795925Y-105799547D01*
X79815670Y-105785306D01*
X79865984Y-105784107D01*
X79867295Y-105784269D01*
X79934506Y-105778324D01*
X79986168Y-105734473D01*
X80022703Y-105697908D01*
X80047401Y-105690422D01*
X80048008Y-105690956D01*
X80063224Y-105720750D01*
X80054404Y-105738742D01*
X80039038Y-105734904D01*
X80016268Y-105730372D01*
X80014615Y-105734733D01*
X80035068Y-105752086D01*
X80084775Y-105774085D01*
X80089480Y-105775754D01*
X80138826Y-105798167D01*
X80156250Y-105830176D01*
X80152501Y-105889740D01*
X80145881Y-105946211D01*
X80150829Y-105959697D01*
X80172306Y-105935614D01*
X80182369Y-105922329D01*
X80216934Y-105887548D01*
X80239781Y-105882730D01*
X80247168Y-105916619D01*
X80243108Y-105938782D01*
X80237825Y-105963032D01*
X80248060Y-105950641D01*
X80437949Y-105950641D01*
X80441301Y-105965160D01*
X80454231Y-105966923D01*
X80474334Y-105957987D01*
X80470513Y-105950641D01*
X80441528Y-105947718D01*
X80437949Y-105950641D01*
X80248060Y-105950641D01*
X80252026Y-105945839D01*
X80258503Y-105935880D01*
X80263018Y-105926218D01*
X80340256Y-105926218D01*
X80343609Y-105940737D01*
X80356538Y-105942500D01*
X80376641Y-105933564D01*
X80372820Y-105926218D01*
X80343836Y-105923295D01*
X80340256Y-105926218D01*
X80263018Y-105926218D01*
X80286881Y-105875154D01*
X80295580Y-105844293D01*
X80293639Y-105825640D01*
X80336527Y-105825640D01*
X80346886Y-105854881D01*
X80369853Y-105881193D01*
X80383521Y-105879861D01*
X80403484Y-105885285D01*
X80405385Y-105896283D01*
X80412194Y-105916969D01*
X80416627Y-105914975D01*
X80417950Y-105903563D01*
X80461476Y-105903563D01*
X80478654Y-105918077D01*
X80517624Y-105940043D01*
X80522816Y-105931770D01*
X80515288Y-105918077D01*
X80551923Y-105918077D01*
X80560859Y-105938180D01*
X80568205Y-105934359D01*
X80571128Y-105905374D01*
X80568205Y-105901795D01*
X80553686Y-105905147D01*
X80551923Y-105918077D01*
X80515288Y-105918077D01*
X80479620Y-105894856D01*
X80471107Y-105894028D01*
X80461476Y-105903563D01*
X80417950Y-105903563D01*
X80420055Y-105885416D01*
X80413779Y-105849847D01*
X80389789Y-105807536D01*
X80365901Y-105795961D01*
X80337158Y-105800791D01*
X80336527Y-105825640D01*
X80293639Y-105825640D01*
X80291739Y-105807383D01*
X80252873Y-105796072D01*
X80245232Y-105795961D01*
X80199317Y-105780835D01*
X80184321Y-105747068D01*
X80207495Y-105712082D01*
X80209720Y-105710654D01*
X80223599Y-105714585D01*
X80219319Y-105733635D01*
X80222251Y-105765463D01*
X80246635Y-105771538D01*
X80276358Y-105758352D01*
X80273117Y-105731463D01*
X80266651Y-105671708D01*
X80287076Y-105622028D01*
X80326648Y-105600953D01*
X80327655Y-105600951D01*
X80353833Y-105605661D01*
X80335092Y-105622643D01*
X80315038Y-105656048D01*
X80319828Y-105673723D01*
X80341071Y-105689697D01*
X80359217Y-105670348D01*
X80376683Y-105650923D01*
X80380587Y-105668507D01*
X80361308Y-105703720D01*
X80344327Y-105713860D01*
X80311970Y-105739483D01*
X80307692Y-105752719D01*
X80321856Y-105761578D01*
X80342624Y-105748529D01*
X80373637Y-105735194D01*
X80400106Y-105762193D01*
X80406306Y-105773261D01*
X80431157Y-105808101D01*
X80451273Y-105800655D01*
X80456482Y-105793155D01*
X80472465Y-105780014D01*
X80478459Y-105811608D01*
X80478654Y-105820385D01*
X80482664Y-105859618D01*
X80496151Y-105854751D01*
X80503077Y-105844808D01*
X80522825Y-105824936D01*
X80527126Y-105838702D01*
X80545422Y-105867052D01*
X80555993Y-105869231D01*
X80572415Y-105859427D01*
X80568417Y-105853160D01*
X80566758Y-105823379D01*
X80575161Y-105809601D01*
X80582841Y-105766509D01*
X80572645Y-105746296D01*
X80555364Y-105725890D01*
X80559587Y-105748325D01*
X80561551Y-105754490D01*
X80563757Y-105784424D01*
X80551643Y-105783577D01*
X80532647Y-105753033D01*
X80528383Y-105709822D01*
X80539375Y-105678020D01*
X80549251Y-105673846D01*
X80567052Y-105653405D01*
X80578632Y-105605718D01*
X80582087Y-105551244D01*
X80575515Y-105510439D01*
X80565336Y-105500956D01*
X80558855Y-105492778D01*
X80570240Y-105486710D01*
X80592218Y-105455925D01*
X80600769Y-105403157D01*
X80591592Y-105351271D01*
X80570240Y-105331549D01*
X80554872Y-105322696D01*
X80564135Y-105313232D01*
X80575257Y-105305187D01*
X80583374Y-105294827D01*
X80590137Y-105273773D01*
X80597202Y-105233642D01*
X80606221Y-105166055D01*
X80618850Y-105062630D01*
X80627151Y-104993886D01*
X80641726Y-104822497D01*
X80637670Y-104682044D01*
X80612965Y-104557524D01*
X80565589Y-104433939D01*
X80546386Y-104394271D01*
X80458550Y-104261022D01*
X80339511Y-104137231D01*
X80205483Y-104038486D01*
X80141368Y-104004912D01*
X80000233Y-103941575D01*
X78511511Y-103938287D01*
X78201717Y-103937700D01*
X77936878Y-103937474D01*
X77713100Y-103937703D01*
X77526491Y-103938481D01*
X77373161Y-103939901D01*
X77249217Y-103942058D01*
X77150768Y-103945044D01*
X77073921Y-103948953D01*
X77014785Y-103953880D01*
X76969467Y-103959918D01*
X76934077Y-103967160D01*
X76904721Y-103975701D01*
X76900673Y-103977074D01*
X76732798Y-104052901D01*
X76593670Y-104157706D01*
X76475390Y-104298571D01*
X76397661Y-104428269D01*
X76370191Y-104486174D01*
X76353228Y-104542941D01*
X76344610Y-104612514D01*
X76342175Y-104708831D01*
X76117483Y-104708831D01*
X76118781Y-104684396D01*
X76128389Y-104586346D01*
X76141833Y-104507138D01*
X76159871Y-104440772D01*
X76183262Y-104381247D01*
X76212762Y-104322561D01*
X76244869Y-104266006D01*
X76326689Y-104154582D01*
X76437926Y-104041689D01*
X76562091Y-103942544D01*
X76659305Y-103883528D01*
X76736748Y-103845681D01*
X76808024Y-103815372D01*
X76879752Y-103791771D01*
X76958548Y-103774046D01*
X77051030Y-103761366D01*
X77163814Y-103752899D01*
X77303520Y-103747813D01*
X77476762Y-103745276D01*
X77690160Y-103744458D01*
X77766199Y-103744423D01*
X78488532Y-103744423D01*
X80552103Y-101680084D01*
X80893675Y-101338689D01*
X81202033Y-101031145D01*
X81478192Y-100756461D01*
X81723172Y-100513646D01*
X81937988Y-100301707D01*
X82123658Y-100119652D01*
X82281200Y-99966490D01*
X82411630Y-99841228D01*
X82515966Y-99742875D01*
X82595225Y-99670438D01*
X82650424Y-99622927D01*
X82682581Y-99599348D01*
X82688941Y-99596465D01*
X82763393Y-99586016D01*
X82823047Y-99588814D01*
G37*
%TO.C,JP2*%
G36*
X141055000Y-47174000D02*
G01*
X139555000Y-47174000D01*
X139555000Y-46874000D01*
X141055000Y-46874000D01*
X141055000Y-47174000D01*
G37*
%TO.C,JP1*%
G36*
X143747399Y-47159000D02*
G01*
X142247399Y-47159000D01*
X142247399Y-46859000D01*
X143747399Y-46859000D01*
X143747399Y-47159000D01*
G37*
%TD*%
D11*
%TO.C,R138*%
X131390000Y-86900000D03*
X132410000Y-86900000D03*
%TD*%
%TO.C,R137*%
X131390000Y-85900000D03*
X132410000Y-85900000D03*
%TD*%
D12*
%TO.C,J5*%
X71215000Y-135375000D03*
X71215000Y-132835000D03*
X73755000Y-135375000D03*
X73755000Y-132835000D03*
X76295000Y-135375000D03*
X76294999Y-132835000D03*
X78835000Y-135375000D03*
X78835000Y-132835000D03*
X81375000Y-135375000D03*
X81375000Y-132835000D03*
X83915000Y-135375000D03*
X83915000Y-132835000D03*
X86455000Y-135375000D03*
X86455000Y-132835000D03*
X88995000Y-135375000D03*
X88995001Y-132835000D03*
X91535000Y-135375000D03*
X91535000Y-132835000D03*
X94075000Y-135375000D03*
D13*
X94075000Y-132835000D03*
%TD*%
D14*
%TO.C,CN1*%
X115224800Y-133467600D03*
X115224800Y-135467600D03*
X117224800Y-133467600D03*
X117224800Y-135467600D03*
X119224800Y-133467600D03*
X119224800Y-135467600D03*
X121224800Y-133467600D03*
X121224800Y-135467600D03*
X123224800Y-133467600D03*
X123224800Y-135467600D03*
X125224800Y-133467600D03*
X125224800Y-135467600D03*
X127224800Y-133467600D03*
X127224800Y-135467600D03*
X129224800Y-133467600D03*
D15*
X129224800Y-135467600D03*
%TD*%
D16*
%TO.C,R111*%
X81132600Y-129113801D03*
X81132600Y-130133799D03*
%TD*%
D17*
%TO.C,R113*%
X78592600Y-130131799D03*
X78592600Y-129111801D03*
%TD*%
D18*
%TO.C,J1*%
X117838600Y-91437800D03*
X111666600Y-91437800D03*
X117838600Y-90937800D03*
X111666600Y-90937800D03*
X117838600Y-90437800D03*
X111666600Y-90437800D03*
X117838600Y-89937800D03*
X111666600Y-89937800D03*
X117838600Y-89437800D03*
X111666600Y-89437800D03*
X117838600Y-88937800D03*
X111666600Y-88937800D03*
X117838600Y-88437800D03*
X111666600Y-88437800D03*
X117838600Y-87937800D03*
X111666600Y-87937800D03*
X117838600Y-87437800D03*
X111666600Y-87437800D03*
X117838600Y-86937800D03*
X111666600Y-86937800D03*
X117838600Y-86437800D03*
X111666600Y-86437800D03*
X117838600Y-85937800D03*
X111666600Y-85937800D03*
X117838600Y-85437800D03*
X111666600Y-85437800D03*
X117838600Y-84937800D03*
X111666600Y-84937800D03*
X117838600Y-84437800D03*
X111666600Y-84437800D03*
X117838600Y-83937800D03*
X111666600Y-83937800D03*
X117838600Y-83437800D03*
X111666600Y-83437800D03*
X117838600Y-82937800D03*
X111666600Y-82937800D03*
X117838600Y-82437800D03*
X111666600Y-82437800D03*
X117838600Y-81937800D03*
X111666600Y-81937800D03*
X117838600Y-81437800D03*
X111666600Y-81437800D03*
X117838600Y-80937800D03*
X111666600Y-80937800D03*
X117838600Y-80437800D03*
X111666600Y-80437800D03*
X117838600Y-79937800D03*
X111666600Y-79937800D03*
X117838600Y-79437800D03*
X111666600Y-79437800D03*
X117838600Y-78937800D03*
X111666600Y-78937800D03*
X117838600Y-78437800D03*
X111666600Y-78437800D03*
X117838600Y-77937800D03*
X111666600Y-77937800D03*
X117838600Y-77437800D03*
X111666600Y-77437800D03*
X117838600Y-76937800D03*
X111666600Y-76937800D03*
X117838600Y-76437800D03*
X111666600Y-76437800D03*
X117838600Y-75937800D03*
X111666600Y-75937800D03*
X117838600Y-75437800D03*
X111666600Y-75437800D03*
X117838600Y-74937800D03*
X111666600Y-74937800D03*
X117838600Y-74437800D03*
X111666600Y-74437800D03*
X117838600Y-73937800D03*
X111666600Y-73937800D03*
X117838600Y-73437800D03*
X111666600Y-73437800D03*
X117838600Y-72937800D03*
X111666600Y-72937800D03*
X117838600Y-72437800D03*
X111666600Y-72437800D03*
X117838600Y-71937800D03*
X111666600Y-71937800D03*
X117838600Y-71437800D03*
X111666600Y-71437800D03*
X117838600Y-70937800D03*
X111666600Y-70937800D03*
X117838600Y-70437800D03*
X111666600Y-70437800D03*
X117838600Y-69937800D03*
X111666600Y-69937800D03*
X117838600Y-69437800D03*
X111666600Y-69437800D03*
X117838600Y-68937800D03*
X111666600Y-68937800D03*
X117838600Y-68437800D03*
X111666600Y-68437800D03*
X117838600Y-67937800D03*
X111666600Y-67937800D03*
X117838600Y-67437800D03*
X111666600Y-67437800D03*
X117838600Y-66937800D03*
X111666600Y-66937800D03*
X117838600Y-66437800D03*
X111666600Y-66437800D03*
X117838600Y-65937800D03*
X111666600Y-65937800D03*
X117838600Y-65437800D03*
X111666600Y-65437800D03*
X117838600Y-64937800D03*
X111666600Y-64937800D03*
X117838600Y-64437800D03*
X111666600Y-64437800D03*
X117838600Y-63937800D03*
X111666600Y-63937800D03*
X117838600Y-63437800D03*
X111666600Y-63437800D03*
X117838600Y-62937800D03*
X111666600Y-62937800D03*
X117838600Y-62437800D03*
X111666600Y-62437800D03*
X117838600Y-61937800D03*
X111666600Y-61937800D03*
X117838600Y-61437800D03*
X111666600Y-61437800D03*
X117838600Y-60937800D03*
X111666600Y-60937800D03*
X117838600Y-60437800D03*
X111666600Y-60437800D03*
X117838600Y-59937800D03*
X111666600Y-59937800D03*
X117838600Y-59437800D03*
X111666600Y-59437800D03*
X117838600Y-58937800D03*
X111666600Y-58937800D03*
X117838600Y-58437800D03*
X111666600Y-58437800D03*
X117838600Y-57937800D03*
X111666600Y-57937800D03*
X117838600Y-57437800D03*
X111666600Y-57437800D03*
X117838600Y-56937800D03*
X111666600Y-56937800D03*
%TD*%
%TO.C,J4*%
X87422000Y-86950000D03*
X81250000Y-86950000D03*
X87422000Y-86450000D03*
X81250000Y-86450000D03*
X87422000Y-85950000D03*
X81250000Y-85950000D03*
X87422000Y-85450000D03*
X81250000Y-85450000D03*
X87422000Y-84950000D03*
X81250000Y-84950000D03*
X87422000Y-84450000D03*
X81250000Y-84450000D03*
X87422000Y-83950000D03*
X81250000Y-83950000D03*
X87422000Y-83450000D03*
X81250000Y-83450000D03*
X87422000Y-82950000D03*
X81250000Y-82950000D03*
X87422000Y-82450000D03*
X81250000Y-82450000D03*
X87422000Y-81950000D03*
X81250000Y-81950000D03*
X87422000Y-81450000D03*
X81250000Y-81450000D03*
X87422000Y-80950000D03*
X81250000Y-80950000D03*
X87422000Y-80450000D03*
X81250000Y-80450000D03*
X87422000Y-79950000D03*
X81250000Y-79950000D03*
X87422000Y-79450000D03*
X81250000Y-79450000D03*
X87422000Y-78950000D03*
X81250000Y-78950000D03*
X87422000Y-78450000D03*
X81250000Y-78450000D03*
X87422000Y-77950000D03*
X81250000Y-77950000D03*
X87422000Y-77450000D03*
X81250000Y-77450000D03*
X87422000Y-76950000D03*
X81250000Y-76950000D03*
X87422000Y-76450000D03*
X81250000Y-76450000D03*
X87422000Y-75950000D03*
X81250000Y-75950000D03*
X87422000Y-75450000D03*
X81250000Y-75450000D03*
X87422000Y-74950000D03*
X81250000Y-74950000D03*
X87422000Y-74450000D03*
X81250000Y-74450000D03*
X87422000Y-73950000D03*
X81250000Y-73950000D03*
X87422000Y-73450000D03*
X81250000Y-73450000D03*
X87422000Y-72950000D03*
X81250000Y-72950000D03*
X87422000Y-72450000D03*
X81250000Y-72450000D03*
X87422000Y-71950000D03*
X81250000Y-71950000D03*
X87422000Y-71450000D03*
X81250000Y-71450000D03*
X87422000Y-70950000D03*
X81250000Y-70950000D03*
X87422000Y-70450000D03*
X81250000Y-70450000D03*
X87422000Y-69950000D03*
X81250000Y-69950000D03*
X87422000Y-69450000D03*
X81250000Y-69450000D03*
X87422000Y-68950000D03*
X81250000Y-68950000D03*
X87422000Y-68450000D03*
X81250000Y-68450000D03*
X87422000Y-67950000D03*
X81250000Y-67950000D03*
X87422000Y-67450000D03*
X81250000Y-67450000D03*
X87422000Y-66950000D03*
X81250000Y-66950000D03*
X87422000Y-66450000D03*
X81250000Y-66450000D03*
X87422000Y-65950000D03*
X81250000Y-65950000D03*
X87422000Y-65450000D03*
X81250000Y-65450000D03*
X87422000Y-64950000D03*
X81250000Y-64950000D03*
X87422000Y-64450000D03*
X81250000Y-64450000D03*
X87422000Y-63950000D03*
X81250000Y-63950000D03*
X87422000Y-63450000D03*
X81250000Y-63450000D03*
X87422000Y-62950000D03*
X81250000Y-62950000D03*
X87422000Y-62450000D03*
X81250000Y-62450000D03*
X87422000Y-61950000D03*
X81250000Y-61950000D03*
X87422000Y-61450000D03*
X81250000Y-61450000D03*
X87422000Y-60950000D03*
X81250000Y-60950000D03*
X87422000Y-60450000D03*
X81250000Y-60450000D03*
X87422000Y-59950000D03*
X81250000Y-59950000D03*
X87422000Y-59450000D03*
X81250000Y-59450000D03*
X87422000Y-58950000D03*
X81250000Y-58950000D03*
X87422000Y-58450000D03*
X81250000Y-58450000D03*
X87422000Y-57950000D03*
X81250000Y-57950000D03*
X87422000Y-57450000D03*
X81250000Y-57450000D03*
X87422000Y-56950000D03*
X81250000Y-56950000D03*
X87422000Y-56450000D03*
X81250000Y-56450000D03*
X87422000Y-55950000D03*
X81250000Y-55950000D03*
X87422000Y-55450000D03*
X81250000Y-55450000D03*
X87422000Y-54950000D03*
X81250000Y-54950000D03*
X87422000Y-54450000D03*
X81250000Y-54450000D03*
X87422000Y-53950000D03*
X81250000Y-53950000D03*
X87422000Y-53450000D03*
X81250000Y-53450000D03*
X87422000Y-52950000D03*
X81250000Y-52950000D03*
X87422000Y-52450000D03*
X81250000Y-52450000D03*
%TD*%
D19*
%TO.C,RJ1*%
X148769999Y-97200000D03*
X148769999Y-80940000D03*
D20*
X143059999Y-82210000D03*
X143060000Y-84500000D03*
X143060000Y-93640000D03*
X143059999Y-95930000D03*
X147879999Y-85510000D03*
X149659999Y-86530000D03*
X147879999Y-87550000D03*
X149659999Y-88570000D03*
X147879999Y-89590000D03*
X149659999Y-90610000D03*
X147879999Y-91630000D03*
X149659999Y-92650000D03*
D21*
X152200000Y-95420000D03*
X152200000Y-82720000D03*
%TD*%
D19*
%TO.C,RJ2*%
X148799999Y-78200000D03*
X148799999Y-61940000D03*
D20*
X143089999Y-63210000D03*
X143090000Y-65500000D03*
X143090000Y-74640000D03*
X143089999Y-76930000D03*
X147909999Y-66510000D03*
X149689999Y-67530000D03*
X147909999Y-68550000D03*
X149689999Y-69570000D03*
X147909999Y-70590000D03*
X149689999Y-71610000D03*
X147909999Y-72630000D03*
X149689999Y-73650000D03*
D21*
X152230000Y-76420000D03*
X152230000Y-63720000D03*
%TD*%
D16*
%TO.C,R87*%
X100010000Y-54879999D03*
X100010000Y-53860001D03*
%TD*%
D11*
%TO.C,R62*%
X116230400Y-113334800D03*
X117250400Y-113334800D03*
%TD*%
D22*
%TO.C,R66*%
X128758200Y-127011000D03*
X127738200Y-127011000D03*
%TD*%
D23*
%TO.C,C50*%
X135475000Y-126532600D03*
X137025000Y-126532600D03*
%TD*%
D24*
%TO.C,C39*%
X114886400Y-116464400D03*
X113336400Y-116464400D03*
%TD*%
D25*
%TO.C,Y1*%
X135179999Y-62500000D03*
X137379999Y-62500000D03*
X137379999Y-60900000D03*
X135179999Y-60900000D03*
%TD*%
D17*
%TO.C,R119*%
X119297600Y-62345901D03*
X119297600Y-63365899D03*
%TD*%
D22*
%TO.C,R51*%
X138944000Y-109067600D03*
X137924000Y-109067600D03*
%TD*%
D26*
%TO.C,C18*%
X125429998Y-64560000D03*
X125429998Y-63010000D03*
%TD*%
D22*
%TO.C,R71*%
X134545800Y-118872000D03*
X133525800Y-118872000D03*
%TD*%
D16*
%TO.C,R86*%
X96690000Y-56759999D03*
X96690000Y-55740001D03*
%TD*%
D24*
%TO.C,C41*%
X114886400Y-113324200D03*
X113336400Y-113324200D03*
%TD*%
D23*
%TO.C,C43*%
X108500000Y-116100000D03*
X110050000Y-116100000D03*
%TD*%
D22*
%TO.C,R36*%
X134550000Y-117530000D03*
X133530000Y-117530000D03*
%TD*%
D27*
%TO.C,USB1*%
X136740000Y-132260000D03*
X137390000Y-132260000D03*
X138040000Y-132260000D03*
X138690000Y-132260000D03*
X139340000Y-132260000D03*
D28*
X135010000Y-134920000D03*
D29*
X135580000Y-132620000D03*
D30*
X137200000Y-134920000D03*
X138880000Y-134920000D03*
D29*
X140500000Y-132620000D03*
D28*
X141030000Y-134920000D03*
%TD*%
D15*
%TO.C,CN3*%
X102300000Y-106075000D03*
D14*
X100300000Y-106075000D03*
X102300000Y-108075000D03*
X100300000Y-108075000D03*
X102300000Y-110075000D03*
X100300000Y-110075000D03*
X102300000Y-112075000D03*
X100300000Y-112075000D03*
X102300000Y-114075000D03*
X100300000Y-114075000D03*
X102300000Y-116075000D03*
X100300000Y-116075000D03*
X102300000Y-118075000D03*
X100300000Y-118075000D03*
X102300000Y-120075000D03*
X100300000Y-120075000D03*
%TD*%
D23*
%TO.C,C52*%
X140081000Y-127025400D03*
X141631000Y-127025400D03*
%TD*%
D26*
%TO.C,C56*%
X131678202Y-82231599D03*
X131678202Y-80681599D03*
%TD*%
D11*
%TO.C,R58*%
X116293800Y-108904600D03*
X117313800Y-108904600D03*
%TD*%
D24*
%TO.C,C68*%
X90940956Y-89228255D03*
X89390956Y-89228255D03*
%TD*%
%TO.C,C65*%
X90952820Y-87676830D03*
X89402820Y-87676830D03*
%TD*%
D23*
%TO.C,C70*%
X89339600Y-80478900D03*
X90889600Y-80478900D03*
%TD*%
D22*
%TO.C,R132*%
X120257600Y-57455900D03*
X119237600Y-57455900D03*
%TD*%
D13*
%TO.C,J6*%
X63650000Y-68375000D03*
D12*
X66190000Y-68375000D03*
X63650000Y-70915000D03*
X66190000Y-70915000D03*
X63650000Y-73455000D03*
X66190000Y-73455000D03*
X63650000Y-75995000D03*
X66190000Y-75995000D03*
X63650000Y-78535000D03*
X66190000Y-78535000D03*
%TD*%
D24*
%TO.C,C38*%
X120345400Y-101843400D03*
X118795400Y-101843400D03*
%TD*%
D23*
%TO.C,C44*%
X108511800Y-117633400D03*
X110061800Y-117633400D03*
%TD*%
D11*
%TO.C,R101*%
X105047600Y-65021900D03*
X106067600Y-65021900D03*
%TD*%
D17*
%TO.C,R44*%
X127304800Y-103297800D03*
X127304800Y-104317800D03*
%TD*%
D22*
%TO.C,R49*%
X138944000Y-111150400D03*
X137924000Y-111150400D03*
%TD*%
D11*
%TO.C,R47*%
X122210000Y-106491600D03*
X123230000Y-106491600D03*
%TD*%
D17*
%TO.C,R29*%
X144530399Y-95366401D03*
X144530399Y-96386399D03*
%TD*%
D22*
%TO.C,R74*%
X117248400Y-115417600D03*
X116228400Y-115417600D03*
%TD*%
D17*
%TO.C,R45*%
X126263400Y-103299800D03*
X126263400Y-104319800D03*
%TD*%
D31*
%TO.C,TV4*%
X152819998Y-69309999D03*
X153769998Y-69309999D03*
X154719998Y-69309999D03*
X154719998Y-66609999D03*
X153769998Y-66609999D03*
X152819998Y-66609999D03*
%TD*%
D11*
%TO.C,R105*%
X105047600Y-61973900D03*
X106067600Y-61973900D03*
%TD*%
D17*
%TO.C,R80*%
X95590000Y-53890001D03*
X95590000Y-54909999D03*
%TD*%
D32*
%TO.C,U8*%
X131775000Y-100300000D03*
X131125000Y-100300000D03*
X130475000Y-100300000D03*
X130475000Y-102200000D03*
X131125000Y-102200000D03*
X131775000Y-102200000D03*
%TD*%
D24*
%TO.C,C37*%
X120345400Y-103418200D03*
X118795400Y-103418200D03*
%TD*%
D33*
%TO.C,C1*%
X132721798Y-61508400D03*
X132721798Y-63058400D03*
%TD*%
D11*
%TO.C,R104*%
X142512800Y-49330800D03*
X143532798Y-49330800D03*
%TD*%
D26*
%TO.C,C62*%
X98090000Y-52050000D03*
X98090000Y-50500000D03*
%TD*%
D16*
%TO.C,R91*%
X99370000Y-56759998D03*
X99370000Y-55740000D03*
%TD*%
D33*
%TO.C,C34*%
X117174800Y-128447800D03*
X117174800Y-129997800D03*
%TD*%
D11*
%TO.C,R100*%
X105047600Y-64005900D03*
X106067600Y-64005900D03*
%TD*%
D17*
%TO.C,R7*%
X133819999Y-64260001D03*
X133819999Y-65279999D03*
%TD*%
D13*
%TO.C,J9*%
X63650000Y-91485000D03*
D12*
X66190000Y-91485000D03*
X63650000Y-94025000D03*
X66190000Y-94025000D03*
X63650000Y-96564999D03*
X66190000Y-96565000D03*
X63650000Y-99105000D03*
X66190000Y-99105000D03*
X63650000Y-101645000D03*
X66190000Y-101645000D03*
X63650000Y-104185000D03*
X66190000Y-104185000D03*
X63650000Y-106725000D03*
X66190000Y-106725000D03*
X63650000Y-109265001D03*
X66190000Y-109265000D03*
X63650000Y-111805000D03*
X66190000Y-111805000D03*
X63650000Y-114345000D03*
X66190000Y-114345000D03*
X63650000Y-116885000D03*
X66190000Y-116885000D03*
%TD*%
D11*
%TO.C,R63*%
X116228400Y-114376200D03*
X117248400Y-114376200D03*
%TD*%
D17*
%TO.C,R46*%
X125247400Y-103299800D03*
X125247400Y-104319800D03*
%TD*%
D26*
%TO.C,C64*%
X100580000Y-57965000D03*
X100580000Y-56415000D03*
%TD*%
D17*
%TO.C,R67*%
X131100000Y-120240000D03*
X131100000Y-121260000D03*
%TD*%
D22*
%TO.C,R2*%
X128729998Y-71440000D03*
X127710000Y-71440000D03*
%TD*%
%TO.C,R20*%
X126859998Y-72900000D03*
X125840000Y-72900000D03*
%TD*%
D26*
%TO.C,C9*%
X122503402Y-64555000D03*
X122503402Y-63005000D03*
%TD*%
%TO.C,C10*%
X123963400Y-64565000D03*
X123963400Y-63015000D03*
%TD*%
D33*
%TO.C,C54*%
X124329999Y-76585000D03*
X124329999Y-78135000D03*
%TD*%
D16*
%TO.C,R125*%
X79797600Y-71765899D03*
X79797600Y-70745901D03*
%TD*%
D17*
%TO.C,R8*%
X134299999Y-74240000D03*
X134299999Y-75259998D03*
%TD*%
D16*
%TO.C,R123*%
X79797600Y-66765899D03*
X79797600Y-65745901D03*
%TD*%
D13*
%TO.C,J2*%
X74590000Y-39950000D03*
D12*
X77130000Y-39950000D03*
X79669999Y-39950000D03*
X82210000Y-39950000D03*
X84750000Y-39950000D03*
%TD*%
D22*
%TO.C,R48*%
X138942000Y-112191800D03*
X137922000Y-112191800D03*
%TD*%
D17*
%TO.C,R79*%
X132975000Y-101155000D03*
X132975000Y-102175000D03*
%TD*%
D24*
%TO.C,C36*%
X120345400Y-104967600D03*
X118795400Y-104967600D03*
%TD*%
D22*
%TO.C,R37*%
X138942000Y-116357400D03*
X137922000Y-116357400D03*
%TD*%
D34*
%TO.C,U9*%
X125459999Y-75180000D03*
D35*
X125459999Y-74540000D03*
D36*
X124599999Y-74540000D03*
D37*
X124599999Y-75180000D03*
D38*
X125029999Y-74860000D03*
%TD*%
D39*
%TO.C,TP12*%
X77801600Y-85019800D03*
%TD*%
D11*
%TO.C,R70*%
X133525800Y-119938800D03*
X134545800Y-119938800D03*
%TD*%
%TO.C,R60*%
X116291800Y-111277400D03*
X117311800Y-111277400D03*
%TD*%
D24*
%TO.C,C53*%
X114885200Y-111724000D03*
X113335200Y-111724000D03*
%TD*%
D23*
%TO.C,C49*%
X135462600Y-124907000D03*
X137012600Y-124907000D03*
%TD*%
D16*
%TO.C,R122*%
X79797600Y-64265899D03*
X79797600Y-63245901D03*
%TD*%
D40*
%TO.C,L4*%
X132095000Y-123400000D03*
X130155000Y-123400000D03*
%TD*%
D11*
%TO.C,R110*%
X138915002Y-38825000D03*
X139935000Y-38825000D03*
%TD*%
D24*
%TO.C,C58*%
X125143202Y-82106599D03*
X123593202Y-82106599D03*
%TD*%
D16*
%TO.C,R136*%
X98370000Y-56759998D03*
X98370000Y-55740000D03*
%TD*%
D22*
%TO.C,R133*%
X120257600Y-58455900D03*
X119237600Y-58455900D03*
%TD*%
D17*
%TO.C,R75*%
X117300000Y-116480000D03*
X117300000Y-117500000D03*
%TD*%
%TO.C,R95*%
X75120000Y-87010000D03*
X75120000Y-88030000D03*
%TD*%
D16*
%TO.C,R124*%
X79797600Y-69165899D03*
X79797600Y-68145901D03*
%TD*%
D22*
%TO.C,R3*%
X128719998Y-72380000D03*
X127700000Y-72380000D03*
%TD*%
D24*
%TO.C,C69*%
X90939819Y-86127430D03*
X89389819Y-86127430D03*
%TD*%
%TO.C,C42*%
X114885200Y-110123800D03*
X113335200Y-110123800D03*
%TD*%
D17*
%TO.C,R117*%
X126398202Y-82886600D03*
X126398202Y-83906598D03*
%TD*%
D26*
%TO.C,C16*%
X128389998Y-64570000D03*
X128389998Y-63020000D03*
%TD*%
D22*
%TO.C,R72*%
X114293800Y-117819000D03*
X113273800Y-117819000D03*
%TD*%
D17*
%TO.C,R41*%
X130403600Y-103299800D03*
X130403600Y-104319800D03*
%TD*%
D33*
%TO.C,C46*%
X120548400Y-126898400D03*
X120548400Y-128448400D03*
%TD*%
D22*
%TO.C,R126*%
X89867600Y-67955900D03*
X88847600Y-67955900D03*
%TD*%
D17*
%TO.C,R76*%
X116250000Y-116490000D03*
X116250000Y-117510000D03*
%TD*%
D33*
%TO.C,C13*%
X123949998Y-65980000D03*
X123949998Y-67530000D03*
%TD*%
D41*
%TO.C,Y2*%
X125911400Y-128204800D03*
X125911400Y-126004800D03*
X124211400Y-126004800D03*
X124211400Y-128204800D03*
%TD*%
D22*
%TO.C,R131*%
X120257600Y-56505900D03*
X119237600Y-56505900D03*
%TD*%
D17*
%TO.C,R64*%
X130124200Y-120241600D03*
X130124200Y-121261600D03*
%TD*%
D22*
%TO.C,R52*%
X138944000Y-108026200D03*
X137924000Y-108026200D03*
%TD*%
D42*
%TO.C,U3*%
X138310801Y-76260000D03*
X137660801Y-76260000D03*
X137010801Y-76260000D03*
X137010801Y-78240000D03*
X137660801Y-78240000D03*
X138310801Y-78240000D03*
%TD*%
D17*
%TO.C,R130*%
X66280000Y-84000000D03*
X66280000Y-85019998D03*
%TD*%
D43*
%TO.C,Q2*%
X144847725Y-58910271D03*
X144847725Y-57010271D03*
X142972724Y-57960271D03*
%TD*%
D33*
%TO.C,C45*%
X122104800Y-126902800D03*
X122104800Y-128452800D03*
%TD*%
D22*
%TO.C,R134*%
X120257600Y-59405900D03*
X119237600Y-59405900D03*
%TD*%
D44*
%TO.C,H3*%
X148318400Y-127769800D03*
%TD*%
D13*
%TO.C,J3*%
X98270000Y-135500000D03*
D12*
X100810000Y-135500000D03*
X103349999Y-135500000D03*
X105890000Y-135500000D03*
X108430000Y-135500000D03*
%TD*%
D13*
%TO.C,J8*%
X63650000Y-87625000D03*
D12*
X63650000Y-85085000D03*
X63650000Y-82545001D03*
%TD*%
D31*
%TO.C,TV2*%
X152830399Y-88326400D03*
X153780399Y-88326400D03*
X154730399Y-88326400D03*
X154730399Y-85626400D03*
X153780399Y-85626400D03*
X152830399Y-85626400D03*
%TD*%
D43*
%TO.C,Q1*%
X139877499Y-59002501D03*
X139877499Y-57102501D03*
X138002498Y-58052501D03*
%TD*%
D16*
%TO.C,R129*%
X88897600Y-76765899D03*
X88897600Y-75745901D03*
%TD*%
%TO.C,R107*%
X138224999Y-47234999D03*
X138224999Y-46215001D03*
%TD*%
D31*
%TO.C,TV3*%
X152809999Y-73660000D03*
X153759999Y-73660000D03*
X154709999Y-73660000D03*
X154709999Y-70960000D03*
X153759999Y-70960000D03*
X152809999Y-70960000D03*
%TD*%
D33*
%TO.C,C33*%
X118719600Y-128447800D03*
X118719600Y-129997800D03*
%TD*%
D22*
%TO.C,R98*%
X103039999Y-38439999D03*
X102020001Y-38439999D03*
%TD*%
D17*
%TO.C,R17*%
X139149999Y-65900001D03*
X139149999Y-66919999D03*
%TD*%
D16*
%TO.C,R77*%
X115877400Y-129212800D03*
X115877400Y-128192800D03*
%TD*%
D44*
%TO.C,H2*%
X148318400Y-47769800D03*
%TD*%
D17*
%TO.C,R53*%
X133946800Y-107046400D03*
X133946800Y-108066400D03*
%TD*%
D11*
%TO.C,R92*%
X105047600Y-62989900D03*
X106067600Y-62989900D03*
%TD*%
D45*
%TO.C,SW1*%
X94760000Y-39630000D03*
X102380000Y-39630000D03*
%TD*%
D16*
%TO.C,R114*%
X123799999Y-75390000D03*
X123799999Y-74370002D03*
%TD*%
D17*
%TO.C,R65*%
X129075000Y-120215000D03*
X129075000Y-121235000D03*
%TD*%
%TO.C,R27*%
X144504999Y-93359801D03*
X144504999Y-94379799D03*
%TD*%
%TO.C,R30*%
X144689999Y-62410004D03*
X144689999Y-63430002D03*
%TD*%
D16*
%TO.C,R10*%
X138049999Y-66919999D03*
X138049999Y-65900001D03*
%TD*%
D22*
%TO.C,R40*%
X138938000Y-113233200D03*
X137918000Y-113233200D03*
%TD*%
D16*
%TO.C,R34*%
X132050000Y-121259999D03*
X132050000Y-120240001D03*
%TD*%
D17*
%TO.C,R55*%
X131876800Y-103301800D03*
X131876800Y-104321800D03*
%TD*%
D46*
%TO.C,SW2*%
X73860000Y-87260000D03*
X69260000Y-87260000D03*
X73860000Y-85660000D03*
X69260000Y-85660000D03*
D47*
X71560000Y-87980000D03*
%TD*%
D22*
%TO.C,R99*%
X95020000Y-38639999D03*
X94000002Y-38639999D03*
%TD*%
D24*
%TO.C,C35*%
X120345400Y-106533200D03*
X118795400Y-106533200D03*
%TD*%
D22*
%TO.C,R108*%
X143534999Y-38825000D03*
X142515001Y-38825000D03*
%TD*%
D17*
%TO.C,R112*%
X93857999Y-129111800D03*
X93857999Y-130131798D03*
%TD*%
D16*
%TO.C,R90*%
X105350000Y-45729999D03*
X105350000Y-44710001D03*
%TD*%
D11*
%TO.C,R9*%
X137411800Y-64333400D03*
X138431798Y-64333400D03*
%TD*%
D17*
%TO.C,R84*%
X103290000Y-53920001D03*
X103290000Y-54939999D03*
%TD*%
D16*
%TO.C,R109*%
X110197600Y-58015899D03*
X110197600Y-56995901D03*
%TD*%
D22*
%TO.C,R4*%
X128719998Y-73320000D03*
X127700000Y-73320000D03*
%TD*%
D17*
%TO.C,R82*%
X97800000Y-53870001D03*
X97800000Y-54889999D03*
%TD*%
D33*
%TO.C,C14*%
X122479998Y-65970000D03*
X122479998Y-67520000D03*
%TD*%
D17*
%TO.C,R12*%
X133259999Y-74590001D03*
X133259999Y-75609999D03*
%TD*%
D23*
%TO.C,C51*%
X140081000Y-125455200D03*
X141631000Y-125455200D03*
%TD*%
D11*
%TO.C,R24*%
X137481002Y-75031802D03*
X138501000Y-75031802D03*
%TD*%
D16*
%TO.C,R118*%
X132575000Y-47369998D03*
X132575000Y-46350000D03*
%TD*%
D22*
%TO.C,R39*%
X138940000Y-114274600D03*
X137920000Y-114274600D03*
%TD*%
D44*
%TO.C,H4*%
X68318400Y-127769800D03*
%TD*%
D11*
%TO.C,R61*%
X116253800Y-112293400D03*
X117273800Y-112293400D03*
%TD*%
D16*
%TO.C,R28*%
X144480399Y-84936399D03*
X144480399Y-83916401D03*
%TD*%
D44*
%TO.C,H6*%
X116556000Y-50557700D03*
%TD*%
D23*
%TO.C,C47*%
X120600000Y-125300000D03*
X122150000Y-125300000D03*
%TD*%
D24*
%TO.C,C22*%
X136317499Y-57252502D03*
X134767499Y-57252502D03*
%TD*%
D26*
%TO.C,C63*%
X99559998Y-52060000D03*
X99559998Y-50510000D03*
%TD*%
D48*
%TO.C,TV5*%
X137486000Y-130212000D03*
X137486000Y-129262000D03*
X137486000Y-128312000D03*
X134786000Y-128312000D03*
X134786000Y-129262000D03*
X134786000Y-130212000D03*
%TD*%
D22*
%TO.C,R115*%
X132419999Y-84870000D03*
X131400001Y-84870000D03*
%TD*%
D33*
%TO.C,C12*%
X125419998Y-65980000D03*
X125419998Y-67530000D03*
%TD*%
%TO.C,C2*%
X139721799Y-60508400D03*
X139721799Y-62058400D03*
%TD*%
D22*
%TO.C,R35*%
X136600000Y-116500000D03*
X135580000Y-116500000D03*
%TD*%
%TO.C,R1*%
X128739998Y-70490000D03*
X127720000Y-70490000D03*
%TD*%
D39*
%TO.C,TP4*%
X94247600Y-80455900D03*
%TD*%
D16*
%TO.C,R89*%
X103300000Y-56809999D03*
X103300000Y-55790001D03*
%TD*%
%TO.C,R85*%
X95600000Y-56779998D03*
X95600000Y-55760000D03*
%TD*%
%TO.C,R88*%
X102206999Y-56800601D03*
X102206999Y-55780603D03*
%TD*%
D49*
%TO.C,JP2*%
X140305000Y-46374001D03*
D50*
X140305000Y-47673999D03*
%TD*%
D39*
%TO.C,TP10*%
X127177800Y-130683000D03*
%TD*%
D51*
%TO.C,U5*%
X137667600Y-118781800D03*
X137667600Y-120281800D03*
X137667600Y-121781800D03*
X137667600Y-123281800D03*
D52*
X143967600Y-121031800D03*
%TD*%
D17*
%TO.C,R54*%
X132918200Y-103297800D03*
X132918200Y-104317800D03*
%TD*%
D26*
%TO.C,C55*%
X126509999Y-75620000D03*
X126509999Y-74070000D03*
%TD*%
D24*
%TO.C,C40*%
X114885200Y-114899000D03*
X113335200Y-114899000D03*
%TD*%
D22*
%TO.C,R38*%
X138938000Y-115316000D03*
X137918000Y-115316000D03*
%TD*%
D17*
%TO.C,R5*%
X131319999Y-74220000D03*
X131319999Y-75239998D03*
%TD*%
D53*
%TO.C,U1*%
X137009999Y-72520000D03*
X137009999Y-72020000D03*
X137009999Y-71519999D03*
X137009999Y-71020000D03*
X137009999Y-70520001D03*
X137009999Y-70020000D03*
X137009999Y-69520000D03*
X137009999Y-69019999D03*
X137009999Y-68520000D03*
X137009999Y-68020001D03*
X137009999Y-67520000D03*
X137009999Y-67020000D03*
D54*
X136289999Y-66300000D03*
X135789999Y-66300000D03*
X135289998Y-66300000D03*
X134789999Y-66300000D03*
X134290000Y-66300000D03*
X133789999Y-66300000D03*
X133289999Y-66300000D03*
X132789998Y-66300000D03*
X132289999Y-66300000D03*
X131790000Y-66300000D03*
X131289999Y-66300000D03*
X130789999Y-66300000D03*
D53*
X130069999Y-67020000D03*
X130069999Y-67520000D03*
X130069999Y-68020001D03*
X130069999Y-68520000D03*
X130069999Y-69019999D03*
X130069999Y-69520000D03*
X130069999Y-70020000D03*
X130069999Y-70520001D03*
X130069999Y-71020000D03*
X130069999Y-71519999D03*
X130069999Y-72020000D03*
X130069999Y-72520000D03*
D54*
X130789999Y-73240000D03*
X131289999Y-73240000D03*
X131790000Y-73240000D03*
X132289999Y-73240000D03*
X132789998Y-73240000D03*
X133289999Y-73240000D03*
X133789999Y-73240000D03*
X134290000Y-73240000D03*
X134789999Y-73240000D03*
X135289998Y-73240000D03*
X135789999Y-73240000D03*
X136289999Y-73240000D03*
D55*
X133539999Y-69770000D03*
%TD*%
D33*
%TO.C,C15*%
X128359998Y-65990000D03*
X128359998Y-67540000D03*
%TD*%
D40*
%TO.C,L3*%
X110206800Y-114033400D03*
X108266800Y-114033400D03*
%TD*%
D48*
%TO.C,U2*%
X135699999Y-79560000D03*
X135699999Y-78610000D03*
X135699999Y-77660000D03*
X133099999Y-77660000D03*
X133099999Y-79560000D03*
%TD*%
D16*
%TO.C,R31*%
X144689999Y-65400000D03*
X144689999Y-64380002D03*
%TD*%
D39*
%TO.C,TP8*%
X77800000Y-82950000D03*
%TD*%
D17*
%TO.C,R32*%
X144689999Y-76750001D03*
X144689999Y-77769999D03*
%TD*%
D31*
%TO.C,TV1*%
X152830399Y-92676399D03*
X153780399Y-92676399D03*
X154730399Y-92676399D03*
X154730399Y-89976399D03*
X153780399Y-89976399D03*
X152830399Y-89976399D03*
%TD*%
D56*
%TO.C,U6*%
X118419800Y-120928000D03*
X117139800Y-120928000D03*
X115879800Y-120928000D03*
X114609800Y-120928000D03*
X114609800Y-126468000D03*
X115879800Y-126468000D03*
X117139800Y-126468000D03*
X118419800Y-126468000D03*
%TD*%
D15*
%TO.C,CN4*%
X142225000Y-43325000D03*
D14*
X142225000Y-41325000D03*
X140225000Y-43325000D03*
X140225000Y-41325000D03*
X138225000Y-43325000D03*
X138225000Y-41325000D03*
X136225000Y-43325000D03*
X136225000Y-41325000D03*
X134225000Y-43325000D03*
X134225000Y-41325000D03*
X132225000Y-43325000D03*
X132225000Y-41325000D03*
X130225000Y-43325000D03*
X130225000Y-41325000D03*
X128225000Y-43325000D03*
X128225000Y-41325000D03*
%TD*%
D11*
%TO.C,R59*%
X116293800Y-109946000D03*
X117313800Y-109946000D03*
%TD*%
D16*
%TO.C,R15*%
X146357499Y-58432500D03*
X146357499Y-57412502D03*
%TD*%
%TO.C,R127*%
X88897600Y-71765899D03*
X88897600Y-70745901D03*
%TD*%
D17*
%TO.C,R83*%
X102190000Y-53900002D03*
X102190000Y-54920000D03*
%TD*%
D39*
%TO.C,TP5*%
X89555800Y-56933100D03*
%TD*%
%TO.C,TP7*%
X77800000Y-87125000D03*
%TD*%
%TO.C,TP9*%
X129184400Y-130683000D03*
%TD*%
D11*
%TO.C,R56*%
X122210000Y-107533000D03*
X123230000Y-107533000D03*
%TD*%
D24*
%TO.C,C21*%
X136317503Y-58852502D03*
X134767503Y-58852502D03*
%TD*%
D44*
%TO.C,H5*%
X82545400Y-94575900D03*
%TD*%
D13*
%TO.C,J10*%
X63640000Y-54440001D03*
D12*
X66180000Y-54440001D03*
X63640000Y-56980001D03*
X66180000Y-56980001D03*
X63640000Y-59520000D03*
X66180000Y-59520001D03*
X63640000Y-62060001D03*
X66180000Y-62060001D03*
X63640000Y-64600001D03*
X66180000Y-64600001D03*
%TD*%
D57*
%TO.C,U10*%
X127749999Y-82430000D03*
X127749999Y-83380000D03*
X127749999Y-84330000D03*
D58*
X130049999Y-84330000D03*
X130049999Y-82430000D03*
%TD*%
D22*
%TO.C,R97*%
X103009998Y-40799999D03*
X101990000Y-40799999D03*
%TD*%
%TO.C,R50*%
X138940000Y-110109000D03*
X137920000Y-110109000D03*
%TD*%
D24*
%TO.C,C66*%
X90928019Y-84527230D03*
X89378019Y-84527230D03*
%TD*%
D59*
%TO.C,U11*%
X99350000Y-58180000D03*
X98850000Y-58180000D03*
X98350000Y-58180000D03*
X99350000Y-57680000D03*
X98850000Y-57680000D03*
X98350000Y-57680000D03*
%TD*%
D16*
%TO.C,R23*%
X139481001Y-77721799D03*
X139481001Y-76701801D03*
%TD*%
D17*
%TO.C,R43*%
X128346200Y-103299800D03*
X128346200Y-104319800D03*
%TD*%
D22*
%TO.C,R6*%
X128739999Y-69540000D03*
X127720001Y-69540000D03*
%TD*%
D60*
%TO.C,U7*%
X127100000Y-100700000D03*
X127100000Y-101350000D03*
X127100000Y-102000000D03*
X129000000Y-102000000D03*
X129000000Y-101350000D03*
X129000000Y-100700000D03*
%TD*%
D49*
%TO.C,JP1*%
X142997399Y-46359001D03*
D50*
X142997399Y-47658999D03*
%TD*%
D11*
%TO.C,R78*%
X127390000Y-99475000D03*
X128410000Y-99475000D03*
%TD*%
D33*
%TO.C,C11*%
X126879998Y-65990000D03*
X126879998Y-67540000D03*
%TD*%
D11*
%TO.C,R22*%
X135461003Y-75028403D03*
X136481001Y-75028403D03*
%TD*%
D22*
%TO.C,R21*%
X126869998Y-70000000D03*
X125850000Y-70000000D03*
%TD*%
D61*
%TO.C,U4*%
X124113600Y-118275200D03*
X124613600Y-118275200D03*
X125113600Y-118275200D03*
X125613600Y-118275200D03*
X126113600Y-118275200D03*
X126613600Y-118275200D03*
X127113600Y-118275200D03*
X127613600Y-118275200D03*
X128113600Y-118275200D03*
X128613600Y-118275200D03*
X129113600Y-118275200D03*
X129613600Y-118275200D03*
X130113600Y-118275200D03*
X130613600Y-118275200D03*
X131113600Y-118275200D03*
X131613600Y-118275200D03*
D62*
X133413600Y-116475200D03*
X133413600Y-115975200D03*
X133413600Y-115475200D03*
X133413600Y-114975200D03*
X133413600Y-114475200D03*
X133413600Y-113975200D03*
X133413600Y-113475200D03*
X133413600Y-112975200D03*
X133413600Y-112475200D03*
X133413600Y-111975200D03*
X133413600Y-111475200D03*
X133413600Y-110975200D03*
X133413600Y-110475200D03*
X133413600Y-109975200D03*
X133413600Y-109475200D03*
X133413600Y-108975200D03*
D61*
X131613600Y-107175200D03*
X131113600Y-107175200D03*
X130613600Y-107175200D03*
X130113600Y-107175200D03*
X129613600Y-107175200D03*
X129113600Y-107175200D03*
X128613600Y-107175200D03*
X128113600Y-107175200D03*
X127613600Y-107175200D03*
X127113600Y-107175200D03*
X126613600Y-107175200D03*
X126113600Y-107175200D03*
X125613600Y-107175200D03*
X125113600Y-107175200D03*
X124613600Y-107175200D03*
X124113600Y-107175200D03*
D62*
X122313600Y-108975200D03*
X122313600Y-109475200D03*
X122313600Y-109975200D03*
X122313600Y-110475200D03*
X122313600Y-110975200D03*
X122313600Y-111475200D03*
X122313600Y-111975200D03*
X122313600Y-112475200D03*
X122313600Y-112975200D03*
X122313600Y-113475200D03*
X122313600Y-113975200D03*
X122313600Y-114475200D03*
X122313600Y-114975200D03*
X122313600Y-115475200D03*
X122313600Y-115975200D03*
X122313600Y-116475200D03*
%TD*%
D11*
%TO.C,R69*%
X140053600Y-115849400D03*
X141073600Y-115849400D03*
%TD*%
D22*
%TO.C,R116*%
X132408201Y-83806599D03*
X131388203Y-83806599D03*
%TD*%
D17*
%TO.C,R26*%
X144480399Y-81884401D03*
X144480399Y-82904399D03*
%TD*%
D26*
%TO.C,C59*%
X148660000Y-102355000D03*
X148660000Y-100805000D03*
%TD*%
D11*
%TO.C,R106*%
X135211202Y-46425200D03*
X136231200Y-46425200D03*
%TD*%
D16*
%TO.C,R128*%
X88897600Y-74265899D03*
X88897600Y-73245901D03*
%TD*%
%TO.C,R11*%
X132289999Y-75610000D03*
X132289999Y-74590002D03*
%TD*%
D22*
%TO.C,R16*%
X130379997Y-74750000D03*
X129359999Y-74750000D03*
%TD*%
D39*
%TO.C,TP11*%
X121200000Y-130530000D03*
%TD*%
D11*
%TO.C,R103*%
X105087600Y-67335900D03*
X106107600Y-67335900D03*
%TD*%
%TO.C,R102*%
X105080200Y-66054900D03*
X106100200Y-66054900D03*
%TD*%
D17*
%TO.C,R13*%
X141427501Y-57527529D03*
X141427501Y-58547527D03*
%TD*%
%TO.C,R42*%
X129387600Y-103299800D03*
X129387600Y-104319800D03*
%TD*%
D16*
%TO.C,R25*%
X139484402Y-75740001D03*
X139484402Y-74720003D03*
%TD*%
D11*
%TO.C,R68*%
X138790000Y-130700000D03*
X139810000Y-130700000D03*
%TD*%
D17*
%TO.C,R33*%
X144664599Y-74692601D03*
X144664599Y-75712599D03*
%TD*%
D24*
%TO.C,C48*%
X129475000Y-128600000D03*
X127925000Y-128600000D03*
%TD*%
D44*
%TO.C,H1*%
X68318400Y-47769800D03*
%TD*%
D16*
%TO.C,R120*%
X119297600Y-65265899D03*
X119297600Y-64245901D03*
%TD*%
D22*
%TO.C,R93*%
X140814999Y-49335400D03*
X139795001Y-49335400D03*
%TD*%
D17*
%TO.C,R73*%
X113489800Y-120316800D03*
X113489800Y-121336800D03*
%TD*%
%TO.C,R81*%
X96700000Y-53880002D03*
X96700000Y-54900000D03*
%TD*%
D26*
%TO.C,C17*%
X126909999Y-64565000D03*
X126909999Y-63015000D03*
%TD*%
D24*
%TO.C,C67*%
X90928019Y-83027231D03*
X89378019Y-83027231D03*
%TD*%
%TO.C,C57*%
X125143202Y-83709999D03*
X123593202Y-83709999D03*
%TD*%
D11*
%TO.C,R18*%
X125838200Y-71956600D03*
X126858198Y-71956600D03*
%TD*%
D16*
%TO.C,R121*%
X79797600Y-61765899D03*
X79797600Y-60745901D03*
%TD*%
D11*
%TO.C,R57*%
X116291800Y-107863200D03*
X117311800Y-107863200D03*
%TD*%
D16*
%TO.C,R135*%
X133660698Y-47372797D03*
X133660698Y-46352799D03*
%TD*%
D39*
%TO.C,TP6*%
X109375000Y-90950000D03*
%TD*%
D11*
%TO.C,R19*%
X125850001Y-70940000D03*
X126869999Y-70940000D03*
%TD*%
%TO.C,R14*%
X129360001Y-75690000D03*
X130379999Y-75690000D03*
%TD*%
D39*
%TO.C,TP2*%
X128900000Y-111300000D03*
%TD*%
%TO.C,TP1*%
X126771400Y-111201200D03*
%TD*%
M02*
