M48
; DRILL file {KiCad 9.0.3} date 2025-08-06T15:47:49-0700
; FORMAT={-:-/ absolute / inch / decimal}
; #@! TF.CreationDate,2025-08-06T15:47:49-07:00
; #@! TF.GenerationSoftware,Kicad,Pcbnew,9.0.3
; #@! TF.FileFunction,Plated,1,6,PTH
FMAT,2
INCH
; #@! TA.AperFunction,Plated,PTH,ViaDrill
T1C0.0059
; #@! TA.AperFunction,Plated,PTH,ViaDrill
T2C0.0118
; #@! TA.AperFunction,Plated,PTH,ComponentDrill
T3C0.0197
; #@! TA.AperFunction,Plated,PTH,ComponentDrill
T4C0.0315
; #@! TA.AperFunction,Plated,PTH,ComponentDrill
T5C0.0350
; #@! TA.AperFunction,Plated,PTH,ComponentDrill
T6C0.0394
; #@! TA.AperFunction,Plated,PTH,ComponentDrill
T7C0.0618
; #@! TA.AperFunction,Plated,PTH,ComponentDrill
T8C0.1063
; #@! TA.AperFunction,Plated,PTH,ComponentDrill
T9C0.1280
%
G90
G05
T1
X2.9433Y-4.0232
X3.0035Y-3.963
X3.0035Y-4.0224
X3.0098Y-3.8811
X3.1303Y-4.0307
X3.1323Y-3.7894
X3.1327Y-3.7268
X3.1327Y-3.8528
X3.1327Y-3.915
X3.1327Y-3.9764
X3.1386Y-4.1287
X3.1823Y-4.3713
X3.1933Y-3.7902
X3.1933Y-3.8528
X3.1933Y-3.915
X3.1937Y-3.9768
X3.1941Y-3.7268
X3.2323Y-4.4787
X3.2465Y-3.8535
X3.2465Y-3.8945
X3.2472Y-3.9783
X3.2476Y-3.8126
X3.2484Y-3.6374
X3.2488Y-3.6787
X3.2488Y-3.7728
X3.2492Y-3.7201
X3.2835Y-4.5094
X3.2839Y-4.4488
X3.2886Y-3.9776
X3.3323Y-4.3732
X3.3445Y-4.4484
X3.3445Y-4.5094
X3.3472Y-3.4008
X3.3476Y-3.463
X3.3476Y-3.5236
X3.3476Y-3.5854
X3.4087Y-3.5236
X3.4087Y-3.5862
X3.4091Y-3.4008
X3.4091Y-3.4634
X3.4165Y-4.448
X3.4181Y-4.3252
X3.4783Y-4.4488
X3.4819Y-3.5843
X3.4819Y-3.6252
X3.4858Y-3.702
X3.4858Y-3.7213
X3.4858Y-3.8201
X3.4858Y-3.9776
X3.4862Y-3.6819
X3.5567Y-4.048
X3.5606Y-4.439
X3.5764Y-3.6106
X3.6016Y-3.4583
X3.6268Y-4.3531
X3.6354Y-4.0476
X3.6417Y-3.4583
X3.6744Y-3.3819
X3.6747Y-4.1011
X3.6748Y-3.3571
X3.6752Y-3.6106
X3.6823Y-3.4575
X3.6862Y-3.3087
X3.6946Y-4.1011
X3.7146Y-4.0457
X3.724Y-3.4583
X3.7339Y-4.0461
X3.7496Y-3.3563
X3.752Y-4.1638
X3.7535Y-4.0461
X3.7681Y-4.4543
X3.7732Y-3.6106
X3.7732Y-4.048
X3.7933Y-4.1657
X3.8126Y-3.6114
X3.8319Y-4.1657
X3.8323Y-4.048
X3.8331Y-3.3406
X3.8587Y-3.3406
X3.8587Y-3.415
X3.8622Y-3.4575
X3.8709Y-4.25
X3.9039Y-3.4583
X3.9067Y-3.3736
X3.9224Y-3.9181
X3.9228Y-3.8197
X3.9232Y-3.7016
X3.9441Y-3.6059
X3.9504Y-2.7402
X3.9508Y-2.5579
X3.9677Y-4.0185
X3.9677Y-4.0713
X3.9677Y-4.1134
X3.9799Y-4.5185
X4.0204Y-4.5031
X4.0268Y-4.8098
X4.0402Y-4.5031
X4.0496Y-4.7193
X4.065Y-4.3087
X4.065Y-4.3732
X4.0835Y-4.4807
X4.0906Y-4.1866
X4.1039Y-2.5925
X4.1142Y-4.8094
X4.1243Y-4.6457
X4.1402Y-3.7264
X4.1406Y-3.6445
X4.1406Y-3.685
X4.1406Y-3.8087
X4.1406Y-3.8496
X4.1406Y-3.8906
X4.1406Y-3.9315
X4.1406Y-3.9728
X4.1409Y-3.7673
X4.1472Y-4.7043
X4.1752Y-4.537
X4.1803Y-4.8094
X4.1854Y-4.3307
X4.1858Y-4.3933
X4.198Y-4.7047
X4.2437Y-4.7197
X4.2465Y-4.3925
X4.2469Y-4.3299
X4.2634Y-4.8098
X4.2776Y-2.8681
X4.302Y-2.8701
X4.3378Y-4.161
X4.4296Y-4.0991
X4.4436Y-4.0851
X4.4559Y-3.1098
X4.4559Y-3.3528
X4.4755Y-4.0059
X4.4953Y-3.1098
X4.4953Y-4.0059
X4.515Y-3.1098
X4.5346Y-3.1098
X4.5429Y-2.2331
X4.5543Y-3.3528
X4.574Y-3.3528
X4.5937Y-3.1098
X4.5937Y-3.3528
X4.598Y-4.0787
X4.598Y-4.0985
X4.6039Y-2.2331
X4.6134Y-3.1098
X4.6134Y-3.3528
X4.6236Y-3.2043
X4.6331Y-3.1098
X4.6331Y-3.3528
X4.635Y-3.1862
X4.6528Y-3.3528
X4.6654Y-2.2335
X4.6791Y-3.4657
X4.6965Y-3.4588
X4.728Y-2.2327
X4.7299Y-2.1543
X4.7303Y-1.9106
X4.7315Y-3.1102
X4.7315Y-3.3528
X4.7374Y-4.7028
X4.7374Y-4.7402
X4.7374Y-4.7776
X4.75Y-1.9114
X4.7504Y-2.1543
X4.7693Y-1.9118
X4.7693Y-2.1547
X4.7709Y-3.3528
X4.7713Y-3.1114
X4.7724Y-3.3106
X4.787Y-2.2319
X4.7886Y-2.2945
X4.7898Y-1.9083
X4.7906Y-3.3528
X4.8094Y-2.1535
X4.8102Y-3.3528
X4.8106Y-3.1098
X4.8265Y-4.3918
X4.8283Y-2.1539
X4.8405Y-4.4058
X4.8476Y-2.1504
X4.8496Y-3.3528
X4.8677Y-1.9114
X4.8681Y-2.1504
X4.8693Y-3.3528
X4.889Y-3.3528
X4.9071Y-2.1535
X4.9087Y-3.3528
X4.9087Y-4.7402
X4.9094Y-3.1106
X4.9201Y-4.2213
X4.9237Y-4.0256
X4.9283Y-3.3528
X4.9287Y-3.1075
X4.9433Y-2.2898
X4.9465Y-1.911
X4.948Y-3.3528
X4.9484Y-3.1102
X4.9665Y-1.9106
X4.9677Y-3.3528
X4.9681Y-3.1083
X4.9882Y-3.1122
X4.9949Y-4.2213
X5.0055Y-1.9114
X5.0252Y-2.1539
X5.0335Y-2.2134
X5.0465Y-3.1098
X5.0465Y-3.3528
X5.0646Y-1.911
X5.0647Y-4.0423
X5.0661Y-3.3528
X5.0846Y-1.9118
X5.0858Y-3.3528
X5.1055Y-3.3528
X5.1236Y-1.911
X5.1236Y-2.1551
X5.1252Y-3.1098
X5.1252Y-3.3528
X5.1323Y-2.213
X5.1449Y-3.3528
X5.1642Y-3.1079
X5.1835Y-1.9102
X5.1843Y-3.3528
X5.2031Y-1.9098
X5.2039Y-3.3528
X5.2083Y-4.0586
X5.222Y-2.1555
X5.2224Y-1.9114
X5.2236Y-3.1091
X5.2299Y-1.8551
X5.2303Y-2.213
X5.263Y-3.3528
X5.2911Y-3.5595
X5.3205Y-2.1547
X5.3209Y-1.911
X5.322Y-3.3528
X5.3327Y-1.8543
X5.3421Y-3.1094
X5.3492Y-4.4276
X5.361Y-3.1083
X5.3799Y-2.2504
X5.3811Y-3.3528
X5.3819Y-3.1098
X5.3992Y-2.1539
X5.4016Y-3.1079
X5.4051Y-2.828
X5.4087Y-3.7901
X5.4189Y-1.9118
X5.4205Y-3.1079
X5.4209Y-3.8857
X5.4209Y-3.9841
X5.4209Y-4.0235
X5.4209Y-4.0432
X5.4272Y-1.8543
X5.4402Y-3.3528
X5.4406Y-3.1098
X5.4453Y-4.2149
X5.4492Y-3.8574
X5.4551Y-2.8248
X5.4583Y-2.1539
X5.4689Y-3.5586
X5.4795Y-3.3528
X5.4886Y-3.8571
X5.4945Y-2.8248
X5.4992Y-3.0642
X5.5083Y-3.8567
X5.5083Y-4.1306
X5.5173Y-1.911
X5.5252Y-1.8547
X5.528Y-3.8574
X5.5366Y-2.8504
X5.5386Y-3.3528
X5.5445Y-4.7051
X5.5445Y-4.7425
X5.5445Y-4.7799
X5.5476Y-3.8574
X5.5484Y-3.7649
X5.5567Y-2.1547
X5.5673Y-3.8574
X5.5673Y-4.1306
X5.5854Y-3.7314
X5.587Y-4.1306
X5.5976Y-3.3528
X5.598Y-3.1102
X5.6067Y-4.1306
X5.6157Y-1.9114
X5.6232Y-3.7645
X5.6236Y-1.8543
X5.624Y-3.6912
X5.6264Y-4.1306
X5.6535Y-2.8697
X5.6551Y-2.1543
X5.6567Y-3.3528
X5.6618Y-3.7309
X5.6941Y-3.8857
X5.6941Y-3.9251
X5.6941Y-3.9448
X5.6941Y-3.9645
X5.6941Y-3.9841
X5.6941Y-4.1023
X5.6965Y-3.1102
X5.6972Y-3.7641
X5.7142Y-1.911
X5.7157Y-3.3528
X5.7157Y-4.7421
X5.7354Y-3.1094
X5.7645Y-4.0696
X5.7661Y-4.2138
X5.7717Y-3.0516
X5.7728Y-2.6736
X5.7728Y-3.9066
X5.7736Y-4.0239
X5.774Y-1.9043
X5.7748Y-3.3524
X5.7846Y-2.6051
X5.7874Y-3.983
X5.7874Y-3.9448
X5.7906Y-3.8294
X5.7929Y-2.1547
X5.7933Y-1.9083
X5.7949Y-3.1094
X5.8008Y-3.6105
X5.8126Y-1.9106
X5.813Y-4.1562
X5.8185Y-2.7803
X5.8209Y-2.5197
X5.8209Y-2.6248
X5.8327Y-2.1539
X5.8335Y-3.7422
X5.835Y-2.6732
X5.8522Y-2.1535
X5.8606Y-2.7378
X5.8681Y-4.079
X5.8705Y-4.2279
X5.8709Y-2.1535
X5.8868Y-3.6314
X5.8909Y-4.1306
X5.8909Y-4.1562
X5.8917Y-1.9114
X5.8917Y-2.1535
X5.8949Y-2.563
X5.9114Y-1.9114
X5.9114Y-2.1551
X5.9339Y-2.7791
X5.9343Y-2.737
X5.935Y-2.5197
X5.9354Y-2.4752
X5.9354Y-2.6071
X5.9358Y-2.5634
X5.9366Y-2.6504
X5.9378Y-2.835
X5.9398Y-2.3374
X5.9429Y-2.6937
X5.9429Y-3.9767
X5.9429Y-4.079
X6.0028Y-2.863
X6.0432Y-3.6634
X6.0559Y-3.7587
X6.0673Y-2.6339
X6.0681Y-2.5748
X6.1465Y-2.4587
X6.213Y-3.9075
X6.2965Y-2.8602
X6.4472Y-2.7701
X6.4953Y-2.7445
X6.5248Y-2.8571
X6.526Y-2.3346
X6.5346Y-2.4134
T2
X5.1728Y-4.5348
X5.5575Y-3.994
X5.7878Y-3.7172
X6.0125Y-3.8594
T3
X3.442Y-4.5305
X3.6773Y-4.5365
X3.7563Y-4.5365
X4.6254Y-1.776
X4.7083Y-1.776
X4.7898Y-1.776
T4
X3.287Y-4.763
X3.287Y-4.8417
X3.3657Y-4.763
X3.3657Y-4.8417
X3.4445Y-4.763
X3.4445Y-4.8417
X3.5232Y-4.763
X3.5232Y-4.8417
X3.602Y-4.763
X3.602Y-4.8417
X3.6807Y-4.763
X3.6807Y-4.8417
X3.7594Y-4.763
X3.7594Y-4.8417
X3.8382Y-4.763
X3.8382Y-4.8417
T5
X4.4992Y-4.3701
X4.5894Y-4.3701
X4.6291Y-4.5598
X4.6693Y-4.6299
X4.7094Y-4.5598
X4.7496Y-4.6299
X4.7898Y-4.5598
X4.8299Y-4.6299
X4.8701Y-4.5598
X4.9102Y-4.6299
X4.9492Y-4.3701
X5.0394Y-4.3701
X5.3059Y-4.3705
X5.3961Y-4.3705
X5.4358Y-4.5602
X5.476Y-4.6303
X5.5161Y-4.5602
X5.5563Y-4.6303
X5.5965Y-4.5602
X5.6366Y-4.6303
X5.6768Y-4.5602
X5.7169Y-4.6303
X5.7559Y-4.3705
X5.8461Y-4.3705
T6
X2.7929Y-3.148
X2.7929Y-3.248
X2.7929Y-3.348
X2.7929Y-3.448
X2.7929Y-3.548
X2.8028Y-2.8337
X2.8028Y-2.9337
X4.5606Y-1.2358
X4.5606Y-1.3358
X4.6606Y-1.2358
X4.6606Y-1.3358
X4.7606Y-1.2358
X4.7606Y-1.3358
X4.8606Y-1.2358
X4.8606Y-1.3358
X4.9606Y-1.2358
X4.9606Y-1.3358
X5.0606Y-1.2358
X5.0606Y-1.3358
X5.1606Y-1.2358
X5.1606Y-1.3358
X5.3161Y-1.235
X5.3161Y-1.335
X5.4161Y-1.235
X5.4161Y-1.335
X5.5161Y-1.235
X5.5161Y-1.335
X5.6161Y-1.235
X5.6161Y-1.335
X5.7161Y-1.235
X5.7161Y-1.335
X5.8161Y-1.235
X5.8161Y-1.335
X5.9161Y-1.235
X5.9161Y-1.335
T7
X4.4492Y-4.5949
X5.0894Y-4.5949
X5.2559Y-4.5953
X5.8961Y-4.5953
T8
X3.0252Y-1.4027
X3.0252Y-4.5523
X4.2777Y-1.9321
X6.0651Y-3.3018
X6.1748Y-1.4027
X6.1748Y-4.5523
T9
X4.5193Y-4.7299
X5.0193Y-4.7299
X5.326Y-4.7303
X5.826Y-4.7303
M30
