%TF.GenerationSoftware,KiCad,Pcbnew,10.0.1*%
%TF.CreationDate,2026-04-29T00:32:51-07:00*%
%TF.ProjectId,imx8x_eps_leviathan_v2,696d7838-785f-4657-9073-5f6c65766961,rev?*%
%TF.SameCoordinates,Original*%
%TF.FileFunction,Paste,Top*%
%TF.FilePolarity,Positive*%
%FSLAX46Y46*%
G04 Gerber Fmt 4.6, Leading zero omitted, Abs format (unit mm)*
G04 Created by KiCad (PCBNEW 10.0.1) date 2026-04-29 00:32:51*
%MOMM*%
%LPD*%
G01*
G04 APERTURE LIST*
G04 Aperture macros list*
%AMRoundRect*
0 Rectangle with rounded corners*
0 $1 Rounding radius*
0 $2 $3 $4 $5 $6 $7 $8 $9 X,Y pos of 4 corners*
0 Add a 4 corners polygon primitive as box body*
4,1,4,$2,$3,$4,$5,$6,$7,$8,$9,$2,$3,0*
0 Add four circle primitives for the rounded corners*
1,1,$1+$1,$2,$3*
1,1,$1+$1,$4,$5*
1,1,$1+$1,$6,$7*
1,1,$1+$1,$8,$9*
0 Add four rect primitives between the rounded corners*
20,1,$1+$1,$2,$3,$4,$5,0*
20,1,$1+$1,$4,$5,$6,$7,0*
20,1,$1+$1,$6,$7,$8,$9,0*
20,1,$1+$1,$8,$9,$2,$3,0*%
%AMFreePoly0*
4,1,32,0.218269,0.252388,0.253624,0.237743,0.300620,0.197604,0.307743,0.183624,0.322388,0.148269,0.330000,0.110000,0.330000,0.030000,0.322388,-0.008269,0.307743,-0.043624,0.281544,-0.080315,0.276886,-0.084428,0.272091,-0.088403,0.092091,-0.228403,0.063150,-0.244056,0.032453,-0.254588,0.000000,-0.260000,-0.180000,-0.260000,-0.218269,-0.252388,-0.253624,-0.237743,-0.300620,-0.197604,
-0.307743,-0.183624,-0.322388,-0.148269,-0.330000,-0.110000,-0.330000,0.110000,-0.322388,0.148269,-0.307743,0.183624,-0.267604,0.230620,-0.253624,0.237743,-0.218269,0.252388,-0.180000,0.260000,0.180000,0.260000,0.218269,0.252388,0.218269,0.252388,$1*%
%AMFreePoly1*
4,1,32,0.032453,0.244588,0.063150,0.234056,0.092091,0.218403,0.272091,0.078403,0.297625,0.048900,0.316542,0.015634,0.329421,-0.027586,0.329807,-0.033788,0.330000,-0.040000,0.330000,-0.120000,0.322388,-0.158269,0.307743,-0.193624,0.267604,-0.240620,0.253624,-0.247743,0.218269,-0.262388,0.180000,-0.270000,-0.180000,-0.270000,-0.218269,-0.262388,-0.253624,-0.247743,-0.300620,-0.207604,
-0.307743,-0.193624,-0.322388,-0.158269,-0.330000,-0.120000,-0.330000,0.100000,-0.322388,0.138269,-0.307743,0.173624,-0.267604,0.220620,-0.253624,0.227743,-0.218269,0.242388,-0.180000,0.250000,0.000000,0.250000,0.032453,0.244588,0.032453,0.244588,$1*%
%AMFreePoly2*
4,1,32,0.218269,0.242388,0.253624,0.227743,0.300620,0.187604,0.307743,0.173624,0.322388,0.138269,0.330000,0.100000,0.330000,-0.120000,0.322388,-0.158269,0.307743,-0.193624,0.267604,-0.240620,0.253624,-0.247743,0.218269,-0.262388,0.180000,-0.270000,-0.180000,-0.270000,-0.218269,-0.262388,-0.253624,-0.247743,-0.300620,-0.207604,-0.307743,-0.193624,-0.322388,-0.158269,-0.330000,-0.120000,
-0.330000,-0.040000,-0.322388,-0.001731,-0.307743,0.033624,-0.281544,0.070315,-0.276886,0.074428,-0.272091,0.078403,-0.092091,0.218403,-0.063150,0.234056,-0.032453,0.244588,0.000000,0.250000,0.180000,0.250000,0.218269,0.242388,0.218269,0.242388,$1*%
%AMFreePoly3*
4,1,32,0.218269,0.252388,0.253624,0.237743,0.300620,0.197604,0.307743,0.183624,0.322388,0.148269,0.330000,0.110000,0.330000,-0.110000,0.322388,-0.148269,0.307743,-0.183624,0.267604,-0.230620,0.253624,-0.237743,0.218269,-0.252388,0.180000,-0.260000,0.000000,-0.260000,-0.032453,-0.254588,-0.063150,-0.244056,-0.092091,-0.228403,-0.272091,-0.088403,-0.297625,-0.058900,-0.316542,-0.025634,
-0.329421,0.017586,-0.329807,0.023788,-0.330000,0.030000,-0.330000,0.110000,-0.322388,0.148269,-0.307743,0.183624,-0.267604,0.230620,-0.253624,0.237743,-0.218269,0.252388,-0.180000,0.260000,0.180000,0.260000,0.218269,0.252388,0.218269,0.252388,$1*%
G04 Aperture macros list end*
%ADD10RoundRect,0.185000X0.235000X-0.185000X0.235000X0.185000X-0.235000X0.185000X-0.235000X-0.185000X0*%
%ADD11RoundRect,0.185000X-0.235000X0.185000X-0.235000X-0.185000X0.235000X-0.185000X0.235000X0.185000X0*%
%ADD12RoundRect,0.275000X0.300000X-0.275000X0.300000X0.275000X-0.300000X0.275000X-0.300000X-0.275000X0*%
%ADD13O,0.560000X1.940000*%
%ADD14RoundRect,0.100000X0.270000X-0.285000X0.270000X0.285000X-0.270000X0.285000X-0.270000X-0.285000X0*%
%ADD15RoundRect,0.100000X-0.395000X-0.270000X0.395000X-0.270000X0.395000X0.270000X-0.395000X0.270000X0*%
%ADD16RoundRect,0.100000X0.270000X-0.395000X0.270000X0.395000X-0.270000X0.395000X-0.270000X-0.395000X0*%
%ADD17RoundRect,0.293478X-1.156522X0.381522X-1.156522X-0.381522X1.156522X-0.381522X1.156522X0.381522X0*%
%ADD18RoundRect,0.185000X-0.185000X-0.235000X0.185000X-0.235000X0.185000X0.235000X-0.185000X0.235000X0*%
%ADD19RoundRect,0.275000X0.275000X0.300000X-0.275000X0.300000X-0.275000X-0.300000X0.275000X-0.300000X0*%
%ADD20RoundRect,0.185000X0.185000X0.235000X-0.185000X0.235000X-0.185000X-0.235000X0.185000X-0.235000X0*%
%ADD21RoundRect,0.100000X0.395000X0.270000X-0.395000X0.270000X-0.395000X-0.270000X0.395000X-0.270000X0*%
%ADD22RoundRect,0.100000X-0.270000X0.285000X-0.270000X-0.285000X0.270000X-0.285000X0.270000X0.285000X0*%
%ADD23O,0.540000X1.950000*%
%ADD24RoundRect,0.100000X-1.450000X1.250000X-1.450000X-1.250000X1.450000X-1.250000X1.450000X1.250000X0*%
%ADD25RoundRect,0.100000X0.500000X0.550000X-0.500000X0.550000X-0.500000X-0.550000X0.500000X-0.550000X0*%
%ADD26RoundRect,0.100000X1.000000X0.350000X-1.000000X0.350000X-1.000000X-0.350000X1.000000X-0.350000X0*%
%ADD27RoundRect,0.275000X-0.275000X-0.300000X0.275000X-0.300000X0.275000X0.300000X-0.275000X0.300000X0*%
%ADD28RoundRect,0.250000X0.250000X0.325000X-0.250000X0.325000X-0.250000X-0.325000X0.250000X-0.325000X0*%
%ADD29RoundRect,0.100000X-0.285000X-0.270000X0.285000X-0.270000X0.285000X0.270000X-0.285000X0.270000X0*%
%ADD30RoundRect,0.100000X0.152500X0.725000X-0.152500X0.725000X-0.152500X-0.725000X0.152500X-0.725000X0*%
%ADD31RoundRect,0.100000X-0.700000X0.205000X-0.700000X-0.205000X0.700000X-0.205000X0.700000X0.205000X0*%
%ADD32RoundRect,0.100000X-0.700000X-0.575000X0.700000X-0.575000X0.700000X0.575000X-0.700000X0.575000X0*%
%ADD33RoundRect,0.100000X-0.270000X0.395000X-0.270000X-0.395000X0.270000X-0.395000X0.270000X0.395000X0*%
%ADD34RoundRect,0.275000X-0.300000X0.275000X-0.300000X-0.275000X0.300000X-0.275000X0.300000X0.275000X0*%
%ADD35RoundRect,0.100000X1.450000X2.700000X-1.450000X2.700000X-1.450000X-2.700000X1.450000X-2.700000X0*%
%ADD36RoundRect,0.100000X1.295000X-1.095000X1.295000X1.095000X-1.295000X1.095000X-1.295000X-1.095000X0*%
%ADD37RoundRect,0.100000X0.290000X-0.140000X0.290000X0.140000X-0.290000X0.140000X-0.290000X-0.140000X0*%
%ADD38RoundRect,0.100000X0.850000X-2.375000X0.850000X2.375000X-0.850000X2.375000X-0.850000X-2.375000X0*%
%ADD39RoundRect,0.100000X0.140000X-0.290000X0.140000X0.290000X-0.140000X0.290000X-0.140000X-0.290000X0*%
%ADD40RoundRect,0.100000X0.285000X0.270000X-0.285000X0.270000X-0.285000X-0.270000X0.285000X-0.270000X0*%
%ADD41RoundRect,0.100000X-0.210000X-0.300000X0.210000X-0.300000X0.210000X0.300000X-0.210000X0.300000X0*%
%ADD42RoundRect,0.100000X0.210000X0.300000X-0.210000X0.300000X-0.210000X-0.300000X0.210000X-0.300000X0*%
%ADD43O,1.820000X0.480000*%
%ADD44O,0.480000X1.050000*%
%ADD45O,1.050000X0.480000*%
%ADD46RoundRect,0.100000X-2.050000X-2.050000X2.050000X-2.050000X2.050000X2.050000X-2.050000X2.050000X0*%
%ADD47RoundRect,0.250000X-0.250000X-0.325000X0.250000X-0.325000X0.250000X0.325000X-0.250000X0.325000X0*%
%ADD48C,0.400000*%
%ADD49RoundRect,0.100000X-0.580000X0.245000X-0.580000X-0.245000X0.580000X-0.245000X0.580000X0.245000X0*%
%ADD50RoundRect,0.100000X-0.590000X0.245000X-0.590000X-0.245000X0.590000X-0.245000X0.590000X0.245000X0*%
%ADD51RoundRect,0.100000X-0.275000X-0.550000X0.275000X-0.550000X0.275000X0.550000X-0.275000X0.550000X0*%
%ADD52RoundRect,0.100000X-0.150000X-0.550000X0.150000X-0.550000X0.150000X0.550000X-0.150000X0.550000X0*%
%ADD53RoundRect,0.100000X0.190000X0.390000X-0.190000X0.390000X-0.190000X-0.390000X0.190000X-0.390000X0*%
%ADD54RoundRect,0.100000X0.180000X0.780000X-0.180000X0.780000X-0.180000X-0.780000X0.180000X-0.780000X0*%
%ADD55RoundRect,0.100000X-1.510000X-3.750000X1.510000X-3.750000X1.510000X3.750000X-1.510000X3.750000X0*%
%ADD56RoundRect,0.293478X-0.381522X-1.156522X0.381522X-1.156522X0.381522X1.156522X-0.381522X1.156522X0*%
%ADD57RoundRect,0.250000X0.325000X-0.250000X0.325000X0.250000X-0.325000X0.250000X-0.325000X-0.250000X0*%
%ADD58RoundRect,0.250000X-0.325000X0.250000X-0.325000X-0.250000X0.325000X-0.250000X0.325000X0.250000X0*%
%ADD59RoundRect,0.200000X0.637500X0.200000X-0.637500X0.200000X-0.637500X-0.200000X0.637500X-0.200000X0*%
%ADD60O,1.650000X0.580000*%
%ADD61RoundRect,0.200000X-0.637500X-0.200000X0.637500X-0.200000X0.637500X0.200000X-0.637500X0.200000X0*%
%ADD62RoundRect,0.100000X0.205000X0.700000X-0.205000X0.700000X-0.205000X-0.700000X0.205000X-0.700000X0*%
%ADD63O,0.580000X1.650000*%
%ADD64RoundRect,0.100000X0.400000X0.840000X-0.400000X0.840000X-0.400000X-0.840000X0.400000X-0.840000X0*%
%ADD65RoundRect,0.100000X0.645000X0.700000X-0.645000X0.700000X-0.645000X-0.700000X0.645000X-0.700000X0*%
%ADD66RoundRect,0.100000X0.645000X0.650000X-0.645000X0.650000X-0.645000X-0.650000X0.645000X-0.650000X0*%
%ADD67RoundRect,0.100000X0.800000X0.750000X-0.800000X0.750000X-0.800000X-0.750000X0.800000X-0.750000X0*%
%ADD68RoundRect,0.100000X0.850000X0.750000X-0.850000X0.750000X-0.850000X-0.750000X0.850000X-0.750000X0*%
%ADD69RoundRect,0.100000X0.750000X0.850000X-0.750000X0.850000X-0.750000X-0.850000X0.750000X-0.850000X0*%
%ADD70RoundRect,0.100000X-0.380000X-0.635000X0.380000X-0.635000X0.380000X0.635000X-0.380000X0.635000X0*%
%ADD71RoundRect,0.100000X1.900000X2.400000X-1.900000X2.400000X-1.900000X-2.400000X1.900000X-2.400000X0*%
%ADD72FreePoly0,180.000000*%
%ADD73FreePoly1,180.000000*%
%ADD74FreePoly2,180.000000*%
%ADD75FreePoly3,180.000000*%
%ADD76RoundRect,0.100000X0.000000X0.339411X-0.339411X0.000000X0.000000X-0.339411X0.339411X0.000000X0*%
G04 APERTURE END LIST*
D10*
%TO.C,R167*%
X154978600Y-108615000D03*
X154978600Y-107595000D03*
%TD*%
D11*
%TO.C,R183*%
X149023600Y-98585000D03*
X149023600Y-99605000D03*
%TD*%
D12*
%TO.C,C94*%
X131244959Y-108121895D03*
X131244959Y-106571895D03*
%TD*%
D13*
%TO.C,U29*%
X113070000Y-48370000D03*
X113720000Y-48370000D03*
X114370000Y-48370000D03*
X115020000Y-48370000D03*
X115680000Y-48370000D03*
X116330000Y-48370000D03*
X116980000Y-48370000D03*
X117630000Y-48370000D03*
X118280000Y-48370000D03*
X118930000Y-48370000D03*
X118930000Y-42630000D03*
X118280000Y-42630000D03*
X117630000Y-42630000D03*
X116980000Y-42630000D03*
X116330000Y-42630000D03*
X115680000Y-42630000D03*
X115020000Y-42630000D03*
X114370000Y-42630000D03*
X113720000Y-42630000D03*
X113070000Y-42630000D03*
%TD*%
D14*
%TO.C,R115*%
X103393000Y-92459000D03*
X103393000Y-91599000D03*
%TD*%
%TO.C,R118*%
X104719400Y-92507132D03*
X104719400Y-91647132D03*
%TD*%
D15*
%TO.C,C73*%
X163762600Y-119036000D03*
X164862600Y-119036000D03*
%TD*%
D16*
%TO.C,C7*%
X188028300Y-69868600D03*
X188028300Y-68768600D03*
%TD*%
D17*
%TO.C,C4*%
X169001400Y-54327699D03*
X169001400Y-57277699D03*
%TD*%
D11*
%TO.C,R97*%
X133605400Y-51495400D03*
X133605400Y-52515400D03*
%TD*%
D18*
%TO.C,R85*%
X108989400Y-91033600D03*
X110009400Y-91033600D03*
%TD*%
D19*
%TO.C,C116*%
X147728600Y-97205000D03*
X146178600Y-97205000D03*
%TD*%
D20*
%TO.C,R173*%
X143923600Y-103875000D03*
X142903600Y-103875000D03*
%TD*%
D12*
%TO.C,C92*%
X149458600Y-96755000D03*
X149458600Y-95205000D03*
%TD*%
D21*
%TO.C,C40*%
X165116600Y-93268800D03*
X164016600Y-93268800D03*
%TD*%
D22*
%TO.C,R21*%
X192862200Y-119407200D03*
X192862200Y-120267200D03*
%TD*%
D23*
%TO.C,U5*%
X193791600Y-69458600D03*
X193141600Y-69458600D03*
X192491600Y-69458600D03*
X191831600Y-69458600D03*
X191181600Y-69458600D03*
X190531600Y-69458600D03*
X189881600Y-69458600D03*
X189231600Y-69458600D03*
X190531600Y-75198600D03*
X189881600Y-75198600D03*
X189231600Y-75198600D03*
X191181600Y-75198600D03*
X191831600Y-75198600D03*
X192491600Y-75198600D03*
X193141600Y-75198600D03*
X193791600Y-75198600D03*
D24*
X191511600Y-72328600D03*
%TD*%
D25*
%TO.C,SW2*%
X174893000Y-132697800D03*
X170293000Y-132697800D03*
X174893000Y-131097800D03*
X170293000Y-131097800D03*
D26*
X172593000Y-133417800D03*
%TD*%
D27*
%TO.C,C106*%
X154153600Y-97155000D03*
X155703600Y-97155000D03*
%TD*%
D28*
%TO.C,R198*%
X124475250Y-75901750D03*
X122825250Y-75901750D03*
%TD*%
D29*
%TO.C,R18*%
X190833800Y-107746800D03*
X191693800Y-107746800D03*
%TD*%
D15*
%TO.C,C22*%
X186114600Y-117856000D03*
X187214600Y-117856000D03*
%TD*%
D14*
%TO.C,R188*%
X137078600Y-107665000D03*
X137078600Y-106805000D03*
%TD*%
D15*
%TO.C,C81*%
X163762600Y-124236000D03*
X164862600Y-124236000D03*
%TD*%
D10*
%TO.C,R177*%
X153920000Y-111810000D03*
X153920000Y-110790000D03*
%TD*%
D27*
%TO.C,C101*%
X154135787Y-101784442D03*
X155685787Y-101784442D03*
%TD*%
D30*
%TO.C,J7*%
X152815200Y-54751600D03*
X152815200Y-60923600D03*
X152315200Y-54751600D03*
X152315200Y-60923600D03*
X151815200Y-54751600D03*
X151815200Y-60923600D03*
X151315200Y-54751600D03*
X151315200Y-60923600D03*
X150815200Y-54751600D03*
X150815200Y-60923600D03*
X150315200Y-54751600D03*
X150315200Y-60923600D03*
X149815200Y-54751600D03*
X149815200Y-60923600D03*
X149315200Y-54751600D03*
X149315200Y-60923600D03*
X148815200Y-54751600D03*
X148815200Y-60923600D03*
X148315200Y-54751600D03*
X148315200Y-60923600D03*
X147815200Y-54751600D03*
X147815200Y-60923600D03*
X147315200Y-54751600D03*
X147315200Y-60923600D03*
X146815200Y-54751600D03*
X146815200Y-60923600D03*
X146315200Y-54751600D03*
X146315200Y-60923600D03*
X145815200Y-54751600D03*
X145815200Y-60923600D03*
X145315200Y-54751600D03*
X145315200Y-60923600D03*
X144815200Y-54751600D03*
X144815200Y-60923600D03*
X144315200Y-54751600D03*
X144315200Y-60923600D03*
X143815200Y-54751600D03*
X143815200Y-60923600D03*
X143315200Y-54751600D03*
X143315200Y-60923600D03*
X142815200Y-54751600D03*
X142815200Y-60923600D03*
X142315200Y-54751600D03*
X142315200Y-60923600D03*
X141815200Y-54751600D03*
X141815200Y-60923600D03*
X141315200Y-54751600D03*
X141315200Y-60923600D03*
X140815200Y-54751600D03*
X140815200Y-60923600D03*
X140315200Y-54751600D03*
X140315200Y-60923600D03*
X139815200Y-54751600D03*
X139815200Y-60923600D03*
X139315200Y-54751600D03*
X139315200Y-60923600D03*
X138815200Y-54751600D03*
X138815200Y-60923600D03*
X138315200Y-54751600D03*
X138315200Y-60923600D03*
X137815200Y-54751600D03*
X137815200Y-60923600D03*
X137315200Y-54751600D03*
X137315200Y-60923600D03*
X136815200Y-54751600D03*
X136815200Y-60923600D03*
X136315200Y-54751600D03*
X136315200Y-60923600D03*
X135815200Y-54751600D03*
X135815200Y-60923600D03*
X135315200Y-54751600D03*
X135315200Y-60923600D03*
X134815200Y-54751600D03*
X134815200Y-60923600D03*
X134315200Y-54751600D03*
X134315200Y-60923600D03*
X133815200Y-54751600D03*
X133815200Y-60923600D03*
X133315200Y-54751600D03*
X133315200Y-60923600D03*
X132815200Y-54751600D03*
X132815200Y-60923600D03*
X132315200Y-54751600D03*
X132315200Y-60923600D03*
X131815200Y-54751600D03*
X131815200Y-60923600D03*
X131315200Y-54751600D03*
X131315200Y-60923600D03*
X130815200Y-54751600D03*
X130815200Y-60923600D03*
X130315200Y-54751600D03*
X130315200Y-60923600D03*
X129815200Y-54751600D03*
X129815200Y-60923600D03*
X129315200Y-54751600D03*
X129315200Y-60923600D03*
X128815200Y-54751600D03*
X128815200Y-60923600D03*
X128315200Y-54751600D03*
X128315200Y-60923600D03*
X127815200Y-54751600D03*
X127815200Y-60923600D03*
X127315200Y-54751600D03*
X127315200Y-60923600D03*
X126815200Y-54751600D03*
X126815200Y-60923600D03*
X126315200Y-54751600D03*
X126315200Y-60923600D03*
X125815200Y-54751600D03*
X125815200Y-60923600D03*
X125315200Y-54751600D03*
X125315200Y-60923600D03*
X124815200Y-54751600D03*
X124815200Y-60923600D03*
X124315200Y-54751600D03*
X124315200Y-60923600D03*
X123815200Y-54751600D03*
X123815200Y-60923600D03*
X123315200Y-54751600D03*
X123315200Y-60923600D03*
X122815200Y-54751600D03*
X122815200Y-60923600D03*
X122315200Y-54751600D03*
X122315200Y-60923600D03*
X121815200Y-54751600D03*
X121815200Y-60923600D03*
X121315200Y-54751600D03*
X121315200Y-60923600D03*
X120815200Y-54751600D03*
X120815200Y-60923600D03*
X120315200Y-54751600D03*
X120315200Y-60923600D03*
X119815200Y-54751600D03*
X119815200Y-60923600D03*
X119315200Y-54751600D03*
X119315200Y-60923600D03*
X118815200Y-54751600D03*
X118815200Y-60923600D03*
X118315200Y-54751600D03*
X118315200Y-60923600D03*
%TD*%
D31*
%TO.C,U4*%
X180584352Y-83807648D03*
X180584352Y-84457648D03*
X180584352Y-85117648D03*
X180584352Y-85767648D03*
X185184352Y-85767648D03*
X185184352Y-85117648D03*
X185184352Y-84457648D03*
X185184352Y-83807648D03*
%TD*%
D21*
%TO.C,C20*%
X190951178Y-101346000D03*
X189851178Y-101346000D03*
%TD*%
D32*
%TO.C,Y2*%
X157244705Y-106845359D03*
X159444705Y-106845359D03*
X159444705Y-105245359D03*
X157244705Y-105245359D03*
%TD*%
D33*
%TO.C,C118*%
X171527200Y-127895400D03*
X171527200Y-128995400D03*
%TD*%
D15*
%TO.C,C35*%
X180484352Y-92637648D03*
X181584352Y-92637648D03*
%TD*%
D34*
%TO.C,C90*%
X154728600Y-104855000D03*
X154728600Y-106405000D03*
%TD*%
D27*
%TO.C,C115*%
X157153600Y-103305000D03*
X158703600Y-103305000D03*
%TD*%
D21*
%TO.C,C30*%
X162170200Y-109321600D03*
X161070200Y-109321600D03*
%TD*%
D35*
%TO.C,L2*%
X180111400Y-107289600D03*
X170211400Y-107289600D03*
%TD*%
D36*
%TO.C,C36*%
X177163100Y-92160600D03*
X177163100Y-99040600D03*
%TD*%
D10*
%TO.C,R192*%
X136348200Y-98220200D03*
X136348200Y-97200200D03*
%TD*%
D34*
%TO.C,C124*%
X140978600Y-101005000D03*
X140978600Y-102555000D03*
%TD*%
D37*
%TO.C,U11*%
X184899800Y-117243600D03*
X184899800Y-116743600D03*
X184899800Y-116243600D03*
X184899800Y-115743600D03*
X184899800Y-115243600D03*
X184899800Y-114743600D03*
X184899800Y-114243600D03*
X184899800Y-113743600D03*
X184899800Y-113243600D03*
X184899800Y-112743600D03*
D38*
X183479800Y-114993600D03*
D39*
X182729800Y-112073600D03*
X183229800Y-112073600D03*
X183729800Y-112073600D03*
X184229800Y-112073600D03*
D37*
X182059800Y-114743600D03*
X182059800Y-114243600D03*
X182059800Y-113743600D03*
X182059800Y-113243600D03*
X182059800Y-112743600D03*
X182059800Y-115243600D03*
X182059800Y-115743600D03*
X182059800Y-116243600D03*
X182059800Y-116743600D03*
X182059800Y-117243600D03*
D39*
X182729800Y-117913600D03*
X183229800Y-117913600D03*
X183729800Y-117913600D03*
X184229800Y-117913600D03*
%TD*%
D33*
%TO.C,C14*%
X162061600Y-69878600D03*
X162061600Y-70978600D03*
%TD*%
D29*
%TO.C,R180*%
X153948600Y-109655000D03*
X154808600Y-109655000D03*
%TD*%
D34*
%TO.C,C123*%
X142578600Y-101030000D03*
X142578600Y-102580000D03*
%TD*%
D14*
%TO.C,R113*%
X100787000Y-92424800D03*
X100787000Y-91564800D03*
%TD*%
D27*
%TO.C,C95*%
X154135787Y-98734442D03*
X155685787Y-98734442D03*
%TD*%
D10*
%TO.C,R99*%
X131834800Y-63436400D03*
X131834800Y-62416400D03*
%TD*%
D21*
%TO.C,C24*%
X180864600Y-114401600D03*
X179764600Y-114401600D03*
%TD*%
D10*
%TO.C,R88*%
X140369200Y-93865600D03*
X140369200Y-92845600D03*
%TD*%
%TO.C,R165*%
X135714959Y-108256895D03*
X135714959Y-107236895D03*
%TD*%
D40*
%TO.C,R109*%
X109872400Y-92705000D03*
X109012400Y-92705000D03*
%TD*%
D15*
%TO.C,C25*%
X179773400Y-117703600D03*
X180873400Y-117703600D03*
%TD*%
D12*
%TO.C,C121*%
X144068600Y-99480000D03*
X144068600Y-97930000D03*
%TD*%
D27*
%TO.C,C104*%
X154135625Y-103306229D03*
X155685625Y-103306229D03*
%TD*%
D16*
%TO.C,C21*%
X187311400Y-112839600D03*
X187311400Y-111739600D03*
%TD*%
D41*
%TO.C,U22*%
X120688400Y-83277600D03*
X121338400Y-83277600D03*
X121988400Y-83277600D03*
D42*
X121988400Y-81377600D03*
X121338400Y-81377600D03*
X120688400Y-81377600D03*
%TD*%
D15*
%TO.C,C79*%
X164270600Y-105317600D03*
X165370600Y-105317600D03*
%TD*%
D28*
%TO.C,R31*%
X166699603Y-76580247D03*
X165049603Y-76580247D03*
%TD*%
D10*
%TO.C,R194*%
X143978600Y-105915000D03*
X143978600Y-104895000D03*
%TD*%
D40*
%TO.C,R161*%
X117403400Y-80252600D03*
X116543400Y-80252600D03*
%TD*%
D12*
%TO.C,C117*%
X140918600Y-98230000D03*
X140918600Y-96680000D03*
%TD*%
D36*
%TO.C,C12*%
X172061600Y-71738600D03*
X172061600Y-78618600D03*
%TD*%
D14*
%TO.C,R36*%
X191034352Y-85697648D03*
X191034352Y-84837648D03*
%TD*%
D11*
%TO.C,R193*%
X142958600Y-104905000D03*
X142958600Y-105925000D03*
%TD*%
%TO.C,R95*%
X139041000Y-51495400D03*
X139041000Y-52515400D03*
%TD*%
D10*
%TO.C,R87*%
X141893200Y-93865600D03*
X141893200Y-92845600D03*
%TD*%
D40*
%TO.C,R160*%
X120993400Y-80252600D03*
X120133400Y-80252600D03*
%TD*%
%TO.C,R107*%
X99575000Y-92375000D03*
X98715000Y-92375000D03*
%TD*%
D15*
%TO.C,C72*%
X164270600Y-101429200D03*
X165370600Y-101429200D03*
%TD*%
D16*
%TO.C,C91*%
X134406600Y-101773000D03*
X134406600Y-100673000D03*
%TD*%
D43*
%TO.C,U8*%
X193831978Y-98383600D03*
X193831978Y-97883600D03*
X193831978Y-97383600D03*
X193831978Y-96883600D03*
X193831978Y-96383600D03*
X189611978Y-96383600D03*
X189611978Y-96883600D03*
X189611978Y-97383600D03*
X189611978Y-97883600D03*
X189611978Y-98383600D03*
%TD*%
D44*
%TO.C,U25*%
X146408600Y-109725000D03*
X146908600Y-109725000D03*
X147408600Y-109725000D03*
X147908600Y-109725000D03*
X148408600Y-109725000D03*
X148908600Y-109725000D03*
X149408600Y-109725000D03*
X149908600Y-109725000D03*
X150408600Y-109725000D03*
X150908600Y-109725000D03*
X151408600Y-109725000D03*
X151908600Y-109725000D03*
D45*
X152628600Y-109005000D03*
X152628600Y-108505000D03*
X152628600Y-108005000D03*
X152628600Y-107505000D03*
X152628600Y-107005000D03*
X152628600Y-106505000D03*
X152628600Y-106005000D03*
X152628600Y-105505000D03*
X152628600Y-105005000D03*
X152628600Y-104505000D03*
X152628600Y-104005000D03*
X152628600Y-103505000D03*
D44*
X151908600Y-102785000D03*
X151408600Y-102785000D03*
X150908600Y-102785000D03*
X150408600Y-102785000D03*
X149908600Y-102785000D03*
X149408600Y-102785000D03*
X148908600Y-102785000D03*
X148408600Y-102785000D03*
X147908600Y-102785000D03*
X147408600Y-102785000D03*
X146908600Y-102785000D03*
X146408600Y-102785000D03*
D45*
X145688600Y-103505000D03*
X145688600Y-104005000D03*
X145688600Y-104505000D03*
X145688600Y-105005000D03*
X145688600Y-105505000D03*
X145688600Y-106005000D03*
X145688600Y-106505000D03*
X145688600Y-107005000D03*
X145688600Y-107505000D03*
X145688600Y-108005000D03*
X145688600Y-108505000D03*
X145688600Y-109005000D03*
D46*
X149158600Y-106255000D03*
%TD*%
D28*
%TO.C,R14*%
X191022978Y-99923600D03*
X189372978Y-99923600D03*
%TD*%
D22*
%TO.C,R27*%
X186055000Y-114456000D03*
X186055000Y-115316000D03*
%TD*%
D47*
%TO.C,R196*%
X113427250Y-77497950D03*
X115077250Y-77497950D03*
%TD*%
D29*
%TO.C,R12*%
X180951600Y-73628600D03*
X181811600Y-73628600D03*
%TD*%
%TO.C,R43*%
X186654352Y-91837648D03*
X187514352Y-91837648D03*
%TD*%
D23*
%TO.C,U9*%
X193008600Y-111938000D03*
X192358600Y-111938000D03*
X191708600Y-111938000D03*
X191048600Y-111938000D03*
X190398600Y-111938000D03*
X189748600Y-111938000D03*
X189098600Y-111938000D03*
X188448600Y-111938000D03*
X189748600Y-117678000D03*
X189098600Y-117678000D03*
X188448600Y-117678000D03*
X190398600Y-117678000D03*
X191048600Y-117678000D03*
X191708600Y-117678000D03*
X192358600Y-117678000D03*
X193008600Y-117678000D03*
D24*
X190728600Y-114808000D03*
%TD*%
D22*
%TO.C,R102*%
X134788400Y-93237600D03*
X134788400Y-94097600D03*
%TD*%
D10*
%TO.C,R100*%
X129853600Y-63434400D03*
X129853600Y-62414400D03*
%TD*%
D17*
%TO.C,C5*%
X175914800Y-54300000D03*
X175914800Y-57250000D03*
%TD*%
D48*
%TO.C,U18*%
X103800000Y-89950000D03*
X104300000Y-89950000D03*
X104800000Y-89950000D03*
X103800000Y-90450000D03*
X104300000Y-90450000D03*
X104800000Y-90450000D03*
%TD*%
D10*
%TO.C,R171*%
X146478600Y-101555000D03*
X146478600Y-100535000D03*
%TD*%
D33*
%TO.C,C15*%
X168811600Y-72428600D03*
X168811600Y-73528600D03*
%TD*%
D18*
%TO.C,R195*%
X138118600Y-105607500D03*
X139138600Y-105607500D03*
%TD*%
D27*
%TO.C,C112*%
X157203600Y-100255000D03*
X158753600Y-100255000D03*
%TD*%
D17*
%TO.C,C1*%
X172451400Y-54332699D03*
X172451400Y-57282699D03*
%TD*%
D11*
%TO.C,R176*%
X152900000Y-110790000D03*
X152900000Y-111810000D03*
%TD*%
D34*
%TO.C,C60*%
X116594800Y-62761000D03*
X116594800Y-64311000D03*
%TD*%
D27*
%TO.C,C108*%
X157210787Y-98734442D03*
X158760787Y-98734442D03*
%TD*%
D28*
%TO.C,R15*%
X194070978Y-99923600D03*
X192420978Y-99923600D03*
%TD*%
D40*
%TO.C,R108*%
X99592800Y-91061678D03*
X98732800Y-91061678D03*
%TD*%
D27*
%TO.C,C114*%
X157153600Y-101755000D03*
X158703600Y-101755000D03*
%TD*%
D10*
%TO.C,R174*%
X149478600Y-101565000D03*
X149478600Y-100545000D03*
%TD*%
D19*
%TO.C,C120*%
X147703600Y-95655000D03*
X146153600Y-95655000D03*
%TD*%
D12*
%TO.C,C119*%
X142478600Y-99455000D03*
X142478600Y-97905000D03*
%TD*%
D22*
%TO.C,R6*%
X193600400Y-76773800D03*
X193600400Y-77633800D03*
%TD*%
D19*
%TO.C,C113*%
X152378600Y-98305000D03*
X150828600Y-98305000D03*
%TD*%
D11*
%TO.C,R93*%
X144527400Y-51497400D03*
X144527400Y-52517400D03*
%TD*%
D14*
%TO.C,R103*%
X119735600Y-133321000D03*
X119735600Y-132461000D03*
%TD*%
D22*
%TO.C,R37*%
X192334352Y-84857648D03*
X192334352Y-85717648D03*
%TD*%
D15*
%TO.C,C78*%
X163762600Y-121636000D03*
X164862600Y-121636000D03*
%TD*%
D29*
%TO.C,R2*%
X191775200Y-65242200D03*
X192635200Y-65242200D03*
%TD*%
D22*
%TO.C,R8*%
X192308800Y-76787400D03*
X192308800Y-77647400D03*
%TD*%
D33*
%TO.C,C23*%
X168033803Y-79805047D03*
X168033803Y-80905047D03*
%TD*%
D49*
%TO.C,U24*%
X132006600Y-103273000D03*
X132006600Y-104223000D03*
X132006600Y-105173000D03*
D50*
X134306600Y-105173000D03*
X134306600Y-103273000D03*
%TD*%
D10*
%TO.C,R184*%
X148023600Y-99615000D03*
X148023600Y-98595000D03*
%TD*%
D12*
%TO.C,C97*%
X132814959Y-108121895D03*
X132814959Y-106571895D03*
%TD*%
D40*
%TO.C,R19*%
X192608200Y-110286800D03*
X191748200Y-110286800D03*
%TD*%
D29*
%TO.C,R178*%
X135876600Y-104173000D03*
X136736600Y-104173000D03*
%TD*%
D51*
%TO.C,USB1*%
X160706200Y-127728500D03*
X161506200Y-127728500D03*
D52*
X162156200Y-127728500D03*
X162656200Y-127728500D03*
X163156200Y-127728500D03*
X163656200Y-127728500D03*
X164156200Y-127728500D03*
X164656200Y-127728500D03*
X165156200Y-127728500D03*
X165656200Y-127728500D03*
D51*
X166306200Y-127728500D03*
X167106200Y-127728500D03*
%TD*%
D14*
%TO.C,R191*%
X140288600Y-105610000D03*
X140288600Y-104750000D03*
%TD*%
D10*
%TO.C,R182*%
X146973600Y-99605000D03*
X146973600Y-98585000D03*
%TD*%
D16*
%TO.C,C87*%
X131806600Y-101773000D03*
X131806600Y-100673000D03*
%TD*%
D15*
%TO.C,C82*%
X163787600Y-117672600D03*
X164887600Y-117672600D03*
%TD*%
D47*
%TO.C,R200*%
X113427250Y-75923150D03*
X115077250Y-75923150D03*
%TD*%
D12*
%TO.C,C107*%
X142678600Y-110730000D03*
X142678600Y-109180000D03*
%TD*%
D19*
%TO.C,C59*%
X114359600Y-62723200D03*
X112809600Y-62723200D03*
%TD*%
D11*
%TO.C,R175*%
X153928600Y-107595000D03*
X153928600Y-108615000D03*
%TD*%
D22*
%TO.C,R197*%
X130302000Y-52198800D03*
X130302000Y-53058800D03*
%TD*%
D10*
%TO.C,R101*%
X137321200Y-63438400D03*
X137321200Y-62418400D03*
%TD*%
D19*
%TO.C,C111*%
X152378600Y-99835000D03*
X150828600Y-99835000D03*
%TD*%
D53*
%TO.C,U27*%
X139628600Y-106835000D03*
X138978600Y-106835000D03*
X138328600Y-106835000D03*
X138328600Y-108815000D03*
X138978600Y-108815000D03*
X139628600Y-108815000D03*
%TD*%
D16*
%TO.C,C88*%
X133085400Y-101773000D03*
X133085400Y-100673000D03*
%TD*%
D21*
%TO.C,C39*%
X165094352Y-91907648D03*
X163994352Y-91907648D03*
%TD*%
D29*
%TO.C,R11*%
X186788400Y-73355000D03*
X187648400Y-73355000D03*
%TD*%
D14*
%TO.C,R106*%
X130888400Y-94057600D03*
X130888400Y-93197600D03*
%TD*%
D54*
%TO.C,U7*%
X167761600Y-67028600D03*
X167111600Y-67028600D03*
X166461600Y-67028600D03*
X165811600Y-67028600D03*
X165151600Y-67028600D03*
X164501600Y-72588600D03*
X164501600Y-67028600D03*
X163851600Y-67028600D03*
X163201600Y-67028600D03*
X163201600Y-72588600D03*
X163851600Y-72588600D03*
X165151600Y-72588600D03*
X165811600Y-72588600D03*
X167761600Y-72588600D03*
X167111600Y-72588600D03*
X166461600Y-72588600D03*
%TD*%
D15*
%TO.C,C75*%
X163762600Y-120336000D03*
X164862600Y-120336000D03*
%TD*%
D29*
%TO.C,R13*%
X183981600Y-75528600D03*
X184841600Y-75528600D03*
%TD*%
D10*
%TO.C,R169*%
X148478600Y-101565000D03*
X148478600Y-100545000D03*
%TD*%
D40*
%TO.C,R179*%
X136736701Y-105446008D03*
X135876701Y-105446008D03*
%TD*%
D55*
%TO.C,L3*%
X177964352Y-86540648D03*
X171304352Y-86540648D03*
%TD*%
D29*
%TO.C,R20*%
X189665400Y-110286800D03*
X190525400Y-110286800D03*
%TD*%
D10*
%TO.C,R89*%
X149157600Y-93867600D03*
X149157600Y-92847600D03*
%TD*%
D34*
%TO.C,C122*%
X144128600Y-100980000D03*
X144128600Y-102530000D03*
%TD*%
%TO.C,C57*%
X118169600Y-62761000D03*
X118169600Y-64311000D03*
%TD*%
D28*
%TO.C,R201*%
X124475250Y-77497950D03*
X122825250Y-77497950D03*
%TD*%
D10*
%TO.C,R92*%
X146109600Y-93865600D03*
X146109600Y-92845600D03*
%TD*%
D14*
%TO.C,R114*%
X102097600Y-92433600D03*
X102097600Y-91573600D03*
%TD*%
D30*
%TO.C,J6*%
X148355200Y-85191600D03*
X148355200Y-91363600D03*
X147855200Y-85191600D03*
X147855200Y-91363600D03*
X147355200Y-85191600D03*
X147355200Y-91363600D03*
X146855200Y-85191600D03*
X146855200Y-91363600D03*
X146355200Y-85191600D03*
X146355200Y-91363600D03*
X145855200Y-85191600D03*
X145855200Y-91363600D03*
X145355200Y-85191600D03*
X145355200Y-91363600D03*
X144855200Y-85191600D03*
X144855200Y-91363600D03*
X144355200Y-85191600D03*
X144355200Y-91363600D03*
X143855200Y-85191600D03*
X143855200Y-91363600D03*
X143355200Y-85191600D03*
X143355200Y-91363600D03*
X142855200Y-85191600D03*
X142855200Y-91363600D03*
X142355200Y-85191600D03*
X142355200Y-91363600D03*
X141855200Y-85191600D03*
X141855200Y-91363600D03*
X141355200Y-85191600D03*
X141355200Y-91363600D03*
X140855200Y-85191600D03*
X140855200Y-91363600D03*
X140355200Y-85191600D03*
X140355200Y-91363600D03*
X139855200Y-85191600D03*
X139855200Y-91363600D03*
X139355200Y-85191600D03*
X139355200Y-91363600D03*
X138855200Y-85191600D03*
X138855200Y-91363600D03*
X138355200Y-85191600D03*
X138355200Y-91363600D03*
X137855200Y-85191600D03*
X137855200Y-91363600D03*
X137355200Y-85191600D03*
X137355200Y-91363600D03*
X136855200Y-85191600D03*
X136855200Y-91363600D03*
X136355200Y-85191600D03*
X136355200Y-91363600D03*
X135855200Y-85191600D03*
X135855200Y-91363600D03*
X135355200Y-85191600D03*
X135355200Y-91363600D03*
X134855200Y-85191600D03*
X134855200Y-91363600D03*
X134355200Y-85191600D03*
X134355200Y-91363600D03*
X133855200Y-85191600D03*
X133855200Y-91363600D03*
X133355200Y-85191600D03*
X133355200Y-91363600D03*
X132855200Y-85191600D03*
X132855200Y-91363600D03*
X132355200Y-85191600D03*
X132355200Y-91363600D03*
X131855200Y-85191600D03*
X131855200Y-91363600D03*
X131355200Y-85191600D03*
X131355200Y-91363600D03*
X130855200Y-85191600D03*
X130855200Y-91363600D03*
X130355200Y-85191600D03*
X130355200Y-91363600D03*
X129855200Y-85191600D03*
X129855200Y-91363600D03*
X129355200Y-85191600D03*
X129355200Y-91363600D03*
X128855200Y-85191600D03*
X128855200Y-91363600D03*
X128355200Y-85191600D03*
X128355200Y-91363600D03*
X127855200Y-85191600D03*
X127855200Y-91363600D03*
X127355200Y-85191600D03*
X127355200Y-91363600D03*
X126855200Y-85191600D03*
X126855200Y-91363600D03*
X126355200Y-85191600D03*
X126355200Y-91363600D03*
X125855200Y-85191600D03*
X125855200Y-91363600D03*
X125355200Y-85191600D03*
X125355200Y-91363600D03*
X124855200Y-85191600D03*
X124855200Y-91363600D03*
X124355200Y-85191600D03*
X124355200Y-91363600D03*
X123855200Y-85191600D03*
X123855200Y-91363600D03*
X123355200Y-85191600D03*
X123355200Y-91363600D03*
X122855200Y-85191600D03*
X122855200Y-91363600D03*
X122355200Y-85191600D03*
X122355200Y-91363600D03*
X121855200Y-85191600D03*
X121855200Y-91363600D03*
X121355200Y-85191600D03*
X121355200Y-91363600D03*
X120855200Y-85191600D03*
X120855200Y-91363600D03*
X120355200Y-85191600D03*
X120355200Y-91363600D03*
X119855200Y-85191600D03*
X119855200Y-91363600D03*
X119355200Y-85191600D03*
X119355200Y-91363600D03*
X118855200Y-85191600D03*
X118855200Y-91363600D03*
X118355200Y-85191600D03*
X118355200Y-91363600D03*
X117855200Y-85191600D03*
X117855200Y-91363600D03*
X117355200Y-85191600D03*
X117355200Y-91363600D03*
X116855200Y-85191600D03*
X116855200Y-91363600D03*
X116355200Y-85191600D03*
X116355200Y-91363600D03*
X115855200Y-85191600D03*
X115855200Y-91363600D03*
X115355200Y-85191600D03*
X115355200Y-91363600D03*
X114855200Y-85191600D03*
X114855200Y-91363600D03*
X114355200Y-85191600D03*
X114355200Y-91363600D03*
X113855200Y-85191600D03*
X113855200Y-91363600D03*
%TD*%
D10*
%TO.C,R172*%
X145478600Y-101555000D03*
X145478600Y-100535000D03*
%TD*%
D16*
%TO.C,C19*%
X194132200Y-115400000D03*
X194132200Y-114300000D03*
%TD*%
D56*
%TO.C,C18*%
X163599600Y-50215800D03*
X166549600Y-50215800D03*
%TD*%
%TO.C,C17*%
X163572400Y-46854800D03*
X166522400Y-46854800D03*
%TD*%
D57*
%TO.C,R26*%
X166636603Y-79691247D03*
X166636603Y-78041247D03*
%TD*%
D58*
%TO.C,R32*%
X166585803Y-81089247D03*
X166585803Y-82739247D03*
%TD*%
D59*
%TO.C,Q2*%
X138731200Y-96882200D03*
X138731200Y-94982200D03*
X136856200Y-95932200D03*
%TD*%
D22*
%TO.C,R7*%
X191008800Y-76777400D03*
X191008800Y-77637400D03*
%TD*%
D33*
%TO.C,C93*%
X159000000Y-113250000D03*
X159000000Y-114350000D03*
%TD*%
D29*
%TO.C,R33*%
X181561000Y-119024400D03*
X182421000Y-119024400D03*
%TD*%
D11*
%TO.C,R187*%
X143978600Y-106845000D03*
X143978600Y-107865000D03*
%TD*%
D22*
%TO.C,R22*%
X190311400Y-119409600D03*
X190311400Y-120269600D03*
%TD*%
D33*
%TO.C,C64*%
X106040200Y-91249468D03*
X106040200Y-92349468D03*
%TD*%
D11*
%TO.C,R94*%
X141327000Y-51495400D03*
X141327000Y-52515400D03*
%TD*%
D60*
%TO.C,U28*%
X121138050Y-78427150D03*
X121138050Y-77767150D03*
X121138050Y-77117150D03*
X121138050Y-76467150D03*
X116738050Y-76467150D03*
X116738050Y-77117150D03*
X116738050Y-77767150D03*
X116738050Y-78427150D03*
%TD*%
D37*
%TO.C,U14*%
X185584352Y-92187648D03*
X185584352Y-91687648D03*
X185584352Y-91187648D03*
X185584352Y-90687648D03*
X185584352Y-90187648D03*
X185584352Y-89687648D03*
X185584352Y-89187648D03*
X185584352Y-88687648D03*
X185584352Y-88187648D03*
X185584352Y-87687648D03*
D38*
X184164352Y-89937648D03*
D39*
X183414352Y-87017648D03*
X183914352Y-87017648D03*
X184414352Y-87017648D03*
X184914352Y-87017648D03*
D37*
X182744352Y-89687648D03*
X182744352Y-89187648D03*
X182744352Y-88687648D03*
X182744352Y-88187648D03*
X182744352Y-87687648D03*
X182744352Y-90187648D03*
X182744352Y-90687648D03*
X182744352Y-91187648D03*
X182744352Y-91687648D03*
X182744352Y-92187648D03*
D39*
X183414352Y-92857648D03*
X183914352Y-92857648D03*
X184414352Y-92857648D03*
X184914352Y-92857648D03*
%TD*%
D33*
%TO.C,C65*%
X107340200Y-91248600D03*
X107340200Y-92348600D03*
%TD*%
D27*
%TO.C,C98*%
X154160787Y-100254442D03*
X155710787Y-100254442D03*
%TD*%
D22*
%TO.C,R35*%
X193634352Y-84837648D03*
X193634352Y-85697648D03*
%TD*%
D10*
%TO.C,R90*%
X148141600Y-93867600D03*
X148141600Y-92847600D03*
%TD*%
D54*
%TO.C,U12*%
X168028200Y-107252800D03*
X167378200Y-107252800D03*
X166728200Y-107252800D03*
X166078200Y-107252800D03*
X165418200Y-107252800D03*
X164768200Y-112812800D03*
X164768200Y-107252800D03*
X164118200Y-107252800D03*
X163468200Y-107252800D03*
X163468200Y-112812800D03*
X164118200Y-112812800D03*
X165418200Y-112812800D03*
X166078200Y-112812800D03*
X168028200Y-112812800D03*
X167378200Y-112812800D03*
X166728200Y-112812800D03*
%TD*%
D10*
%TO.C,R91*%
X147125600Y-93865600D03*
X147125600Y-92845600D03*
%TD*%
D13*
%TO.C,U30*%
X121170000Y-48420000D03*
X121820000Y-48420000D03*
X122470000Y-48420000D03*
X123120000Y-48420000D03*
X123780000Y-48420000D03*
X124430000Y-48420000D03*
X125080000Y-48420000D03*
X125730000Y-48420000D03*
X126380000Y-48420000D03*
X127030000Y-48420000D03*
X127030000Y-42680000D03*
X126380000Y-42680000D03*
X125730000Y-42680000D03*
X125080000Y-42680000D03*
X124430000Y-42680000D03*
X123780000Y-42680000D03*
X123120000Y-42680000D03*
X122470000Y-42680000D03*
X121820000Y-42680000D03*
X121170000Y-42680000D03*
%TD*%
D14*
%TO.C,R189*%
X140878600Y-107665000D03*
X140878600Y-106805000D03*
%TD*%
D22*
%TO.C,R166*%
X130456600Y-103793000D03*
X130456600Y-104653000D03*
%TD*%
D36*
%TO.C,C37*%
X171113100Y-92160600D03*
X171113100Y-99040600D03*
%TD*%
D21*
%TO.C,C34*%
X181584352Y-89437648D03*
X180484352Y-89437648D03*
%TD*%
D12*
%TO.C,C100*%
X134394959Y-108146895D03*
X134394959Y-106596895D03*
%TD*%
D14*
%TO.C,R28*%
X187274200Y-115316000D03*
X187274200Y-114456000D03*
%TD*%
D17*
%TO.C,C2*%
X182750000Y-54325000D03*
X182750000Y-57275000D03*
%TD*%
D14*
%TO.C,R10*%
X188082000Y-72108600D03*
X188082000Y-71248600D03*
%TD*%
D61*
%TO.C,Q1*%
X138228600Y-98605000D03*
X138228600Y-100505000D03*
X140103600Y-99555000D03*
%TD*%
D19*
%TO.C,C109*%
X152403600Y-101355000D03*
X150853600Y-101355000D03*
%TD*%
D62*
%TO.C,U3*%
X181805000Y-120525000D03*
X181155000Y-120525000D03*
X180495000Y-120525000D03*
X179845000Y-120525000D03*
X179845000Y-125125000D03*
X180495000Y-125125000D03*
X181155000Y-125125000D03*
X181805000Y-125125000D03*
%TD*%
D40*
%TO.C,R5*%
X191568400Y-67782200D03*
X190708400Y-67782200D03*
%TD*%
D21*
%TO.C,C29*%
X162177000Y-110634400D03*
X161077000Y-110634400D03*
%TD*%
D31*
%TO.C,U2*%
X180721753Y-76961847D03*
X180721753Y-77611847D03*
X180721753Y-78271847D03*
X180721753Y-78921847D03*
X185321753Y-78921847D03*
X185321753Y-78271847D03*
X185321753Y-77611847D03*
X185321753Y-76961847D03*
%TD*%
D40*
%TO.C,R4*%
X193651200Y-67782200D03*
X192791200Y-67782200D03*
%TD*%
D10*
%TO.C,R170*%
X147478600Y-101565000D03*
X147478600Y-100545000D03*
%TD*%
D21*
%TO.C,C105*%
X157286705Y-111671359D03*
X156186705Y-111671359D03*
%TD*%
D63*
%TO.C,U10*%
X164975003Y-78291847D03*
X164315003Y-78291847D03*
X163665003Y-78291847D03*
X163015003Y-78291847D03*
X163015003Y-82691847D03*
X163665003Y-82691847D03*
X164315003Y-82691847D03*
X164975003Y-82691847D03*
%TD*%
D56*
%TO.C,C16*%
X163548800Y-43434000D03*
X166498800Y-43434000D03*
%TD*%
D12*
%TO.C,C103*%
X141118600Y-110705000D03*
X141118600Y-109155000D03*
%TD*%
D29*
%TO.C,R44*%
X180924352Y-93937648D03*
X181784352Y-93937648D03*
%TD*%
D41*
%TO.C,U23*%
X117038400Y-83277600D03*
X117688400Y-83277600D03*
X118338400Y-83277600D03*
D42*
X118338400Y-81377600D03*
X117688400Y-81377600D03*
X117038400Y-81377600D03*
%TD*%
D29*
%TO.C,R45*%
X183004352Y-93987648D03*
X183864352Y-93987648D03*
%TD*%
D27*
%TO.C,C102*%
X154153600Y-95605000D03*
X155703600Y-95605000D03*
%TD*%
D19*
%TO.C,C89*%
X157828600Y-108955000D03*
X156278600Y-108955000D03*
%TD*%
D29*
%TO.C,R3*%
X192791200Y-66512200D03*
X193651200Y-66512200D03*
%TD*%
D14*
%TO.C,R104*%
X132188400Y-94057600D03*
X132188400Y-93197600D03*
%TD*%
D29*
%TO.C,R17*%
X191748200Y-109016800D03*
X192608200Y-109016800D03*
%TD*%
D16*
%TO.C,C6*%
X194921200Y-72802600D03*
X194921200Y-71702600D03*
%TD*%
D64*
%TO.C,Card1*%
X102565000Y-94660000D03*
X103665000Y-94660000D03*
X104765000Y-94660000D03*
X105865000Y-94660000D03*
X106965000Y-94660000D03*
X108065000Y-94660000D03*
X109165000Y-94660000D03*
X110265000Y-94660000D03*
D65*
X112325000Y-103620000D03*
D66*
X112325000Y-96150000D03*
D67*
X111675000Y-94520000D03*
D68*
X99015000Y-94570000D03*
D69*
X98925000Y-109420000D03*
X112215000Y-109420000D03*
%TD*%
D70*
%TO.C,SW1*%
X118491000Y-132461000D03*
X118491000Y-124841000D03*
%TD*%
D16*
%TO.C,C31*%
X194784352Y-90737648D03*
X194784352Y-89637648D03*
%TD*%
D11*
%TO.C,R96*%
X136551800Y-51497400D03*
X136551800Y-52517400D03*
%TD*%
D40*
%TO.C,R16*%
X190525400Y-109016800D03*
X189665400Y-109016800D03*
%TD*%
D57*
%TO.C,R25*%
X161353403Y-79742047D03*
X161353403Y-78092047D03*
%TD*%
D36*
%TO.C,C26*%
X176453800Y-115112800D03*
X176453800Y-121992800D03*
%TD*%
D21*
%TO.C,C63*%
X174150000Y-127733600D03*
X173050000Y-127733600D03*
%TD*%
D22*
%TO.C,R190*%
X141578600Y-104745000D03*
X141578600Y-105605000D03*
%TD*%
D54*
%TO.C,U15*%
X168994352Y-84777648D03*
X168344352Y-84777648D03*
X167694352Y-84777648D03*
X167044352Y-84777648D03*
X166384352Y-84777648D03*
X165734352Y-90337648D03*
X165734352Y-84777648D03*
X165084352Y-84777648D03*
X164434352Y-84777648D03*
X164434352Y-90337648D03*
X165084352Y-90337648D03*
X166384352Y-90337648D03*
X167044352Y-90337648D03*
X168994352Y-90337648D03*
X168344352Y-90337648D03*
X167694352Y-90337648D03*
%TD*%
D40*
%TO.C,R1*%
X191592000Y-66512200D03*
X190732000Y-66512200D03*
%TD*%
D29*
%TO.C,R39*%
X190024352Y-94687648D03*
X190884352Y-94687648D03*
%TD*%
D15*
%TO.C,C10*%
X181461600Y-75528600D03*
X182561600Y-75528600D03*
%TD*%
D37*
%TO.C,U6*%
X185708100Y-73730600D03*
X185708100Y-73230600D03*
X185708100Y-72730600D03*
X185708100Y-72230600D03*
X185708100Y-71730600D03*
X185708100Y-71230600D03*
X185708100Y-70730600D03*
X185708100Y-70230600D03*
X185708100Y-69730600D03*
X185708100Y-69230600D03*
D38*
X184288100Y-71480600D03*
D39*
X183538100Y-68560600D03*
X184038100Y-68560600D03*
X184538100Y-68560600D03*
X185038100Y-68560600D03*
D37*
X182868100Y-71230600D03*
X182868100Y-70730600D03*
X182868100Y-70230600D03*
X182868100Y-69730600D03*
X182868100Y-69230600D03*
X182868100Y-71730600D03*
X182868100Y-72230600D03*
X182868100Y-72730600D03*
X182868100Y-73230600D03*
X182868100Y-73730600D03*
D39*
X183538100Y-74400600D03*
X184038100Y-74400600D03*
X184538100Y-74400600D03*
X185038100Y-74400600D03*
%TD*%
D17*
%TO.C,C3*%
X179285800Y-54344901D03*
X179285800Y-57294901D03*
%TD*%
D15*
%TO.C,C125*%
X173033600Y-129100000D03*
X174133600Y-129100000D03*
%TD*%
D28*
%TO.C,R199*%
X124487450Y-79072750D03*
X122837450Y-79072750D03*
%TD*%
D15*
%TO.C,C33*%
X186784352Y-93137648D03*
X187884352Y-93137648D03*
%TD*%
D19*
%TO.C,C58*%
X114359600Y-61148400D03*
X112809600Y-61148400D03*
%TD*%
D71*
%TO.C,L1*%
X180311600Y-63728600D03*
X170411600Y-63728600D03*
%TD*%
D22*
%TO.C,R105*%
X133488400Y-93217600D03*
X133488400Y-94077600D03*
%TD*%
D16*
%TO.C,C32*%
X187934352Y-88237648D03*
X187934352Y-87137648D03*
%TD*%
D15*
%TO.C,C77*%
X164270600Y-104017600D03*
X165370600Y-104017600D03*
%TD*%
D29*
%TO.C,R34*%
X183616600Y-119024400D03*
X184476600Y-119024400D03*
%TD*%
D21*
%TO.C,C28*%
X180864600Y-115722400D03*
X179764600Y-115722400D03*
%TD*%
D15*
%TO.C,C74*%
X164270600Y-102717600D03*
X165370600Y-102717600D03*
%TD*%
D58*
%TO.C,R24*%
X161353403Y-81140047D03*
X161353403Y-82790047D03*
%TD*%
D23*
%TO.C,U13*%
X193644352Y-87337648D03*
X192994352Y-87337648D03*
X192344352Y-87337648D03*
X191684352Y-87337648D03*
X191034352Y-87337648D03*
X190384352Y-87337648D03*
X189734352Y-87337648D03*
X189084352Y-87337648D03*
X190384352Y-93077648D03*
X189734352Y-93077648D03*
X189084352Y-93077648D03*
X191034352Y-93077648D03*
X191684352Y-93077648D03*
X192344352Y-93077648D03*
X192994352Y-93077648D03*
X193644352Y-93077648D03*
D24*
X191364352Y-90207648D03*
%TD*%
D21*
%TO.C,C38*%
X181584352Y-90737648D03*
X180484352Y-90737648D03*
%TD*%
D72*
%TO.C,U26*%
X156658705Y-110721359D03*
D73*
X156658705Y-110081359D03*
D74*
X155798705Y-110081359D03*
D75*
X155798705Y-110721359D03*
D76*
X156228705Y-110401359D03*
%TD*%
D10*
%TO.C,R98*%
X133816000Y-63436400D03*
X133816000Y-62416400D03*
%TD*%
D47*
%TO.C,R30*%
X161290403Y-84301847D03*
X162940403Y-84301847D03*
%TD*%
D12*
%TO.C,C110*%
X144228600Y-110730000D03*
X144228600Y-109180000D03*
%TD*%
D22*
%TO.C,R23*%
X191586400Y-119407200D03*
X191586400Y-120267200D03*
%TD*%
D14*
%TO.C,R42*%
X187934352Y-90547648D03*
X187934352Y-89687648D03*
%TD*%
D22*
%TO.C,R41*%
X186634352Y-89707648D03*
X186634352Y-90567648D03*
%TD*%
%TO.C,R9*%
X186811600Y-71248600D03*
X186811600Y-72108600D03*
%TD*%
D47*
%TO.C,R202*%
X113427250Y-79072750D03*
X115077250Y-79072750D03*
%TD*%
D11*
%TO.C,R181*%
X145923600Y-98595000D03*
X145923600Y-99615000D03*
%TD*%
D29*
%TO.C,R29*%
X186133000Y-116586000D03*
X186993000Y-116586000D03*
%TD*%
D15*
%TO.C,C8*%
X186922400Y-74675800D03*
X188022400Y-74675800D03*
%TD*%
D12*
%TO.C,C96*%
X151048600Y-96755000D03*
X151048600Y-95205000D03*
%TD*%
D21*
%TO.C,C13*%
X181630400Y-72356200D03*
X180530400Y-72356200D03*
%TD*%
D36*
%TO.C,C11*%
X177161600Y-71738600D03*
X177161600Y-78618600D03*
%TD*%
D10*
%TO.C,R186*%
X142938600Y-107865000D03*
X142938600Y-106845000D03*
%TD*%
D36*
%TO.C,C27*%
X170403800Y-115112800D03*
X170403800Y-121992800D03*
%TD*%
D21*
%TO.C,C9*%
X181597200Y-71035400D03*
X180497200Y-71035400D03*
%TD*%
D34*
%TO.C,C61*%
X119744400Y-62761000D03*
X119744400Y-64311000D03*
%TD*%
D40*
%TO.C,R38*%
X195114352Y-94687648D03*
X194254352Y-94687648D03*
%TD*%
D12*
%TO.C,C99*%
X152578600Y-96730000D03*
X152578600Y-95180000D03*
%TD*%
D15*
%TO.C,C80*%
X163762600Y-122936000D03*
X164862600Y-122936000D03*
%TD*%
D40*
%TO.C,R40*%
X192984352Y-94687648D03*
X192124352Y-94687648D03*
%TD*%
D34*
%TO.C,C62*%
X124824400Y-62798800D03*
X124824400Y-64348800D03*
%TD*%
M02*
