M48
; DRILL file KiCad 10.0.1 date 2026-04-29T00:32:52
; FORMAT={-:-/ absolute / inch / decimal}
; #@! TF.CreationDate,2026-04-29T00:32:52-07:00
; #@! TF.GenerationSoftware,Kicad,Pcbnew,10.0.1
; #@! TF.FileFunction,Plated,1,6,PTH
FMAT,2
INCH
; #@! TA.AperFunction,Plated,PTH,ViaDrill
T1C0.0059
; #@! TA.AperFunction,Plated,PTH,ViaDrill
T2C0.0118
; #@! TA.AperFunction,Plated,PTH,ViaDrill
T3C0.0157
; #@! TA.AperFunction,Plated,PTH,ComponentDrill
T4C0.0197
; #@! TA.AperFunction,Plated,PTH,ComponentDrill
T5C0.0236
; #@! TA.AperFunction,Plated,PTH,ComponentDrill
T6C0.0236
; #@! TA.AperFunction,Plated,PTH,ComponentDrill
T7C0.0276
; #@! TA.AperFunction,Plated,PTH,ComponentDrill
T8C0.0315
; #@! TA.AperFunction,Plated,PTH,ComponentDrill
T9C0.0354
; #@! TA.AperFunction,Plated,PTH,ComponentDrill
T10C0.0406
; #@! TA.AperFunction,Plated,PTH,ComponentDrill
T11C0.0630
; #@! TA.AperFunction,Plated,PTH,ComponentDrill
T12C0.1102
; #@! TA.AperFunction,Plated,PTH,ComponentDrill
T13C0.1260
%
G90
G05
T1
X3.8878Y-3.6378
X3.9705Y-3.6043
X4.0197Y-3.6043
X4.0706Y-3.6063
X4.1063Y-3.561
X4.126Y-3.5413
X4.1752Y-3.5915
X4.2264Y-3.5925
X4.2904Y-3.8091
X4.2913Y-3.6506
X4.3257Y-3.6498
X4.3311Y-3.584
X4.3425Y-3.8081
X4.423Y-4.079
X4.4409Y-2.4085
X4.4419Y-2.4695
X4.471Y-3.705
X4.471Y-3.7399
X4.481Y-2.021
X4.4823Y-3.5965
X4.4825Y-3.354
X4.5Y-3.157
X4.5023Y-2.4074
X4.5023Y-2.4694
X4.5197Y-2.2283
X4.5197Y-2.311
X4.5219Y-3.354
X4.534Y-3.112
X4.535Y-3.045
X4.542Y-3.352
X4.5506Y-2.2789
X4.5512Y-2.1417
X4.5551Y-1.8819
X4.5612Y-3.354
X4.5787Y-1.8819
X4.5806Y-3.6417
X4.582Y-2.465
X4.5883Y-3.1596
X4.6005Y-3.6417
X4.6063Y-1.8819
X4.6078Y-3.2038
X4.6078Y-3.2786
X4.6204Y-2.5007
X4.6299Y-1.8819
X4.6334Y-3.2786
X4.637Y-2.984
X4.6533Y-2.3311
X4.659Y-3.2786
X4.6597Y-3.354
X4.665Y-4.915
X4.671Y-2.239
X4.6793Y-3.597
X4.6811Y-1.8819
X4.6974Y-2.3986
X4.714Y-5.248
X4.7143Y-2.4709
X4.715Y-2.216
X4.725Y-2.354
X4.7297Y-3.1596
X4.74Y-2.442
X4.7515Y-3.2038
X4.7515Y-3.2786
X4.754Y-2.508
X4.7559Y-2.563
X4.7581Y-3.354
X4.76Y-3.553
X4.7682Y-3.0094
X4.7692Y-2.2943
X4.77Y-3.0361
X4.7771Y-3.2786
X4.7953Y-2.0984
X4.7974Y-3.597
X4.811Y-2.0184
X4.814Y-3.31
X4.817Y-3.599
X4.822Y-3.242
X4.8268Y-2.2638
X4.8284Y-2.4851
X4.8361Y-2.1761
X4.8368Y-3.354
X4.8368Y-3.597
X4.8396Y-2.0531
X4.8413Y-2.5584
X4.8425Y-1.6339
X4.8465Y-1.8819
X4.8544Y-2.4799
X4.8549Y-2.3986
X4.8565Y-3.597
X4.8583Y-3.3543
X4.8598Y-2.1083
X4.8622Y-1.6142
X4.8661Y-2.4961
X4.874Y-1.8819
X4.8762Y-3.597
X4.878Y-3.3543
X4.88Y-2.4798
X4.8819Y-1.5945
X4.8917Y-2.0522
X4.8937Y-2.0955
X4.8937Y-2.2205
X4.8937Y-2.4449
X4.8959Y-3.597
X4.8976Y-1.8819
X4.899Y-3.114
X4.9016Y-1.5748
X4.9143Y-2.5334
X4.916Y-3.595
X4.918Y-3.402
X4.9252Y-1.8819
X4.935Y-3.595
X4.937Y-3.418
X4.9426Y-4.7244
X4.9433Y-2.0669
X4.9488Y-1.8819
X4.9549Y-3.597
X4.956Y-3.303
X4.9593Y-2.33
X4.9724Y-2.0945
X4.9746Y-3.354
X4.9754Y-3.5974
X4.9921Y-3.3543
X4.9943Y-3.597
X5.0Y-1.8828
X5.0067Y-2.0127
X5.0138Y-2.2024
X5.014Y-3.351
X5.015Y-3.597
X5.0165Y-3.184
X5.031Y-2.265
X5.0321Y-2.1556
X5.0337Y-3.597
X5.067Y-3.549
X5.0728Y-3.5974
X5.073Y-3.354
X5.092Y-3.597
X5.111Y-2.207
X5.1123Y-2.4974
X5.114Y-3.597
X5.13Y-2.147
X5.1329Y-3.5965
X5.1518Y-3.354
X5.1592Y-4.7244
X5.1671Y-4.1957
X5.189Y-4.0079
X5.1892Y-3.9635
X5.1903Y-2.4975
X5.1929Y-3.3504
X5.1971Y-4.1033
X5.202Y-3.801
X5.203Y-3.889
X5.2193Y-3.801
X5.2289Y-4.1957
X5.2303Y-3.5965
X5.235Y-3.802
X5.236Y-3.89
X5.2392Y-3.635
X5.2396Y-3.9635
X5.248Y-2.1063
X5.2502Y-3.354
X5.256Y-3.704
X5.2683Y-2.4975
X5.2894Y-3.5955
X5.2902Y-4.2568
X5.2911Y-4.1967
X5.2916Y-3.9635
X5.2916Y-4.0068
X5.307Y-3.671
X5.3366Y-2.0805
X5.3465Y-4.1496
X5.3465Y-4.2638
X5.3484Y-3.5965
X5.3495Y-4.1013
X5.3683Y-3.354
X5.3761Y-2.0275
X5.388Y-3.354
X5.4018Y-2.0694
X5.4075Y-3.5965
X5.4077Y-3.354
X5.4274Y-3.354
X5.4288Y-2.503
X5.433Y-2.476
X5.4409Y-3.9567
X5.4409Y-4.1575
X5.4471Y-3.354
X5.45Y-2.2134
X5.4558Y-2.3318
X5.4606Y-3.7382
X5.4619Y-3.8143
X5.4667Y-3.354
X5.4675Y-3.5965
X5.4704Y-3.4619
X5.4716Y-4.2061
X5.4741Y-2.0274
X5.4779Y-4.1578
X5.484Y-2.259
X5.4852Y-3.3581
X5.5061Y-3.354
X5.5069Y-3.5974
X5.5232Y-4.124
X5.5256Y-3.6959
X5.5258Y-3.354
X5.5443Y-3.3504
X5.5464Y-4.2049
X5.5472Y-3.8061
X5.5503Y-4.0376
X5.5559Y-4.2974
X5.558Y-2.507
X5.5591Y-4.3622
X5.563Y-3.3504
X5.5641Y-2.0274
X5.565Y-3.5965
X5.574Y-4.1238
X5.5837Y-3.3504
X5.5856Y-3.6959
X5.586Y-2.311
X5.593Y-2.4448
X5.597Y-4.0879
X5.6024Y-4.2163
X5.6024Y-3.3504
X5.6093Y-3.8543
X5.6133Y-4.0386
X5.614Y-3.978
X5.6173Y-4.2984
X5.624Y-3.5974
X5.625Y-3.3533
X5.6299Y-4.1339
X5.6299Y-4.2441
X5.6304Y-3.4621
X5.6418Y-2.0958
X5.6438Y-2.5591
X5.6439Y-4.1883
X5.644Y-2.448
X5.644Y-3.341
X5.661Y-2.351
X5.664Y-3.349
X5.6684Y-4.1297
X5.6684Y-4.2467
X5.6722Y-3.8563
X5.6744Y-4.0366
X5.6783Y-4.2984
X5.6783Y-4.3594
X5.6841Y-3.5974
X5.6916Y-2.0471
X5.6954Y-2.2194
X5.6969Y-4.2163
X5.7047Y-4.1929
X5.707Y-4.023
X5.716Y-4.732
X5.7224Y-3.3533
X5.726Y-4.134
X5.7275Y-3.9581
X5.7283Y-4.1535
X5.7323Y-4.2717
X5.7358Y-4.2915
X5.7362Y-4.1734
X5.741Y-4.114
X5.7418Y-2.1598
X5.7421Y-3.5965
X5.752Y-2.0465
X5.752Y-3.6949
X5.7539Y-3.7657
X5.7549Y-3.8287
X5.7618Y-2.3264
X5.7628Y-3.3543
X5.766Y-3.895
X5.7864Y-3.8809
X5.7923Y-3.6949
X5.8012Y-3.5965
X5.8031Y-4.3228
X5.8062Y-3.9585
X5.8071Y-4.252
X5.8189Y-2.1535
X5.8219Y-3.3533
X5.8278Y-3.8819
X5.8327Y-3.6949
X5.845Y-3.957
X5.856Y-2.031
X5.8622Y-4.3189
X5.8661Y-4.0748
X5.8666Y-3.8794
X5.8711Y-3.6959
X5.883Y-4.046
X5.8848Y-3.749
X5.8996Y-3.9164
X5.9019Y-4.0467
X5.906Y-4.73
X5.9213Y-4.3189
X5.9216Y-4.0467
X5.922Y-3.236
X5.937Y-4.1181
X5.937Y-4.252
X5.938Y-3.9301
X5.939Y-3.8701
X5.9413Y-4.0467
X5.9478Y-3.748
X5.961Y-4.0467
X5.9807Y-4.0467
X6.0079Y-3.747
X6.009Y-4.1931
X6.009Y-4.2128
X6.009Y-4.2325
X6.0472Y-4.1811
X6.0598Y-4.3618
X6.063Y-4.0748
X6.063Y-4.315
X6.0917Y-4.1281
X6.1289Y-4.0069
X6.1299Y-3.8858
X6.1299Y-4.0659
X6.1309Y-3.7638
X6.1309Y-3.9459
X6.1319Y-3.8248
X6.1491Y-4.3965
X6.1507Y-4.3465
X6.1901Y-3.8849
X6.1907Y-4.1435
X6.192Y-4.397
X6.2137Y-4.2896
X6.248Y-4.0059
X6.248Y-4.0679
X6.25Y-3.9478
X6.252Y-3.8868
X6.2774Y-4.2065
X6.282Y-3.225
X6.342Y-4.304
X6.342Y-4.358
X6.35Y-3.319
X6.3504Y-4.4083
X6.3622Y-4.9882
X6.3804Y-2.7944
X6.3888Y-3.6919
X6.4013Y-4.48
X6.403Y-4.532
X6.4179Y-3.0824
X6.42Y-3.013
X6.4253Y-2.6389
X6.436Y-4.203
X6.4431Y-4.9567
X6.444Y-3.256
X6.4473Y-4.84
X6.45Y-5.106
X6.4629Y-4.9567
X6.469Y-3.2688
X6.4738Y-3.4948
X6.487Y-3.9019
X6.491Y-4.632
X6.493Y-4.892
X6.4931Y-4.4999
X6.496Y-3.015
X6.5007Y-3.672
X6.502Y-3.618
X6.5086Y-4.538
X6.525Y-3.3377
X6.533Y-4.529
X6.533Y-4.2971
X6.5372Y-3.902
X6.5394Y-4.9488
X6.54Y-4.22
X6.548Y-4.484
X6.5507Y-3.7727
X6.556Y-4.38
X6.5738Y-3.6338
X6.5748Y-4.0197
X6.5874Y-3.902
X6.5966Y-4.9448
X6.598Y-4.498
X6.6021Y-3.559
X6.614Y-4.016
X6.614Y-4.379
X6.6155Y-3.1852
X6.6177Y-4.439
X6.62Y-4.267
X6.63Y-3.5566
X6.634Y-4.38
X6.636Y-3.901
X6.6461Y-2.8948
X6.651Y-3.5566
X6.654Y-4.38
X6.6743Y-3.7585
X6.6926Y-4.4167
X6.7044Y-5.2243
X6.7124Y-4.4167
X6.7323Y-4.378
X6.752Y-4.38
X6.753Y-5.0353
X6.79Y-4.136
X6.791Y-4.197
X6.791Y-4.257
X6.8009Y-3.7167
X6.811Y-4.0187
X6.812Y-5.03
X6.8228Y-4.2546
X6.823Y-4.089
X6.824Y-4.992
X6.83Y-4.38
X6.862Y-4.452
X6.864Y-4.052
X6.864Y-4.347
X6.874Y-4.586
X6.924Y-4.3989
X6.957Y-4.307
X6.9578Y-4.0519
X6.958Y-4.102
X6.958Y-4.154
X6.958Y-4.202
X6.958Y-4.254
X6.958Y-4.0007
X6.978Y-4.3791
X6.984Y-4.664
X7.074Y-4.462
X7.0773Y-4.556
X7.081Y-3.268
X7.1057Y-3.5723
X7.107Y-2.848
X7.107Y-3.323
X7.1096Y-3.3767
X7.115Y-3.1072
X7.12Y-4.048
X7.132Y-4.929
X7.158Y-4.748
X7.2165Y-3.9528
X7.2772Y-2.9736
X7.2795Y-4.6159
X7.2907Y-3.3251
X7.2907Y-3.3511
X7.2907Y-3.3767
X7.2961Y-3.1072
X7.312Y-2.903
X7.3619Y-4.59
X7.373Y-4.5061
X7.3745Y-4.3992
X7.3825Y-3.6157
X7.3877Y-2.888
X7.397Y-3.6668
X7.399Y-3.4306
X7.399Y-3.531
X7.4025Y-2.94
X7.4027Y-2.7074
X7.4048Y-2.8051
X7.465Y-3.7946
X7.465Y-3.834
X7.4671Y-4.342
X7.468Y-4.291
X7.4701Y-4.487
X7.4704Y-4.5206
X7.4706Y-4.553
X7.4745Y-3.99
X7.4813Y-3.7279
X7.4931Y-3.515
X7.4934Y-3.5486
X7.4936Y-3.581
X7.4991Y-2.8135
X7.4994Y-2.8471
X7.4995Y-2.8796
X7.5082Y-2.6686
X7.51Y-2.618
X7.5106Y-4.4874
X7.5109Y-4.521
X7.511Y-4.5534
X7.52Y-3.0566
X7.521Y-3.3401
X7.5336Y-3.5154
X7.5339Y-3.549
X7.534Y-3.5814
X7.5395Y-2.814
X7.5398Y-2.8476
X7.54Y-2.88
X7.5475Y-4.487
X7.5478Y-4.5206
X7.548Y-4.553
X7.55Y-2.569
X7.5705Y-3.515
X7.5708Y-3.5486
X7.571Y-3.581
X7.5712Y-3.057
X7.5722Y-3.3409
X7.5765Y-2.8135
X7.5768Y-2.8471
X7.577Y-2.8796
X7.583Y-4.292
X7.5978Y-3.7279
X7.5988Y-4.407
X7.6221Y-3.0564
X7.6234Y-3.3401
X7.6238Y-3.4385
X7.6241Y-2.6186
X7.6241Y-2.6686
X7.6296Y-2.7346
X7.6312Y-3.8143
X7.643Y-4.5433
X7.659Y-4.624
X7.6687Y-3.529
X7.6687Y-3.5723
X7.6741Y-2.8229
X7.6741Y-2.8662
X7.6817Y-3.7279
X7.6844Y-3.6452
X7.6901Y-2.9386
T2
X4.8867Y-1.7402
X6.6536Y-2.1389
X6.7894Y-2.1391
X6.9258Y-2.1378
X7.0585Y-2.1396
X7.1949Y-2.1388
T3
X6.437Y-1.7126
X6.437Y-1.8307
X6.437Y-1.9685
X6.5748Y-2.7362
X6.5748Y-2.7953
X6.5748Y-2.8578
X6.6461Y-2.8515
X6.6535Y-2.7362
X6.6535Y-2.7953
T4
X4.1442Y-1.77
X4.1442Y-4.9196
X4.1718Y-1.7032
X4.1718Y-1.8368
X4.1718Y-4.8528
X4.1718Y-4.9865
X4.2387Y-1.6755
X4.2387Y-1.8645
X4.2387Y-4.8252
X4.2387Y-5.0141
X4.3055Y-1.7032
X4.3055Y-1.8368
X4.3055Y-4.8528
X4.3055Y-4.9865
X4.3331Y-1.77
X4.3331Y-4.9196
X7.2938Y-1.77
X7.2944Y-4.9183
X7.3214Y-1.7032
X7.3214Y-1.8368
X7.3221Y-4.8515
X7.3221Y-4.9852
X7.3883Y-1.6755
X7.3883Y-1.8645
X7.3889Y-4.8239
X7.3889Y-5.0128
X7.4551Y-1.7032
X7.4551Y-1.8368
X7.4557Y-4.8515
X7.4557Y-4.9852
X7.4827Y-1.77
X7.4834Y-4.9183
T7
X6.3392Y-5.0712
X6.5668Y-5.0712
T8
X4.4016Y-1.4626
X4.4016Y-1.5413
X4.4804Y-1.4626
X4.4804Y-1.5413
X4.5591Y-1.4626
X4.5591Y-1.5413
X4.6378Y-1.4626
X4.6378Y-1.5413
X4.7166Y-1.4626
X4.7166Y-1.5413
X4.7953Y-1.4626
X4.7953Y-1.5413
X4.8741Y-1.4626
X4.8741Y-1.5413
X4.9528Y-1.4626
X4.9528Y-1.5413
X5.1713Y-1.4606
X5.1713Y-1.5394
X5.25Y-1.4606
X5.25Y-1.5394
X5.3287Y-1.4606
X5.3287Y-1.5394
X5.4075Y-1.4606
X5.4075Y-1.5394
X5.4862Y-1.4606
X5.4862Y-1.5394
X5.565Y-1.4606
X5.565Y-1.5394
X5.6437Y-1.4606
X5.6437Y-1.5394
X5.7224Y-1.4606
X5.7224Y-1.5394
X5.9213Y-1.4606
X5.9213Y-1.5394
X6.0Y-1.4606
X6.0Y-1.5394
X6.0787Y-1.4606
X6.0787Y-1.5394
X6.1575Y-1.4606
X6.1575Y-1.5394
X6.2362Y-1.4606
X6.2362Y-1.5394
X6.315Y-1.4606
X6.315Y-1.5394
X6.3937Y-1.4606
X6.3937Y-1.5394
X6.4724Y-1.4606
X6.4724Y-1.5394
T9
X4.8837Y-4.5075
X4.9337Y-4.6075
X4.9837Y-4.5075
X5.0337Y-4.6075
X5.0837Y-4.5075
X5.1337Y-4.6075
X5.1837Y-4.5075
X5.2337Y-4.6075
X5.2837Y-4.5075
X5.3337Y-4.6075
X5.6368Y-4.5044
X5.6868Y-4.6044
X5.7368Y-4.5044
X5.7868Y-4.6044
X5.8368Y-4.5044
X5.8868Y-4.6044
X5.9368Y-4.5044
X5.9868Y-4.6044
X6.0368Y-4.5044
X6.0868Y-4.6044
T10
X4.8479Y-5.0181
X4.9479Y-5.0181
X5.2695Y-5.0181
X5.3695Y-5.0181
X5.601Y-5.015
X5.701Y-5.015
X6.0227Y-5.015
X6.1227Y-5.015
T11
X4.8038Y-4.7374
X5.4136Y-4.7374
X5.5569Y-4.7343
X6.1667Y-4.7343
T12
X6.7776Y-2.0108
X7.061Y-2.0108
T13
X4.2387Y-1.77
X4.2387Y-4.9196
X7.3883Y-1.77
X7.3889Y-4.9183
T5
G00X6.2829Y-5.0326
M15
G01X6.2829Y-5.0681
M16
G05
G00X6.2829Y-5.2043
M15
G01X6.2829Y-5.2279
M16
G05
G00X6.6231Y-5.0326
M15
G01X6.6231Y-5.0681
M16
G05
G00X6.6231Y-5.2043
M15
G01X6.6231Y-5.2279
M16
G05
T6
G00X6.6535Y-1.7923
M15
G01X6.6535Y-1.7569
M16
G05
G00X7.185Y-1.7923
M15
G01X7.185Y-1.7569
M16
G05
M30
