%TF.GenerationSoftware,KiCad,Pcbnew,10.0.1*%
%TF.CreationDate,2026-04-29T00:32:52-07:00*%
%TF.ProjectId,imx8x_eps_leviathan_v2,696d7838-785f-4657-9073-5f6c65766961,rev?*%
%TF.SameCoordinates,Original*%
%TF.FileFunction,Soldermask,Bot*%
%TF.FilePolarity,Negative*%
%FSLAX46Y46*%
G04 Gerber Fmt 4.6, Leading zero omitted, Abs format (unit mm)*
G04 Created by KiCad (PCBNEW 10.0.1) date 2026-04-29 00:32:52*
%MOMM*%
%LPD*%
G01*
G04 APERTURE LIST*
G04 Aperture macros list*
%AMRoundRect*
0 Rectangle with rounded corners*
0 $1 Rounding radius*
0 $2 $3 $4 $5 $6 $7 $8 $9 X,Y pos of 4 corners*
0 Add a 4 corners polygon primitive as box body*
4,1,4,$2,$3,$4,$5,$6,$7,$8,$9,$2,$3,0*
0 Add four circle primitives for the rounded corners*
1,1,$1+$1,$2,$3*
1,1,$1+$1,$4,$5*
1,1,$1+$1,$6,$7*
1,1,$1+$1,$8,$9*
0 Add four rect primitives between the rounded corners*
20,1,$1+$1,$2,$3,$4,$5,0*
20,1,$1+$1,$4,$5,$6,$7,0*
20,1,$1+$1,$6,$7,$8,$9,0*
20,1,$1+$1,$8,$9,$2,$3,0*%
%AMFreePoly0*
4,1,23,0.500000,-0.750000,0.000000,-0.750000,0.000000,-0.745722,-0.065263,-0.745722,-0.191342,-0.711940,-0.304381,-0.646677,-0.396677,-0.554381,-0.461940,-0.441342,-0.495722,-0.315263,-0.495722,-0.250000,-0.500000,-0.250000,-0.500000,0.250000,-0.495722,0.250000,-0.495722,0.315263,-0.461940,0.441342,-0.396677,0.554381,-0.304381,0.646677,-0.191342,0.711940,-0.065263,0.745722,0.000000,0.745722,
0.000000,0.750000,0.500000,0.750000,0.500000,-0.750000,0.500000,-0.750000,$1*%
%AMFreePoly1*
4,1,23,0.000000,0.745722,0.065263,0.745722,0.191342,0.711940,0.304381,0.646677,0.396677,0.554381,0.461940,0.441342,0.495722,0.315263,0.495722,0.250000,0.500000,0.250000,0.500000,-0.250000,0.495722,-0.250000,0.495722,-0.315263,0.461940,-0.441342,0.396677,-0.554381,0.304381,-0.646677,0.191342,-0.711940,0.065263,-0.745722,0.000000,-0.745722,0.000000,-0.750000,-0.500000,-0.750000,
-0.500000,0.750000,0.000000,0.750000,0.000000,0.745722,0.000000,0.745722,$1*%
G04 Aperture macros list end*
%ADD10C,0.800000*%
%ADD11C,6.400000*%
%ADD12O,1.300000X2.200000*%
%ADD13C,3.800000*%
%ADD14C,1.016000*%
%ADD15C,3.250000*%
%ADD16C,1.612000*%
%ADD17C,1.749000*%
%ADD18C,2.604000*%
%ADD19R,1.400000X1.400000*%
%ADD20C,1.400000*%
%ADD21C,2.700000*%
%ADD22C,0.700000*%
%ADD23O,1.100000X2.000000*%
%ADD24O,1.200000X1.800000*%
%ADD25R,0.540000X0.790000*%
%ADD26RoundRect,0.225000X-0.250000X0.225000X-0.250000X-0.225000X0.250000X-0.225000X0.250000X0.225000X0*%
%ADD27R,0.570000X0.540000*%
%ADD28O,0.590000X2.050000*%
%ADD29R,0.530000X1.070000*%
%ADD30R,0.540000X0.570000*%
%ADD31R,5.000000X2.800000*%
%ADD32R,5.000000X4.000000*%
%ADD33RoundRect,0.218750X0.256250X-0.218750X0.256250X0.218750X-0.256250X0.218750X-0.256250X-0.218750X0*%
%ADD34RoundRect,0.135000X0.185000X-0.135000X0.185000X0.135000X-0.185000X0.135000X-0.185000X-0.135000X0*%
%ADD35FreePoly0,90.000000*%
%ADD36FreePoly1,90.000000*%
%ADD37R,0.750000X1.000000*%
%ADD38RoundRect,0.100000X-0.100000X0.637500X-0.100000X-0.637500X0.100000X-0.637500X0.100000X0.637500X0*%
%ADD39RoundRect,0.225000X0.225000X0.250000X-0.225000X0.250000X-0.225000X-0.250000X0.225000X-0.250000X0*%
%ADD40R,0.900000X2.200000*%
%ADD41R,3.500000X2.200000*%
%ADD42C,1.000000*%
%ADD43R,1.100000X0.600000*%
%ADD44RoundRect,0.135000X0.135000X0.185000X-0.135000X0.185000X-0.135000X-0.185000X0.135000X-0.185000X0*%
%ADD45R,0.790000X0.540000*%
%ADD46RoundRect,0.250000X0.625000X-0.312500X0.625000X0.312500X-0.625000X0.312500X-0.625000X-0.312500X0*%
%ADD47R,1.130000X1.380000*%
%ADD48R,1.400000X1.200000*%
%ADD49RoundRect,0.225000X0.250000X-0.225000X0.250000X0.225000X-0.250000X0.225000X-0.250000X-0.225000X0*%
%ADD50R,0.300000X0.900000*%
%ADD51R,0.900000X0.300000*%
%ADD52R,4.500000X4.500000*%
%ADD53R,1.000000X2.000000*%
%ADD54R,0.600000X1.100000*%
G04 APERTURE END LIST*
%TO.C,JP2*%
G36*
X137828400Y-59728400D02*
G01*
X139328400Y-59728400D01*
X139328400Y-60028400D01*
X137828400Y-60028400D01*
X137828400Y-59728400D01*
G37*
%TO.C,JP1*%
G36*
X117443389Y-59710639D02*
G01*
X118943389Y-59710639D01*
X118943389Y-60010639D01*
X117443389Y-60010639D01*
X117443389Y-59710639D01*
G37*
%TD*%
D10*
%TO.C,J3*%
X105261732Y-44958933D03*
X105964676Y-43261877D03*
X105964676Y-46655989D03*
X107661732Y-42558933D03*
D11*
X107661732Y-44958933D03*
D10*
X107661732Y-47358933D03*
X109358788Y-43261877D03*
X109358788Y-46655989D03*
X110061732Y-44958933D03*
%TD*%
D12*
%TO.C,U1*%
X169000000Y-45075000D03*
X182500000Y-45075000D03*
D13*
X172150000Y-51075000D03*
X179350000Y-51075000D03*
%TD*%
D14*
%TO.C,J7*%
X116329200Y-59869600D03*
X154801200Y-59869600D03*
%TD*%
D15*
%TO.C,T2*%
X143175400Y-123301000D03*
X154605400Y-123301000D03*
D16*
X143175400Y-114411000D03*
X144445400Y-116951000D03*
X145715400Y-114411000D03*
X146985400Y-116951000D03*
X148255400Y-114411000D03*
X149525400Y-116951000D03*
X150795400Y-114411000D03*
X152065400Y-116951000D03*
X153335400Y-114411000D03*
X154605400Y-116951000D03*
D17*
X142265400Y-127381000D03*
X144805400Y-127381000D03*
X152975400Y-127381000D03*
X155515400Y-127381000D03*
D18*
X141145400Y-120251000D03*
X156635400Y-120251000D03*
%TD*%
D19*
%TO.C,J5*%
X164400000Y-39100000D03*
D20*
X164400000Y-37100000D03*
X162400000Y-39100000D03*
X162400000Y-37100000D03*
X160400000Y-39100000D03*
X160400000Y-37100000D03*
X158400000Y-39100000D03*
X158400000Y-37100000D03*
X156400000Y-39100000D03*
X156400000Y-37100000D03*
X154400000Y-39100000D03*
X154400000Y-37100000D03*
X152400000Y-39100000D03*
X152400000Y-37100000D03*
X150400000Y-39100000D03*
X150400000Y-37100000D03*
%TD*%
D21*
%TO.C,H2*%
X154695200Y-90013600D03*
%TD*%
%TO.C,H1*%
X110685200Y-56003600D03*
%TD*%
D10*
%TO.C,J1*%
X190078932Y-124925933D03*
X189375988Y-126622989D03*
X189375988Y-123228877D03*
X187678932Y-127325933D03*
D11*
X187678932Y-124925933D03*
D10*
X187678932Y-122525933D03*
X185981876Y-126622989D03*
X185981876Y-123228877D03*
X185278932Y-124925933D03*
%TD*%
D22*
%TO.C,USB1*%
X161016200Y-128808500D03*
X166796200Y-128808500D03*
D23*
X159586200Y-128278500D03*
D24*
X159586200Y-132488500D03*
D23*
X168226200Y-128278500D03*
D24*
X168226200Y-132488500D03*
%TD*%
D10*
%TO.C,J4*%
X190061732Y-44958933D03*
X189358788Y-46655989D03*
X189358788Y-43261877D03*
X187661732Y-47358933D03*
D11*
X187661732Y-44958933D03*
D10*
X187661732Y-42558933D03*
X185964676Y-46655989D03*
X185964676Y-43261877D03*
X185261732Y-44958933D03*
%TD*%
D14*
%TO.C,J6*%
X111869200Y-90309600D03*
X150341200Y-90309600D03*
%TD*%
D15*
%TO.C,T1*%
X124045400Y-123381000D03*
X135475400Y-123381000D03*
D16*
X124045400Y-114491000D03*
X125315400Y-117031000D03*
X126585400Y-114491000D03*
X127855400Y-117031000D03*
X129125400Y-114491000D03*
X130395400Y-117031000D03*
X131665400Y-114491000D03*
X132935400Y-117031000D03*
X134205400Y-114491000D03*
X135475400Y-117031000D03*
D17*
X123135400Y-127461000D03*
X125675400Y-127461000D03*
X133845400Y-127461000D03*
X136385400Y-127461000D03*
D18*
X122015400Y-120331000D03*
X137505400Y-120331000D03*
%TD*%
D19*
%TO.C,CN1*%
X145350000Y-39100000D03*
D20*
X145350000Y-37100000D03*
X143350000Y-39100000D03*
X143350000Y-37100000D03*
X141350000Y-39100000D03*
X141350000Y-37100000D03*
X139350000Y-39100000D03*
X139350000Y-37100000D03*
X137350000Y-39100000D03*
X137350000Y-37100000D03*
X135350000Y-39100000D03*
X135350000Y-37100000D03*
X133350000Y-39100000D03*
X133350000Y-37100000D03*
X131350000Y-39100000D03*
X131350000Y-37100000D03*
%TD*%
D19*
%TO.C,CN2*%
X111801038Y-37150000D03*
D20*
X111801038Y-39150000D03*
X113801038Y-37150000D03*
X113801038Y-39150000D03*
X115801038Y-37150000D03*
X115801038Y-39150000D03*
X117801038Y-37150000D03*
X117801038Y-39150000D03*
X119801038Y-37150000D03*
X119801038Y-39150000D03*
X121801038Y-37150000D03*
X121801038Y-39150000D03*
X123801038Y-37150000D03*
X123801038Y-39150000D03*
X125801038Y-37150000D03*
X125801038Y-39150000D03*
%TD*%
D10*
%TO.C,J2*%
X105261732Y-124958933D03*
X105964676Y-123261877D03*
X105964676Y-126655989D03*
X107661732Y-122558933D03*
D11*
X107661732Y-124958933D03*
D10*
X107661732Y-127358933D03*
X109358788Y-123261877D03*
X109358788Y-126655989D03*
X110061732Y-124958933D03*
%TD*%
D25*
%TO.C,C54*%
X143302800Y-52132400D03*
X143302800Y-53232400D03*
%TD*%
D26*
%TO.C,C133*%
X169527371Y-93914775D03*
X169527371Y-95464775D03*
%TD*%
D27*
%TO.C,R153*%
X176734200Y-101617000D03*
X175874200Y-101617000D03*
%TD*%
D28*
%TO.C,U19*%
X182199200Y-111507400D03*
X180919200Y-111507400D03*
X179659200Y-111507400D03*
X178389200Y-111507400D03*
X178389200Y-105967400D03*
X179659200Y-105967400D03*
X180919200Y-105967400D03*
X182199200Y-105967400D03*
%TD*%
D27*
%TO.C,R51*%
X126728189Y-60637439D03*
X125868189Y-60637439D03*
%TD*%
%TO.C,R158*%
X176709200Y-108042000D03*
X175849200Y-108042000D03*
%TD*%
D29*
%TO.C,U32*%
X172742971Y-94403375D03*
X173692971Y-94403375D03*
X174642971Y-94403375D03*
X174642971Y-96703375D03*
X173692971Y-96703375D03*
X172742971Y-96703375D03*
%TD*%
D30*
%TO.C,R162*%
X172877400Y-128454600D03*
X172877400Y-129314600D03*
%TD*%
%TO.C,R76*%
X139848400Y-64122000D03*
X139848400Y-64982000D03*
%TD*%
D31*
%TO.C,C43*%
X114464589Y-49482239D03*
D32*
X114464589Y-44382239D03*
%TD*%
D30*
%TO.C,R71*%
X145944400Y-52516000D03*
X145944400Y-53376000D03*
%TD*%
%TO.C,R110*%
X109007937Y-98894882D03*
X109007937Y-99754882D03*
%TD*%
D27*
%TO.C,R134*%
X162604200Y-109967000D03*
X163464200Y-109967000D03*
%TD*%
D25*
%TO.C,C66*%
X167569200Y-114242000D03*
X167569200Y-113142000D03*
%TD*%
D30*
%TO.C,R128*%
X172794200Y-112987000D03*
X172794200Y-113847000D03*
%TD*%
D33*
%TO.C,D2*%
X125965789Y-59073339D03*
X125965789Y-57498339D03*
%TD*%
D34*
%TO.C,R81*%
X143011685Y-87937458D03*
X143011685Y-86917458D03*
%TD*%
D30*
%TO.C,R112*%
X113563400Y-94992400D03*
X113563400Y-94132400D03*
%TD*%
%TO.C,R122*%
X177241200Y-111228400D03*
X177241200Y-112088400D03*
%TD*%
D31*
%TO.C,C42*%
X121220989Y-49472239D03*
D32*
X121220989Y-44372239D03*
%TD*%
D25*
%TO.C,C56*%
X143353600Y-65000400D03*
X143353600Y-63900400D03*
%TD*%
D27*
%TO.C,R68*%
X146276400Y-61910400D03*
X147136400Y-61910400D03*
%TD*%
%TO.C,R62*%
X120787789Y-63721439D03*
X121647789Y-63721439D03*
%TD*%
D30*
%TO.C,R126*%
X161300000Y-112830000D03*
X161300000Y-111970000D03*
%TD*%
D35*
%TO.C,JP2*%
X138578400Y-60528400D03*
D36*
X138578400Y-59228400D03*
%TD*%
D27*
%TO.C,R121*%
X178843200Y-113334800D03*
X179703200Y-113334800D03*
%TD*%
D25*
%TO.C,C68*%
X168894200Y-114242000D03*
X168894200Y-113142000D03*
%TD*%
%TO.C,C55*%
X144623600Y-52123600D03*
X144623600Y-53223600D03*
%TD*%
D31*
%TO.C,C50*%
X148362400Y-49490000D03*
D32*
X148362400Y-44390000D03*
%TD*%
D30*
%TO.C,R152*%
X176244200Y-99107000D03*
X176244200Y-99967000D03*
%TD*%
D37*
%TO.C,D3*%
X118752189Y-54883839D03*
X118752189Y-52543839D03*
%TD*%
D31*
%TO.C,C41*%
X127977389Y-49472239D03*
D32*
X127977389Y-44372239D03*
%TD*%
D30*
%TO.C,R129*%
X164900000Y-113412800D03*
X164900000Y-114272800D03*
%TD*%
%TO.C,R150*%
X173694200Y-99112000D03*
X173694200Y-99972000D03*
%TD*%
D27*
%TO.C,R140*%
X162609200Y-102342000D03*
X163469200Y-102342000D03*
%TD*%
%TO.C,R157*%
X176709200Y-106742000D03*
X175849200Y-106742000D03*
%TD*%
%TO.C,R130*%
X162589200Y-115117000D03*
X163449200Y-115117000D03*
%TD*%
D34*
%TO.C,R82*%
X141995685Y-87937458D03*
X141995685Y-86917458D03*
%TD*%
D30*
%TO.C,R144*%
X166044200Y-99112000D03*
X166044200Y-99972000D03*
%TD*%
%TO.C,R60*%
X120377789Y-53842639D03*
X120377789Y-54702639D03*
%TD*%
%TO.C,R149*%
X172419200Y-99112000D03*
X172419200Y-99972000D03*
%TD*%
D27*
%TO.C,R65*%
X138602000Y-63536000D03*
X137742000Y-63536000D03*
%TD*%
%TO.C,R132*%
X162594200Y-112517000D03*
X163454200Y-112517000D03*
%TD*%
D25*
%TO.C,C53*%
X145842800Y-54858000D03*
X145842800Y-55958000D03*
%TD*%
D27*
%TO.C,R159*%
X176709200Y-109342000D03*
X175849200Y-109342000D03*
%TD*%
D38*
%TO.C,U16*%
X120377789Y-56355439D03*
X121027789Y-56355439D03*
X121677789Y-56355439D03*
X122327789Y-56355439D03*
X122977789Y-56355439D03*
X123627789Y-56355439D03*
X124277789Y-56355439D03*
X124277789Y-62080439D03*
X123627789Y-62080439D03*
X122977789Y-62080439D03*
X122327789Y-62080439D03*
X121677789Y-62080439D03*
X121027789Y-62080439D03*
X120377789Y-62080439D03*
%TD*%
D27*
%TO.C,R49*%
X126751389Y-63177439D03*
X125891389Y-63177439D03*
%TD*%
D30*
%TO.C,R78*%
X140762800Y-53860400D03*
X140762800Y-54720400D03*
%TD*%
D27*
%TO.C,R141*%
X162609200Y-101067000D03*
X163469200Y-101067000D03*
%TD*%
D39*
%TO.C,C131*%
X162155771Y-96094575D03*
X160605771Y-96094575D03*
%TD*%
D27*
%TO.C,R67*%
X147136400Y-63195200D03*
X146276400Y-63195200D03*
%TD*%
D40*
%TO.C,U21*%
X170552600Y-125598600D03*
X169052600Y-125598600D03*
X167552600Y-125598600D03*
X166052600Y-125598600D03*
D41*
X168302600Y-119298600D03*
%TD*%
D30*
%TO.C,R145*%
X167319200Y-99112000D03*
X167319200Y-99972000D03*
%TD*%
D42*
%TO.C,TP20*%
X148179600Y-57541600D03*
%TD*%
D27*
%TO.C,R124*%
X181152600Y-104112400D03*
X182012600Y-104112400D03*
%TD*%
%TO.C,R61*%
X120787789Y-65042239D03*
X121647789Y-65042239D03*
%TD*%
D30*
%TO.C,R111*%
X110303337Y-98894882D03*
X110303337Y-99754882D03*
%TD*%
D43*
%TO.C,TV2*%
X125543200Y-120950600D03*
X125543200Y-120000600D03*
X125543200Y-119050600D03*
X128243200Y-119050600D03*
X128243200Y-120000600D03*
X128243200Y-120950600D03*
%TD*%
D30*
%TO.C,R123*%
X183438800Y-111177600D03*
X183438800Y-112037600D03*
%TD*%
D27*
%TO.C,R69*%
X147113200Y-60655200D03*
X146253200Y-60655200D03*
%TD*%
D44*
%TO.C,R168*%
X144888181Y-106478784D03*
X143868181Y-106478784D03*
%TD*%
D27*
%TO.C,R73*%
X138429600Y-56220800D03*
X139289600Y-56220800D03*
%TD*%
D30*
%TO.C,R212*%
X171000571Y-93751775D03*
X171000571Y-94611775D03*
%TD*%
D37*
%TO.C,D6*%
X139137200Y-54901600D03*
X139137200Y-52561600D03*
%TD*%
D45*
%TO.C,C70*%
X175403200Y-113055000D03*
X174303200Y-113055000D03*
%TD*%
D34*
%TO.C,R84*%
X139963685Y-87937458D03*
X139963685Y-86917458D03*
%TD*%
D35*
%TO.C,JP1*%
X118193389Y-60510639D03*
D36*
X118193389Y-59210639D03*
%TD*%
D30*
%TO.C,R116*%
X108982537Y-96764882D03*
X108982537Y-97624882D03*
%TD*%
%TO.C,R164*%
X170327400Y-129309600D03*
X170327400Y-128449600D03*
%TD*%
%TO.C,R117*%
X110277937Y-96739482D03*
X110277937Y-97599482D03*
%TD*%
D27*
%TO.C,R138*%
X162609200Y-104892000D03*
X163469200Y-104892000D03*
%TD*%
%TO.C,R79*%
X141172800Y-65060000D03*
X142032800Y-65060000D03*
%TD*%
%TO.C,R133*%
X162589200Y-111242000D03*
X163449200Y-111242000D03*
%TD*%
D37*
%TO.C,D1*%
X116821789Y-54883839D03*
X116821789Y-52543839D03*
%TD*%
D34*
%TO.C,R86*%
X138947685Y-87933458D03*
X138947685Y-86913458D03*
%TD*%
D33*
%TO.C,D5*%
X146350800Y-59091100D03*
X146350800Y-57516100D03*
%TD*%
D37*
%TO.C,D4*%
X137206800Y-54901600D03*
X137206800Y-52561600D03*
%TD*%
D30*
%TO.C,R143*%
X164769200Y-99107000D03*
X164769200Y-99967000D03*
%TD*%
D25*
%TO.C,C69*%
X170219200Y-114247000D03*
X170219200Y-113147000D03*
%TD*%
%TO.C,C67*%
X171519200Y-114242000D03*
X171519200Y-113142000D03*
%TD*%
%TO.C,C44*%
X126880189Y-53459839D03*
X126880189Y-52359839D03*
%TD*%
D27*
%TO.C,R77*%
X141599200Y-52563200D03*
X140739200Y-52563200D03*
%TD*%
D43*
%TO.C,TV4*%
X145178800Y-121076800D03*
X145178800Y-120126800D03*
X145178800Y-119176800D03*
X147878800Y-119176800D03*
X147878800Y-120126800D03*
X147878800Y-121076800D03*
%TD*%
D27*
%TO.C,R72*%
X143357200Y-54696800D03*
X144217200Y-54696800D03*
%TD*%
D30*
%TO.C,R70*%
X147214400Y-55838000D03*
X147214400Y-54978000D03*
%TD*%
D27*
%TO.C,R135*%
X162604200Y-108692000D03*
X163464200Y-108692000D03*
%TD*%
D30*
%TO.C,R75*%
X142032800Y-53860400D03*
X142032800Y-54720400D03*
%TD*%
D27*
%TO.C,R66*%
X137714400Y-62230000D03*
X138574400Y-62230000D03*
%TD*%
D25*
%TO.C,C52*%
X147265200Y-53477600D03*
X147265200Y-52377600D03*
%TD*%
D27*
%TO.C,R54*%
X122972189Y-54679039D03*
X123832189Y-54679039D03*
%TD*%
%TO.C,R50*%
X125891389Y-61892639D03*
X126751389Y-61892639D03*
%TD*%
D25*
%TO.C,C45*%
X125457789Y-54840239D03*
X125457789Y-55940239D03*
%TD*%
%TO.C,C47*%
X124238589Y-52105839D03*
X124238589Y-53205839D03*
%TD*%
D30*
%TO.C,R146*%
X168594200Y-99112000D03*
X168594200Y-99972000D03*
%TD*%
D43*
%TO.C,U31*%
X166388371Y-93925375D03*
X166388371Y-94875375D03*
X166388371Y-95825375D03*
X163688371Y-95825375D03*
X163688371Y-94875375D03*
X163688371Y-93925375D03*
%TD*%
D45*
%TO.C,C71*%
X176269200Y-118445800D03*
X177369200Y-118445800D03*
%TD*%
D27*
%TO.C,R137*%
X162609200Y-106142000D03*
X163469200Y-106142000D03*
%TD*%
D26*
%TO.C,C130*%
X167984771Y-93859375D03*
X167984771Y-95409375D03*
%TD*%
D27*
%TO.C,R142*%
X162609200Y-99792000D03*
X163469200Y-99792000D03*
%TD*%
D43*
%TO.C,TV5*%
X150028800Y-121026800D03*
X150028800Y-120076800D03*
X150028800Y-119126800D03*
X152728800Y-119126800D03*
X152728800Y-120076800D03*
X152728800Y-121026800D03*
%TD*%
D38*
%TO.C,U17*%
X140762800Y-56373200D03*
X141412800Y-56373200D03*
X142062800Y-56373200D03*
X142712800Y-56373200D03*
X143362800Y-56373200D03*
X144012800Y-56373200D03*
X144662800Y-56373200D03*
X144662800Y-62098200D03*
X144012800Y-62098200D03*
X143362800Y-62098200D03*
X142712800Y-62098200D03*
X142062800Y-62098200D03*
X141412800Y-62098200D03*
X140762800Y-62098200D03*
%TD*%
D45*
%TO.C,C83*%
X161875600Y-118881800D03*
X162975600Y-118881800D03*
%TD*%
D46*
%TO.C,R46*%
X114535789Y-55288639D03*
X114535789Y-52363639D03*
%TD*%
D30*
%TO.C,R64*%
X135550300Y-51984500D03*
X135550300Y-52844500D03*
%TD*%
D45*
%TO.C,C86*%
X165184000Y-127762000D03*
X164084000Y-127762000D03*
%TD*%
D25*
%TO.C,C48*%
X122968589Y-64982639D03*
X122968589Y-63882639D03*
%TD*%
D30*
%TO.C,R213*%
X171000571Y-96745375D03*
X171000571Y-95885375D03*
%TD*%
D27*
%TO.C,R136*%
X162609200Y-107417000D03*
X163469200Y-107417000D03*
%TD*%
D47*
%TO.C,L5*%
X172164200Y-116392000D03*
X170224200Y-116392000D03*
%TD*%
D30*
%TO.C,R52*%
X126829389Y-55820239D03*
X126829389Y-54960239D03*
%TD*%
D27*
%TO.C,R139*%
X162609200Y-103617000D03*
X163469200Y-103617000D03*
%TD*%
D46*
%TO.C,R63*%
X133670700Y-55099700D03*
X133670700Y-52174700D03*
%TD*%
D27*
%TO.C,R74*%
X139289600Y-57490800D03*
X138429600Y-57490800D03*
%TD*%
D43*
%TO.C,TV3*%
X131043200Y-120950600D03*
X131043200Y-120000600D03*
X131043200Y-119050600D03*
X133743200Y-119050600D03*
X133743200Y-120000600D03*
X133743200Y-120950600D03*
%TD*%
D30*
%TO.C,R58*%
X119463389Y-64104239D03*
X119463389Y-64964239D03*
%TD*%
D48*
%TO.C,Y1*%
X176799600Y-116508000D03*
X174599600Y-116508000D03*
X174599600Y-114808000D03*
X176799600Y-114808000D03*
%TD*%
D30*
%TO.C,R151*%
X174969200Y-99107000D03*
X174969200Y-99967000D03*
%TD*%
%TO.C,R53*%
X125559389Y-52498239D03*
X125559389Y-53358239D03*
%TD*%
D45*
%TO.C,C85*%
X161459000Y-127762000D03*
X162559000Y-127762000D03*
%TD*%
D30*
%TO.C,R148*%
X171144200Y-99112000D03*
X171144200Y-99972000D03*
%TD*%
%TO.C,R57*%
X121647789Y-53842639D03*
X121647789Y-54702639D03*
%TD*%
%TO.C,R211*%
X162295171Y-93784975D03*
X162295171Y-94644975D03*
%TD*%
D42*
%TO.C,TP19*%
X127794589Y-57523839D03*
%TD*%
D27*
%TO.C,R155*%
X176729200Y-104192000D03*
X175869200Y-104192000D03*
%TD*%
%TO.C,R48*%
X117329389Y-62212239D03*
X118189389Y-62212239D03*
%TD*%
D34*
%TO.C,R83*%
X140979685Y-87937458D03*
X140979685Y-86917458D03*
%TD*%
D25*
%TO.C,C46*%
X122917789Y-52114639D03*
X122917789Y-53214639D03*
%TD*%
D30*
%TO.C,R127*%
X166294200Y-113852000D03*
X166294200Y-112992000D03*
%TD*%
D49*
%TO.C,C132*%
X176436171Y-96633175D03*
X176436171Y-95083175D03*
%TD*%
D27*
%TO.C,R47*%
X118216989Y-63518239D03*
X117356989Y-63518239D03*
%TD*%
D31*
%TO.C,C49*%
X141606000Y-49490000D03*
D32*
X141606000Y-44390000D03*
%TD*%
D31*
%TO.C,C51*%
X134849600Y-49500000D03*
D32*
X134849600Y-44400000D03*
%TD*%
D27*
%TO.C,R125*%
X179072600Y-104112400D03*
X179932600Y-104112400D03*
%TD*%
D45*
%TO.C,C76*%
X180797600Y-102832400D03*
X181897600Y-102832400D03*
%TD*%
D30*
%TO.C,R163*%
X171602400Y-129309600D03*
X171602400Y-128449600D03*
%TD*%
D50*
%TO.C,U20*%
X173494200Y-111252000D03*
X172994200Y-111252000D03*
X172494200Y-111252000D03*
X171994200Y-111252000D03*
X171494200Y-111252000D03*
X170994200Y-111252000D03*
X170494200Y-111252000D03*
X169994200Y-111252000D03*
X169494200Y-111252000D03*
X168994200Y-111252000D03*
X168494200Y-111252000D03*
X167994200Y-111252000D03*
X167494200Y-111252000D03*
X166994200Y-111252000D03*
X166494200Y-111252000D03*
X165994200Y-111252000D03*
D51*
X165164200Y-110422000D03*
X165164200Y-109922000D03*
X165164200Y-109422000D03*
X165164200Y-108922000D03*
X165164200Y-108422000D03*
X165164200Y-107922000D03*
X165164200Y-107422000D03*
X165164200Y-106922000D03*
X165164200Y-106422000D03*
X165164200Y-105922000D03*
X165164200Y-105422000D03*
X165164200Y-104922000D03*
X165164200Y-104422000D03*
X165164200Y-103922000D03*
X165164200Y-103422000D03*
X165164200Y-102922000D03*
D50*
X165994200Y-102092000D03*
X166494200Y-102092000D03*
X166994200Y-102092000D03*
X167494200Y-102092000D03*
X167994200Y-102092000D03*
X168494200Y-102092000D03*
X168994200Y-102092000D03*
X169494200Y-102092000D03*
X169994200Y-102092000D03*
X170494200Y-102092000D03*
X170994200Y-102092000D03*
X171494200Y-102092000D03*
X171994200Y-102092000D03*
X172494200Y-102092000D03*
X172994200Y-102092000D03*
X173494200Y-102092000D03*
D51*
X174324200Y-102922000D03*
X174324200Y-103422000D03*
X174324200Y-103922000D03*
X174324200Y-104422000D03*
X174324200Y-104922000D03*
X174324200Y-105422000D03*
X174324200Y-105922000D03*
X174324200Y-106422000D03*
X174324200Y-106922000D03*
X174324200Y-107422000D03*
X174324200Y-107922000D03*
X174324200Y-108422000D03*
X174324200Y-108922000D03*
X174324200Y-109422000D03*
X174324200Y-109922000D03*
X174324200Y-110422000D03*
D52*
X169744200Y-106672000D03*
%TD*%
D27*
%TO.C,R55*%
X118044589Y-56203039D03*
X118904589Y-56203039D03*
%TD*%
D45*
%TO.C,C84*%
X161900600Y-120206800D03*
X163000600Y-120206800D03*
%TD*%
D53*
%TO.C,L6*%
X174467400Y-92357600D03*
X172267400Y-92357600D03*
%TD*%
D27*
%TO.C,R154*%
X176729200Y-102917000D03*
X175869200Y-102917000D03*
%TD*%
%TO.C,R59*%
X121214189Y-52545439D03*
X120354189Y-52545439D03*
%TD*%
D30*
%TO.C,R147*%
X169869200Y-99112000D03*
X169869200Y-99972000D03*
%TD*%
%TO.C,R120*%
X175869600Y-110872800D03*
X175869600Y-111732800D03*
%TD*%
D27*
%TO.C,R80*%
X141172800Y-63739200D03*
X142032800Y-63739200D03*
%TD*%
%TO.C,R156*%
X176714200Y-105467000D03*
X175854200Y-105467000D03*
%TD*%
%TO.C,R131*%
X162594200Y-113792000D03*
X163454200Y-113792000D03*
%TD*%
%TO.C,R56*%
X118904589Y-57473039D03*
X118044589Y-57473039D03*
%TD*%
D54*
%TO.C,TV1*%
X163550600Y-124256800D03*
X162600600Y-124256800D03*
X161650600Y-124256800D03*
X161650600Y-121556800D03*
X162600600Y-121556800D03*
X163550600Y-121556800D03*
%TD*%
D47*
%TO.C,L4*%
X165924200Y-116392000D03*
X167864200Y-116392000D03*
%TD*%
M02*
