%TF.GenerationSoftware,KiCad,Pcbnew,9.0.1*%
%TF.CreationDate,2025-07-09T12:24:19-07:00*%
%TF.ProjectId,peripheral_board_v1a,70657269-7068-4657-9261-6c5f626f6172,rev?*%
%TF.SameCoordinates,Original*%
%TF.FileFunction,Soldermask,Bot*%
%TF.FilePolarity,Negative*%
%FSLAX46Y46*%
G04 Gerber Fmt 4.6, Leading zero omitted, Abs format (unit mm)*
G04 Created by KiCad (PCBNEW 9.0.1) date 2025-07-09 12:24:19*
%MOMM*%
%LPD*%
G01*
G04 APERTURE LIST*
%ADD10R,1.700000X1.700000*%
%ADD11C,1.700000*%
%ADD12R,0.850000X0.850000*%
%ADD13C,0.850000*%
%ADD14C,3.000000*%
%ADD15C,5.000000*%
%ADD16C,3.250000*%
%ADD17C,1.520000*%
%ADD18C,2.500000*%
%ADD19C,1.600000*%
%ADD20R,1.400000X1.400000*%
%ADD21C,1.400000*%
%ADD22C,0.650000*%
%ADD23O,1.000000X2.100000*%
%ADD24O,1.000000X1.600000*%
%ADD25R,1.000000X1.000000*%
G04 APERTURE END LIST*
D10*
%TO.C,J2*%
X180875000Y-68950000D03*
D11*
X178335000Y-68950000D03*
X180875000Y-66410000D03*
X178335000Y-66410000D03*
X180875000Y-63870000D03*
X178335000Y-63870000D03*
X180875000Y-61330000D03*
X178335000Y-61330000D03*
X180875000Y-58790000D03*
X178335000Y-58790000D03*
X180875000Y-56250000D03*
X178335000Y-56250000D03*
%TD*%
D12*
%TO.C,J1*%
X152900000Y-69650000D03*
D13*
X152900000Y-68650000D03*
X152900000Y-67650000D03*
%TD*%
D14*
%TO.C,J8*%
X108225000Y-126315000D03*
X108225000Y-114885000D03*
%TD*%
D15*
%TO.C,H4*%
X106700000Y-132300000D03*
%TD*%
D14*
%TO.C,J7*%
X108125000Y-107315000D03*
X108125000Y-95885000D03*
%TD*%
D15*
%TO.C,H1*%
X106800000Y-52300000D03*
%TD*%
D14*
%TO.C,J5*%
X108300000Y-69930000D03*
X108300000Y-58500000D03*
%TD*%
D10*
%TO.C,J3*%
X193950000Y-91300000D03*
D11*
X191410000Y-91300000D03*
X193950000Y-88760000D03*
X191410000Y-88760000D03*
X193950000Y-86220000D03*
X191410000Y-86220000D03*
X193950000Y-83680000D03*
X191410000Y-83680000D03*
X193950000Y-81140000D03*
X191410000Y-81140000D03*
X193950000Y-78600000D03*
X191410000Y-78600000D03*
%TD*%
D16*
%TO.C,RJ1*%
X186220000Y-124280000D03*
X186220000Y-112840000D03*
D17*
X179870000Y-123010000D03*
X177330000Y-121740000D03*
X179870000Y-120460000D03*
X177330000Y-119190000D03*
X179870000Y-117930000D03*
X177330000Y-116660000D03*
X179870000Y-115390000D03*
X177330000Y-114120000D03*
X189600000Y-122350000D03*
X191120000Y-124890000D03*
X189600000Y-112230000D03*
X191120000Y-114770000D03*
D18*
X183170000Y-126330000D03*
X183170000Y-110790000D03*
%TD*%
D19*
%TO.C,SW3*%
X159065000Y-133180000D03*
X156525000Y-133180000D03*
X153985000Y-133180000D03*
X159065000Y-125560000D03*
X156525000Y-125560000D03*
X153985000Y-125560000D03*
%TD*%
D20*
%TO.C,CN2*%
X193600000Y-59200000D03*
D21*
X191600000Y-59200000D03*
X193600000Y-61200000D03*
X191600000Y-61200000D03*
X193600000Y-63200000D03*
X191600000Y-63200000D03*
X193600000Y-65200000D03*
X191600000Y-65200000D03*
X193600000Y-67200000D03*
X191600000Y-67200000D03*
X193600000Y-69200000D03*
X191600000Y-69200000D03*
X193600000Y-71200000D03*
X191600000Y-71200000D03*
X193600000Y-73200000D03*
X191600000Y-73200000D03*
%TD*%
D15*
%TO.C,H2*%
X186700000Y-52300000D03*
%TD*%
D20*
%TO.C,CN1*%
X122000000Y-46200000D03*
D21*
X122000000Y-44200000D03*
X120000000Y-46200000D03*
X120000000Y-44200000D03*
X118000000Y-46200000D03*
X118000000Y-44200000D03*
X116000000Y-46200000D03*
X116000000Y-44200000D03*
X114000000Y-46200000D03*
X114000000Y-44200000D03*
X112000000Y-46200000D03*
X112000000Y-44200000D03*
X110000000Y-46200000D03*
X110000000Y-44200000D03*
X108000000Y-46200000D03*
X108000000Y-44200000D03*
%TD*%
D14*
%TO.C,J6*%
X108125000Y-88615000D03*
X108125000Y-77185000D03*
%TD*%
D22*
%TO.C,J4*%
X150060000Y-48700000D03*
X144280000Y-48700000D03*
D23*
X151490000Y-49230000D03*
D24*
X151490000Y-45050000D03*
D23*
X142850000Y-49230000D03*
D24*
X142850000Y-45050000D03*
%TD*%
D15*
%TO.C,H3*%
X186750000Y-132250000D03*
%TD*%
D25*
%TO.C,TP23*%
X163650000Y-88150000D03*
%TD*%
%TO.C,TP32*%
X163449999Y-98300000D03*
%TD*%
%TO.C,TP27*%
X164650000Y-92200000D03*
%TD*%
%TO.C,TP15*%
X158600000Y-105650000D03*
%TD*%
%TO.C,TP11*%
X154500000Y-105649999D03*
%TD*%
%TO.C,TP25*%
X163600000Y-90200000D03*
%TD*%
%TO.C,TP17*%
X160600000Y-105650000D03*
%TD*%
%TO.C,TP33*%
X160900000Y-99900000D03*
%TD*%
%TO.C,TP13*%
X156550000Y-105650000D03*
%TD*%
%TO.C,TP29*%
X164650000Y-94200000D03*
%TD*%
%TO.C,TP22*%
X161600000Y-88200000D03*
%TD*%
%TO.C,TP10*%
X152450001Y-105650000D03*
%TD*%
%TO.C,TP30*%
X163450000Y-96300000D03*
%TD*%
M02*
