%TF.GenerationSoftware,KiCad,Pcbnew,9.0.1*%
%TF.CreationDate,2025-07-09T12:24:18-07:00*%
%TF.ProjectId,peripheral_board_v1a,70657269-7068-4657-9261-6c5f626f6172,rev?*%
%TF.SameCoordinates,Original*%
%TF.FileFunction,Legend,Top*%
%TF.FilePolarity,Positive*%
%FSLAX46Y46*%
G04 Gerber Fmt 4.6, Leading zero omitted, Abs format (unit mm)*
G04 Created by KiCad (PCBNEW 9.0.1) date 2025-07-09 12:24:18*
%MOMM*%
%LPD*%
G01*
G04 APERTURE LIST*
G04 Aperture macros list*
%AMRoundRect*
0 Rectangle with rounded corners*
0 $1 Rounding radius*
0 $2 $3 $4 $5 $6 $7 $8 $9 X,Y pos of 4 corners*
0 Add a 4 corners polygon primitive as box body*
4,1,4,$2,$3,$4,$5,$6,$7,$8,$9,$2,$3,0*
0 Add four circle primitives for the rounded corners*
1,1,$1+$1,$2,$3*
1,1,$1+$1,$4,$5*
1,1,$1+$1,$6,$7*
1,1,$1+$1,$8,$9*
0 Add four rect primitives between the rounded corners*
20,1,$1+$1,$2,$3,$4,$5,0*
20,1,$1+$1,$4,$5,$6,$7,0*
20,1,$1+$1,$6,$7,$8,$9,0*
20,1,$1+$1,$8,$9,$2,$3,0*%
%AMRotRect*
0 Rectangle, with rotation*
0 The origin of the aperture is its center*
0 $1 length*
0 $2 width*
0 $3 Rotation angle, in degrees counterclockwise*
0 Add horizontal line*
21,1,$1,$2,0,0,$3*%
%AMFreePoly0*
4,1,23,0.500000,-0.750000,0.000000,-0.750000,0.000000,-0.745722,-0.065263,-0.745722,-0.191342,-0.711940,-0.304381,-0.646677,-0.396677,-0.554381,-0.461940,-0.441342,-0.495722,-0.315263,-0.495722,-0.250000,-0.500000,-0.250000,-0.500000,0.250000,-0.495722,0.250000,-0.495722,0.315263,-0.461940,0.441342,-0.396677,0.554381,-0.304381,0.646677,-0.191342,0.711940,-0.065263,0.745722,0.000000,0.745722,
0.000000,0.750000,0.500000,0.750000,0.500000,-0.750000,0.500000,-0.750000,$1*%
%AMFreePoly1*
4,1,23,0.000000,0.745722,0.065263,0.745722,0.191342,0.711940,0.304381,0.646677,0.396677,0.554381,0.461940,0.441342,0.495722,0.315263,0.495722,0.250000,0.500000,0.250000,0.500000,-0.250000,0.495722,-0.250000,0.495722,-0.315263,0.461940,-0.441342,0.396677,-0.554381,0.304381,-0.646677,0.191342,-0.711940,0.065263,-0.745722,0.000000,-0.745722,0.000000,-0.750000,-0.500000,-0.750000,
-0.500000,0.750000,0.000000,0.750000,0.000000,0.745722,0.000000,0.745722,$1*%
G04 Aperture macros list end*
%ADD10C,0.300000*%
%ADD11C,0.150000*%
%ADD12C,0.125000*%
%ADD13C,0.200000*%
%ADD14C,0.120000*%
%ADD15C,0.250000*%
%ADD16C,0.400000*%
%ADD17C,0.100000*%
%ADD18C,0.000000*%
%ADD19C,0.191421*%
%ADD20RoundRect,0.200000X0.275000X-0.200000X0.275000X0.200000X-0.275000X0.200000X-0.275000X-0.200000X0*%
%ADD21R,1.000000X1.000000*%
%ADD22RoundRect,0.140000X0.170000X-0.140000X0.170000X0.140000X-0.170000X0.140000X-0.170000X-0.140000X0*%
%ADD23RoundRect,0.140000X-0.140000X-0.170000X0.140000X-0.170000X0.140000X0.170000X-0.140000X0.170000X0*%
%ADD24R,1.700000X1.700000*%
%ADD25C,1.700000*%
%ADD26RoundRect,0.200000X-0.200000X-0.275000X0.200000X-0.275000X0.200000X0.275000X-0.200000X0.275000X0*%
%ADD27RoundRect,0.200000X0.200000X0.275000X-0.200000X0.275000X-0.200000X-0.275000X0.200000X-0.275000X0*%
%ADD28RoundRect,0.200000X-0.275000X0.200000X-0.275000X-0.200000X0.275000X-0.200000X0.275000X0.200000X0*%
%ADD29RoundRect,0.140000X0.140000X0.170000X-0.140000X0.170000X-0.140000X-0.170000X0.140000X-0.170000X0*%
%ADD30RoundRect,0.218750X-0.218750X-0.256250X0.218750X-0.256250X0.218750X0.256250X-0.218750X0.256250X0*%
%ADD31R,1.100000X2.500000*%
%ADD32R,3.600000X2.340000*%
%ADD33RotRect,2.100000X1.700000X45.000000*%
%ADD34RoundRect,0.140000X-0.170000X0.140000X-0.170000X-0.140000X0.170000X-0.140000X0.170000X0.140000X0*%
%ADD35RoundRect,0.225000X-0.250000X0.225000X-0.250000X-0.225000X0.250000X-0.225000X0.250000X0.225000X0*%
%ADD36RoundRect,0.135000X-0.135000X-0.185000X0.135000X-0.185000X0.135000X0.185000X-0.135000X0.185000X0*%
%ADD37RoundRect,0.218750X-0.256250X0.218750X-0.256250X-0.218750X0.256250X-0.218750X0.256250X0.218750X0*%
%ADD38R,1.150000X1.050000*%
%ADD39RoundRect,0.135000X0.185000X-0.135000X0.185000X0.135000X-0.185000X0.135000X-0.185000X-0.135000X0*%
%ADD40R,0.850000X0.850000*%
%ADD41C,0.850000*%
%ADD42O,1.500000X0.270000*%
%ADD43O,0.270000X1.500000*%
%ADD44RoundRect,0.135000X-0.185000X0.135000X-0.185000X-0.135000X0.185000X-0.135000X0.185000X0.135000X0*%
%ADD45FreePoly0,0.000000*%
%ADD46FreePoly1,0.000000*%
%ADD47C,3.000000*%
%ADD48RoundRect,0.200000X1.550000X0.200000X-1.550000X0.200000X-1.550000X-0.200000X1.550000X-0.200000X0*%
%ADD49RoundRect,0.815000X1.485000X0.815000X-1.485000X0.815000X-1.485000X-0.815000X1.485000X-0.815000X0*%
%ADD50RoundRect,0.225000X0.225000X0.250000X-0.225000X0.250000X-0.225000X-0.250000X0.225000X-0.250000X0*%
%ADD51O,0.350000X1.450000*%
%ADD52R,1.630000X2.700000*%
%ADD53RoundRect,0.250000X0.689429X0.300520X0.300520X0.689429X-0.689429X-0.300520X-0.300520X-0.689429X0*%
%ADD54R,1.100000X0.600000*%
%ADD55R,4.000000X4.500000*%
%ADD56R,0.470000X0.530000*%
%ADD57C,5.000000*%
%ADD58R,1.460000X0.220000*%
%ADD59R,0.220000X1.460000*%
%ADD60O,2.250000X0.630000*%
%ADD61R,0.600000X1.100000*%
%ADD62R,1.400000X1.200000*%
%ADD63RoundRect,0.250000X-0.475000X0.250000X-0.475000X-0.250000X0.475000X-0.250000X0.475000X0.250000X0*%
%ADD64RoundRect,0.250000X-0.250000X-0.475000X0.250000X-0.475000X0.250000X0.475000X-0.250000X0.475000X0*%
%ADD65C,3.250000*%
%ADD66C,1.520000*%
%ADD67C,2.500000*%
%ADD68R,0.700000X1.700000*%
%ADD69RoundRect,0.225000X0.250000X-0.225000X0.250000X0.225000X-0.250000X0.225000X-0.250000X-0.225000X0*%
%ADD70RoundRect,0.225000X-0.335876X-0.017678X-0.017678X-0.335876X0.335876X0.017678X0.017678X0.335876X0*%
%ADD71RoundRect,0.135000X0.135000X0.185000X-0.135000X0.185000X-0.135000X-0.185000X0.135000X-0.185000X0*%
%ADD72RoundRect,0.140000X0.219203X0.021213X0.021213X0.219203X-0.219203X-0.021213X-0.021213X-0.219203X0*%
%ADD73R,1.700000X2.100000*%
%ADD74C,1.600000*%
%ADD75RoundRect,0.225000X0.335876X0.017678X0.017678X0.335876X-0.335876X-0.017678X-0.017678X-0.335876X0*%
%ADD76R,2.500000X1.100000*%
%ADD77R,2.340000X3.600000*%
%ADD78RoundRect,0.250000X0.275000X0.700000X-0.275000X0.700000X-0.275000X-0.700000X0.275000X-0.700000X0*%
%ADD79RoundRect,0.250000X-0.275000X-0.700000X0.275000X-0.700000X0.275000X0.700000X-0.275000X0.700000X0*%
%ADD80RoundRect,0.218750X0.218750X0.256250X-0.218750X0.256250X-0.218750X-0.256250X0.218750X-0.256250X0*%
%ADD81RoundRect,0.250000X0.250000X0.475000X-0.250000X0.475000X-0.250000X-0.475000X0.250000X-0.475000X0*%
%ADD82RoundRect,0.250000X-0.689429X-0.300520X-0.300520X-0.689429X0.689429X0.300520X0.300520X0.689429X0*%
%ADD83R,1.400000X1.400000*%
%ADD84C,1.400000*%
%ADD85RoundRect,0.140000X-0.219203X-0.021213X-0.021213X-0.219203X0.219203X0.021213X0.021213X0.219203X0*%
%ADD86R,0.880000X0.200000*%
%ADD87R,0.200000X0.880000*%
%ADD88R,3.400000X3.400000*%
%ADD89RoundRect,0.225000X-0.225000X-0.250000X0.225000X-0.250000X0.225000X0.250000X-0.225000X0.250000X0*%
%ADD90C,0.650000*%
%ADD91R,0.600000X1.450000*%
%ADD92R,0.300000X1.450000*%
%ADD93O,1.000000X2.100000*%
%ADD94O,1.000000X1.600000*%
G04 APERTURE END LIST*
D10*
X170818796Y-73626248D02*
X170104510Y-73626248D01*
X170104510Y-73626248D02*
X170104510Y-72126248D01*
X171318796Y-72840534D02*
X171818796Y-72840534D01*
X172033082Y-73626248D02*
X171318796Y-73626248D01*
X171318796Y-73626248D02*
X171318796Y-72126248D01*
X171318796Y-72126248D02*
X172033082Y-72126248D01*
X172675939Y-73626248D02*
X172675939Y-72126248D01*
X172675939Y-72126248D02*
X173033082Y-72126248D01*
X173033082Y-72126248D02*
X173247368Y-72197677D01*
X173247368Y-72197677D02*
X173390225Y-72340534D01*
X173390225Y-72340534D02*
X173461654Y-72483391D01*
X173461654Y-72483391D02*
X173533082Y-72769105D01*
X173533082Y-72769105D02*
X173533082Y-72983391D01*
X173533082Y-72983391D02*
X173461654Y-73269105D01*
X173461654Y-73269105D02*
X173390225Y-73411962D01*
X173390225Y-73411962D02*
X173247368Y-73554820D01*
X173247368Y-73554820D02*
X173033082Y-73626248D01*
X173033082Y-73626248D02*
X172675939Y-73626248D01*
X174033082Y-72126248D02*
X174961654Y-72126248D01*
X174961654Y-72126248D02*
X174461654Y-72697677D01*
X174461654Y-72697677D02*
X174675939Y-72697677D01*
X174675939Y-72697677D02*
X174818797Y-72769105D01*
X174818797Y-72769105D02*
X174890225Y-72840534D01*
X174890225Y-72840534D02*
X174961654Y-72983391D01*
X174961654Y-72983391D02*
X174961654Y-73340534D01*
X174961654Y-73340534D02*
X174890225Y-73483391D01*
X174890225Y-73483391D02*
X174818797Y-73554820D01*
X174818797Y-73554820D02*
X174675939Y-73626248D01*
X174675939Y-73626248D02*
X174247368Y-73626248D01*
X174247368Y-73626248D02*
X174104511Y-73554820D01*
X174104511Y-73554820D02*
X174033082Y-73483391D01*
X175604510Y-72840534D02*
X176747368Y-72840534D01*
X176747368Y-73269105D02*
X175604510Y-73269105D01*
X177747368Y-72126248D02*
X177890225Y-72126248D01*
X177890225Y-72126248D02*
X178033082Y-72197677D01*
X178033082Y-72197677D02*
X178104511Y-72269105D01*
X178104511Y-72269105D02*
X178175939Y-72411962D01*
X178175939Y-72411962D02*
X178247368Y-72697677D01*
X178247368Y-72697677D02*
X178247368Y-73054820D01*
X178247368Y-73054820D02*
X178175939Y-73340534D01*
X178175939Y-73340534D02*
X178104511Y-73483391D01*
X178104511Y-73483391D02*
X178033082Y-73554820D01*
X178033082Y-73554820D02*
X177890225Y-73626248D01*
X177890225Y-73626248D02*
X177747368Y-73626248D01*
X177747368Y-73626248D02*
X177604511Y-73554820D01*
X177604511Y-73554820D02*
X177533082Y-73483391D01*
X177533082Y-73483391D02*
X177461653Y-73340534D01*
X177461653Y-73340534D02*
X177390225Y-73054820D01*
X177390225Y-73054820D02*
X177390225Y-72697677D01*
X177390225Y-72697677D02*
X177461653Y-72411962D01*
X177461653Y-72411962D02*
X177533082Y-72269105D01*
X177533082Y-72269105D02*
X177604511Y-72197677D01*
X177604511Y-72197677D02*
X177747368Y-72126248D01*
X179675939Y-73626248D02*
X178818796Y-73626248D01*
X179247367Y-73626248D02*
X179247367Y-72126248D01*
X179247367Y-72126248D02*
X179104510Y-72340534D01*
X179104510Y-72340534D02*
X178961653Y-72483391D01*
X178961653Y-72483391D02*
X178818796Y-72554820D01*
X180390224Y-73554820D02*
X180390224Y-73626248D01*
X180390224Y-73626248D02*
X180318795Y-73769105D01*
X180318795Y-73769105D02*
X180247367Y-73840534D01*
X170818796Y-76041164D02*
X170104510Y-76041164D01*
X170104510Y-76041164D02*
X170104510Y-74541164D01*
X171318796Y-75255450D02*
X171818796Y-75255450D01*
X172033082Y-76041164D02*
X171318796Y-76041164D01*
X171318796Y-76041164D02*
X171318796Y-74541164D01*
X171318796Y-74541164D02*
X172033082Y-74541164D01*
X172675939Y-76041164D02*
X172675939Y-74541164D01*
X172675939Y-74541164D02*
X173033082Y-74541164D01*
X173033082Y-74541164D02*
X173247368Y-74612593D01*
X173247368Y-74612593D02*
X173390225Y-74755450D01*
X173390225Y-74755450D02*
X173461654Y-74898307D01*
X173461654Y-74898307D02*
X173533082Y-75184021D01*
X173533082Y-75184021D02*
X173533082Y-75398307D01*
X173533082Y-75398307D02*
X173461654Y-75684021D01*
X173461654Y-75684021D02*
X173390225Y-75826878D01*
X173390225Y-75826878D02*
X173247368Y-75969736D01*
X173247368Y-75969736D02*
X173033082Y-76041164D01*
X173033082Y-76041164D02*
X172675939Y-76041164D01*
X174104511Y-74684021D02*
X174175939Y-74612593D01*
X174175939Y-74612593D02*
X174318797Y-74541164D01*
X174318797Y-74541164D02*
X174675939Y-74541164D01*
X174675939Y-74541164D02*
X174818797Y-74612593D01*
X174818797Y-74612593D02*
X174890225Y-74684021D01*
X174890225Y-74684021D02*
X174961654Y-74826878D01*
X174961654Y-74826878D02*
X174961654Y-74969736D01*
X174961654Y-74969736D02*
X174890225Y-75184021D01*
X174890225Y-75184021D02*
X174033082Y-76041164D01*
X174033082Y-76041164D02*
X174961654Y-76041164D01*
X175604510Y-75255450D02*
X176747368Y-75255450D01*
X176747368Y-75684021D02*
X175604510Y-75684021D01*
X177747368Y-74541164D02*
X177890225Y-74541164D01*
X177890225Y-74541164D02*
X178033082Y-74612593D01*
X178033082Y-74612593D02*
X178104511Y-74684021D01*
X178104511Y-74684021D02*
X178175939Y-74826878D01*
X178175939Y-74826878D02*
X178247368Y-75112593D01*
X178247368Y-75112593D02*
X178247368Y-75469736D01*
X178247368Y-75469736D02*
X178175939Y-75755450D01*
X178175939Y-75755450D02*
X178104511Y-75898307D01*
X178104511Y-75898307D02*
X178033082Y-75969736D01*
X178033082Y-75969736D02*
X177890225Y-76041164D01*
X177890225Y-76041164D02*
X177747368Y-76041164D01*
X177747368Y-76041164D02*
X177604511Y-75969736D01*
X177604511Y-75969736D02*
X177533082Y-75898307D01*
X177533082Y-75898307D02*
X177461653Y-75755450D01*
X177461653Y-75755450D02*
X177390225Y-75469736D01*
X177390225Y-75469736D02*
X177390225Y-75112593D01*
X177390225Y-75112593D02*
X177461653Y-74826878D01*
X177461653Y-74826878D02*
X177533082Y-74684021D01*
X177533082Y-74684021D02*
X177604511Y-74612593D01*
X177604511Y-74612593D02*
X177747368Y-74541164D01*
X178747367Y-74541164D02*
X179747367Y-76041164D01*
X179747367Y-74541164D02*
X178747367Y-76041164D01*
X180390224Y-75969736D02*
X180390224Y-76041164D01*
X180390224Y-76041164D02*
X180318795Y-76184021D01*
X180318795Y-76184021D02*
X180247367Y-76255450D01*
X170818796Y-78456080D02*
X170104510Y-78456080D01*
X170104510Y-78456080D02*
X170104510Y-76956080D01*
X171318796Y-77670366D02*
X171818796Y-77670366D01*
X172033082Y-78456080D02*
X171318796Y-78456080D01*
X171318796Y-78456080D02*
X171318796Y-76956080D01*
X171318796Y-76956080D02*
X172033082Y-76956080D01*
X172675939Y-78456080D02*
X172675939Y-76956080D01*
X172675939Y-76956080D02*
X173033082Y-76956080D01*
X173033082Y-76956080D02*
X173247368Y-77027509D01*
X173247368Y-77027509D02*
X173390225Y-77170366D01*
X173390225Y-77170366D02*
X173461654Y-77313223D01*
X173461654Y-77313223D02*
X173533082Y-77598937D01*
X173533082Y-77598937D02*
X173533082Y-77813223D01*
X173533082Y-77813223D02*
X173461654Y-78098937D01*
X173461654Y-78098937D02*
X173390225Y-78241794D01*
X173390225Y-78241794D02*
X173247368Y-78384652D01*
X173247368Y-78384652D02*
X173033082Y-78456080D01*
X173033082Y-78456080D02*
X172675939Y-78456080D01*
X174961654Y-78456080D02*
X174104511Y-78456080D01*
X174533082Y-78456080D02*
X174533082Y-76956080D01*
X174533082Y-76956080D02*
X174390225Y-77170366D01*
X174390225Y-77170366D02*
X174247368Y-77313223D01*
X174247368Y-77313223D02*
X174104511Y-77384652D01*
X175604510Y-77670366D02*
X176747368Y-77670366D01*
X176747368Y-78098937D02*
X175604510Y-78098937D01*
X178247368Y-78456080D02*
X177390225Y-78456080D01*
X177818796Y-78456080D02*
X177818796Y-76956080D01*
X177818796Y-76956080D02*
X177675939Y-77170366D01*
X177675939Y-77170366D02*
X177533082Y-77313223D01*
X177533082Y-77313223D02*
X177390225Y-77384652D01*
X178747367Y-76956080D02*
X179747367Y-78456080D01*
X179747367Y-76956080D02*
X178747367Y-78456080D01*
X170390225Y-79370996D02*
X170533082Y-79370996D01*
X170533082Y-79370996D02*
X170675939Y-79442425D01*
X170675939Y-79442425D02*
X170747368Y-79513853D01*
X170747368Y-79513853D02*
X170818796Y-79656710D01*
X170818796Y-79656710D02*
X170890225Y-79942425D01*
X170890225Y-79942425D02*
X170890225Y-80299568D01*
X170890225Y-80299568D02*
X170818796Y-80585282D01*
X170818796Y-80585282D02*
X170747368Y-80728139D01*
X170747368Y-80728139D02*
X170675939Y-80799568D01*
X170675939Y-80799568D02*
X170533082Y-80870996D01*
X170533082Y-80870996D02*
X170390225Y-80870996D01*
X170390225Y-80870996D02*
X170247368Y-80799568D01*
X170247368Y-80799568D02*
X170175939Y-80728139D01*
X170175939Y-80728139D02*
X170104510Y-80585282D01*
X170104510Y-80585282D02*
X170033082Y-80299568D01*
X170033082Y-80299568D02*
X170033082Y-79942425D01*
X170033082Y-79942425D02*
X170104510Y-79656710D01*
X170104510Y-79656710D02*
X170175939Y-79513853D01*
X170175939Y-79513853D02*
X170247368Y-79442425D01*
X170247368Y-79442425D02*
X170390225Y-79370996D01*
X172675938Y-80085282D02*
X173818796Y-80085282D01*
X173818796Y-80513853D02*
X172675938Y-80513853D01*
X175675938Y-80870996D02*
X175675938Y-79370996D01*
X175675938Y-79370996D02*
X176247367Y-79370996D01*
X176247367Y-79370996D02*
X176390224Y-79442425D01*
X176390224Y-79442425D02*
X176461653Y-79513853D01*
X176461653Y-79513853D02*
X176533081Y-79656710D01*
X176533081Y-79656710D02*
X176533081Y-79870996D01*
X176533081Y-79870996D02*
X176461653Y-80013853D01*
X176461653Y-80013853D02*
X176390224Y-80085282D01*
X176390224Y-80085282D02*
X176247367Y-80156710D01*
X176247367Y-80156710D02*
X175675938Y-80156710D01*
X177818796Y-79870996D02*
X177818796Y-80870996D01*
X177175938Y-79870996D02*
X177175938Y-80656710D01*
X177175938Y-80656710D02*
X177247367Y-80799568D01*
X177247367Y-80799568D02*
X177390224Y-80870996D01*
X177390224Y-80870996D02*
X177604510Y-80870996D01*
X177604510Y-80870996D02*
X177747367Y-80799568D01*
X177747367Y-80799568D02*
X177818796Y-80728139D01*
X178747367Y-80870996D02*
X178604510Y-80799568D01*
X178604510Y-80799568D02*
X178533081Y-80656710D01*
X178533081Y-80656710D02*
X178533081Y-79370996D01*
X179533081Y-80870996D02*
X179390224Y-80799568D01*
X179390224Y-80799568D02*
X179318795Y-80656710D01*
X179318795Y-80656710D02*
X179318795Y-79370996D01*
X181247366Y-80870996D02*
X181247366Y-79370996D01*
X181247366Y-79370996D02*
X181604509Y-79370996D01*
X181604509Y-79370996D02*
X181818795Y-79442425D01*
X181818795Y-79442425D02*
X181961652Y-79585282D01*
X181961652Y-79585282D02*
X182033081Y-79728139D01*
X182033081Y-79728139D02*
X182104509Y-80013853D01*
X182104509Y-80013853D02*
X182104509Y-80228139D01*
X182104509Y-80228139D02*
X182033081Y-80513853D01*
X182033081Y-80513853D02*
X181961652Y-80656710D01*
X181961652Y-80656710D02*
X181818795Y-80799568D01*
X181818795Y-80799568D02*
X181604509Y-80870996D01*
X181604509Y-80870996D02*
X181247366Y-80870996D01*
X182961652Y-80870996D02*
X182818795Y-80799568D01*
X182818795Y-80799568D02*
X182747366Y-80728139D01*
X182747366Y-80728139D02*
X182675938Y-80585282D01*
X182675938Y-80585282D02*
X182675938Y-80156710D01*
X182675938Y-80156710D02*
X182747366Y-80013853D01*
X182747366Y-80013853D02*
X182818795Y-79942425D01*
X182818795Y-79942425D02*
X182961652Y-79870996D01*
X182961652Y-79870996D02*
X183175938Y-79870996D01*
X183175938Y-79870996D02*
X183318795Y-79942425D01*
X183318795Y-79942425D02*
X183390224Y-80013853D01*
X183390224Y-80013853D02*
X183461652Y-80156710D01*
X183461652Y-80156710D02*
X183461652Y-80585282D01*
X183461652Y-80585282D02*
X183390224Y-80728139D01*
X183390224Y-80728139D02*
X183318795Y-80799568D01*
X183318795Y-80799568D02*
X183175938Y-80870996D01*
X183175938Y-80870996D02*
X182961652Y-80870996D01*
X183961652Y-79870996D02*
X184247367Y-80870996D01*
X184247367Y-80870996D02*
X184533081Y-80156710D01*
X184533081Y-80156710D02*
X184818795Y-80870996D01*
X184818795Y-80870996D02*
X185104509Y-79870996D01*
X185675938Y-79870996D02*
X185675938Y-80870996D01*
X185675938Y-80013853D02*
X185747367Y-79942425D01*
X185747367Y-79942425D02*
X185890224Y-79870996D01*
X185890224Y-79870996D02*
X186104510Y-79870996D01*
X186104510Y-79870996D02*
X186247367Y-79942425D01*
X186247367Y-79942425D02*
X186318796Y-80085282D01*
X186318796Y-80085282D02*
X186318796Y-80870996D01*
X170890225Y-83285912D02*
X170033082Y-83285912D01*
X170461653Y-83285912D02*
X170461653Y-81785912D01*
X170461653Y-81785912D02*
X170318796Y-82000198D01*
X170318796Y-82000198D02*
X170175939Y-82143055D01*
X170175939Y-82143055D02*
X170033082Y-82214484D01*
X172675938Y-82500198D02*
X173818796Y-82500198D01*
X173818796Y-82928769D02*
X172675938Y-82928769D01*
X175675938Y-83285912D02*
X175675938Y-81785912D01*
X175675938Y-81785912D02*
X176247367Y-81785912D01*
X176247367Y-81785912D02*
X176390224Y-81857341D01*
X176390224Y-81857341D02*
X176461653Y-81928769D01*
X176461653Y-81928769D02*
X176533081Y-82071626D01*
X176533081Y-82071626D02*
X176533081Y-82285912D01*
X176533081Y-82285912D02*
X176461653Y-82428769D01*
X176461653Y-82428769D02*
X176390224Y-82500198D01*
X176390224Y-82500198D02*
X176247367Y-82571626D01*
X176247367Y-82571626D02*
X175675938Y-82571626D01*
X177818796Y-82285912D02*
X177818796Y-83285912D01*
X177175938Y-82285912D02*
X177175938Y-83071626D01*
X177175938Y-83071626D02*
X177247367Y-83214484D01*
X177247367Y-83214484D02*
X177390224Y-83285912D01*
X177390224Y-83285912D02*
X177604510Y-83285912D01*
X177604510Y-83285912D02*
X177747367Y-83214484D01*
X177747367Y-83214484D02*
X177818796Y-83143055D01*
X178747367Y-83285912D02*
X178604510Y-83214484D01*
X178604510Y-83214484D02*
X178533081Y-83071626D01*
X178533081Y-83071626D02*
X178533081Y-81785912D01*
X179533081Y-83285912D02*
X179390224Y-83214484D01*
X179390224Y-83214484D02*
X179318795Y-83071626D01*
X179318795Y-83071626D02*
X179318795Y-81785912D01*
X181247366Y-81785912D02*
X181247366Y-83000198D01*
X181247366Y-83000198D02*
X181318795Y-83143055D01*
X181318795Y-83143055D02*
X181390224Y-83214484D01*
X181390224Y-83214484D02*
X181533081Y-83285912D01*
X181533081Y-83285912D02*
X181818795Y-83285912D01*
X181818795Y-83285912D02*
X181961652Y-83214484D01*
X181961652Y-83214484D02*
X182033081Y-83143055D01*
X182033081Y-83143055D02*
X182104509Y-83000198D01*
X182104509Y-83000198D02*
X182104509Y-81785912D01*
X182818795Y-82285912D02*
X182818795Y-83785912D01*
X182818795Y-82357341D02*
X182961653Y-82285912D01*
X182961653Y-82285912D02*
X183247367Y-82285912D01*
X183247367Y-82285912D02*
X183390224Y-82357341D01*
X183390224Y-82357341D02*
X183461653Y-82428769D01*
X183461653Y-82428769D02*
X183533081Y-82571626D01*
X183533081Y-82571626D02*
X183533081Y-83000198D01*
X183533081Y-83000198D02*
X183461653Y-83143055D01*
X183461653Y-83143055D02*
X183390224Y-83214484D01*
X183390224Y-83214484D02*
X183247367Y-83285912D01*
X183247367Y-83285912D02*
X182961653Y-83285912D01*
X182961653Y-83285912D02*
X182818795Y-83214484D01*
X169961653Y-84200828D02*
X170961653Y-85700828D01*
X170961653Y-84200828D02*
X169961653Y-85700828D01*
X172675938Y-84915114D02*
X173818796Y-84915114D01*
X173818796Y-85343685D02*
X172675938Y-85343685D01*
X175675938Y-85700828D02*
X175675938Y-84200828D01*
X175675938Y-84200828D02*
X176033081Y-84200828D01*
X176033081Y-84200828D02*
X176247367Y-84272257D01*
X176247367Y-84272257D02*
X176390224Y-84415114D01*
X176390224Y-84415114D02*
X176461653Y-84557971D01*
X176461653Y-84557971D02*
X176533081Y-84843685D01*
X176533081Y-84843685D02*
X176533081Y-85057971D01*
X176533081Y-85057971D02*
X176461653Y-85343685D01*
X176461653Y-85343685D02*
X176390224Y-85486542D01*
X176390224Y-85486542D02*
X176247367Y-85629400D01*
X176247367Y-85629400D02*
X176033081Y-85700828D01*
X176033081Y-85700828D02*
X175675938Y-85700828D01*
X177390224Y-85700828D02*
X177247367Y-85629400D01*
X177247367Y-85629400D02*
X177175938Y-85557971D01*
X177175938Y-85557971D02*
X177104510Y-85415114D01*
X177104510Y-85415114D02*
X177104510Y-84986542D01*
X177104510Y-84986542D02*
X177175938Y-84843685D01*
X177175938Y-84843685D02*
X177247367Y-84772257D01*
X177247367Y-84772257D02*
X177390224Y-84700828D01*
X177390224Y-84700828D02*
X177604510Y-84700828D01*
X177604510Y-84700828D02*
X177747367Y-84772257D01*
X177747367Y-84772257D02*
X177818796Y-84843685D01*
X177818796Y-84843685D02*
X177890224Y-84986542D01*
X177890224Y-84986542D02*
X177890224Y-85415114D01*
X177890224Y-85415114D02*
X177818796Y-85557971D01*
X177818796Y-85557971D02*
X177747367Y-85629400D01*
X177747367Y-85629400D02*
X177604510Y-85700828D01*
X177604510Y-85700828D02*
X177390224Y-85700828D01*
X178533081Y-84700828D02*
X178533081Y-85700828D01*
X178533081Y-84843685D02*
X178604510Y-84772257D01*
X178604510Y-84772257D02*
X178747367Y-84700828D01*
X178747367Y-84700828D02*
X178961653Y-84700828D01*
X178961653Y-84700828D02*
X179104510Y-84772257D01*
X179104510Y-84772257D02*
X179175939Y-84915114D01*
X179175939Y-84915114D02*
X179175939Y-85700828D01*
X179961653Y-84200828D02*
X179818796Y-84486542D01*
X180390225Y-84700828D02*
X180961653Y-84700828D01*
X180604510Y-84200828D02*
X180604510Y-85486542D01*
X180604510Y-85486542D02*
X180675939Y-85629400D01*
X180675939Y-85629400D02*
X180818796Y-85700828D01*
X180818796Y-85700828D02*
X180961653Y-85700828D01*
X183461653Y-85557971D02*
X183390225Y-85629400D01*
X183390225Y-85629400D02*
X183175939Y-85700828D01*
X183175939Y-85700828D02*
X183033082Y-85700828D01*
X183033082Y-85700828D02*
X182818796Y-85629400D01*
X182818796Y-85629400D02*
X182675939Y-85486542D01*
X182675939Y-85486542D02*
X182604510Y-85343685D01*
X182604510Y-85343685D02*
X182533082Y-85057971D01*
X182533082Y-85057971D02*
X182533082Y-84843685D01*
X182533082Y-84843685D02*
X182604510Y-84557971D01*
X182604510Y-84557971D02*
X182675939Y-84415114D01*
X182675939Y-84415114D02*
X182818796Y-84272257D01*
X182818796Y-84272257D02*
X183033082Y-84200828D01*
X183033082Y-84200828D02*
X183175939Y-84200828D01*
X183175939Y-84200828D02*
X183390225Y-84272257D01*
X183390225Y-84272257D02*
X183461653Y-84343685D01*
X184747368Y-85700828D02*
X184747368Y-84915114D01*
X184747368Y-84915114D02*
X184675939Y-84772257D01*
X184675939Y-84772257D02*
X184533082Y-84700828D01*
X184533082Y-84700828D02*
X184247368Y-84700828D01*
X184247368Y-84700828D02*
X184104510Y-84772257D01*
X184747368Y-85629400D02*
X184604510Y-85700828D01*
X184604510Y-85700828D02*
X184247368Y-85700828D01*
X184247368Y-85700828D02*
X184104510Y-85629400D01*
X184104510Y-85629400D02*
X184033082Y-85486542D01*
X184033082Y-85486542D02*
X184033082Y-85343685D01*
X184033082Y-85343685D02*
X184104510Y-85200828D01*
X184104510Y-85200828D02*
X184247368Y-85129400D01*
X184247368Y-85129400D02*
X184604510Y-85129400D01*
X184604510Y-85129400D02*
X184747368Y-85057971D01*
X185461653Y-85700828D02*
X185461653Y-84700828D01*
X185461653Y-84986542D02*
X185533082Y-84843685D01*
X185533082Y-84843685D02*
X185604511Y-84772257D01*
X185604511Y-84772257D02*
X185747368Y-84700828D01*
X185747368Y-84700828D02*
X185890225Y-84700828D01*
X186961653Y-85629400D02*
X186818796Y-85700828D01*
X186818796Y-85700828D02*
X186533082Y-85700828D01*
X186533082Y-85700828D02*
X186390224Y-85629400D01*
X186390224Y-85629400D02*
X186318796Y-85486542D01*
X186318796Y-85486542D02*
X186318796Y-84915114D01*
X186318796Y-84915114D02*
X186390224Y-84772257D01*
X186390224Y-84772257D02*
X186533082Y-84700828D01*
X186533082Y-84700828D02*
X186818796Y-84700828D01*
X186818796Y-84700828D02*
X186961653Y-84772257D01*
X186961653Y-84772257D02*
X187033082Y-84915114D01*
X187033082Y-84915114D02*
X187033082Y-85057971D01*
X187033082Y-85057971D02*
X186318796Y-85200828D01*
D11*
X128736779Y-42819819D02*
X128736779Y-43629342D01*
X128736779Y-43629342D02*
X128784398Y-43724580D01*
X128784398Y-43724580D02*
X128832017Y-43772200D01*
X128832017Y-43772200D02*
X128927255Y-43819819D01*
X128927255Y-43819819D02*
X129117731Y-43819819D01*
X129117731Y-43819819D02*
X129212969Y-43772200D01*
X129212969Y-43772200D02*
X129260588Y-43724580D01*
X129260588Y-43724580D02*
X129308207Y-43629342D01*
X129308207Y-43629342D02*
X129308207Y-42819819D01*
X129736779Y-43772200D02*
X129879636Y-43819819D01*
X129879636Y-43819819D02*
X130117731Y-43819819D01*
X130117731Y-43819819D02*
X130212969Y-43772200D01*
X130212969Y-43772200D02*
X130260588Y-43724580D01*
X130260588Y-43724580D02*
X130308207Y-43629342D01*
X130308207Y-43629342D02*
X130308207Y-43534104D01*
X130308207Y-43534104D02*
X130260588Y-43438866D01*
X130260588Y-43438866D02*
X130212969Y-43391247D01*
X130212969Y-43391247D02*
X130117731Y-43343628D01*
X130117731Y-43343628D02*
X129927255Y-43296009D01*
X129927255Y-43296009D02*
X129832017Y-43248390D01*
X129832017Y-43248390D02*
X129784398Y-43200771D01*
X129784398Y-43200771D02*
X129736779Y-43105533D01*
X129736779Y-43105533D02*
X129736779Y-43010295D01*
X129736779Y-43010295D02*
X129784398Y-42915057D01*
X129784398Y-42915057D02*
X129832017Y-42867438D01*
X129832017Y-42867438D02*
X129927255Y-42819819D01*
X129927255Y-42819819D02*
X130165350Y-42819819D01*
X130165350Y-42819819D02*
X130308207Y-42867438D01*
X131070112Y-43296009D02*
X131212969Y-43343628D01*
X131212969Y-43343628D02*
X131260588Y-43391247D01*
X131260588Y-43391247D02*
X131308207Y-43486485D01*
X131308207Y-43486485D02*
X131308207Y-43629342D01*
X131308207Y-43629342D02*
X131260588Y-43724580D01*
X131260588Y-43724580D02*
X131212969Y-43772200D01*
X131212969Y-43772200D02*
X131117731Y-43819819D01*
X131117731Y-43819819D02*
X130736779Y-43819819D01*
X130736779Y-43819819D02*
X130736779Y-42819819D01*
X130736779Y-42819819D02*
X131070112Y-42819819D01*
X131070112Y-42819819D02*
X131165350Y-42867438D01*
X131165350Y-42867438D02*
X131212969Y-42915057D01*
X131212969Y-42915057D02*
X131260588Y-43010295D01*
X131260588Y-43010295D02*
X131260588Y-43105533D01*
X131260588Y-43105533D02*
X131212969Y-43200771D01*
X131212969Y-43200771D02*
X131165350Y-43248390D01*
X131165350Y-43248390D02*
X131070112Y-43296009D01*
X131070112Y-43296009D02*
X130736779Y-43296009D01*
X131498684Y-43915057D02*
X132260588Y-43915057D01*
X132832017Y-43296009D02*
X132974874Y-43343628D01*
X132974874Y-43343628D02*
X133022493Y-43391247D01*
X133022493Y-43391247D02*
X133070112Y-43486485D01*
X133070112Y-43486485D02*
X133070112Y-43629342D01*
X133070112Y-43629342D02*
X133022493Y-43724580D01*
X133022493Y-43724580D02*
X132974874Y-43772200D01*
X132974874Y-43772200D02*
X132879636Y-43819819D01*
X132879636Y-43819819D02*
X132498684Y-43819819D01*
X132498684Y-43819819D02*
X132498684Y-42819819D01*
X132498684Y-42819819D02*
X132832017Y-42819819D01*
X132832017Y-42819819D02*
X132927255Y-42867438D01*
X132927255Y-42867438D02*
X132974874Y-42915057D01*
X132974874Y-42915057D02*
X133022493Y-43010295D01*
X133022493Y-43010295D02*
X133022493Y-43105533D01*
X133022493Y-43105533D02*
X132974874Y-43200771D01*
X132974874Y-43200771D02*
X132927255Y-43248390D01*
X132927255Y-43248390D02*
X132832017Y-43296009D01*
X132832017Y-43296009D02*
X132498684Y-43296009D01*
X133689160Y-42819819D02*
X133879636Y-42819819D01*
X133879636Y-42819819D02*
X133974874Y-42867438D01*
X133974874Y-42867438D02*
X134070112Y-42962676D01*
X134070112Y-42962676D02*
X134117731Y-43153152D01*
X134117731Y-43153152D02*
X134117731Y-43486485D01*
X134117731Y-43486485D02*
X134070112Y-43676961D01*
X134070112Y-43676961D02*
X133974874Y-43772200D01*
X133974874Y-43772200D02*
X133879636Y-43819819D01*
X133879636Y-43819819D02*
X133689160Y-43819819D01*
X133689160Y-43819819D02*
X133593922Y-43772200D01*
X133593922Y-43772200D02*
X133498684Y-43676961D01*
X133498684Y-43676961D02*
X133451065Y-43486485D01*
X133451065Y-43486485D02*
X133451065Y-43153152D01*
X133451065Y-43153152D02*
X133498684Y-42962676D01*
X133498684Y-42962676D02*
X133593922Y-42867438D01*
X133593922Y-42867438D02*
X133689160Y-42819819D01*
X134736779Y-42819819D02*
X134927255Y-42819819D01*
X134927255Y-42819819D02*
X135022493Y-42867438D01*
X135022493Y-42867438D02*
X135117731Y-42962676D01*
X135117731Y-42962676D02*
X135165350Y-43153152D01*
X135165350Y-43153152D02*
X135165350Y-43486485D01*
X135165350Y-43486485D02*
X135117731Y-43676961D01*
X135117731Y-43676961D02*
X135022493Y-43772200D01*
X135022493Y-43772200D02*
X134927255Y-43819819D01*
X134927255Y-43819819D02*
X134736779Y-43819819D01*
X134736779Y-43819819D02*
X134641541Y-43772200D01*
X134641541Y-43772200D02*
X134546303Y-43676961D01*
X134546303Y-43676961D02*
X134498684Y-43486485D01*
X134498684Y-43486485D02*
X134498684Y-43153152D01*
X134498684Y-43153152D02*
X134546303Y-42962676D01*
X134546303Y-42962676D02*
X134641541Y-42867438D01*
X134641541Y-42867438D02*
X134736779Y-42819819D01*
X135451065Y-42819819D02*
X136022493Y-42819819D01*
X135736779Y-43819819D02*
X135736779Y-42819819D01*
X128598684Y-42542200D02*
X136017732Y-42542200D01*
X156008207Y-73319819D02*
X155674874Y-72843628D01*
X155436779Y-73319819D02*
X155436779Y-72319819D01*
X155436779Y-72319819D02*
X155817731Y-72319819D01*
X155817731Y-72319819D02*
X155912969Y-72367438D01*
X155912969Y-72367438D02*
X155960588Y-72415057D01*
X155960588Y-72415057D02*
X156008207Y-72510295D01*
X156008207Y-72510295D02*
X156008207Y-72653152D01*
X156008207Y-72653152D02*
X155960588Y-72748390D01*
X155960588Y-72748390D02*
X155912969Y-72796009D01*
X155912969Y-72796009D02*
X155817731Y-72843628D01*
X155817731Y-72843628D02*
X155436779Y-72843628D01*
X156436779Y-72319819D02*
X156436779Y-73129342D01*
X156436779Y-73129342D02*
X156484398Y-73224580D01*
X156484398Y-73224580D02*
X156532017Y-73272200D01*
X156532017Y-73272200D02*
X156627255Y-73319819D01*
X156627255Y-73319819D02*
X156817731Y-73319819D01*
X156817731Y-73319819D02*
X156912969Y-73272200D01*
X156912969Y-73272200D02*
X156960588Y-73224580D01*
X156960588Y-73224580D02*
X157008207Y-73129342D01*
X157008207Y-73129342D02*
X157008207Y-72319819D01*
X157484398Y-73319819D02*
X157484398Y-72319819D01*
X157484398Y-72319819D02*
X158055826Y-73319819D01*
X158055826Y-73319819D02*
X158055826Y-72319819D01*
D10*
X177918796Y-88800828D02*
X177204510Y-88800828D01*
X177204510Y-88800828D02*
X177204510Y-87300828D01*
X178418796Y-88015114D02*
X178918796Y-88015114D01*
X179133082Y-88800828D02*
X178418796Y-88800828D01*
X178418796Y-88800828D02*
X178418796Y-87300828D01*
X178418796Y-87300828D02*
X179133082Y-87300828D01*
X179775939Y-88800828D02*
X179775939Y-87300828D01*
X179775939Y-87300828D02*
X180133082Y-87300828D01*
X180133082Y-87300828D02*
X180347368Y-87372257D01*
X180347368Y-87372257D02*
X180490225Y-87515114D01*
X180490225Y-87515114D02*
X180561654Y-87657971D01*
X180561654Y-87657971D02*
X180633082Y-87943685D01*
X180633082Y-87943685D02*
X180633082Y-88157971D01*
X180633082Y-88157971D02*
X180561654Y-88443685D01*
X180561654Y-88443685D02*
X180490225Y-88586542D01*
X180490225Y-88586542D02*
X180347368Y-88729400D01*
X180347368Y-88729400D02*
X180133082Y-88800828D01*
X180133082Y-88800828D02*
X179775939Y-88800828D01*
X182061654Y-88800828D02*
X181204511Y-88800828D01*
X181633082Y-88800828D02*
X181633082Y-87300828D01*
X181633082Y-87300828D02*
X181490225Y-87515114D01*
X181490225Y-87515114D02*
X181347368Y-87657971D01*
X181347368Y-87657971D02*
X181204511Y-87729400D01*
X182347368Y-88943685D02*
X183490225Y-88943685D01*
X184133082Y-87300828D02*
X184275939Y-87300828D01*
X184275939Y-87300828D02*
X184418796Y-87372257D01*
X184418796Y-87372257D02*
X184490225Y-87443685D01*
X184490225Y-87443685D02*
X184561653Y-87586542D01*
X184561653Y-87586542D02*
X184633082Y-87872257D01*
X184633082Y-87872257D02*
X184633082Y-88229400D01*
X184633082Y-88229400D02*
X184561653Y-88515114D01*
X184561653Y-88515114D02*
X184490225Y-88657971D01*
X184490225Y-88657971D02*
X184418796Y-88729400D01*
X184418796Y-88729400D02*
X184275939Y-88800828D01*
X184275939Y-88800828D02*
X184133082Y-88800828D01*
X184133082Y-88800828D02*
X183990225Y-88729400D01*
X183990225Y-88729400D02*
X183918796Y-88657971D01*
X183918796Y-88657971D02*
X183847367Y-88515114D01*
X183847367Y-88515114D02*
X183775939Y-88229400D01*
X183775939Y-88229400D02*
X183775939Y-87872257D01*
X183775939Y-87872257D02*
X183847367Y-87586542D01*
X183847367Y-87586542D02*
X183918796Y-87443685D01*
X183918796Y-87443685D02*
X183990225Y-87372257D01*
X183990225Y-87372257D02*
X184133082Y-87300828D01*
X178118796Y-101550828D02*
X177404510Y-101550828D01*
X177404510Y-101550828D02*
X177404510Y-100050828D01*
X178618796Y-100765114D02*
X179118796Y-100765114D01*
X179333082Y-101550828D02*
X178618796Y-101550828D01*
X178618796Y-101550828D02*
X178618796Y-100050828D01*
X178618796Y-100050828D02*
X179333082Y-100050828D01*
X179975939Y-101550828D02*
X179975939Y-100050828D01*
X179975939Y-100050828D02*
X180333082Y-100050828D01*
X180333082Y-100050828D02*
X180547368Y-100122257D01*
X180547368Y-100122257D02*
X180690225Y-100265114D01*
X180690225Y-100265114D02*
X180761654Y-100407971D01*
X180761654Y-100407971D02*
X180833082Y-100693685D01*
X180833082Y-100693685D02*
X180833082Y-100907971D01*
X180833082Y-100907971D02*
X180761654Y-101193685D01*
X180761654Y-101193685D02*
X180690225Y-101336542D01*
X180690225Y-101336542D02*
X180547368Y-101479400D01*
X180547368Y-101479400D02*
X180333082Y-101550828D01*
X180333082Y-101550828D02*
X179975939Y-101550828D01*
X181333082Y-100050828D02*
X182261654Y-100050828D01*
X182261654Y-100050828D02*
X181761654Y-100622257D01*
X181761654Y-100622257D02*
X181975939Y-100622257D01*
X181975939Y-100622257D02*
X182118797Y-100693685D01*
X182118797Y-100693685D02*
X182190225Y-100765114D01*
X182190225Y-100765114D02*
X182261654Y-100907971D01*
X182261654Y-100907971D02*
X182261654Y-101265114D01*
X182261654Y-101265114D02*
X182190225Y-101407971D01*
X182190225Y-101407971D02*
X182118797Y-101479400D01*
X182118797Y-101479400D02*
X181975939Y-101550828D01*
X181975939Y-101550828D02*
X181547368Y-101550828D01*
X181547368Y-101550828D02*
X181404511Y-101479400D01*
X181404511Y-101479400D02*
X181333082Y-101407971D01*
X182547368Y-101693685D02*
X183690225Y-101693685D01*
X184833082Y-101550828D02*
X183975939Y-101550828D01*
X184404510Y-101550828D02*
X184404510Y-100050828D01*
X184404510Y-100050828D02*
X184261653Y-100265114D01*
X184261653Y-100265114D02*
X184118796Y-100407971D01*
X184118796Y-100407971D02*
X183975939Y-100479400D01*
X178118796Y-93800828D02*
X177404510Y-93800828D01*
X177404510Y-93800828D02*
X177404510Y-92300828D01*
X178618796Y-93015114D02*
X179118796Y-93015114D01*
X179333082Y-93800828D02*
X178618796Y-93800828D01*
X178618796Y-93800828D02*
X178618796Y-92300828D01*
X178618796Y-92300828D02*
X179333082Y-92300828D01*
X179975939Y-93800828D02*
X179975939Y-92300828D01*
X179975939Y-92300828D02*
X180333082Y-92300828D01*
X180333082Y-92300828D02*
X180547368Y-92372257D01*
X180547368Y-92372257D02*
X180690225Y-92515114D01*
X180690225Y-92515114D02*
X180761654Y-92657971D01*
X180761654Y-92657971D02*
X180833082Y-92943685D01*
X180833082Y-92943685D02*
X180833082Y-93157971D01*
X180833082Y-93157971D02*
X180761654Y-93443685D01*
X180761654Y-93443685D02*
X180690225Y-93586542D01*
X180690225Y-93586542D02*
X180547368Y-93729400D01*
X180547368Y-93729400D02*
X180333082Y-93800828D01*
X180333082Y-93800828D02*
X179975939Y-93800828D01*
X181404511Y-92443685D02*
X181475939Y-92372257D01*
X181475939Y-92372257D02*
X181618797Y-92300828D01*
X181618797Y-92300828D02*
X181975939Y-92300828D01*
X181975939Y-92300828D02*
X182118797Y-92372257D01*
X182118797Y-92372257D02*
X182190225Y-92443685D01*
X182190225Y-92443685D02*
X182261654Y-92586542D01*
X182261654Y-92586542D02*
X182261654Y-92729400D01*
X182261654Y-92729400D02*
X182190225Y-92943685D01*
X182190225Y-92943685D02*
X181333082Y-93800828D01*
X181333082Y-93800828D02*
X182261654Y-93800828D01*
X182547368Y-93943685D02*
X183690225Y-93943685D01*
X184333082Y-92300828D02*
X184475939Y-92300828D01*
X184475939Y-92300828D02*
X184618796Y-92372257D01*
X184618796Y-92372257D02*
X184690225Y-92443685D01*
X184690225Y-92443685D02*
X184761653Y-92586542D01*
X184761653Y-92586542D02*
X184833082Y-92872257D01*
X184833082Y-92872257D02*
X184833082Y-93229400D01*
X184833082Y-93229400D02*
X184761653Y-93515114D01*
X184761653Y-93515114D02*
X184690225Y-93657971D01*
X184690225Y-93657971D02*
X184618796Y-93729400D01*
X184618796Y-93729400D02*
X184475939Y-93800828D01*
X184475939Y-93800828D02*
X184333082Y-93800828D01*
X184333082Y-93800828D02*
X184190225Y-93729400D01*
X184190225Y-93729400D02*
X184118796Y-93657971D01*
X184118796Y-93657971D02*
X184047367Y-93515114D01*
X184047367Y-93515114D02*
X183975939Y-93229400D01*
X183975939Y-93229400D02*
X183975939Y-92872257D01*
X183975939Y-92872257D02*
X184047367Y-92586542D01*
X184047367Y-92586542D02*
X184118796Y-92443685D01*
X184118796Y-92443685D02*
X184190225Y-92372257D01*
X184190225Y-92372257D02*
X184333082Y-92300828D01*
X178068796Y-91500828D02*
X177354510Y-91500828D01*
X177354510Y-91500828D02*
X177354510Y-90000828D01*
X178568796Y-90715114D02*
X179068796Y-90715114D01*
X179283082Y-91500828D02*
X178568796Y-91500828D01*
X178568796Y-91500828D02*
X178568796Y-90000828D01*
X178568796Y-90000828D02*
X179283082Y-90000828D01*
X179925939Y-91500828D02*
X179925939Y-90000828D01*
X179925939Y-90000828D02*
X180283082Y-90000828D01*
X180283082Y-90000828D02*
X180497368Y-90072257D01*
X180497368Y-90072257D02*
X180640225Y-90215114D01*
X180640225Y-90215114D02*
X180711654Y-90357971D01*
X180711654Y-90357971D02*
X180783082Y-90643685D01*
X180783082Y-90643685D02*
X180783082Y-90857971D01*
X180783082Y-90857971D02*
X180711654Y-91143685D01*
X180711654Y-91143685D02*
X180640225Y-91286542D01*
X180640225Y-91286542D02*
X180497368Y-91429400D01*
X180497368Y-91429400D02*
X180283082Y-91500828D01*
X180283082Y-91500828D02*
X179925939Y-91500828D01*
X182211654Y-91500828D02*
X181354511Y-91500828D01*
X181783082Y-91500828D02*
X181783082Y-90000828D01*
X181783082Y-90000828D02*
X181640225Y-90215114D01*
X181640225Y-90215114D02*
X181497368Y-90357971D01*
X181497368Y-90357971D02*
X181354511Y-90429400D01*
X182497368Y-91643685D02*
X183640225Y-91643685D01*
X184783082Y-91500828D02*
X183925939Y-91500828D01*
X184354510Y-91500828D02*
X184354510Y-90000828D01*
X184354510Y-90000828D02*
X184211653Y-90215114D01*
X184211653Y-90215114D02*
X184068796Y-90357971D01*
X184068796Y-90357971D02*
X183925939Y-90429400D01*
X178168796Y-98950828D02*
X177454510Y-98950828D01*
X177454510Y-98950828D02*
X177454510Y-97450828D01*
X178668796Y-98165114D02*
X179168796Y-98165114D01*
X179383082Y-98950828D02*
X178668796Y-98950828D01*
X178668796Y-98950828D02*
X178668796Y-97450828D01*
X178668796Y-97450828D02*
X179383082Y-97450828D01*
X180025939Y-98950828D02*
X180025939Y-97450828D01*
X180025939Y-97450828D02*
X180383082Y-97450828D01*
X180383082Y-97450828D02*
X180597368Y-97522257D01*
X180597368Y-97522257D02*
X180740225Y-97665114D01*
X180740225Y-97665114D02*
X180811654Y-97807971D01*
X180811654Y-97807971D02*
X180883082Y-98093685D01*
X180883082Y-98093685D02*
X180883082Y-98307971D01*
X180883082Y-98307971D02*
X180811654Y-98593685D01*
X180811654Y-98593685D02*
X180740225Y-98736542D01*
X180740225Y-98736542D02*
X180597368Y-98879400D01*
X180597368Y-98879400D02*
X180383082Y-98950828D01*
X180383082Y-98950828D02*
X180025939Y-98950828D01*
X181383082Y-97450828D02*
X182311654Y-97450828D01*
X182311654Y-97450828D02*
X181811654Y-98022257D01*
X181811654Y-98022257D02*
X182025939Y-98022257D01*
X182025939Y-98022257D02*
X182168797Y-98093685D01*
X182168797Y-98093685D02*
X182240225Y-98165114D01*
X182240225Y-98165114D02*
X182311654Y-98307971D01*
X182311654Y-98307971D02*
X182311654Y-98665114D01*
X182311654Y-98665114D02*
X182240225Y-98807971D01*
X182240225Y-98807971D02*
X182168797Y-98879400D01*
X182168797Y-98879400D02*
X182025939Y-98950828D01*
X182025939Y-98950828D02*
X181597368Y-98950828D01*
X181597368Y-98950828D02*
X181454511Y-98879400D01*
X181454511Y-98879400D02*
X181383082Y-98807971D01*
X182597368Y-99093685D02*
X183740225Y-99093685D01*
X184383082Y-97450828D02*
X184525939Y-97450828D01*
X184525939Y-97450828D02*
X184668796Y-97522257D01*
X184668796Y-97522257D02*
X184740225Y-97593685D01*
X184740225Y-97593685D02*
X184811653Y-97736542D01*
X184811653Y-97736542D02*
X184883082Y-98022257D01*
X184883082Y-98022257D02*
X184883082Y-98379400D01*
X184883082Y-98379400D02*
X184811653Y-98665114D01*
X184811653Y-98665114D02*
X184740225Y-98807971D01*
X184740225Y-98807971D02*
X184668796Y-98879400D01*
X184668796Y-98879400D02*
X184525939Y-98950828D01*
X184525939Y-98950828D02*
X184383082Y-98950828D01*
X184383082Y-98950828D02*
X184240225Y-98879400D01*
X184240225Y-98879400D02*
X184168796Y-98807971D01*
X184168796Y-98807971D02*
X184097367Y-98665114D01*
X184097367Y-98665114D02*
X184025939Y-98379400D01*
X184025939Y-98379400D02*
X184025939Y-98022257D01*
X184025939Y-98022257D02*
X184097367Y-97736542D01*
X184097367Y-97736542D02*
X184168796Y-97593685D01*
X184168796Y-97593685D02*
X184240225Y-97522257D01*
X184240225Y-97522257D02*
X184383082Y-97450828D01*
D12*
X162372712Y-138713556D02*
X162515569Y-138761175D01*
X162515569Y-138761175D02*
X162753664Y-138761175D01*
X162753664Y-138761175D02*
X162848902Y-138713556D01*
X162848902Y-138713556D02*
X162896521Y-138665936D01*
X162896521Y-138665936D02*
X162944140Y-138570698D01*
X162944140Y-138570698D02*
X162944140Y-138475460D01*
X162944140Y-138475460D02*
X162896521Y-138380222D01*
X162896521Y-138380222D02*
X162848902Y-138332603D01*
X162848902Y-138332603D02*
X162753664Y-138284984D01*
X162753664Y-138284984D02*
X162563188Y-138237365D01*
X162563188Y-138237365D02*
X162467950Y-138189746D01*
X162467950Y-138189746D02*
X162420331Y-138142127D01*
X162420331Y-138142127D02*
X162372712Y-138046889D01*
X162372712Y-138046889D02*
X162372712Y-137951651D01*
X162372712Y-137951651D02*
X162420331Y-137856413D01*
X162420331Y-137856413D02*
X162467950Y-137808794D01*
X162467950Y-137808794D02*
X162563188Y-137761175D01*
X162563188Y-137761175D02*
X162801283Y-137761175D01*
X162801283Y-137761175D02*
X162944140Y-137808794D01*
X163944140Y-138665936D02*
X163896521Y-138713556D01*
X163896521Y-138713556D02*
X163753664Y-138761175D01*
X163753664Y-138761175D02*
X163658426Y-138761175D01*
X163658426Y-138761175D02*
X163515569Y-138713556D01*
X163515569Y-138713556D02*
X163420331Y-138618317D01*
X163420331Y-138618317D02*
X163372712Y-138523079D01*
X163372712Y-138523079D02*
X163325093Y-138332603D01*
X163325093Y-138332603D02*
X163325093Y-138189746D01*
X163325093Y-138189746D02*
X163372712Y-137999270D01*
X163372712Y-137999270D02*
X163420331Y-137904032D01*
X163420331Y-137904032D02*
X163515569Y-137808794D01*
X163515569Y-137808794D02*
X163658426Y-137761175D01*
X163658426Y-137761175D02*
X163753664Y-137761175D01*
X163753664Y-137761175D02*
X163896521Y-137808794D01*
X163896521Y-137808794D02*
X163944140Y-137856413D01*
X164325093Y-138475460D02*
X164801283Y-138475460D01*
X164229855Y-138761175D02*
X164563188Y-137761175D01*
X164563188Y-137761175D02*
X164896521Y-138761175D01*
X165706045Y-138761175D02*
X165229855Y-138761175D01*
X165229855Y-138761175D02*
X165229855Y-137761175D01*
X166039379Y-138237365D02*
X166372712Y-138237365D01*
X166515569Y-138761175D02*
X166039379Y-138761175D01*
X166039379Y-138761175D02*
X166039379Y-137761175D01*
X166039379Y-137761175D02*
X166515569Y-137761175D01*
X166896522Y-138713556D02*
X167039379Y-138761175D01*
X167039379Y-138761175D02*
X167277474Y-138761175D01*
X167277474Y-138761175D02*
X167372712Y-138713556D01*
X167372712Y-138713556D02*
X167420331Y-138665936D01*
X167420331Y-138665936D02*
X167467950Y-138570698D01*
X167467950Y-138570698D02*
X167467950Y-138475460D01*
X167467950Y-138475460D02*
X167420331Y-138380222D01*
X167420331Y-138380222D02*
X167372712Y-138332603D01*
X167372712Y-138332603D02*
X167277474Y-138284984D01*
X167277474Y-138284984D02*
X167086998Y-138237365D01*
X167086998Y-138237365D02*
X166991760Y-138189746D01*
X166991760Y-138189746D02*
X166944141Y-138142127D01*
X166944141Y-138142127D02*
X166896522Y-138046889D01*
X166896522Y-138046889D02*
X166896522Y-137951651D01*
X166896522Y-137951651D02*
X166944141Y-137856413D01*
X166944141Y-137856413D02*
X166991760Y-137808794D01*
X166991760Y-137808794D02*
X167086998Y-137761175D01*
X167086998Y-137761175D02*
X167325093Y-137761175D01*
X167325093Y-137761175D02*
X167467950Y-137808794D01*
X168658427Y-138761175D02*
X168658427Y-137761175D01*
X168658427Y-137761175D02*
X169039379Y-137761175D01*
X169039379Y-137761175D02*
X169134617Y-137808794D01*
X169134617Y-137808794D02*
X169182236Y-137856413D01*
X169182236Y-137856413D02*
X169229855Y-137951651D01*
X169229855Y-137951651D02*
X169229855Y-138094508D01*
X169229855Y-138094508D02*
X169182236Y-138189746D01*
X169182236Y-138189746D02*
X169134617Y-138237365D01*
X169134617Y-138237365D02*
X169039379Y-138284984D01*
X169039379Y-138284984D02*
X168658427Y-138284984D01*
X170039379Y-138713556D02*
X169944141Y-138761175D01*
X169944141Y-138761175D02*
X169753665Y-138761175D01*
X169753665Y-138761175D02*
X169658427Y-138713556D01*
X169658427Y-138713556D02*
X169610808Y-138618317D01*
X169610808Y-138618317D02*
X169610808Y-138237365D01*
X169610808Y-138237365D02*
X169658427Y-138142127D01*
X169658427Y-138142127D02*
X169753665Y-138094508D01*
X169753665Y-138094508D02*
X169944141Y-138094508D01*
X169944141Y-138094508D02*
X170039379Y-138142127D01*
X170039379Y-138142127D02*
X170086998Y-138237365D01*
X170086998Y-138237365D02*
X170086998Y-138332603D01*
X170086998Y-138332603D02*
X169610808Y-138427841D01*
X170515570Y-138761175D02*
X170515570Y-138094508D01*
X170515570Y-138284984D02*
X170563189Y-138189746D01*
X170563189Y-138189746D02*
X170610808Y-138142127D01*
X170610808Y-138142127D02*
X170706046Y-138094508D01*
X170706046Y-138094508D02*
X170801284Y-138094508D01*
X171134618Y-138761175D02*
X171134618Y-138094508D01*
X171134618Y-138284984D02*
X171182237Y-138189746D01*
X171182237Y-138189746D02*
X171229856Y-138142127D01*
X171229856Y-138142127D02*
X171325094Y-138094508D01*
X171325094Y-138094508D02*
X171420332Y-138094508D01*
X171753666Y-138761175D02*
X171753666Y-138094508D01*
X171753666Y-137761175D02*
X171706047Y-137808794D01*
X171706047Y-137808794D02*
X171753666Y-137856413D01*
X171753666Y-137856413D02*
X171801285Y-137808794D01*
X171801285Y-137808794D02*
X171753666Y-137761175D01*
X171753666Y-137761175D02*
X171753666Y-137856413D01*
X172229856Y-138094508D02*
X172229856Y-139094508D01*
X172229856Y-138142127D02*
X172325094Y-138094508D01*
X172325094Y-138094508D02*
X172515570Y-138094508D01*
X172515570Y-138094508D02*
X172610808Y-138142127D01*
X172610808Y-138142127D02*
X172658427Y-138189746D01*
X172658427Y-138189746D02*
X172706046Y-138284984D01*
X172706046Y-138284984D02*
X172706046Y-138570698D01*
X172706046Y-138570698D02*
X172658427Y-138665936D01*
X172658427Y-138665936D02*
X172610808Y-138713556D01*
X172610808Y-138713556D02*
X172515570Y-138761175D01*
X172515570Y-138761175D02*
X172325094Y-138761175D01*
X172325094Y-138761175D02*
X172229856Y-138713556D01*
X173134618Y-138761175D02*
X173134618Y-137761175D01*
X173563189Y-138761175D02*
X173563189Y-138237365D01*
X173563189Y-138237365D02*
X173515570Y-138142127D01*
X173515570Y-138142127D02*
X173420332Y-138094508D01*
X173420332Y-138094508D02*
X173277475Y-138094508D01*
X173277475Y-138094508D02*
X173182237Y-138142127D01*
X173182237Y-138142127D02*
X173134618Y-138189746D01*
X174420332Y-138713556D02*
X174325094Y-138761175D01*
X174325094Y-138761175D02*
X174134618Y-138761175D01*
X174134618Y-138761175D02*
X174039380Y-138713556D01*
X174039380Y-138713556D02*
X173991761Y-138618317D01*
X173991761Y-138618317D02*
X173991761Y-138237365D01*
X173991761Y-138237365D02*
X174039380Y-138142127D01*
X174039380Y-138142127D02*
X174134618Y-138094508D01*
X174134618Y-138094508D02*
X174325094Y-138094508D01*
X174325094Y-138094508D02*
X174420332Y-138142127D01*
X174420332Y-138142127D02*
X174467951Y-138237365D01*
X174467951Y-138237365D02*
X174467951Y-138332603D01*
X174467951Y-138332603D02*
X173991761Y-138427841D01*
X174896523Y-138761175D02*
X174896523Y-138094508D01*
X174896523Y-138284984D02*
X174944142Y-138189746D01*
X174944142Y-138189746D02*
X174991761Y-138142127D01*
X174991761Y-138142127D02*
X175086999Y-138094508D01*
X175086999Y-138094508D02*
X175182237Y-138094508D01*
X175944142Y-138761175D02*
X175944142Y-138237365D01*
X175944142Y-138237365D02*
X175896523Y-138142127D01*
X175896523Y-138142127D02*
X175801285Y-138094508D01*
X175801285Y-138094508D02*
X175610809Y-138094508D01*
X175610809Y-138094508D02*
X175515571Y-138142127D01*
X175944142Y-138713556D02*
X175848904Y-138761175D01*
X175848904Y-138761175D02*
X175610809Y-138761175D01*
X175610809Y-138761175D02*
X175515571Y-138713556D01*
X175515571Y-138713556D02*
X175467952Y-138618317D01*
X175467952Y-138618317D02*
X175467952Y-138523079D01*
X175467952Y-138523079D02*
X175515571Y-138427841D01*
X175515571Y-138427841D02*
X175610809Y-138380222D01*
X175610809Y-138380222D02*
X175848904Y-138380222D01*
X175848904Y-138380222D02*
X175944142Y-138332603D01*
X176563190Y-138761175D02*
X176467952Y-138713556D01*
X176467952Y-138713556D02*
X176420333Y-138618317D01*
X176420333Y-138618317D02*
X176420333Y-137761175D01*
X178039381Y-138237365D02*
X178182238Y-138284984D01*
X178182238Y-138284984D02*
X178229857Y-138332603D01*
X178229857Y-138332603D02*
X178277476Y-138427841D01*
X178277476Y-138427841D02*
X178277476Y-138570698D01*
X178277476Y-138570698D02*
X178229857Y-138665936D01*
X178229857Y-138665936D02*
X178182238Y-138713556D01*
X178182238Y-138713556D02*
X178087000Y-138761175D01*
X178087000Y-138761175D02*
X177706048Y-138761175D01*
X177706048Y-138761175D02*
X177706048Y-137761175D01*
X177706048Y-137761175D02*
X178039381Y-137761175D01*
X178039381Y-137761175D02*
X178134619Y-137808794D01*
X178134619Y-137808794D02*
X178182238Y-137856413D01*
X178182238Y-137856413D02*
X178229857Y-137951651D01*
X178229857Y-137951651D02*
X178229857Y-138046889D01*
X178229857Y-138046889D02*
X178182238Y-138142127D01*
X178182238Y-138142127D02*
X178134619Y-138189746D01*
X178134619Y-138189746D02*
X178039381Y-138237365D01*
X178039381Y-138237365D02*
X177706048Y-138237365D01*
X178848905Y-138761175D02*
X178753667Y-138713556D01*
X178753667Y-138713556D02*
X178706048Y-138665936D01*
X178706048Y-138665936D02*
X178658429Y-138570698D01*
X178658429Y-138570698D02*
X178658429Y-138284984D01*
X178658429Y-138284984D02*
X178706048Y-138189746D01*
X178706048Y-138189746D02*
X178753667Y-138142127D01*
X178753667Y-138142127D02*
X178848905Y-138094508D01*
X178848905Y-138094508D02*
X178991762Y-138094508D01*
X178991762Y-138094508D02*
X179087000Y-138142127D01*
X179087000Y-138142127D02*
X179134619Y-138189746D01*
X179134619Y-138189746D02*
X179182238Y-138284984D01*
X179182238Y-138284984D02*
X179182238Y-138570698D01*
X179182238Y-138570698D02*
X179134619Y-138665936D01*
X179134619Y-138665936D02*
X179087000Y-138713556D01*
X179087000Y-138713556D02*
X178991762Y-138761175D01*
X178991762Y-138761175D02*
X178848905Y-138761175D01*
X180039381Y-138761175D02*
X180039381Y-138237365D01*
X180039381Y-138237365D02*
X179991762Y-138142127D01*
X179991762Y-138142127D02*
X179896524Y-138094508D01*
X179896524Y-138094508D02*
X179706048Y-138094508D01*
X179706048Y-138094508D02*
X179610810Y-138142127D01*
X180039381Y-138713556D02*
X179944143Y-138761175D01*
X179944143Y-138761175D02*
X179706048Y-138761175D01*
X179706048Y-138761175D02*
X179610810Y-138713556D01*
X179610810Y-138713556D02*
X179563191Y-138618317D01*
X179563191Y-138618317D02*
X179563191Y-138523079D01*
X179563191Y-138523079D02*
X179610810Y-138427841D01*
X179610810Y-138427841D02*
X179706048Y-138380222D01*
X179706048Y-138380222D02*
X179944143Y-138380222D01*
X179944143Y-138380222D02*
X180039381Y-138332603D01*
X180515572Y-138761175D02*
X180515572Y-138094508D01*
X180515572Y-138284984D02*
X180563191Y-138189746D01*
X180563191Y-138189746D02*
X180610810Y-138142127D01*
X180610810Y-138142127D02*
X180706048Y-138094508D01*
X180706048Y-138094508D02*
X180801286Y-138094508D01*
X181563191Y-138761175D02*
X181563191Y-137761175D01*
X181563191Y-138713556D02*
X181467953Y-138761175D01*
X181467953Y-138761175D02*
X181277477Y-138761175D01*
X181277477Y-138761175D02*
X181182239Y-138713556D01*
X181182239Y-138713556D02*
X181134620Y-138665936D01*
X181134620Y-138665936D02*
X181087001Y-138570698D01*
X181087001Y-138570698D02*
X181087001Y-138284984D01*
X181087001Y-138284984D02*
X181134620Y-138189746D01*
X181134620Y-138189746D02*
X181182239Y-138142127D01*
X181182239Y-138142127D02*
X181277477Y-138094508D01*
X181277477Y-138094508D02*
X181467953Y-138094508D01*
X181467953Y-138094508D02*
X181563191Y-138142127D01*
X162420331Y-140371119D02*
X162420331Y-139371119D01*
X162420331Y-139371119D02*
X162658426Y-139371119D01*
X162658426Y-139371119D02*
X162801283Y-139418738D01*
X162801283Y-139418738D02*
X162896521Y-139513976D01*
X162896521Y-139513976D02*
X162944140Y-139609214D01*
X162944140Y-139609214D02*
X162991759Y-139799690D01*
X162991759Y-139799690D02*
X162991759Y-139942547D01*
X162991759Y-139942547D02*
X162944140Y-140133023D01*
X162944140Y-140133023D02*
X162896521Y-140228261D01*
X162896521Y-140228261D02*
X162801283Y-140323500D01*
X162801283Y-140323500D02*
X162658426Y-140371119D01*
X162658426Y-140371119D02*
X162420331Y-140371119D01*
X163801283Y-140323500D02*
X163706045Y-140371119D01*
X163706045Y-140371119D02*
X163515569Y-140371119D01*
X163515569Y-140371119D02*
X163420331Y-140323500D01*
X163420331Y-140323500D02*
X163372712Y-140228261D01*
X163372712Y-140228261D02*
X163372712Y-139847309D01*
X163372712Y-139847309D02*
X163420331Y-139752071D01*
X163420331Y-139752071D02*
X163515569Y-139704452D01*
X163515569Y-139704452D02*
X163706045Y-139704452D01*
X163706045Y-139704452D02*
X163801283Y-139752071D01*
X163801283Y-139752071D02*
X163848902Y-139847309D01*
X163848902Y-139847309D02*
X163848902Y-139942547D01*
X163848902Y-139942547D02*
X163372712Y-140037785D01*
X164229855Y-140323500D02*
X164325093Y-140371119D01*
X164325093Y-140371119D02*
X164515569Y-140371119D01*
X164515569Y-140371119D02*
X164610807Y-140323500D01*
X164610807Y-140323500D02*
X164658426Y-140228261D01*
X164658426Y-140228261D02*
X164658426Y-140180642D01*
X164658426Y-140180642D02*
X164610807Y-140085404D01*
X164610807Y-140085404D02*
X164515569Y-140037785D01*
X164515569Y-140037785D02*
X164372712Y-140037785D01*
X164372712Y-140037785D02*
X164277474Y-139990166D01*
X164277474Y-139990166D02*
X164229855Y-139894928D01*
X164229855Y-139894928D02*
X164229855Y-139847309D01*
X164229855Y-139847309D02*
X164277474Y-139752071D01*
X164277474Y-139752071D02*
X164372712Y-139704452D01*
X164372712Y-139704452D02*
X164515569Y-139704452D01*
X164515569Y-139704452D02*
X164610807Y-139752071D01*
X165086998Y-140371119D02*
X165086998Y-139704452D01*
X165086998Y-139371119D02*
X165039379Y-139418738D01*
X165039379Y-139418738D02*
X165086998Y-139466357D01*
X165086998Y-139466357D02*
X165134617Y-139418738D01*
X165134617Y-139418738D02*
X165086998Y-139371119D01*
X165086998Y-139371119D02*
X165086998Y-139466357D01*
X165991759Y-139704452D02*
X165991759Y-140513976D01*
X165991759Y-140513976D02*
X165944140Y-140609214D01*
X165944140Y-140609214D02*
X165896521Y-140656833D01*
X165896521Y-140656833D02*
X165801283Y-140704452D01*
X165801283Y-140704452D02*
X165658426Y-140704452D01*
X165658426Y-140704452D02*
X165563188Y-140656833D01*
X165991759Y-140323500D02*
X165896521Y-140371119D01*
X165896521Y-140371119D02*
X165706045Y-140371119D01*
X165706045Y-140371119D02*
X165610807Y-140323500D01*
X165610807Y-140323500D02*
X165563188Y-140275880D01*
X165563188Y-140275880D02*
X165515569Y-140180642D01*
X165515569Y-140180642D02*
X165515569Y-139894928D01*
X165515569Y-139894928D02*
X165563188Y-139799690D01*
X165563188Y-139799690D02*
X165610807Y-139752071D01*
X165610807Y-139752071D02*
X165706045Y-139704452D01*
X165706045Y-139704452D02*
X165896521Y-139704452D01*
X165896521Y-139704452D02*
X165991759Y-139752071D01*
X166467950Y-139704452D02*
X166467950Y-140371119D01*
X166467950Y-139799690D02*
X166515569Y-139752071D01*
X166515569Y-139752071D02*
X166610807Y-139704452D01*
X166610807Y-139704452D02*
X166753664Y-139704452D01*
X166753664Y-139704452D02*
X166848902Y-139752071D01*
X166848902Y-139752071D02*
X166896521Y-139847309D01*
X166896521Y-139847309D02*
X166896521Y-140371119D01*
X167753664Y-140323500D02*
X167658426Y-140371119D01*
X167658426Y-140371119D02*
X167467950Y-140371119D01*
X167467950Y-140371119D02*
X167372712Y-140323500D01*
X167372712Y-140323500D02*
X167325093Y-140228261D01*
X167325093Y-140228261D02*
X167325093Y-139847309D01*
X167325093Y-139847309D02*
X167372712Y-139752071D01*
X167372712Y-139752071D02*
X167467950Y-139704452D01*
X167467950Y-139704452D02*
X167658426Y-139704452D01*
X167658426Y-139704452D02*
X167753664Y-139752071D01*
X167753664Y-139752071D02*
X167801283Y-139847309D01*
X167801283Y-139847309D02*
X167801283Y-139942547D01*
X167801283Y-139942547D02*
X167325093Y-140037785D01*
X168658426Y-140371119D02*
X168658426Y-139371119D01*
X168658426Y-140323500D02*
X168563188Y-140371119D01*
X168563188Y-140371119D02*
X168372712Y-140371119D01*
X168372712Y-140371119D02*
X168277474Y-140323500D01*
X168277474Y-140323500D02*
X168229855Y-140275880D01*
X168229855Y-140275880D02*
X168182236Y-140180642D01*
X168182236Y-140180642D02*
X168182236Y-139894928D01*
X168182236Y-139894928D02*
X168229855Y-139799690D01*
X168229855Y-139799690D02*
X168277474Y-139752071D01*
X168277474Y-139752071D02*
X168372712Y-139704452D01*
X168372712Y-139704452D02*
X168563188Y-139704452D01*
X168563188Y-139704452D02*
X168658426Y-139752071D01*
X169896522Y-140371119D02*
X169896522Y-139371119D01*
X169896522Y-139752071D02*
X169991760Y-139704452D01*
X169991760Y-139704452D02*
X170182236Y-139704452D01*
X170182236Y-139704452D02*
X170277474Y-139752071D01*
X170277474Y-139752071D02*
X170325093Y-139799690D01*
X170325093Y-139799690D02*
X170372712Y-139894928D01*
X170372712Y-139894928D02*
X170372712Y-140180642D01*
X170372712Y-140180642D02*
X170325093Y-140275880D01*
X170325093Y-140275880D02*
X170277474Y-140323500D01*
X170277474Y-140323500D02*
X170182236Y-140371119D01*
X170182236Y-140371119D02*
X169991760Y-140371119D01*
X169991760Y-140371119D02*
X169896522Y-140323500D01*
X170706046Y-139704452D02*
X170944141Y-140371119D01*
X171182236Y-139704452D02*
X170944141Y-140371119D01*
X170944141Y-140371119D02*
X170848903Y-140609214D01*
X170848903Y-140609214D02*
X170801284Y-140656833D01*
X170801284Y-140656833D02*
X170706046Y-140704452D01*
X172610808Y-139371119D02*
X172610808Y-140085404D01*
X172610808Y-140085404D02*
X172563189Y-140228261D01*
X172563189Y-140228261D02*
X172467951Y-140323500D01*
X172467951Y-140323500D02*
X172325094Y-140371119D01*
X172325094Y-140371119D02*
X172229856Y-140371119D01*
X173229856Y-140371119D02*
X173134618Y-140323500D01*
X173134618Y-140323500D02*
X173086999Y-140275880D01*
X173086999Y-140275880D02*
X173039380Y-140180642D01*
X173039380Y-140180642D02*
X173039380Y-139894928D01*
X173039380Y-139894928D02*
X173086999Y-139799690D01*
X173086999Y-139799690D02*
X173134618Y-139752071D01*
X173134618Y-139752071D02*
X173229856Y-139704452D01*
X173229856Y-139704452D02*
X173372713Y-139704452D01*
X173372713Y-139704452D02*
X173467951Y-139752071D01*
X173467951Y-139752071D02*
X173515570Y-139799690D01*
X173515570Y-139799690D02*
X173563189Y-139894928D01*
X173563189Y-139894928D02*
X173563189Y-140180642D01*
X173563189Y-140180642D02*
X173515570Y-140275880D01*
X173515570Y-140275880D02*
X173467951Y-140323500D01*
X173467951Y-140323500D02*
X173372713Y-140371119D01*
X173372713Y-140371119D02*
X173229856Y-140371119D01*
X173991761Y-140371119D02*
X173991761Y-139371119D01*
X174420332Y-140371119D02*
X174420332Y-139847309D01*
X174420332Y-139847309D02*
X174372713Y-139752071D01*
X174372713Y-139752071D02*
X174277475Y-139704452D01*
X174277475Y-139704452D02*
X174134618Y-139704452D01*
X174134618Y-139704452D02*
X174039380Y-139752071D01*
X174039380Y-139752071D02*
X173991761Y-139799690D01*
X174896523Y-139704452D02*
X174896523Y-140371119D01*
X174896523Y-139799690D02*
X174944142Y-139752071D01*
X174944142Y-139752071D02*
X175039380Y-139704452D01*
X175039380Y-139704452D02*
X175182237Y-139704452D01*
X175182237Y-139704452D02*
X175277475Y-139752071D01*
X175277475Y-139752071D02*
X175325094Y-139847309D01*
X175325094Y-139847309D02*
X175325094Y-140371119D01*
X176563190Y-140371119D02*
X176563190Y-139371119D01*
X176563190Y-139371119D02*
X176944142Y-139371119D01*
X176944142Y-139371119D02*
X177039380Y-139418738D01*
X177039380Y-139418738D02*
X177086999Y-139466357D01*
X177086999Y-139466357D02*
X177134618Y-139561595D01*
X177134618Y-139561595D02*
X177134618Y-139704452D01*
X177134618Y-139704452D02*
X177086999Y-139799690D01*
X177086999Y-139799690D02*
X177039380Y-139847309D01*
X177039380Y-139847309D02*
X176944142Y-139894928D01*
X176944142Y-139894928D02*
X176563190Y-139894928D01*
X177706047Y-140371119D02*
X177610809Y-140323500D01*
X177610809Y-140323500D02*
X177563190Y-140275880D01*
X177563190Y-140275880D02*
X177515571Y-140180642D01*
X177515571Y-140180642D02*
X177515571Y-139894928D01*
X177515571Y-139894928D02*
X177563190Y-139799690D01*
X177563190Y-139799690D02*
X177610809Y-139752071D01*
X177610809Y-139752071D02*
X177706047Y-139704452D01*
X177706047Y-139704452D02*
X177848904Y-139704452D01*
X177848904Y-139704452D02*
X177944142Y-139752071D01*
X177944142Y-139752071D02*
X177991761Y-139799690D01*
X177991761Y-139799690D02*
X178039380Y-139894928D01*
X178039380Y-139894928D02*
X178039380Y-140180642D01*
X178039380Y-140180642D02*
X177991761Y-140275880D01*
X177991761Y-140275880D02*
X177944142Y-140323500D01*
X177944142Y-140323500D02*
X177848904Y-140371119D01*
X177848904Y-140371119D02*
X177706047Y-140371119D01*
X178610809Y-140371119D02*
X178515571Y-140323500D01*
X178515571Y-140323500D02*
X178467952Y-140228261D01*
X178467952Y-140228261D02*
X178467952Y-139371119D01*
X179134619Y-140371119D02*
X179039381Y-140323500D01*
X179039381Y-140323500D02*
X178991762Y-140228261D01*
X178991762Y-140228261D02*
X178991762Y-139371119D01*
X179944143Y-140371119D02*
X179944143Y-139847309D01*
X179944143Y-139847309D02*
X179896524Y-139752071D01*
X179896524Y-139752071D02*
X179801286Y-139704452D01*
X179801286Y-139704452D02*
X179610810Y-139704452D01*
X179610810Y-139704452D02*
X179515572Y-139752071D01*
X179944143Y-140323500D02*
X179848905Y-140371119D01*
X179848905Y-140371119D02*
X179610810Y-140371119D01*
X179610810Y-140371119D02*
X179515572Y-140323500D01*
X179515572Y-140323500D02*
X179467953Y-140228261D01*
X179467953Y-140228261D02*
X179467953Y-140133023D01*
X179467953Y-140133023D02*
X179515572Y-140037785D01*
X179515572Y-140037785D02*
X179610810Y-139990166D01*
X179610810Y-139990166D02*
X179848905Y-139990166D01*
X179848905Y-139990166D02*
X179944143Y-139942547D01*
X180420334Y-140371119D02*
X180420334Y-139371119D01*
X180515572Y-139990166D02*
X180801286Y-140371119D01*
X180801286Y-139704452D02*
X180420334Y-140085404D01*
D10*
X178118796Y-96450828D02*
X177404510Y-96450828D01*
X177404510Y-96450828D02*
X177404510Y-94950828D01*
X178618796Y-95665114D02*
X179118796Y-95665114D01*
X179333082Y-96450828D02*
X178618796Y-96450828D01*
X178618796Y-96450828D02*
X178618796Y-94950828D01*
X178618796Y-94950828D02*
X179333082Y-94950828D01*
X179975939Y-96450828D02*
X179975939Y-94950828D01*
X179975939Y-94950828D02*
X180333082Y-94950828D01*
X180333082Y-94950828D02*
X180547368Y-95022257D01*
X180547368Y-95022257D02*
X180690225Y-95165114D01*
X180690225Y-95165114D02*
X180761654Y-95307971D01*
X180761654Y-95307971D02*
X180833082Y-95593685D01*
X180833082Y-95593685D02*
X180833082Y-95807971D01*
X180833082Y-95807971D02*
X180761654Y-96093685D01*
X180761654Y-96093685D02*
X180690225Y-96236542D01*
X180690225Y-96236542D02*
X180547368Y-96379400D01*
X180547368Y-96379400D02*
X180333082Y-96450828D01*
X180333082Y-96450828D02*
X179975939Y-96450828D01*
X181404511Y-95093685D02*
X181475939Y-95022257D01*
X181475939Y-95022257D02*
X181618797Y-94950828D01*
X181618797Y-94950828D02*
X181975939Y-94950828D01*
X181975939Y-94950828D02*
X182118797Y-95022257D01*
X182118797Y-95022257D02*
X182190225Y-95093685D01*
X182190225Y-95093685D02*
X182261654Y-95236542D01*
X182261654Y-95236542D02*
X182261654Y-95379400D01*
X182261654Y-95379400D02*
X182190225Y-95593685D01*
X182190225Y-95593685D02*
X181333082Y-96450828D01*
X181333082Y-96450828D02*
X182261654Y-96450828D01*
X182547368Y-96593685D02*
X183690225Y-96593685D01*
X184833082Y-96450828D02*
X183975939Y-96450828D01*
X184404510Y-96450828D02*
X184404510Y-94950828D01*
X184404510Y-94950828D02*
X184261653Y-95165114D01*
X184261653Y-95165114D02*
X184118796Y-95307971D01*
X184118796Y-95307971D02*
X183975939Y-95379400D01*
D11*
X179271666Y-70784820D02*
X179271666Y-71499105D01*
X179271666Y-71499105D02*
X179224047Y-71641962D01*
X179224047Y-71641962D02*
X179128809Y-71737201D01*
X179128809Y-71737201D02*
X178985952Y-71784820D01*
X178985952Y-71784820D02*
X178890714Y-71784820D01*
X179700238Y-70880058D02*
X179747857Y-70832439D01*
X179747857Y-70832439D02*
X179843095Y-70784820D01*
X179843095Y-70784820D02*
X180081190Y-70784820D01*
X180081190Y-70784820D02*
X180176428Y-70832439D01*
X180176428Y-70832439D02*
X180224047Y-70880058D01*
X180224047Y-70880058D02*
X180271666Y-70975296D01*
X180271666Y-70975296D02*
X180271666Y-71070534D01*
X180271666Y-71070534D02*
X180224047Y-71213391D01*
X180224047Y-71213391D02*
X179652619Y-71784820D01*
X179652619Y-71784820D02*
X180271666Y-71784820D01*
X175304819Y-46061904D02*
X176114342Y-46061904D01*
X176114342Y-46061904D02*
X176209580Y-46014285D01*
X176209580Y-46014285D02*
X176257200Y-45966666D01*
X176257200Y-45966666D02*
X176304819Y-45871428D01*
X176304819Y-45871428D02*
X176304819Y-45680952D01*
X176304819Y-45680952D02*
X176257200Y-45585714D01*
X176257200Y-45585714D02*
X176209580Y-45538095D01*
X176209580Y-45538095D02*
X176114342Y-45490476D01*
X176114342Y-45490476D02*
X175304819Y-45490476D01*
X175733390Y-44871428D02*
X175685771Y-44966666D01*
X175685771Y-44966666D02*
X175638152Y-45014285D01*
X175638152Y-45014285D02*
X175542914Y-45061904D01*
X175542914Y-45061904D02*
X175495295Y-45061904D01*
X175495295Y-45061904D02*
X175400057Y-45014285D01*
X175400057Y-45014285D02*
X175352438Y-44966666D01*
X175352438Y-44966666D02*
X175304819Y-44871428D01*
X175304819Y-44871428D02*
X175304819Y-44680952D01*
X175304819Y-44680952D02*
X175352438Y-44585714D01*
X175352438Y-44585714D02*
X175400057Y-44538095D01*
X175400057Y-44538095D02*
X175495295Y-44490476D01*
X175495295Y-44490476D02*
X175542914Y-44490476D01*
X175542914Y-44490476D02*
X175638152Y-44538095D01*
X175638152Y-44538095D02*
X175685771Y-44585714D01*
X175685771Y-44585714D02*
X175733390Y-44680952D01*
X175733390Y-44680952D02*
X175733390Y-44871428D01*
X175733390Y-44871428D02*
X175781009Y-44966666D01*
X175781009Y-44966666D02*
X175828628Y-45014285D01*
X175828628Y-45014285D02*
X175923866Y-45061904D01*
X175923866Y-45061904D02*
X176114342Y-45061904D01*
X176114342Y-45061904D02*
X176209580Y-45014285D01*
X176209580Y-45014285D02*
X176257200Y-44966666D01*
X176257200Y-44966666D02*
X176304819Y-44871428D01*
X176304819Y-44871428D02*
X176304819Y-44680952D01*
X176304819Y-44680952D02*
X176257200Y-44585714D01*
X176257200Y-44585714D02*
X176209580Y-44538095D01*
X176209580Y-44538095D02*
X176114342Y-44490476D01*
X176114342Y-44490476D02*
X175923866Y-44490476D01*
X175923866Y-44490476D02*
X175828628Y-44538095D01*
X175828628Y-44538095D02*
X175781009Y-44585714D01*
X175781009Y-44585714D02*
X175733390Y-44680952D01*
D13*
X160208482Y-127612219D02*
X159637054Y-127612219D01*
X159922768Y-127612219D02*
X159922768Y-126612219D01*
X159922768Y-126612219D02*
X159827530Y-126755076D01*
X159827530Y-126755076D02*
X159732292Y-126850314D01*
X159732292Y-126850314D02*
X159637054Y-126897933D01*
X157097054Y-126707457D02*
X157144673Y-126659838D01*
X157144673Y-126659838D02*
X157239911Y-126612219D01*
X157239911Y-126612219D02*
X157478006Y-126612219D01*
X157478006Y-126612219D02*
X157573244Y-126659838D01*
X157573244Y-126659838D02*
X157620863Y-126707457D01*
X157620863Y-126707457D02*
X157668482Y-126802695D01*
X157668482Y-126802695D02*
X157668482Y-126897933D01*
X157668482Y-126897933D02*
X157620863Y-127040790D01*
X157620863Y-127040790D02*
X157049435Y-127612219D01*
X157049435Y-127612219D02*
X157668482Y-127612219D01*
X154509435Y-126612219D02*
X155128482Y-126612219D01*
X155128482Y-126612219D02*
X154795149Y-126993171D01*
X154795149Y-126993171D02*
X154938006Y-126993171D01*
X154938006Y-126993171D02*
X155033244Y-127040790D01*
X155033244Y-127040790D02*
X155080863Y-127088409D01*
X155080863Y-127088409D02*
X155128482Y-127183647D01*
X155128482Y-127183647D02*
X155128482Y-127421742D01*
X155128482Y-127421742D02*
X155080863Y-127516980D01*
X155080863Y-127516980D02*
X155033244Y-127564600D01*
X155033244Y-127564600D02*
X154938006Y-127612219D01*
X154938006Y-127612219D02*
X154652292Y-127612219D01*
X154652292Y-127612219D02*
X154557054Y-127564600D01*
X154557054Y-127564600D02*
X154509435Y-127516980D01*
D14*
%TO.C,R33*%
X150486258Y-102567385D02*
X150486258Y-102092869D01*
X151531258Y-102567385D02*
X151531258Y-102092869D01*
%TO.C,TP31*%
X162850000Y-95500000D02*
X164250000Y-95500000D01*
X162850000Y-96900000D02*
X162850000Y-95500000D01*
X164250000Y-95500000D02*
X164250000Y-96900000D01*
X164250000Y-96900000D02*
X162850000Y-96900000D01*
%TO.C,C9*%
X143015192Y-56381405D02*
X143015192Y-56165733D01*
X143735192Y-56381405D02*
X143735192Y-56165733D01*
%TO.C,C32*%
X172512164Y-114610000D02*
X172727836Y-114610000D01*
X172512164Y-115330000D02*
X172727836Y-115330000D01*
%TO.C,J2*%
X176955000Y-70330000D02*
X176955000Y-54870000D01*
X179605000Y-67680000D02*
X179605000Y-70330000D01*
X179605000Y-70330000D02*
X176955000Y-70330000D01*
X182255000Y-54870000D02*
X176955000Y-54870000D01*
X182255000Y-67680000D02*
X179605000Y-67680000D01*
X182255000Y-67680000D02*
X182255000Y-54870000D01*
X182255000Y-68950000D02*
X182255000Y-70330000D01*
X182255000Y-70330000D02*
X180875000Y-70330000D01*
%TO.C,R35*%
X151921499Y-84457627D02*
X152396015Y-84457627D01*
X151921499Y-85502627D02*
X152396015Y-85502627D01*
%TO.C,TP14*%
X155100000Y-103050000D02*
X156500000Y-103050000D01*
X155100000Y-104450000D02*
X155100000Y-103050000D01*
X156500000Y-103050000D02*
X156500000Y-104450000D01*
X156500000Y-104450000D02*
X155100000Y-104450000D01*
%TO.C,C4*%
X143542356Y-71618569D02*
X143758028Y-71618569D01*
X143542356Y-72338569D02*
X143758028Y-72338569D01*
%TO.C,C63*%
X123992164Y-123440000D02*
X124207836Y-123440000D01*
X123992164Y-124160000D02*
X124207836Y-124160000D01*
%TO.C,R16*%
X150157258Y-51577500D02*
X149682742Y-51577500D01*
X150157258Y-52622500D02*
X149682742Y-52622500D01*
%TO.C,R64*%
X158077500Y-48462742D02*
X158077500Y-48937258D01*
X159122500Y-48462742D02*
X159122500Y-48937258D01*
%TO.C,C3*%
X138818028Y-62418569D02*
X138602356Y-62418569D01*
X138818028Y-63138569D02*
X138602356Y-63138569D01*
%TO.C,D3*%
X173527499Y-58065000D02*
X173527499Y-59535000D01*
X173527499Y-59535000D02*
X175812499Y-59535000D01*
X175812499Y-58065000D02*
X173527499Y-58065000D01*
%TO.C,TP16*%
X157100000Y-103050000D02*
X158500000Y-103050000D01*
X157100000Y-104450000D02*
X157100000Y-103050000D01*
X158500000Y-103050000D02*
X158500000Y-104450000D01*
X158500000Y-104450000D02*
X157100000Y-104450000D01*
%TO.C,C60*%
X123912166Y-79345000D02*
X124127838Y-79345000D01*
X123912166Y-80065000D02*
X124127838Y-80065000D01*
%TO.C,R34*%
X162346015Y-91457627D02*
X161871499Y-91457627D01*
X162346015Y-92502627D02*
X161871499Y-92502627D01*
%TO.C,C36*%
X151948757Y-101887963D02*
X151948757Y-101672291D01*
X152668757Y-101887963D02*
X152668757Y-101672291D01*
%TO.C,C31*%
X169890001Y-118067836D02*
X169890001Y-117852164D01*
X170610001Y-118067836D02*
X170610001Y-117852164D01*
D11*
%TO.C,U7*%
X159430192Y-60158569D02*
X166090192Y-60158569D01*
X159430192Y-63098569D02*
X159430192Y-60158569D01*
X166090192Y-60158569D02*
X166090192Y-63098569D01*
X166090192Y-63098569D02*
X159430192Y-63098569D01*
D14*
%TO.C,Y3*%
X142233276Y-84737235D02*
X147465866Y-79504645D01*
X142445408Y-84949367D02*
X142233276Y-84737235D01*
X144001043Y-87212109D02*
X144354596Y-86858555D01*
X144354596Y-86858555D02*
X143930332Y-86434291D01*
X145485967Y-88697033D02*
X145839520Y-88343479D01*
X145839520Y-88343479D02*
X146051652Y-88555611D01*
X146051652Y-88555611D02*
X151284242Y-83323021D01*
X147465866Y-79504645D02*
X147677998Y-79716777D01*
X149162922Y-81201701D02*
X149587186Y-81625965D01*
X151284242Y-83323021D02*
X151072110Y-83110889D01*
%TO.C,C6*%
X145590192Y-69670733D02*
X145590192Y-69886405D01*
X146310192Y-69670733D02*
X146310192Y-69886405D01*
%TO.C,TP7*%
X115300000Y-48099999D02*
X116700000Y-48099999D01*
X115300000Y-49499999D02*
X115300000Y-48099999D01*
X116700000Y-48099999D02*
X116700000Y-49499999D01*
X116700000Y-49499999D02*
X115300000Y-49499999D01*
%TO.C,C23*%
X149115000Y-114779419D02*
X149115000Y-115060579D01*
X150135000Y-114779419D02*
X150135000Y-115060579D01*
%TO.C,C57*%
X124042163Y-67010001D02*
X124257835Y-67010001D01*
X124042163Y-67730001D02*
X124257835Y-67730001D01*
%TO.C,R38*%
X157155117Y-85700126D02*
X157462399Y-85700126D01*
X157155117Y-86460126D02*
X157462399Y-86460126D01*
%TO.C,R40*%
X171862742Y-87627500D02*
X172337258Y-87627500D01*
X171862742Y-88672500D02*
X172337258Y-88672500D01*
%TO.C,R9*%
X183887742Y-63327500D02*
X184362258Y-63327500D01*
X183887742Y-64372500D02*
X184362258Y-64372500D01*
%TO.C,D1*%
X139765000Y-42365000D02*
X139765000Y-44650000D01*
X141235000Y-42365000D02*
X139765000Y-42365000D01*
X141235000Y-44650000D02*
X141235000Y-42365000D01*
%TO.C,C28*%
X158765001Y-110429420D02*
X158765001Y-110710580D01*
X159785001Y-110429420D02*
X159785001Y-110710580D01*
%TO.C,D4*%
X154564998Y-53464998D02*
X154564998Y-55749998D01*
X156034998Y-53464998D02*
X154564998Y-53464998D01*
X156034998Y-55749998D02*
X156034998Y-53464998D01*
%TO.C,R11*%
X172149756Y-60827500D02*
X171675240Y-60827500D01*
X172149756Y-61872500D02*
X171675240Y-61872500D01*
%TO.C,C27*%
X155764999Y-110429421D02*
X155764999Y-110710581D01*
X156784999Y-110429421D02*
X156784999Y-110710581D01*
%TO.C,C12*%
X138807836Y-63993569D02*
X138592164Y-63993569D01*
X138807836Y-64713569D02*
X138592164Y-64713569D01*
%TO.C,R15*%
X129396359Y-49070000D02*
X129703641Y-49070000D01*
X129396359Y-49830000D02*
X129703641Y-49830000D01*
%TO.C,R8*%
X139977500Y-46612742D02*
X139977500Y-47087258D01*
X141022500Y-46612742D02*
X141022500Y-47087258D01*
D15*
%TO.C,SW2*%
X150200000Y-70930000D02*
X153700000Y-70930000D01*
X151100000Y-71600000D02*
X151350000Y-71600000D01*
X151100000Y-73150000D02*
X151100000Y-71600000D01*
X151350000Y-71600000D02*
X151350000Y-71600000D01*
X151350000Y-71600000D02*
X151500000Y-71450000D01*
X151450000Y-73150000D02*
X151100000Y-73150000D01*
X151500000Y-71450000D02*
X152200000Y-71450000D01*
X151650000Y-73350000D02*
X151450000Y-73150000D01*
X151650000Y-73350000D02*
X151650000Y-73350000D01*
X152200000Y-71450000D02*
X152200000Y-71450000D01*
X152200000Y-71450000D02*
X152350000Y-71600000D01*
X152250000Y-73350000D02*
X151650000Y-73350000D01*
X152350000Y-71600000D02*
X152750000Y-71600000D01*
X152400000Y-73200000D02*
X152250000Y-73350000D01*
X152400000Y-73200000D02*
X152400000Y-73200000D01*
X152700000Y-73200000D02*
X152400000Y-73200000D01*
X152750000Y-71600000D02*
X152750000Y-73200000D01*
X153700000Y-73970000D02*
X150200000Y-73970000D01*
D14*
%TO.C,R66*%
X154777500Y-57712742D02*
X154777500Y-58187258D01*
X155822500Y-57712742D02*
X155822500Y-58187258D01*
%TO.C,R36*%
X154469999Y-84953642D02*
X154469999Y-84646360D01*
X155229999Y-84953642D02*
X155229999Y-84646360D01*
%TO.C,R51*%
X124357744Y-76431713D02*
X124832260Y-76431713D01*
X124357744Y-77476713D02*
X124832260Y-77476713D01*
%TO.C,R13*%
X172162257Y-58277500D02*
X171687741Y-58277500D01*
X172162257Y-59322500D02*
X171687741Y-59322500D01*
%TO.C,C48*%
X159942164Y-55990000D02*
X160157836Y-55990000D01*
X159942164Y-56710000D02*
X160157836Y-56710000D01*
%TO.C,R22*%
X153212260Y-122797501D02*
X152737744Y-122797501D01*
X153212260Y-123842501D02*
X152737744Y-123842501D01*
%TO.C,TP36*%
X166250000Y-85150000D02*
X167650000Y-85150000D01*
X166250000Y-86550000D02*
X166250000Y-85150000D01*
X167650000Y-85150000D02*
X167650000Y-86550000D01*
X167650000Y-86550000D02*
X166250000Y-86550000D01*
%TO.C,TP20*%
X162850000Y-87400000D02*
X164250000Y-87400000D01*
X162850000Y-88800000D02*
X162850000Y-87400000D01*
X164250000Y-87400000D02*
X164250000Y-88800000D01*
X164250000Y-88800000D02*
X162850000Y-88800000D01*
%TO.C,C66*%
X156789999Y-44757836D02*
X156789999Y-44542164D01*
X157509999Y-44757836D02*
X157509999Y-44542164D01*
%TO.C,J1*%
X152155000Y-68915000D02*
X152155000Y-67040000D01*
X152214435Y-68915000D02*
X152155000Y-68915000D01*
X152489970Y-67040000D02*
X152155000Y-67040000D01*
X153645000Y-67040000D02*
X153310030Y-67040000D01*
X153645000Y-68915000D02*
X153585565Y-68915000D01*
X153645000Y-68915000D02*
X153645000Y-67040000D01*
X153645000Y-69650000D02*
X153645000Y-70385000D01*
X153645000Y-70385000D02*
X152900000Y-70385000D01*
%TO.C,R50*%
X124512741Y-69547502D02*
X124987257Y-69547502D01*
X124512741Y-70592502D02*
X124987257Y-70592502D01*
%TO.C,R18*%
X164312258Y-114097500D02*
X163837742Y-114097500D01*
X164312258Y-115142500D02*
X163837742Y-115142500D01*
D13*
%TO.C,U4*%
X154185000Y-114210000D02*
X160835000Y-114210000D01*
X154185000Y-120410000D02*
X154185000Y-114210000D01*
X154185000Y-120840000D02*
X154185000Y-120080000D01*
X160835000Y-114210000D02*
X160835000Y-120840000D01*
X160835000Y-120840000D02*
X154185000Y-120840000D01*
D16*
X161585000Y-120900000D02*
G75*
G02*
X161584750Y-120910027I200000J-10003D01*
G01*
D15*
X160525000Y-120140000D02*
G75*
G02*
X160185000Y-120140000I-170000J0D01*
G01*
X160185000Y-120140000D02*
G75*
G02*
X160525000Y-120140000I170000J0D01*
G01*
D14*
%TO.C,C59*%
X123912166Y-85694999D02*
X124127838Y-85694999D01*
X123912166Y-86414999D02*
X124127838Y-86414999D01*
%TO.C,R48*%
X124462742Y-59247500D02*
X124937258Y-59247500D01*
X124462742Y-60292500D02*
X124937258Y-60292500D01*
%TO.C,R57*%
X124337742Y-105527499D02*
X124812258Y-105527499D01*
X124337742Y-106572499D02*
X124812258Y-106572499D01*
%TO.C,R19*%
X153492270Y-135532056D02*
X153492270Y-136006572D01*
X154537270Y-135532056D02*
X154537270Y-136006572D01*
%TO.C,R6*%
X144995192Y-56149928D02*
X144995192Y-56457210D01*
X145755192Y-56149928D02*
X145755192Y-56457210D01*
%TO.C,TP1*%
X152800000Y-74550000D02*
X154200000Y-74550000D01*
X152800000Y-75950000D02*
X152800000Y-74550000D01*
X154200000Y-74550000D02*
X154200000Y-75950000D01*
X154200000Y-75950000D02*
X152800000Y-75950000D01*
%TO.C,JP1*%
X167550000Y-88450000D02*
X167550000Y-87850000D01*
X168250000Y-87150000D02*
X169650000Y-87150000D01*
X169650000Y-89150000D02*
X168250000Y-89150000D01*
X170350000Y-87850000D02*
X170350000Y-88450000D01*
X167550000Y-87850000D02*
G75*
G02*
X168250000Y-87150000I699999J1D01*
G01*
X168250000Y-89150000D02*
G75*
G02*
X167550000Y-88450000I-1J699999D01*
G01*
X169650000Y-87150000D02*
G75*
G02*
X170350000Y-87850000I0J-700000D01*
G01*
X170350000Y-88450000D02*
G75*
G02*
X169650000Y-89150000I-700000J0D01*
G01*
%TO.C,J8*%
X97355000Y-129120000D02*
X97355000Y-112080000D01*
X101225000Y-112080000D02*
X97355000Y-112080000D01*
X101225000Y-129120000D02*
X97355000Y-129120000D01*
X120645000Y-112080000D02*
X106225000Y-112080000D01*
X120645000Y-114050000D02*
X120645000Y-112080000D01*
X120645000Y-127150000D02*
X120645000Y-129120000D01*
X120645000Y-127150000D02*
X122625000Y-127150000D01*
X120645000Y-129120000D02*
X106225000Y-129120000D01*
%TO.C,R47*%
X124462740Y-57747501D02*
X124937256Y-57747501D01*
X124462740Y-58792501D02*
X124937256Y-58792501D01*
%TO.C,R28*%
X169687500Y-115702258D02*
X169687500Y-115227742D01*
X170732500Y-115702258D02*
X170732500Y-115227742D01*
%TO.C,C29*%
X146065582Y-111560003D02*
X145784422Y-111560003D01*
X146065582Y-112580003D02*
X145784422Y-112580003D01*
D15*
%TO.C,U9*%
X154750000Y-47580000D02*
X157750000Y-47580000D01*
X154750000Y-49040000D02*
X154750000Y-47580000D01*
X154750000Y-50060000D02*
X154750000Y-51490000D01*
X154750000Y-51490000D02*
X157750000Y-51490000D01*
X157750000Y-47580000D02*
X157750000Y-51490000D01*
X154750000Y-49040000D02*
G75*
G02*
X154750000Y-50060000I0J-510000D01*
G01*
D14*
%TO.C,TP18*%
X159150000Y-103050000D02*
X160550000Y-103050000D01*
X159150000Y-104450000D02*
X159150000Y-103050000D01*
X160550000Y-103050000D02*
X160550000Y-104450000D01*
X160550000Y-104450000D02*
X159150000Y-104450000D01*
%TO.C,C42*%
X152548759Y-86622289D02*
X152548759Y-86837961D01*
X153268759Y-86622289D02*
X153268759Y-86837961D01*
%TO.C,R44*%
X171837742Y-97827500D02*
X172312258Y-97827500D01*
X171837742Y-98872500D02*
X172312258Y-98872500D01*
D11*
%TO.C,C34*%
X178969999Y-128030000D02*
X178969999Y-130890000D01*
X179119999Y-131040000D02*
X180749999Y-131040000D01*
X180749999Y-127880000D02*
X179119999Y-127880000D01*
X182309999Y-127880000D02*
X183939999Y-127880000D01*
X183939999Y-131040000D02*
X182309999Y-131040000D01*
X184089999Y-128030000D02*
X184089999Y-130890000D01*
X178969999Y-128030000D02*
G75*
G02*
X179119999Y-127880000I150000J0D01*
G01*
X179119999Y-131040000D02*
G75*
G02*
X178969999Y-130890000I0J150000D01*
G01*
X183939999Y-127880000D02*
G75*
G02*
X184089999Y-128030000I0J-150000D01*
G01*
X184089999Y-130890000D02*
G75*
G02*
X183939999Y-131040000I-150000J0D01*
G01*
D14*
%TO.C,R41*%
X171862742Y-90177500D02*
X172337258Y-90177500D01*
X171862742Y-91222500D02*
X172337258Y-91222500D01*
%TO.C,FB7*%
X163660831Y-104997765D02*
X162479621Y-103816555D01*
X164947765Y-103710831D02*
X163766555Y-102529621D01*
D13*
%TO.C,U8*%
X164049999Y-43900000D02*
X164050000Y-44160000D01*
X164050000Y-42300000D02*
X164050000Y-42890000D01*
X164050000Y-45170000D02*
X164050000Y-45430000D01*
X164050000Y-46440000D02*
X164049999Y-46700000D01*
X164050000Y-47710000D02*
X164050000Y-48300000D01*
X164050000Y-48300000D02*
X172050000Y-48300000D01*
X172050000Y-42300000D02*
X164040000Y-42300000D01*
X172050000Y-42890000D02*
X172050000Y-42300000D01*
X172050000Y-44160000D02*
X172050001Y-43900000D01*
X172050000Y-45430000D02*
X172050000Y-45170000D01*
X172050000Y-48300000D02*
X172050000Y-47710000D01*
X172050001Y-46700000D02*
X172050000Y-46440000D01*
D14*
%TO.C,TP6*%
X117300000Y-48100000D02*
X118700000Y-48100000D01*
X117300000Y-49500000D02*
X117300000Y-48100000D01*
X118700000Y-48100000D02*
X118700000Y-49500000D01*
X118700000Y-49500000D02*
X117300000Y-49500000D01*
%TO.C,C65*%
X154540001Y-44757837D02*
X154540001Y-44542165D01*
X155260001Y-44757837D02*
X155260001Y-44542165D01*
%TO.C,C2*%
X147217356Y-57643569D02*
X147433028Y-57643569D01*
X147217356Y-58363569D02*
X147433028Y-58363569D01*
%TO.C,JP6*%
X167550000Y-101200000D02*
X167550000Y-100600000D01*
X168250000Y-99900000D02*
X169650000Y-99900000D01*
X169650000Y-101900000D02*
X168250000Y-101900000D01*
X170350000Y-100600000D02*
X170350000Y-101200000D01*
X167550000Y-100600000D02*
G75*
G02*
X168250000Y-99900000I699999J1D01*
G01*
X168250000Y-101900000D02*
G75*
G02*
X167550000Y-101200000I-1J699999D01*
G01*
X169650000Y-99900000D02*
G75*
G02*
X170350000Y-100600000I0J-700000D01*
G01*
X170350000Y-101200000D02*
G75*
G02*
X169650000Y-101900000I-700000J0D01*
G01*
%TO.C,C64*%
X123992164Y-117040000D02*
X124207836Y-117040000D01*
X123992164Y-117760000D02*
X124207836Y-117760000D01*
%TO.C,C39*%
X145700921Y-94070127D02*
X145916593Y-94070127D01*
X145700921Y-94790127D02*
X145916593Y-94790127D01*
%TO.C,TP19*%
X160850000Y-87400000D02*
X162250000Y-87400000D01*
X160850000Y-88800000D02*
X160850000Y-87400000D01*
X162250000Y-87400000D02*
X162250000Y-88800000D01*
X162250000Y-88800000D02*
X160850000Y-88800000D01*
%TO.C,C25*%
X164815580Y-118260000D02*
X164534420Y-118260000D01*
X164815580Y-119280000D02*
X164534420Y-119280000D01*
D11*
%TO.C,U6*%
X148970000Y-89120000D02*
X148970000Y-90100000D01*
X148970000Y-99280000D02*
X148970000Y-98300000D01*
X149380000Y-89530000D02*
X158720000Y-89530000D01*
X149380000Y-98870000D02*
X149380000Y-89530000D01*
X149950000Y-89120000D02*
X148970000Y-89120000D01*
X149950000Y-99280000D02*
X148970000Y-99280000D01*
X158150000Y-89120000D02*
X159130000Y-89120000D01*
X158150000Y-99280000D02*
X159130000Y-99280000D01*
X158720000Y-89530000D02*
X158720000Y-98870000D01*
X158720000Y-98870000D02*
X149380000Y-98870000D01*
X159130000Y-89120000D02*
X159130000Y-90100000D01*
X159130000Y-99280000D02*
X159130000Y-98300000D01*
D13*
X147490000Y-90400000D02*
G75*
G02*
X147290000Y-90400000I-100000J0D01*
G01*
X147290000Y-90400000D02*
G75*
G02*
X147490000Y-90400000I100000J0D01*
G01*
D10*
X150030000Y-90400000D02*
G75*
G02*
X149730000Y-90400000I-150000J0D01*
G01*
X149730000Y-90400000D02*
G75*
G02*
X150030000Y-90400000I150000J0D01*
G01*
D14*
%TO.C,C5*%
X146108028Y-71643569D02*
X145892356Y-71643569D01*
X146108028Y-72363569D02*
X145892356Y-72363569D01*
D11*
%TO.C,U3*%
X134495192Y-48763569D02*
X138855192Y-48763569D01*
X134495192Y-54043569D02*
X134495192Y-48763569D01*
X138855192Y-48763569D02*
X138855192Y-54043569D01*
X138855192Y-54043569D02*
X134495192Y-54043569D01*
D10*
X133295192Y-48733569D02*
G75*
G02*
X132995192Y-48733569I-150000J0D01*
G01*
X132995192Y-48733569D02*
G75*
G02*
X133295192Y-48733569I150000J0D01*
G01*
X135405192Y-49493569D02*
G75*
G02*
X135105192Y-49493569I-150000J0D01*
G01*
X135105192Y-49493569D02*
G75*
G02*
X135405192Y-49493569I150000J0D01*
G01*
D14*
%TO.C,JP5*%
X167550000Y-98650000D02*
X167550000Y-98050000D01*
X168250000Y-97350000D02*
X169650000Y-97350000D01*
X169650000Y-99350000D02*
X168250000Y-99350000D01*
X170350000Y-98050000D02*
X170350000Y-98650000D01*
X167550000Y-98050000D02*
G75*
G02*
X168250000Y-97350000I699999J1D01*
G01*
X168250000Y-99350000D02*
G75*
G02*
X167550000Y-98650000I-1J699999D01*
G01*
X169650000Y-97350000D02*
G75*
G02*
X170350000Y-98050000I0J-700000D01*
G01*
X170350000Y-98650000D02*
G75*
G02*
X169650000Y-99350000I-700000J0D01*
G01*
%TO.C,C7*%
X149215192Y-58295733D02*
X149215192Y-58511405D01*
X149935192Y-58295733D02*
X149935192Y-58511405D01*
%TO.C,C43*%
X161707836Y-97239999D02*
X161492164Y-97239999D01*
X161707836Y-97959999D02*
X161492164Y-97959999D01*
%TO.C,R61*%
X124412742Y-124527500D02*
X124887258Y-124527500D01*
X124412742Y-125572500D02*
X124887258Y-125572500D01*
%TO.C,R12*%
X183887742Y-58277502D02*
X184362258Y-58277502D01*
X183887742Y-59322502D02*
X184362258Y-59322502D01*
%TO.C,R31*%
X172767258Y-121017499D02*
X172292742Y-121017499D01*
X172767258Y-122062499D02*
X172292742Y-122062499D01*
%TO.C,J7*%
X97255000Y-110120000D02*
X97255000Y-93080000D01*
X101125000Y-93080000D02*
X97255000Y-93080000D01*
X101125000Y-110120000D02*
X97255000Y-110120000D01*
X120545000Y-93080000D02*
X106125000Y-93080000D01*
X120545000Y-95050000D02*
X120545000Y-93080000D01*
X120545000Y-108150000D02*
X120545000Y-110120000D01*
X120545000Y-108150000D02*
X122525000Y-108150000D01*
X120545000Y-110120000D02*
X106125000Y-110120000D01*
%TO.C,TP3*%
X125600000Y-44650000D02*
X127000000Y-44650000D01*
X125600000Y-46050000D02*
X125600000Y-44650000D01*
X127000000Y-44650000D02*
X127000000Y-46050000D01*
X127000000Y-46050000D02*
X125600000Y-46050000D01*
D17*
%TO.C,U5*%
X148175001Y-123670001D02*
X148325001Y-123670001D01*
X148175001Y-125470001D02*
X148175001Y-123670001D01*
X148175001Y-125470001D02*
X148325001Y-125470001D01*
X149235001Y-123670001D02*
X149275001Y-123670001D01*
X149235001Y-125470001D02*
X150225001Y-125470001D01*
X150185001Y-123670001D02*
X150225001Y-123670001D01*
X151135001Y-123670001D02*
X151275001Y-123670001D01*
X151135001Y-125470001D02*
X151275001Y-125470001D01*
X151275001Y-125470001D02*
X151275001Y-123670001D01*
D14*
%TO.C,JP3*%
X167550000Y-93550000D02*
X167550000Y-92950000D01*
X168250000Y-92250000D02*
X169650000Y-92250000D01*
X169650000Y-94250000D02*
X168250000Y-94250000D01*
X170350000Y-92950000D02*
X170350000Y-93550000D01*
X167550000Y-92950000D02*
G75*
G02*
X168250000Y-92250000I699999J1D01*
G01*
X168250000Y-94250000D02*
G75*
G02*
X167550000Y-93550000I-1J699999D01*
G01*
X169650000Y-92250000D02*
G75*
G02*
X170350000Y-92950000I0J-700000D01*
G01*
X170350000Y-93550000D02*
G75*
G02*
X169650000Y-94250000I-700000J0D01*
G01*
%TO.C,TP5*%
X119300000Y-48099999D02*
X120700000Y-48099999D01*
X119300000Y-49499999D02*
X119300000Y-48099999D01*
X120700000Y-48099999D02*
X120700000Y-49499999D01*
X120700000Y-49499999D02*
X119300000Y-49499999D01*
%TO.C,R4*%
X144445192Y-69932210D02*
X144445192Y-69624928D01*
X145205192Y-69932210D02*
X145205192Y-69624928D01*
%TO.C,Y1*%
X142600192Y-72753569D02*
X142600192Y-76053569D01*
X142600192Y-76053569D02*
X146600192Y-76053569D01*
%TO.C,R58*%
X124362742Y-107027498D02*
X124837258Y-107027498D01*
X124362742Y-108072498D02*
X124837258Y-108072498D01*
%TO.C,R46*%
X159552698Y-82367544D02*
X159552698Y-82842060D01*
X160597698Y-82367544D02*
X160597698Y-82842060D01*
%TO.C,R65*%
X158077500Y-51462741D02*
X158077500Y-51937257D01*
X159122500Y-51462741D02*
X159122500Y-51937257D01*
D18*
%TO.C,G\u002A\u002A\u002A*%
G36*
X189664960Y-43953296D02*
G01*
X190529923Y-43958385D01*
X190533377Y-46806746D01*
X190533864Y-47196604D01*
X190534349Y-47549292D01*
X190534860Y-47866720D01*
X190535421Y-48150793D01*
X190536059Y-48403421D01*
X190536801Y-48626510D01*
X190537673Y-48821969D01*
X190538701Y-48991705D01*
X190539911Y-49137626D01*
X190541329Y-49261640D01*
X190542982Y-49365654D01*
X190544895Y-49451576D01*
X190547096Y-49521314D01*
X190549610Y-49576776D01*
X190552463Y-49619869D01*
X190555682Y-49652502D01*
X190559293Y-49676581D01*
X190563322Y-49694015D01*
X190567796Y-49706711D01*
X190572739Y-49716578D01*
X190573382Y-49717690D01*
X190633167Y-49794637D01*
X190718763Y-49862421D01*
X190833306Y-49922626D01*
X190979929Y-49976837D01*
X191161768Y-50026639D01*
X191204000Y-50036521D01*
X191409154Y-50083338D01*
X194061500Y-50083515D01*
X194380025Y-50083642D01*
X194687599Y-50083972D01*
X194981976Y-50084492D01*
X195260916Y-50085190D01*
X195522173Y-50086053D01*
X195763506Y-50087068D01*
X195982672Y-50088223D01*
X196177426Y-50089506D01*
X196345527Y-50090903D01*
X196484731Y-50092403D01*
X196592796Y-50093993D01*
X196667477Y-50095660D01*
X196706532Y-50097391D01*
X196712020Y-50098346D01*
X196697942Y-50114330D01*
X196658251Y-50154609D01*
X196595649Y-50216552D01*
X196512841Y-50297527D01*
X196412531Y-50394901D01*
X196297422Y-50506043D01*
X196170219Y-50628321D01*
X196033625Y-50759102D01*
X196009455Y-50782192D01*
X195308717Y-51451385D01*
X193212397Y-51447863D01*
X192927409Y-51447330D01*
X192652040Y-51446711D01*
X192388975Y-51446017D01*
X192140899Y-51445260D01*
X191910496Y-51444451D01*
X191700450Y-51443603D01*
X191513447Y-51442726D01*
X191352171Y-51441832D01*
X191219307Y-51440934D01*
X191117539Y-51440042D01*
X191049552Y-51439168D01*
X191018385Y-51438347D01*
X190686099Y-51406354D01*
X190385345Y-51352818D01*
X190114733Y-51277248D01*
X189872870Y-51179153D01*
X189658368Y-51058042D01*
X189469837Y-50913424D01*
X189430910Y-50877649D01*
X189294606Y-50733297D01*
X189177244Y-50575349D01*
X189076198Y-50398649D01*
X188988840Y-50198046D01*
X188912545Y-49968384D01*
X188854565Y-49747053D01*
X188811742Y-49565923D01*
X188805870Y-46757066D01*
X188799997Y-43948208D01*
X189664960Y-43953296D01*
G37*
G36*
X180394130Y-46757066D02*
G01*
X180388258Y-49565923D01*
X180345435Y-49747053D01*
X180276461Y-50005390D01*
X180198652Y-50230300D01*
X180109382Y-50426936D01*
X180006024Y-50600451D01*
X179885951Y-50756000D01*
X179769089Y-50877649D01*
X179610834Y-51011135D01*
X179436877Y-51124368D01*
X179242722Y-51219277D01*
X179023869Y-51297795D01*
X178775820Y-51361853D01*
X178537635Y-51406544D01*
X178502746Y-51411596D01*
X178462594Y-51416132D01*
X178414910Y-51420190D01*
X178357422Y-51423806D01*
X178287860Y-51427017D01*
X178203954Y-51429861D01*
X178103433Y-51432375D01*
X177984027Y-51434595D01*
X177843465Y-51436559D01*
X177679476Y-51438305D01*
X177489790Y-51439868D01*
X177272137Y-51441287D01*
X177024246Y-51442598D01*
X176743847Y-51443838D01*
X176428669Y-51445045D01*
X176115986Y-51446125D01*
X173894049Y-51453509D01*
X173192022Y-50783254D01*
X173053948Y-50651180D01*
X172924797Y-50527155D01*
X172807271Y-50413810D01*
X172704071Y-50313773D01*
X172617901Y-50229675D01*
X172551463Y-50164143D01*
X172507459Y-50119809D01*
X172488591Y-50099300D01*
X172488074Y-50098346D01*
X172507004Y-50096585D01*
X172562769Y-50094882D01*
X172653125Y-50093249D01*
X172775828Y-50091699D01*
X172928637Y-50090245D01*
X173109308Y-50088899D01*
X173315598Y-50087673D01*
X173545264Y-50086581D01*
X173796064Y-50085635D01*
X174065754Y-50084847D01*
X174352091Y-50084229D01*
X174652833Y-50083796D01*
X174965736Y-50083558D01*
X175138500Y-50083515D01*
X177790846Y-50083338D01*
X177996000Y-50036521D01*
X178185502Y-49987432D01*
X178339142Y-49934262D01*
X178460054Y-49875424D01*
X178551372Y-49809336D01*
X178616231Y-49734412D01*
X178626618Y-49717690D01*
X178631621Y-49708041D01*
X178636151Y-49695796D01*
X178640234Y-49679049D01*
X178643895Y-49655891D01*
X178647160Y-49624415D01*
X178650057Y-49582713D01*
X178652612Y-49528878D01*
X178654849Y-49461001D01*
X178656797Y-49377175D01*
X178658481Y-49275493D01*
X178659926Y-49154045D01*
X178661160Y-49010926D01*
X178662209Y-48844226D01*
X178663099Y-48652039D01*
X178663855Y-48432456D01*
X178664505Y-48183570D01*
X178665074Y-47903473D01*
X178665589Y-47590257D01*
X178666076Y-47242014D01*
X178666561Y-46856838D01*
X178666622Y-46806746D01*
X178670077Y-43958385D01*
X179535040Y-43953296D01*
X180400003Y-43948208D01*
X180394130Y-46757066D01*
G37*
G36*
X183774500Y-44013021D02*
G01*
X184180337Y-44013994D01*
X184549104Y-44014887D01*
X184882805Y-44015768D01*
X185183446Y-44016701D01*
X185453033Y-44017753D01*
X185693572Y-44018989D01*
X185907067Y-44020475D01*
X186095525Y-44022278D01*
X186260952Y-44024463D01*
X186405352Y-44027096D01*
X186530732Y-44030242D01*
X186639096Y-44033969D01*
X186732452Y-44038340D01*
X186812804Y-44043424D01*
X186882158Y-44049284D01*
X186942519Y-44055988D01*
X186995894Y-44063601D01*
X187044287Y-44072189D01*
X187089705Y-44081818D01*
X187134153Y-44092553D01*
X187179636Y-44104461D01*
X187228161Y-44117607D01*
X187265371Y-44127679D01*
X187515427Y-44209546D01*
X187736010Y-44312422D01*
X187925853Y-44435413D01*
X188083687Y-44577626D01*
X188208246Y-44738168D01*
X188259068Y-44827846D01*
X188287009Y-44884746D01*
X188310756Y-44937776D01*
X188330627Y-44990542D01*
X188346938Y-45046653D01*
X188360006Y-45109714D01*
X188370149Y-45183334D01*
X188377684Y-45271119D01*
X188382928Y-45376677D01*
X188386197Y-45503615D01*
X188387809Y-45655540D01*
X188388082Y-45836058D01*
X188387331Y-46048778D01*
X188386034Y-46272189D01*
X188384579Y-46496616D01*
X188383179Y-46685483D01*
X188381677Y-46842309D01*
X188379918Y-46970610D01*
X188377744Y-47073904D01*
X188374999Y-47155707D01*
X188371527Y-47219538D01*
X188367169Y-47268912D01*
X188361770Y-47307349D01*
X188355173Y-47338364D01*
X188347221Y-47365475D01*
X188337758Y-47392200D01*
X188335914Y-47397154D01*
X188246581Y-47581025D01*
X188122583Y-47748465D01*
X187965354Y-47898006D01*
X187776326Y-48028180D01*
X187657769Y-48091750D01*
X187590808Y-48124406D01*
X187530608Y-48152713D01*
X187473937Y-48176982D01*
X187417561Y-48197524D01*
X187358248Y-48214649D01*
X187292766Y-48228669D01*
X187217881Y-48239893D01*
X187130360Y-48248632D01*
X187026970Y-48255196D01*
X186904480Y-48259897D01*
X186759655Y-48263044D01*
X186589264Y-48264949D01*
X186390072Y-48265922D01*
X186158849Y-48266273D01*
X185892359Y-48266313D01*
X185840692Y-48266312D01*
X184551154Y-48266282D01*
X183856545Y-47734025D01*
X183161935Y-47201769D01*
X184696698Y-47191412D01*
X184992469Y-47189285D01*
X185251434Y-47187120D01*
X185475864Y-47184867D01*
X185668028Y-47182472D01*
X185830199Y-47179886D01*
X185964647Y-47177058D01*
X186073642Y-47173935D01*
X186159455Y-47170467D01*
X186224357Y-47166602D01*
X186270619Y-47162290D01*
X186300511Y-47157478D01*
X186309615Y-47155009D01*
X186461810Y-47090773D01*
X186589527Y-47009082D01*
X186688251Y-46913565D01*
X186753461Y-46807849D01*
X186759029Y-46794104D01*
X186768806Y-46763330D01*
X186776216Y-46725422D01*
X186781473Y-46675341D01*
X186784794Y-46608046D01*
X186786392Y-46518496D01*
X186786485Y-46401650D01*
X186785285Y-46252468D01*
X186784633Y-46194436D01*
X186782647Y-46038171D01*
X186780522Y-45915775D01*
X186777820Y-45822044D01*
X186774102Y-45751773D01*
X186768929Y-45699754D01*
X186761861Y-45660783D01*
X186752460Y-45629654D01*
X186740286Y-45601161D01*
X186733405Y-45587046D01*
X186653612Y-45464987D01*
X186550294Y-45373246D01*
X186422456Y-45311241D01*
X186269105Y-45278389D01*
X186198446Y-45273204D01*
X186157813Y-45272447D01*
X186081171Y-45271825D01*
X185971592Y-45271342D01*
X185832142Y-45270996D01*
X185665891Y-45270791D01*
X185475909Y-45270726D01*
X185265264Y-45270803D01*
X185037025Y-45271024D01*
X184794262Y-45271389D01*
X184540042Y-45271900D01*
X184302038Y-45272490D01*
X182548461Y-45277231D01*
X182548461Y-48295923D01*
X182548461Y-51314615D01*
X181679000Y-51314615D01*
X180809538Y-51314615D01*
X180809538Y-47660211D01*
X180809538Y-44005807D01*
X183774500Y-44013021D01*
G37*
D14*
%TO.C,TP2*%
X132750000Y-46200000D02*
X134150000Y-46200000D01*
X132750000Y-47600000D02*
X132750000Y-46200000D01*
X134150000Y-46200000D02*
X134150000Y-47600000D01*
X134150000Y-47600000D02*
X132750000Y-47600000D01*
%TO.C,J5*%
X97430000Y-72735000D02*
X97430000Y-55695000D01*
X101300000Y-55695000D02*
X97430000Y-55695000D01*
X101300000Y-72735000D02*
X97430000Y-72735000D01*
X120720000Y-55695000D02*
X106300000Y-55695000D01*
X120720000Y-57665000D02*
X120720000Y-55695000D01*
X120720000Y-70765000D02*
X120720000Y-72735000D01*
X120720000Y-70765000D02*
X122700000Y-70765000D01*
X120720000Y-72735000D02*
X106300000Y-72735000D01*
%TO.C,C10*%
X140257836Y-59540000D02*
X140042164Y-59540000D01*
X140257836Y-60260000D02*
X140042164Y-60260000D01*
%TO.C,C19*%
X138707836Y-47640000D02*
X138492164Y-47640000D01*
X138707836Y-48360000D02*
X138492164Y-48360000D01*
%TO.C,R55*%
X124312743Y-95177499D02*
X124787259Y-95177499D01*
X124312743Y-96222499D02*
X124787259Y-96222499D01*
%TO.C,R10*%
X183887742Y-60827500D02*
X184362258Y-60827500D01*
X183887742Y-61872500D02*
X184362258Y-61872500D01*
%TO.C,TP26*%
X161900000Y-93050000D02*
X163300000Y-93050000D01*
X161900000Y-94450000D02*
X161900000Y-93050000D01*
X163300000Y-93050000D02*
X163300000Y-94450000D01*
X163300000Y-94450000D02*
X161900000Y-94450000D01*
%TO.C,R17*%
X144332742Y-51627500D02*
X144807258Y-51627500D01*
X144332742Y-52672500D02*
X144807258Y-52672500D01*
%TO.C,C16*%
X161306431Y-51861439D02*
X161306431Y-52383945D01*
X162776431Y-51861439D02*
X162776431Y-52383945D01*
%TO.C,C13*%
X150292164Y-67690000D02*
X150507836Y-67690000D01*
X150292164Y-68410000D02*
X150507836Y-68410000D01*
%TO.C,C55*%
X167288748Y-68715000D02*
X167811252Y-68715000D01*
X167288748Y-70185000D02*
X167811252Y-70185000D01*
%TO.C,J3*%
X190030000Y-92680000D02*
X190030000Y-77220000D01*
X192680000Y-90030000D02*
X192680000Y-92680000D01*
X192680000Y-92680000D02*
X190030000Y-92680000D01*
X195330000Y-77220000D02*
X190030000Y-77220000D01*
X195330000Y-90030000D02*
X192680000Y-90030000D01*
X195330000Y-90030000D02*
X195330000Y-77220000D01*
X195330000Y-91300000D02*
X195330000Y-92680000D01*
X195330000Y-92680000D02*
X193950000Y-92680000D01*
D15*
%TO.C,RJ1*%
X175330000Y-110690000D02*
X175330000Y-126440000D01*
X175330000Y-110690000D02*
X181690000Y-110690000D01*
X175330000Y-126440000D02*
X181690000Y-126440000D01*
X184650000Y-110690000D02*
X197110000Y-110690000D01*
X184650000Y-126440000D02*
X197110000Y-126440000D01*
X196420000Y-110050000D02*
X191790000Y-110050000D01*
X196480000Y-127070000D02*
X191850000Y-127070000D01*
X197110000Y-110690000D02*
X197110000Y-126440000D01*
X196480000Y-110050000D02*
G75*
G02*
X197109919Y-110690115I0J-630000D01*
G01*
X197110000Y-126440000D02*
G75*
G02*
X196480000Y-127070000I-630001J1D01*
G01*
D14*
%TO.C,C11*%
X151842164Y-63440000D02*
X152057836Y-63440000D01*
X151842164Y-64160000D02*
X152057836Y-64160000D01*
%TO.C,R7*%
X183887742Y-65877501D02*
X184362258Y-65877501D01*
X183887742Y-66922501D02*
X184362258Y-66922501D01*
%TO.C,C47*%
X161666594Y-94870125D02*
X161450922Y-94870125D01*
X161666594Y-95590125D02*
X161450922Y-95590125D01*
%TO.C,C37*%
X155090001Y-101907837D02*
X155090001Y-101692165D01*
X155810001Y-101907837D02*
X155810001Y-101692165D01*
%TO.C,C33*%
X172512164Y-113630000D02*
X172727836Y-113630000D01*
X172512164Y-114350000D02*
X172727836Y-114350000D01*
%TO.C,L1*%
D19*
X146520902Y-55061780D02*
G75*
G02*
X146329482Y-55061780I-95710J0D01*
G01*
X146329482Y-55061780D02*
G75*
G02*
X146520902Y-55061780I95710J0D01*
G01*
D14*
%TO.C,C21*%
X154265001Y-110710581D02*
X154265001Y-110429421D01*
X155285001Y-110710581D02*
X155285001Y-110429421D01*
%TO.C,C56*%
X164049158Y-101991980D02*
X164247969Y-102190791D01*
X164770407Y-101270731D02*
X164969218Y-101469542D01*
%TO.C,R27*%
X188917257Y-108187499D02*
X188442741Y-108187499D01*
X188917257Y-109232499D02*
X188442741Y-109232499D01*
%TO.C,R2*%
X149195192Y-56707210D02*
X149195192Y-56399928D01*
X149955192Y-56707210D02*
X149955192Y-56399928D01*
%TO.C,R49*%
X124512741Y-68047500D02*
X124987257Y-68047500D01*
X124512741Y-69092500D02*
X124987257Y-69092500D01*
%TO.C,C49*%
X166765000Y-60438748D02*
X166765000Y-60961252D01*
X168235000Y-60438748D02*
X168235000Y-60961252D01*
%TO.C,R63*%
X135553641Y-47620000D02*
X135246359Y-47620000D01*
X135553641Y-48380000D02*
X135246359Y-48380000D01*
%TO.C,C17*%
X151365000Y-55638748D02*
X151365000Y-56161252D01*
X152835000Y-55638748D02*
X152835000Y-56161252D01*
%TO.C,R53*%
X124357742Y-86801713D02*
X124832258Y-86801713D01*
X124357742Y-87846713D02*
X124832258Y-87846713D01*
%TO.C,R54*%
X124373531Y-88332500D02*
X124848047Y-88332500D01*
X124373531Y-89377500D02*
X124848047Y-89377500D01*
%TO.C,R23*%
X151162257Y-121297501D02*
X150687741Y-121297501D01*
X151162257Y-122342501D02*
X150687741Y-122342501D01*
%TO.C,C45*%
X143186337Y-87755049D02*
X143033834Y-87602546D01*
X143695454Y-87245932D02*
X143542951Y-87093429D01*
%TO.C,C38*%
X146550921Y-90170127D02*
X146766593Y-90170127D01*
X146550921Y-90890127D02*
X146766593Y-90890127D01*
%TO.C,TP34*%
X162850000Y-97500000D02*
X164250000Y-97500000D01*
X162850000Y-98900000D02*
X162850000Y-97500000D01*
X164250000Y-97500000D02*
X164250000Y-98900000D01*
X164250000Y-98900000D02*
X162850000Y-98900000D01*
%TO.C,Y2*%
X143175000Y-113420002D02*
X143475000Y-113420002D01*
X143175000Y-120820002D02*
X143175000Y-113420002D01*
X143475000Y-120820002D02*
X143175000Y-120820002D01*
X145575000Y-113420002D02*
X146175000Y-113420002D01*
X146175000Y-120820002D02*
X145575000Y-120820002D01*
X146175000Y-121320002D02*
X146175000Y-120820002D01*
X148275000Y-120820002D02*
X148575000Y-120820002D01*
X148275000Y-121320002D02*
X148275000Y-120820002D01*
X148575000Y-113420002D02*
X148275000Y-113420002D01*
X148575000Y-120820002D02*
X148575000Y-113420002D01*
%TO.C,R14*%
X161727500Y-45737258D02*
X161727500Y-45262742D01*
X162772500Y-45737258D02*
X162772500Y-45262742D01*
%TO.C,C44*%
X153548579Y-86622290D02*
X153548579Y-86837962D01*
X154268579Y-86622290D02*
X154268579Y-86837962D01*
D15*
%TO.C,SW3*%
X151925000Y-134170000D02*
X151925000Y-124570000D01*
X153225000Y-128100000D02*
X154745000Y-128100000D01*
X153225000Y-130640000D02*
X153225000Y-128100000D01*
X153445000Y-124570000D02*
X151925000Y-124570000D01*
X153445000Y-134170000D02*
X151925000Y-134170000D01*
X154745000Y-128100000D02*
X154745000Y-130640000D01*
X154745000Y-128350000D02*
X153225000Y-128350000D01*
X154745000Y-128610000D02*
X153225000Y-128610000D01*
X154745000Y-128860000D02*
X153225000Y-128860000D01*
X154745000Y-129120000D02*
X153225000Y-129120000D01*
X154745000Y-129370000D02*
X153225000Y-129370000D01*
X154745000Y-130640000D02*
X153225000Y-130640000D01*
X155765000Y-128100000D02*
X157285000Y-128100000D01*
X155765000Y-130640000D02*
X155765000Y-128100000D01*
X155985000Y-124570000D02*
X154525000Y-124570000D01*
X155985000Y-134170000D02*
X154525000Y-134170000D01*
X157285000Y-128100000D02*
X157285000Y-130640000D01*
X157285000Y-128350000D02*
X155765000Y-128350000D01*
X157285000Y-128610000D02*
X155765000Y-128610000D01*
X157285000Y-128860000D02*
X155765000Y-128860000D01*
X157285000Y-129120000D02*
X155765000Y-129120000D01*
X157285000Y-129370000D02*
X155765000Y-129370000D01*
X157285000Y-130640000D02*
X155765000Y-130640000D01*
X158305000Y-128100000D02*
X159825000Y-128100000D01*
X158305000Y-130640000D02*
X158305000Y-128100000D01*
X158525000Y-124570000D02*
X157065000Y-124570000D01*
X158525000Y-134170000D02*
X157065000Y-134170000D01*
X159825000Y-128100000D02*
X159825000Y-130640000D01*
X159825000Y-128350000D02*
X158305000Y-128350000D01*
X159825000Y-128610000D02*
X158305000Y-128610000D01*
X159825000Y-128860000D02*
X158305000Y-128860000D01*
X159825000Y-129120000D02*
X158305000Y-129120000D01*
X159825000Y-129370000D02*
X158305000Y-129370000D01*
X159825000Y-130640000D02*
X158305000Y-130640000D01*
X161125000Y-124570000D02*
X159605000Y-124570000D01*
X161125000Y-124570000D02*
X161125000Y-134170000D01*
X161125000Y-134170000D02*
X159605000Y-134170000D01*
D14*
%TO.C,C53*%
X139200824Y-90888368D02*
X139002013Y-90689557D01*
X139922073Y-90167119D02*
X139723262Y-89968308D01*
%TO.C,C18*%
X119288748Y-51615000D02*
X119811252Y-51615000D01*
X119288748Y-53085000D02*
X119811252Y-53085000D01*
%TO.C,C67*%
X155539999Y-44542163D02*
X155539999Y-44757835D01*
X156259999Y-44542163D02*
X156259999Y-44757835D01*
%TO.C,TP21*%
X162850000Y-89450000D02*
X164250000Y-89450000D01*
X162850000Y-90850000D02*
X162850000Y-89450000D01*
X164250000Y-89450000D02*
X164250000Y-90850000D01*
X164250000Y-90850000D02*
X162850000Y-90850000D01*
D11*
%TO.C,U2*%
X166650000Y-48670000D02*
X169590000Y-48670000D01*
X166650000Y-55330000D02*
X166650000Y-48670000D01*
X169590000Y-48670000D02*
X169590000Y-55330000D01*
X169590000Y-55330000D02*
X166650000Y-55330000D01*
D14*
%TO.C,R26*%
X172737258Y-115697500D02*
X172262742Y-115697500D01*
X172737258Y-116742500D02*
X172262742Y-116742500D01*
%TO.C,C22*%
X150640001Y-114458750D02*
X150640001Y-114981254D01*
X152110001Y-114458750D02*
X152110001Y-114981254D01*
%TO.C,C20*%
X157264999Y-110710579D02*
X157264999Y-110429419D01*
X158284999Y-110710579D02*
X158284999Y-110429419D01*
%TO.C,TP4*%
X149700000Y-68900000D02*
X151100000Y-68900000D01*
X149700000Y-70300000D02*
X149700000Y-68900000D01*
X151100000Y-68900000D02*
X151100000Y-70300000D01*
X151100000Y-70300000D02*
X149700000Y-70300000D01*
%TO.C,FB4*%
X159235242Y-66340000D02*
X157564758Y-66340000D01*
X159235242Y-68160000D02*
X157564758Y-68160000D01*
%TO.C,C35*%
X172982164Y-117760000D02*
X173197836Y-117760000D01*
X172982164Y-118480000D02*
X173197836Y-118480000D01*
%TO.C,R62*%
X124412741Y-126027500D02*
X124887257Y-126027500D01*
X124412741Y-127072500D02*
X124887257Y-127072500D01*
%TO.C,R56*%
X124312743Y-96647499D02*
X124787259Y-96647499D01*
X124312743Y-97692499D02*
X124787259Y-97692499D01*
%TO.C,FB6*%
X166064758Y-66340000D02*
X167735242Y-66340000D01*
X166064758Y-68160000D02*
X167735242Y-68160000D01*
%TO.C,R42*%
X171862742Y-92727500D02*
X172337258Y-92727500D01*
X171862742Y-93772500D02*
X172337258Y-93772500D01*
%TO.C,FB2*%
X161287781Y-123060003D02*
X160962223Y-123060003D01*
X161287781Y-124080003D02*
X160962223Y-124080003D01*
%TO.C,C41*%
X151590000Y-86592165D02*
X151590000Y-86807837D01*
X152310000Y-86592165D02*
X152310000Y-86807837D01*
%TO.C,C54*%
X159261252Y-68715000D02*
X158738748Y-68715000D01*
X159261252Y-70185000D02*
X158738748Y-70185000D01*
%TO.C,C58*%
X124042163Y-60660001D02*
X124257835Y-60660001D01*
X124042163Y-61380001D02*
X124257835Y-61380001D01*
%TO.C,C51*%
X159565198Y-85464222D02*
X159565198Y-85745382D01*
X160585198Y-85464222D02*
X160585198Y-85745382D01*
%TO.C,JP4*%
X167550000Y-96100000D02*
X167550000Y-95500000D01*
X168250000Y-94800000D02*
X169650000Y-94800000D01*
X169650000Y-96800000D02*
X168250000Y-96800000D01*
X170350000Y-95500000D02*
X170350000Y-96100000D01*
X167550000Y-95500000D02*
G75*
G02*
X168250000Y-94800000I699999J1D01*
G01*
X168250000Y-96800000D02*
G75*
G02*
X167550000Y-96100000I-1J699999D01*
G01*
X169650000Y-94800000D02*
G75*
G02*
X170350000Y-95500000I0J-700000D01*
G01*
X170350000Y-96100000D02*
G75*
G02*
X169650000Y-96800000I-700000J0D01*
G01*
%TO.C,D2*%
X173577499Y-60615000D02*
X173577499Y-62085000D01*
X173577499Y-62085000D02*
X175862499Y-62085000D01*
X175862499Y-60615000D02*
X173577499Y-60615000D01*
%TO.C,C14*%
X150427356Y-60018569D02*
X150643028Y-60018569D01*
X150427356Y-60738569D02*
X150643028Y-60738569D01*
%TO.C,C30*%
X164465580Y-115610000D02*
X164184420Y-115610000D01*
X164465580Y-116630000D02*
X164184420Y-116630000D01*
%TO.C,R1*%
X127445192Y-49057210D02*
X127445192Y-48749928D01*
X128205192Y-49057210D02*
X128205192Y-48749928D01*
%TO.C,FB5*%
X139015928Y-88452862D02*
X140197138Y-89634072D01*
X140302862Y-87165928D02*
X141484072Y-88347138D01*
%TO.C,R30*%
X172717258Y-119487500D02*
X172242742Y-119487500D01*
X172717258Y-120532500D02*
X172242742Y-120532500D01*
D15*
%TO.C,CN2*%
X190100000Y-57200000D02*
X195100000Y-57200000D01*
X190100000Y-75200000D02*
X190100000Y-57200000D01*
X190100000Y-75200000D02*
X195100000Y-75200000D01*
X194630000Y-59580000D02*
X195100000Y-59580000D01*
X194630000Y-62120000D02*
X195100000Y-62120000D01*
X194630000Y-70260000D02*
X195100000Y-70260000D01*
X194630000Y-72800000D02*
X195100000Y-72800000D01*
X195100000Y-75200000D02*
X195100000Y-57200000D01*
D14*
%TO.C,TP9*%
X111300000Y-48099999D02*
X112700000Y-48099999D01*
X111300000Y-49499999D02*
X111300000Y-48099999D01*
X112700000Y-48099999D02*
X112700000Y-49499999D01*
X112700000Y-49499999D02*
X111300000Y-49499999D01*
%TO.C,C8*%
X150590000Y-62307836D02*
X150590000Y-62092164D01*
X151310000Y-62307836D02*
X151310000Y-62092164D01*
%TO.C,TP28*%
X163900000Y-93500000D02*
X165300000Y-93500000D01*
X163900000Y-94900000D02*
X163900000Y-93500000D01*
X165300000Y-93500000D02*
X165300000Y-94900000D01*
X165300000Y-94900000D02*
X163900000Y-94900000D01*
D15*
%TO.C,SW4*%
X161600000Y-83330000D02*
X165100000Y-83330000D01*
X162550000Y-85700000D02*
X162550000Y-84100000D01*
X162600000Y-84100000D02*
X162900000Y-84100000D01*
X162900000Y-84100000D02*
X162900000Y-84100000D01*
X162900000Y-84100000D02*
X163050000Y-83950000D01*
X162950000Y-85700000D02*
X162550000Y-85700000D01*
X163050000Y-83950000D02*
X163650000Y-83950000D01*
X163100000Y-85850000D02*
X162950000Y-85700000D01*
X163100000Y-85850000D02*
X163100000Y-85850000D01*
X163650000Y-83950000D02*
X163650000Y-83950000D01*
X163650000Y-83950000D02*
X163850000Y-84150000D01*
X163800000Y-85850000D02*
X163100000Y-85850000D01*
X163850000Y-84150000D02*
X164200000Y-84150000D01*
X163950000Y-85700000D02*
X163800000Y-85850000D01*
X163950000Y-85700000D02*
X163950000Y-85700000D01*
X164200000Y-84150000D02*
X164200000Y-85700000D01*
X164200000Y-85700000D02*
X163950000Y-85700000D01*
X165100000Y-86370000D02*
X161600000Y-86370000D01*
D14*
%TO.C,JP2*%
X167550000Y-91000000D02*
X167550000Y-90400000D01*
X168250000Y-89700000D02*
X169650000Y-89700000D01*
X169650000Y-91700000D02*
X168250000Y-91700000D01*
X170350000Y-90400000D02*
X170350000Y-91000000D01*
X167550000Y-90400000D02*
G75*
G02*
X168250000Y-89700000I699999J1D01*
G01*
X168250000Y-91700000D02*
G75*
G02*
X167550000Y-91000000I-1J699999D01*
G01*
X169650000Y-89700000D02*
G75*
G02*
X170350000Y-90400000I0J-700000D01*
G01*
X170350000Y-91000000D02*
G75*
G02*
X169650000Y-91700000I-700000J0D01*
G01*
%TO.C,C40*%
X146748759Y-89022291D02*
X146748759Y-89237963D01*
X147468759Y-89022291D02*
X147468759Y-89237963D01*
%TO.C,R59*%
X124412741Y-114127500D02*
X124887257Y-114127500D01*
X124412741Y-115172500D02*
X124887257Y-115172500D01*
%TO.C,FB1*%
X151812222Y-110760001D02*
X152137780Y-110760001D01*
X151812222Y-111780001D02*
X152137780Y-111780001D01*
%TO.C,R43*%
X171837742Y-95277500D02*
X172312258Y-95277500D01*
X171837742Y-96322500D02*
X172312258Y-96322500D01*
%TO.C,R21*%
X158583439Y-135532056D02*
X158583439Y-136006572D01*
X159628439Y-135532056D02*
X159628439Y-136006572D01*
%TO.C,TP35*%
X166250000Y-83100000D02*
X167650000Y-83100000D01*
X166250000Y-84500000D02*
X166250000Y-83100000D01*
X167650000Y-83100000D02*
X167650000Y-84500000D01*
X167650000Y-84500000D02*
X166250000Y-84500000D01*
%TO.C,C15*%
X143090192Y-69670733D02*
X143090192Y-69886405D01*
X143810192Y-69670733D02*
X143810192Y-69886405D01*
%TO.C,C62*%
X123892163Y-98039999D02*
X124107835Y-98039999D01*
X123892163Y-98759999D02*
X124107835Y-98759999D01*
%TO.C,FB3*%
X124614758Y-91240000D02*
X126285242Y-91240000D01*
X124614758Y-93060000D02*
X126285242Y-93060000D01*
%TO.C,C46*%
X149807920Y-80800181D02*
X149960423Y-80952684D01*
X150317037Y-80291064D02*
X150469540Y-80443567D01*
%TO.C,R29*%
X188392742Y-127887499D02*
X188867258Y-127887499D01*
X188392742Y-128932499D02*
X188867258Y-128932499D01*
%TO.C,C24*%
X161315000Y-110904421D02*
X161315000Y-111185581D01*
X162335000Y-110904421D02*
X162335000Y-111185581D01*
%TO.C,R37*%
X155420001Y-84963642D02*
X155420001Y-84656360D01*
X156180001Y-84963642D02*
X156180001Y-84656360D01*
%TO.C,R20*%
X156037853Y-135532056D02*
X156037853Y-136006572D01*
X157082853Y-135532056D02*
X157082853Y-136006572D01*
%TO.C,R45*%
X171837742Y-100377500D02*
X172312258Y-100377500D01*
X171837742Y-101422500D02*
X172312258Y-101422500D01*
%TO.C,R60*%
X124412742Y-115627500D02*
X124887258Y-115627500D01*
X124412742Y-116672500D02*
X124887258Y-116672500D01*
D15*
%TO.C,U1*%
X141625192Y-59973569D02*
X141625192Y-60443569D01*
X141625192Y-66713569D02*
X141625192Y-67173569D01*
X141625192Y-67173569D02*
X142095192Y-67173569D01*
X142025192Y-59973569D02*
X141625192Y-59973569D01*
X142095192Y-59973569D02*
X142025192Y-59973569D01*
X148355192Y-67173569D02*
X148825192Y-67173569D01*
X148825192Y-59973569D02*
X148355192Y-59973569D01*
X148825192Y-60443569D02*
X148825192Y-59973569D01*
X148825192Y-67173569D02*
X148825192Y-66713569D01*
X141165192Y-60013569D02*
G75*
G02*
X140905192Y-60013569I-130000J0D01*
G01*
X140905192Y-60013569D02*
G75*
G02*
X141165192Y-60013569I130000J0D01*
G01*
D14*
%TO.C,R52*%
X124357744Y-77932500D02*
X124832260Y-77932500D01*
X124357744Y-78977500D02*
X124832260Y-78977500D01*
%TO.C,TP24*%
X163900000Y-91500000D02*
X165300000Y-91500000D01*
X163900000Y-92900000D02*
X163900000Y-91500000D01*
X165300000Y-91500000D02*
X165300000Y-92900000D01*
X165300000Y-92900000D02*
X163900000Y-92900000D01*
D15*
%TO.C,SW1*%
X128150000Y-44630000D02*
X131650000Y-44630000D01*
X129050000Y-45300000D02*
X129300000Y-45300000D01*
X129050000Y-46850000D02*
X129050000Y-45300000D01*
X129300000Y-45300000D02*
X129300000Y-45300000D01*
X129300000Y-45300000D02*
X129450000Y-45150000D01*
X129400000Y-46850000D02*
X129050000Y-46850000D01*
X129450000Y-45150000D02*
X130150000Y-45150000D01*
X129600000Y-47050000D02*
X129400000Y-46850000D01*
X129600000Y-47050000D02*
X129600000Y-47050000D01*
X130150000Y-45150000D02*
X130150000Y-45150000D01*
X130150000Y-45150000D02*
X130300000Y-45300000D01*
X130200000Y-47050000D02*
X129600000Y-47050000D01*
X130300000Y-45300000D02*
X130700000Y-45300000D01*
X130350000Y-46900000D02*
X130200000Y-47050000D01*
X130350000Y-46900000D02*
X130350000Y-46900000D01*
X130650000Y-46900000D02*
X130350000Y-46900000D01*
X130700000Y-45300000D02*
X130700000Y-46900000D01*
X131650000Y-47670000D02*
X128150000Y-47670000D01*
D14*
%TO.C,R3*%
X147520000Y-72546359D02*
X147520000Y-72853641D01*
X148280000Y-72546359D02*
X148280000Y-72853641D01*
%TO.C,R39*%
X157462399Y-86750126D02*
X157155117Y-86750126D01*
X157462399Y-87510126D02*
X157155117Y-87510126D01*
%TO.C,TP8*%
X113300000Y-48100000D02*
X114700000Y-48100000D01*
X113300000Y-49500000D02*
X113300000Y-48100000D01*
X114700000Y-48100000D02*
X114700000Y-49500000D01*
X114700000Y-49500000D02*
X113300000Y-49500000D01*
D15*
%TO.C,CN1*%
X106000000Y-42700000D02*
X106000000Y-47700000D01*
X106000000Y-42700000D02*
X124000000Y-42700000D01*
X106000000Y-47700000D02*
X124000000Y-47700000D01*
X108400000Y-47230000D02*
X108400000Y-47700000D01*
X110940000Y-47230000D02*
X110940000Y-47700000D01*
X119080000Y-47230000D02*
X119080000Y-47700000D01*
X121620000Y-47230000D02*
X121620000Y-47700000D01*
X124000000Y-42700000D02*
X124000000Y-47700000D01*
D14*
%TO.C,R32*%
X172777258Y-122527500D02*
X172302742Y-122527500D01*
X172777258Y-123572500D02*
X172302742Y-123572500D01*
%TO.C,C52*%
X163492164Y-66190000D02*
X163707836Y-66190000D01*
X163492164Y-66910000D02*
X163707836Y-66910000D01*
%TO.C,C26*%
X150484420Y-116710001D02*
X150765580Y-116710001D01*
X150484420Y-117730001D02*
X150765580Y-117730001D01*
%TO.C,J6*%
X97255000Y-91420000D02*
X97255000Y-74380000D01*
X101125000Y-74380000D02*
X97255000Y-74380000D01*
X101125000Y-91420000D02*
X97255000Y-91420000D01*
X120545000Y-74380000D02*
X106125000Y-74380000D01*
X120545000Y-76350000D02*
X120545000Y-74380000D01*
X120545000Y-89450000D02*
X120545000Y-91420000D01*
X120545000Y-89450000D02*
X122525000Y-89450000D01*
X120545000Y-91420000D02*
X106125000Y-91420000D01*
%TO.C,J4*%
X142470000Y-44100000D02*
X142470000Y-42200000D01*
X142470000Y-48000000D02*
X142470000Y-46000000D01*
X151870000Y-42200000D02*
X142470000Y-42200000D01*
X151870000Y-44100000D02*
X151870000Y-42200000D01*
X151870000Y-48000000D02*
X151870000Y-46000000D01*
%TO.C,C61*%
X123892164Y-104439999D02*
X124107836Y-104439999D01*
X123892164Y-105159999D02*
X124107836Y-105159999D01*
%TO.C,C50*%
X161807836Y-66190000D02*
X161592164Y-66190000D01*
X161807836Y-66910000D02*
X161592164Y-66910000D01*
%TO.C,R25*%
X150387741Y-118197500D02*
X150862257Y-118197500D01*
X150387741Y-119242500D02*
X150862257Y-119242500D01*
%TO.C,C1*%
X147217356Y-58593569D02*
X147433028Y-58593569D01*
X147217356Y-59313569D02*
X147433028Y-59313569D01*
%TO.C,R5*%
X143995192Y-56149928D02*
X143995192Y-56457210D01*
X144755192Y-56149928D02*
X144755192Y-56457210D01*
%TO.C,TP12*%
X153050000Y-103000000D02*
X154450000Y-103000000D01*
X153050000Y-104400000D02*
X153050000Y-103000000D01*
X154450000Y-103000000D02*
X154450000Y-104400000D01*
X154450000Y-104400000D02*
X153050000Y-104400000D01*
%TD*%
%LPC*%
%TO.C,JP1*%
G36*
X168800000Y-87400000D02*
G01*
X169100000Y-87400000D01*
X169100000Y-88900000D01*
X168800000Y-88900000D01*
X168800000Y-87400000D01*
G37*
%TO.C,JP6*%
G36*
X168800000Y-100150000D02*
G01*
X169100000Y-100150000D01*
X169100000Y-101650000D01*
X168800000Y-101650000D01*
X168800000Y-100150000D01*
G37*
%TO.C,JP5*%
G36*
X168800000Y-97600000D02*
G01*
X169100000Y-97600000D01*
X169100000Y-99100000D01*
X168800000Y-99100000D01*
X168800000Y-97600000D01*
G37*
%TO.C,JP3*%
G36*
X168800000Y-92500000D02*
G01*
X169100000Y-92500000D01*
X169100000Y-94000000D01*
X168800000Y-94000000D01*
X168800000Y-92500000D01*
G37*
%TO.C,JP4*%
G36*
X168800000Y-95050000D02*
G01*
X169100000Y-95050000D01*
X169100000Y-96550000D01*
X168800000Y-96550000D01*
X168800000Y-95050000D01*
G37*
%TO.C,JP2*%
G36*
X168800000Y-89950000D02*
G01*
X169100000Y-89950000D01*
X169100000Y-91450000D01*
X168800000Y-91450000D01*
X168800000Y-89950000D01*
G37*
%TD*%
D20*
%TO.C,R33*%
X151008758Y-103155127D03*
X151008758Y-101505127D03*
%TD*%
D21*
%TO.C,TP31*%
X163550000Y-96200000D03*
%TD*%
D22*
%TO.C,C9*%
X143375192Y-56753569D03*
X143375192Y-55793569D03*
%TD*%
D23*
%TO.C,C32*%
X172140000Y-114970000D03*
X173100000Y-114970000D03*
%TD*%
D24*
%TO.C,J2*%
X180875000Y-68950000D03*
D25*
X178335000Y-68950000D03*
X180875000Y-66410000D03*
X178335000Y-66410000D03*
X180875000Y-63870000D03*
X178335000Y-63870000D03*
X180875000Y-61330000D03*
X178335000Y-61330000D03*
X180875000Y-58790000D03*
X178335000Y-58790000D03*
X180875000Y-56250000D03*
X178335000Y-56250000D03*
%TD*%
D26*
%TO.C,R35*%
X151333757Y-84980127D03*
X152983757Y-84980127D03*
%TD*%
D21*
%TO.C,TP14*%
X155800000Y-103750000D03*
%TD*%
D23*
%TO.C,C4*%
X143170192Y-71978569D03*
X144130192Y-71978569D03*
%TD*%
%TO.C,C63*%
X123620000Y-123800000D03*
X124580000Y-123800000D03*
%TD*%
D27*
%TO.C,R16*%
X150745000Y-52100000D03*
X149095000Y-52100000D03*
%TD*%
D28*
%TO.C,R64*%
X158600000Y-47875000D03*
X158600000Y-49525000D03*
%TD*%
D29*
%TO.C,C3*%
X139190192Y-62778569D03*
X138230192Y-62778569D03*
%TD*%
D30*
%TO.C,D3*%
X174224999Y-58800000D03*
X175799999Y-58800000D03*
%TD*%
D21*
%TO.C,TP16*%
X157800000Y-103750000D03*
%TD*%
D23*
%TO.C,C60*%
X123540002Y-79705000D03*
X124500002Y-79705000D03*
%TD*%
D27*
%TO.C,R34*%
X162933757Y-91980127D03*
X161283757Y-91980127D03*
%TD*%
D22*
%TO.C,C36*%
X152308757Y-102260127D03*
X152308757Y-101300127D03*
%TD*%
%TO.C,C31*%
X170250001Y-118440000D03*
X170250001Y-117480000D03*
%TD*%
D31*
%TO.C,U7*%
X165060192Y-58558569D03*
X162760192Y-58558569D03*
X160460192Y-58558569D03*
D32*
X162760192Y-64498569D03*
%TD*%
D33*
%TO.C,Y3*%
X145627388Y-87070687D03*
X149799318Y-82898757D03*
X147890130Y-80989569D03*
X143718200Y-85161499D03*
%TD*%
D34*
%TO.C,C6*%
X145950192Y-69298569D03*
X145950192Y-70258569D03*
%TD*%
D21*
%TO.C,TP7*%
X116000000Y-48799999D03*
%TD*%
D35*
%TO.C,C23*%
X149625000Y-114144999D03*
X149625000Y-115694999D03*
%TD*%
D23*
%TO.C,C57*%
X123669999Y-67370001D03*
X124629999Y-67370001D03*
%TD*%
D36*
%TO.C,R38*%
X156798758Y-86080126D03*
X157818758Y-86080126D03*
%TD*%
D26*
%TO.C,R40*%
X171275000Y-88150000D03*
X172925000Y-88150000D03*
%TD*%
%TO.C,R9*%
X183300000Y-63850000D03*
X184950000Y-63850000D03*
%TD*%
D37*
%TO.C,D1*%
X140500000Y-43062500D03*
X140500000Y-44637500D03*
%TD*%
D35*
%TO.C,C28*%
X159275001Y-109795000D03*
X159275001Y-111345000D03*
%TD*%
D37*
%TO.C,D4*%
X155299998Y-54162497D03*
X155299998Y-55737499D03*
%TD*%
D27*
%TO.C,R11*%
X172737498Y-61350000D03*
X171087498Y-61350000D03*
%TD*%
D35*
%TO.C,C27*%
X156274999Y-109795001D03*
X156274999Y-111345001D03*
%TD*%
D29*
%TO.C,C12*%
X139180000Y-64353569D03*
X138220000Y-64353569D03*
%TD*%
D36*
%TO.C,R15*%
X129040000Y-49450000D03*
X130060000Y-49450000D03*
%TD*%
D28*
%TO.C,R8*%
X140500000Y-46025000D03*
X140500000Y-47675000D03*
%TD*%
D38*
%TO.C,SW2*%
X153650000Y-73200000D03*
X150250000Y-73200000D03*
X153650000Y-71700000D03*
X150250000Y-71700000D03*
%TD*%
D28*
%TO.C,R66*%
X155300000Y-57125000D03*
X155300000Y-58775000D03*
%TD*%
D39*
%TO.C,R36*%
X154849999Y-85310001D03*
X154849999Y-84290001D03*
%TD*%
D26*
%TO.C,R51*%
X123770002Y-76954213D03*
X125420002Y-76954213D03*
%TD*%
D27*
%TO.C,R13*%
X172749999Y-58800000D03*
X171099999Y-58800000D03*
%TD*%
D23*
%TO.C,C48*%
X159570000Y-56350000D03*
X160530000Y-56350000D03*
%TD*%
D27*
%TO.C,R22*%
X153800002Y-123320001D03*
X152150002Y-123320001D03*
%TD*%
D21*
%TO.C,TP36*%
X166950000Y-85850000D03*
%TD*%
%TO.C,TP20*%
X163550000Y-88100000D03*
%TD*%
D22*
%TO.C,C66*%
X157149999Y-45130000D03*
X157149999Y-44170000D03*
%TD*%
D40*
%TO.C,J1*%
X152900000Y-69650000D03*
D41*
X152900000Y-68650000D03*
X152900000Y-67650000D03*
%TD*%
D26*
%TO.C,R50*%
X123924999Y-70070002D03*
X125574999Y-70070002D03*
%TD*%
D27*
%TO.C,R18*%
X164900000Y-114620000D03*
X163250000Y-114620000D03*
%TD*%
D42*
%TO.C,U4*%
X161775000Y-120270000D03*
X161775000Y-119770000D03*
X161775000Y-119270000D03*
X161775000Y-118770000D03*
X161775000Y-118270000D03*
X161775000Y-117770000D03*
X161775000Y-117270000D03*
X161775000Y-116770000D03*
X161775000Y-116270000D03*
X161775000Y-115770000D03*
X161775000Y-115270000D03*
X161775000Y-114770000D03*
D43*
X160275000Y-113270000D03*
X159775000Y-113270000D03*
X159275000Y-113270000D03*
X158775000Y-113270000D03*
X158275000Y-113270000D03*
X157775000Y-113270000D03*
X157275000Y-113270000D03*
X156775000Y-113270000D03*
X156275000Y-113270000D03*
X155775000Y-113270000D03*
X155275000Y-113270000D03*
X154775000Y-113270000D03*
D42*
X153275000Y-114770000D03*
X153275000Y-115270000D03*
X153275000Y-115770000D03*
X153275000Y-116270000D03*
X153275000Y-116770000D03*
X153275000Y-117270000D03*
X153275000Y-117770000D03*
X153275000Y-118270000D03*
X153275000Y-118770000D03*
X153275000Y-119270000D03*
X153275000Y-119770000D03*
X153275000Y-120270000D03*
D43*
X154775000Y-121770000D03*
X155275000Y-121770000D03*
X155775000Y-121770000D03*
X156275000Y-121770000D03*
X156775000Y-121770000D03*
X157275000Y-121770000D03*
X157775000Y-121770000D03*
X158275000Y-121770000D03*
X158775000Y-121770000D03*
X159275000Y-121770000D03*
X159775000Y-121770000D03*
X160275000Y-121770000D03*
%TD*%
D23*
%TO.C,C59*%
X123540002Y-86054999D03*
X124500002Y-86054999D03*
%TD*%
D26*
%TO.C,R48*%
X123875000Y-59770000D03*
X125525000Y-59770000D03*
%TD*%
%TO.C,R57*%
X123750000Y-106049999D03*
X125400000Y-106049999D03*
%TD*%
D28*
%TO.C,R19*%
X154014770Y-134944314D03*
X154014770Y-136594314D03*
%TD*%
D44*
%TO.C,R6*%
X145375192Y-55793569D03*
X145375192Y-56813569D03*
%TD*%
D21*
%TO.C,TP1*%
X153500000Y-75250000D03*
%TD*%
D45*
%TO.C,JP1*%
X168300000Y-88150000D03*
D46*
X169600000Y-88150000D03*
%TD*%
D47*
%TO.C,J8*%
X108225000Y-126315000D03*
X108225000Y-114885000D03*
D48*
X120875000Y-126315000D03*
X120875000Y-125045000D03*
X120875000Y-123775000D03*
X120875000Y-122505000D03*
X120875000Y-121235000D03*
X120875000Y-119965000D03*
X120875000Y-118695000D03*
X120875000Y-117425000D03*
X120875000Y-116155000D03*
X120875000Y-114885000D03*
D49*
X103725000Y-127370000D03*
X103725000Y-113830000D03*
%TD*%
D26*
%TO.C,R47*%
X123874998Y-58270001D03*
X125524998Y-58270001D03*
%TD*%
D20*
%TO.C,R28*%
X170210000Y-116290000D03*
X170210000Y-114640000D03*
%TD*%
D50*
%TO.C,C29*%
X146700002Y-112070003D03*
X145150002Y-112070003D03*
%TD*%
D51*
%TO.C,U9*%
X155269999Y-52480000D03*
X155930000Y-52480000D03*
X156580000Y-52480000D03*
X157230001Y-52480000D03*
X157230001Y-46620000D03*
X156580000Y-46620000D03*
X155930000Y-46620000D03*
X155269999Y-46620000D03*
%TD*%
D21*
%TO.C,TP18*%
X159850000Y-103750000D03*
%TD*%
D34*
%TO.C,C42*%
X152908759Y-86250125D03*
X152908759Y-87210125D03*
%TD*%
D26*
%TO.C,R44*%
X171250000Y-98350000D03*
X172900000Y-98350000D03*
%TD*%
D52*
%TO.C,C34*%
X183049999Y-129460000D03*
X180009999Y-129460000D03*
%TD*%
D26*
%TO.C,R41*%
X171275000Y-90700000D03*
X172925000Y-90700000D03*
%TD*%
D53*
%TO.C,FB7*%
X164827386Y-104877386D03*
X162600000Y-102650000D03*
%TD*%
D54*
%TO.C,U8*%
X164250000Y-43400000D03*
X164250000Y-44670000D03*
X164250000Y-45930000D03*
X164250000Y-47200000D03*
X171850000Y-47200000D03*
X171850000Y-45930000D03*
X171850000Y-44670000D03*
X171850000Y-43400000D03*
D55*
X168050000Y-45300000D03*
%TD*%
D21*
%TO.C,TP6*%
X118000000Y-48800000D03*
%TD*%
D22*
%TO.C,C65*%
X154900001Y-45130001D03*
X154900001Y-44170001D03*
%TD*%
D56*
%TO.C,C2*%
X146845192Y-58003569D03*
X147805192Y-58003569D03*
%TD*%
D45*
%TO.C,JP6*%
X168300000Y-100900000D03*
D46*
X169600000Y-100900000D03*
%TD*%
D23*
%TO.C,C64*%
X123620000Y-117400000D03*
X124580000Y-117400000D03*
%TD*%
%TO.C,C39*%
X145328757Y-94430127D03*
X146288757Y-94430127D03*
%TD*%
D21*
%TO.C,TP19*%
X161550000Y-88100000D03*
%TD*%
D57*
%TO.C,H4*%
X106700000Y-132300000D03*
%TD*%
D50*
%TO.C,C25*%
X165450000Y-118770000D03*
X163900000Y-118770000D03*
%TD*%
D58*
%TO.C,U6*%
X148420000Y-90400000D03*
X148420000Y-90800000D03*
X148420000Y-91200000D03*
X148420000Y-91600000D03*
X148420000Y-92000000D03*
X148420000Y-92400000D03*
X148420000Y-92800000D03*
X148420000Y-93200000D03*
X148420000Y-93600000D03*
X148420000Y-94000000D03*
X148420000Y-94400000D03*
X148420000Y-94800000D03*
X148420000Y-95200000D03*
X148420000Y-95600000D03*
X148420000Y-96000000D03*
X148420000Y-96400000D03*
X148420000Y-96800000D03*
X148420000Y-97200000D03*
X148420000Y-97600000D03*
X148420000Y-98000000D03*
D59*
X150250000Y-99830000D03*
X150650000Y-99830000D03*
X151050000Y-99830000D03*
X151450000Y-99830000D03*
X151850000Y-99830000D03*
X152250000Y-99830000D03*
X152650000Y-99830000D03*
X153050000Y-99830000D03*
X153450000Y-99830000D03*
X153850000Y-99830000D03*
X154250000Y-99830000D03*
X154650000Y-99830000D03*
X155050000Y-99830000D03*
X155450000Y-99830000D03*
X155850000Y-99830000D03*
X156250000Y-99830000D03*
X156650000Y-99830000D03*
X157050000Y-99830000D03*
X157450000Y-99830000D03*
X157850000Y-99830000D03*
D58*
X159680000Y-98000000D03*
X159680000Y-97600000D03*
X159680000Y-97200000D03*
X159680000Y-96800000D03*
X159680000Y-96400000D03*
X159680000Y-96000000D03*
X159680000Y-95600000D03*
X159680000Y-95200000D03*
X159680000Y-94800000D03*
X159680000Y-94400000D03*
X159680000Y-94000000D03*
X159680000Y-93600000D03*
X159680000Y-93200000D03*
X159680000Y-92800000D03*
X159680000Y-92400000D03*
X159680000Y-92000000D03*
X159680000Y-91600000D03*
X159680000Y-91200000D03*
X159680000Y-90800000D03*
X159680000Y-90400000D03*
D59*
X157850000Y-88570000D03*
X157450000Y-88570000D03*
X157050000Y-88570000D03*
X156650000Y-88570000D03*
X156250000Y-88570000D03*
X155850000Y-88570000D03*
X155450000Y-88570000D03*
X155050000Y-88570000D03*
X154650000Y-88570000D03*
X154250000Y-88570000D03*
X153850000Y-88570000D03*
X153450000Y-88570000D03*
X153050000Y-88570000D03*
X152650000Y-88570000D03*
X152250000Y-88570000D03*
X151850000Y-88570000D03*
X151450000Y-88570000D03*
X151050000Y-88570000D03*
X150650000Y-88570000D03*
X150250000Y-88570000D03*
%TD*%
D29*
%TO.C,C5*%
X146480192Y-72003569D03*
X145520192Y-72003569D03*
%TD*%
D60*
%TO.C,U3*%
X133145192Y-49493569D03*
X133145192Y-50773569D03*
X133145192Y-52033569D03*
X133145192Y-53303569D03*
X140205192Y-53303569D03*
X140205192Y-52033569D03*
X140205192Y-50773569D03*
X140205192Y-49493569D03*
%TD*%
D45*
%TO.C,JP5*%
X168300000Y-98350000D03*
D46*
X169600000Y-98350000D03*
%TD*%
D34*
%TO.C,C7*%
X149575192Y-57923569D03*
X149575192Y-58883569D03*
%TD*%
D29*
%TO.C,C43*%
X162080000Y-97599999D03*
X161120000Y-97599999D03*
%TD*%
D26*
%TO.C,R61*%
X123825000Y-125050000D03*
X125475000Y-125050000D03*
%TD*%
%TO.C,R12*%
X183300000Y-58800002D03*
X184950000Y-58800002D03*
%TD*%
D27*
%TO.C,R31*%
X173355000Y-121539999D03*
X171705000Y-121539999D03*
%TD*%
D47*
%TO.C,J7*%
X108125000Y-107315000D03*
X108125000Y-95885000D03*
D48*
X120775000Y-107315000D03*
X120775000Y-106045000D03*
X120775000Y-104775000D03*
X120775000Y-103505000D03*
X120775000Y-102235000D03*
X120775000Y-100965000D03*
X120775000Y-99695000D03*
X120775000Y-98425000D03*
X120775000Y-97155000D03*
X120775000Y-95885000D03*
D49*
X103625000Y-108370000D03*
X103625000Y-94830000D03*
%TD*%
D21*
%TO.C,TP3*%
X126300000Y-45350000D03*
%TD*%
D61*
%TO.C,U5*%
X150675001Y-123270001D03*
X149725001Y-123270001D03*
X148775001Y-123270001D03*
X148775001Y-125870001D03*
X150675001Y-125870001D03*
%TD*%
D45*
%TO.C,JP3*%
X168300000Y-93250000D03*
D46*
X169600000Y-93250000D03*
%TD*%
D21*
%TO.C,TP5*%
X120000000Y-48799999D03*
%TD*%
D39*
%TO.C,R4*%
X144825192Y-70288569D03*
X144825192Y-69268569D03*
%TD*%
D62*
%TO.C,Y1*%
X143500192Y-75253569D03*
X145700192Y-75253569D03*
X145700192Y-73553569D03*
X143500192Y-73553569D03*
%TD*%
D26*
%TO.C,R58*%
X123775000Y-107549998D03*
X125425000Y-107549998D03*
%TD*%
D28*
%TO.C,R46*%
X160075198Y-81779802D03*
X160075198Y-83429802D03*
%TD*%
D57*
%TO.C,H1*%
X106800000Y-52300000D03*
%TD*%
D28*
%TO.C,R65*%
X158600000Y-50874999D03*
X158600000Y-52524999D03*
%TD*%
D21*
%TO.C,TP2*%
X133450000Y-46900000D03*
%TD*%
D47*
%TO.C,J5*%
X108300000Y-69930000D03*
X108300000Y-58500000D03*
D48*
X120950000Y-69930000D03*
X120950000Y-68660000D03*
X120950000Y-67390000D03*
X120950000Y-66120000D03*
X120950000Y-64850000D03*
X120950000Y-63580000D03*
X120950000Y-62310000D03*
X120950000Y-61040000D03*
X120950000Y-59770000D03*
X120950000Y-58500000D03*
D49*
X103800000Y-70985000D03*
X103800000Y-57445000D03*
%TD*%
D29*
%TO.C,C10*%
X140630000Y-59900000D03*
X139670000Y-59900000D03*
%TD*%
%TO.C,C19*%
X139080000Y-48000000D03*
X138120000Y-48000000D03*
%TD*%
D26*
%TO.C,R55*%
X123725001Y-95699999D03*
X125375001Y-95699999D03*
%TD*%
%TO.C,R10*%
X183300000Y-61350000D03*
X184950000Y-61350000D03*
%TD*%
D21*
%TO.C,TP26*%
X162600000Y-93750000D03*
%TD*%
D26*
%TO.C,R17*%
X143745000Y-52150000D03*
X145395000Y-52150000D03*
%TD*%
D63*
%TO.C,C16*%
X162041431Y-51172693D03*
X162041431Y-53072691D03*
%TD*%
D23*
%TO.C,C13*%
X149920000Y-68050000D03*
X150880000Y-68050000D03*
%TD*%
D64*
%TO.C,C55*%
X166600000Y-69450000D03*
X168500000Y-69450000D03*
%TD*%
D24*
%TO.C,J3*%
X193950000Y-91300000D03*
D25*
X191410000Y-91300000D03*
X193950000Y-88760000D03*
X191410000Y-88760000D03*
X193950000Y-86220000D03*
X191410000Y-86220000D03*
X193950000Y-83680000D03*
X191410000Y-83680000D03*
X193950000Y-81140000D03*
X191410000Y-81140000D03*
X193950000Y-78600000D03*
X191410000Y-78600000D03*
%TD*%
D65*
%TO.C,RJ1*%
X186220000Y-124280000D03*
X186220000Y-112840000D03*
D66*
X179870000Y-123010000D03*
X177330000Y-121740000D03*
X179870000Y-120460000D03*
X177330000Y-119190000D03*
X179870000Y-117930000D03*
X177330000Y-116660000D03*
X179870000Y-115390000D03*
X177330000Y-114120000D03*
X189600000Y-122350000D03*
X191120000Y-124890000D03*
X189600000Y-112230000D03*
X191120000Y-114770000D03*
D67*
X183170000Y-126330000D03*
X183170000Y-110790000D03*
%TD*%
D23*
%TO.C,C11*%
X151470000Y-63800000D03*
X152430000Y-63800000D03*
%TD*%
D26*
%TO.C,R7*%
X183300000Y-66400001D03*
X184950000Y-66400001D03*
%TD*%
D29*
%TO.C,C47*%
X162038758Y-95230125D03*
X161078758Y-95230125D03*
%TD*%
D22*
%TO.C,C37*%
X155450001Y-102280001D03*
X155450001Y-101320001D03*
%TD*%
D23*
%TO.C,C33*%
X172140000Y-113990000D03*
X173100000Y-113990000D03*
%TD*%
D68*
%TO.C,L1*%
X146625192Y-56361780D03*
X148025192Y-56361780D03*
%TD*%
D69*
%TO.C,C21*%
X154775001Y-111345001D03*
X154775001Y-109795001D03*
%TD*%
D70*
%TO.C,C56*%
X163961180Y-101182753D03*
X165057196Y-102278769D03*
%TD*%
D27*
%TO.C,R27*%
X189504999Y-108709999D03*
X187854999Y-108709999D03*
%TD*%
D39*
%TO.C,R2*%
X149575192Y-57063569D03*
X149575192Y-56043569D03*
%TD*%
D26*
%TO.C,R49*%
X123924999Y-68570000D03*
X125574999Y-68570000D03*
%TD*%
D63*
%TO.C,C49*%
X167500000Y-59750000D03*
X167500000Y-61650000D03*
%TD*%
D71*
%TO.C,R63*%
X135910000Y-48000000D03*
X134890000Y-48000000D03*
%TD*%
D63*
%TO.C,C17*%
X152100000Y-54950000D03*
X152100000Y-56850000D03*
%TD*%
D26*
%TO.C,R53*%
X123770000Y-87324213D03*
X125420000Y-87324213D03*
%TD*%
%TO.C,R54*%
X123785789Y-88855000D03*
X125435789Y-88855000D03*
%TD*%
D27*
%TO.C,R23*%
X151749999Y-121820001D03*
X150099999Y-121820001D03*
%TD*%
D72*
%TO.C,C45*%
X143704055Y-87763650D03*
X143025233Y-87084828D03*
%TD*%
D23*
%TO.C,C38*%
X146178757Y-90530127D03*
X147138757Y-90530127D03*
%TD*%
D21*
%TO.C,TP34*%
X163550000Y-98200000D03*
%TD*%
D73*
%TO.C,Y2*%
X147225000Y-120070002D03*
X147225000Y-114170002D03*
X144525000Y-114170002D03*
X144525000Y-120070002D03*
%TD*%
D20*
%TO.C,R14*%
X162250000Y-46325000D03*
X162250000Y-44675000D03*
%TD*%
D34*
%TO.C,C44*%
X153908579Y-86250126D03*
X153908579Y-87210126D03*
%TD*%
D74*
%TO.C,SW3*%
X159065000Y-133180000D03*
X156525000Y-133180000D03*
X153985000Y-133180000D03*
X159065000Y-125560000D03*
X156525000Y-125560000D03*
X153985000Y-125560000D03*
%TD*%
D75*
%TO.C,C53*%
X140010051Y-90976346D03*
X138914035Y-89880330D03*
%TD*%
D64*
%TO.C,C18*%
X118600000Y-52350000D03*
X120500000Y-52350000D03*
%TD*%
D34*
%TO.C,C67*%
X155899999Y-44169999D03*
X155899999Y-45129999D03*
%TD*%
D21*
%TO.C,TP21*%
X163550000Y-90150000D03*
%TD*%
D76*
%TO.C,U2*%
X165049999Y-49700000D03*
X165050000Y-52000000D03*
X165049999Y-54300000D03*
D77*
X170990000Y-52000000D03*
%TD*%
D27*
%TO.C,R26*%
X173325000Y-116220000D03*
X171675000Y-116220000D03*
%TD*%
D63*
%TO.C,C22*%
X151375001Y-113770002D03*
X151375001Y-115670002D03*
%TD*%
D69*
%TO.C,C20*%
X157774999Y-111344999D03*
X157774999Y-109794999D03*
%TD*%
D21*
%TO.C,TP4*%
X150400000Y-69600000D03*
%TD*%
D78*
%TO.C,FB4*%
X159975000Y-67250000D03*
X156825000Y-67250000D03*
%TD*%
D23*
%TO.C,C35*%
X172610000Y-118120000D03*
X173570000Y-118120000D03*
%TD*%
D26*
%TO.C,R62*%
X123824999Y-126550000D03*
X125474999Y-126550000D03*
%TD*%
%TO.C,R56*%
X123725001Y-97169999D03*
X125375001Y-97169999D03*
%TD*%
D79*
%TO.C,FB6*%
X165325000Y-67250000D03*
X168475000Y-67250000D03*
%TD*%
D26*
%TO.C,R42*%
X171275000Y-93250000D03*
X172925000Y-93250000D03*
%TD*%
D80*
%TO.C,FB2*%
X161912502Y-123570003D03*
X160337502Y-123570003D03*
%TD*%
D34*
%TO.C,C41*%
X151950000Y-86220001D03*
X151950000Y-87180001D03*
%TD*%
D81*
%TO.C,C54*%
X159950000Y-69450000D03*
X158050000Y-69450000D03*
%TD*%
D23*
%TO.C,C58*%
X123669999Y-61020001D03*
X124629999Y-61020001D03*
%TD*%
D35*
%TO.C,C51*%
X160075198Y-84829802D03*
X160075198Y-86379802D03*
%TD*%
D45*
%TO.C,JP4*%
X168300000Y-95800000D03*
D46*
X169600000Y-95800000D03*
%TD*%
D30*
%TO.C,D2*%
X174274999Y-61350000D03*
X175849999Y-61350000D03*
%TD*%
D23*
%TO.C,C14*%
X150055192Y-60378569D03*
X151015192Y-60378569D03*
%TD*%
D50*
%TO.C,C30*%
X165100000Y-116120000D03*
X163550000Y-116120000D03*
%TD*%
D39*
%TO.C,R1*%
X127825192Y-49413569D03*
X127825192Y-48393569D03*
%TD*%
D82*
%TO.C,FB5*%
X139136307Y-87286307D03*
X141363693Y-89513693D03*
%TD*%
D27*
%TO.C,R30*%
X173305000Y-120010000D03*
X171655000Y-120010000D03*
%TD*%
D83*
%TO.C,CN2*%
X193600000Y-59200000D03*
D84*
X191600000Y-59200000D03*
X193600000Y-61200000D03*
X191600000Y-61200000D03*
X193600000Y-63200000D03*
X191600000Y-63200000D03*
X193600000Y-65200000D03*
X191600000Y-65200000D03*
X193600000Y-67200000D03*
X191600000Y-67200000D03*
X193600000Y-69200000D03*
X191600000Y-69200000D03*
X193600000Y-71200000D03*
X191600000Y-71200000D03*
X193600000Y-73200000D03*
X191600000Y-73200000D03*
%TD*%
D21*
%TO.C,TP9*%
X112000000Y-48799999D03*
%TD*%
D22*
%TO.C,C8*%
X150950000Y-62680000D03*
X150950000Y-61720000D03*
%TD*%
D21*
%TO.C,TP28*%
X164600000Y-94200000D03*
%TD*%
D38*
%TO.C,SW4*%
X161650000Y-84100000D03*
X165050000Y-84100000D03*
X161650000Y-85600000D03*
X165050000Y-85600000D03*
%TD*%
D45*
%TO.C,JP2*%
X168300000Y-90700000D03*
D46*
X169600000Y-90700000D03*
%TD*%
D34*
%TO.C,C40*%
X147108759Y-88650127D03*
X147108759Y-89610127D03*
%TD*%
D26*
%TO.C,R59*%
X123824999Y-114650000D03*
X125474999Y-114650000D03*
%TD*%
D30*
%TO.C,FB1*%
X151187501Y-111270001D03*
X152762501Y-111270001D03*
%TD*%
D26*
%TO.C,R43*%
X171250000Y-95800000D03*
X172900000Y-95800000D03*
%TD*%
D28*
%TO.C,R21*%
X159105939Y-134944314D03*
X159105939Y-136594314D03*
%TD*%
D21*
%TO.C,TP35*%
X166950000Y-83800000D03*
%TD*%
D34*
%TO.C,C15*%
X143450192Y-69298569D03*
X143450192Y-70258569D03*
%TD*%
D23*
%TO.C,C62*%
X123519999Y-98399999D03*
X124479999Y-98399999D03*
%TD*%
D79*
%TO.C,FB3*%
X123875000Y-92150000D03*
X127025000Y-92150000D03*
%TD*%
D85*
%TO.C,C46*%
X149799319Y-80282463D03*
X150478141Y-80961285D03*
%TD*%
D26*
%TO.C,R29*%
X187805000Y-128409999D03*
X189455000Y-128409999D03*
%TD*%
D35*
%TO.C,C24*%
X161825000Y-110270001D03*
X161825000Y-111820001D03*
%TD*%
D57*
%TO.C,H2*%
X186700000Y-52300000D03*
%TD*%
D39*
%TO.C,R37*%
X155800001Y-85320001D03*
X155800001Y-84300001D03*
%TD*%
D28*
%TO.C,R20*%
X156560353Y-134944314D03*
X156560353Y-136594314D03*
%TD*%
D26*
%TO.C,R45*%
X171250000Y-100900000D03*
X172900000Y-100900000D03*
%TD*%
%TO.C,R60*%
X123825000Y-116150000D03*
X125475000Y-116150000D03*
%TD*%
D86*
%TO.C,U1*%
X141645192Y-60773569D03*
X141645192Y-61173569D03*
X141645192Y-61573569D03*
X141645192Y-61973569D03*
X141645192Y-62373569D03*
X141645192Y-62773569D03*
X141645192Y-63173569D03*
X141645192Y-63573569D03*
X141645192Y-63973569D03*
X141645192Y-64373569D03*
X141645192Y-64773569D03*
X141645192Y-65173569D03*
X141645192Y-65573569D03*
X141645192Y-65973569D03*
X141645192Y-66373569D03*
D87*
X142425192Y-67143569D03*
X142825192Y-67143569D03*
X143225192Y-67143569D03*
X143625192Y-67143569D03*
X144025192Y-67143569D03*
X144425192Y-67143569D03*
X144825192Y-67143569D03*
X145225192Y-67143569D03*
X145625192Y-67143569D03*
X146025192Y-67143569D03*
X146425192Y-67143569D03*
X146825192Y-67143569D03*
X147225192Y-67143569D03*
X147625192Y-67143569D03*
X148025192Y-67143569D03*
D86*
X148805192Y-66373569D03*
X148805192Y-65973569D03*
X148805192Y-65573569D03*
X148805192Y-65173569D03*
X148805192Y-64773569D03*
X148805192Y-64373569D03*
X148805192Y-63973569D03*
X148805192Y-63573569D03*
X148805192Y-63173569D03*
X148805192Y-62773569D03*
X148805192Y-62373569D03*
X148805192Y-61973569D03*
X148805192Y-61573569D03*
X148805192Y-61173569D03*
X148805192Y-60773569D03*
D87*
X148025192Y-60003569D03*
X147625192Y-60003569D03*
X147225192Y-60003569D03*
X146825192Y-60003569D03*
X146425192Y-60003569D03*
X146025192Y-60003569D03*
X145625192Y-60003569D03*
X145225192Y-60003569D03*
X144825192Y-60003569D03*
X144425192Y-60003569D03*
X144025192Y-60003569D03*
X143625192Y-60003569D03*
X143225192Y-60003569D03*
X142825192Y-60003569D03*
X142425192Y-60003569D03*
D88*
X145225192Y-63573569D03*
%TD*%
D26*
%TO.C,R52*%
X123770002Y-78455000D03*
X125420002Y-78455000D03*
%TD*%
D21*
%TO.C,TP24*%
X164600000Y-92200000D03*
%TD*%
D38*
%TO.C,SW1*%
X131600000Y-46900000D03*
X128200000Y-46900000D03*
X131600000Y-45400000D03*
X128200000Y-45400000D03*
%TD*%
D44*
%TO.C,R3*%
X147900000Y-72190000D03*
X147900000Y-73210000D03*
%TD*%
D71*
%TO.C,R39*%
X157818758Y-87130126D03*
X156798758Y-87130126D03*
%TD*%
D21*
%TO.C,TP8*%
X114000000Y-48800000D03*
%TD*%
D83*
%TO.C,CN1*%
X122000000Y-46200000D03*
D84*
X122000000Y-44200000D03*
X120000000Y-46200000D03*
X120000000Y-44200000D03*
X118000000Y-46200000D03*
X118000000Y-44200000D03*
X116000000Y-46200000D03*
X116000000Y-44200000D03*
X114000000Y-46200000D03*
X114000000Y-44200000D03*
X112000000Y-46200000D03*
X112000000Y-44200000D03*
X110000000Y-46200000D03*
X110000000Y-44200000D03*
X108000000Y-46200000D03*
X108000000Y-44200000D03*
%TD*%
D27*
%TO.C,R32*%
X173365000Y-123050000D03*
X171715000Y-123050000D03*
%TD*%
D23*
%TO.C,C52*%
X163120000Y-66550000D03*
X164080000Y-66550000D03*
%TD*%
D89*
%TO.C,C26*%
X149850000Y-117220001D03*
X151400000Y-117220001D03*
%TD*%
D47*
%TO.C,J6*%
X108125000Y-88615000D03*
X108125000Y-77185000D03*
D48*
X120775000Y-88615000D03*
X120775000Y-87345000D03*
X120775000Y-86075000D03*
X120775000Y-84805000D03*
X120775000Y-83535000D03*
X120775000Y-82265000D03*
X120775000Y-80995000D03*
X120775000Y-79725000D03*
X120775000Y-78455000D03*
X120775000Y-77185000D03*
D49*
X103625000Y-89670000D03*
X103625000Y-76130000D03*
%TD*%
D90*
%TO.C,J4*%
X150060000Y-48700000D03*
X144280000Y-48700000D03*
D91*
X150420000Y-50145000D03*
X149620000Y-50145000D03*
D92*
X148420000Y-50145000D03*
X147420000Y-50145000D03*
X146920000Y-50145000D03*
X145920000Y-50145000D03*
D91*
X144720000Y-50145000D03*
X143920000Y-50145000D03*
X143920000Y-50145000D03*
X144720000Y-50145000D03*
D92*
X145420000Y-50145000D03*
X146420000Y-50145000D03*
X147920000Y-50145000D03*
X148920000Y-50145000D03*
D91*
X149620000Y-50145000D03*
X150420000Y-50145000D03*
D93*
X151490000Y-49230000D03*
D94*
X151490000Y-45050000D03*
D93*
X142850000Y-49230000D03*
D94*
X142850000Y-45050000D03*
%TD*%
D23*
%TO.C,C61*%
X123520000Y-104799999D03*
X124480000Y-104799999D03*
%TD*%
D29*
%TO.C,C50*%
X162180000Y-66550000D03*
X161220000Y-66550000D03*
%TD*%
D57*
%TO.C,H3*%
X186750000Y-132250000D03*
%TD*%
D26*
%TO.C,R25*%
X149799999Y-118720000D03*
X151449999Y-118720000D03*
%TD*%
D56*
%TO.C,C1*%
X146845192Y-58953569D03*
X147805192Y-58953569D03*
%TD*%
D44*
%TO.C,R5*%
X144375192Y-55793569D03*
X144375192Y-56813569D03*
%TD*%
D21*
%TO.C,TP12*%
X153750000Y-103700000D03*
%TD*%
%LPD*%
M02*
