%TF.GenerationSoftware,KiCad,Pcbnew,9.0.1*%
%TF.CreationDate,2025-07-09T12:24:18-07:00*%
%TF.ProjectId,peripheral_board_v1a,70657269-7068-4657-9261-6c5f626f6172,rev?*%
%TF.SameCoordinates,Original*%
%TF.FileFunction,Soldermask,Top*%
%TF.FilePolarity,Negative*%
%FSLAX46Y46*%
G04 Gerber Fmt 4.6, Leading zero omitted, Abs format (unit mm)*
G04 Created by KiCad (PCBNEW 9.0.1) date 2025-07-09 12:24:18*
%MOMM*%
%LPD*%
G01*
G04 APERTURE LIST*
G04 Aperture macros list*
%AMRoundRect*
0 Rectangle with rounded corners*
0 $1 Rounding radius*
0 $2 $3 $4 $5 $6 $7 $8 $9 X,Y pos of 4 corners*
0 Add a 4 corners polygon primitive as box body*
4,1,4,$2,$3,$4,$5,$6,$7,$8,$9,$2,$3,0*
0 Add four circle primitives for the rounded corners*
1,1,$1+$1,$2,$3*
1,1,$1+$1,$4,$5*
1,1,$1+$1,$6,$7*
1,1,$1+$1,$8,$9*
0 Add four rect primitives between the rounded corners*
20,1,$1+$1,$2,$3,$4,$5,0*
20,1,$1+$1,$4,$5,$6,$7,0*
20,1,$1+$1,$6,$7,$8,$9,0*
20,1,$1+$1,$8,$9,$2,$3,0*%
%AMRotRect*
0 Rectangle, with rotation*
0 The origin of the aperture is its center*
0 $1 length*
0 $2 width*
0 $3 Rotation angle, in degrees counterclockwise*
0 Add horizontal line*
21,1,$1,$2,0,0,$3*%
%AMFreePoly0*
4,1,23,0.500000,-0.750000,0.000000,-0.750000,0.000000,-0.745722,-0.065263,-0.745722,-0.191342,-0.711940,-0.304381,-0.646677,-0.396677,-0.554381,-0.461940,-0.441342,-0.495722,-0.315263,-0.495722,-0.250000,-0.500000,-0.250000,-0.500000,0.250000,-0.495722,0.250000,-0.495722,0.315263,-0.461940,0.441342,-0.396677,0.554381,-0.304381,0.646677,-0.191342,0.711940,-0.065263,0.745722,0.000000,0.745722,
0.000000,0.750000,0.500000,0.750000,0.500000,-0.750000,0.500000,-0.750000,$1*%
%AMFreePoly1*
4,1,23,0.000000,0.745722,0.065263,0.745722,0.191342,0.711940,0.304381,0.646677,0.396677,0.554381,0.461940,0.441342,0.495722,0.315263,0.495722,0.250000,0.500000,0.250000,0.500000,-0.250000,0.495722,-0.250000,0.495722,-0.315263,0.461940,-0.441342,0.396677,-0.554381,0.304381,-0.646677,0.191342,-0.711940,0.065263,-0.745722,0.000000,-0.745722,0.000000,-0.750000,-0.500000,-0.750000,
-0.500000,0.750000,0.000000,0.750000,0.000000,0.745722,0.000000,0.745722,$1*%
G04 Aperture macros list end*
%ADD10RoundRect,0.200000X0.275000X-0.200000X0.275000X0.200000X-0.275000X0.200000X-0.275000X-0.200000X0*%
%ADD11R,1.000000X1.000000*%
%ADD12RoundRect,0.140000X0.170000X-0.140000X0.170000X0.140000X-0.170000X0.140000X-0.170000X-0.140000X0*%
%ADD13RoundRect,0.140000X-0.140000X-0.170000X0.140000X-0.170000X0.140000X0.170000X-0.140000X0.170000X0*%
%ADD14R,1.700000X1.700000*%
%ADD15C,1.700000*%
%ADD16RoundRect,0.200000X-0.200000X-0.275000X0.200000X-0.275000X0.200000X0.275000X-0.200000X0.275000X0*%
%ADD17RoundRect,0.200000X0.200000X0.275000X-0.200000X0.275000X-0.200000X-0.275000X0.200000X-0.275000X0*%
%ADD18RoundRect,0.200000X-0.275000X0.200000X-0.275000X-0.200000X0.275000X-0.200000X0.275000X0.200000X0*%
%ADD19RoundRect,0.140000X0.140000X0.170000X-0.140000X0.170000X-0.140000X-0.170000X0.140000X-0.170000X0*%
%ADD20RoundRect,0.218750X-0.218750X-0.256250X0.218750X-0.256250X0.218750X0.256250X-0.218750X0.256250X0*%
%ADD21R,1.100000X2.500000*%
%ADD22R,3.600000X2.340000*%
%ADD23RotRect,2.100000X1.700000X45.000000*%
%ADD24RoundRect,0.140000X-0.170000X0.140000X-0.170000X-0.140000X0.170000X-0.140000X0.170000X0.140000X0*%
%ADD25RoundRect,0.225000X-0.250000X0.225000X-0.250000X-0.225000X0.250000X-0.225000X0.250000X0.225000X0*%
%ADD26RoundRect,0.135000X-0.135000X-0.185000X0.135000X-0.185000X0.135000X0.185000X-0.135000X0.185000X0*%
%ADD27RoundRect,0.218750X-0.256250X0.218750X-0.256250X-0.218750X0.256250X-0.218750X0.256250X0.218750X0*%
%ADD28R,1.150000X1.050000*%
%ADD29RoundRect,0.135000X0.185000X-0.135000X0.185000X0.135000X-0.185000X0.135000X-0.185000X-0.135000X0*%
%ADD30R,0.850000X0.850000*%
%ADD31C,0.850000*%
%ADD32O,1.500000X0.270000*%
%ADD33O,0.270000X1.500000*%
%ADD34RoundRect,0.135000X-0.185000X0.135000X-0.185000X-0.135000X0.185000X-0.135000X0.185000X0.135000X0*%
%ADD35FreePoly0,0.000000*%
%ADD36FreePoly1,0.000000*%
%ADD37RoundRect,0.200000X1.550000X0.200000X-1.550000X0.200000X-1.550000X-0.200000X1.550000X-0.200000X0*%
%ADD38RoundRect,0.815000X1.485000X0.815000X-1.485000X0.815000X-1.485000X-0.815000X1.485000X-0.815000X0*%
%ADD39RoundRect,0.225000X0.225000X0.250000X-0.225000X0.250000X-0.225000X-0.250000X0.225000X-0.250000X0*%
%ADD40O,0.350000X1.450000*%
%ADD41R,1.630000X2.700000*%
%ADD42RoundRect,0.250000X0.689429X0.300520X0.300520X0.689429X-0.689429X-0.300520X-0.300520X-0.689429X0*%
%ADD43R,1.100000X0.600000*%
%ADD44R,4.000000X4.500000*%
%ADD45R,0.470000X0.530000*%
%ADD46C,5.000000*%
%ADD47R,1.460000X0.220000*%
%ADD48R,0.220000X1.460000*%
%ADD49O,2.250000X0.630000*%
%ADD50R,0.600000X1.100000*%
%ADD51R,1.400000X1.200000*%
%ADD52RoundRect,0.250000X-0.475000X0.250000X-0.475000X-0.250000X0.475000X-0.250000X0.475000X0.250000X0*%
%ADD53RoundRect,0.250000X-0.250000X-0.475000X0.250000X-0.475000X0.250000X0.475000X-0.250000X0.475000X0*%
%ADD54C,3.250000*%
%ADD55C,1.520000*%
%ADD56C,2.500000*%
%ADD57R,0.700000X1.700000*%
%ADD58RoundRect,0.225000X0.250000X-0.225000X0.250000X0.225000X-0.250000X0.225000X-0.250000X-0.225000X0*%
%ADD59RoundRect,0.225000X-0.335876X-0.017678X-0.017678X-0.335876X0.335876X0.017678X0.017678X0.335876X0*%
%ADD60RoundRect,0.135000X0.135000X0.185000X-0.135000X0.185000X-0.135000X-0.185000X0.135000X-0.185000X0*%
%ADD61RoundRect,0.140000X0.219203X0.021213X0.021213X0.219203X-0.219203X-0.021213X-0.021213X-0.219203X0*%
%ADD62R,1.700000X2.100000*%
%ADD63C,1.600000*%
%ADD64RoundRect,0.225000X0.335876X0.017678X0.017678X0.335876X-0.335876X-0.017678X-0.017678X-0.335876X0*%
%ADD65R,2.500000X1.100000*%
%ADD66R,2.340000X3.600000*%
%ADD67RoundRect,0.250000X0.275000X0.700000X-0.275000X0.700000X-0.275000X-0.700000X0.275000X-0.700000X0*%
%ADD68RoundRect,0.250000X-0.275000X-0.700000X0.275000X-0.700000X0.275000X0.700000X-0.275000X0.700000X0*%
%ADD69RoundRect,0.218750X0.218750X0.256250X-0.218750X0.256250X-0.218750X-0.256250X0.218750X-0.256250X0*%
%ADD70RoundRect,0.250000X0.250000X0.475000X-0.250000X0.475000X-0.250000X-0.475000X0.250000X-0.475000X0*%
%ADD71RoundRect,0.250000X-0.689429X-0.300520X-0.300520X-0.689429X0.689429X0.300520X0.300520X0.689429X0*%
%ADD72R,1.400000X1.400000*%
%ADD73C,1.400000*%
%ADD74RoundRect,0.140000X-0.219203X-0.021213X-0.021213X-0.219203X0.219203X0.021213X0.021213X0.219203X0*%
%ADD75R,0.880000X0.200000*%
%ADD76R,0.200000X0.880000*%
%ADD77R,3.400000X3.400000*%
%ADD78RoundRect,0.225000X-0.225000X-0.250000X0.225000X-0.250000X0.225000X0.250000X-0.225000X0.250000X0*%
%ADD79R,0.600000X1.450000*%
%ADD80R,0.300000X1.450000*%
%ADD81O,1.000000X2.100000*%
%ADD82O,1.000000X1.600000*%
G04 APERTURE END LIST*
%TO.C,JP1*%
G36*
X168800000Y-87400000D02*
G01*
X169100000Y-87400000D01*
X169100000Y-88900000D01*
X168800000Y-88900000D01*
X168800000Y-87400000D01*
G37*
%TO.C,JP6*%
G36*
X168800000Y-100150000D02*
G01*
X169100000Y-100150000D01*
X169100000Y-101650000D01*
X168800000Y-101650000D01*
X168800000Y-100150000D01*
G37*
%TO.C,JP5*%
G36*
X168800000Y-97600000D02*
G01*
X169100000Y-97600000D01*
X169100000Y-99100000D01*
X168800000Y-99100000D01*
X168800000Y-97600000D01*
G37*
%TO.C,JP3*%
G36*
X168800000Y-92500000D02*
G01*
X169100000Y-92500000D01*
X169100000Y-94000000D01*
X168800000Y-94000000D01*
X168800000Y-92500000D01*
G37*
%TO.C,JP4*%
G36*
X168800000Y-95050000D02*
G01*
X169100000Y-95050000D01*
X169100000Y-96550000D01*
X168800000Y-96550000D01*
X168800000Y-95050000D01*
G37*
%TO.C,JP2*%
G36*
X168800000Y-89950000D02*
G01*
X169100000Y-89950000D01*
X169100000Y-91450000D01*
X168800000Y-91450000D01*
X168800000Y-89950000D01*
G37*
%TD*%
D10*
%TO.C,R33*%
X151008758Y-103155127D03*
X151008758Y-101505127D03*
%TD*%
D11*
%TO.C,TP31*%
X163550000Y-96200000D03*
%TD*%
D12*
%TO.C,C9*%
X143375192Y-56753569D03*
X143375192Y-55793569D03*
%TD*%
D13*
%TO.C,C32*%
X172140000Y-114970000D03*
X173100000Y-114970000D03*
%TD*%
D14*
%TO.C,J2*%
X180875000Y-68950000D03*
D15*
X178335000Y-68950000D03*
X180875000Y-66410000D03*
X178335000Y-66410000D03*
X180875000Y-63870000D03*
X178335000Y-63870000D03*
X180875000Y-61330000D03*
X178335000Y-61330000D03*
X180875000Y-58790000D03*
X178335000Y-58790000D03*
X180875000Y-56250000D03*
X178335000Y-56250000D03*
%TD*%
D16*
%TO.C,R35*%
X151333757Y-84980127D03*
X152983757Y-84980127D03*
%TD*%
D11*
%TO.C,TP14*%
X155800000Y-103750000D03*
%TD*%
D13*
%TO.C,C4*%
X143170192Y-71978569D03*
X144130192Y-71978569D03*
%TD*%
%TO.C,C63*%
X123620000Y-123800000D03*
X124580000Y-123800000D03*
%TD*%
D17*
%TO.C,R16*%
X150745000Y-52100000D03*
X149095000Y-52100000D03*
%TD*%
D18*
%TO.C,R64*%
X158600000Y-47875000D03*
X158600000Y-49525000D03*
%TD*%
D19*
%TO.C,C3*%
X139190192Y-62778569D03*
X138230192Y-62778569D03*
%TD*%
D20*
%TO.C,D3*%
X174224999Y-58800000D03*
X175799999Y-58800000D03*
%TD*%
D11*
%TO.C,TP16*%
X157800000Y-103750000D03*
%TD*%
D13*
%TO.C,C60*%
X123540002Y-79705000D03*
X124500002Y-79705000D03*
%TD*%
D17*
%TO.C,R34*%
X162933757Y-91980127D03*
X161283757Y-91980127D03*
%TD*%
D12*
%TO.C,C36*%
X152308757Y-102260127D03*
X152308757Y-101300127D03*
%TD*%
%TO.C,C31*%
X170250001Y-118440000D03*
X170250001Y-117480000D03*
%TD*%
D21*
%TO.C,U7*%
X165060192Y-58558569D03*
X162760192Y-58558569D03*
X160460192Y-58558569D03*
D22*
X162760192Y-64498569D03*
%TD*%
D23*
%TO.C,Y3*%
X145627388Y-87070687D03*
X149799318Y-82898757D03*
X147890130Y-80989569D03*
X143718200Y-85161499D03*
%TD*%
D24*
%TO.C,C6*%
X145950192Y-69298569D03*
X145950192Y-70258569D03*
%TD*%
D11*
%TO.C,TP7*%
X116000000Y-48799999D03*
%TD*%
D25*
%TO.C,C23*%
X149625000Y-114144999D03*
X149625000Y-115694999D03*
%TD*%
D13*
%TO.C,C57*%
X123669999Y-67370001D03*
X124629999Y-67370001D03*
%TD*%
D26*
%TO.C,R38*%
X156798758Y-86080126D03*
X157818758Y-86080126D03*
%TD*%
D16*
%TO.C,R40*%
X171275000Y-88150000D03*
X172925000Y-88150000D03*
%TD*%
%TO.C,R9*%
X183300000Y-63850000D03*
X184950000Y-63850000D03*
%TD*%
D27*
%TO.C,D1*%
X140500000Y-43062500D03*
X140500000Y-44637500D03*
%TD*%
D25*
%TO.C,C28*%
X159275001Y-109795000D03*
X159275001Y-111345000D03*
%TD*%
D27*
%TO.C,D4*%
X155299998Y-54162497D03*
X155299998Y-55737499D03*
%TD*%
D17*
%TO.C,R11*%
X172737498Y-61350000D03*
X171087498Y-61350000D03*
%TD*%
D25*
%TO.C,C27*%
X156274999Y-109795001D03*
X156274999Y-111345001D03*
%TD*%
D19*
%TO.C,C12*%
X139180000Y-64353569D03*
X138220000Y-64353569D03*
%TD*%
D26*
%TO.C,R15*%
X129040000Y-49450000D03*
X130060000Y-49450000D03*
%TD*%
D18*
%TO.C,R8*%
X140500000Y-46025000D03*
X140500000Y-47675000D03*
%TD*%
D28*
%TO.C,SW2*%
X153650000Y-73200000D03*
X150250000Y-73200000D03*
X153650000Y-71700000D03*
X150250000Y-71700000D03*
%TD*%
D18*
%TO.C,R66*%
X155300000Y-57125000D03*
X155300000Y-58775000D03*
%TD*%
D29*
%TO.C,R36*%
X154849999Y-85310001D03*
X154849999Y-84290001D03*
%TD*%
D16*
%TO.C,R51*%
X123770002Y-76954213D03*
X125420002Y-76954213D03*
%TD*%
D17*
%TO.C,R13*%
X172749999Y-58800000D03*
X171099999Y-58800000D03*
%TD*%
D13*
%TO.C,C48*%
X159570000Y-56350000D03*
X160530000Y-56350000D03*
%TD*%
D17*
%TO.C,R22*%
X153800002Y-123320001D03*
X152150002Y-123320001D03*
%TD*%
D11*
%TO.C,TP36*%
X166950000Y-85850000D03*
%TD*%
%TO.C,TP20*%
X163550000Y-88100000D03*
%TD*%
D12*
%TO.C,C66*%
X157149999Y-45130000D03*
X157149999Y-44170000D03*
%TD*%
D30*
%TO.C,J1*%
X152900000Y-69650000D03*
D31*
X152900000Y-68650000D03*
X152900000Y-67650000D03*
%TD*%
D16*
%TO.C,R50*%
X123924999Y-70070002D03*
X125574999Y-70070002D03*
%TD*%
D17*
%TO.C,R18*%
X164900000Y-114620000D03*
X163250000Y-114620000D03*
%TD*%
D32*
%TO.C,U4*%
X161775000Y-120270000D03*
X161775000Y-119770000D03*
X161775000Y-119270000D03*
X161775000Y-118770000D03*
X161775000Y-118270000D03*
X161775000Y-117770000D03*
X161775000Y-117270000D03*
X161775000Y-116770000D03*
X161775000Y-116270000D03*
X161775000Y-115770000D03*
X161775000Y-115270000D03*
X161775000Y-114770000D03*
D33*
X160275000Y-113270000D03*
X159775000Y-113270000D03*
X159275000Y-113270000D03*
X158775000Y-113270000D03*
X158275000Y-113270000D03*
X157775000Y-113270000D03*
X157275000Y-113270000D03*
X156775000Y-113270000D03*
X156275000Y-113270000D03*
X155775000Y-113270000D03*
X155275000Y-113270000D03*
X154775000Y-113270000D03*
D32*
X153275000Y-114770000D03*
X153275000Y-115270000D03*
X153275000Y-115770000D03*
X153275000Y-116270000D03*
X153275000Y-116770000D03*
X153275000Y-117270000D03*
X153275000Y-117770000D03*
X153275000Y-118270000D03*
X153275000Y-118770000D03*
X153275000Y-119270000D03*
X153275000Y-119770000D03*
X153275000Y-120270000D03*
D33*
X154775000Y-121770000D03*
X155275000Y-121770000D03*
X155775000Y-121770000D03*
X156275000Y-121770000D03*
X156775000Y-121770000D03*
X157275000Y-121770000D03*
X157775000Y-121770000D03*
X158275000Y-121770000D03*
X158775000Y-121770000D03*
X159275000Y-121770000D03*
X159775000Y-121770000D03*
X160275000Y-121770000D03*
%TD*%
D13*
%TO.C,C59*%
X123540002Y-86054999D03*
X124500002Y-86054999D03*
%TD*%
D16*
%TO.C,R48*%
X123875000Y-59770000D03*
X125525000Y-59770000D03*
%TD*%
%TO.C,R57*%
X123750000Y-106049999D03*
X125400000Y-106049999D03*
%TD*%
D18*
%TO.C,R19*%
X154014770Y-134944314D03*
X154014770Y-136594314D03*
%TD*%
D34*
%TO.C,R6*%
X145375192Y-55793569D03*
X145375192Y-56813569D03*
%TD*%
D11*
%TO.C,TP1*%
X153500000Y-75250000D03*
%TD*%
D35*
%TO.C,JP1*%
X168300000Y-88150000D03*
D36*
X169600000Y-88150000D03*
%TD*%
D37*
%TO.C,J8*%
X120875000Y-126315000D03*
X120875000Y-125045000D03*
X120875000Y-123775000D03*
X120875000Y-122505000D03*
X120875000Y-121235000D03*
X120875000Y-119965000D03*
X120875000Y-118695000D03*
X120875000Y-117425000D03*
X120875000Y-116155000D03*
X120875000Y-114885000D03*
D38*
X103725000Y-127370000D03*
X103725000Y-113830000D03*
%TD*%
D16*
%TO.C,R47*%
X123874998Y-58270001D03*
X125524998Y-58270001D03*
%TD*%
D10*
%TO.C,R28*%
X170210000Y-116290000D03*
X170210000Y-114640000D03*
%TD*%
D39*
%TO.C,C29*%
X146700002Y-112070003D03*
X145150002Y-112070003D03*
%TD*%
D40*
%TO.C,U9*%
X155269999Y-52480000D03*
X155930000Y-52480000D03*
X156580000Y-52480000D03*
X157230001Y-52480000D03*
X157230001Y-46620000D03*
X156580000Y-46620000D03*
X155930000Y-46620000D03*
X155269999Y-46620000D03*
%TD*%
D11*
%TO.C,TP18*%
X159850000Y-103750000D03*
%TD*%
D24*
%TO.C,C42*%
X152908759Y-86250125D03*
X152908759Y-87210125D03*
%TD*%
D16*
%TO.C,R44*%
X171250000Y-98350000D03*
X172900000Y-98350000D03*
%TD*%
D41*
%TO.C,C34*%
X183049999Y-129460000D03*
X180009999Y-129460000D03*
%TD*%
D16*
%TO.C,R41*%
X171275000Y-90700000D03*
X172925000Y-90700000D03*
%TD*%
D42*
%TO.C,FB7*%
X164827386Y-104877386D03*
X162600000Y-102650000D03*
%TD*%
D43*
%TO.C,U8*%
X164250000Y-43400000D03*
X164250000Y-44670000D03*
X164250000Y-45930000D03*
X164250000Y-47200000D03*
X171850000Y-47200000D03*
X171850000Y-45930000D03*
X171850000Y-44670000D03*
X171850000Y-43400000D03*
D44*
X168050000Y-45300000D03*
%TD*%
D11*
%TO.C,TP6*%
X118000000Y-48800000D03*
%TD*%
D12*
%TO.C,C65*%
X154900001Y-45130001D03*
X154900001Y-44170001D03*
%TD*%
D45*
%TO.C,C2*%
X146845192Y-58003569D03*
X147805192Y-58003569D03*
%TD*%
D35*
%TO.C,JP6*%
X168300000Y-100900000D03*
D36*
X169600000Y-100900000D03*
%TD*%
D13*
%TO.C,C64*%
X123620000Y-117400000D03*
X124580000Y-117400000D03*
%TD*%
%TO.C,C39*%
X145328757Y-94430127D03*
X146288757Y-94430127D03*
%TD*%
D11*
%TO.C,TP19*%
X161550000Y-88100000D03*
%TD*%
D46*
%TO.C,H4*%
X106700000Y-132300000D03*
%TD*%
D39*
%TO.C,C25*%
X165450000Y-118770000D03*
X163900000Y-118770000D03*
%TD*%
D47*
%TO.C,U6*%
X148420000Y-90400000D03*
X148420000Y-90800000D03*
X148420000Y-91200000D03*
X148420000Y-91600000D03*
X148420000Y-92000000D03*
X148420000Y-92400000D03*
X148420000Y-92800000D03*
X148420000Y-93200000D03*
X148420000Y-93600000D03*
X148420000Y-94000000D03*
X148420000Y-94400000D03*
X148420000Y-94800000D03*
X148420000Y-95200000D03*
X148420000Y-95600000D03*
X148420000Y-96000000D03*
X148420000Y-96400000D03*
X148420000Y-96800000D03*
X148420000Y-97200000D03*
X148420000Y-97600000D03*
X148420000Y-98000000D03*
D48*
X150250000Y-99830000D03*
X150650000Y-99830000D03*
X151050000Y-99830000D03*
X151450000Y-99830000D03*
X151850000Y-99830000D03*
X152250000Y-99830000D03*
X152650000Y-99830000D03*
X153050000Y-99830000D03*
X153450000Y-99830000D03*
X153850000Y-99830000D03*
X154250000Y-99830000D03*
X154650000Y-99830000D03*
X155050000Y-99830000D03*
X155450000Y-99830000D03*
X155850000Y-99830000D03*
X156250000Y-99830000D03*
X156650000Y-99830000D03*
X157050000Y-99830000D03*
X157450000Y-99830000D03*
X157850000Y-99830000D03*
D47*
X159680000Y-98000000D03*
X159680000Y-97600000D03*
X159680000Y-97200000D03*
X159680000Y-96800000D03*
X159680000Y-96400000D03*
X159680000Y-96000000D03*
X159680000Y-95600000D03*
X159680000Y-95200000D03*
X159680000Y-94800000D03*
X159680000Y-94400000D03*
X159680000Y-94000000D03*
X159680000Y-93600000D03*
X159680000Y-93200000D03*
X159680000Y-92800000D03*
X159680000Y-92400000D03*
X159680000Y-92000000D03*
X159680000Y-91600000D03*
X159680000Y-91200000D03*
X159680000Y-90800000D03*
X159680000Y-90400000D03*
D48*
X157850000Y-88570000D03*
X157450000Y-88570000D03*
X157050000Y-88570000D03*
X156650000Y-88570000D03*
X156250000Y-88570000D03*
X155850000Y-88570000D03*
X155450000Y-88570000D03*
X155050000Y-88570000D03*
X154650000Y-88570000D03*
X154250000Y-88570000D03*
X153850000Y-88570000D03*
X153450000Y-88570000D03*
X153050000Y-88570000D03*
X152650000Y-88570000D03*
X152250000Y-88570000D03*
X151850000Y-88570000D03*
X151450000Y-88570000D03*
X151050000Y-88570000D03*
X150650000Y-88570000D03*
X150250000Y-88570000D03*
%TD*%
D19*
%TO.C,C5*%
X146480192Y-72003569D03*
X145520192Y-72003569D03*
%TD*%
D49*
%TO.C,U3*%
X133145192Y-49493569D03*
X133145192Y-50773569D03*
X133145192Y-52033569D03*
X133145192Y-53303569D03*
X140205192Y-53303569D03*
X140205192Y-52033569D03*
X140205192Y-50773569D03*
X140205192Y-49493569D03*
%TD*%
D35*
%TO.C,JP5*%
X168300000Y-98350000D03*
D36*
X169600000Y-98350000D03*
%TD*%
D24*
%TO.C,C7*%
X149575192Y-57923569D03*
X149575192Y-58883569D03*
%TD*%
D19*
%TO.C,C43*%
X162080000Y-97599999D03*
X161120000Y-97599999D03*
%TD*%
D16*
%TO.C,R61*%
X123825000Y-125050000D03*
X125475000Y-125050000D03*
%TD*%
%TO.C,R12*%
X183300000Y-58800002D03*
X184950000Y-58800002D03*
%TD*%
D17*
%TO.C,R31*%
X173355000Y-121539999D03*
X171705000Y-121539999D03*
%TD*%
D37*
%TO.C,J7*%
X120775000Y-107315000D03*
X120775000Y-106045000D03*
X120775000Y-104775000D03*
X120775000Y-103505000D03*
X120775000Y-102235000D03*
X120775000Y-100965000D03*
X120775000Y-99695000D03*
X120775000Y-98425000D03*
X120775000Y-97155000D03*
X120775000Y-95885000D03*
D38*
X103625000Y-108370000D03*
X103625000Y-94830000D03*
%TD*%
D11*
%TO.C,TP3*%
X126300000Y-45350000D03*
%TD*%
D50*
%TO.C,U5*%
X150675001Y-123270001D03*
X149725001Y-123270001D03*
X148775001Y-123270001D03*
X148775001Y-125870001D03*
X150675001Y-125870001D03*
%TD*%
D35*
%TO.C,JP3*%
X168300000Y-93250000D03*
D36*
X169600000Y-93250000D03*
%TD*%
D11*
%TO.C,TP5*%
X120000000Y-48799999D03*
%TD*%
D29*
%TO.C,R4*%
X144825192Y-70288569D03*
X144825192Y-69268569D03*
%TD*%
D51*
%TO.C,Y1*%
X143500192Y-75253569D03*
X145700192Y-75253569D03*
X145700192Y-73553569D03*
X143500192Y-73553569D03*
%TD*%
D16*
%TO.C,R58*%
X123775000Y-107549998D03*
X125425000Y-107549998D03*
%TD*%
D18*
%TO.C,R46*%
X160075198Y-81779802D03*
X160075198Y-83429802D03*
%TD*%
D46*
%TO.C,H1*%
X106800000Y-52300000D03*
%TD*%
D18*
%TO.C,R65*%
X158600000Y-50874999D03*
X158600000Y-52524999D03*
%TD*%
D11*
%TO.C,TP2*%
X133450000Y-46900000D03*
%TD*%
D37*
%TO.C,J5*%
X120950000Y-69930000D03*
X120950000Y-68660000D03*
X120950000Y-67390000D03*
X120950000Y-66120000D03*
X120950000Y-64850000D03*
X120950000Y-63580000D03*
X120950000Y-62310000D03*
X120950000Y-61040000D03*
X120950000Y-59770000D03*
X120950000Y-58500000D03*
D38*
X103800000Y-70985000D03*
X103800000Y-57445000D03*
%TD*%
D19*
%TO.C,C10*%
X140630000Y-59900000D03*
X139670000Y-59900000D03*
%TD*%
%TO.C,C19*%
X139080000Y-48000000D03*
X138120000Y-48000000D03*
%TD*%
D16*
%TO.C,R55*%
X123725001Y-95699999D03*
X125375001Y-95699999D03*
%TD*%
%TO.C,R10*%
X183300000Y-61350000D03*
X184950000Y-61350000D03*
%TD*%
D11*
%TO.C,TP26*%
X162600000Y-93750000D03*
%TD*%
D16*
%TO.C,R17*%
X143745000Y-52150000D03*
X145395000Y-52150000D03*
%TD*%
D52*
%TO.C,C16*%
X162041431Y-51172693D03*
X162041431Y-53072691D03*
%TD*%
D13*
%TO.C,C13*%
X149920000Y-68050000D03*
X150880000Y-68050000D03*
%TD*%
D53*
%TO.C,C55*%
X166600000Y-69450000D03*
X168500000Y-69450000D03*
%TD*%
D14*
%TO.C,J3*%
X193950000Y-91300000D03*
D15*
X191410000Y-91300000D03*
X193950000Y-88760000D03*
X191410000Y-88760000D03*
X193950000Y-86220000D03*
X191410000Y-86220000D03*
X193950000Y-83680000D03*
X191410000Y-83680000D03*
X193950000Y-81140000D03*
X191410000Y-81140000D03*
X193950000Y-78600000D03*
X191410000Y-78600000D03*
%TD*%
D54*
%TO.C,RJ1*%
X186220000Y-124280000D03*
X186220000Y-112840000D03*
D55*
X179870000Y-123010000D03*
X177330000Y-121740000D03*
X179870000Y-120460000D03*
X177330000Y-119190000D03*
X179870000Y-117930000D03*
X177330000Y-116660000D03*
X179870000Y-115390000D03*
X177330000Y-114120000D03*
X189600000Y-122350000D03*
X191120000Y-124890000D03*
X189600000Y-112230000D03*
X191120000Y-114770000D03*
D56*
X183170000Y-126330000D03*
X183170000Y-110790000D03*
%TD*%
D13*
%TO.C,C11*%
X151470000Y-63800000D03*
X152430000Y-63800000D03*
%TD*%
D16*
%TO.C,R7*%
X183300000Y-66400001D03*
X184950000Y-66400001D03*
%TD*%
D19*
%TO.C,C47*%
X162038758Y-95230125D03*
X161078758Y-95230125D03*
%TD*%
D12*
%TO.C,C37*%
X155450001Y-102280001D03*
X155450001Y-101320001D03*
%TD*%
D13*
%TO.C,C33*%
X172140000Y-113990000D03*
X173100000Y-113990000D03*
%TD*%
D57*
%TO.C,L1*%
X146625192Y-56361780D03*
X148025192Y-56361780D03*
%TD*%
D58*
%TO.C,C21*%
X154775001Y-111345001D03*
X154775001Y-109795001D03*
%TD*%
D59*
%TO.C,C56*%
X163961180Y-101182753D03*
X165057196Y-102278769D03*
%TD*%
D17*
%TO.C,R27*%
X189504999Y-108709999D03*
X187854999Y-108709999D03*
%TD*%
D29*
%TO.C,R2*%
X149575192Y-57063569D03*
X149575192Y-56043569D03*
%TD*%
D16*
%TO.C,R49*%
X123924999Y-68570000D03*
X125574999Y-68570000D03*
%TD*%
D52*
%TO.C,C49*%
X167500000Y-59750000D03*
X167500000Y-61650000D03*
%TD*%
D60*
%TO.C,R63*%
X135910000Y-48000000D03*
X134890000Y-48000000D03*
%TD*%
D52*
%TO.C,C17*%
X152100000Y-54950000D03*
X152100000Y-56850000D03*
%TD*%
D16*
%TO.C,R53*%
X123770000Y-87324213D03*
X125420000Y-87324213D03*
%TD*%
%TO.C,R54*%
X123785789Y-88855000D03*
X125435789Y-88855000D03*
%TD*%
D17*
%TO.C,R23*%
X151749999Y-121820001D03*
X150099999Y-121820001D03*
%TD*%
D61*
%TO.C,C45*%
X143704055Y-87763650D03*
X143025233Y-87084828D03*
%TD*%
D13*
%TO.C,C38*%
X146178757Y-90530127D03*
X147138757Y-90530127D03*
%TD*%
D11*
%TO.C,TP34*%
X163550000Y-98200000D03*
%TD*%
D62*
%TO.C,Y2*%
X147225000Y-120070002D03*
X147225000Y-114170002D03*
X144525000Y-114170002D03*
X144525000Y-120070002D03*
%TD*%
D10*
%TO.C,R14*%
X162250000Y-46325000D03*
X162250000Y-44675000D03*
%TD*%
D24*
%TO.C,C44*%
X153908579Y-86250126D03*
X153908579Y-87210126D03*
%TD*%
D63*
%TO.C,SW3*%
X159065000Y-133180000D03*
X156525000Y-133180000D03*
X153985000Y-133180000D03*
X159065000Y-125560000D03*
X156525000Y-125560000D03*
X153985000Y-125560000D03*
%TD*%
D64*
%TO.C,C53*%
X140010051Y-90976346D03*
X138914035Y-89880330D03*
%TD*%
D53*
%TO.C,C18*%
X118600000Y-52350000D03*
X120500000Y-52350000D03*
%TD*%
D24*
%TO.C,C67*%
X155899999Y-44169999D03*
X155899999Y-45129999D03*
%TD*%
D11*
%TO.C,TP21*%
X163550000Y-90150000D03*
%TD*%
D65*
%TO.C,U2*%
X165049999Y-49700000D03*
X165050000Y-52000000D03*
X165049999Y-54300000D03*
D66*
X170990000Y-52000000D03*
%TD*%
D17*
%TO.C,R26*%
X173325000Y-116220000D03*
X171675000Y-116220000D03*
%TD*%
D52*
%TO.C,C22*%
X151375001Y-113770002D03*
X151375001Y-115670002D03*
%TD*%
D58*
%TO.C,C20*%
X157774999Y-111344999D03*
X157774999Y-109794999D03*
%TD*%
D11*
%TO.C,TP4*%
X150400000Y-69600000D03*
%TD*%
D67*
%TO.C,FB4*%
X159975000Y-67250000D03*
X156825000Y-67250000D03*
%TD*%
D13*
%TO.C,C35*%
X172610000Y-118120000D03*
X173570000Y-118120000D03*
%TD*%
D16*
%TO.C,R62*%
X123824999Y-126550000D03*
X125474999Y-126550000D03*
%TD*%
%TO.C,R56*%
X123725001Y-97169999D03*
X125375001Y-97169999D03*
%TD*%
D68*
%TO.C,FB6*%
X165325000Y-67250000D03*
X168475000Y-67250000D03*
%TD*%
D16*
%TO.C,R42*%
X171275000Y-93250000D03*
X172925000Y-93250000D03*
%TD*%
D69*
%TO.C,FB2*%
X161912502Y-123570003D03*
X160337502Y-123570003D03*
%TD*%
D24*
%TO.C,C41*%
X151950000Y-86220001D03*
X151950000Y-87180001D03*
%TD*%
D70*
%TO.C,C54*%
X159950000Y-69450000D03*
X158050000Y-69450000D03*
%TD*%
D13*
%TO.C,C58*%
X123669999Y-61020001D03*
X124629999Y-61020001D03*
%TD*%
D25*
%TO.C,C51*%
X160075198Y-84829802D03*
X160075198Y-86379802D03*
%TD*%
D35*
%TO.C,JP4*%
X168300000Y-95800000D03*
D36*
X169600000Y-95800000D03*
%TD*%
D20*
%TO.C,D2*%
X174274999Y-61350000D03*
X175849999Y-61350000D03*
%TD*%
D13*
%TO.C,C14*%
X150055192Y-60378569D03*
X151015192Y-60378569D03*
%TD*%
D39*
%TO.C,C30*%
X165100000Y-116120000D03*
X163550000Y-116120000D03*
%TD*%
D29*
%TO.C,R1*%
X127825192Y-49413569D03*
X127825192Y-48393569D03*
%TD*%
D71*
%TO.C,FB5*%
X139136307Y-87286307D03*
X141363693Y-89513693D03*
%TD*%
D17*
%TO.C,R30*%
X173305000Y-120010000D03*
X171655000Y-120010000D03*
%TD*%
D72*
%TO.C,CN2*%
X193600000Y-59200000D03*
D73*
X191600000Y-59200000D03*
X193600000Y-61200000D03*
X191600000Y-61200000D03*
X193600000Y-63200000D03*
X191600000Y-63200000D03*
X193600000Y-65200000D03*
X191600000Y-65200000D03*
X193600000Y-67200000D03*
X191600000Y-67200000D03*
X193600000Y-69200000D03*
X191600000Y-69200000D03*
X193600000Y-71200000D03*
X191600000Y-71200000D03*
X193600000Y-73200000D03*
X191600000Y-73200000D03*
%TD*%
D11*
%TO.C,TP9*%
X112000000Y-48799999D03*
%TD*%
D12*
%TO.C,C8*%
X150950000Y-62680000D03*
X150950000Y-61720000D03*
%TD*%
D11*
%TO.C,TP28*%
X164600000Y-94200000D03*
%TD*%
D28*
%TO.C,SW4*%
X161650000Y-84100000D03*
X165050000Y-84100000D03*
X161650000Y-85600000D03*
X165050000Y-85600000D03*
%TD*%
D35*
%TO.C,JP2*%
X168300000Y-90700000D03*
D36*
X169600000Y-90700000D03*
%TD*%
D24*
%TO.C,C40*%
X147108759Y-88650127D03*
X147108759Y-89610127D03*
%TD*%
D16*
%TO.C,R59*%
X123824999Y-114650000D03*
X125474999Y-114650000D03*
%TD*%
D20*
%TO.C,FB1*%
X151187501Y-111270001D03*
X152762501Y-111270001D03*
%TD*%
D16*
%TO.C,R43*%
X171250000Y-95800000D03*
X172900000Y-95800000D03*
%TD*%
D18*
%TO.C,R21*%
X159105939Y-134944314D03*
X159105939Y-136594314D03*
%TD*%
D11*
%TO.C,TP35*%
X166950000Y-83800000D03*
%TD*%
D24*
%TO.C,C15*%
X143450192Y-69298569D03*
X143450192Y-70258569D03*
%TD*%
D13*
%TO.C,C62*%
X123519999Y-98399999D03*
X124479999Y-98399999D03*
%TD*%
D68*
%TO.C,FB3*%
X123875000Y-92150000D03*
X127025000Y-92150000D03*
%TD*%
D74*
%TO.C,C46*%
X149799319Y-80282463D03*
X150478141Y-80961285D03*
%TD*%
D16*
%TO.C,R29*%
X187805000Y-128409999D03*
X189455000Y-128409999D03*
%TD*%
D25*
%TO.C,C24*%
X161825000Y-110270001D03*
X161825000Y-111820001D03*
%TD*%
D46*
%TO.C,H2*%
X186700000Y-52300000D03*
%TD*%
D29*
%TO.C,R37*%
X155800001Y-85320001D03*
X155800001Y-84300001D03*
%TD*%
D18*
%TO.C,R20*%
X156560353Y-134944314D03*
X156560353Y-136594314D03*
%TD*%
D16*
%TO.C,R45*%
X171250000Y-100900000D03*
X172900000Y-100900000D03*
%TD*%
%TO.C,R60*%
X123825000Y-116150000D03*
X125475000Y-116150000D03*
%TD*%
D75*
%TO.C,U1*%
X141645192Y-60773569D03*
X141645192Y-61173569D03*
X141645192Y-61573569D03*
X141645192Y-61973569D03*
X141645192Y-62373569D03*
X141645192Y-62773569D03*
X141645192Y-63173569D03*
X141645192Y-63573569D03*
X141645192Y-63973569D03*
X141645192Y-64373569D03*
X141645192Y-64773569D03*
X141645192Y-65173569D03*
X141645192Y-65573569D03*
X141645192Y-65973569D03*
X141645192Y-66373569D03*
D76*
X142425192Y-67143569D03*
X142825192Y-67143569D03*
X143225192Y-67143569D03*
X143625192Y-67143569D03*
X144025192Y-67143569D03*
X144425192Y-67143569D03*
X144825192Y-67143569D03*
X145225192Y-67143569D03*
X145625192Y-67143569D03*
X146025192Y-67143569D03*
X146425192Y-67143569D03*
X146825192Y-67143569D03*
X147225192Y-67143569D03*
X147625192Y-67143569D03*
X148025192Y-67143569D03*
D75*
X148805192Y-66373569D03*
X148805192Y-65973569D03*
X148805192Y-65573569D03*
X148805192Y-65173569D03*
X148805192Y-64773569D03*
X148805192Y-64373569D03*
X148805192Y-63973569D03*
X148805192Y-63573569D03*
X148805192Y-63173569D03*
X148805192Y-62773569D03*
X148805192Y-62373569D03*
X148805192Y-61973569D03*
X148805192Y-61573569D03*
X148805192Y-61173569D03*
X148805192Y-60773569D03*
D76*
X148025192Y-60003569D03*
X147625192Y-60003569D03*
X147225192Y-60003569D03*
X146825192Y-60003569D03*
X146425192Y-60003569D03*
X146025192Y-60003569D03*
X145625192Y-60003569D03*
X145225192Y-60003569D03*
X144825192Y-60003569D03*
X144425192Y-60003569D03*
X144025192Y-60003569D03*
X143625192Y-60003569D03*
X143225192Y-60003569D03*
X142825192Y-60003569D03*
X142425192Y-60003569D03*
D77*
X145225192Y-63573569D03*
%TD*%
D16*
%TO.C,R52*%
X123770002Y-78455000D03*
X125420002Y-78455000D03*
%TD*%
D11*
%TO.C,TP24*%
X164600000Y-92200000D03*
%TD*%
D28*
%TO.C,SW1*%
X131600000Y-46900000D03*
X128200000Y-46900000D03*
X131600000Y-45400000D03*
X128200000Y-45400000D03*
%TD*%
D34*
%TO.C,R3*%
X147900000Y-72190000D03*
X147900000Y-73210000D03*
%TD*%
D60*
%TO.C,R39*%
X157818758Y-87130126D03*
X156798758Y-87130126D03*
%TD*%
D11*
%TO.C,TP8*%
X114000000Y-48800000D03*
%TD*%
D72*
%TO.C,CN1*%
X122000000Y-46200000D03*
D73*
X122000000Y-44200000D03*
X120000000Y-46200000D03*
X120000000Y-44200000D03*
X118000000Y-46200000D03*
X118000000Y-44200000D03*
X116000000Y-46200000D03*
X116000000Y-44200000D03*
X114000000Y-46200000D03*
X114000000Y-44200000D03*
X112000000Y-46200000D03*
X112000000Y-44200000D03*
X110000000Y-46200000D03*
X110000000Y-44200000D03*
X108000000Y-46200000D03*
X108000000Y-44200000D03*
%TD*%
D17*
%TO.C,R32*%
X173365000Y-123050000D03*
X171715000Y-123050000D03*
%TD*%
D13*
%TO.C,C52*%
X163120000Y-66550000D03*
X164080000Y-66550000D03*
%TD*%
D78*
%TO.C,C26*%
X149850000Y-117220001D03*
X151400000Y-117220001D03*
%TD*%
D37*
%TO.C,J6*%
X120775000Y-88615000D03*
X120775000Y-87345000D03*
X120775000Y-86075000D03*
X120775000Y-84805000D03*
X120775000Y-83535000D03*
X120775000Y-82265000D03*
X120775000Y-80995000D03*
X120775000Y-79725000D03*
X120775000Y-78455000D03*
X120775000Y-77185000D03*
D38*
X103625000Y-89670000D03*
X103625000Y-76130000D03*
%TD*%
D79*
%TO.C,J4*%
X150420000Y-50145000D03*
X149620000Y-50145000D03*
D80*
X148420000Y-50145000D03*
X147420000Y-50145000D03*
X146920000Y-50145000D03*
X145920000Y-50145000D03*
D79*
X144720000Y-50145000D03*
X143920000Y-50145000D03*
X143920000Y-50145000D03*
X144720000Y-50145000D03*
D80*
X145420000Y-50145000D03*
X146420000Y-50145000D03*
X147920000Y-50145000D03*
X148920000Y-50145000D03*
D79*
X149620000Y-50145000D03*
X150420000Y-50145000D03*
D81*
X151490000Y-49230000D03*
D82*
X151490000Y-45050000D03*
D81*
X142850000Y-49230000D03*
D82*
X142850000Y-45050000D03*
%TD*%
D13*
%TO.C,C61*%
X123520000Y-104799999D03*
X124480000Y-104799999D03*
%TD*%
D19*
%TO.C,C50*%
X162180000Y-66550000D03*
X161220000Y-66550000D03*
%TD*%
D46*
%TO.C,H3*%
X186750000Y-132250000D03*
%TD*%
D16*
%TO.C,R25*%
X149799999Y-118720000D03*
X151449999Y-118720000D03*
%TD*%
D45*
%TO.C,C1*%
X146845192Y-58953569D03*
X147805192Y-58953569D03*
%TD*%
D34*
%TO.C,R5*%
X144375192Y-55793569D03*
X144375192Y-56813569D03*
%TD*%
D11*
%TO.C,TP12*%
X153750000Y-103700000D03*
%TD*%
M02*
