%TF.GenerationSoftware,KiCad,Pcbnew,9.0.0*%
%TF.CreationDate,2025-04-17T09:53:27-07:00*%
%TF.ProjectId,EPS_Scales_RevC,4550535f-5363-4616-9c65-735f52657643,rev?*%
%TF.SameCoordinates,Original*%
%TF.FileFunction,Soldermask,Bot*%
%TF.FilePolarity,Negative*%
%FSLAX46Y46*%
G04 Gerber Fmt 4.6, Leading zero omitted, Abs format (unit mm)*
G04 Created by KiCad (PCBNEW 9.0.0) date 2025-04-17 09:53:27*
%MOMM*%
%LPD*%
G01*
G04 APERTURE LIST*
G04 Aperture macros list*
%AMRoundRect*
0 Rectangle with rounded corners*
0 $1 Rounding radius*
0 $2 $3 $4 $5 $6 $7 $8 $9 X,Y pos of 4 corners*
0 Add a 4 corners polygon primitive as box body*
4,1,4,$2,$3,$4,$5,$6,$7,$8,$9,$2,$3,0*
0 Add four circle primitives for the rounded corners*
1,1,$1+$1,$2,$3*
1,1,$1+$1,$4,$5*
1,1,$1+$1,$6,$7*
1,1,$1+$1,$8,$9*
0 Add four rect primitives between the rounded corners*
20,1,$1+$1,$2,$3,$4,$5,0*
20,1,$1+$1,$4,$5,$6,$7,0*
20,1,$1+$1,$6,$7,$8,$9,0*
20,1,$1+$1,$8,$9,$2,$3,0*%
G04 Aperture macros list end*
%ADD10C,0.800000*%
%ADD11C,5.400000*%
%ADD12R,1.700000X1.700000*%
%ADD13O,1.700000X1.700000*%
%ADD14R,0.900000X2.000000*%
%ADD15RoundRect,1.025000X-1.025000X-1.025000X1.025000X-1.025000X1.025000X1.025000X-1.025000X1.025000X0*%
%ADD16C,4.100000*%
G04 APERTURE END LIST*
D10*
%TO.C,J3*%
X129605000Y-74550000D03*
X130198109Y-73118109D03*
X130198109Y-75981891D03*
X131630000Y-72525000D03*
D11*
X131630000Y-74550000D03*
D10*
X131630000Y-76575000D03*
X133061891Y-73118109D03*
X133061891Y-75981891D03*
X133655000Y-74550000D03*
%TD*%
%TO.C,J5*%
X129605000Y-88450000D03*
X130198109Y-87018109D03*
X130198109Y-89881891D03*
X131630000Y-86425000D03*
D11*
X131630000Y-88450000D03*
D10*
X131630000Y-90475000D03*
X133061891Y-87018109D03*
X133061891Y-89881891D03*
X133655000Y-88450000D03*
%TD*%
D12*
%TO.C,J8*%
X183280000Y-66450000D03*
D13*
X183280000Y-68990000D03*
X183280000Y-71530000D03*
X183280000Y-74070000D03*
%TD*%
D12*
%TO.C,J16*%
X176710000Y-102820000D03*
D13*
X176710000Y-105360000D03*
X176710000Y-107900000D03*
X176710000Y-110440000D03*
%TD*%
D14*
%TO.C,J1*%
X137130000Y-74500000D03*
X150630000Y-74500000D03*
D15*
X147480000Y-80500000D03*
D16*
X140280000Y-80500000D03*
%TD*%
D12*
%TO.C,J12*%
X148120000Y-96250000D03*
D13*
X148120000Y-98790000D03*
X148120000Y-101330000D03*
X148120000Y-103870000D03*
%TD*%
D10*
%TO.C,J4*%
X129605000Y-81500000D03*
X130198109Y-80068109D03*
X130198109Y-82931891D03*
X131630000Y-79475000D03*
D11*
X131630000Y-81500000D03*
D10*
X131630000Y-83525000D03*
X133061891Y-80068109D03*
X133061891Y-82931891D03*
X133655000Y-81500000D03*
%TD*%
%TO.C,J2*%
X129605000Y-67600000D03*
X130198109Y-66168109D03*
X130198109Y-69031891D03*
X131630000Y-65575000D03*
D11*
X131630000Y-67600000D03*
D10*
X131630000Y-69625000D03*
X133061891Y-66168109D03*
X133061891Y-69031891D03*
X133655000Y-67600000D03*
%TD*%
M02*
