M48
; DRILL file {KiCad 9.0.1} date 2025-06-03T17:56:10-0700
; FORMAT={-:-/ absolute / inch / decimal}
; #@! TF.CreationDate,2025-06-03T17:56:10-07:00
; #@! TF.GenerationSoftware,Kicad,Pcbnew,9.0.1
; #@! TF.FileFunction,Plated,1,4,PTH
FMAT,2
INCH
; #@! TA.AperFunction,Plated,PTH,ViaDrill
T1C0.0079
; #@! TA.AperFunction,Plated,PTH,ViaDrill
T2C0.0098
; #@! TA.AperFunction,Plated,PTH,ViaDrill
T3C0.0118
; #@! TA.AperFunction,Plated,PTH,ViaDrill
T4C0.0157
; #@! TA.AperFunction,Plated,PTH,ComponentDrill
T5C0.0256
; #@! TA.AperFunction,Plated,PTH,ComponentDrill
T6C0.0315
; #@! TA.AperFunction,Plated,PTH,ComponentDrill
T7C0.0360
; #@! TA.AperFunction,Plated,PTH,ComponentDrill
T8C0.0472
; #@! TA.AperFunction,Plated,PTH,ComponentDrill
T9C0.0669
; #@! TA.AperFunction,Plated,PTH,ComponentDrill
T10C0.0984
; #@! TA.AperFunction,Plated,PTH,ComponentDrill
T11C0.1280
%
G90
G05
T1
X4.7441Y-3.0059
X4.7441Y-3.065
X4.7441Y-4.5
X4.7459Y-3.75
X4.7459Y-3.8091
X4.7461Y-4.5591
X4.776Y-3.311
X4.776Y-3.3386
X4.776Y-4.8051
X4.776Y-4.8327
X4.7776Y-4.0556
X4.7776Y-4.0832
X4.8002Y-3.1825
X4.8002Y-4.6766
X4.8018Y-3.9271
X5.3291Y-3.4637
X5.337Y-3.3358
X5.4315Y-2.3387
X5.4364Y-2.4421
X5.4423Y-2.5326
X5.4685Y-2.374
X5.4824Y-3.3246
X5.5023Y-3.4637
X5.5082Y-3.6048
X5.5152Y-2.385
X5.5339Y-2.5287
X5.5436Y-3.8781
X5.5437Y-2.3436
X5.5462Y-3.904
X5.5492Y-3.9606
X5.5668Y-3.5728
X5.5942Y-3.6003
X5.5949Y-3.9621
X5.6185Y-2.4716
X5.6216Y-3.7422
X5.6229Y-3.9621
X5.623Y-3.802
X5.6444Y-2.7298
X5.6461Y-3.8358
X5.6476Y-2.7933
X5.6644Y-3.8541
X5.6693Y-3.4969
X5.6697Y-4.007
X5.6787Y-3.6851
X5.6795Y-3.5208
X5.6874Y-3.885
X5.6913Y-4.0307
X5.6996Y-3.6642
X5.7077Y-3.9012
X5.7175Y-2.5029
X5.7189Y-2.5976
X5.7228Y-3.4145
X5.7246Y-4.1389
X5.7247Y-3.9209
X5.7386Y-1.8889
X5.7392Y-3.9424
X5.7451Y-2.7913
X5.7526Y-4.1389
X5.7642Y-2.4047
X5.7681Y-3.9401
X5.77Y-3.5868
X5.779Y-2.7704
X5.7854Y-3.6358
X5.7893Y-3.9551
X5.7959Y-3.5849
X5.8023Y-2.7818
X5.8082Y-3.5501
X5.8144Y-2.7198
X5.8173Y-2.4873
X5.8189Y-2.8228
X5.8277Y-3.9899
X5.8286Y-1.8784
X5.8459Y-1.9066
X5.8459Y-2.6763
X5.8508Y-3.9716
X5.8606Y-3.2511
X5.8685Y-3.9519
X5.8903Y-3.9217
X5.8917Y-3.0925
X5.9099Y-2.4047
X5.9197Y-2.4864
X5.9337Y-2.4645
X5.9453Y-2.3358
X5.9599Y-3.8577
X5.966Y-2.6419
X5.9696Y-3.7004
X5.9989Y-4.2142
X6.0009Y-4.1217
X6.0024Y-3.9972
X6.0161Y-3.9736
X6.0398Y-1.7098
X6.0428Y-4.0277
X6.0437Y-4.0838
X6.0732Y-2.5208
X6.0831Y-3.9066
X6.0969Y-2.8003
X6.1087Y-3.9854
X6.15Y-2.6527
X6.1697Y-3.6153
X6.2602Y-3.8023
X6.4079Y-2.7098
X6.5398Y-3.7846
X6.6463Y-3.5513
X6.6634Y-2.2382
X6.6992Y-3.5653
X6.709Y-3.6446
X6.711Y-3.8043
X6.7577Y-2.6882
X6.7652Y-4.4607
X6.7782Y-3.714
X6.7819Y-2.5321
X6.7819Y-2.5597
X6.7894Y-4.3046
X6.7894Y-4.3322
X6.7937Y-3.7885
X6.8055Y-3.6881
X6.8106Y-3.6571
X6.8209Y-4.6378
X6.8228Y-4.5787
X6.8356Y-3.2228
X6.9651Y-3.1045
X6.9665Y-3.6822
X7.0138Y-3.6265
X7.1099Y-3.3467
X7.1447Y-3.3843
X7.1933Y-3.6429
X7.2347Y-3.2944
X7.2379Y-3.7003
X7.3843Y-3.4519
X7.4059Y-3.5425
T2
X4.435Y-2.5157
X4.6634Y-2.5689
X4.6673Y-2.4685
X5.3238Y-2.1005
X5.6447Y-2.1675
X5.7552Y-2.303
X5.7608Y-1.9332
X5.7963Y-1.9667
X5.8455Y-2.3072
X5.8632Y-2.3525
T3
X4.8789Y-1.9627
X4.9951Y-2.2088
X5.3016Y-3.7118
X5.3553Y-1.8702
X5.3646Y-3.7649
X5.437Y-3.8839
X5.4419Y-1.8702
X5.4603Y-3.4934
X5.463Y-2.5661
X5.4819Y-2.5913
X5.4933Y-2.6207
X5.4992Y-2.6516
X5.5417Y-3.1842
X5.5437Y-2.6507
X5.5693Y-4.0621
X5.5929Y-2.696
X5.6063Y-2.8338
X5.6382Y-2.5976
X5.6481Y-2.6907
X5.7071Y-2.4007
X5.7232Y-2.6976
X5.8272Y-2.3994
X5.8882Y-2.7216
X5.9059Y-2.5897
X6.0929Y-3.5562
X6.1407Y-1.8279
X6.182Y-2.324
X6.2307Y-2.2255
X6.398Y-2.2137
X6.6103Y-3.3767
X6.6103Y-3.4086
X6.6303Y-1.7756
X6.6712Y-3.3409
X6.6937Y-3.3184
X6.7169Y-1.7776
X6.7602Y-1.7726
X6.8022Y-1.7726
X7.0364Y-3.3246
T4
X6.5768Y-2.3091
T6
X3.9134Y-2.1378
X3.9134Y-2.2165
X3.9134Y-2.2953
X3.9134Y-2.374
X3.9134Y-2.4528
X3.9134Y-2.5315
X3.9134Y-2.6102
X3.9134Y-2.689
X3.9921Y-2.1378
X3.9921Y-2.2165
X3.9921Y-2.2953
X3.9921Y-2.374
X3.9921Y-2.4528
X3.9921Y-2.5315
X3.9921Y-2.6102
X3.9921Y-2.689
T7
X4.0594Y-2.9398
X4.0594Y-3.3382
X4.0594Y-4.4339
X4.0594Y-4.8323
X4.061Y-3.6844
X4.061Y-4.0828
X4.1193Y-3.0398
X4.1193Y-3.4382
X4.1193Y-4.5339
X4.1193Y-4.9323
X4.1209Y-3.7844
X4.1209Y-4.1828
X4.5024Y-3.0138
X4.5024Y-3.1142
X4.5024Y-3.2138
X4.5024Y-3.3138
X4.5024Y-4.5079
X4.5024Y-4.6083
X4.5024Y-4.7079
X4.5024Y-4.8079
X4.5039Y-3.7584
X4.5039Y-3.8588
X4.5039Y-3.9584
X4.5039Y-4.0584
X4.6024Y-3.0638
X4.6024Y-3.1642
X4.6024Y-3.2638
X4.6024Y-3.3638
X4.6024Y-4.5579
X4.6024Y-4.6583
X4.6024Y-4.7579
X4.6024Y-4.8579
X4.6039Y-3.8084
X4.6039Y-3.9088
X4.6039Y-4.0084
X4.6039Y-4.1084
X6.9555Y-2.5069
X6.9555Y-2.6069
X6.9555Y-2.7065
X6.9555Y-2.8069
X6.963Y-4.2794
X6.963Y-4.3794
X6.963Y-4.479
X6.963Y-4.5794
X7.0555Y-2.5569
X7.0555Y-2.6569
X7.0555Y-2.7565
X7.0555Y-2.8569
X7.063Y-4.3294
X7.063Y-4.4294
X7.063Y-4.529
X7.063Y-4.6294
X7.4386Y-2.4325
X7.4386Y-2.8309
X7.4461Y-4.205
X7.4461Y-4.6034
X7.4984Y-2.5325
X7.4984Y-2.9309
X7.5059Y-4.305
X7.5059Y-4.7034
T8
X4.7441Y-2.1693
X4.7441Y-2.2693
X4.7441Y-2.3693
X4.7441Y-2.4693
X4.7441Y-2.5693
X4.7441Y-2.6693
T9
X4.3724Y-2.8831
X4.3724Y-3.4949
X4.3724Y-4.3772
X4.3724Y-4.989
X4.374Y-3.6277
X4.374Y-4.2395
X7.1854Y-2.3758
X7.1854Y-2.9876
X7.1929Y-4.1483
X7.1929Y-4.7601
T10
X4.2022Y-5.2078
X4.2032Y-2.0592
X7.3518Y-2.0582
X7.3528Y-5.2078
T11
X4.2524Y-2.9638
X4.2524Y-3.4142
X4.2524Y-4.4579
X4.2524Y-4.9083
X4.2539Y-3.7084
X4.2539Y-4.1588
X7.3055Y-2.4565
X7.3055Y-2.9069
X7.313Y-4.229
X7.313Y-4.6794
T5
G00X5.6349Y-1.7137
M15
G01X5.6349Y-1.7433
M16
G05
G00X5.9459Y-1.7137
M15
G01X5.9459Y-1.7433
M16
G05
M30
