%TF.GenerationSoftware,KiCad,Pcbnew,9.0.3*%
%TF.CreationDate,2026-03-24T12:20:50-07:00*%
%TF.ProjectId,imx8x_eps_leviathan,696d7838-785f-4657-9073-5f6c65766961,rev?*%
%TF.SameCoordinates,Original*%
%TF.FileFunction,Soldermask,Top*%
%TF.FilePolarity,Negative*%
%FSLAX46Y46*%
G04 Gerber Fmt 4.6, Leading zero omitted, Abs format (unit mm)*
G04 Created by KiCad (PCBNEW 9.0.3) date 2026-03-24 12:20:50*
%MOMM*%
%LPD*%
G01*
G04 APERTURE LIST*
G04 Aperture macros list*
%AMRoundRect*
0 Rectangle with rounded corners*
0 $1 Rounding radius*
0 $2 $3 $4 $5 $6 $7 $8 $9 X,Y pos of 4 corners*
0 Add a 4 corners polygon primitive as box body*
4,1,4,$2,$3,$4,$5,$6,$7,$8,$9,$2,$3,0*
0 Add four circle primitives for the rounded corners*
1,1,$1+$1,$2,$3*
1,1,$1+$1,$4,$5*
1,1,$1+$1,$6,$7*
1,1,$1+$1,$8,$9*
0 Add four rect primitives between the rounded corners*
20,1,$1+$1,$2,$3,$4,$5,0*
20,1,$1+$1,$4,$5,$6,$7,0*
20,1,$1+$1,$6,$7,$8,$9,0*
20,1,$1+$1,$8,$9,$2,$3,0*%
G04 Aperture macros list end*
%ADD10O,0.360000X1.740000*%
%ADD11R,0.540000X0.570000*%
%ADD12R,0.790000X0.540000*%
%ADD13C,4.700000*%
%ADD14R,0.540000X0.790000*%
%ADD15RoundRect,0.250000X-1.100000X0.325000X-1.100000X-0.325000X1.100000X-0.325000X1.100000X0.325000X0*%
%ADD16RoundRect,0.135000X-0.185000X0.135000X-0.185000X-0.135000X0.185000X-0.135000X0.185000X0.135000X0*%
%ADD17RoundRect,0.135000X0.185000X-0.135000X0.185000X0.135000X-0.185000X0.135000X-0.185000X-0.135000X0*%
%ADD18O,1.300000X2.200000*%
%ADD19C,3.800000*%
%ADD20O,0.340000X1.750000*%
%ADD21R,2.900000X2.500000*%
%ADD22R,1.100000X1.000000*%
%ADD23R,0.700000X2.000000*%
%ADD24C,1.000000*%
%ADD25RoundRect,0.200000X-0.275000X0.200000X-0.275000X-0.200000X0.275000X-0.200000X0.275000X0.200000X0*%
%ADD26R,0.570000X0.540000*%
%ADD27RoundRect,0.102000X0.152500X0.725000X-0.152500X0.725000X-0.152500X-0.725000X0.152500X-0.725000X0*%
%ADD28R,1.400000X0.410000*%
%ADD29R,2.900000X5.400000*%
%ADD30R,2.590000X2.190000*%
%ADD31R,0.580000X0.280000*%
%ADD32R,1.700000X4.750000*%
%ADD33R,0.280000X0.580000*%
%ADD34R,1.400000X1.400000*%
%ADD35C,1.400000*%
%ADD36R,0.420000X0.600000*%
%ADD37RoundRect,0.200000X0.200000X0.275000X-0.200000X0.275000X-0.200000X-0.275000X0.200000X-0.275000X0*%
%ADD38RoundRect,0.200000X0.275000X-0.200000X0.275000X0.200000X-0.275000X0.200000X-0.275000X-0.200000X0*%
%ADD39R,1.000000X1.000000*%
%ADD40C,0.200000*%
%ADD41RoundRect,0.225000X-0.250000X0.225000X-0.250000X-0.225000X0.250000X-0.225000X0.250000X0.225000X0*%
%ADD42R,0.400000X1.350000*%
%ADD43O,1.000000X1.550000*%
%ADD44O,1.250000X0.950000*%
%ADD45RoundRect,0.225000X0.225000X0.250000X-0.225000X0.250000X-0.225000X-0.250000X0.225000X-0.250000X0*%
%ADD46R,0.360000X1.560000*%
%ADD47R,3.020000X7.500000*%
%ADD48O,0.380000X1.450000*%
%ADD49R,1.270000X0.760000*%
%ADD50R,3.800000X4.800000*%
%ADD51C,3.250000*%
%ADD52C,1.520000*%
%ADD53C,2.500000*%
%ADD54RoundRect,0.200000X-0.200000X-0.275000X0.200000X-0.275000X0.200000X0.275000X-0.200000X0.275000X0*%
G04 APERTURE END LIST*
D10*
%TO.C,U24*%
X111770000Y-48320000D03*
X112420000Y-48320000D03*
X113070000Y-48320000D03*
X113720000Y-48320000D03*
X114380000Y-48320000D03*
X115030000Y-48320000D03*
X115680000Y-48320000D03*
X116330000Y-48320000D03*
X116980000Y-48320000D03*
X117630000Y-48320000D03*
X117630000Y-42580000D03*
X116980000Y-42580000D03*
X116330000Y-42580000D03*
X115680000Y-42580000D03*
X115030000Y-42580000D03*
X114380000Y-42580000D03*
X113720000Y-42580000D03*
X113070000Y-42580000D03*
X112420000Y-42580000D03*
X111770000Y-42580000D03*
%TD*%
D11*
%TO.C,R97*%
X173104000Y-133194000D03*
X173104000Y-132334000D03*
%TD*%
%TO.C,R100*%
X170504000Y-130764000D03*
X170504000Y-129904000D03*
%TD*%
D12*
%TO.C,C67*%
X125825000Y-91013400D03*
X126925000Y-91013400D03*
%TD*%
D13*
%TO.C,J3*%
X107661732Y-44958933D03*
%TD*%
D14*
%TO.C,C11*%
X187015200Y-70043000D03*
X187015200Y-68943000D03*
%TD*%
D15*
%TO.C,C4*%
X169001400Y-54327699D03*
X169001400Y-57277699D03*
%TD*%
D16*
%TO.C,R206*%
X130736400Y-68828000D03*
X130736400Y-69848000D03*
%TD*%
D17*
%TO.C,R194*%
X175144000Y-131244000D03*
X175144000Y-130224000D03*
%TD*%
D18*
%TO.C,U1*%
X168675000Y-45125000D03*
X182175000Y-45125000D03*
D19*
X171825000Y-51125000D03*
X179025000Y-51125000D03*
%TD*%
D14*
%TO.C,C41*%
X162291252Y-88932048D03*
X162291252Y-87832048D03*
%TD*%
D11*
%TO.C,R21*%
X191025800Y-119242600D03*
X191025800Y-120102600D03*
%TD*%
D20*
%TO.C,U5*%
X192778500Y-69633000D03*
X192128500Y-69633000D03*
X191478500Y-69633000D03*
X190818500Y-69633000D03*
X190168500Y-69633000D03*
X189518500Y-69633000D03*
X188868500Y-69633000D03*
X188218500Y-69633000D03*
X189518500Y-75373000D03*
X188868500Y-75373000D03*
X188218500Y-75373000D03*
X190168500Y-75373000D03*
X190818500Y-75373000D03*
X191478500Y-75373000D03*
X192128500Y-75373000D03*
X192778500Y-75373000D03*
D21*
X190498500Y-72503000D03*
%TD*%
D22*
%TO.C,SW2*%
X113650000Y-133325400D03*
X113650000Y-128725400D03*
X115250000Y-133325400D03*
X115250000Y-128725400D03*
D23*
X112930000Y-131025400D03*
%TD*%
D24*
%TO.C,TP14*%
X192702200Y-117285000D03*
%TD*%
D11*
%TO.C,R92*%
X177274000Y-131051382D03*
X177274000Y-130191382D03*
%TD*%
D25*
%TO.C,R156*%
X104604600Y-84212800D03*
X104604600Y-85862800D03*
%TD*%
D26*
%TO.C,R17*%
X188997400Y-107582200D03*
X189857400Y-107582200D03*
%TD*%
D24*
%TO.C,TP31*%
X186221252Y-85462048D03*
%TD*%
D12*
%TO.C,C23*%
X184278200Y-117691400D03*
X185378200Y-117691400D03*
%TD*%
%TO.C,C76*%
X125825000Y-96213400D03*
X126925000Y-96213400D03*
%TD*%
D16*
%TO.C,R190*%
X139423200Y-99255200D03*
X139423200Y-100275200D03*
%TD*%
D27*
%TO.C,J10*%
X149176800Y-71374000D03*
X149176800Y-77546000D03*
X148676800Y-71374000D03*
X148676800Y-77546000D03*
X148176800Y-71374000D03*
X148176800Y-77546000D03*
X147676800Y-71374000D03*
X147676800Y-77546000D03*
X147176800Y-71374000D03*
X147176800Y-77546000D03*
X146676800Y-71374000D03*
X146676800Y-77546000D03*
X146176800Y-71374000D03*
X146176800Y-77546000D03*
X145676800Y-71374000D03*
X145676800Y-77546000D03*
X145176800Y-71374000D03*
X145176800Y-77546000D03*
X144676800Y-71374000D03*
X144676800Y-77546000D03*
X144176800Y-71374000D03*
X144176800Y-77546000D03*
X143676800Y-71374000D03*
X143676800Y-77546000D03*
X143176800Y-71374000D03*
X143176800Y-77546000D03*
X142676800Y-71374000D03*
X142676800Y-77546000D03*
X142176800Y-71374000D03*
X142176800Y-77546000D03*
X141676800Y-71374000D03*
X141676800Y-77546000D03*
X141176800Y-71374000D03*
X141176800Y-77546000D03*
X140676800Y-71374000D03*
X140676800Y-77546000D03*
X140176800Y-71374000D03*
X140176800Y-77546000D03*
X139676800Y-71374000D03*
X139676800Y-77546000D03*
X139176800Y-71374000D03*
X139176800Y-77546000D03*
X138676800Y-71374000D03*
X138676800Y-77546000D03*
X138176800Y-71374000D03*
X138176800Y-77546000D03*
X137676800Y-71374000D03*
X137676800Y-77546000D03*
X137176800Y-71374000D03*
X137176800Y-77546000D03*
X136676800Y-71374000D03*
X136676800Y-77546000D03*
X136176800Y-71374000D03*
X136176800Y-77546000D03*
X135676800Y-71374000D03*
X135676800Y-77546000D03*
X135176800Y-71374000D03*
X135176800Y-77546000D03*
X134676800Y-71374000D03*
X134676800Y-77546000D03*
X134176800Y-71374000D03*
X134176800Y-77546000D03*
X133676800Y-71374000D03*
X133676800Y-77546000D03*
X133176800Y-71374000D03*
X133176800Y-77546000D03*
X132676800Y-71374000D03*
X132676800Y-77546000D03*
X132176800Y-71374000D03*
X132176800Y-77546000D03*
X131676800Y-71374000D03*
X131676800Y-77546000D03*
X131176800Y-71374000D03*
X131176800Y-77546000D03*
X130676800Y-71374000D03*
X130676800Y-77546000D03*
X130176800Y-71374000D03*
X130176800Y-77546000D03*
X129676800Y-71374000D03*
X129676800Y-77546000D03*
X129176800Y-71374000D03*
X129176800Y-77546000D03*
X128676800Y-71374000D03*
X128676800Y-77546000D03*
X128176800Y-71374000D03*
X128176800Y-77546000D03*
X127676800Y-71374000D03*
X127676800Y-77546000D03*
X127176800Y-71374000D03*
X127176800Y-77546000D03*
X126676800Y-71374000D03*
X126676800Y-77546000D03*
X126176800Y-71374000D03*
X126176800Y-77546000D03*
X125676800Y-71374000D03*
X125676800Y-77546000D03*
X125176800Y-71374000D03*
X125176800Y-77546000D03*
X124676800Y-71374000D03*
X124676800Y-77546000D03*
X124176800Y-71374000D03*
X124176800Y-77546000D03*
X123676800Y-71374000D03*
X123676800Y-77546000D03*
X123176800Y-71374000D03*
X123176800Y-77546000D03*
X122676800Y-71374000D03*
X122676800Y-77546000D03*
X122176800Y-71374000D03*
X122176800Y-77546000D03*
X121676800Y-71374000D03*
X121676800Y-77546000D03*
X121176800Y-71374000D03*
X121176800Y-77546000D03*
X120676800Y-71374000D03*
X120676800Y-77546000D03*
X120176800Y-71374000D03*
X120176800Y-77546000D03*
X119676800Y-71374000D03*
X119676800Y-77546000D03*
X119176800Y-71374000D03*
X119176800Y-77546000D03*
X118676800Y-71374000D03*
X118676800Y-77546000D03*
X118176800Y-71374000D03*
X118176800Y-77546000D03*
X117676800Y-71374000D03*
X117676800Y-77546000D03*
X117176800Y-71374000D03*
X117176800Y-77546000D03*
X116676800Y-71374000D03*
X116676800Y-77546000D03*
X116176800Y-71374000D03*
X116176800Y-77546000D03*
X115676800Y-71374000D03*
X115676800Y-77546000D03*
X115176800Y-71374000D03*
X115176800Y-77546000D03*
X114676800Y-71374000D03*
X114676800Y-77546000D03*
%TD*%
D28*
%TO.C,U4*%
X179571252Y-83982048D03*
X179571252Y-84632048D03*
X179571252Y-85292048D03*
X179571252Y-85942048D03*
X184171252Y-85942048D03*
X184171252Y-85292048D03*
X184171252Y-84632048D03*
X184171252Y-83982048D03*
%TD*%
D11*
%TO.C,R94*%
X180600000Y-124680000D03*
X180600000Y-123820000D03*
%TD*%
D14*
%TO.C,C87*%
X112550000Y-126200000D03*
X112550000Y-127300000D03*
%TD*%
D11*
%TO.C,R109*%
X122875000Y-92505000D03*
X122875000Y-91645000D03*
%TD*%
D12*
%TO.C,C36*%
X179471252Y-92812048D03*
X180571252Y-92812048D03*
%TD*%
%TO.C,C31*%
X160333800Y-109157000D03*
X159233800Y-109157000D03*
%TD*%
D29*
%TO.C,L2*%
X178275000Y-107125000D03*
X168375000Y-107125000D03*
%TD*%
D30*
%TO.C,C37*%
X176150000Y-92335000D03*
X176150000Y-99215000D03*
%TD*%
D31*
%TO.C,U10*%
X183063400Y-117079000D03*
X183063400Y-116579000D03*
X183063400Y-116079000D03*
X183063400Y-115579000D03*
X183063400Y-115079000D03*
X183063400Y-114579000D03*
X183063400Y-114079000D03*
X183063400Y-113579000D03*
X183063400Y-113079000D03*
X183063400Y-112579000D03*
D32*
X181643400Y-114829000D03*
D33*
X180893400Y-111909000D03*
X181393400Y-111909000D03*
X181893400Y-111909000D03*
X182393400Y-111909000D03*
D31*
X180223400Y-114579000D03*
X180223400Y-114079000D03*
X180223400Y-113579000D03*
X180223400Y-113079000D03*
X180223400Y-112579000D03*
X180223400Y-115079000D03*
X180223400Y-115579000D03*
X180223400Y-116079000D03*
X180223400Y-116579000D03*
X180223400Y-117079000D03*
D33*
X180893400Y-117749000D03*
X181393400Y-117749000D03*
X181893400Y-117749000D03*
X182393400Y-117749000D03*
%TD*%
D14*
%TO.C,C18*%
X161048500Y-70053000D03*
X161048500Y-71153000D03*
%TD*%
D34*
%TO.C,J5*%
X164400000Y-39100000D03*
D35*
X164400000Y-37100000D03*
X162400000Y-39100000D03*
X162400000Y-37100000D03*
X160400000Y-39100000D03*
X160400000Y-37100000D03*
X158400000Y-39100000D03*
X158400000Y-37100000D03*
X156400000Y-39100000D03*
X156400000Y-37100000D03*
X154400000Y-39100000D03*
X154400000Y-37100000D03*
X152400000Y-39100000D03*
X152400000Y-37100000D03*
X150400000Y-39100000D03*
X150400000Y-37100000D03*
%TD*%
D11*
%TO.C,R95*%
X170504000Y-133164000D03*
X170504000Y-132304000D03*
%TD*%
D17*
%TO.C,R208*%
X128196400Y-80058800D03*
X128196400Y-79038800D03*
%TD*%
D12*
%TO.C,C24*%
X179028200Y-114237000D03*
X177928200Y-114237000D03*
%TD*%
D17*
%TO.C,R197*%
X136730800Y-110488000D03*
X136730800Y-109468000D03*
%TD*%
D11*
%TO.C,R91*%
X175204000Y-133194000D03*
X175204000Y-132334000D03*
%TD*%
D12*
%TO.C,C25*%
X177937000Y-117539000D03*
X179037000Y-117539000D03*
%TD*%
D14*
%TO.C,C22*%
X185475000Y-112675000D03*
X185475000Y-111575000D03*
%TD*%
D36*
%TO.C,U22*%
X117050000Y-99900000D03*
X117700000Y-99900000D03*
X118350000Y-99900000D03*
X118350000Y-98000000D03*
X117700000Y-98000000D03*
X117050000Y-98000000D03*
%TD*%
D12*
%TO.C,C74*%
X120325000Y-93925000D03*
X121425000Y-93925000D03*
%TD*%
D37*
%TO.C,R35*%
X165686503Y-76754647D03*
X164036503Y-76754647D03*
%TD*%
D26*
%TO.C,R144*%
X113765000Y-96875000D03*
X112905000Y-96875000D03*
%TD*%
D16*
%TO.C,R191*%
X138407200Y-99255200D03*
X138407200Y-100275200D03*
%TD*%
D30*
%TO.C,C16*%
X171048500Y-71913000D03*
X171048500Y-78793000D03*
%TD*%
D11*
%TO.C,R37*%
X190021252Y-85872048D03*
X190021252Y-85012048D03*
%TD*%
D16*
%TO.C,R204*%
X136172000Y-68828000D03*
X136172000Y-69848000D03*
%TD*%
D17*
%TO.C,R196*%
X138254800Y-110488000D03*
X138254800Y-109468000D03*
%TD*%
D26*
%TO.C,R143*%
X117355000Y-96875000D03*
X116495000Y-96875000D03*
%TD*%
D11*
%TO.C,R89*%
X167825000Y-131595000D03*
X167825000Y-132455000D03*
%TD*%
D12*
%TO.C,C66*%
X120325000Y-90036600D03*
X121425000Y-90036600D03*
%TD*%
D24*
%TO.C,TP11*%
X186558653Y-76566247D03*
%TD*%
D11*
%TO.C,R26*%
X184218600Y-114291400D03*
X184218600Y-115151400D03*
%TD*%
D38*
%TO.C,R154*%
X106200800Y-95260800D03*
X106200800Y-93610800D03*
%TD*%
D13*
%TO.C,J1*%
X187678932Y-124925933D03*
%TD*%
D26*
%TO.C,R13*%
X179938500Y-73803000D03*
X180798500Y-73803000D03*
%TD*%
%TO.C,R46*%
X185641252Y-92012048D03*
X186501252Y-92012048D03*
%TD*%
D20*
%TO.C,U8*%
X191172200Y-111773400D03*
X190522200Y-111773400D03*
X189872200Y-111773400D03*
X189212200Y-111773400D03*
X188562200Y-111773400D03*
X187912200Y-111773400D03*
X187262200Y-111773400D03*
X186612200Y-111773400D03*
X187912200Y-117513400D03*
X187262200Y-117513400D03*
X186612200Y-117513400D03*
X188562200Y-117513400D03*
X189212200Y-117513400D03*
X189872200Y-117513400D03*
X190522200Y-117513400D03*
X191172200Y-117513400D03*
D21*
X188892200Y-114643400D03*
%TD*%
D11*
%TO.C,R84*%
X131150000Y-109860000D03*
X131150000Y-110720000D03*
%TD*%
D24*
%TO.C,TP33*%
X184571252Y-94962048D03*
%TD*%
D39*
%TO.C,TP47*%
X117122000Y-69287200D03*
%TD*%
D17*
%TO.C,R209*%
X126215200Y-80056800D03*
X126215200Y-79036800D03*
%TD*%
D15*
%TO.C,C5*%
X175914800Y-54300000D03*
X175914800Y-57250000D03*
%TD*%
D40*
%TO.C,U18*%
X169254000Y-129834000D03*
X168754000Y-129834000D03*
X168254000Y-129834000D03*
X169254000Y-129334000D03*
X168754000Y-129334000D03*
X168254000Y-129334000D03*
%TD*%
D14*
%TO.C,C19*%
X167798500Y-72603000D03*
X167798500Y-73703000D03*
%TD*%
D24*
%TO.C,TP24*%
X194171252Y-92762048D03*
%TD*%
%TO.C,TP34*%
X165971252Y-92462048D03*
%TD*%
D15*
%TO.C,C1*%
X172451400Y-54332699D03*
X172451400Y-57282699D03*
%TD*%
D41*
%TO.C,C123*%
X112956400Y-79383400D03*
X112956400Y-80933400D03*
%TD*%
D11*
%TO.C,R93*%
X178554000Y-131034000D03*
X178554000Y-130174000D03*
%TD*%
%TO.C,R90*%
X169104000Y-132304000D03*
X169104000Y-133164000D03*
%TD*%
%TO.C,R7*%
X192587300Y-76948200D03*
X192587300Y-77808200D03*
%TD*%
D16*
%TO.C,R202*%
X141658400Y-68830000D03*
X141658400Y-69850000D03*
%TD*%
D11*
%TO.C,R85*%
X157560000Y-123520000D03*
X157560000Y-124380000D03*
%TD*%
%TO.C,R39*%
X191321252Y-85032048D03*
X191321252Y-85892048D03*
%TD*%
D12*
%TO.C,C73*%
X125825000Y-93613400D03*
X126925000Y-93613400D03*
%TD*%
D26*
%TO.C,R1*%
X190762100Y-65416600D03*
X191622100Y-65416600D03*
%TD*%
D11*
%TO.C,R9*%
X191295700Y-76961800D03*
X191295700Y-77821800D03*
%TD*%
D14*
%TO.C,C28*%
X167020703Y-79979447D03*
X167020703Y-81079447D03*
%TD*%
D26*
%TO.C,R18*%
X190771800Y-110122200D03*
X189911800Y-110122200D03*
%TD*%
D16*
%TO.C,R193*%
X136375200Y-99255200D03*
X136375200Y-100275200D03*
%TD*%
D42*
%TO.C,USB1*%
X159975000Y-128525000D03*
X160625000Y-128525000D03*
X161275000Y-128525000D03*
X161925000Y-128525000D03*
X162575000Y-128525000D03*
D43*
X157775000Y-131225000D03*
D44*
X158775000Y-128525000D03*
X163775000Y-128525000D03*
D43*
X164775000Y-131225000D03*
%TD*%
D24*
%TO.C,TP1*%
X187965200Y-67193000D03*
%TD*%
D11*
%TO.C,R98*%
X177304000Y-133134000D03*
X177304000Y-132274000D03*
%TD*%
D12*
%TO.C,C77*%
X125850000Y-89650000D03*
X126950000Y-89650000D03*
%TD*%
D38*
%TO.C,R213*%
X104626000Y-95260800D03*
X104626000Y-93610800D03*
%TD*%
D45*
%TO.C,C122*%
X110721200Y-79345600D03*
X109171200Y-79345600D03*
%TD*%
D15*
%TO.C,C7*%
X160850000Y-42375000D03*
X160850000Y-45325000D03*
%TD*%
D39*
%TO.C,TP17*%
X114988400Y-69287200D03*
%TD*%
D11*
%TO.C,R158*%
X105350000Y-104990000D03*
X105350000Y-105850000D03*
%TD*%
%TO.C,R99*%
X178604000Y-133144000D03*
X178604000Y-132284000D03*
%TD*%
D17*
%TO.C,R210*%
X133682800Y-80060800D03*
X133682800Y-79040800D03*
%TD*%
D12*
%TO.C,C40*%
X164081252Y-92082048D03*
X162981252Y-92082048D03*
%TD*%
D26*
%TO.C,R12*%
X185775300Y-73529400D03*
X186635300Y-73529400D03*
%TD*%
D11*
%TO.C,R88*%
X127250000Y-110680000D03*
X127250000Y-109820000D03*
%TD*%
D46*
%TO.C,U7*%
X166748500Y-67203000D03*
X166098500Y-67203000D03*
X165448500Y-67203000D03*
X164798500Y-67203000D03*
X164138500Y-67203000D03*
X163488500Y-72763000D03*
X163488500Y-67203000D03*
X162838500Y-67203000D03*
X162188500Y-67203000D03*
X162188500Y-72763000D03*
X162838500Y-72763000D03*
X164138500Y-72763000D03*
X164798500Y-72763000D03*
X166748500Y-72763000D03*
X166098500Y-72763000D03*
X165448500Y-72763000D03*
%TD*%
D12*
%TO.C,C70*%
X125825000Y-92313400D03*
X126925000Y-92313400D03*
%TD*%
D26*
%TO.C,R14*%
X182968500Y-75703000D03*
X183828500Y-75703000D03*
%TD*%
D47*
%TO.C,L3*%
X176951252Y-86715048D03*
X170291252Y-86715048D03*
%TD*%
D26*
%TO.C,R19*%
X187829000Y-110122200D03*
X188689000Y-110122200D03*
%TD*%
D13*
%TO.C,J4*%
X187661732Y-44958933D03*
%TD*%
D17*
%TO.C,R198*%
X145519200Y-110490000D03*
X145519200Y-109470000D03*
%TD*%
D41*
%TO.C,C120*%
X114531200Y-79383400D03*
X114531200Y-80933400D03*
%TD*%
D25*
%TO.C,R214*%
X106200800Y-84212800D03*
X106200800Y-85862800D03*
%TD*%
D17*
%TO.C,R201*%
X142471200Y-110488000D03*
X142471200Y-109468000D03*
%TD*%
D16*
%TO.C,R195*%
X135359200Y-99259200D03*
X135359200Y-100279200D03*
%TD*%
D11*
%TO.C,R96*%
X171804000Y-133184000D03*
X171804000Y-132324000D03*
%TD*%
D27*
%TO.C,J9*%
X144716800Y-101814000D03*
X144716800Y-107986000D03*
X144216800Y-101814000D03*
X144216800Y-107986000D03*
X143716800Y-101814000D03*
X143716800Y-107986000D03*
X143216800Y-101814000D03*
X143216800Y-107986000D03*
X142716800Y-101814000D03*
X142716800Y-107986000D03*
X142216800Y-101814000D03*
X142216800Y-107986000D03*
X141716800Y-101814000D03*
X141716800Y-107986000D03*
X141216800Y-101814000D03*
X141216800Y-107986000D03*
X140716800Y-101814000D03*
X140716800Y-107986000D03*
X140216800Y-101814000D03*
X140216800Y-107986000D03*
X139716800Y-101814000D03*
X139716800Y-107986000D03*
X139216800Y-101814000D03*
X139216800Y-107986000D03*
X138716800Y-101814000D03*
X138716800Y-107986000D03*
X138216800Y-101814000D03*
X138216800Y-107986000D03*
X137716800Y-101814000D03*
X137716800Y-107986000D03*
X137216800Y-101814000D03*
X137216800Y-107986000D03*
X136716800Y-101814000D03*
X136716800Y-107986000D03*
X136216800Y-101814000D03*
X136216800Y-107986000D03*
X135716800Y-101814000D03*
X135716800Y-107986000D03*
X135216800Y-101814000D03*
X135216800Y-107986000D03*
X134716800Y-101814000D03*
X134716800Y-107986000D03*
X134216800Y-101814000D03*
X134216800Y-107986000D03*
X133716800Y-101814000D03*
X133716800Y-107986000D03*
X133216800Y-101814000D03*
X133216800Y-107986000D03*
X132716800Y-101814000D03*
X132716800Y-107986000D03*
X132216800Y-101814000D03*
X132216800Y-107986000D03*
X131716800Y-101814000D03*
X131716800Y-107986000D03*
X131216800Y-101814000D03*
X131216800Y-107986000D03*
X130716800Y-101814000D03*
X130716800Y-107986000D03*
X130216800Y-101814000D03*
X130216800Y-107986000D03*
X129716800Y-101814000D03*
X129716800Y-107986000D03*
X129216800Y-101814000D03*
X129216800Y-107986000D03*
X128716800Y-101814000D03*
X128716800Y-107986000D03*
X128216800Y-101814000D03*
X128216800Y-107986000D03*
X127716800Y-101814000D03*
X127716800Y-107986000D03*
X127216800Y-101814000D03*
X127216800Y-107986000D03*
X126716800Y-101814000D03*
X126716800Y-107986000D03*
X126216800Y-101814000D03*
X126216800Y-107986000D03*
X125716800Y-101814000D03*
X125716800Y-107986000D03*
X125216800Y-101814000D03*
X125216800Y-107986000D03*
X124716800Y-101814000D03*
X124716800Y-107986000D03*
X124216800Y-101814000D03*
X124216800Y-107986000D03*
X123716800Y-101814000D03*
X123716800Y-107986000D03*
X123216800Y-101814000D03*
X123216800Y-107986000D03*
X122716800Y-101814000D03*
X122716800Y-107986000D03*
X122216800Y-101814000D03*
X122216800Y-107986000D03*
X121716800Y-101814000D03*
X121716800Y-107986000D03*
X121216800Y-101814000D03*
X121216800Y-107986000D03*
X120716800Y-101814000D03*
X120716800Y-107986000D03*
X120216800Y-101814000D03*
X120216800Y-107986000D03*
X119716800Y-101814000D03*
X119716800Y-107986000D03*
X119216800Y-101814000D03*
X119216800Y-107986000D03*
X118716800Y-101814000D03*
X118716800Y-107986000D03*
X118216800Y-101814000D03*
X118216800Y-107986000D03*
X117716800Y-101814000D03*
X117716800Y-107986000D03*
X117216800Y-101814000D03*
X117216800Y-107986000D03*
X116716800Y-101814000D03*
X116716800Y-107986000D03*
X116216800Y-101814000D03*
X116216800Y-107986000D03*
X115716800Y-101814000D03*
X115716800Y-107986000D03*
X115216800Y-101814000D03*
X115216800Y-107986000D03*
X114716800Y-101814000D03*
X114716800Y-107986000D03*
X114216800Y-101814000D03*
X114216800Y-107986000D03*
X113716800Y-101814000D03*
X113716800Y-107986000D03*
X113216800Y-101814000D03*
X113216800Y-107986000D03*
X112716800Y-101814000D03*
X112716800Y-107986000D03*
X112216800Y-101814000D03*
X112216800Y-107986000D03*
X111716800Y-101814000D03*
X111716800Y-107986000D03*
X111216800Y-101814000D03*
X111216800Y-107986000D03*
X110716800Y-101814000D03*
X110716800Y-107986000D03*
X110216800Y-101814000D03*
X110216800Y-107986000D03*
%TD*%
D14*
%TO.C,C20*%
X192295800Y-115235400D03*
X192295800Y-114135400D03*
%TD*%
D24*
%TO.C,TP12*%
X165348500Y-65103000D03*
%TD*%
D38*
%TO.C,R33*%
X165623503Y-79865647D03*
X165623503Y-78215647D03*
%TD*%
D25*
%TO.C,R36*%
X165572703Y-81263647D03*
X165572703Y-82913647D03*
%TD*%
D11*
%TO.C,R8*%
X189995700Y-76951800D03*
X189995700Y-77811800D03*
%TD*%
D26*
%TO.C,R31*%
X179724600Y-118859800D03*
X180584600Y-118859800D03*
%TD*%
D11*
%TO.C,R22*%
X188475000Y-119245000D03*
X188475000Y-120105000D03*
%TD*%
D24*
%TO.C,TP23*%
X188321252Y-85412048D03*
%TD*%
D14*
%TO.C,C59*%
X171804000Y-129784868D03*
X171804000Y-130884868D03*
%TD*%
D16*
%TO.C,R203*%
X138458000Y-68828000D03*
X138458000Y-69848000D03*
%TD*%
D48*
%TO.C,U32*%
X107130000Y-87550000D03*
X106470000Y-87550000D03*
X105820000Y-87550000D03*
X105170000Y-87550000D03*
X105170000Y-91950000D03*
X105820000Y-91950000D03*
X106470000Y-91950000D03*
X107130000Y-91950000D03*
%TD*%
D31*
%TO.C,U14*%
X184571252Y-92362048D03*
X184571252Y-91862048D03*
X184571252Y-91362048D03*
X184571252Y-90862048D03*
X184571252Y-90362048D03*
X184571252Y-89862048D03*
X184571252Y-89362048D03*
X184571252Y-88862048D03*
X184571252Y-88362048D03*
X184571252Y-87862048D03*
D32*
X183151252Y-90112048D03*
D33*
X182401252Y-87192048D03*
X182901252Y-87192048D03*
X183401252Y-87192048D03*
X183901252Y-87192048D03*
D31*
X181731252Y-89862048D03*
X181731252Y-89362048D03*
X181731252Y-88862048D03*
X181731252Y-88362048D03*
X181731252Y-87862048D03*
X181731252Y-90362048D03*
X181731252Y-90862048D03*
X181731252Y-91362048D03*
X181731252Y-91862048D03*
X181731252Y-92362048D03*
D33*
X182401252Y-93032048D03*
X182901252Y-93032048D03*
X183401252Y-93032048D03*
X183901252Y-93032048D03*
%TD*%
D14*
%TO.C,C60*%
X173104000Y-129784000D03*
X173104000Y-130884000D03*
%TD*%
D11*
%TO.C,R38*%
X192621252Y-85012048D03*
X192621252Y-85872048D03*
%TD*%
D17*
%TO.C,R199*%
X144503200Y-110490000D03*
X144503200Y-109470000D03*
%TD*%
D46*
%TO.C,U12*%
X166191800Y-107088200D03*
X165541800Y-107088200D03*
X164891800Y-107088200D03*
X164241800Y-107088200D03*
X163581800Y-107088200D03*
X162931800Y-112648200D03*
X162931800Y-107088200D03*
X162281800Y-107088200D03*
X161631800Y-107088200D03*
X161631800Y-112648200D03*
X162281800Y-112648200D03*
X163581800Y-112648200D03*
X164241800Y-112648200D03*
X166191800Y-112648200D03*
X165541800Y-112648200D03*
X164891800Y-112648200D03*
%TD*%
D17*
%TO.C,R200*%
X143487200Y-110488000D03*
X143487200Y-109468000D03*
%TD*%
D11*
%TO.C,R103*%
X166500000Y-130705000D03*
X166500000Y-129845000D03*
%TD*%
D10*
%TO.C,U31*%
X119720000Y-48370000D03*
X120370000Y-48370000D03*
X121020000Y-48370000D03*
X121670000Y-48370000D03*
X122330000Y-48370000D03*
X122980000Y-48370000D03*
X123630000Y-48370000D03*
X124280000Y-48370000D03*
X124930000Y-48370000D03*
X125580000Y-48370000D03*
X125580000Y-42630000D03*
X124930000Y-42630000D03*
X124280000Y-42630000D03*
X123630000Y-42630000D03*
X122980000Y-42630000D03*
X122330000Y-42630000D03*
X121670000Y-42630000D03*
X121020000Y-42630000D03*
X120370000Y-42630000D03*
X119720000Y-42630000D03*
%TD*%
D30*
%TO.C,C38*%
X170100000Y-92335000D03*
X170100000Y-99215000D03*
%TD*%
D12*
%TO.C,C35*%
X180571252Y-89612048D03*
X179471252Y-89612048D03*
%TD*%
D11*
%TO.C,R27*%
X185437800Y-115151400D03*
X185437800Y-114291400D03*
%TD*%
D15*
%TO.C,C2*%
X182750000Y-54325000D03*
X182750000Y-57275000D03*
%TD*%
D11*
%TO.C,R11*%
X187068900Y-72283000D03*
X187068900Y-71423000D03*
%TD*%
D28*
%TO.C,U3*%
X178317553Y-120329947D03*
X178317553Y-120979947D03*
X178317553Y-121639947D03*
X178317553Y-122289947D03*
X182917553Y-122289947D03*
X182917553Y-121639947D03*
X182917553Y-120979947D03*
X182917553Y-120329947D03*
%TD*%
D26*
%TO.C,R5*%
X190555300Y-67956600D03*
X189695300Y-67956600D03*
%TD*%
D12*
%TO.C,C30*%
X160340600Y-110469800D03*
X159240600Y-110469800D03*
%TD*%
D28*
%TO.C,U2*%
X179708653Y-77136247D03*
X179708653Y-77786247D03*
X179708653Y-78446247D03*
X179708653Y-79096247D03*
X184308653Y-79096247D03*
X184308653Y-78446247D03*
X184308653Y-77786247D03*
X184308653Y-77136247D03*
%TD*%
D26*
%TO.C,R4*%
X192638100Y-67956600D03*
X191778100Y-67956600D03*
%TD*%
D48*
%TO.C,U11*%
X163961903Y-78466247D03*
X163301903Y-78466247D03*
X162651903Y-78466247D03*
X162001903Y-78466247D03*
X162001903Y-82866247D03*
X162651903Y-82866247D03*
X163301903Y-82866247D03*
X163961903Y-82866247D03*
%TD*%
D15*
%TO.C,C6*%
X165100000Y-42375000D03*
X165100000Y-45325000D03*
%TD*%
D26*
%TO.C,R47*%
X179911252Y-94112048D03*
X180771252Y-94112048D03*
%TD*%
D36*
%TO.C,U23*%
X113400000Y-99900000D03*
X114050000Y-99900000D03*
X114700000Y-99900000D03*
X114700000Y-98000000D03*
X114050000Y-98000000D03*
X113400000Y-98000000D03*
%TD*%
D26*
%TO.C,R48*%
X181991252Y-94162048D03*
X182851252Y-94162048D03*
%TD*%
D24*
%TO.C,TP2*%
X194314500Y-74814600D03*
%TD*%
D26*
%TO.C,R3*%
X191778100Y-66686600D03*
X192638100Y-66686600D03*
%TD*%
D11*
%TO.C,R86*%
X128550000Y-110680000D03*
X128550000Y-109820000D03*
%TD*%
D26*
%TO.C,R16*%
X189911800Y-108852200D03*
X190771800Y-108852200D03*
%TD*%
D14*
%TO.C,C10*%
X193908100Y-72977000D03*
X193908100Y-71877000D03*
%TD*%
D49*
%TO.C,SW1*%
X157650000Y-125650000D03*
X165270000Y-125650000D03*
%TD*%
D14*
%TO.C,C32*%
X193771252Y-90912048D03*
X193771252Y-89812048D03*
%TD*%
D16*
%TO.C,R205*%
X133682800Y-68830000D03*
X133682800Y-69850000D03*
%TD*%
D26*
%TO.C,R15*%
X188689000Y-108852200D03*
X187829000Y-108852200D03*
%TD*%
D38*
%TO.C,R30*%
X160340303Y-79916447D03*
X160340303Y-78266447D03*
%TD*%
D30*
%TO.C,C26*%
X174617400Y-114948200D03*
X174617400Y-121828200D03*
%TD*%
D12*
%TO.C,C58*%
X115172800Y-126038200D03*
X114072800Y-126038200D03*
%TD*%
D46*
%TO.C,U15*%
X167981252Y-84952048D03*
X167331252Y-84952048D03*
X166681252Y-84952048D03*
X166031252Y-84952048D03*
X165371252Y-84952048D03*
X164721252Y-90512048D03*
X164721252Y-84952048D03*
X164071252Y-84952048D03*
X163421252Y-84952048D03*
X163421252Y-90512048D03*
X164071252Y-90512048D03*
X165371252Y-90512048D03*
X166031252Y-90512048D03*
X167981252Y-90512048D03*
X167331252Y-90512048D03*
X166681252Y-90512048D03*
%TD*%
D26*
%TO.C,R2*%
X190578900Y-66686600D03*
X189718900Y-66686600D03*
%TD*%
%TO.C,R42*%
X189011252Y-94862048D03*
X189871252Y-94862048D03*
%TD*%
D39*
%TO.C,TP49*%
X123675200Y-69287200D03*
%TD*%
D12*
%TO.C,C14*%
X180448500Y-75703000D03*
X181548500Y-75703000D03*
%TD*%
D31*
%TO.C,U6*%
X184695000Y-73905000D03*
X184695000Y-73405000D03*
X184695000Y-72905000D03*
X184695000Y-72405000D03*
X184695000Y-71905000D03*
X184695000Y-71405000D03*
X184695000Y-70905000D03*
X184695000Y-70405000D03*
X184695000Y-69905000D03*
X184695000Y-69405000D03*
D32*
X183275000Y-71655000D03*
D33*
X182525000Y-68735000D03*
X183025000Y-68735000D03*
X183525000Y-68735000D03*
X184025000Y-68735000D03*
D31*
X181855000Y-71405000D03*
X181855000Y-70905000D03*
X181855000Y-70405000D03*
X181855000Y-69905000D03*
X181855000Y-69405000D03*
X181855000Y-71905000D03*
X181855000Y-72405000D03*
X181855000Y-72905000D03*
X181855000Y-73405000D03*
X181855000Y-73905000D03*
D33*
X182525000Y-74575000D03*
X183025000Y-74575000D03*
X183525000Y-74575000D03*
X184025000Y-74575000D03*
%TD*%
D24*
%TO.C,TP22*%
X160152600Y-112154200D03*
%TD*%
D15*
%TO.C,C3*%
X179285800Y-54344901D03*
X179285800Y-57294901D03*
%TD*%
D12*
%TO.C,C130*%
X114056400Y-127404600D03*
X115156400Y-127404600D03*
%TD*%
D25*
%TO.C,R212*%
X107775600Y-84200600D03*
X107775600Y-85850600D03*
%TD*%
D12*
%TO.C,C34*%
X185771252Y-93312048D03*
X186871252Y-93312048D03*
%TD*%
D45*
%TO.C,C121*%
X110721200Y-77770800D03*
X109171200Y-77770800D03*
%TD*%
D50*
%TO.C,L1*%
X179298500Y-63903000D03*
X169398500Y-63903000D03*
%TD*%
D24*
%TO.C,TP10*%
X185598500Y-67253000D03*
%TD*%
D11*
%TO.C,R87*%
X129850000Y-109840000D03*
X129850000Y-110700000D03*
%TD*%
D14*
%TO.C,C33*%
X186921252Y-88412048D03*
X186921252Y-87312048D03*
%TD*%
D12*
%TO.C,C72*%
X120325000Y-92625000D03*
X121425000Y-92625000D03*
%TD*%
D16*
%TO.C,R192*%
X137391200Y-99255200D03*
X137391200Y-100275200D03*
%TD*%
D26*
%TO.C,R32*%
X181780200Y-118859800D03*
X182640200Y-118859800D03*
%TD*%
D12*
%TO.C,C29*%
X179028200Y-115557800D03*
X177928200Y-115557800D03*
%TD*%
D51*
%TO.C,RJ1*%
X120110000Y-127790000D03*
X132810000Y-127790000D03*
D52*
X130040000Y-125250000D03*
X129020000Y-123470000D03*
X128000000Y-125250000D03*
X126980000Y-123470000D03*
X125960000Y-125250000D03*
X124940000Y-123470000D03*
X123920000Y-125250000D03*
X122900000Y-123470000D03*
X133320000Y-118650000D03*
X131030000Y-118650000D03*
X121890000Y-118650000D03*
X119600000Y-118650000D03*
D53*
X118330000Y-124360000D03*
X134590000Y-124360000D03*
%TD*%
D12*
%TO.C,C69*%
X120325000Y-91325000D03*
X121425000Y-91325000D03*
%TD*%
D25*
%TO.C,R29*%
X160340303Y-81314447D03*
X160340303Y-82964447D03*
%TD*%
D20*
%TO.C,U13*%
X192631252Y-87512048D03*
X191981252Y-87512048D03*
X191331252Y-87512048D03*
X190671252Y-87512048D03*
X190021252Y-87512048D03*
X189371252Y-87512048D03*
X188721252Y-87512048D03*
X188071252Y-87512048D03*
X189371252Y-93252048D03*
X188721252Y-93252048D03*
X188071252Y-93252048D03*
X190021252Y-93252048D03*
X190671252Y-93252048D03*
X191331252Y-93252048D03*
X191981252Y-93252048D03*
X192631252Y-93252048D03*
D21*
X190351252Y-90382048D03*
%TD*%
D34*
%TO.C,CN1*%
X145350000Y-39100000D03*
D35*
X145350000Y-37100000D03*
X143350000Y-39100000D03*
X143350000Y-37100000D03*
X141350000Y-39100000D03*
X141350000Y-37100000D03*
X139350000Y-39100000D03*
X139350000Y-37100000D03*
X137350000Y-39100000D03*
X137350000Y-37100000D03*
X135350000Y-39100000D03*
X135350000Y-37100000D03*
X133350000Y-39100000D03*
X133350000Y-37100000D03*
X131350000Y-39100000D03*
X131350000Y-37100000D03*
%TD*%
D12*
%TO.C,C39*%
X180571252Y-90912048D03*
X179471252Y-90912048D03*
%TD*%
D24*
%TO.C,TP18*%
X186149000Y-109715800D03*
%TD*%
D15*
%TO.C,C8*%
X156600000Y-42375000D03*
X156600000Y-45325000D03*
%TD*%
D17*
%TO.C,R207*%
X130177600Y-80058800D03*
X130177600Y-79038800D03*
%TD*%
D54*
%TO.C,R34*%
X160277303Y-84476247D03*
X161927303Y-84476247D03*
%TD*%
D11*
%TO.C,R23*%
X189750000Y-119242600D03*
X189750000Y-120102600D03*
%TD*%
%TO.C,R45*%
X186921252Y-90722048D03*
X186921252Y-89862048D03*
%TD*%
D24*
%TO.C,TP19*%
X183975000Y-109775000D03*
%TD*%
D11*
%TO.C,R44*%
X185621252Y-89882048D03*
X185621252Y-90742048D03*
%TD*%
D24*
%TO.C,TP20*%
X184574200Y-119367800D03*
%TD*%
D11*
%TO.C,R10*%
X185798500Y-71423000D03*
X185798500Y-72283000D03*
%TD*%
D38*
%TO.C,R215*%
X107775600Y-95260800D03*
X107775600Y-93610800D03*
%TD*%
D26*
%TO.C,R28*%
X184296600Y-116421400D03*
X185156600Y-116421400D03*
%TD*%
D12*
%TO.C,C12*%
X185909300Y-74850200D03*
X187009300Y-74850200D03*
%TD*%
D24*
%TO.C,TP21*%
X165575000Y-104940600D03*
%TD*%
D51*
%TO.C,RJ2*%
X140600001Y-127800001D03*
X153300001Y-127800001D03*
D52*
X150530001Y-125260001D03*
X149510001Y-123480001D03*
X148490001Y-125260001D03*
X147470001Y-123480001D03*
X146450001Y-125260001D03*
X145430001Y-123480001D03*
X144410001Y-125260001D03*
X143390001Y-123480001D03*
X153810001Y-118660001D03*
X151520001Y-118660001D03*
X142380001Y-118660001D03*
X140090001Y-118660001D03*
D53*
X138820001Y-124370001D03*
X155080001Y-124370001D03*
%TD*%
D12*
%TO.C,C17*%
X180617300Y-72530600D03*
X179517300Y-72530600D03*
%TD*%
D30*
%TO.C,C15*%
X176148500Y-71913000D03*
X176148500Y-78793000D03*
%TD*%
D34*
%TO.C,CN2*%
X112300000Y-37100000D03*
D35*
X112300000Y-39100000D03*
X114300000Y-37100000D03*
X114300000Y-39100000D03*
X116300000Y-37100000D03*
X116300000Y-39100000D03*
X118300000Y-37100000D03*
X118300000Y-39100000D03*
X120300000Y-37100000D03*
X120300000Y-39100000D03*
X122300000Y-37100000D03*
X122300000Y-39100000D03*
X124300000Y-37100000D03*
X124300000Y-39100000D03*
X126300000Y-37100000D03*
X126300000Y-39100000D03*
%TD*%
D30*
%TO.C,C27*%
X168567400Y-114948200D03*
X168567400Y-121828200D03*
%TD*%
D13*
%TO.C,J2*%
X107661732Y-124958933D03*
%TD*%
D24*
%TO.C,TP32*%
X186871252Y-95012048D03*
%TD*%
D12*
%TO.C,C13*%
X180584100Y-71209800D03*
X179484100Y-71209800D03*
%TD*%
D41*
%TO.C,C124*%
X116106000Y-79383400D03*
X116106000Y-80933400D03*
%TD*%
D26*
%TO.C,R41*%
X194101252Y-94862048D03*
X193241252Y-94862048D03*
%TD*%
D12*
%TO.C,C75*%
X125825000Y-94913400D03*
X126925000Y-94913400D03*
%TD*%
D26*
%TO.C,R43*%
X191971252Y-94862048D03*
X191111252Y-94862048D03*
%TD*%
D24*
%TO.C,TP13*%
X165998500Y-74703000D03*
%TD*%
D41*
%TO.C,C125*%
X121186000Y-79421200D03*
X121186000Y-80971200D03*
%TD*%
M02*
