M48
; DRILL file {KiCad 9.0.8} date 2026-04-02T04:47:19-0400
; FORMAT={-:-/ absolute / inch / decimal}
; #@! TF.CreationDate,2026-04-02T04:47:19-04:00
; #@! TF.GenerationSoftware,Kicad,Pcbnew,9.0.8
; #@! TF.FileFunction,Plated,1,6,PTH
FMAT,2
INCH
; #@! TA.AperFunction,Plated,PTH,ViaDrill
T1C0.0059
; #@! TA.AperFunction,Plated,PTH,ViaDrill
T2C0.0118
; #@! TA.AperFunction,Plated,PTH,ViaDrill
T3C0.0157
; #@! TA.AperFunction,Plated,PTH,ComponentDrill
T4C0.0197
; #@! TA.AperFunction,Plated,PTH,ComponentDrill
T5C0.0197
; #@! TA.AperFunction,Plated,PTH,ComponentDrill
T6C0.0217
; #@! TA.AperFunction,Plated,PTH,ComponentDrill
T7C0.0236
; #@! TA.AperFunction,Plated,PTH,ComponentDrill
T8C0.0315
; #@! TA.AperFunction,Plated,PTH,ComponentDrill
T9C0.0350
; #@! TA.AperFunction,Plated,PTH,ComponentDrill
T10C0.0618
; #@! TA.AperFunction,Plated,PTH,ComponentDrill
T11C0.1063
; #@! TA.AperFunction,Plated,PTH,ComponentDrill
T12C0.1102
; #@! TA.AperFunction,Plated,PTH,ComponentDrill
T13C0.1280
%
G90
G05
T1
X4.1211Y-3.753
X4.1411Y-3.4455
X4.1476Y-4.1673
X4.1821Y-3.3789
X4.1919Y-3.6181
X4.298Y-3.062
X4.298Y-3.124
X4.314Y-2.0945
X4.3317Y-2.0965
X4.3346Y-4.1201
X4.3366Y-4.187
X4.3391Y-4.0078
X4.3415Y-3.7264
X4.3455Y-4.315
X4.3589Y-4.25
X4.3593Y-3.753
X4.3598Y-3.4513
X4.3598Y-3.6496
X4.3598Y-3.8529
X4.36Y-3.5517
X4.36Y-3.7023
X4.36Y-3.8027
X4.3632Y-3.8232
X4.372Y-4.5197
X4.374Y-4.5689
X4.3786Y-4.25
X4.3789Y-4.0069
X4.3829Y-4.3199
X4.3983Y-4.25
X4.3986Y-4.0079
X4.3996Y-1.8514
X4.3996Y-4.6043
X4.4114Y-4.1634
X4.4114Y-4.6535
X4.4134Y-4.4469
X4.4154Y-4.3858
X4.4173Y-4.3031
X4.4173Y-4.3386
X4.4178Y-3.9201
X4.418Y-4.25
X4.4191Y-4.0078
X4.4311Y-5.0118
X4.4377Y-4.2514
X4.4469Y-4.6929
X4.448Y-3.186
X4.4518Y-1.8504
X4.4574Y-4.25
X4.4587Y-4.0945
X4.4646Y-4.498
X4.4744Y-3.0079
X4.4744Y-4.3248
X4.4744Y-4.3898
X4.4744Y-4.4587
X4.4764Y-1.8504
X4.4774Y-3.5291
X4.4783Y-4.0079
X4.4783Y-4.1634
X4.4803Y-4.7303
X4.4902Y-3.9331
X4.4911Y-4.9606
X4.4967Y-4.0084
X4.4967Y-4.25
X4.5039Y-1.8504
X4.51Y-3.186
X4.5108Y-3.6309
X4.5118Y-4.7638
X4.5148Y-2.81
X4.5148Y-3.0522
X4.5157Y-4.25
X4.5167Y-3.9094
X4.5171Y-4.0078
X4.5256Y-4.0965
X4.5285Y-1.8504
X4.5344Y-4.9621
X4.5344Y-2.8091
X4.5344Y-3.0522
X4.5371Y-4.2498
X4.5374Y-4.3248
X4.5394Y-4.3898
X4.5394Y-4.4587
X4.5413Y-4.1634
X4.5492Y-1.8829
X4.5494Y-3.4767
X4.5541Y-3.0522
X4.5551Y-2.8091
X4.5591Y-4.7795
X4.56Y-3.3818
X4.568Y-1.8652
X4.572Y-3.186
X4.5728Y-3.7579
X4.5738Y-2.8091
X4.5738Y-3.0522
X4.5748Y-4.1004
X4.5768Y-4.189
X4.5807Y-3.6329
X4.5817Y-4.7982
X4.5827Y-4.4134
X4.5866Y-3.7244
X4.5945Y-3.0531
X4.5965Y-4.3248
X4.5965Y-4.5197
X4.6005Y-2.4917
X4.6033Y-3.5837
X4.6063Y-4.4469
X4.6122Y-4.1299
X4.6151Y-4.0078
X4.626Y-4.5571
X4.6265Y-2.2037
X4.6311Y-1.6764
X4.6339Y-3.9331
X4.6437Y-4.4705
X4.6467Y-3.7274
X4.6476Y-3.4744
X4.6496Y-4.1713
X4.6516Y-4.3996
X4.6531Y-2.8098
X4.6535Y-4.2028
X4.6535Y-4.6437
X4.6565Y-3.5207
X4.6594Y-4.3248
X4.6594Y-4.5886
X4.6605Y-2.2537
X4.6614Y-2.8632
X4.6624Y-3.3818
X4.6624Y-3.9547
X4.6654Y-4.752
X4.6752Y-4.251
X4.6759Y-2.4231
X4.685Y-4.3543
X4.6885Y-2.1237
X4.692Y-3.053
X4.6931Y-4.0078
X4.6936Y-4.2514
X4.6939Y-2.8819
X4.7047Y-4.6043
X4.7047Y-4.7933
X4.7126Y-4.3819
X4.7133Y-4.2514
X4.7345Y-2.4997
X4.7345Y-2.5517
X4.7461Y-3.8376
X4.7461Y-4.374
X4.748Y-4.5827
X4.75Y-4.8386
X4.7511Y-2.8098
X4.753Y-4.252
X4.7667Y-4.7402
X4.7705Y-2.4357
X4.7726Y-4.251
X4.7776Y-4.3858
X4.7776Y-4.872
X4.7815Y-4.4567
X4.7835Y-4.6063
X4.7894Y-1.6299
X4.7904Y-2.0266
X4.7913Y-4.4213
X4.792Y-4.2514
X4.7982Y-4.7687
X4.8076Y-3.9245
X4.8091Y-4.4862
X4.8117Y-4.2514
X4.813Y-4.561
X4.8153Y-1.6148
X4.8159Y-2.0138
X4.8165Y-2.1697
X4.8185Y-2.0417
X4.8205Y-2.4357
X4.8205Y-2.5497
X4.8278Y-4.8002
X4.8311Y-2.8098
X4.8311Y-4.0078
X4.8366Y-4.5157
X4.8376Y-3.5094
X4.838Y-3.6078
X4.839Y-2.0305
X4.8406Y-1.6142
X4.8465Y-2.4817
X4.8511Y-4.2514
X4.8543Y-4.6004
X4.8563Y-4.687
X4.8661Y-4.5394
X4.8681Y-1.6142
X4.8691Y-4.1545
X4.8697Y-2.1175
X4.8705Y-2.0417
X4.8707Y-4.2514
X4.8709Y-3.5964
X4.8711Y-4.0089
X4.8736Y-2.4324
X4.8849Y-3.6104
X4.8878Y-1.9715
X4.8888Y-2.8927
X4.8898Y-2.8543
X4.8904Y-4.2514
X4.8917Y-4.7205
X4.9075Y-4.5807
X4.9104Y-4.251
X4.9173Y-4.6654
X4.9185Y-2.1497
X4.9225Y-2.0597
X4.9232Y-4.9921
X4.9252Y-4.7598
X4.9291Y-4.0078
X4.9291Y-2.001
X4.9331Y-5.0512
X4.937Y-4.6102
X4.938Y-3.9385
X4.9385Y-2.3157
X4.939Y-5.1866
X4.939Y-5.224
X4.9409Y-4.7913
X4.9441Y-1.6783
X4.9491Y-2.8098
X4.9537Y-3.5832
X4.9537Y-3.7367
X4.9567Y-4.7008
X4.9695Y-4.249
X4.9778Y-4.66
X4.9833Y-2.7677
X4.9882Y-2.8524
X4.9902Y-3.9387
X4.9921Y-4.7382
X4.998Y-3.6348
X4.999Y-3.7874
X5.0071Y-2.8098
X5.0091Y-4.0078
X5.0102Y-4.3582
X5.0105Y-2.2557
X5.0138Y-4.6929
X5.0157Y-5.0335
X5.0217Y-4.9862
X5.0236Y-4.7736
X5.0285Y-4.2047
X5.0374Y-3.3002
X5.0482Y-3.9596
X5.0502Y-3.876
X5.0512Y-4.7283
X5.0571Y-4.8051
X5.061Y-4.3593
X5.066Y-2.81
X5.0857Y-2.81
X5.0896Y-3.2991
X5.0965Y-4.7717
X5.1053Y-4.125
X5.1071Y-4.0078
X5.1224Y-3.399
X5.126Y-4.8051
X5.126Y-3.152
X5.1391Y-4.3386
X5.147Y-2.711
X5.1496Y-3.5069
X5.1673Y-5.1886
X5.199Y-3.3181
X5.199Y-3.3799
X5.2Y-3.4421
X5.2096Y-3.5413
X5.2177Y-3.7323
X5.2417Y-3.6692
X5.2448Y-4.0084
X5.263Y-2.711
X5.264Y-3.152
X5.2644Y-4.0084
X5.2654Y-3.4941
X5.2726Y-3.9596
X5.2834Y-3.9482
X5.2844Y-3.5522
X5.2864Y-3.7026
X5.3102Y-3.622
X5.3142Y-3.7894
X5.3197Y-3.5295
X5.3231Y-4.0078
X5.3231Y-4.2518
X5.3258Y-4.122
X5.3287Y-3.9075
X5.3462Y-3.5773
X5.3469Y-3.3622
X5.3555Y-3.5591
X5.361Y-2.711
X5.3772Y-3.7884
X5.3811Y-3.5285
X5.3819Y-2.061
X5.3829Y-4.0079
X5.3831Y-4.3499
X5.3909Y-3.5787
X5.3917Y-3.6205
X5.403Y-2.4924
X5.4047Y-3.2244
X5.4213Y-4.6516
X5.4213Y-4.7047
X5.4231Y-4.2518
X5.429Y-2.2044
X5.4321Y-4.5285
X5.4323Y-3.5803
X5.4323Y-3.6972
X5.438Y-3.8504
X5.4382Y-3.7904
X5.44Y-4.5689
X5.4421Y-3.5285
X5.4429Y-4.0659
X5.4431Y-4.3499
X5.4488Y-4.7283
X5.452Y-2.711
X5.4557Y-4.4813
X5.4567Y-3.2244
X5.4626Y-4.3839
X5.463Y-2.2544
X5.4646Y-4.435
X5.4685Y-3.8691
X5.4685Y-4.753
X5.4705Y-4.7913
X5.4744Y-4.5935
X5.4785Y-2.4238
X5.4811Y-4.0058
X5.4811Y-4.2518
X5.491Y-2.1244
X5.497Y-4.8209
X5.4992Y-3.5945
X5.4992Y-3.6339
X5.4996Y-3.5354
X5.4996Y-3.6142
X5.4996Y-3.6929
X5.4996Y-3.752
X5.5031Y-3.3642
X5.5071Y-3.2244
X5.5197Y-4.1476
X5.5197Y-4.372
X5.528Y-3.5071
X5.5307Y-3.6732
X5.5307Y-3.8689
X5.5364Y-4.3996
X5.537Y-2.5004
X5.537Y-2.5524
X5.5384Y-4.3051
X5.5394Y-4.2057
X5.5411Y-4.2518
X5.5472Y-4.4902
X5.5476Y-3.5071
X5.5502Y-3.9457
X5.5522Y-4.5187
X5.5531Y-3.8504
X5.5541Y-4.7894
X5.5559Y-3.435
X5.5561Y-4.7215
X5.5581Y-4.4242
X5.5602Y-3.3472
X5.561Y-4.4616
X5.5661Y-3.7146
X5.5709Y-4.5876
X5.5718Y-2.2087
X5.573Y-2.4364
X5.5748Y-4.5531
X5.578Y-2.711
X5.5858Y-2.1727
X5.5862Y-3.8504
X5.5869Y-3.5285
X5.5915Y-3.9453
X5.5991Y-4.2518
X5.6068Y-3.5285
X5.6091Y-4.3499
X5.619Y-2.1704
X5.6191Y-4.0078
X5.621Y-2.0424
X5.623Y-4.3868
X5.623Y-2.4364
X5.623Y-2.5504
X5.6272Y-3.4409
X5.6272Y-3.5059
X5.628Y-4.5551
X5.628Y-4.5994
X5.6289Y-4.4163
X5.6289Y-4.4685
X5.6309Y-4.5098
X5.6319Y-4.1988
X5.6362Y-3.6437
X5.6407Y-4.1437
X5.6451Y-3.5396
X5.6461Y-3.7803
X5.648Y-4.0787
X5.649Y-2.4824
X5.6491Y-4.3499
X5.6516Y-4.7087
X5.6566Y-2.81
X5.6591Y-4.2518
X5.6667Y-3.5396
X5.6713Y-4.6831
X5.673Y-2.0424
X5.6732Y-4.5767
X5.6758Y-2.4387
X5.6763Y-2.81
X5.6848Y-4.5997
X5.6891Y-4.35
X5.6916Y-3.8679
X5.6998Y-3.7549
X5.702Y-3.8965
X5.7059Y-3.5728
X5.7059Y-3.7146
X5.7067Y-3.5118
X5.7106Y-4.0787
X5.721Y-2.1504
X5.7224Y-3.5128
X5.725Y-2.0604
X5.7274Y-4.8041
X5.7291Y-4.35
X5.7313Y-4.7618
X5.7333Y-4.7283
X5.741Y-2.3164
X5.7421Y-5.1811
X5.7431Y-5.2175
X5.7434Y-3.8611
X5.7434Y-3.753
X5.7434Y-3.81
X5.7461Y-4.1437
X5.7578Y-4.6752
X5.7628Y-4.2618
X5.7628Y-4.4852
X5.7638Y-4.4242
X5.7638Y-4.5404
X5.7657Y-4.3179
X5.7687Y-4.5797
X5.7709Y-4.0797
X5.7711Y-2.379
X5.7728Y-3.5354
X5.7728Y-3.5945
X5.7728Y-3.6142
X5.7728Y-3.6339
X5.7728Y-3.6535
X5.7768Y-3.3799
X5.7776Y-4.6752
X5.7953Y-4.7707
X5.7953Y-4.811
X5.7958Y-2.1267
X5.7992Y-4.7244
X5.8031Y-3.9429
X5.8083Y-3.4606
X5.8159Y-4.687
X5.8248Y-3.5098
X5.8555Y-3.4536
X5.8555Y-3.6988
X5.8681Y-3.4367
X5.8932Y-3.7598
X5.8932Y-3.9398
X5.8939Y-4.002
X5.8939Y-4.063
X5.8942Y-3.8799
X5.9126Y-3.4311
X5.9439Y-5.1841
X5.951Y-3.6831
X5.9776Y-3.5374
X6.012Y-3.7598
X6.014Y-3.8799
X6.015Y-3.939
X6.0376Y-3.6201
X6.1033Y-4.5276
X6.1093Y-4.4508
X6.1161Y-4.7874
X6.1939Y-5.0039
X6.2028Y-4.8632
X6.2175Y-2.0108
X6.2343Y-3.5059
X6.2623Y-3.3979
X6.2648Y-5.0729
X6.2687Y-4.2955
X6.2687Y-4.3495
X6.2736Y-3.7306
X6.2763Y-3.6699
X6.2923Y-3.6119
X6.2963Y-5.0039
X6.3009Y-4.023
X6.3041Y-4.4173
X6.3126Y-3.1463
X6.3126Y-3.2014
X6.313Y-4.2992
X6.313Y-4.3494
X6.3228Y-3.3979
X6.3267Y-4.9577
X6.3327Y-4.6427
X6.3405Y-2.8013
X6.3437Y-4.9782
X6.3642Y-2.9804
X6.3642Y-4.2165
X6.3642Y-4.435
X6.3786Y-3.0898
X6.3894Y-3.458
X6.3894Y-3.5013
X6.3907Y-4.436
X6.4035Y-3.0719
X6.4147Y-4.2155
X6.4147Y-4.4335
X6.4166Y-3.6253
X6.4341Y-3.3435
X6.4341Y-3.56
X6.4366Y-2.6458
X6.4366Y-2.8647
X6.4409Y-4.2156
X6.4488Y-5.062
X6.4616Y-3.6781
X6.4621Y-2.6458
X6.4647Y-4.2155
X6.4851Y-3.3446
X6.4851Y-3.5635
X6.4881Y-2.6458
X6.4921Y-4.4341
X6.5141Y-2.8648
X6.5177Y-4.4341
X6.5343Y-3.6402
X6.5358Y-2.9406
X6.5397Y-2.8648
X6.5433Y-4.4341
X6.5541Y-5.1427
X6.5623Y-3.565
X6.5663Y-2.8638
X6.5726Y-3.1918
X6.5848Y-5.2474
X6.5878Y-3.5635
X6.6062Y-2.9017
X6.6066Y-2.8589
X6.6067Y-4.7695
X6.6067Y-4.8235
X6.6134Y-3.5635
X6.6439Y-5.0919
X6.6585Y-5.2087
X6.6634Y-5.1122
X6.6664Y-3.8797
X6.6664Y-3.9337
X6.6667Y-4.7715
X6.6667Y-4.8235
X6.7027Y-3.076
X6.7027Y-3.13
X6.7167Y-5.2435
X6.7264Y-3.8817
X6.7264Y-3.9337
X6.7627Y-3.078
X6.7627Y-3.13
X6.7639Y-5.1096
X6.7668Y-5.2437
X6.7933Y-5.189
X6.8151Y-5.1096
X6.8151Y-5.2439
X6.8447Y-4.7695
X6.8447Y-4.8235
X6.8534Y-5.2437
X6.875Y-5.2864
X6.8978Y-5.2439
X6.9047Y-4.7715
X6.9047Y-4.8235
X6.9055Y-3.0741
X6.9055Y-3.1281
X6.9065Y-3.8797
X6.9065Y-3.9337
X6.9401Y-5.2437
X6.9655Y-3.0761
X6.9655Y-3.1281
X6.9665Y-3.8817
X6.9665Y-3.9337
X6.9793Y-5.1585
X6.9805Y-5.2415
X7.0047Y-4.5495
X7.0204Y-4.8146
X7.0207Y-4.7372
X7.0207Y-4.7628
X7.0267Y-5.2437
X7.0297Y-5.125
X7.0581Y-4.8793
X7.0658Y-3.5792
X7.0676Y-2.8555
X7.0697Y-3.3835
X7.0699Y-3.3317
X7.0709Y-3.3061
X7.0751Y-3.114
X7.0758Y-3.0364
X7.0758Y-3.063
X7.0822Y-5.2492
X7.1073Y-4.8445
X7.1078Y-5.185
X7.1207Y-4.4055
X7.1207Y-4.6355
X7.1309Y-4.44
X7.1309Y-4.4675
X7.1309Y-4.499
X7.1309Y-4.5325
X7.1309Y-4.562
X7.1309Y-4.5955
X7.1407Y-4.4055
X7.1407Y-4.6355
X7.1607Y-4.4055
X7.1607Y-4.6355
X7.1722Y-4.4419
X7.1722Y-4.4675
X7.1722Y-4.499
X7.1722Y-4.5325
X7.1722Y-4.562
X7.1722Y-4.5955
X7.1807Y-4.4055
X7.1807Y-4.6355
X7.1812Y-3.4328
X7.1812Y-3.6627
X7.186Y-2.7061
X7.186Y-2.936
X7.1896Y-4.6795
X7.1898Y-3.469
X7.1898Y-3.4965
X7.1898Y-3.528
X7.1898Y-3.5615
X7.1898Y-3.591
X7.1898Y-3.6245
X7.1948Y-2.7363
X7.1948Y-2.7659
X7.1948Y-2.7974
X7.1948Y-2.8328
X7.1948Y-2.8663
X7.1948Y-2.9017
X7.1989Y-3.7072
X7.2008Y-3.4328
X7.2008Y-3.6627
X7.2015Y-4.789
X7.2015Y-4.8146
X7.2018Y-4.7372
X7.2057Y-2.7061
X7.2057Y-2.936
X7.2067Y-4.4315
X7.2067Y-4.4515
X7.2067Y-4.4715
X7.2077Y-4.6093
X7.2205Y-3.4328
X7.2205Y-3.6627
X7.2254Y-2.7061
X7.2254Y-2.936
X7.2312Y-3.4709
X7.2312Y-3.4965
X7.2312Y-3.528
X7.2312Y-3.5615
X7.2312Y-3.591
X7.2312Y-3.6245
X7.2317Y-4.0676
X7.2342Y-2.7344
X7.2342Y-2.7659
X7.2362Y-2.7974
X7.2362Y-2.8308
X7.2362Y-2.8663
X7.2362Y-2.9017
X7.2373Y-2.9804
X7.2402Y-3.4328
X7.2402Y-3.6627
X7.2451Y-2.7061
X7.2451Y-2.936
X7.2508Y-3.332
X7.2508Y-3.3835
X7.2562Y-3.114
X7.2666Y-3.4591
X7.2666Y-3.4788
X7.2666Y-3.4985
X7.2715Y-2.7325
X7.2715Y-2.7522
X7.2715Y-2.7719
X7.2896Y-4.5835
X7.2987Y-4.6335
X7.3007Y-4.4995
X7.3022Y-4.3927
X7.3317Y-4.123
X7.3317Y-4.2431
X7.3426Y-3.6225
X7.3445Y-3.0128
X7.3478Y-2.8949
X7.3571Y-3.6737
X7.3573Y-3.7402
X7.3591Y-3.4375
X7.3591Y-3.5379
X7.3626Y-2.9469
X7.3628Y-2.7143
X7.3649Y-2.8119
X7.3878Y-4.0768
X7.3947Y-4.2854
X7.3947Y-4.3355
X7.4207Y-4.7275
X7.4407Y-4.2355
X7.4414Y-3.7347
X7.4682Y-2.6755
X7.4695Y-2.625
X7.4707Y-4.7275
X7.4801Y-3.0636
X7.5107Y-4.3355
X7.5207Y-4.7275
X7.5267Y-4.4015
X7.5313Y-3.064
X7.5323Y-3.3477
X7.5479Y-5.1385
X7.5579Y-3.7347
X7.5707Y-4.4935
X7.5822Y-3.0635
X7.5835Y-3.3469
X7.5839Y-3.4454
X7.5842Y-2.6255
X7.5842Y-2.6755
X7.5902Y-2.7415
X7.626Y-3.7648
X7.6288Y-3.5359
X7.6342Y-2.8295
X7.6418Y-3.7347
X7.6695Y-3.765
T2
X4.3602Y-3.061
X4.3602Y-3.123
X4.4469Y-3.125
X4.4531Y-1.8025
X4.5089Y-3.125
X4.5091Y-1.8025
X4.5631Y-1.8025
X4.5748Y-3.125
X4.7171Y-1.8005
X4.7731Y-1.8005
X4.8271Y-1.8005
X4.9851Y-1.8025
X5.0411Y-1.8025
X5.0951Y-1.8025
X5.2556Y-1.8031
X5.3116Y-1.8031
X5.3656Y-1.8031
X5.5196Y-1.8011
X5.5756Y-1.8011
X5.6296Y-1.8011
X5.7876Y-1.8031
X5.8436Y-1.8031
X5.8976Y-1.8031
X6.2136Y-3.7306
X6.2162Y-3.7935
X6.3101Y-3.3258
X6.5802Y-4.6626
X7.3986Y-4.4833
X7.3986Y-4.5128
X7.3986Y-4.5443
X7.438Y-4.4833
X7.438Y-4.5128
X7.438Y-4.5443
X7.4545Y-3.5271
X7.4545Y-3.5566
X7.4545Y-3.5881
X7.4625Y-2.823
X7.4625Y-2.8525
X7.4625Y-2.884
X7.4754Y-4.4833
X7.4754Y-4.5128
X7.4754Y-4.5443
X7.4939Y-3.5271
X7.4939Y-3.5566
X7.4939Y-3.5881
X7.5019Y-2.823
X7.5019Y-2.8525
X7.5019Y-2.884
X7.5313Y-3.5271
X7.5313Y-3.5566
X7.5313Y-3.5881
X7.5393Y-2.823
X7.5393Y-2.8525
X7.5393Y-2.884
T3
X4.5364Y-5.067
X4.5384Y-5.249
X6.1654Y-1.6683
X6.1654Y-1.7844
X6.3327Y-1.6683
X6.3327Y-1.7844
X6.5Y-1.6683
X6.5Y-1.7844
X6.6258Y-2.1378
X6.6538Y-2.2559
X6.6798Y-2.1378
X6.7638Y-2.1378
X6.7898Y-2.2559
X6.8178Y-2.1378
X6.8998Y-2.1358
X6.9258Y-2.2539
X6.9538Y-2.1358
X7.0305Y-2.1375
X7.0598Y-2.254
X7.0845Y-2.1375
X7.1685Y-2.1375
X7.1945Y-2.2536
X7.2225Y-2.1375
T5
X4.5271Y-2.7278
X4.6111Y-2.7278
X4.8691Y-2.7278
T8
X4.4213Y-1.4606
X4.4213Y-1.5394
X4.5Y-1.4606
X4.5Y-1.5394
X4.5787Y-1.4606
X4.5787Y-1.5394
X4.6575Y-1.4606
X4.6575Y-1.5394
X4.7362Y-1.4606
X4.7362Y-1.5394
X4.815Y-1.4606
X4.815Y-1.5394
X4.8937Y-1.4606
X4.8937Y-1.5394
X4.9724Y-1.4606
X4.9724Y-1.5394
X5.1713Y-1.4606
X5.1713Y-1.5394
X5.25Y-1.4606
X5.25Y-1.5394
X5.3287Y-1.4606
X5.3287Y-1.5394
X5.4075Y-1.4606
X5.4075Y-1.5394
X5.4862Y-1.4606
X5.4862Y-1.5394
X5.565Y-1.4606
X5.565Y-1.5394
X5.6437Y-1.4606
X5.6437Y-1.5394
X5.7224Y-1.4606
X5.7224Y-1.5394
X5.9213Y-1.4606
X5.9213Y-1.5394
X6.0Y-1.4606
X6.0Y-1.5394
X6.0787Y-1.4606
X6.0787Y-1.5394
X6.1575Y-1.4606
X6.1575Y-1.5394
X6.2362Y-1.4606
X6.2362Y-1.5394
X6.315Y-1.4606
X6.315Y-1.5394
X6.3937Y-1.4606
X6.3937Y-1.5394
X6.4724Y-1.4606
X6.4724Y-1.5394
T9
X4.7087Y-4.6713
X4.7988Y-4.6713
X4.8386Y-4.861
X4.8787Y-4.9311
X4.9189Y-4.861
X4.9591Y-4.9311
X4.9992Y-4.861
X5.0394Y-4.9311
X5.0795Y-4.861
X5.1197Y-4.9311
X5.1587Y-4.6713
X5.2488Y-4.6713
X5.5154Y-4.6717
X5.6055Y-4.6717
X5.6453Y-4.8614
X5.6854Y-4.9315
X5.7256Y-4.8614
X5.7657Y-4.9315
X5.8059Y-4.8614
X5.8461Y-4.9315
X5.8862Y-4.8614
X5.9264Y-4.9315
X5.9654Y-4.6717
X6.0555Y-4.6717
T10
X4.6587Y-4.8961
X5.2988Y-4.8961
X5.4654Y-4.8965
X6.1055Y-4.8965
T11
X4.2387Y-1.77
X4.2387Y-4.9196
X7.3883Y-1.77
X7.3889Y-4.9183
T12
X6.7648Y-2.0128
X7.0482Y-2.0128
T13
X4.7287Y-5.0311
X5.2287Y-5.0311
X5.5354Y-5.0315
X6.0354Y-5.0315
T4
G00X6.2116Y-5.2175
M15
G01X6.2116Y-5.2431
M16
G05
G00X6.4872Y-5.2175
M15
G01X6.4872Y-5.2431
M16
G05
T6
G00X6.2451Y-5.124
M15
G01X6.2569Y-5.124
M16
G05
G00X6.4419Y-5.124
M15
G01X6.4537Y-5.124
M16
G05
T7
G00X6.6407Y-1.7943
M15
G01X6.6407Y-1.7589
M16
G05
G00X7.1722Y-1.7943
M15
G01X7.1722Y-1.7589
M16
G05
M30
