%TF.GenerationSoftware,KiCad,Pcbnew,9.0.3*%
%TF.CreationDate,2026-03-25T12:57:35-07:00*%
%TF.ProjectId,imx8x_eps_leviathan,696d7838-785f-4657-9073-5f6c65766961,rev?*%
%TF.SameCoordinates,Original*%
%TF.FileFunction,Soldermask,Bot*%
%TF.FilePolarity,Negative*%
%FSLAX46Y46*%
G04 Gerber Fmt 4.6, Leading zero omitted, Abs format (unit mm)*
G04 Created by KiCad (PCBNEW 9.0.3) date 2026-03-25 12:57:35*
%MOMM*%
%LPD*%
G01*
G04 APERTURE LIST*
G04 Aperture macros list*
%AMRoundRect*
0 Rectangle with rounded corners*
0 $1 Rounding radius*
0 $2 $3 $4 $5 $6 $7 $8 $9 X,Y pos of 4 corners*
0 Add a 4 corners polygon primitive as box body*
4,1,4,$2,$3,$4,$5,$6,$7,$8,$9,$2,$3,0*
0 Add four circle primitives for the rounded corners*
1,1,$1+$1,$2,$3*
1,1,$1+$1,$4,$5*
1,1,$1+$1,$6,$7*
1,1,$1+$1,$8,$9*
0 Add four rect primitives between the rounded corners*
20,1,$1+$1,$2,$3,$4,$5,0*
20,1,$1+$1,$4,$5,$6,$7,0*
20,1,$1+$1,$6,$7,$8,$9,0*
20,1,$1+$1,$8,$9,$2,$3,0*%
%AMRotRect*
0 Rectangle, with rotation*
0 The origin of the aperture is its center*
0 $1 length*
0 $2 width*
0 $3 Rotation angle, in degrees counterclockwise*
0 Add horizontal line*
21,1,$1,$2,0,0,$3*%
%AMFreePoly0*
4,1,23,0.500000,-0.750000,0.000000,-0.750000,0.000000,-0.745722,-0.065263,-0.745722,-0.191342,-0.711940,-0.304381,-0.646677,-0.396677,-0.554381,-0.461940,-0.441342,-0.495722,-0.315263,-0.495722,-0.250000,-0.500000,-0.250000,-0.500000,0.250000,-0.495722,0.250000,-0.495722,0.315263,-0.461940,0.441342,-0.396677,0.554381,-0.304381,0.646677,-0.191342,0.711940,-0.065263,0.745722,0.000000,0.745722,
0.000000,0.750000,0.500000,0.750000,0.500000,-0.750000,0.500000,-0.750000,$1*%
%AMFreePoly1*
4,1,23,0.000000,0.745722,0.065263,0.745722,0.191342,0.711940,0.304381,0.646677,0.396677,0.554381,0.461940,0.441342,0.495722,0.315263,0.495722,0.250000,0.500000,0.250000,0.500000,-0.250000,0.495722,-0.250000,0.495722,-0.315263,0.461940,-0.441342,0.396677,-0.554381,0.304381,-0.646677,0.191342,-0.711940,0.065263,-0.745722,0.000000,-0.745722,0.000000,-0.750000,-0.500000,-0.750000,
-0.500000,0.750000,0.000000,0.750000,0.000000,0.745722,0.000000,0.745722,$1*%
%AMFreePoly2*
4,1,15,0.030697,0.149468,0.210697,0.009468,0.229614,-0.023798,0.230000,-0.030000,0.230000,-0.110000,0.215355,-0.145355,0.180000,-0.160000,-0.180000,-0.160000,-0.215355,-0.145355,-0.230000,-0.110000,-0.230000,0.110000,-0.215355,0.145355,-0.180000,0.160000,0.000000,0.160000,0.030697,0.149468,0.030697,0.149468,$1*%
%AMFreePoly3*
4,1,15,0.215355,0.155355,0.230000,0.120000,0.230000,0.040000,0.215355,0.004645,0.210697,0.000532,0.030697,-0.139468,0.000000,-0.150000,-0.180000,-0.150000,-0.215355,-0.135355,-0.230000,-0.100000,-0.230000,0.120000,-0.215355,0.155355,-0.180000,0.170000,0.180000,0.170000,0.215355,0.155355,0.215355,0.155355,$1*%
%AMFreePoly4*
4,1,15,0.215355,0.155355,0.230000,0.120000,0.230000,-0.100000,0.215355,-0.135355,0.180000,-0.150000,0.000000,-0.150000,-0.030697,-0.139468,-0.210697,0.000532,-0.229614,0.033798,-0.230000,0.040000,-0.230000,0.120000,-0.215355,0.155355,-0.180000,0.170000,0.180000,0.170000,0.215355,0.155355,0.215355,0.155355,$1*%
%AMFreePoly5*
4,1,15,0.215355,0.145355,0.230000,0.110000,0.230000,-0.110000,0.215355,-0.145355,0.180000,-0.160000,-0.180000,-0.160000,-0.215355,-0.145355,-0.230000,-0.110000,-0.230000,-0.030000,-0.215355,0.005355,-0.210697,0.009468,-0.030697,0.149468,0.000000,0.160000,0.180000,0.160000,0.215355,0.145355,0.215355,0.145355,$1*%
G04 Aperture macros list end*
%ADD10C,4.700000*%
%ADD11O,1.300000X2.200000*%
%ADD12C,3.800000*%
%ADD13C,1.016000*%
%ADD14R,1.400000X1.400000*%
%ADD15C,1.400000*%
%ADD16C,2.700000*%
%ADD17R,1.000000X1.000000*%
%ADD18O,1.000000X1.550000*%
%ADD19O,1.250000X0.950000*%
%ADD20C,3.250000*%
%ADD21C,1.520000*%
%ADD22C,2.500000*%
%ADD23RoundRect,0.135000X-0.185000X0.135000X-0.185000X-0.135000X0.185000X-0.135000X0.185000X0.135000X0*%
%ADD24RoundRect,0.135000X0.185000X-0.135000X0.185000X0.135000X-0.185000X0.135000X-0.185000X-0.135000X0*%
%ADD25RoundRect,0.225000X0.225000X0.250000X-0.225000X0.250000X-0.225000X-0.250000X0.225000X-0.250000X0*%
%ADD26R,0.540000X0.790000*%
%ADD27RoundRect,0.225000X-0.225000X-0.250000X0.225000X-0.250000X0.225000X0.250000X-0.225000X0.250000X0*%
%ADD28R,0.540000X0.570000*%
%ADD29RoundRect,0.135000X0.135000X0.185000X-0.135000X0.185000X-0.135000X-0.185000X0.135000X-0.185000X0*%
%ADD30O,2.050000X0.590000*%
%ADD31RoundRect,0.225000X-0.250000X0.225000X-0.250000X-0.225000X0.250000X-0.225000X0.250000X0.225000X0*%
%ADD32R,0.570000X0.540000*%
%ADD33R,1.070000X0.530000*%
%ADD34R,5.000000X2.800000*%
%ADD35R,5.000000X4.000000*%
%ADD36R,0.790000X0.540000*%
%ADD37RoundRect,0.218750X0.256250X-0.218750X0.256250X0.218750X-0.256250X0.218750X-0.256250X-0.218750X0*%
%ADD38R,1.400000X1.150000*%
%ADD39FreePoly0,90.000000*%
%ADD40FreePoly1,90.000000*%
%ADD41RoundRect,0.225000X0.250000X-0.225000X0.250000X0.225000X-0.250000X0.225000X-0.250000X-0.225000X0*%
%ADD42R,0.750000X1.000000*%
%ADD43R,1.200000X1.400000*%
%ADD44O,0.280000X1.620000*%
%ADD45O,0.280000X0.850000*%
%ADD46O,0.850000X0.280000*%
%ADD47R,4.100000X4.100000*%
%ADD48RoundRect,0.200000X0.275000X-0.200000X0.275000X0.200000X-0.275000X0.200000X-0.275000X-0.200000X0*%
%ADD49RoundRect,0.100000X-0.100000X0.637500X-0.100000X-0.637500X0.100000X-0.637500X0.100000X0.637500X0*%
%ADD50R,0.900000X2.200000*%
%ADD51R,3.500000X2.200000*%
%ADD52C,1.000000*%
%ADD53RoundRect,0.135000X-0.135000X-0.185000X0.135000X-0.185000X0.135000X0.185000X-0.135000X0.185000X0*%
%ADD54R,1.100000X0.600000*%
%ADD55R,1.160000X0.490000*%
%ADD56R,1.180000X0.490000*%
%ADD57R,0.380000X0.780000*%
%ADD58RoundRect,0.150000X-0.150000X0.587500X-0.150000X-0.587500X0.150000X-0.587500X0.150000X0.587500X0*%
%ADD59R,0.600000X1.100000*%
%ADD60RoundRect,0.150000X-0.587500X-0.150000X0.587500X-0.150000X0.587500X0.150000X-0.587500X0.150000X0*%
%ADD61RoundRect,0.250000X0.625000X-0.312500X0.625000X0.312500X-0.625000X0.312500X-0.625000X-0.312500X0*%
%ADD62R,1.380000X1.130000*%
%ADD63R,0.800000X1.680000*%
%ADD64R,1.290000X1.400000*%
%ADD65R,1.290000X1.300000*%
%ADD66R,1.600000X1.500000*%
%ADD67R,1.700000X1.500000*%
%ADD68R,1.500000X1.700000*%
%ADD69FreePoly2,270.000000*%
%ADD70FreePoly3,270.000000*%
%ADD71FreePoly4,270.000000*%
%ADD72FreePoly5,270.000000*%
%ADD73RotRect,0.480000X0.480000X225.000000*%
%ADD74R,0.900000X0.300000*%
%ADD75R,0.300000X0.900000*%
%ADD76R,4.500000X4.500000*%
%ADD77R,2.000000X1.000000*%
G04 APERTURE END LIST*
%TO.C,JP2*%
G36*
X138800000Y-59800000D02*
G01*
X137300000Y-59800000D01*
X137300000Y-59500000D01*
X138800000Y-59500000D01*
X138800000Y-59800000D01*
G37*
%TO.C,JP1*%
G36*
X118414989Y-59782239D02*
G01*
X116914989Y-59782239D01*
X116914989Y-59482239D01*
X118414989Y-59482239D01*
X118414989Y-59782239D01*
G37*
%TD*%
D10*
%TO.C,J3*%
X107661732Y-44958933D03*
%TD*%
D11*
%TO.C,U1*%
X168675000Y-45125000D03*
X182175000Y-45125000D03*
D12*
X171825000Y-51125000D03*
X179025000Y-51125000D03*
%TD*%
D13*
%TO.C,J10*%
X112690800Y-76492000D03*
X151162800Y-76492000D03*
%TD*%
D14*
%TO.C,J5*%
X164400000Y-39100000D03*
D15*
X164400000Y-37100000D03*
X162400000Y-39100000D03*
X162400000Y-37100000D03*
X160400000Y-39100000D03*
X160400000Y-37100000D03*
X158400000Y-39100000D03*
X158400000Y-37100000D03*
X156400000Y-39100000D03*
X156400000Y-37100000D03*
X154400000Y-39100000D03*
X154400000Y-37100000D03*
X152400000Y-39100000D03*
X152400000Y-37100000D03*
X150400000Y-39100000D03*
X150400000Y-37100000D03*
%TD*%
D16*
%TO.C,H2*%
X151056800Y-106636000D03*
%TD*%
%TO.C,H1*%
X107046800Y-72626000D03*
%TD*%
D10*
%TO.C,J1*%
X187678932Y-124925933D03*
%TD*%
D17*
%TO.C,TP47*%
X117122000Y-69287200D03*
%TD*%
D18*
%TO.C,USB1*%
X157775000Y-132850000D03*
D19*
X158775000Y-130150000D03*
X163775000Y-130150000D03*
D18*
X164775000Y-132850000D03*
%TD*%
D17*
%TO.C,TP17*%
X114988400Y-69287200D03*
%TD*%
D10*
%TO.C,J4*%
X187661732Y-44958933D03*
%TD*%
D13*
%TO.C,J9*%
X108230800Y-106932000D03*
X146702800Y-106932000D03*
%TD*%
D17*
%TO.C,TP49*%
X123675200Y-69287200D03*
%TD*%
D20*
%TO.C,RJ1*%
X120110000Y-127790000D03*
X132810000Y-127790000D03*
D21*
X130040000Y-125250000D03*
X129020000Y-123470000D03*
X128000000Y-125250000D03*
X126980000Y-123470000D03*
X125960000Y-125250000D03*
X124940000Y-123470000D03*
X123920000Y-125250000D03*
X122900000Y-123470000D03*
X133320000Y-118650000D03*
X131030000Y-118650000D03*
X121890000Y-118650000D03*
X119600000Y-118650000D03*
D22*
X118330000Y-124360000D03*
X134590000Y-124360000D03*
%TD*%
D14*
%TO.C,CN1*%
X145350000Y-39100000D03*
D15*
X145350000Y-37100000D03*
X143350000Y-39100000D03*
X143350000Y-37100000D03*
X141350000Y-39100000D03*
X141350000Y-37100000D03*
X139350000Y-39100000D03*
X139350000Y-37100000D03*
X137350000Y-39100000D03*
X137350000Y-37100000D03*
X135350000Y-39100000D03*
X135350000Y-37100000D03*
X133350000Y-39100000D03*
X133350000Y-37100000D03*
X131350000Y-39100000D03*
X131350000Y-37100000D03*
%TD*%
D20*
%TO.C,RJ2*%
X140600001Y-127800001D03*
X153300001Y-127800001D03*
D21*
X150530001Y-125260001D03*
X149510001Y-123480001D03*
X148490001Y-125260001D03*
X147470001Y-123480001D03*
X146450001Y-125260001D03*
X145430001Y-123480001D03*
X144410001Y-125260001D03*
X143390001Y-123480001D03*
X153810001Y-118660001D03*
X151520001Y-118660001D03*
X142380001Y-118660001D03*
X140090001Y-118660001D03*
D22*
X138820001Y-124370001D03*
X155080001Y-124370001D03*
%TD*%
D14*
%TO.C,CN2*%
X112300000Y-37100000D03*
D15*
X112300000Y-39100000D03*
X114300000Y-37100000D03*
X114300000Y-39100000D03*
X116300000Y-37100000D03*
X116300000Y-39100000D03*
X118300000Y-37100000D03*
X118300000Y-39100000D03*
X120300000Y-37100000D03*
X120300000Y-39100000D03*
X122300000Y-37100000D03*
X122300000Y-39100000D03*
X124300000Y-37100000D03*
X124300000Y-39100000D03*
X126300000Y-37100000D03*
X126300000Y-39100000D03*
%TD*%
D10*
%TO.C,J2*%
X107661732Y-124958933D03*
%TD*%
D23*
%TO.C,R168*%
X148980000Y-90190000D03*
X148980000Y-91210000D03*
%TD*%
D24*
%TO.C,R181*%
X143025000Y-100220000D03*
X143025000Y-99200000D03*
%TD*%
D25*
%TO.C,C91*%
X133605000Y-84280000D03*
X132055000Y-84280000D03*
%TD*%
D26*
%TO.C,C55*%
X142774400Y-51904000D03*
X142774400Y-53004000D03*
%TD*%
D27*
%TO.C,C129*%
X157879800Y-93215600D03*
X159429800Y-93215600D03*
%TD*%
D25*
%TO.C,C112*%
X141730000Y-101600000D03*
X140180000Y-101600000D03*
%TD*%
D28*
%TO.C,R136*%
X113250000Y-85898400D03*
X113250000Y-86758400D03*
%TD*%
D29*
%TO.C,R173*%
X137925000Y-94930000D03*
X136905000Y-94930000D03*
%TD*%
D30*
%TO.C,U19*%
X126190000Y-80073400D03*
X126190000Y-81353400D03*
X126190000Y-82613400D03*
X126190000Y-83883400D03*
X120650000Y-83883400D03*
X120650000Y-82613400D03*
X120650000Y-81353400D03*
X120650000Y-80073400D03*
%TD*%
D31*
%TO.C,C90*%
X143460000Y-102050000D03*
X143460000Y-103600000D03*
%TD*%
D32*
%TO.C,R54*%
X126199789Y-60409039D03*
X125339789Y-60409039D03*
%TD*%
D28*
%TO.C,R141*%
X119675000Y-85923400D03*
X119675000Y-86783400D03*
%TD*%
D33*
%TO.C,U30*%
X158368400Y-90000000D03*
X158368400Y-89050000D03*
X158368400Y-88100000D03*
X160668400Y-88100000D03*
X160668400Y-89050000D03*
X160668400Y-90000000D03*
%TD*%
D28*
%TO.C,R145*%
X164500000Y-126145000D03*
X164500000Y-127005000D03*
%TD*%
%TO.C,R79*%
X139320000Y-63893600D03*
X139320000Y-64753600D03*
%TD*%
%TO.C,R163*%
X141800000Y-121650000D03*
X141800000Y-120790000D03*
%TD*%
D34*
%TO.C,C44*%
X114464589Y-49482239D03*
D35*
X114464589Y-44382239D03*
%TD*%
D27*
%TO.C,C102*%
X148155000Y-101650000D03*
X149705000Y-101650000D03*
%TD*%
D28*
%TO.C,R74*%
X145416000Y-52287600D03*
X145416000Y-53147600D03*
%TD*%
%TO.C,R117*%
X121600000Y-100028400D03*
X121600000Y-99168400D03*
%TD*%
%TO.C,R164*%
X155350000Y-120740000D03*
X155350000Y-121600000D03*
%TD*%
D36*
%TO.C,C61*%
X125875000Y-95063400D03*
X124775000Y-95063400D03*
%TD*%
D32*
%TO.C,R111*%
X124620000Y-89838400D03*
X125480000Y-89838400D03*
%TD*%
D28*
%TO.C,R149*%
X131080000Y-91140000D03*
X131080000Y-92000000D03*
%TD*%
D37*
%TO.C,D5*%
X125437389Y-58844939D03*
X125437389Y-57269939D03*
%TD*%
D23*
%TO.C,R177*%
X147500000Y-86940000D03*
X147500000Y-87960000D03*
%TD*%
D27*
%TO.C,C98*%
X148137187Y-97020558D03*
X149687187Y-97020558D03*
%TD*%
D26*
%TO.C,C21*%
X187647453Y-104656647D03*
X187647453Y-103556647D03*
%TD*%
D38*
%TO.C,Y3*%
X151155000Y-91950000D03*
X153355000Y-91950000D03*
X153355000Y-93550000D03*
X151155000Y-93550000D03*
%TD*%
D28*
%TO.C,R105*%
X129275000Y-83798400D03*
X129275000Y-82938400D03*
%TD*%
D34*
%TO.C,C43*%
X121220989Y-49472239D03*
D35*
X121220989Y-44372239D03*
%TD*%
D28*
%TO.C,R166*%
X154060000Y-120740000D03*
X154060000Y-121600000D03*
%TD*%
D26*
%TO.C,C57*%
X142825200Y-64772000D03*
X142825200Y-63672000D03*
%TD*%
D32*
%TO.C,R71*%
X145748000Y-61682000D03*
X146608000Y-61682000D03*
%TD*%
%TO.C,R65*%
X120259389Y-63493039D03*
X121119389Y-63493039D03*
%TD*%
D39*
%TO.C,JP2*%
X138050000Y-60300000D03*
D40*
X138050000Y-59000000D03*
%TD*%
D41*
%TO.C,C89*%
X148730000Y-93950000D03*
X148730000Y-92400000D03*
%TD*%
D27*
%TO.C,C111*%
X151155000Y-95500000D03*
X152705000Y-95500000D03*
%TD*%
D28*
%TO.C,R104*%
X129290000Y-81003400D03*
X129290000Y-80143400D03*
%TD*%
D36*
%TO.C,C63*%
X125875000Y-93738400D03*
X124775000Y-93738400D03*
%TD*%
D26*
%TO.C,C56*%
X144095200Y-51895200D03*
X144095200Y-52995200D03*
%TD*%
D24*
%TO.C,R185*%
X130410000Y-98257500D03*
X130410000Y-97237500D03*
%TD*%
D34*
%TO.C,C51*%
X148362400Y-49490000D03*
D35*
X148362400Y-44390000D03*
%TD*%
D41*
%TO.C,C119*%
X134980000Y-97800000D03*
X134980000Y-96250000D03*
%TD*%
D32*
%TO.C,R135*%
X110740000Y-86388400D03*
X111600000Y-86388400D03*
%TD*%
%TO.C,R151*%
X147950000Y-89150000D03*
X148810000Y-89150000D03*
%TD*%
D42*
%TO.C,D6*%
X118223789Y-54655439D03*
X118223789Y-52315439D03*
%TD*%
D34*
%TO.C,C42*%
X127977389Y-49472239D03*
D35*
X127977389Y-44372239D03*
%TD*%
D32*
%TO.C,R112*%
X124620000Y-97638400D03*
X125480000Y-97638400D03*
%TD*%
D41*
%TO.C,C118*%
X136580000Y-97775000D03*
X136580000Y-96225000D03*
%TD*%
D27*
%TO.C,C92*%
X148137187Y-100070558D03*
X149687187Y-100070558D03*
%TD*%
D29*
%TO.C,R167*%
X133740000Y-88750000D03*
X132720000Y-88750000D03*
%TD*%
D32*
%TO.C,R133*%
X110745000Y-88938400D03*
X111605000Y-88938400D03*
%TD*%
D31*
%TO.C,C116*%
X138070000Y-99325000D03*
X138070000Y-100875000D03*
%TD*%
D27*
%TO.C,C101*%
X148137025Y-95498771D03*
X149687025Y-95498771D03*
%TD*%
D28*
%TO.C,R123*%
X113975000Y-100023400D03*
X113975000Y-99163400D03*
%TD*%
%TO.C,R140*%
X118375000Y-85923400D03*
X118375000Y-86783400D03*
%TD*%
%TO.C,R113*%
X126750000Y-100043400D03*
X126750000Y-99183400D03*
%TD*%
D43*
%TO.C,Y1*%
X128150000Y-85843400D03*
X128150000Y-88043400D03*
X126450000Y-88043400D03*
X126450000Y-85843400D03*
%TD*%
D23*
%TO.C,R187*%
X137980000Y-92890000D03*
X137980000Y-93910000D03*
%TD*%
D32*
%TO.C,R127*%
X110745000Y-96588400D03*
X111605000Y-96588400D03*
%TD*%
D28*
%TO.C,R63*%
X119849389Y-53614239D03*
X119849389Y-54474239D03*
%TD*%
D32*
%TO.C,R132*%
X110745000Y-90213400D03*
X111605000Y-90213400D03*
%TD*%
D31*
%TO.C,C113*%
X134920000Y-100575000D03*
X134920000Y-102125000D03*
%TD*%
D24*
%TO.C,R186*%
X136960000Y-93900000D03*
X136960000Y-92880000D03*
%TD*%
D32*
%TO.C,R68*%
X138073600Y-63307600D03*
X137213600Y-63307600D03*
%TD*%
D28*
%TO.C,R115*%
X124150000Y-100038400D03*
X124150000Y-99178400D03*
%TD*%
D26*
%TO.C,C86*%
X137280000Y-83000000D03*
X137280000Y-81900000D03*
%TD*%
D44*
%TO.C,U9*%
X184685053Y-107537447D03*
X184185053Y-107537447D03*
X183685053Y-107537447D03*
X183185053Y-107537447D03*
X182685053Y-107537447D03*
X182685053Y-103317447D03*
X183185053Y-103317447D03*
X183685053Y-103317447D03*
X184185053Y-103317447D03*
X184685053Y-103317447D03*
%TD*%
D45*
%TO.C,U25*%
X140410000Y-89080000D03*
X140910000Y-89080000D03*
X141410000Y-89080000D03*
X141910000Y-89080000D03*
X142410000Y-89080000D03*
X142910000Y-89080000D03*
X143410000Y-89080000D03*
X143910000Y-89080000D03*
X144410000Y-89080000D03*
X144910000Y-89080000D03*
X145410000Y-89080000D03*
X145910000Y-89080000D03*
D46*
X146630000Y-89800000D03*
X146630000Y-90300000D03*
X146630000Y-90800000D03*
X146630000Y-91300000D03*
X146630000Y-91800000D03*
X146630000Y-92300000D03*
X146630000Y-92800000D03*
X146630000Y-93300000D03*
X146630000Y-93800000D03*
X146630000Y-94300000D03*
X146630000Y-94800000D03*
X146630000Y-95300000D03*
D45*
X145910000Y-96020000D03*
X145410000Y-96020000D03*
X144910000Y-96020000D03*
X144410000Y-96020000D03*
X143910000Y-96020000D03*
X143410000Y-96020000D03*
X142910000Y-96020000D03*
X142410000Y-96020000D03*
X141910000Y-96020000D03*
X141410000Y-96020000D03*
X140910000Y-96020000D03*
X140410000Y-96020000D03*
D46*
X139690000Y-95300000D03*
X139690000Y-94800000D03*
X139690000Y-94300000D03*
X139690000Y-93800000D03*
X139690000Y-93300000D03*
X139690000Y-92800000D03*
X139690000Y-92300000D03*
X139690000Y-91800000D03*
X139690000Y-91300000D03*
X139690000Y-90800000D03*
X139690000Y-90300000D03*
X139690000Y-89800000D03*
D47*
X143160000Y-92550000D03*
%TD*%
D48*
%TO.C,R24*%
X186225053Y-104728447D03*
X186225053Y-103078447D03*
%TD*%
D26*
%TO.C,C54*%
X145314400Y-54629600D03*
X145314400Y-55729600D03*
%TD*%
D28*
%TO.C,R142*%
X120975000Y-85923400D03*
X120975000Y-86783400D03*
%TD*%
D49*
%TO.C,U16*%
X119849389Y-56127039D03*
X120499389Y-56127039D03*
X121149389Y-56127039D03*
X121799389Y-56127039D03*
X122449389Y-56127039D03*
X123099389Y-56127039D03*
X123749389Y-56127039D03*
X123749389Y-61852039D03*
X123099389Y-61852039D03*
X122449389Y-61852039D03*
X121799389Y-61852039D03*
X121149389Y-61852039D03*
X120499389Y-61852039D03*
X119849389Y-61852039D03*
%TD*%
D32*
%TO.C,R52*%
X126222989Y-62949039D03*
X125362989Y-62949039D03*
%TD*%
D28*
%TO.C,R81*%
X140234400Y-53632000D03*
X140234400Y-54492000D03*
%TD*%
%TO.C,R124*%
X112700000Y-100023400D03*
X112700000Y-99163400D03*
%TD*%
D31*
%TO.C,C127*%
X160059600Y-100587200D03*
X160059600Y-102137200D03*
%TD*%
D32*
%TO.C,R70*%
X146608000Y-62966800D03*
X145748000Y-62966800D03*
%TD*%
D23*
%TO.C,R171*%
X140480000Y-97250000D03*
X140480000Y-98270000D03*
%TD*%
D50*
%TO.C,U21*%
X163100000Y-124225000D03*
X161600000Y-124225000D03*
X160100000Y-124225000D03*
X158600000Y-124225000D03*
D51*
X160850000Y-117925000D03*
%TD*%
D32*
%TO.C,R128*%
X110745000Y-95313400D03*
X111605000Y-95313400D03*
%TD*%
D52*
%TO.C,TP42*%
X147651200Y-57313200D03*
%TD*%
D53*
%TO.C,R188*%
X132120000Y-93197500D03*
X133140000Y-93197500D03*
%TD*%
D28*
%TO.C,R107*%
X118795000Y-81018400D03*
X118795000Y-80158400D03*
%TD*%
D27*
%TO.C,C108*%
X151205000Y-98550000D03*
X152755000Y-98550000D03*
%TD*%
D32*
%TO.C,R64*%
X120259389Y-64813839D03*
X121119389Y-64813839D03*
%TD*%
D24*
%TO.C,R176*%
X146480000Y-87960000D03*
X146480000Y-86940000D03*
%TD*%
D27*
%TO.C,C104*%
X151212187Y-100070558D03*
X152762187Y-100070558D03*
%TD*%
D48*
%TO.C,R25*%
X186225053Y-107776447D03*
X186225053Y-106126447D03*
%TD*%
D54*
%TO.C,TV2*%
X131250000Y-130840000D03*
X131250000Y-131790000D03*
X131250000Y-132740000D03*
X128550000Y-132740000D03*
X128550000Y-131790000D03*
X128550000Y-130840000D03*
%TD*%
D27*
%TO.C,C110*%
X151155000Y-97050000D03*
X152705000Y-97050000D03*
%TD*%
D23*
%TO.C,R174*%
X143480000Y-97240000D03*
X143480000Y-98260000D03*
%TD*%
D28*
%TO.C,R106*%
X127995000Y-81018400D03*
X127995000Y-80158400D03*
%TD*%
D32*
%TO.C,R72*%
X146584800Y-60426800D03*
X145724800Y-60426800D03*
%TD*%
D53*
%TO.C,R189*%
X141120000Y-87250000D03*
X142140000Y-87250000D03*
%TD*%
D25*
%TO.C,C115*%
X141705000Y-103150000D03*
X140155000Y-103150000D03*
%TD*%
D32*
%TO.C,R76*%
X137901200Y-55992400D03*
X138761200Y-55992400D03*
%TD*%
D31*
%TO.C,C114*%
X136480000Y-99350000D03*
X136480000Y-100900000D03*
%TD*%
D25*
%TO.C,C109*%
X146380000Y-100500000D03*
X144830000Y-100500000D03*
%TD*%
D32*
%TO.C,R6*%
X157716800Y-91742400D03*
X158576800Y-91742400D03*
%TD*%
D42*
%TO.C,D9*%
X138608800Y-54673200D03*
X138608800Y-52333200D03*
%TD*%
D55*
%TO.C,U26*%
X139680000Y-84500000D03*
X139680000Y-85450000D03*
X139680000Y-86400000D03*
D56*
X137380000Y-86400000D03*
X137380000Y-84500000D03*
%TD*%
D23*
%TO.C,R182*%
X142025000Y-99190000D03*
X142025000Y-100210000D03*
%TD*%
D25*
%TO.C,C94*%
X133605000Y-85850000D03*
X132055000Y-85850000D03*
%TD*%
D39*
%TO.C,JP1*%
X117664989Y-60282239D03*
D40*
X117664989Y-58982239D03*
%TD*%
D32*
%TO.C,R155*%
X135810000Y-85400000D03*
X134950000Y-85400000D03*
%TD*%
D28*
%TO.C,R153*%
X134290000Y-93195000D03*
X134290000Y-94055000D03*
%TD*%
D23*
%TO.C,R180*%
X140975000Y-99200000D03*
X140975000Y-100220000D03*
%TD*%
D28*
%TO.C,R160*%
X132700000Y-120611428D03*
X132700000Y-121471428D03*
%TD*%
D26*
%TO.C,C82*%
X139880000Y-83000000D03*
X139880000Y-81900000D03*
%TD*%
D28*
%TO.C,R147*%
X161950000Y-127000000D03*
X161950000Y-126140000D03*
%TD*%
D31*
%TO.C,C103*%
X136680000Y-88075000D03*
X136680000Y-89625000D03*
%TD*%
D24*
%TO.C,R175*%
X147930000Y-91210000D03*
X147930000Y-90190000D03*
%TD*%
D25*
%TO.C,C107*%
X146380000Y-98970000D03*
X144830000Y-98970000D03*
%TD*%
D57*
%TO.C,U28*%
X133630000Y-91970000D03*
X132980000Y-91970000D03*
X132330000Y-91970000D03*
X132330000Y-89990000D03*
X132980000Y-89990000D03*
X133630000Y-89990000D03*
%TD*%
D26*
%TO.C,C83*%
X138601200Y-83000000D03*
X138601200Y-81900000D03*
%TD*%
D28*
%TO.C,R121*%
X116525000Y-100023400D03*
X116525000Y-99163400D03*
%TD*%
D32*
%TO.C,R82*%
X140644400Y-64831600D03*
X141504400Y-64831600D03*
%TD*%
D23*
%TO.C,R169*%
X142480000Y-97240000D03*
X142480000Y-98260000D03*
%TD*%
D32*
%TO.C,R157*%
X134949899Y-86673008D03*
X135809899Y-86673008D03*
%TD*%
D28*
%TO.C,R116*%
X122875000Y-100043400D03*
X122875000Y-99183400D03*
%TD*%
D42*
%TO.C,D4*%
X116293389Y-54655439D03*
X116293389Y-52315439D03*
%TD*%
D41*
%TO.C,C117*%
X138130000Y-97825000D03*
X138130000Y-96275000D03*
%TD*%
D37*
%TO.C,D8*%
X145822400Y-58862700D03*
X145822400Y-57287700D03*
%TD*%
D28*
%TO.C,R162*%
X131350000Y-120590000D03*
X131350000Y-121450000D03*
%TD*%
D23*
%TO.C,R172*%
X139480000Y-97250000D03*
X139480000Y-98270000D03*
%TD*%
D32*
%TO.C,R159*%
X119120000Y-120700000D03*
X119980000Y-120700000D03*
%TD*%
D42*
%TO.C,D7*%
X136678400Y-54673200D03*
X136678400Y-52333200D03*
%TD*%
D32*
%TO.C,R126*%
X110740000Y-97863400D03*
X111600000Y-97863400D03*
%TD*%
D36*
%TO.C,C64*%
X125880000Y-92413400D03*
X124780000Y-92413400D03*
%TD*%
%TO.C,C62*%
X125875000Y-91113400D03*
X124775000Y-91113400D03*
%TD*%
D26*
%TO.C,C45*%
X126351789Y-53231439D03*
X126351789Y-52131439D03*
%TD*%
D32*
%TO.C,R80*%
X141070800Y-52334800D03*
X140210800Y-52334800D03*
%TD*%
D58*
%TO.C,Q2*%
X130630000Y-94800000D03*
X132530000Y-94800000D03*
X131580000Y-96675000D03*
%TD*%
D54*
%TO.C,TV4*%
X151150000Y-130615000D03*
X151150000Y-131565000D03*
X151150000Y-132515000D03*
X148450000Y-132515000D03*
X148450000Y-131565000D03*
X148450000Y-130615000D03*
%TD*%
D26*
%TO.C,C84*%
X150180000Y-88250000D03*
X150180000Y-87150000D03*
%TD*%
D32*
%TO.C,R75*%
X142828800Y-54468400D03*
X143688800Y-54468400D03*
%TD*%
D28*
%TO.C,R73*%
X146686000Y-55609600D03*
X146686000Y-54749600D03*
%TD*%
%TO.C,R118*%
X120325000Y-100028400D03*
X120325000Y-99168400D03*
%TD*%
%TO.C,R78*%
X141504400Y-53632000D03*
X141504400Y-54492000D03*
%TD*%
D24*
%TO.C,R184*%
X137980000Y-91960000D03*
X137980000Y-90940000D03*
%TD*%
D32*
%TO.C,R69*%
X137186000Y-62001600D03*
X138046000Y-62001600D03*
%TD*%
D26*
%TO.C,C53*%
X146736800Y-53249200D03*
X146736800Y-52149200D03*
%TD*%
D32*
%TO.C,R57*%
X122443789Y-54450639D03*
X123303789Y-54450639D03*
%TD*%
%TO.C,R53*%
X125362989Y-61664239D03*
X126222989Y-61664239D03*
%TD*%
D26*
%TO.C,C46*%
X124929389Y-54611839D03*
X124929389Y-55711839D03*
%TD*%
%TO.C,C48*%
X123710189Y-51877439D03*
X123710189Y-52977439D03*
%TD*%
D27*
%TO.C,C95*%
X148162187Y-98550558D03*
X149712187Y-98550558D03*
%TD*%
D32*
%TO.C,R129*%
X110745000Y-94038400D03*
X111605000Y-94038400D03*
%TD*%
D28*
%TO.C,R150*%
X134880000Y-91140000D03*
X134880000Y-92000000D03*
%TD*%
%TO.C,R148*%
X141230000Y-85020000D03*
X141230000Y-85880000D03*
%TD*%
D25*
%TO.C,C97*%
X133630000Y-87430000D03*
X132080000Y-87430000D03*
%TD*%
D59*
%TO.C,U29*%
X157890400Y-96354600D03*
X158840400Y-96354600D03*
X159790400Y-96354600D03*
X159790400Y-99054600D03*
X158840400Y-99054600D03*
X157890400Y-99054600D03*
%TD*%
D26*
%TO.C,C65*%
X130078800Y-86363400D03*
X130078800Y-85263400D03*
%TD*%
D28*
%TO.C,R120*%
X117775000Y-100023400D03*
X117775000Y-99163400D03*
%TD*%
D27*
%TO.C,C126*%
X157824400Y-94758200D03*
X159374400Y-94758200D03*
%TD*%
D60*
%TO.C,Q1*%
X132230000Y-100200000D03*
X132230000Y-98300000D03*
X134105000Y-99250000D03*
%TD*%
D25*
%TO.C,C105*%
X146405000Y-97450000D03*
X144855000Y-97450000D03*
%TD*%
D28*
%TO.C,R125*%
X111425000Y-100023400D03*
X111425000Y-99163400D03*
%TD*%
D49*
%TO.C,U17*%
X140234400Y-56144800D03*
X140884400Y-56144800D03*
X141534400Y-56144800D03*
X142184400Y-56144800D03*
X142834400Y-56144800D03*
X143484400Y-56144800D03*
X144134400Y-56144800D03*
X144134400Y-61869800D03*
X143484400Y-61869800D03*
X142834400Y-61869800D03*
X142184400Y-61869800D03*
X141534400Y-61869800D03*
X140884400Y-61869800D03*
X140234400Y-61869800D03*
%TD*%
D26*
%TO.C,C78*%
X158575000Y-114425000D03*
X158575000Y-115525000D03*
%TD*%
D23*
%TO.C,R170*%
X141480000Y-97240000D03*
X141480000Y-98260000D03*
%TD*%
D36*
%TO.C,C85*%
X147830000Y-85850000D03*
X146730000Y-85850000D03*
%TD*%
D61*
%TO.C,R49*%
X114007389Y-55060239D03*
X114007389Y-52135239D03*
%TD*%
D31*
%TO.C,C100*%
X135120000Y-88100000D03*
X135120000Y-89650000D03*
%TD*%
D28*
%TO.C,R67*%
X135021900Y-51756100D03*
X135021900Y-52616100D03*
%TD*%
D36*
%TO.C,C81*%
X159950000Y-127125000D03*
X158850000Y-127125000D03*
%TD*%
D26*
%TO.C,C49*%
X122440189Y-64754239D03*
X122440189Y-63654239D03*
%TD*%
D32*
%TO.C,R20*%
X160710400Y-91742400D03*
X159850400Y-91742400D03*
%TD*%
D28*
%TO.C,R119*%
X119050000Y-100023400D03*
X119050000Y-99163400D03*
%TD*%
D62*
%TO.C,L5*%
X128025000Y-90468400D03*
X128025000Y-92408400D03*
%TD*%
D27*
%TO.C,C99*%
X148155000Y-103200000D03*
X149705000Y-103200000D03*
%TD*%
D28*
%TO.C,R55*%
X126300989Y-55591839D03*
X126300989Y-54731839D03*
%TD*%
D25*
%TO.C,C88*%
X151830000Y-89850000D03*
X150280000Y-89850000D03*
%TD*%
D28*
%TO.C,R122*%
X115250000Y-100023400D03*
X115250000Y-99163400D03*
%TD*%
D61*
%TO.C,R66*%
X133142300Y-54871300D03*
X133142300Y-51946300D03*
%TD*%
D63*
%TO.C,Card1*%
X170777401Y-133189199D03*
X171877401Y-133189199D03*
X172977401Y-133189199D03*
X174077401Y-133189199D03*
X175177401Y-133189199D03*
X176277401Y-133189199D03*
X177377401Y-133189199D03*
X178477401Y-133189199D03*
D64*
X180537401Y-124229199D03*
D65*
X180537401Y-131699199D03*
D66*
X179887401Y-133329199D03*
D67*
X167227401Y-133279199D03*
D68*
X167137401Y-118429199D03*
X180427401Y-118429199D03*
%TD*%
D32*
%TO.C,R77*%
X138761200Y-57262400D03*
X137901200Y-57262400D03*
%TD*%
D54*
%TO.C,TV3*%
X125450000Y-130790000D03*
X125450000Y-131740000D03*
X125450000Y-132690000D03*
X122750000Y-132690000D03*
X122750000Y-131740000D03*
X122750000Y-130790000D03*
%TD*%
D28*
%TO.C,R61*%
X118934989Y-63875839D03*
X118934989Y-64735839D03*
%TD*%
D26*
%TO.C,C68*%
X124675000Y-87313400D03*
X124675000Y-88413400D03*
%TD*%
D32*
%TO.C,R134*%
X110740000Y-87663400D03*
X111600000Y-87663400D03*
%TD*%
D28*
%TO.C,R56*%
X125030989Y-52269839D03*
X125030989Y-53129839D03*
%TD*%
D36*
%TO.C,C80*%
X156225000Y-127125000D03*
X157325000Y-127125000D03*
%TD*%
D54*
%TO.C,TV5*%
X145850000Y-130650000D03*
X145850000Y-131600000D03*
X145850000Y-132550000D03*
X143150000Y-132550000D03*
X143150000Y-131600000D03*
X143150000Y-130650000D03*
%TD*%
D32*
%TO.C,R131*%
X110745000Y-91488400D03*
X111605000Y-91488400D03*
%TD*%
D28*
%TO.C,R152*%
X135580000Y-94060000D03*
X135580000Y-93200000D03*
%TD*%
D32*
%TO.C,R161*%
X118900000Y-121950000D03*
X118040000Y-121950000D03*
%TD*%
D28*
%TO.C,R60*%
X121119389Y-53614239D03*
X121119389Y-54474239D03*
%TD*%
D32*
%TO.C,R211*%
X157750000Y-100447800D03*
X158610000Y-100447800D03*
%TD*%
D52*
%TO.C,TP36*%
X127266189Y-57295439D03*
%TD*%
D28*
%TO.C,R138*%
X115825000Y-85903400D03*
X115825000Y-86763400D03*
%TD*%
D32*
%TO.C,R51*%
X116800989Y-61983839D03*
X117660989Y-61983839D03*
%TD*%
D26*
%TO.C,C47*%
X122389389Y-51886239D03*
X122389389Y-52986239D03*
%TD*%
D32*
%TO.C,R110*%
X125485000Y-96338400D03*
X124625000Y-96338400D03*
%TD*%
D25*
%TO.C,C128*%
X160598200Y-86306800D03*
X159048200Y-86306800D03*
%TD*%
D32*
%TO.C,R50*%
X117688589Y-63289839D03*
X116828589Y-63289839D03*
%TD*%
D69*
%TO.C,U27*%
X148410000Y-87292500D03*
D70*
X149050000Y-87292500D03*
D71*
X149050000Y-88152500D03*
D72*
X148410000Y-88152500D03*
D73*
X148730000Y-87722500D03*
%TD*%
D34*
%TO.C,C50*%
X141606000Y-49490000D03*
D35*
X141606000Y-44390000D03*
%TD*%
D34*
%TO.C,C52*%
X134849600Y-49500000D03*
D35*
X134849600Y-44400000D03*
%TD*%
D28*
%TO.C,R108*%
X118795000Y-83098400D03*
X118795000Y-82238400D03*
%TD*%
D31*
%TO.C,C106*%
X138230000Y-88075000D03*
X138230000Y-89625000D03*
%TD*%
D26*
%TO.C,C71*%
X117515000Y-81373400D03*
X117515000Y-80273400D03*
%TD*%
D28*
%TO.C,R146*%
X163225000Y-127000000D03*
X163225000Y-126140000D03*
%TD*%
D74*
%TO.C,U20*%
X122885000Y-89138400D03*
X122885000Y-89638400D03*
X122885000Y-90138400D03*
X122885000Y-90638400D03*
X122885000Y-91138400D03*
X122885000Y-91638400D03*
X122885000Y-92138400D03*
X122885000Y-92638400D03*
X122885000Y-93138400D03*
X122885000Y-93638400D03*
X122885000Y-94138400D03*
X122885000Y-94638400D03*
X122885000Y-95138400D03*
X122885000Y-95638400D03*
X122885000Y-96138400D03*
X122885000Y-96638400D03*
D75*
X122055000Y-97468400D03*
X121555000Y-97468400D03*
X121055000Y-97468400D03*
X120555000Y-97468400D03*
X120055000Y-97468400D03*
X119555000Y-97468400D03*
X119055000Y-97468400D03*
X118555000Y-97468400D03*
X118055000Y-97468400D03*
X117555000Y-97468400D03*
X117055000Y-97468400D03*
X116555000Y-97468400D03*
X116055000Y-97468400D03*
X115555000Y-97468400D03*
X115055000Y-97468400D03*
X114555000Y-97468400D03*
D74*
X113725000Y-96638400D03*
X113725000Y-96138400D03*
X113725000Y-95638400D03*
X113725000Y-95138400D03*
X113725000Y-94638400D03*
X113725000Y-94138400D03*
X113725000Y-93638400D03*
X113725000Y-93138400D03*
X113725000Y-92638400D03*
X113725000Y-92138400D03*
X113725000Y-91638400D03*
X113725000Y-91138400D03*
X113725000Y-90638400D03*
X113725000Y-90138400D03*
X113725000Y-89638400D03*
X113725000Y-89138400D03*
D75*
X114555000Y-88308400D03*
X115055000Y-88308400D03*
X115555000Y-88308400D03*
X116055000Y-88308400D03*
X116555000Y-88308400D03*
X117055000Y-88308400D03*
X117555000Y-88308400D03*
X118055000Y-88308400D03*
X118555000Y-88308400D03*
X119055000Y-88308400D03*
X119555000Y-88308400D03*
X120055000Y-88308400D03*
X120555000Y-88308400D03*
X121055000Y-88308400D03*
X121555000Y-88308400D03*
X122055000Y-88308400D03*
D76*
X118305000Y-92888400D03*
%TD*%
D24*
%TO.C,R179*%
X139925000Y-100210000D03*
X139925000Y-99190000D03*
%TD*%
D32*
%TO.C,R58*%
X117516189Y-55974639D03*
X118376189Y-55974639D03*
%TD*%
D26*
%TO.C,C79*%
X157250000Y-114450000D03*
X157250000Y-115550000D03*
%TD*%
D77*
%TO.C,L6*%
X156114800Y-88204000D03*
X156114800Y-90404000D03*
%TD*%
D31*
%TO.C,C93*%
X145050000Y-102050000D03*
X145050000Y-103600000D03*
%TD*%
D28*
%TO.C,R137*%
X114550000Y-85903400D03*
X114550000Y-86763400D03*
%TD*%
D23*
%TO.C,R183*%
X136940000Y-90940000D03*
X136940000Y-91960000D03*
%TD*%
D32*
%TO.C,R62*%
X120685789Y-52317039D03*
X119825789Y-52317039D03*
%TD*%
%TO.C,R130*%
X110745000Y-92763400D03*
X111605000Y-92763400D03*
%TD*%
D28*
%TO.C,R102*%
X127970000Y-82958400D03*
X127970000Y-83818400D03*
%TD*%
D32*
%TO.C,R83*%
X140644400Y-63510800D03*
X141504400Y-63510800D03*
%TD*%
D28*
%TO.C,R139*%
X117100000Y-85918400D03*
X117100000Y-86778400D03*
%TD*%
%TO.C,R165*%
X140490000Y-121650000D03*
X140490000Y-120790000D03*
%TD*%
D31*
%TO.C,C96*%
X146580000Y-102075000D03*
X146580000Y-103625000D03*
%TD*%
D28*
%TO.C,R114*%
X125425000Y-100038400D03*
X125425000Y-99178400D03*
%TD*%
D32*
%TO.C,R59*%
X118376189Y-57244639D03*
X117516189Y-57244639D03*
%TD*%
D54*
%TO.C,TV1*%
X153200000Y-116100000D03*
X153200000Y-115150000D03*
X153200000Y-114200000D03*
X155900000Y-114200000D03*
X155900000Y-115150000D03*
X155900000Y-116100000D03*
%TD*%
D62*
%TO.C,L4*%
X128025000Y-96708400D03*
X128025000Y-94768400D03*
%TD*%
M02*
