M48
; DRILL file {KiCad 9.0.1} date 2025-07-09T12:24:19-0700
; FORMAT={-:-/ absolute / inch / decimal}
; #@! TF.CreationDate,2025-07-09T12:24:19-07:00
; #@! TF.GenerationSoftware,Kicad,Pcbnew,9.0.1
; #@! TF.FileFunction,Plated,1,6,PTH
FMAT,2
INCH
; #@! TA.AperFunction,Plated,PTH,ViaDrill
T1C0.0079
; #@! TA.AperFunction,Plated,PTH,ViaDrill
T2C0.0118
; #@! TA.AperFunction,Plated,PTH,ViaDrill
T3C0.0157
; #@! TA.AperFunction,Plated,PTH,ComponentDrill
T4C0.0197
; #@! TA.AperFunction,Plated,PTH,ComponentDrill
T5C0.0236
; #@! TA.AperFunction,Plated,PTH,ComponentDrill
T6C0.0315
; #@! TA.AperFunction,Plated,PTH,ComponentDrill
T7C0.0360
; #@! TA.AperFunction,Plated,PTH,ComponentDrill
T8C0.0394
; #@! TA.AperFunction,Plated,PTH,ComponentDrill
T9C0.0394
; #@! TA.AperFunction,Plated,PTH,ComponentDrill
T10C0.0669
; #@! TA.AperFunction,Plated,PTH,ComponentDrill
T11C0.0984
; #@! TA.AperFunction,Plated,PTH,ComponentDrill
T12C0.1280
%
G90
G05
T1
X6.6504Y-4.5476
X6.6535Y-4.4969
T2
X4.0797Y-2.9972
X4.0797Y-3.5303
X4.0797Y-3.7335
X4.0797Y-4.2665
X4.0837Y-4.4815
X4.0837Y-5.0146
X4.0866Y-2.2616
X4.0866Y-2.7947
X4.5551Y-4.6634
X4.5866Y-4.6142
X4.5873Y-4.6863
X4.6096Y-4.6641
X4.6227Y-4.7907
X4.6319Y-4.5846
X4.6326Y-3.9166
X4.6365Y-4.0269
X4.645Y-4.7684
X4.6548Y-3.8944
X4.6575Y-4.5039
X4.6575Y-4.5413
X4.6588Y-4.0046
X4.687Y-4.4705
X4.7008Y-4.4409
X4.7126Y-3.7362
X4.7244Y-4.4134
X4.7441Y-2.061
X4.7441Y-3.7205
X4.7638Y-4.3898
X4.7815Y-3.7067
X4.7933Y-4.3661
X4.8307Y-3.7028
X4.8425Y-4.372
X4.8583Y-4.0492
X4.8642Y-3.9134
X4.8661Y-4.7185
X4.8711Y-3.8256
X4.872Y-4.3465
X4.872Y-4.4449
X4.8728Y-3.0888
X4.873Y-4.2343
X4.8735Y-3.4982
X4.874Y-3.7047
X4.875Y-4.9823
X4.875Y-4.5728
X4.8751Y-3.1733
X4.877Y-2.3531
X4.877Y-3.628
X4.8786Y-3.2723
X4.8789Y-2.7587
X4.8839Y-3.3406
X4.8878Y-4.7854
X4.8917Y-4.3228
X4.8937Y-4.0669
X4.8974Y-3.1956
X4.8976Y-3.9134
X4.8976Y-4.6811
X4.8996Y-4.7126
X4.9008Y-3.874
X4.9008Y-4.126
X4.9009Y-3.2946
X4.9016Y-3.138
X4.9016Y-3.388
X4.9047Y-4.622
X4.9047Y-4.874
X4.9067Y-2.4024
X4.9067Y-2.6524
X4.9114Y-3.2618
X4.9134Y-2.5413
X4.9154Y-2.5118
X4.9154Y-3.7028
X4.9154Y-4.3071
X4.9193Y-4.4016
X4.9193Y-4.7913
X4.9311Y-3.187
X4.9311Y-3.2815
X4.9331Y-3.3839
X4.935Y-3.9154
X4.936Y-3.7677
X4.936Y-3.8256
X4.937Y-4.1752
X4.9378Y-3.438
X4.9378Y-3.0297
X4.9378Y-3.0888
X4.938Y-4.2343
X4.9384Y-3.4982
X4.94Y-4.5138
X4.94Y-4.9823
X4.94Y-4.5728
X4.94Y-4.9232
X4.9419Y-2.2941
X4.9419Y-2.3531
X4.9439Y-2.6996
X4.9439Y-2.7587
X4.9449Y-4.065
X4.9469Y-2.6457
X4.9488Y-2.8071
X4.9488Y-2.8386
X4.9528Y-2.6083
X4.9528Y-3.2067
X4.9528Y-3.7028
X4.9528Y-4.3839
X4.9547Y-3.3071
X4.9547Y-4.622
X4.9587Y-4.8031
X4.9705Y-3.9134
X4.9751Y-2.4475
X4.9764Y-2.872
X4.9823Y-3.2303
X4.9823Y-3.7874
X4.9843Y-4.061
X4.9843Y-4.6181
X4.9862Y-4.3622
X4.9882Y-4.2303
X4.9921Y-4.7815
X4.9941Y-3.7008
X4.9961Y-3.4449
X4.9974Y-2.4698
X5.001Y-3.628
X5.0059Y-4.7106
X5.0098Y-2.9075
X5.0098Y-3.9134
X5.0118Y-3.7874
X5.0118Y-4.2047
X5.0138Y-2.5945
X5.0138Y-2.6575
X5.0138Y-2.7894
X5.0138Y-3.2441
X5.0138Y-4.3346
X5.0157Y-4.5984
X5.0177Y-4.7441
X5.0236Y-3.4744
X5.0256Y-3.6811
X5.0256Y-4.061
X5.0276Y-2.9429
X5.0315Y-4.3031
X5.0335Y-2.8386
X5.0335Y-4.687
X5.0354Y-3.8071
X5.0361Y-2.4928
X5.0413Y-3.248
X5.0413Y-4.1811
X5.0453Y-4.5689
X5.0492Y-3.9134
X5.0512Y-3.502
X5.0531Y-4.6614
X5.0584Y-2.5151
X5.063Y-3.6811
X5.063Y-3.8248
X5.065Y-4.1516
X5.0669Y-4.061
X5.0689Y-3.0
X5.0689Y-3.2717
X5.0709Y-4.2874
X5.0728Y-4.5413
X5.0748Y-2.748
X5.0768Y-3.5335
X5.0827Y-4.2264
X5.0866Y-3.9114
X5.0866Y-4.6299
X5.0886Y-2.5413
X5.0886Y-4.122
X5.0906Y-2.5846
X5.0906Y-2.7126
X5.0906Y-3.2894
X5.0925Y-2.6201
X5.0945Y-3.0098
X5.0965Y-3.8327
X5.0965Y-4.5157
X5.0984Y-3.6811
X5.1043Y-2.7736
X5.1083Y-2.6693
X5.1083Y-3.561
X5.1102Y-4.0433
X5.1102Y-4.6024
X5.1122Y-3.311
X5.1122Y-4.2008
X5.124Y-3.0295
X5.124Y-3.9134
X5.128Y-4.4882
X5.1319Y-2.813
X5.1339Y-3.3287
X5.1339Y-3.6811
X5.1339Y-3.8327
X5.1339Y-4.1752
X5.1358Y-3.5846
X5.1378Y-2.9409
X5.1378Y-4.0236
X5.1457Y-4.5984
X5.1555Y-2.8346
X5.1555Y-3.3484
X5.1575Y-3.0512
X5.1594Y-3.9331
X5.1594Y-4.0551
X5.1594Y-4.4547
X5.1634Y-4.1417
X5.1673Y-3.6142
X5.1693Y-3.6811
X5.1713Y-3.8327
X5.1732Y-4.5748
X5.1772Y-3.3681
X5.1791Y-2.874
X5.1811Y-1.7874
X5.1811Y-3.0787
X5.185Y-4.0197
X5.1909Y-4.122
X5.1909Y-4.4272
X5.1949Y-2.998
X5.1949Y-3.9528
X5.1988Y-3.3858
X5.2008Y-3.6496
X5.2028Y-2.9134
X5.2047Y-3.1358
X5.2047Y-3.6811
X5.2047Y-4.563
X5.2087Y-3.8346
X5.2146Y-4.5315
X5.2185Y-3.4055
X5.2244Y-4.5
X5.2264Y-3.0295
X5.2264Y-4.3957
X5.2323Y-3.9528
X5.2362Y-3.685
X5.2402Y-2.935
X5.2419Y-2.0986
X5.2441Y-3.4311
X5.2441Y-4.0669
X5.2441Y-4.4724
X5.248Y-3.8327
X5.25Y-3.1437
X5.252Y-4.3622
X5.2539Y-3.0591
X5.2657Y-4.0433
X5.2657Y-4.4488
X5.2677Y-3.1831
X5.2677Y-3.4508
X5.2697Y-3.9528
X5.2717Y-4.3386
X5.2736Y-3.2205
X5.2835Y-3.0846
X5.2854Y-3.8327
X5.2874Y-3.9232
X5.2913Y-4.3189
X5.2913Y-4.4252
X5.2933Y-3.4744
X5.2953Y-4.0197
X5.2972Y-2.9921
X5.2972Y-3.25
X5.311Y-4.4016
X5.313Y-4.2992
X5.3169Y-3.4961
X5.3169Y-3.8937
X5.3248Y-3.0236
X5.3268Y-3.8307
X5.3307Y-3.2657
X5.3307Y-4.378
X5.3346Y-4.0197
X5.3386Y-4.2815
X5.3406Y-3.1457
X5.3406Y-3.5217
X5.3425Y-3.8622
X5.3508Y-1.8898
X5.3524Y-3.063
X5.3543Y-3.9587
X5.3543Y-4.3583
X5.3642Y-3.2677
X5.3642Y-3.5433
X5.3701Y-3.5827
X5.3701Y-3.8445
X5.376Y-3.813
X5.376Y-4.2303
X5.3799Y-3.0886
X5.3799Y-4.0295
X5.3799Y-4.3327
X5.3878Y-3.9232
X5.3917Y-3.2972
X5.3976Y-3.9587
X5.3996Y-3.5984
X5.4016Y-4.2087
X5.4016Y-4.3071
X5.4114Y-2.502
X5.4134Y-3.9016
X5.4154Y-4.0433
X5.4193Y-3.3248
X5.4232Y-3.7933
X5.4311Y-3.878
X5.4311Y-4.189
X5.4331Y-3.1378
X5.437Y-3.5906
X5.437Y-4.2835
X5.4378Y-1.8898
X5.439Y-3.9547
X5.4417Y-2.5336
X5.4421Y-2.4716
X5.4429Y-3.2461
X5.4449Y-3.3484
X5.4508Y-3.8583
X5.4567Y-4.1614
X5.4587Y-3.1575
X5.463Y-2.5661
X5.4646Y-4.0453
X5.4691Y-3.5386
X5.4744Y-3.3701
X5.4778Y-3.4365
X5.4803Y-3.9547
X5.4803Y-4.1358
X5.4819Y-2.5913
X5.4862Y-3.189
X5.4921Y-4.2205
X5.4933Y-2.6207
X5.4941Y-3.8524
X5.498Y-3.2992
X5.4988Y-2.3583
X5.4992Y-2.6516
X5.5Y-4.0413
X5.5118Y-3.2165
X5.515Y-2.4938
X5.5157Y-4.1929
X5.5197Y-3.3209
X5.5199Y-1.9486
X5.5217Y-3.9547
X5.5256Y-2.4179
X5.5256Y-2.4494
X5.5315Y-1.6954
X5.5315Y-1.877
X5.5315Y-4.0709
X5.5335Y-4.0217
X5.5354Y-2.5177
X5.5374Y-3.8484
X5.5413Y-4.1732
X5.5433Y-3.252
X5.5433Y-3.3445
X5.5437Y-2.6507
X5.5492Y-3.7854
X5.563Y-3.9547
X5.5636Y-2.7992
X5.565Y-3.4646
X5.565Y-4.0531
X5.565Y-4.1516
X5.5655Y-3.5242
X5.5669Y-3.3681
X5.5669Y-3.6161
X5.5728Y-3.2795
X5.5728Y-3.8524
X5.5728Y-4.0177
X5.5929Y-2.696
X5.6129Y-2.4307
X5.6136Y-2.3992
X5.6185Y-2.4716
X5.6201Y-2.5118
X5.622Y-2.5433
X5.6309Y-3.4285
X5.6319Y-3.5236
X5.6319Y-3.8504
X5.6339Y-3.9547
X5.6382Y-2.5976
X5.6398Y-3.7854
X5.6437Y-3.6201
X5.6447Y-2.1675
X5.6496Y-2.8958
X5.6516Y-3.5512
X5.6575Y-4.0531
X5.6582Y-3.3528
X5.6593Y-2.0531
X5.6661Y-1.9742
X5.6673Y-3.939
X5.6713Y-3.8524
X5.6752Y-2.5945
X5.6791Y-3.7854
X5.6831Y-3.5768
X5.685Y-3.6201
X5.685Y-4.0256
X5.687Y-3.4961
X5.69Y-4.4949
X5.69Y-4.7272
X5.6976Y-1.9742
X5.7071Y-2.4007
X5.7175Y-2.5029
X5.7189Y-2.5976
X5.7362Y-3.6685
X5.7362Y-2.9627
X5.7402Y-3.9744
X5.7461Y-3.8602
X5.7551Y-3.5642
X5.7552Y-2.303
X5.7585Y-3.6463
X5.7642Y-2.4047
X5.7657Y-2.6004
X5.7677Y-3.9469
X5.7756Y-4.4122
X5.7815Y-2.7638
X5.7858Y-3.5984
X5.7858Y-3.6299
X5.7878Y-3.7402
X5.7878Y-3.7717
X5.79Y-3.8031
X5.79Y-3.8346
X5.7917Y-3.528
X5.7917Y-3.4902
X5.7929Y-3.5642
X5.7963Y-4.4949
X5.7963Y-4.7272
X5.8101Y-2.4365
X5.811Y-2.5
X5.8129Y-2.4679
X5.8141Y-2.573
X5.8169Y-2.6043
X5.8209Y-2.3051
X5.8268Y-3.9303
X5.8272Y-2.3994
X5.8383Y-2.8346
X5.8573Y-4.9555
X5.8573Y-4.8531
X5.8583Y-2.6732
X5.8583Y-2.7047
X5.8583Y-2.7362
X5.8583Y-2.7677
X5.859Y-2.7992
X5.8888Y-2.2064
X5.8888Y-2.3183
X5.8906Y-1.9742
X5.8907Y-4.4939
X5.8947Y-4.8531
X5.8948Y-3.6614
X5.8948Y-3.6299
X5.8976Y-3.2637
X5.8976Y-2.4547
X5.8976Y-4.674
X5.8977Y-3.6929
X5.8977Y-3.7244
X5.8983Y-3.8031
X5.8983Y-3.7717
X5.8996Y-4.615
X5.8998Y-3.8346
X5.8998Y-3.8661
X5.9016Y-2.5866
X5.9018Y-2.4235
X5.9024Y-2.6791
X5.9035Y-2.626
X5.9094Y-4.7961
X5.9174Y-3.5512
X5.922Y-1.9742
X5.9243Y-3.1875
X5.9255Y-3.7472
X5.9321Y-4.9555
X5.9321Y-4.8531
X5.9323Y-2.5798
X5.9348Y-2.0512
X5.9452Y-4.0612
X5.9455Y-2.3771
X5.9492Y-3.8693
X5.9523Y-4.3807
X5.9596Y-4.4791
X5.9596Y-4.5539
X5.9625Y-2.5707
X5.9626Y-4.674
X5.9642Y-3.8416
X5.9744Y-4.7961
X5.9823Y-3.4323
X5.9823Y-3.3945
X5.9882Y-2.1929
X5.9882Y-2.2382
X5.9896Y-2.5547
X5.9902Y-4.8551
X5.9935Y-3.8299
X5.9964Y-4.026
X5.9964Y-3.9882
X6.0005Y-2.4744
X6.02Y-3.4335
X6.02Y-3.3957
X6.023Y-3.3457
X6.024Y-3.5406
X6.0289Y-3.8339
X6.0338Y-3.9795
X6.0343Y-4.5132
X6.0472Y-2.4803
X6.0492Y-2.8228
X6.0551Y-4.8551
X6.0594Y-3.3957
X6.0594Y-3.4335
X6.0602Y-3.8312
X6.0651Y-3.9755
X6.0653Y-3.5425
X6.0813Y-4.6063
X6.0832Y-4.543
X6.0836Y-4.7364
X6.0891Y-4.6406
X6.0896Y-4.7055
X6.0915Y-4.672
X6.0935Y-4.3226
X6.0965Y-3.3185
X6.0965Y-3.3587
X6.1114Y-3.8337
X6.1132Y-4.4991
X6.1201Y-4.0268
X6.1201Y-3.989
X6.1224Y-3.5445
X6.1339Y-3.3189
X6.1339Y-3.3591
X6.1342Y-3.8693
X6.1511Y-3.5575
X6.1526Y-4.3226
X6.1634Y-5.3777
X6.1677Y-3.881
X6.1732Y-3.4303
X6.1732Y-3.389
X6.1742Y-2.6476
X6.1834Y-3.5583
X6.1919Y-4.5008
X6.194Y-4.8432
X6.1992Y-3.8831
X6.2116Y-3.5442
X6.2116Y-4.3226
X6.2133Y-3.4303
X6.2133Y-3.389
X6.2207Y-3.7351
X6.2304Y-3.6176
X6.2307Y-3.5858
X6.2312Y-4.8427
X6.2326Y-3.8004
X6.2346Y-3.6587
X6.2366Y-3.7079
X6.2366Y-3.8339
X6.2385Y-3.761
X6.2418Y-4.596
X6.251Y-4.5008
X6.2641Y-4.6182
X6.2671Y-4.8431
X6.2707Y-4.3226
X6.2823Y-2.2185
X6.2904Y-4.5008
X6.2972Y-2.7343
X6.3022Y-3.311
X6.3022Y-3.4008
X6.31Y-4.739
X6.314Y-4.6937
X6.3258Y-4.5776
X6.3417Y-3.7492
X6.3433Y-3.8425
X6.3642Y-3.3701
X6.3711Y-4.3413
X6.3795Y-3.7492
X6.3796Y-2.0147
X6.3811Y-3.8425
X6.385Y-2.6201
X6.4147Y-3.6213
X6.422Y-2.6201
X6.4552Y-3.9836
X6.4823Y-1.9567
X6.4823Y-2.0472
X6.4893Y-4.129
X6.4921Y-4.4952
X6.4983Y-4.0267
X6.4984Y-2.3055
X6.5Y-4.5717
X6.5138Y-4.676
X6.5591Y-2.7343
X6.5945Y-2.3524
X6.626Y-3.4705
X6.626Y-3.5709
X6.626Y-3.6713
X6.626Y-3.7717
X6.626Y-3.872
X6.626Y-3.9724
X6.6329Y-2.6476
X6.7161Y-2.0472
X6.7957Y-4.6504
X6.8081Y-3.4705
X6.8081Y-3.9715
T3
X6.0984Y-1.7768
X6.1085Y-2.0661
X6.1378Y-1.739
X6.1378Y-1.7795
X6.1654Y-1.9961
X6.187Y-1.7768
X6.2382Y-1.8386
X6.3125Y-4.865
X6.3201Y-2.2185
X6.3735Y-4.863
X6.3796Y-2.0895
X6.4665Y-1.7587
X6.4665Y-1.8083
X6.4665Y-1.8583
X6.6161Y-1.7835
X6.6511Y-4.8422
X6.6965Y-4.8429
X6.7657Y-1.7087
X6.7657Y-1.8083
X6.7657Y-1.8583
X6.8744Y-4.7839
X6.8756Y-4.8429
X7.0858Y-5.098
X7.2059Y-5.098
X7.3929Y-5.0567
X7.3969Y-4.2811
T4
X6.0197Y-2.6634
X6.0197Y-2.7028
X6.0197Y-2.7421
T6
X4.252Y-1.7402
X4.252Y-1.8189
X4.3307Y-1.7402
X4.3307Y-1.8189
X4.4094Y-1.7402
X4.4094Y-1.8189
X4.4882Y-1.7402
X4.4882Y-1.8189
X4.5669Y-1.7402
X4.5669Y-1.8189
X4.6457Y-1.7402
X4.6457Y-1.8189
X4.7244Y-1.7402
X4.7244Y-1.8189
X4.8031Y-1.7402
X4.8031Y-1.8189
X7.5433Y-2.3307
X7.5433Y-2.4094
X7.5433Y-2.4882
X7.5433Y-2.5669
X7.5433Y-2.6457
X7.5433Y-2.7244
X7.5433Y-2.8031
X7.5433Y-2.8819
X7.622Y-2.3307
X7.622Y-2.4094
X7.622Y-2.4882
X7.622Y-2.5669
X7.622Y-2.6457
X7.622Y-2.7244
X7.622Y-2.8031
X7.622Y-2.8819
T7
X6.9815Y-4.4929
X6.9815Y-4.5929
X6.9815Y-4.6925
X6.9815Y-4.7929
X7.0815Y-4.5429
X7.0815Y-4.6429
X7.0815Y-4.7425
X7.0815Y-4.8429
X7.4646Y-4.4185
X7.4646Y-4.8169
X7.5244Y-4.5185
X7.5244Y-4.9169
T8
X6.0624Y-4.9433
X6.0624Y-5.2433
X6.1624Y-4.9433
X6.1624Y-5.2433
X6.2624Y-4.9433
X6.2624Y-5.2433
T9
X7.0211Y-2.2146
X7.0211Y-2.3146
X7.0211Y-2.4146
X7.0211Y-2.5146
X7.0211Y-2.6146
X7.0211Y-2.7146
X7.1211Y-2.2146
X7.1211Y-2.3146
X7.1211Y-2.4146
X7.1211Y-2.5146
X7.1211Y-2.6146
X7.1211Y-2.7146
X7.5358Y-3.0945
X7.5358Y-3.1945
X7.5358Y-3.2945
X7.5358Y-3.3945
X7.5358Y-3.4945
X7.5358Y-3.5945
X7.6358Y-3.0945
X7.6358Y-3.1945
X7.6358Y-3.2945
X7.6358Y-3.3945
X7.6358Y-3.4945
X7.6358Y-3.5945
T10
X7.2114Y-4.3618
X7.2114Y-4.9736
T11
X4.2008Y-5.2087
X4.2047Y-2.0591
X7.3504Y-2.0591
X7.3524Y-5.2067
T12
X7.3315Y-4.4425
X7.3315Y-4.8929
T5
G00X5.624Y-1.7854
M15
G01X5.624Y-1.7618
M16
G05
G00X5.624Y-1.9598
M15
G01X5.624Y-1.9165
M16
G05
G00X5.9642Y-1.7854
M15
G01X5.9642Y-1.7618
M16
G05
G00X5.9642Y-1.9598
M15
G01X5.9642Y-1.9165
M16
G05
M30
