M48
; DRILL file {KiCad 9.0.1} date 2025-05-27T14:35:15-0700
; FORMAT={-:-/ absolute / inch / decimal}
; #@! TF.CreationDate,2025-05-27T14:35:15-07:00
; #@! TF.GenerationSoftware,Kicad,Pcbnew,9.0.1
; #@! TF.FileFunction,Plated,1,4,PTH
FMAT,2
INCH
; #@! TA.AperFunction,Plated,PTH,ViaDrill
T1C0.0079
; #@! TA.AperFunction,Plated,PTH,ViaDrill
T2C0.0098
; #@! TA.AperFunction,Plated,PTH,ViaDrill
T3C0.0118
; #@! TA.AperFunction,Plated,PTH,ComponentDrill
T4C0.0256
; #@! TA.AperFunction,Plated,PTH,ComponentDrill
T5C0.0315
; #@! TA.AperFunction,Plated,PTH,ComponentDrill
T6C0.0360
; #@! TA.AperFunction,Plated,PTH,ComponentDrill
T7C0.0394
; #@! TA.AperFunction,Plated,PTH,ComponentDrill
T8C0.0669
; #@! TA.AperFunction,Plated,PTH,ComponentDrill
T9C0.1280
%
G90
G05
T1
X4.764Y-4.3555
X4.764Y-4.4145
X4.7721Y-3.4499
X4.7721Y-3.509
X4.7957Y-4.6611
X4.7957Y-4.6886
X4.8039Y-3.7551
X4.8039Y-3.7826
X4.8199Y-4.5325
X4.8282Y-3.6265
X5.1835Y-4.637
X5.2425Y-4.637
X5.3291Y-3.4637
X5.337Y-3.3358
X5.36Y-4.5808
X5.4315Y-2.3387
X5.4364Y-2.4421
X5.4423Y-2.5326
X5.4824Y-3.3246
X5.4886Y-4.6051
X5.4892Y-2.385
X5.5023Y-3.4637
X5.5082Y-3.6048
X5.5152Y-2.385
X5.5161Y-4.6051
X5.526Y-3.9342
X5.5339Y-2.5287
X5.5436Y-3.8781
X5.5437Y-2.3436
X5.5462Y-3.904
X5.5668Y-3.5728
X5.5942Y-3.6003
X5.5949Y-3.9621
X5.6185Y-2.4716
X5.6216Y-3.7422
X5.6229Y-3.9621
X5.623Y-3.802
X5.6444Y-2.7298
X5.6461Y-3.8358
X5.6476Y-2.7933
X5.6644Y-3.8541
X5.6693Y-3.4969
X5.6697Y-4.007
X5.6787Y-3.6851
X5.6795Y-3.5208
X5.6874Y-3.885
X5.6913Y-4.0307
X5.6996Y-3.6642
X5.7077Y-3.9012
X5.7175Y-2.5029
X5.7189Y-2.5976
X5.7228Y-3.4145
X5.7246Y-4.1389
X5.7247Y-3.9209
X5.7386Y-1.8889
X5.7392Y-3.9424
X5.7451Y-2.7913
X5.7526Y-4.1389
X5.7539Y-3.6071
X5.7642Y-2.4047
X5.7681Y-3.9401
X5.77Y-3.5868
X5.779Y-2.7704
X5.7893Y-3.9551
X5.7894Y-2.8022
X5.7959Y-3.5849
X5.8023Y-2.7818
X5.8082Y-3.5501
X5.8144Y-2.7198
X5.8173Y-2.4873
X5.8277Y-3.9899
X5.8286Y-1.8784
X5.8459Y-1.9066
X5.8459Y-2.6763
X5.8508Y-3.9716
X5.8606Y-3.2511
X5.8685Y-3.9519
X5.8903Y-3.9217
X5.8917Y-3.0925
X5.9099Y-2.4047
X5.9197Y-2.4864
X5.9337Y-2.4645
X5.9453Y-2.3358
X5.9599Y-3.8577
X5.966Y-2.6419
X5.9689Y-4.6371
X5.9696Y-3.7004
X5.9989Y-4.2142
X6.0009Y-4.1217
X6.0024Y-3.9972
X6.0161Y-3.9736
X6.028Y-4.6371
X6.0398Y-1.7098
X6.0428Y-4.0277
X6.0437Y-4.0838
X6.0732Y-2.5208
X6.0831Y-3.9066
X6.0969Y-2.8003
X6.1087Y-3.9854
X6.144Y-4.5812
X6.15Y-2.6527
X6.1697Y-3.6153
X6.2602Y-3.8023
X6.2725Y-4.6055
X6.3001Y-4.6055
X6.4079Y-2.7098
X6.5398Y-3.7846
X6.6146Y-2.385
X6.6463Y-3.5513
X6.6992Y-3.5653
X6.709Y-3.6446
X6.711Y-3.8043
X6.7577Y-2.6882
X6.7782Y-3.714
X6.7819Y-2.5321
X6.7819Y-2.5597
X6.7937Y-3.7885
X6.8055Y-3.6881
X6.8106Y-3.6571
X6.8356Y-3.2228
X6.9651Y-3.1045
X6.9665Y-3.6822
X7.0138Y-3.6265
X7.1099Y-3.3467
X7.1447Y-3.3843
X7.1933Y-3.6429
X7.2347Y-3.2944
X7.2379Y-3.7003
X7.3843Y-3.4519
X7.4059Y-3.5425
T2
X5.3238Y-2.1005
X5.6447Y-2.1675
X5.7552Y-2.303
X5.7569Y-2.2718
X5.7608Y-1.9332
X5.7943Y-1.9332
X5.7963Y-1.9667
X5.8455Y-2.2836
X5.8455Y-2.3072
X5.8632Y-2.3525
T3
X4.8789Y-1.9627
X4.9951Y-2.2088
X5.2504Y-2.8633
X5.2543Y-2.7629
X5.3016Y-3.7118
X5.3553Y-1.8702
X5.3646Y-3.7649
X5.4419Y-1.8702
X5.4603Y-3.4934
X5.463Y-2.5661
X5.4819Y-2.5913
X5.4847Y-3.9244
X5.4933Y-2.6207
X5.4992Y-2.6516
X5.5417Y-3.1842
X5.5437Y-2.6507
X5.5693Y-4.0621
X5.5929Y-2.696
X5.6063Y-2.8338
X5.6382Y-2.5976
X5.6481Y-2.6907
X5.7071Y-2.4007
X5.7232Y-2.6976
X5.8272Y-2.3994
X5.8882Y-2.7216
X5.9059Y-2.5897
X6.0929Y-3.5562
X6.1407Y-1.8279
X6.182Y-2.324
X6.2307Y-2.2255
X6.398Y-2.2137
X6.6103Y-3.3767
X6.6103Y-3.4086
X6.6303Y-1.7756
X6.6712Y-3.3409
X6.6937Y-3.3184
X6.7169Y-1.7776
X6.7602Y-1.7726
X6.8022Y-1.7726
X7.0364Y-3.3246
T5
X4.2642Y-2.4204
X4.2642Y-2.4992
X4.2642Y-2.5779
X4.2642Y-2.6566
X4.2642Y-2.7354
X4.2642Y-2.8141
X4.2642Y-2.8929
X4.2642Y-2.9716
X4.3429Y-2.4204
X4.3429Y-2.4992
X4.3429Y-2.5779
X4.3429Y-2.6566
X4.3429Y-2.7354
X4.3429Y-2.8141
X4.3429Y-2.8929
X4.3429Y-2.9716
T6
X4.0791Y-4.2898
X4.0791Y-4.6882
X4.0874Y-3.3838
X4.0874Y-3.7822
X4.139Y-4.3898
X4.139Y-4.7882
X4.1473Y-3.4838
X4.1473Y-3.8822
X4.5221Y-4.3638
X4.5221Y-4.4642
X4.5221Y-4.5638
X4.5221Y-4.6638
X4.5303Y-3.4578
X4.5303Y-3.5582
X4.5303Y-3.6578
X4.5303Y-3.7578
X4.6221Y-4.4138
X4.6221Y-4.5142
X4.6221Y-4.6138
X4.6221Y-4.7138
X4.6303Y-3.5078
X4.6303Y-3.6082
X4.6303Y-3.7078
X4.6303Y-3.8078
X5.1173Y-5.3216
X5.1913Y-4.8787
X5.2173Y-5.2618
X5.2413Y-4.7787
X5.2917Y-4.8787
X5.3417Y-4.7787
X5.3913Y-4.8787
X5.4413Y-4.7787
X5.4913Y-4.8787
X5.5158Y-5.3216
X5.5413Y-4.7787
X5.6158Y-5.2618
X5.9013Y-5.322
X5.9753Y-4.8791
X6.0013Y-5.2621
X6.0253Y-4.7791
X6.0757Y-4.8791
X6.1257Y-4.7791
X6.1753Y-4.8791
X6.2253Y-4.7791
X6.2753Y-4.8791
X6.2997Y-5.322
X6.3253Y-4.7791
X6.3997Y-5.2621
X6.9555Y-2.5069
X6.9555Y-2.6069
X6.9555Y-2.7065
X6.9555Y-2.8069
X7.0555Y-2.5569
X7.0555Y-2.6569
X7.0555Y-2.7565
X7.0555Y-2.8569
X7.4386Y-2.4325
X7.4386Y-2.8309
X7.4984Y-2.5325
X7.4984Y-2.9309
T7
X4.902Y-2.461
X4.902Y-2.561
X4.902Y-2.661
X4.902Y-2.761
X4.902Y-2.861
X4.902Y-2.961
T8
X4.3921Y-4.2331
X4.3921Y-4.8449
X4.4004Y-3.3271
X4.4004Y-3.9389
X5.0606Y-5.0086
X5.6724Y-5.0086
X5.8446Y-5.009
X6.4564Y-5.009
X7.1854Y-2.3758
X7.1854Y-2.9876
T9
X4.2721Y-4.3138
X4.2721Y-4.7642
X4.2803Y-3.4078
X4.2803Y-3.8582
X5.1413Y-5.1287
X5.5917Y-5.1287
X5.9253Y-5.1291
X6.3757Y-5.1291
X7.3055Y-2.4565
X7.3055Y-2.9069
T4
G00X5.6349Y-1.7137
M15
G01X5.6349Y-1.7433
M16
G05
G00X5.9459Y-1.7137
M15
G01X5.9459Y-1.7433
M16
G05
M30
