%TF.GenerationSoftware,KiCad,Pcbnew,9.0.1*%
%TF.CreationDate,2025-06-03T13:31:15-07:00*%
%TF.ProjectId,peripheral_board,70657269-7068-4657-9261-6c5f626f6172,rev?*%
%TF.SameCoordinates,Original*%
%TF.FileFunction,Soldermask,Top*%
%TF.FilePolarity,Negative*%
%FSLAX46Y46*%
G04 Gerber Fmt 4.6, Leading zero omitted, Abs format (unit mm)*
G04 Created by KiCad (PCBNEW 9.0.1) date 2025-06-03 13:31:15*
%MOMM*%
%LPD*%
G01*
G04 APERTURE LIST*
G04 Aperture macros list*
%AMRoundRect*
0 Rectangle with rounded corners*
0 $1 Rounding radius*
0 $2 $3 $4 $5 $6 $7 $8 $9 X,Y pos of 4 corners*
0 Add a 4 corners polygon primitive as box body*
4,1,4,$2,$3,$4,$5,$6,$7,$8,$9,$2,$3,0*
0 Add four circle primitives for the rounded corners*
1,1,$1+$1,$2,$3*
1,1,$1+$1,$4,$5*
1,1,$1+$1,$6,$7*
1,1,$1+$1,$8,$9*
0 Add four rect primitives between the rounded corners*
20,1,$1+$1,$2,$3,$4,$5,0*
20,1,$1+$1,$4,$5,$6,$7,0*
20,1,$1+$1,$6,$7,$8,$9,0*
20,1,$1+$1,$8,$9,$2,$3,0*%
%AMHorizOval*
0 Thick line with rounded ends*
0 $1 width*
0 $2 $3 position (X,Y) of the first rounded end (center of the circle)*
0 $4 $5 position (X,Y) of the second rounded end (center of the circle)*
0 Add line between two ends*
20,1,$1,$2,$3,$4,$5,0*
0 Add two circle primitives to create the rounded ends*
1,1,$1,$2,$3*
1,1,$1,$4,$5*%
%AMRotRect*
0 Rectangle, with rotation*
0 The origin of the aperture is its center*
0 $1 length*
0 $2 width*
0 $3 Rotation angle, in degrees counterclockwise*
0 Add horizontal line*
21,1,$1,$2,0,0,$3*%
%AMFreePoly0*
4,1,23,0.500000,-0.750000,0.000000,-0.750000,0.000000,-0.745722,-0.065263,-0.745722,-0.191342,-0.711940,-0.304381,-0.646677,-0.396677,-0.554381,-0.461940,-0.441342,-0.495722,-0.315263,-0.495722,-0.250000,-0.500000,-0.250000,-0.500000,0.250000,-0.495722,0.250000,-0.495722,0.315263,-0.461940,0.441342,-0.396677,0.554381,-0.304381,0.646677,-0.191342,0.711940,-0.065263,0.745722,0.000000,0.745722,
0.000000,0.750000,0.500000,0.750000,0.500000,-0.750000,0.500000,-0.750000,$1*%
%AMFreePoly1*
4,1,23,0.000000,0.745722,0.065263,0.745722,0.191342,0.711940,0.304381,0.646677,0.396677,0.554381,0.461940,0.441342,0.495722,0.315263,0.495722,0.250000,0.500000,0.250000,0.500000,-0.250000,0.495722,-0.250000,0.495722,-0.315263,0.461940,-0.441342,0.396677,-0.554381,0.304381,-0.646677,0.191342,-0.711940,0.065263,-0.745722,0.000000,-0.745722,0.000000,-0.750000,-0.500000,-0.750000,
-0.500000,0.750000,0.000000,0.750000,0.000000,0.745722,0.000000,0.745722,$1*%
G04 Aperture macros list end*
%ADD10C,0.000000*%
%ADD11RoundRect,0.200000X0.335876X0.053033X0.053033X0.335876X-0.335876X-0.053033X-0.053033X-0.335876X0*%
%ADD12RoundRect,0.200000X-0.275000X0.200000X-0.275000X-0.200000X0.275000X-0.200000X0.275000X0.200000X0*%
%ADD13RoundRect,0.140000X0.170000X-0.140000X0.170000X0.140000X-0.170000X0.140000X-0.170000X-0.140000X0*%
%ADD14RoundRect,0.140000X-0.170000X0.140000X-0.170000X-0.140000X0.170000X-0.140000X0.170000X0.140000X0*%
%ADD15C,3.250000*%
%ADD16C,1.520000*%
%ADD17C,2.500000*%
%ADD18RoundRect,0.140000X-0.021213X0.219203X-0.219203X0.021213X0.021213X-0.219203X0.219203X-0.021213X0*%
%ADD19RotRect,1.000000X1.000000X315.000000*%
%ADD20RoundRect,0.140000X-0.140000X-0.170000X0.140000X-0.170000X0.140000X0.170000X-0.140000X0.170000X0*%
%ADD21RoundRect,0.140000X0.140000X0.170000X-0.140000X0.170000X-0.140000X-0.170000X0.140000X-0.170000X0*%
%ADD22RoundRect,0.218750X0.218750X0.256250X-0.218750X0.256250X-0.218750X-0.256250X0.218750X-0.256250X0*%
%ADD23RoundRect,0.140000X-0.219203X-0.021213X-0.021213X-0.219203X0.219203X0.021213X0.021213X0.219203X0*%
%ADD24RoundRect,0.200000X-0.200000X-0.275000X0.200000X-0.275000X0.200000X0.275000X-0.200000X0.275000X0*%
%ADD25RoundRect,0.200000X-0.053033X0.335876X-0.335876X0.053033X0.053033X-0.335876X0.335876X-0.053033X0*%
%ADD26RoundRect,0.140000X0.219203X0.021213X0.021213X0.219203X-0.219203X-0.021213X-0.021213X-0.219203X0*%
%ADD27RotRect,1.400000X1.200000X225.000000*%
%ADD28R,1.100000X2.500000*%
%ADD29R,3.600000X2.340000*%
%ADD30R,1.050000X1.150000*%
%ADD31RotRect,1.100000X0.600000X225.000000*%
%ADD32RoundRect,0.135000X0.226274X0.035355X0.035355X0.226274X-0.226274X-0.035355X-0.035355X-0.226274X0*%
%ADD33RoundRect,0.218750X-0.218750X-0.256250X0.218750X-0.256250X0.218750X0.256250X-0.218750X0.256250X0*%
%ADD34RoundRect,0.200000X0.200000X0.275000X-0.200000X0.275000X-0.200000X-0.275000X0.200000X-0.275000X0*%
%ADD35RoundRect,0.218750X-0.335876X-0.026517X-0.026517X-0.335876X0.335876X0.026517X0.026517X0.335876X0*%
%ADD36R,0.800000X0.500000*%
%ADD37R,0.800000X0.400000*%
%ADD38RoundRect,0.140000X0.021213X-0.219203X0.219203X-0.021213X-0.021213X0.219203X-0.219203X0.021213X0*%
%ADD39RoundRect,0.200000X-0.335876X-0.053033X-0.053033X-0.335876X0.335876X0.053033X0.053033X0.335876X0*%
%ADD40HorizOval,0.270000X-0.434871X0.434871X0.434871X-0.434871X0*%
%ADD41HorizOval,0.270000X-0.434871X-0.434871X0.434871X0.434871X0*%
%ADD42RoundRect,0.135000X-0.185000X0.135000X-0.185000X-0.135000X0.185000X-0.135000X0.185000X0.135000X0*%
%ADD43R,0.470000X0.530000*%
%ADD44FreePoly0,90.000000*%
%ADD45FreePoly1,90.000000*%
%ADD46RotRect,0.220000X1.460000X315.000000*%
%ADD47RotRect,1.460000X0.220000X315.000000*%
%ADD48O,2.250000X0.630000*%
%ADD49RoundRect,0.218750X0.026517X-0.335876X0.335876X-0.026517X-0.026517X0.335876X-0.335876X0.026517X0*%
%ADD50RoundRect,0.135000X0.185000X-0.135000X0.185000X0.135000X-0.185000X0.135000X-0.185000X-0.135000X0*%
%ADD51R,1.400000X1.200000*%
%ADD52RoundRect,0.200000X0.053033X-0.335876X0.335876X-0.053033X-0.053033X0.335876X-0.335876X0.053033X0*%
%ADD53RoundRect,0.250000X0.250000X0.475000X-0.250000X0.475000X-0.250000X-0.475000X0.250000X-0.475000X0*%
%ADD54RoundRect,0.250000X0.159099X-0.512652X0.512652X-0.159099X-0.159099X0.512652X-0.512652X0.159099X0*%
%ADD55RoundRect,0.200000X0.275000X-0.200000X0.275000X0.200000X-0.275000X0.200000X-0.275000X-0.200000X0*%
%ADD56R,0.700000X1.700000*%
%ADD57R,0.450000X1.380000*%
%ADD58O,1.400000X1.800000*%
%ADD59R,1.380000X1.900000*%
%ADD60R,1.480000X2.100000*%
%ADD61RoundRect,0.250000X-0.475000X0.250000X-0.475000X-0.250000X0.475000X-0.250000X0.475000X0.250000X0*%
%ADD62RotRect,1.400000X1.200000X45.000000*%
%ADD63R,0.700000X1.200000*%
%ADD64R,1.170000X1.800000*%
%ADD65R,1.550000X1.350000*%
%ADD66R,1.200000X1.000000*%
%ADD67R,1.900000X1.350000*%
%ADD68RoundRect,0.218750X0.335876X0.026517X0.026517X0.335876X-0.335876X-0.026517X-0.026517X-0.335876X0*%
%ADD69RoundRect,0.250000X-0.250000X-0.475000X0.250000X-0.475000X0.250000X0.475000X-0.250000X0.475000X0*%
%ADD70RoundRect,0.250000X0.512652X0.159099X0.159099X0.512652X-0.512652X-0.159099X-0.159099X-0.512652X0*%
%ADD71R,1.400000X1.400000*%
%ADD72C,1.400000*%
%ADD73RotRect,1.050000X1.150000X225.000000*%
%ADD74RotRect,0.800000X0.500000X45.000000*%
%ADD75RotRect,0.800000X0.400000X45.000000*%
%ADD76RotRect,1.000000X1.000000X135.000000*%
%ADD77R,1.700000X1.700000*%
%ADD78C,1.700000*%
%ADD79R,0.880000X0.200000*%
%ADD80R,0.200000X0.880000*%
%ADD81R,3.400000X3.400000*%
%ADD82R,1.150000X1.050000*%
%ADD83RoundRect,0.218750X-0.256250X0.218750X-0.256250X-0.218750X0.256250X-0.218750X0.256250X0.218750X0*%
%ADD84RoundRect,0.218750X-0.026517X0.335876X-0.335876X0.026517X0.026517X-0.335876X0.335876X-0.026517X0*%
G04 APERTURE END LIST*
%TO.C,JP1*%
G36*
X129425192Y-49153569D02*
G01*
X130925192Y-49153569D01*
X130925192Y-48853569D01*
X129425192Y-48853569D01*
X129425192Y-49153569D01*
G37*
D10*
%TO.C,JP5*%
G36*
X161260192Y-75978569D02*
G01*
X159760192Y-75978569D01*
X159760192Y-75678569D01*
X161260192Y-75678569D01*
X161260192Y-75978569D01*
G37*
%TO.C,JP6*%
G36*
X165460192Y-75928570D02*
G01*
X163960192Y-75928570D01*
X163960192Y-75628570D01*
X165460192Y-75628570D01*
X165460192Y-75928570D01*
G37*
%TD*%
D11*
%TO.C,R42*%
X153007427Y-105268447D03*
X151840701Y-104101721D03*
%TD*%
D12*
%TO.C,R25*%
X122810000Y-83775000D03*
X122810000Y-85425000D03*
%TD*%
D13*
%TO.C,C9*%
X143375192Y-56753569D03*
X143375192Y-55793569D03*
%TD*%
D14*
%TO.C,C38*%
X122810000Y-81720000D03*
X122810000Y-82680000D03*
%TD*%
D15*
%TO.C,RJ3*%
X108050000Y-94192500D03*
X108050000Y-105632500D03*
D16*
X114400000Y-95462500D03*
X116940000Y-96732500D03*
X114400000Y-98012500D03*
X116940000Y-99282500D03*
X114400000Y-100542500D03*
X116940000Y-101812500D03*
X114400000Y-103082500D03*
X116940000Y-104352500D03*
X104670000Y-96122500D03*
X103150000Y-93582500D03*
X104670000Y-106242500D03*
X103150000Y-103702500D03*
D17*
X111100000Y-92142500D03*
X111100000Y-107682500D03*
%TD*%
D18*
%TO.C,C63*%
X135399603Y-95739158D03*
X134720781Y-96417980D03*
%TD*%
D11*
%TO.C,R44*%
X139236521Y-90931854D03*
X138069795Y-89765128D03*
%TD*%
D19*
%TO.C,TP1*%
X152795293Y-90207069D03*
%TD*%
D20*
%TO.C,C4*%
X143170192Y-71978569D03*
X144130192Y-71978569D03*
%TD*%
D21*
%TO.C,C3*%
X139190192Y-62778569D03*
X138230192Y-62778569D03*
%TD*%
D22*
%TO.C,D4*%
X129085192Y-72728569D03*
X127510192Y-72728569D03*
%TD*%
D23*
%TO.C,C21*%
X167620621Y-83876731D03*
X168299443Y-84555553D03*
%TD*%
D24*
%TO.C,R28*%
X119725000Y-96762500D03*
X121375000Y-96762500D03*
%TD*%
%TO.C,R29*%
X119725000Y-98262500D03*
X121375000Y-98262500D03*
%TD*%
D25*
%TO.C,R43*%
X152671549Y-87290254D03*
X151504823Y-88456980D03*
%TD*%
D26*
%TO.C,C71*%
X152215468Y-102779429D03*
X151536646Y-102100607D03*
%TD*%
D27*
%TO.C,Y2*%
X178080056Y-96454655D03*
X176524421Y-98010290D03*
X177726502Y-99212371D03*
X179282137Y-97656736D03*
%TD*%
D28*
%TO.C,U6*%
X165060192Y-58558569D03*
X162760192Y-58558569D03*
X160460192Y-58558569D03*
D29*
X162760192Y-64498569D03*
%TD*%
D14*
%TO.C,C6*%
X145950192Y-69298569D03*
X145950192Y-70258569D03*
%TD*%
D30*
%TO.C,SW2*%
X149100192Y-77003569D03*
X149100192Y-73603569D03*
X150600192Y-77003569D03*
X150600192Y-73603569D03*
%TD*%
D21*
%TO.C,C41*%
X120530000Y-103012500D03*
X119570000Y-103012500D03*
%TD*%
D31*
%TO.C,U5*%
X183595489Y-91688757D03*
X184267240Y-92360509D03*
X184938992Y-93032260D03*
X186777469Y-91193783D03*
X185433966Y-89850280D03*
%TD*%
D32*
%TO.C,R47*%
X143440271Y-87640271D03*
X142719023Y-86919023D03*
%TD*%
D33*
%TO.C,D1*%
X139022692Y-45928569D03*
X140597692Y-45928569D03*
%TD*%
D34*
%TO.C,R19*%
X173885192Y-69766069D03*
X172235192Y-69766069D03*
%TD*%
D24*
%TO.C,R13*%
X130572693Y-70228569D03*
X132222693Y-70228569D03*
%TD*%
D21*
%TO.C,C12*%
X139865192Y-64353569D03*
X138905192Y-64353569D03*
%TD*%
D12*
%TO.C,R9*%
X142210192Y-45903569D03*
X142210192Y-47553569D03*
%TD*%
D26*
%TO.C,C66*%
X158410192Y-97228569D03*
X157731370Y-96549747D03*
%TD*%
D32*
%TO.C,R45*%
X142089697Y-88976704D03*
X141368449Y-88255456D03*
%TD*%
D35*
%TO.C,D5*%
X149719379Y-104384560D03*
X150833073Y-105498254D03*
%TD*%
D24*
%TO.C,R14*%
X130560192Y-72728569D03*
X132210192Y-72728569D03*
%TD*%
D26*
%TO.C,C67*%
X159697126Y-95757787D03*
X159018304Y-95078965D03*
%TD*%
D21*
%TO.C,C45*%
X120490002Y-122050000D03*
X119530002Y-122050000D03*
%TD*%
D20*
%TO.C,C53*%
X157350192Y-57628569D03*
X158310192Y-57628569D03*
%TD*%
D34*
%TO.C,R37*%
X174075000Y-117787500D03*
X172425000Y-117787500D03*
%TD*%
D14*
%TO.C,C42*%
X122850000Y-100632500D03*
X122850000Y-101592500D03*
%TD*%
D36*
%TO.C,RN1*%
X136335192Y-62228569D03*
D37*
X136335192Y-61428569D03*
X136335192Y-60628569D03*
D36*
X136335192Y-59828569D03*
X134535192Y-59828569D03*
D37*
X134535192Y-60628569D03*
X134535192Y-61428569D03*
D36*
X134535192Y-62228569D03*
%TD*%
D24*
%TO.C,R23*%
X119685000Y-77850000D03*
X121335000Y-77850000D03*
%TD*%
D38*
%TO.C,C23*%
X167770439Y-96553651D03*
X168449261Y-95874829D03*
%TD*%
D39*
%TO.C,R15*%
X165051613Y-85872802D03*
X166218339Y-87039528D03*
%TD*%
D34*
%TO.C,R38*%
X174075000Y-116287500D03*
X172425000Y-116287500D03*
%TD*%
D40*
%TO.C,U4*%
X171037272Y-85522785D03*
X170683718Y-85876338D03*
X170330165Y-86229891D03*
X169976612Y-86583445D03*
X169623058Y-86936998D03*
X169269505Y-87290551D03*
X168915951Y-87644105D03*
X168562398Y-87997658D03*
X168208845Y-88351212D03*
X167855291Y-88704765D03*
X167501738Y-89058318D03*
X167148185Y-89411872D03*
D41*
X167148185Y-91533192D03*
X167501738Y-91886746D03*
X167855291Y-92240299D03*
X168208845Y-92593852D03*
X168562398Y-92947406D03*
X168915951Y-93300959D03*
X169269505Y-93654513D03*
X169623058Y-94008066D03*
X169976612Y-94361619D03*
X170330165Y-94715173D03*
X170683718Y-95068726D03*
X171037272Y-95422279D03*
D40*
X173158592Y-95422279D03*
X173512146Y-95068726D03*
X173865699Y-94715173D03*
X174219252Y-94361619D03*
X174572806Y-94008066D03*
X174926359Y-93654513D03*
X175279913Y-93300959D03*
X175633466Y-92947406D03*
X175987019Y-92593852D03*
X176340573Y-92240299D03*
X176694126Y-91886746D03*
X177047679Y-91533192D03*
D41*
X177047679Y-89411872D03*
X176694126Y-89058318D03*
X176340573Y-88704765D03*
X175987019Y-88351212D03*
X175633466Y-87997658D03*
X175279913Y-87644105D03*
X174926359Y-87290551D03*
X174572806Y-86936998D03*
X174219252Y-86583445D03*
X173865699Y-86229891D03*
X173512146Y-85876338D03*
X173158592Y-85522785D03*
%TD*%
D23*
%TO.C,C20*%
X164199550Y-87778457D03*
X164878372Y-88457279D03*
%TD*%
D42*
%TO.C,R6*%
X145375192Y-55793569D03*
X145375192Y-56813569D03*
%TD*%
D23*
%TO.C,C29*%
X175124349Y-99693206D03*
X175803171Y-100372028D03*
%TD*%
D24*
%TO.C,R24*%
X119685000Y-79350000D03*
X121335000Y-79350000D03*
%TD*%
D23*
%TO.C,C75*%
X140020781Y-89539158D03*
X140699603Y-90217980D03*
%TD*%
D34*
%TO.C,R11*%
X153160192Y-61653569D03*
X151510192Y-61653569D03*
%TD*%
D20*
%TO.C,C48*%
X173300000Y-108687500D03*
X174260000Y-108687500D03*
%TD*%
D21*
%TO.C,C44*%
X120460000Y-123400000D03*
X119500000Y-123400000D03*
%TD*%
D43*
%TO.C,C2*%
X146845192Y-58003569D03*
X147805192Y-58003569D03*
%TD*%
D38*
%TO.C,C54*%
X142061413Y-102425875D03*
X142740235Y-101747053D03*
%TD*%
D21*
%TO.C,C37*%
X120490000Y-84100000D03*
X119530000Y-84100000D03*
%TD*%
D44*
%TO.C,JP1*%
X130175192Y-49653569D03*
D45*
X130175192Y-48353569D03*
%TD*%
D46*
%TO.C,U7*%
X141142175Y-97122574D03*
X141425018Y-97405417D03*
X141707860Y-97688260D03*
X141990703Y-97971103D03*
X142273546Y-98253945D03*
X142556389Y-98536788D03*
X142839231Y-98819631D03*
X143122074Y-99102473D03*
X143404917Y-99385316D03*
X143687759Y-99668159D03*
X143970602Y-99951002D03*
X144253445Y-100233844D03*
X144536288Y-100516687D03*
X144819130Y-100799530D03*
X145101973Y-101082372D03*
X145384816Y-101365215D03*
X145667658Y-101648058D03*
X145950501Y-101930901D03*
X146233344Y-102213743D03*
X146516187Y-102496586D03*
D47*
X149104197Y-102496586D03*
X149387040Y-102213743D03*
X149669883Y-101930901D03*
X149952726Y-101648058D03*
X150235568Y-101365215D03*
X150518411Y-101082372D03*
X150801254Y-100799530D03*
X151084096Y-100516687D03*
X151366939Y-100233844D03*
X151649782Y-99951002D03*
X151932625Y-99668159D03*
X152215467Y-99385316D03*
X152498310Y-99102473D03*
X152781153Y-98819631D03*
X153063995Y-98536788D03*
X153346838Y-98253945D03*
X153629681Y-97971103D03*
X153912524Y-97688260D03*
X154195366Y-97405417D03*
X154478209Y-97122574D03*
D46*
X154478209Y-94534564D03*
X154195366Y-94251721D03*
X153912524Y-93968878D03*
X153629681Y-93686035D03*
X153346838Y-93403193D03*
X153063995Y-93120350D03*
X152781153Y-92837507D03*
X152498310Y-92554665D03*
X152215467Y-92271822D03*
X151932625Y-91988979D03*
X151649782Y-91706136D03*
X151366939Y-91423294D03*
X151084096Y-91140451D03*
X150801254Y-90857608D03*
X150518411Y-90574766D03*
X150235568Y-90291923D03*
X149952726Y-90009080D03*
X149669883Y-89726237D03*
X149387040Y-89443395D03*
X149104197Y-89160552D03*
D47*
X146516187Y-89160552D03*
X146233344Y-89443395D03*
X145950501Y-89726237D03*
X145667658Y-90009080D03*
X145384816Y-90291923D03*
X145101973Y-90574766D03*
X144819130Y-90857608D03*
X144536288Y-91140451D03*
X144253445Y-91423294D03*
X143970602Y-91706136D03*
X143687759Y-91988979D03*
X143404917Y-92271822D03*
X143122074Y-92554665D03*
X142839231Y-92837507D03*
X142556389Y-93120350D03*
X142273546Y-93403193D03*
X141990703Y-93686035D03*
X141707860Y-93968878D03*
X141425018Y-94251721D03*
X141142175Y-94534564D03*
%TD*%
D39*
%TO.C,R50*%
X149984545Y-85557845D03*
X151151271Y-86724571D03*
%TD*%
D22*
%TO.C,D2*%
X156147692Y-61653569D03*
X154572692Y-61653569D03*
%TD*%
D21*
%TO.C,C5*%
X146480192Y-72003569D03*
X145520192Y-72003569D03*
%TD*%
D48*
%TO.C,U3*%
X133145192Y-49493569D03*
X133145192Y-50773569D03*
X133145192Y-52033569D03*
X133145192Y-53303569D03*
X140205192Y-53303569D03*
X140205192Y-52033569D03*
X140205192Y-50773569D03*
X140205192Y-49493569D03*
%TD*%
D14*
%TO.C,C7*%
X149575192Y-57923569D03*
X149575192Y-58883569D03*
%TD*%
D18*
%TO.C,C73*%
X155892421Y-92554663D03*
X155213599Y-93233485D03*
%TD*%
D24*
%TO.C,R27*%
X119725000Y-95262500D03*
X121375000Y-95262500D03*
%TD*%
D49*
%TO.C,FB1*%
X175366532Y-82664306D03*
X176480226Y-81550612D03*
%TD*%
D26*
%TO.C,C28*%
X174106115Y-98109285D03*
X173427293Y-97430463D03*
%TD*%
D50*
%TO.C,R4*%
X144825192Y-70288569D03*
X144825192Y-69268569D03*
%TD*%
D15*
%TO.C,RJ5*%
X185750000Y-118857500D03*
X185750000Y-107417500D03*
D16*
X179400000Y-117587500D03*
X176860000Y-116317500D03*
X179400000Y-115037499D03*
X176860000Y-113767500D03*
X179400000Y-112507500D03*
X176860000Y-111237500D03*
X179400000Y-109967500D03*
X176860000Y-108697500D03*
X189130000Y-116927500D03*
X190650000Y-119467500D03*
X189129999Y-106807500D03*
X190650000Y-109347500D03*
D17*
X182700000Y-120907500D03*
X182700000Y-105367500D03*
%TD*%
D51*
%TO.C,Y1*%
X143500192Y-75253569D03*
X145700192Y-75253569D03*
X145700192Y-73553569D03*
X143500192Y-73553569D03*
%TD*%
D52*
%TO.C,R48*%
X140491637Y-87025089D03*
X141658363Y-85858363D03*
%TD*%
D21*
%TO.C,C10*%
X139690192Y-59403569D03*
X138730192Y-59403569D03*
%TD*%
%TO.C,C19*%
X140205192Y-47503569D03*
X139245192Y-47503569D03*
%TD*%
D20*
%TO.C,C33*%
X173110192Y-63666069D03*
X174070192Y-63666069D03*
%TD*%
D24*
%TO.C,R33*%
X119685001Y-115800000D03*
X121335001Y-115800000D03*
%TD*%
D53*
%TO.C,C17*%
X154672692Y-45978569D03*
X152772692Y-45978569D03*
%TD*%
D21*
%TO.C,C36*%
X120460000Y-85450000D03*
X119500000Y-85450000D03*
%TD*%
D24*
%TO.C,R31*%
X119775000Y-101712500D03*
X121425000Y-101712500D03*
%TD*%
D20*
%TO.C,C13*%
X150030192Y-67103569D03*
X150990192Y-67103569D03*
%TD*%
D54*
%TO.C,C64*%
X157828249Y-92721751D03*
X159171751Y-91378249D03*
%TD*%
D24*
%TO.C,R26*%
X119735000Y-82800000D03*
X121385000Y-82800000D03*
%TD*%
D55*
%TO.C,R40*%
X170950000Y-110362500D03*
X170950000Y-108712500D03*
%TD*%
D44*
%TO.C,JP5*%
X160510192Y-76478568D03*
D45*
X160510192Y-75178570D03*
%TD*%
D13*
%TO.C,C50*%
X170950000Y-112417500D03*
X170950000Y-111457500D03*
%TD*%
D20*
%TO.C,C11*%
X151330192Y-64153569D03*
X152290192Y-64153569D03*
%TD*%
D18*
%TO.C,C60*%
X154145868Y-90977817D03*
X153467046Y-91656639D03*
%TD*%
D26*
%TO.C,C59*%
X154513565Y-100552041D03*
X153834743Y-99873219D03*
%TD*%
D56*
%TO.C,L1*%
X146625192Y-56361780D03*
X148025192Y-56361780D03*
%TD*%
D57*
%TO.C,J3*%
X145775192Y-46603569D03*
X146425192Y-46603569D03*
X147075192Y-46603569D03*
X147725192Y-46603569D03*
X148375192Y-46603569D03*
D58*
X151025192Y-43903569D03*
X143125192Y-43903569D03*
D59*
X148015192Y-43953569D03*
X146135192Y-43953569D03*
D60*
X149535192Y-46253569D03*
X144615192Y-46253569D03*
%TD*%
D23*
%TO.C,C26*%
X169326074Y-96652645D03*
X170004896Y-97331467D03*
%TD*%
D34*
%TO.C,R39*%
X174075000Y-114787500D03*
X172425000Y-114787500D03*
%TD*%
D21*
%TO.C,C39*%
X120680000Y-99462500D03*
X119720000Y-99462500D03*
%TD*%
D34*
%TO.C,R41*%
X174025000Y-111337500D03*
X172375000Y-111337500D03*
%TD*%
D50*
%TO.C,R2*%
X149575192Y-57063569D03*
X149575192Y-56043569D03*
%TD*%
D61*
%TO.C,C56*%
X167500000Y-59750000D03*
X167500000Y-61650000D03*
%TD*%
D53*
%TO.C,C18*%
X155822692Y-59028569D03*
X153922692Y-59028569D03*
%TD*%
D20*
%TO.C,C34*%
X172930192Y-68566069D03*
X173890192Y-68566069D03*
%TD*%
D62*
%TO.C,Y3*%
X136213640Y-93495117D03*
X137769275Y-91939482D03*
X136567194Y-90737401D03*
X135011559Y-92293036D03*
%TD*%
D24*
%TO.C,R34*%
X119685001Y-117299999D03*
X121335001Y-117299999D03*
%TD*%
D38*
%TO.C,C68*%
X138455169Y-93233486D03*
X139133991Y-92554664D03*
%TD*%
%TO.C,C52*%
X139303698Y-98678209D03*
X139982520Y-97999387D03*
%TD*%
D63*
%TO.C,SIM1*%
X166235000Y-43285000D03*
X167335000Y-43285000D03*
X168435000Y-43285000D03*
X169535000Y-43285000D03*
X170635000Y-43285000D03*
X171735000Y-43285000D03*
X172835000Y-43285000D03*
X173935000Y-43285000D03*
D64*
X175145000Y-43485000D03*
D65*
X163775000Y-43315000D03*
D66*
X163605000Y-49285000D03*
X163605000Y-52985000D03*
D67*
X167105000Y-53965000D03*
X173075000Y-53965000D03*
%TD*%
D21*
%TO.C,C40*%
X120500000Y-104362500D03*
X119540000Y-104362500D03*
%TD*%
D12*
%TO.C,R10*%
X161130192Y-42943569D03*
X161130192Y-44593569D03*
%TD*%
D15*
%TO.C,RJ1*%
X185560192Y-73836069D03*
X185560192Y-62396069D03*
D16*
X179210192Y-72566069D03*
X176670192Y-71296069D03*
X179210192Y-70016069D03*
X176670192Y-68746069D03*
X179210192Y-67486069D03*
X176670192Y-66216069D03*
X179210192Y-64946069D03*
X176670192Y-63676069D03*
X188940192Y-71906069D03*
X190460192Y-74446069D03*
X188940192Y-61786069D03*
X190460192Y-64326069D03*
D17*
X182510192Y-75886069D03*
X182510192Y-60346069D03*
%TD*%
D23*
%TO.C,C62*%
X141570781Y-89789158D03*
X142249603Y-90467980D03*
%TD*%
D68*
%TO.C,D6*%
X150064095Y-87758711D03*
X148950401Y-86645017D03*
%TD*%
D38*
%TO.C,C22*%
X165755184Y-94396976D03*
X166434006Y-93718154D03*
%TD*%
D69*
%TO.C,C16*%
X124975192Y-54653569D03*
X126875192Y-54653569D03*
%TD*%
D28*
%TO.C,U2*%
X156172692Y-49158569D03*
X153872692Y-49158569D03*
X151572692Y-49158569D03*
D29*
X153872692Y-55098569D03*
%TD*%
D18*
%TO.C,C25*%
X167247179Y-94531326D03*
X166568357Y-95210148D03*
%TD*%
D21*
%TO.C,C43*%
X120640001Y-118499999D03*
X119680001Y-118499999D03*
%TD*%
D24*
%TO.C,R12*%
X133150192Y-47503569D03*
X134800192Y-47503569D03*
%TD*%
D20*
%TO.C,C32*%
X173080192Y-65016069D03*
X174040192Y-65016069D03*
%TD*%
D21*
%TO.C,C35*%
X120640000Y-80550000D03*
X119680000Y-80550000D03*
%TD*%
D23*
%TO.C,C55*%
X140682556Y-91670781D03*
X141361378Y-92349603D03*
%TD*%
D70*
%TO.C,C61*%
X133421751Y-95421751D03*
X132078249Y-94078249D03*
%TD*%
D34*
%TO.C,R17*%
X173835192Y-66316069D03*
X172185192Y-66316069D03*
%TD*%
D24*
%TO.C,R36*%
X119735001Y-120750000D03*
X121385001Y-120750000D03*
%TD*%
D22*
%TO.C,D3*%
X129035192Y-70228569D03*
X127460192Y-70228569D03*
%TD*%
D20*
%TO.C,C14*%
X150055192Y-60378569D03*
X151015192Y-60378569D03*
%TD*%
D34*
%TO.C,R20*%
X173885192Y-71266069D03*
X172235192Y-71266069D03*
%TD*%
D12*
%TO.C,R30*%
X122850000Y-102687500D03*
X122850000Y-104337500D03*
%TD*%
D50*
%TO.C,R1*%
X127825192Y-49413569D03*
X127825192Y-48393569D03*
%TD*%
D20*
%TO.C,C49*%
X173270000Y-110037500D03*
X174230000Y-110037500D03*
%TD*%
D15*
%TO.C,RJ4*%
X108010000Y-113230000D03*
X108010000Y-124670000D03*
D16*
X114360000Y-114500000D03*
X116900000Y-115770000D03*
X114360000Y-117050001D03*
X116900000Y-118320000D03*
X114360000Y-119580000D03*
X116900000Y-120850000D03*
X114360000Y-122120000D03*
X116900000Y-123390000D03*
X104630000Y-115160000D03*
X103110000Y-112620000D03*
X104630001Y-125280000D03*
X103110000Y-122740000D03*
D17*
X111060000Y-111180000D03*
X111060000Y-126720000D03*
%TD*%
D71*
%TO.C,CN1*%
X101400000Y-54300000D03*
D72*
X99400000Y-54300000D03*
X101400000Y-56300000D03*
X99400000Y-56300000D03*
X101400000Y-58300000D03*
X99400000Y-58300000D03*
X101400000Y-60300000D03*
X99400000Y-60300000D03*
X101400000Y-62300000D03*
X99400000Y-62300000D03*
X101400000Y-64300000D03*
X99400000Y-64300000D03*
X101400000Y-66300000D03*
X99400000Y-66300000D03*
X101400000Y-68300000D03*
X99400000Y-68300000D03*
%TD*%
D15*
%TO.C,RJ2*%
X108010000Y-75280000D03*
X108010000Y-86720000D03*
D16*
X114360000Y-76550000D03*
X116900000Y-77820000D03*
X114360000Y-79100000D03*
X116900000Y-80370000D03*
X114360000Y-81630000D03*
X116900000Y-82900000D03*
X114360000Y-84170000D03*
X116900000Y-85440000D03*
X104630000Y-77210000D03*
X103110000Y-74670000D03*
X104630000Y-87330000D03*
X103110000Y-84790000D03*
D17*
X111060000Y-73230000D03*
X111060000Y-88770000D03*
%TD*%
D20*
%TO.C,C8*%
X151345192Y-63178569D03*
X152305192Y-63178569D03*
%TD*%
D34*
%TO.C,R21*%
X173885192Y-72766069D03*
X172235192Y-72766069D03*
%TD*%
D20*
%TO.C,C47*%
X173120000Y-113587500D03*
X174080000Y-113587500D03*
%TD*%
D26*
%TO.C,C24*%
X173363654Y-83648952D03*
X172684832Y-82970130D03*
%TD*%
D73*
%TO.C,SW3*%
X139360265Y-85752298D03*
X136956102Y-83348135D03*
X140420926Y-84691637D03*
X138016763Y-82287474D03*
%TD*%
D26*
%TO.C,C27*%
X173399008Y-98816393D03*
X172720186Y-98137571D03*
%TD*%
D38*
%TO.C,C74*%
X138561236Y-97935747D03*
X139240058Y-97256925D03*
%TD*%
D74*
%TO.C,RN2*%
X179529625Y-85218730D03*
D75*
X180095310Y-85784415D03*
X180660996Y-86350101D03*
D74*
X181226681Y-86915786D03*
X182499473Y-85642994D03*
D75*
X181933788Y-85077309D03*
X181368102Y-84511623D03*
D74*
X180802417Y-83945938D03*
%TD*%
D76*
%TO.C,TP2*%
X137981408Y-87201866D03*
%TD*%
D14*
%TO.C,C15*%
X143450192Y-69298569D03*
X143450192Y-70258569D03*
%TD*%
D18*
%TO.C,C69*%
X137493503Y-94195154D03*
X136814681Y-94873976D03*
%TD*%
D77*
%TO.C,J2*%
X124510192Y-62508569D03*
D78*
X124510192Y-65048569D03*
X124510192Y-67588569D03*
X124510192Y-70128569D03*
X124510192Y-72668569D03*
X124510192Y-75208569D03*
%TD*%
D14*
%TO.C,C46*%
X122810001Y-119670000D03*
X122810001Y-120630000D03*
%TD*%
D18*
%TO.C,C65*%
X136689411Y-96960589D03*
X136010589Y-97639411D03*
%TD*%
D32*
%TO.C,R46*%
X142768519Y-88312023D03*
X142047271Y-87590775D03*
%TD*%
D39*
%TO.C,R49*%
X151787668Y-106452851D03*
X152954394Y-107619577D03*
%TD*%
D13*
%TO.C,C31*%
X170760192Y-67396069D03*
X170760192Y-66436069D03*
%TD*%
D79*
%TO.C,U1*%
X141645192Y-60773569D03*
X141645192Y-61173569D03*
X141645192Y-61573569D03*
X141645192Y-61973569D03*
X141645192Y-62373569D03*
X141645192Y-62773569D03*
X141645192Y-63173569D03*
X141645192Y-63573569D03*
X141645192Y-63973569D03*
X141645192Y-64373569D03*
X141645192Y-64773569D03*
X141645192Y-65173569D03*
X141645192Y-65573569D03*
X141645192Y-65973569D03*
X141645192Y-66373569D03*
D80*
X142425192Y-67143569D03*
X142825192Y-67143569D03*
X143225192Y-67143569D03*
X143625192Y-67143569D03*
X144025192Y-67143569D03*
X144425192Y-67143569D03*
X144825192Y-67143569D03*
X145225192Y-67143569D03*
X145625192Y-67143569D03*
X146025192Y-67143569D03*
X146425192Y-67143569D03*
X146825192Y-67143569D03*
X147225192Y-67143569D03*
X147625192Y-67143569D03*
X148025192Y-67143569D03*
D79*
X148805192Y-66373569D03*
X148805192Y-65973569D03*
X148805192Y-65573569D03*
X148805192Y-65173569D03*
X148805192Y-64773569D03*
X148805192Y-64373569D03*
X148805192Y-63973569D03*
X148805192Y-63573569D03*
X148805192Y-63173569D03*
X148805192Y-62773569D03*
X148805192Y-62373569D03*
X148805192Y-61973569D03*
X148805192Y-61573569D03*
X148805192Y-61173569D03*
X148805192Y-60773569D03*
D80*
X148025192Y-60003569D03*
X147625192Y-60003569D03*
X147225192Y-60003569D03*
X146825192Y-60003569D03*
X146425192Y-60003569D03*
X146025192Y-60003569D03*
X145625192Y-60003569D03*
X145225192Y-60003569D03*
X144825192Y-60003569D03*
X144425192Y-60003569D03*
X144025192Y-60003569D03*
X143625192Y-60003569D03*
X143225192Y-60003569D03*
X142825192Y-60003569D03*
X142425192Y-60003569D03*
D81*
X145225192Y-63573569D03*
%TD*%
D82*
%TO.C,SW1*%
X125725192Y-49853569D03*
X122325192Y-49853569D03*
X125725192Y-48353569D03*
X122325192Y-48353569D03*
%TD*%
D50*
%TO.C,R3*%
X147310192Y-77498567D03*
X147310192Y-76478569D03*
%TD*%
D24*
%TO.C,R32*%
X119685001Y-114299999D03*
X121335001Y-114299999D03*
%TD*%
D83*
%TO.C,FB4*%
X164660192Y-66791068D03*
X164660192Y-68366070D03*
%TD*%
D24*
%TO.C,R22*%
X119685000Y-76350000D03*
X121335000Y-76350000D03*
%TD*%
D84*
%TO.C,FB2*%
X171777967Y-97213027D03*
X170664273Y-98326721D03*
%TD*%
D13*
%TO.C,C57*%
X162710192Y-67658569D03*
X162710192Y-66698569D03*
%TD*%
D38*
%TO.C,C30*%
X176538564Y-95987967D03*
X177217386Y-95309145D03*
%TD*%
D83*
%TO.C,FB3*%
X160460192Y-66791068D03*
X160460192Y-68366070D03*
%TD*%
D12*
%TO.C,R35*%
X122810001Y-121725000D03*
X122810001Y-123375000D03*
%TD*%
D55*
%TO.C,R18*%
X170760192Y-65341069D03*
X170760192Y-63691069D03*
%TD*%
D39*
%TO.C,R16*%
X179476591Y-95135903D03*
X180643317Y-96302629D03*
%TD*%
D43*
%TO.C,C1*%
X146845192Y-58953569D03*
X147805192Y-58953569D03*
%TD*%
D44*
%TO.C,JP6*%
X164710192Y-76428569D03*
D45*
X164710192Y-75128571D03*
%TD*%
D42*
%TO.C,R5*%
X144375192Y-55793569D03*
X144375192Y-56813569D03*
%TD*%
M02*
