%TF.GenerationSoftware,KiCad,Pcbnew,9.0.1*%
%TF.CreationDate,2025-06-03T17:56:08-07:00*%
%TF.ProjectId,peripheral_board,70657269-7068-4657-9261-6c5f626f6172,rev?*%
%TF.SameCoordinates,Original*%
%TF.FileFunction,Legend,Top*%
%TF.FilePolarity,Positive*%
%FSLAX46Y46*%
G04 Gerber Fmt 4.6, Leading zero omitted, Abs format (unit mm)*
G04 Created by KiCad (PCBNEW 9.0.1) date 2025-06-03 17:56:08*
%MOMM*%
%LPD*%
G01*
G04 APERTURE LIST*
G04 Aperture macros list*
%AMRoundRect*
0 Rectangle with rounded corners*
0 $1 Rounding radius*
0 $2 $3 $4 $5 $6 $7 $8 $9 X,Y pos of 4 corners*
0 Add a 4 corners polygon primitive as box body*
4,1,4,$2,$3,$4,$5,$6,$7,$8,$9,$2,$3,0*
0 Add four circle primitives for the rounded corners*
1,1,$1+$1,$2,$3*
1,1,$1+$1,$4,$5*
1,1,$1+$1,$6,$7*
1,1,$1+$1,$8,$9*
0 Add four rect primitives between the rounded corners*
20,1,$1+$1,$2,$3,$4,$5,0*
20,1,$1+$1,$4,$5,$6,$7,0*
20,1,$1+$1,$6,$7,$8,$9,0*
20,1,$1+$1,$8,$9,$2,$3,0*%
%AMHorizOval*
0 Thick line with rounded ends*
0 $1 width*
0 $2 $3 position (X,Y) of the first rounded end (center of the circle)*
0 $4 $5 position (X,Y) of the second rounded end (center of the circle)*
0 Add line between two ends*
20,1,$1,$2,$3,$4,$5,0*
0 Add two circle primitives to create the rounded ends*
1,1,$1,$2,$3*
1,1,$1,$4,$5*%
%AMRotRect*
0 Rectangle, with rotation*
0 The origin of the aperture is its center*
0 $1 length*
0 $2 width*
0 $3 Rotation angle, in degrees counterclockwise*
0 Add horizontal line*
21,1,$1,$2,0,0,$3*%
%AMFreePoly0*
4,1,23,0.500000,-0.750000,0.000000,-0.750000,0.000000,-0.745722,-0.065263,-0.745722,-0.191342,-0.711940,-0.304381,-0.646677,-0.396677,-0.554381,-0.461940,-0.441342,-0.495722,-0.315263,-0.495722,-0.250000,-0.500000,-0.250000,-0.500000,0.250000,-0.495722,0.250000,-0.495722,0.315263,-0.461940,0.441342,-0.396677,0.554381,-0.304381,0.646677,-0.191342,0.711940,-0.065263,0.745722,0.000000,0.745722,
0.000000,0.750000,0.500000,0.750000,0.500000,-0.750000,0.500000,-0.750000,$1*%
%AMFreePoly1*
4,1,23,0.000000,0.745722,0.065263,0.745722,0.191342,0.711940,0.304381,0.646677,0.396677,0.554381,0.461940,0.441342,0.495722,0.315263,0.495722,0.250000,0.500000,0.250000,0.500000,-0.250000,0.495722,-0.250000,0.495722,-0.315263,0.461940,-0.441342,0.396677,-0.554381,0.304381,-0.646677,0.191342,-0.711940,0.065263,-0.745722,0.000000,-0.745722,0.000000,-0.750000,-0.500000,-0.750000,
-0.500000,0.750000,0.000000,0.750000,0.000000,0.745722,0.000000,0.745722,$1*%
G04 Aperture macros list end*
%ADD10C,0.150000*%
%ADD11C,0.120000*%
%ADD12C,0.250000*%
%ADD13C,0.100000*%
%ADD14C,0.200000*%
%ADD15C,0.300000*%
%ADD16C,0.191421*%
%ADD17C,0.000000*%
%ADD18RoundRect,0.200000X0.335876X0.053033X0.053033X0.335876X-0.335876X-0.053033X-0.053033X-0.335876X0*%
%ADD19RoundRect,0.200000X-0.275000X0.200000X-0.275000X-0.200000X0.275000X-0.200000X0.275000X0.200000X0*%
%ADD20RoundRect,0.140000X0.170000X-0.140000X0.170000X0.140000X-0.170000X0.140000X-0.170000X-0.140000X0*%
%ADD21RoundRect,0.140000X-0.170000X0.140000X-0.170000X-0.140000X0.170000X-0.140000X0.170000X0.140000X0*%
%ADD22C,3.250000*%
%ADD23C,1.520000*%
%ADD24C,2.500000*%
%ADD25RoundRect,0.140000X-0.021213X0.219203X-0.219203X0.021213X0.021213X-0.219203X0.219203X-0.021213X0*%
%ADD26RotRect,1.000000X1.000000X315.000000*%
%ADD27RoundRect,0.140000X-0.140000X-0.170000X0.140000X-0.170000X0.140000X0.170000X-0.140000X0.170000X0*%
%ADD28RoundRect,0.140000X0.140000X0.170000X-0.140000X0.170000X-0.140000X-0.170000X0.140000X-0.170000X0*%
%ADD29RoundRect,0.218750X-0.218750X-0.256250X0.218750X-0.256250X0.218750X0.256250X-0.218750X0.256250X0*%
%ADD30RoundRect,0.140000X-0.219203X-0.021213X-0.021213X-0.219203X0.219203X0.021213X0.021213X0.219203X0*%
%ADD31RoundRect,0.200000X-0.200000X-0.275000X0.200000X-0.275000X0.200000X0.275000X-0.200000X0.275000X0*%
%ADD32RoundRect,0.200000X-0.053033X0.335876X-0.335876X0.053033X0.053033X-0.335876X0.335876X-0.053033X0*%
%ADD33RoundRect,0.140000X0.219203X0.021213X0.021213X0.219203X-0.219203X-0.021213X-0.021213X-0.219203X0*%
%ADD34RotRect,1.400000X1.200000X225.000000*%
%ADD35R,1.100000X2.500000*%
%ADD36R,3.600000X2.340000*%
%ADD37C,5.000000*%
%ADD38R,1.050000X1.150000*%
%ADD39RotRect,1.100000X0.600000X225.000000*%
%ADD40RoundRect,0.135000X0.226274X0.035355X0.035355X0.226274X-0.226274X-0.035355X-0.035355X-0.226274X0*%
%ADD41RoundRect,0.200000X0.200000X0.275000X-0.200000X0.275000X-0.200000X-0.275000X0.200000X-0.275000X0*%
%ADD42RoundRect,0.218750X-0.335876X-0.026517X-0.026517X-0.335876X0.335876X0.026517X0.026517X0.335876X0*%
%ADD43R,0.800000X0.500000*%
%ADD44R,0.800000X0.400000*%
%ADD45RoundRect,0.140000X0.021213X-0.219203X0.219203X-0.021213X-0.021213X0.219203X-0.219203X0.021213X0*%
%ADD46RoundRect,0.200000X-0.335876X-0.053033X-0.053033X-0.335876X0.335876X0.053033X0.053033X0.335876X0*%
%ADD47HorizOval,0.270000X-0.434871X0.434871X0.434871X-0.434871X0*%
%ADD48HorizOval,0.270000X-0.434871X-0.434871X0.434871X0.434871X0*%
%ADD49RoundRect,0.135000X-0.185000X0.135000X-0.185000X-0.135000X0.185000X-0.135000X0.185000X0.135000X0*%
%ADD50R,0.470000X0.530000*%
%ADD51FreePoly0,90.000000*%
%ADD52FreePoly1,90.000000*%
%ADD53RotRect,0.220000X1.460000X315.000000*%
%ADD54RotRect,1.460000X0.220000X315.000000*%
%ADD55RoundRect,0.218750X0.218750X0.256250X-0.218750X0.256250X-0.218750X-0.256250X0.218750X-0.256250X0*%
%ADD56O,2.250000X0.630000*%
%ADD57RoundRect,0.218750X0.026517X-0.335876X0.335876X-0.026517X-0.026517X0.335876X-0.335876X0.026517X0*%
%ADD58RoundRect,0.135000X0.185000X-0.135000X0.185000X0.135000X-0.185000X0.135000X-0.185000X-0.135000X0*%
%ADD59R,1.400000X1.200000*%
%ADD60RoundRect,0.200000X0.053033X-0.335876X0.335876X-0.053033X-0.053033X0.335876X-0.335876X0.053033X0*%
%ADD61RoundRect,0.250000X0.250000X0.475000X-0.250000X0.475000X-0.250000X-0.475000X0.250000X-0.475000X0*%
%ADD62RoundRect,0.250000X0.159099X-0.512652X0.512652X-0.159099X-0.159099X0.512652X-0.512652X0.159099X0*%
%ADD63RoundRect,0.200000X0.275000X-0.200000X0.275000X0.200000X-0.275000X0.200000X-0.275000X-0.200000X0*%
%ADD64R,0.700000X1.700000*%
%ADD65R,0.450000X1.380000*%
%ADD66O,1.400000X1.800000*%
%ADD67R,1.380000X1.900000*%
%ADD68R,1.480000X2.100000*%
%ADD69RoundRect,0.250000X-0.475000X0.250000X-0.475000X-0.250000X0.475000X-0.250000X0.475000X0.250000X0*%
%ADD70RotRect,1.400000X1.200000X45.000000*%
%ADD71R,0.700000X1.200000*%
%ADD72R,1.170000X1.800000*%
%ADD73R,1.550000X1.350000*%
%ADD74R,1.200000X1.000000*%
%ADD75R,1.900000X1.350000*%
%ADD76RoundRect,0.218750X0.335876X0.026517X0.026517X0.335876X-0.335876X-0.026517X-0.026517X-0.335876X0*%
%ADD77RoundRect,0.250000X-0.250000X-0.475000X0.250000X-0.475000X0.250000X0.475000X-0.250000X0.475000X0*%
%ADD78RoundRect,0.250000X0.512652X0.159099X0.159099X0.512652X-0.512652X-0.159099X-0.159099X-0.512652X0*%
%ADD79R,1.400000X1.400000*%
%ADD80C,1.400000*%
%ADD81RotRect,1.050000X1.150000X225.000000*%
%ADD82RotRect,0.800000X0.500000X45.000000*%
%ADD83RotRect,0.800000X0.400000X45.000000*%
%ADD84RotRect,1.000000X1.000000X135.000000*%
%ADD85R,1.800000X1.800000*%
%ADD86C,1.800000*%
%ADD87R,0.880000X0.200000*%
%ADD88R,0.200000X0.880000*%
%ADD89R,3.400000X3.400000*%
%ADD90R,1.150000X1.050000*%
%ADD91RoundRect,0.218750X-0.256250X0.218750X-0.256250X-0.218750X0.256250X-0.218750X0.256250X0.218750X0*%
%ADD92RoundRect,0.218750X-0.026517X0.335876X-0.335876X0.026517X0.026517X-0.335876X0.335876X-0.026517X0*%
%ADD93C,1.000000*%
G04 APERTURE END LIST*
D10*
X104341318Y-53941318D02*
G75*
G02*
X103158682Y-53941318I-591318J0D01*
G01*
X103158682Y-53941318D02*
G75*
G02*
X104341318Y-53941318I591318J0D01*
G01*
X115743922Y-66419819D02*
X116315350Y-66419819D01*
X116029636Y-67419819D02*
X116029636Y-66419819D01*
X116553446Y-66419819D02*
X117220112Y-67419819D01*
X117220112Y-66419819D02*
X116553446Y-67419819D01*
X98189160Y-51672200D02*
X98332017Y-51719819D01*
X98332017Y-51719819D02*
X98570112Y-51719819D01*
X98570112Y-51719819D02*
X98665350Y-51672200D01*
X98665350Y-51672200D02*
X98712969Y-51624580D01*
X98712969Y-51624580D02*
X98760588Y-51529342D01*
X98760588Y-51529342D02*
X98760588Y-51434104D01*
X98760588Y-51434104D02*
X98712969Y-51338866D01*
X98712969Y-51338866D02*
X98665350Y-51291247D01*
X98665350Y-51291247D02*
X98570112Y-51243628D01*
X98570112Y-51243628D02*
X98379636Y-51196009D01*
X98379636Y-51196009D02*
X98284398Y-51148390D01*
X98284398Y-51148390D02*
X98236779Y-51100771D01*
X98236779Y-51100771D02*
X98189160Y-51005533D01*
X98189160Y-51005533D02*
X98189160Y-50910295D01*
X98189160Y-50910295D02*
X98236779Y-50815057D01*
X98236779Y-50815057D02*
X98284398Y-50767438D01*
X98284398Y-50767438D02*
X98379636Y-50719819D01*
X98379636Y-50719819D02*
X98617731Y-50719819D01*
X98617731Y-50719819D02*
X98760588Y-50767438D01*
X99189160Y-51719819D02*
X99189160Y-50719819D01*
X99189160Y-50719819D02*
X99570112Y-50719819D01*
X99570112Y-50719819D02*
X99665350Y-50767438D01*
X99665350Y-50767438D02*
X99712969Y-50815057D01*
X99712969Y-50815057D02*
X99760588Y-50910295D01*
X99760588Y-50910295D02*
X99760588Y-51053152D01*
X99760588Y-51053152D02*
X99712969Y-51148390D01*
X99712969Y-51148390D02*
X99665350Y-51196009D01*
X99665350Y-51196009D02*
X99570112Y-51243628D01*
X99570112Y-51243628D02*
X99189160Y-51243628D01*
X100189160Y-51719819D02*
X100189160Y-50719819D01*
X135400148Y-82565748D02*
X134827728Y-82464733D01*
X134996087Y-82969809D02*
X134288980Y-82262702D01*
X134288980Y-82262702D02*
X134558354Y-81993328D01*
X134558354Y-81993328D02*
X134659369Y-81959656D01*
X134659369Y-81959656D02*
X134726713Y-81959656D01*
X134726713Y-81959656D02*
X134827728Y-81993328D01*
X134827728Y-81993328D02*
X134928743Y-82094343D01*
X134928743Y-82094343D02*
X134962415Y-82195358D01*
X134962415Y-82195358D02*
X134962415Y-82262702D01*
X134962415Y-82262702D02*
X134928743Y-82363717D01*
X134928743Y-82363717D02*
X134659369Y-82633091D01*
X135938896Y-81959656D02*
X135905224Y-82060671D01*
X135905224Y-82060671D02*
X135770537Y-82195358D01*
X135770537Y-82195358D02*
X135669522Y-82229030D01*
X135669522Y-82229030D02*
X135568506Y-82195358D01*
X135568506Y-82195358D02*
X135299132Y-81925984D01*
X135299132Y-81925984D02*
X135265461Y-81824969D01*
X135265461Y-81824969D02*
X135299132Y-81723954D01*
X135299132Y-81723954D02*
X135433819Y-81589267D01*
X135433819Y-81589267D02*
X135534835Y-81555595D01*
X135534835Y-81555595D02*
X135635850Y-81589267D01*
X135635850Y-81589267D02*
X135703193Y-81656610D01*
X135703193Y-81656610D02*
X135433819Y-82060671D01*
X136241941Y-81656610D02*
X136342957Y-81622939D01*
X136342957Y-81622939D02*
X136477644Y-81488252D01*
X136477644Y-81488252D02*
X136511315Y-81387236D01*
X136511315Y-81387236D02*
X136477644Y-81286221D01*
X136477644Y-81286221D02*
X136443972Y-81252549D01*
X136443972Y-81252549D02*
X136342957Y-81218878D01*
X136342957Y-81218878D02*
X136241941Y-81252549D01*
X136241941Y-81252549D02*
X136140926Y-81353565D01*
X136140926Y-81353565D02*
X136039911Y-81387236D01*
X136039911Y-81387236D02*
X135938896Y-81353565D01*
X135938896Y-81353565D02*
X135905224Y-81319893D01*
X135905224Y-81319893D02*
X135871552Y-81218878D01*
X135871552Y-81218878D02*
X135905224Y-81117862D01*
X135905224Y-81117862D02*
X136006239Y-81016847D01*
X136006239Y-81016847D02*
X136107254Y-80983175D01*
X137117407Y-80781145D02*
X137083735Y-80882160D01*
X137083735Y-80882160D02*
X136949048Y-81016847D01*
X136949048Y-81016847D02*
X136848033Y-81050519D01*
X136848033Y-81050519D02*
X136747018Y-81016847D01*
X136747018Y-81016847D02*
X136477644Y-80747473D01*
X136477644Y-80747473D02*
X136443972Y-80646458D01*
X136443972Y-80646458D02*
X136477644Y-80545442D01*
X136477644Y-80545442D02*
X136612331Y-80410755D01*
X136612331Y-80410755D02*
X136713346Y-80377084D01*
X136713346Y-80377084D02*
X136814361Y-80410755D01*
X136814361Y-80410755D02*
X136881705Y-80478099D01*
X136881705Y-80478099D02*
X136612331Y-80882160D01*
X136915377Y-80107710D02*
X137184751Y-79838336D01*
X136780690Y-79770992D02*
X137386781Y-80377084D01*
X137386781Y-80377084D02*
X137487796Y-80410755D01*
X137487796Y-80410755D02*
X137588812Y-80377084D01*
X137588812Y-80377084D02*
X137656155Y-80309740D01*
X119519819Y-51913220D02*
X120329342Y-51913220D01*
X120329342Y-51913220D02*
X120424580Y-51865601D01*
X120424580Y-51865601D02*
X120472200Y-51817982D01*
X120472200Y-51817982D02*
X120519819Y-51722744D01*
X120519819Y-51722744D02*
X120519819Y-51532268D01*
X120519819Y-51532268D02*
X120472200Y-51437030D01*
X120472200Y-51437030D02*
X120424580Y-51389411D01*
X120424580Y-51389411D02*
X120329342Y-51341792D01*
X120329342Y-51341792D02*
X119519819Y-51341792D01*
X120472200Y-50913220D02*
X120519819Y-50770363D01*
X120519819Y-50770363D02*
X120519819Y-50532268D01*
X120519819Y-50532268D02*
X120472200Y-50437030D01*
X120472200Y-50437030D02*
X120424580Y-50389411D01*
X120424580Y-50389411D02*
X120329342Y-50341792D01*
X120329342Y-50341792D02*
X120234104Y-50341792D01*
X120234104Y-50341792D02*
X120138866Y-50389411D01*
X120138866Y-50389411D02*
X120091247Y-50437030D01*
X120091247Y-50437030D02*
X120043628Y-50532268D01*
X120043628Y-50532268D02*
X119996009Y-50722744D01*
X119996009Y-50722744D02*
X119948390Y-50817982D01*
X119948390Y-50817982D02*
X119900771Y-50865601D01*
X119900771Y-50865601D02*
X119805533Y-50913220D01*
X119805533Y-50913220D02*
X119710295Y-50913220D01*
X119710295Y-50913220D02*
X119615057Y-50865601D01*
X119615057Y-50865601D02*
X119567438Y-50817982D01*
X119567438Y-50817982D02*
X119519819Y-50722744D01*
X119519819Y-50722744D02*
X119519819Y-50484649D01*
X119519819Y-50484649D02*
X119567438Y-50341792D01*
X119996009Y-49579887D02*
X120043628Y-49437030D01*
X120043628Y-49437030D02*
X120091247Y-49389411D01*
X120091247Y-49389411D02*
X120186485Y-49341792D01*
X120186485Y-49341792D02*
X120329342Y-49341792D01*
X120329342Y-49341792D02*
X120424580Y-49389411D01*
X120424580Y-49389411D02*
X120472200Y-49437030D01*
X120472200Y-49437030D02*
X120519819Y-49532268D01*
X120519819Y-49532268D02*
X120519819Y-49913220D01*
X120519819Y-49913220D02*
X119519819Y-49913220D01*
X119519819Y-49913220D02*
X119519819Y-49579887D01*
X119519819Y-49579887D02*
X119567438Y-49484649D01*
X119567438Y-49484649D02*
X119615057Y-49437030D01*
X119615057Y-49437030D02*
X119710295Y-49389411D01*
X119710295Y-49389411D02*
X119805533Y-49389411D01*
X119805533Y-49389411D02*
X119900771Y-49437030D01*
X119900771Y-49437030D02*
X119948390Y-49484649D01*
X119948390Y-49484649D02*
X119996009Y-49579887D01*
X119996009Y-49579887D02*
X119996009Y-49913220D01*
X120615057Y-49151316D02*
X120615057Y-48389411D01*
X119996009Y-47817982D02*
X120043628Y-47675125D01*
X120043628Y-47675125D02*
X120091247Y-47627506D01*
X120091247Y-47627506D02*
X120186485Y-47579887D01*
X120186485Y-47579887D02*
X120329342Y-47579887D01*
X120329342Y-47579887D02*
X120424580Y-47627506D01*
X120424580Y-47627506D02*
X120472200Y-47675125D01*
X120472200Y-47675125D02*
X120519819Y-47770363D01*
X120519819Y-47770363D02*
X120519819Y-48151315D01*
X120519819Y-48151315D02*
X119519819Y-48151315D01*
X119519819Y-48151315D02*
X119519819Y-47817982D01*
X119519819Y-47817982D02*
X119567438Y-47722744D01*
X119567438Y-47722744D02*
X119615057Y-47675125D01*
X119615057Y-47675125D02*
X119710295Y-47627506D01*
X119710295Y-47627506D02*
X119805533Y-47627506D01*
X119805533Y-47627506D02*
X119900771Y-47675125D01*
X119900771Y-47675125D02*
X119948390Y-47722744D01*
X119948390Y-47722744D02*
X119996009Y-47817982D01*
X119996009Y-47817982D02*
X119996009Y-48151315D01*
X119519819Y-46960839D02*
X119519819Y-46770363D01*
X119519819Y-46770363D02*
X119567438Y-46675125D01*
X119567438Y-46675125D02*
X119662676Y-46579887D01*
X119662676Y-46579887D02*
X119853152Y-46532268D01*
X119853152Y-46532268D02*
X120186485Y-46532268D01*
X120186485Y-46532268D02*
X120376961Y-46579887D01*
X120376961Y-46579887D02*
X120472200Y-46675125D01*
X120472200Y-46675125D02*
X120519819Y-46770363D01*
X120519819Y-46770363D02*
X120519819Y-46960839D01*
X120519819Y-46960839D02*
X120472200Y-47056077D01*
X120472200Y-47056077D02*
X120376961Y-47151315D01*
X120376961Y-47151315D02*
X120186485Y-47198934D01*
X120186485Y-47198934D02*
X119853152Y-47198934D01*
X119853152Y-47198934D02*
X119662676Y-47151315D01*
X119662676Y-47151315D02*
X119567438Y-47056077D01*
X119567438Y-47056077D02*
X119519819Y-46960839D01*
X119519819Y-45913220D02*
X119519819Y-45722744D01*
X119519819Y-45722744D02*
X119567438Y-45627506D01*
X119567438Y-45627506D02*
X119662676Y-45532268D01*
X119662676Y-45532268D02*
X119853152Y-45484649D01*
X119853152Y-45484649D02*
X120186485Y-45484649D01*
X120186485Y-45484649D02*
X120376961Y-45532268D01*
X120376961Y-45532268D02*
X120472200Y-45627506D01*
X120472200Y-45627506D02*
X120519819Y-45722744D01*
X120519819Y-45722744D02*
X120519819Y-45913220D01*
X120519819Y-45913220D02*
X120472200Y-46008458D01*
X120472200Y-46008458D02*
X120376961Y-46103696D01*
X120376961Y-46103696D02*
X120186485Y-46151315D01*
X120186485Y-46151315D02*
X119853152Y-46151315D01*
X119853152Y-46151315D02*
X119662676Y-46103696D01*
X119662676Y-46103696D02*
X119567438Y-46008458D01*
X119567438Y-46008458D02*
X119519819Y-45913220D01*
X119519819Y-45198934D02*
X119519819Y-44627506D01*
X120519819Y-44913220D02*
X119519819Y-44913220D01*
X119242200Y-52051316D02*
X119242200Y-44632268D01*
X101486779Y-70519819D02*
X101486779Y-71329342D01*
X101486779Y-71329342D02*
X101534398Y-71424580D01*
X101534398Y-71424580D02*
X101582017Y-71472200D01*
X101582017Y-71472200D02*
X101677255Y-71519819D01*
X101677255Y-71519819D02*
X101867731Y-71519819D01*
X101867731Y-71519819D02*
X101962969Y-71472200D01*
X101962969Y-71472200D02*
X102010588Y-71424580D01*
X102010588Y-71424580D02*
X102058207Y-71329342D01*
X102058207Y-71329342D02*
X102058207Y-70519819D01*
X102486779Y-71234104D02*
X102962969Y-71234104D01*
X102391541Y-71519819D02*
X102724874Y-70519819D01*
X102724874Y-70519819D02*
X103058207Y-71519819D01*
X103962969Y-71519819D02*
X103629636Y-71043628D01*
X103391541Y-71519819D02*
X103391541Y-70519819D01*
X103391541Y-70519819D02*
X103772493Y-70519819D01*
X103772493Y-70519819D02*
X103867731Y-70567438D01*
X103867731Y-70567438D02*
X103915350Y-70615057D01*
X103915350Y-70615057D02*
X103962969Y-70710295D01*
X103962969Y-70710295D02*
X103962969Y-70853152D01*
X103962969Y-70853152D02*
X103915350Y-70948390D01*
X103915350Y-70948390D02*
X103867731Y-70996009D01*
X103867731Y-70996009D02*
X103772493Y-71043628D01*
X103772493Y-71043628D02*
X103391541Y-71043628D01*
X104248684Y-70519819D02*
X104820112Y-70519819D01*
X104534398Y-71519819D02*
X104534398Y-70519819D01*
X115758207Y-61619819D02*
X115424874Y-61143628D01*
X115186779Y-61619819D02*
X115186779Y-60619819D01*
X115186779Y-60619819D02*
X115567731Y-60619819D01*
X115567731Y-60619819D02*
X115662969Y-60667438D01*
X115662969Y-60667438D02*
X115710588Y-60715057D01*
X115710588Y-60715057D02*
X115758207Y-60810295D01*
X115758207Y-60810295D02*
X115758207Y-60953152D01*
X115758207Y-60953152D02*
X115710588Y-61048390D01*
X115710588Y-61048390D02*
X115662969Y-61096009D01*
X115662969Y-61096009D02*
X115567731Y-61143628D01*
X115567731Y-61143628D02*
X115186779Y-61143628D01*
X116091541Y-60619819D02*
X116758207Y-61619819D01*
X116758207Y-60619819D02*
X116091541Y-61619819D01*
X152030180Y-74158207D02*
X152506371Y-73824874D01*
X152030180Y-73586779D02*
X153030180Y-73586779D01*
X153030180Y-73586779D02*
X153030180Y-73967731D01*
X153030180Y-73967731D02*
X152982561Y-74062969D01*
X152982561Y-74062969D02*
X152934942Y-74110588D01*
X152934942Y-74110588D02*
X152839704Y-74158207D01*
X152839704Y-74158207D02*
X152696847Y-74158207D01*
X152696847Y-74158207D02*
X152601609Y-74110588D01*
X152601609Y-74110588D02*
X152553990Y-74062969D01*
X152553990Y-74062969D02*
X152506371Y-73967731D01*
X152506371Y-73967731D02*
X152506371Y-73586779D01*
X152553990Y-74586779D02*
X152553990Y-74920112D01*
X152030180Y-75062969D02*
X152030180Y-74586779D01*
X152030180Y-74586779D02*
X153030180Y-74586779D01*
X153030180Y-74586779D02*
X153030180Y-75062969D01*
X152077800Y-75443922D02*
X152030180Y-75586779D01*
X152030180Y-75586779D02*
X152030180Y-75824874D01*
X152030180Y-75824874D02*
X152077800Y-75920112D01*
X152077800Y-75920112D02*
X152125419Y-75967731D01*
X152125419Y-75967731D02*
X152220657Y-76015350D01*
X152220657Y-76015350D02*
X152315895Y-76015350D01*
X152315895Y-76015350D02*
X152411133Y-75967731D01*
X152411133Y-75967731D02*
X152458752Y-75920112D01*
X152458752Y-75920112D02*
X152506371Y-75824874D01*
X152506371Y-75824874D02*
X152553990Y-75634398D01*
X152553990Y-75634398D02*
X152601609Y-75539160D01*
X152601609Y-75539160D02*
X152649228Y-75491541D01*
X152649228Y-75491541D02*
X152744466Y-75443922D01*
X152744466Y-75443922D02*
X152839704Y-75443922D01*
X152839704Y-75443922D02*
X152934942Y-75491541D01*
X152934942Y-75491541D02*
X152982561Y-75539160D01*
X152982561Y-75539160D02*
X153030180Y-75634398D01*
X153030180Y-75634398D02*
X153030180Y-75872493D01*
X153030180Y-75872493D02*
X152982561Y-76015350D01*
X152553990Y-76443922D02*
X152553990Y-76777255D01*
X152030180Y-76920112D02*
X152030180Y-76443922D01*
X152030180Y-76443922D02*
X153030180Y-76443922D01*
X153030180Y-76443922D02*
X153030180Y-76920112D01*
X153030180Y-77205827D02*
X153030180Y-77777255D01*
X152030180Y-77491541D02*
X153030180Y-77491541D01*
X153307800Y-73448684D02*
X153307800Y-77772494D01*
X167049931Y-76839411D02*
X167049931Y-77410839D01*
X167049931Y-77125125D02*
X166049931Y-77125125D01*
X166049931Y-77125125D02*
X166192788Y-77220363D01*
X166192788Y-77220363D02*
X166288026Y-77315601D01*
X166288026Y-77315601D02*
X166335645Y-77410839D01*
X166954692Y-76410839D02*
X167002312Y-76363220D01*
X167002312Y-76363220D02*
X167049931Y-76410839D01*
X167049931Y-76410839D02*
X167002312Y-76458458D01*
X167002312Y-76458458D02*
X166954692Y-76410839D01*
X166954692Y-76410839D02*
X167049931Y-76410839D01*
X166145169Y-75982268D02*
X166097550Y-75934649D01*
X166097550Y-75934649D02*
X166049931Y-75839411D01*
X166049931Y-75839411D02*
X166049931Y-75601316D01*
X166049931Y-75601316D02*
X166097550Y-75506078D01*
X166097550Y-75506078D02*
X166145169Y-75458459D01*
X166145169Y-75458459D02*
X166240407Y-75410840D01*
X166240407Y-75410840D02*
X166335645Y-75410840D01*
X166335645Y-75410840D02*
X166478502Y-75458459D01*
X166478502Y-75458459D02*
X167049931Y-76029887D01*
X167049931Y-76029887D02*
X167049931Y-75410840D01*
X166049931Y-75125125D02*
X167049931Y-74791792D01*
X167049931Y-74791792D02*
X166049931Y-74458459D01*
X167049931Y-74125125D02*
X166049931Y-74125125D01*
X166049931Y-74125125D02*
X166049931Y-73887030D01*
X166049931Y-73887030D02*
X166097550Y-73744173D01*
X166097550Y-73744173D02*
X166192788Y-73648935D01*
X166192788Y-73648935D02*
X166288026Y-73601316D01*
X166288026Y-73601316D02*
X166478502Y-73553697D01*
X166478502Y-73553697D02*
X166621359Y-73553697D01*
X166621359Y-73553697D02*
X166811835Y-73601316D01*
X166811835Y-73601316D02*
X166907073Y-73648935D01*
X166907073Y-73648935D02*
X167002312Y-73744173D01*
X167002312Y-73744173D02*
X167049931Y-73887030D01*
X167049931Y-73887030D02*
X167049931Y-74125125D01*
X168564636Y-76791792D02*
X168612256Y-76839411D01*
X168612256Y-76839411D02*
X168659875Y-76982268D01*
X168659875Y-76982268D02*
X168659875Y-77077506D01*
X168659875Y-77077506D02*
X168612256Y-77220363D01*
X168612256Y-77220363D02*
X168517017Y-77315601D01*
X168517017Y-77315601D02*
X168421779Y-77363220D01*
X168421779Y-77363220D02*
X168231303Y-77410839D01*
X168231303Y-77410839D02*
X168088446Y-77410839D01*
X168088446Y-77410839D02*
X167897970Y-77363220D01*
X167897970Y-77363220D02*
X167802732Y-77315601D01*
X167802732Y-77315601D02*
X167707494Y-77220363D01*
X167707494Y-77220363D02*
X167659875Y-77077506D01*
X167659875Y-77077506D02*
X167659875Y-76982268D01*
X167659875Y-76982268D02*
X167707494Y-76839411D01*
X167707494Y-76839411D02*
X167755113Y-76791792D01*
X167993208Y-75934649D02*
X168659875Y-75934649D01*
X167993208Y-76363220D02*
X168517017Y-76363220D01*
X168517017Y-76363220D02*
X168612256Y-76315601D01*
X168612256Y-76315601D02*
X168659875Y-76220363D01*
X168659875Y-76220363D02*
X168659875Y-76077506D01*
X168659875Y-76077506D02*
X168612256Y-75982268D01*
X168612256Y-75982268D02*
X168564636Y-75934649D01*
X168659875Y-75458458D02*
X167993208Y-75458458D01*
X168183684Y-75458458D02*
X168088446Y-75410839D01*
X168088446Y-75410839D02*
X168040827Y-75363220D01*
X168040827Y-75363220D02*
X167993208Y-75267982D01*
X167993208Y-75267982D02*
X167993208Y-75172744D01*
X168659875Y-74839410D02*
X167993208Y-74839410D01*
X168183684Y-74839410D02*
X168088446Y-74791791D01*
X168088446Y-74791791D02*
X168040827Y-74744172D01*
X168040827Y-74744172D02*
X167993208Y-74648934D01*
X167993208Y-74648934D02*
X167993208Y-74553696D01*
X168612256Y-73839410D02*
X168659875Y-73934648D01*
X168659875Y-73934648D02*
X168659875Y-74125124D01*
X168659875Y-74125124D02*
X168612256Y-74220362D01*
X168612256Y-74220362D02*
X168517017Y-74267981D01*
X168517017Y-74267981D02*
X168136065Y-74267981D01*
X168136065Y-74267981D02*
X168040827Y-74220362D01*
X168040827Y-74220362D02*
X167993208Y-74125124D01*
X167993208Y-74125124D02*
X167993208Y-73934648D01*
X167993208Y-73934648D02*
X168040827Y-73839410D01*
X168040827Y-73839410D02*
X168136065Y-73791791D01*
X168136065Y-73791791D02*
X168231303Y-73791791D01*
X168231303Y-73791791D02*
X168326541Y-74267981D01*
X167993208Y-73363219D02*
X168659875Y-73363219D01*
X168088446Y-73363219D02*
X168040827Y-73315600D01*
X168040827Y-73315600D02*
X167993208Y-73220362D01*
X167993208Y-73220362D02*
X167993208Y-73077505D01*
X167993208Y-73077505D02*
X168040827Y-72982267D01*
X168040827Y-72982267D02*
X168136065Y-72934648D01*
X168136065Y-72934648D02*
X168659875Y-72934648D01*
X167993208Y-72601314D02*
X167993208Y-72220362D01*
X167659875Y-72458457D02*
X168517017Y-72458457D01*
X168517017Y-72458457D02*
X168612256Y-72410838D01*
X168612256Y-72410838D02*
X168659875Y-72315600D01*
X168659875Y-72315600D02*
X168659875Y-72220362D01*
X170269819Y-77363220D02*
X169269819Y-77363220D01*
X169269819Y-77363220D02*
X169269819Y-76982268D01*
X169269819Y-76982268D02*
X169317438Y-76887030D01*
X169317438Y-76887030D02*
X169365057Y-76839411D01*
X169365057Y-76839411D02*
X169460295Y-76791792D01*
X169460295Y-76791792D02*
X169603152Y-76791792D01*
X169603152Y-76791792D02*
X169698390Y-76839411D01*
X169698390Y-76839411D02*
X169746009Y-76887030D01*
X169746009Y-76887030D02*
X169793628Y-76982268D01*
X169793628Y-76982268D02*
X169793628Y-77363220D01*
X170269819Y-76363220D02*
X169603152Y-76363220D01*
X169793628Y-76363220D02*
X169698390Y-76315601D01*
X169698390Y-76315601D02*
X169650771Y-76267982D01*
X169650771Y-76267982D02*
X169603152Y-76172744D01*
X169603152Y-76172744D02*
X169603152Y-76077506D01*
X170269819Y-75601315D02*
X170222200Y-75696553D01*
X170222200Y-75696553D02*
X170174580Y-75744172D01*
X170174580Y-75744172D02*
X170079342Y-75791791D01*
X170079342Y-75791791D02*
X169793628Y-75791791D01*
X169793628Y-75791791D02*
X169698390Y-75744172D01*
X169698390Y-75744172D02*
X169650771Y-75696553D01*
X169650771Y-75696553D02*
X169603152Y-75601315D01*
X169603152Y-75601315D02*
X169603152Y-75458458D01*
X169603152Y-75458458D02*
X169650771Y-75363220D01*
X169650771Y-75363220D02*
X169698390Y-75315601D01*
X169698390Y-75315601D02*
X169793628Y-75267982D01*
X169793628Y-75267982D02*
X170079342Y-75267982D01*
X170079342Y-75267982D02*
X170174580Y-75315601D01*
X170174580Y-75315601D02*
X170222200Y-75363220D01*
X170222200Y-75363220D02*
X170269819Y-75458458D01*
X170269819Y-75458458D02*
X170269819Y-75601315D01*
X170269819Y-74839410D02*
X169269819Y-74839410D01*
X169650771Y-74839410D02*
X169603152Y-74744172D01*
X169603152Y-74744172D02*
X169603152Y-74553696D01*
X169603152Y-74553696D02*
X169650771Y-74458458D01*
X169650771Y-74458458D02*
X169698390Y-74410839D01*
X169698390Y-74410839D02*
X169793628Y-74363220D01*
X169793628Y-74363220D02*
X170079342Y-74363220D01*
X170079342Y-74363220D02*
X170174580Y-74410839D01*
X170174580Y-74410839D02*
X170222200Y-74458458D01*
X170222200Y-74458458D02*
X170269819Y-74553696D01*
X170269819Y-74553696D02*
X170269819Y-74744172D01*
X170269819Y-74744172D02*
X170222200Y-74839410D01*
X170222200Y-73553696D02*
X170269819Y-73648934D01*
X170269819Y-73648934D02*
X170269819Y-73839410D01*
X170269819Y-73839410D02*
X170222200Y-73934648D01*
X170222200Y-73934648D02*
X170126961Y-73982267D01*
X170126961Y-73982267D02*
X169746009Y-73982267D01*
X169746009Y-73982267D02*
X169650771Y-73934648D01*
X169650771Y-73934648D02*
X169603152Y-73839410D01*
X169603152Y-73839410D02*
X169603152Y-73648934D01*
X169603152Y-73648934D02*
X169650771Y-73553696D01*
X169650771Y-73553696D02*
X169746009Y-73506077D01*
X169746009Y-73506077D02*
X169841247Y-73506077D01*
X169841247Y-73506077D02*
X169936485Y-73982267D01*
X154999931Y-78156077D02*
X155999931Y-77822744D01*
X155999931Y-77822744D02*
X154999931Y-77489411D01*
X155999931Y-76632268D02*
X155999931Y-77203696D01*
X155999931Y-76917982D02*
X154999931Y-76917982D01*
X154999931Y-76917982D02*
X155142788Y-77013220D01*
X155142788Y-77013220D02*
X155238026Y-77108458D01*
X155238026Y-77108458D02*
X155285645Y-77203696D01*
X155904692Y-76203696D02*
X155952312Y-76156077D01*
X155952312Y-76156077D02*
X155999931Y-76203696D01*
X155999931Y-76203696D02*
X155952312Y-76251315D01*
X155952312Y-76251315D02*
X155904692Y-76203696D01*
X155904692Y-76203696D02*
X155999931Y-76203696D01*
X155095169Y-75775125D02*
X155047550Y-75727506D01*
X155047550Y-75727506D02*
X154999931Y-75632268D01*
X154999931Y-75632268D02*
X154999931Y-75394173D01*
X154999931Y-75394173D02*
X155047550Y-75298935D01*
X155047550Y-75298935D02*
X155095169Y-75251316D01*
X155095169Y-75251316D02*
X155190407Y-75203697D01*
X155190407Y-75203697D02*
X155285645Y-75203697D01*
X155285645Y-75203697D02*
X155428502Y-75251316D01*
X155428502Y-75251316D02*
X155999931Y-75822744D01*
X155999931Y-75822744D02*
X155999931Y-75203697D01*
X155714216Y-74822744D02*
X155714216Y-74346554D01*
X155999931Y-74917982D02*
X154999931Y-74584649D01*
X154999931Y-74584649D02*
X155999931Y-74251316D01*
X157514636Y-77441792D02*
X157562256Y-77489411D01*
X157562256Y-77489411D02*
X157609875Y-77632268D01*
X157609875Y-77632268D02*
X157609875Y-77727506D01*
X157609875Y-77727506D02*
X157562256Y-77870363D01*
X157562256Y-77870363D02*
X157467017Y-77965601D01*
X157467017Y-77965601D02*
X157371779Y-78013220D01*
X157371779Y-78013220D02*
X157181303Y-78060839D01*
X157181303Y-78060839D02*
X157038446Y-78060839D01*
X157038446Y-78060839D02*
X156847970Y-78013220D01*
X156847970Y-78013220D02*
X156752732Y-77965601D01*
X156752732Y-77965601D02*
X156657494Y-77870363D01*
X156657494Y-77870363D02*
X156609875Y-77727506D01*
X156609875Y-77727506D02*
X156609875Y-77632268D01*
X156609875Y-77632268D02*
X156657494Y-77489411D01*
X156657494Y-77489411D02*
X156705113Y-77441792D01*
X156943208Y-76584649D02*
X157609875Y-76584649D01*
X156943208Y-77013220D02*
X157467017Y-77013220D01*
X157467017Y-77013220D02*
X157562256Y-76965601D01*
X157562256Y-76965601D02*
X157609875Y-76870363D01*
X157609875Y-76870363D02*
X157609875Y-76727506D01*
X157609875Y-76727506D02*
X157562256Y-76632268D01*
X157562256Y-76632268D02*
X157514636Y-76584649D01*
X157609875Y-76108458D02*
X156943208Y-76108458D01*
X157133684Y-76108458D02*
X157038446Y-76060839D01*
X157038446Y-76060839D02*
X156990827Y-76013220D01*
X156990827Y-76013220D02*
X156943208Y-75917982D01*
X156943208Y-75917982D02*
X156943208Y-75822744D01*
X157609875Y-75489410D02*
X156943208Y-75489410D01*
X157133684Y-75489410D02*
X157038446Y-75441791D01*
X157038446Y-75441791D02*
X156990827Y-75394172D01*
X156990827Y-75394172D02*
X156943208Y-75298934D01*
X156943208Y-75298934D02*
X156943208Y-75203696D01*
X157562256Y-74489410D02*
X157609875Y-74584648D01*
X157609875Y-74584648D02*
X157609875Y-74775124D01*
X157609875Y-74775124D02*
X157562256Y-74870362D01*
X157562256Y-74870362D02*
X157467017Y-74917981D01*
X157467017Y-74917981D02*
X157086065Y-74917981D01*
X157086065Y-74917981D02*
X156990827Y-74870362D01*
X156990827Y-74870362D02*
X156943208Y-74775124D01*
X156943208Y-74775124D02*
X156943208Y-74584648D01*
X156943208Y-74584648D02*
X156990827Y-74489410D01*
X156990827Y-74489410D02*
X157086065Y-74441791D01*
X157086065Y-74441791D02*
X157181303Y-74441791D01*
X157181303Y-74441791D02*
X157276541Y-74917981D01*
X156943208Y-74013219D02*
X157609875Y-74013219D01*
X157038446Y-74013219D02*
X156990827Y-73965600D01*
X156990827Y-73965600D02*
X156943208Y-73870362D01*
X156943208Y-73870362D02*
X156943208Y-73727505D01*
X156943208Y-73727505D02*
X156990827Y-73632267D01*
X156990827Y-73632267D02*
X157086065Y-73584648D01*
X157086065Y-73584648D02*
X157609875Y-73584648D01*
X156943208Y-73251314D02*
X156943208Y-72870362D01*
X156609875Y-73108457D02*
X157467017Y-73108457D01*
X157467017Y-73108457D02*
X157562256Y-73060838D01*
X157562256Y-73060838D02*
X157609875Y-72965600D01*
X157609875Y-72965600D02*
X157609875Y-72870362D01*
X159219819Y-78013220D02*
X158219819Y-78013220D01*
X158219819Y-78013220D02*
X158219819Y-77632268D01*
X158219819Y-77632268D02*
X158267438Y-77537030D01*
X158267438Y-77537030D02*
X158315057Y-77489411D01*
X158315057Y-77489411D02*
X158410295Y-77441792D01*
X158410295Y-77441792D02*
X158553152Y-77441792D01*
X158553152Y-77441792D02*
X158648390Y-77489411D01*
X158648390Y-77489411D02*
X158696009Y-77537030D01*
X158696009Y-77537030D02*
X158743628Y-77632268D01*
X158743628Y-77632268D02*
X158743628Y-78013220D01*
X159219819Y-77013220D02*
X158553152Y-77013220D01*
X158743628Y-77013220D02*
X158648390Y-76965601D01*
X158648390Y-76965601D02*
X158600771Y-76917982D01*
X158600771Y-76917982D02*
X158553152Y-76822744D01*
X158553152Y-76822744D02*
X158553152Y-76727506D01*
X159219819Y-76251315D02*
X159172200Y-76346553D01*
X159172200Y-76346553D02*
X159124580Y-76394172D01*
X159124580Y-76394172D02*
X159029342Y-76441791D01*
X159029342Y-76441791D02*
X158743628Y-76441791D01*
X158743628Y-76441791D02*
X158648390Y-76394172D01*
X158648390Y-76394172D02*
X158600771Y-76346553D01*
X158600771Y-76346553D02*
X158553152Y-76251315D01*
X158553152Y-76251315D02*
X158553152Y-76108458D01*
X158553152Y-76108458D02*
X158600771Y-76013220D01*
X158600771Y-76013220D02*
X158648390Y-75965601D01*
X158648390Y-75965601D02*
X158743628Y-75917982D01*
X158743628Y-75917982D02*
X159029342Y-75917982D01*
X159029342Y-75917982D02*
X159124580Y-75965601D01*
X159124580Y-75965601D02*
X159172200Y-76013220D01*
X159172200Y-76013220D02*
X159219819Y-76108458D01*
X159219819Y-76108458D02*
X159219819Y-76251315D01*
X159219819Y-75489410D02*
X158219819Y-75489410D01*
X158600771Y-75489410D02*
X158553152Y-75394172D01*
X158553152Y-75394172D02*
X158553152Y-75203696D01*
X158553152Y-75203696D02*
X158600771Y-75108458D01*
X158600771Y-75108458D02*
X158648390Y-75060839D01*
X158648390Y-75060839D02*
X158743628Y-75013220D01*
X158743628Y-75013220D02*
X159029342Y-75013220D01*
X159029342Y-75013220D02*
X159124580Y-75060839D01*
X159124580Y-75060839D02*
X159172200Y-75108458D01*
X159172200Y-75108458D02*
X159219819Y-75203696D01*
X159219819Y-75203696D02*
X159219819Y-75394172D01*
X159219819Y-75394172D02*
X159172200Y-75489410D01*
X159172200Y-74203696D02*
X159219819Y-74298934D01*
X159219819Y-74298934D02*
X159219819Y-74489410D01*
X159219819Y-74489410D02*
X159172200Y-74584648D01*
X159172200Y-74584648D02*
X159076961Y-74632267D01*
X159076961Y-74632267D02*
X158696009Y-74632267D01*
X158696009Y-74632267D02*
X158600771Y-74584648D01*
X158600771Y-74584648D02*
X158553152Y-74489410D01*
X158553152Y-74489410D02*
X158553152Y-74298934D01*
X158553152Y-74298934D02*
X158600771Y-74203696D01*
X158600771Y-74203696D02*
X158696009Y-74156077D01*
X158696009Y-74156077D02*
X158791247Y-74156077D01*
X158791247Y-74156077D02*
X158886485Y-74632267D01*
X115589160Y-58362256D02*
X115732017Y-58409875D01*
X115732017Y-58409875D02*
X115970112Y-58409875D01*
X115970112Y-58409875D02*
X116065350Y-58362256D01*
X116065350Y-58362256D02*
X116112969Y-58314636D01*
X116112969Y-58314636D02*
X116160588Y-58219398D01*
X116160588Y-58219398D02*
X116160588Y-58124160D01*
X116160588Y-58124160D02*
X116112969Y-58028922D01*
X116112969Y-58028922D02*
X116065350Y-57981303D01*
X116065350Y-57981303D02*
X115970112Y-57933684D01*
X115970112Y-57933684D02*
X115779636Y-57886065D01*
X115779636Y-57886065D02*
X115684398Y-57838446D01*
X115684398Y-57838446D02*
X115636779Y-57790827D01*
X115636779Y-57790827D02*
X115589160Y-57695589D01*
X115589160Y-57695589D02*
X115589160Y-57600351D01*
X115589160Y-57600351D02*
X115636779Y-57505113D01*
X115636779Y-57505113D02*
X115684398Y-57457494D01*
X115684398Y-57457494D02*
X115779636Y-57409875D01*
X115779636Y-57409875D02*
X116017731Y-57409875D01*
X116017731Y-57409875D02*
X116160588Y-57457494D01*
X116589160Y-58409875D02*
X116589160Y-57409875D01*
X116589160Y-57409875D02*
X116827255Y-57409875D01*
X116827255Y-57409875D02*
X116970112Y-57457494D01*
X116970112Y-57457494D02*
X117065350Y-57552732D01*
X117065350Y-57552732D02*
X117112969Y-57647970D01*
X117112969Y-57647970D02*
X117160588Y-57838446D01*
X117160588Y-57838446D02*
X117160588Y-57981303D01*
X117160588Y-57981303D02*
X117112969Y-58171779D01*
X117112969Y-58171779D02*
X117065350Y-58267017D01*
X117065350Y-58267017D02*
X116970112Y-58362256D01*
X116970112Y-58362256D02*
X116827255Y-58409875D01*
X116827255Y-58409875D02*
X116589160Y-58409875D01*
X117541541Y-58124160D02*
X118017731Y-58124160D01*
X117446303Y-58409875D02*
X117779636Y-57409875D01*
X117779636Y-57409875D02*
X118112969Y-58409875D01*
X118970112Y-58409875D02*
X118398684Y-58409875D01*
X118684398Y-58409875D02*
X118684398Y-57409875D01*
X118684398Y-57409875D02*
X118589160Y-57552732D01*
X118589160Y-57552732D02*
X118493922Y-57647970D01*
X118493922Y-57647970D02*
X118398684Y-57695589D01*
X115589160Y-59972200D02*
X115732017Y-60019819D01*
X115732017Y-60019819D02*
X115970112Y-60019819D01*
X115970112Y-60019819D02*
X116065350Y-59972200D01*
X116065350Y-59972200D02*
X116112969Y-59924580D01*
X116112969Y-59924580D02*
X116160588Y-59829342D01*
X116160588Y-59829342D02*
X116160588Y-59734104D01*
X116160588Y-59734104D02*
X116112969Y-59638866D01*
X116112969Y-59638866D02*
X116065350Y-59591247D01*
X116065350Y-59591247D02*
X115970112Y-59543628D01*
X115970112Y-59543628D02*
X115779636Y-59496009D01*
X115779636Y-59496009D02*
X115684398Y-59448390D01*
X115684398Y-59448390D02*
X115636779Y-59400771D01*
X115636779Y-59400771D02*
X115589160Y-59305533D01*
X115589160Y-59305533D02*
X115589160Y-59210295D01*
X115589160Y-59210295D02*
X115636779Y-59115057D01*
X115636779Y-59115057D02*
X115684398Y-59067438D01*
X115684398Y-59067438D02*
X115779636Y-59019819D01*
X115779636Y-59019819D02*
X116017731Y-59019819D01*
X116017731Y-59019819D02*
X116160588Y-59067438D01*
X117160588Y-59924580D02*
X117112969Y-59972200D01*
X117112969Y-59972200D02*
X116970112Y-60019819D01*
X116970112Y-60019819D02*
X116874874Y-60019819D01*
X116874874Y-60019819D02*
X116732017Y-59972200D01*
X116732017Y-59972200D02*
X116636779Y-59876961D01*
X116636779Y-59876961D02*
X116589160Y-59781723D01*
X116589160Y-59781723D02*
X116541541Y-59591247D01*
X116541541Y-59591247D02*
X116541541Y-59448390D01*
X116541541Y-59448390D02*
X116589160Y-59257914D01*
X116589160Y-59257914D02*
X116636779Y-59162676D01*
X116636779Y-59162676D02*
X116732017Y-59067438D01*
X116732017Y-59067438D02*
X116874874Y-59019819D01*
X116874874Y-59019819D02*
X116970112Y-59019819D01*
X116970112Y-59019819D02*
X117112969Y-59067438D01*
X117112969Y-59067438D02*
X117160588Y-59115057D01*
X118065350Y-60019819D02*
X117589160Y-60019819D01*
X117589160Y-60019819D02*
X117589160Y-59019819D01*
X118922493Y-60019819D02*
X118351065Y-60019819D01*
X118636779Y-60019819D02*
X118636779Y-59019819D01*
X118636779Y-59019819D02*
X118541541Y-59162676D01*
X118541541Y-59162676D02*
X118446303Y-59257914D01*
X118446303Y-59257914D02*
X118351065Y-59305533D01*
X128620112Y-44886065D02*
X128286779Y-44886065D01*
X128286779Y-45409875D02*
X128286779Y-44409875D01*
X128286779Y-44409875D02*
X128762969Y-44409875D01*
X129286779Y-45409875D02*
X129191541Y-45362256D01*
X129191541Y-45362256D02*
X129143922Y-45267017D01*
X129143922Y-45267017D02*
X129143922Y-44409875D01*
X130096303Y-45409875D02*
X130096303Y-44886065D01*
X130096303Y-44886065D02*
X130048684Y-44790827D01*
X130048684Y-44790827D02*
X129953446Y-44743208D01*
X129953446Y-44743208D02*
X129762970Y-44743208D01*
X129762970Y-44743208D02*
X129667732Y-44790827D01*
X130096303Y-45362256D02*
X130001065Y-45409875D01*
X130001065Y-45409875D02*
X129762970Y-45409875D01*
X129762970Y-45409875D02*
X129667732Y-45362256D01*
X129667732Y-45362256D02*
X129620113Y-45267017D01*
X129620113Y-45267017D02*
X129620113Y-45171779D01*
X129620113Y-45171779D02*
X129667732Y-45076541D01*
X129667732Y-45076541D02*
X129762970Y-45028922D01*
X129762970Y-45028922D02*
X130001065Y-45028922D01*
X130001065Y-45028922D02*
X130096303Y-44981303D01*
X130524875Y-45362256D02*
X130620113Y-45409875D01*
X130620113Y-45409875D02*
X130810589Y-45409875D01*
X130810589Y-45409875D02*
X130905827Y-45362256D01*
X130905827Y-45362256D02*
X130953446Y-45267017D01*
X130953446Y-45267017D02*
X130953446Y-45219398D01*
X130953446Y-45219398D02*
X130905827Y-45124160D01*
X130905827Y-45124160D02*
X130810589Y-45076541D01*
X130810589Y-45076541D02*
X130667732Y-45076541D01*
X130667732Y-45076541D02*
X130572494Y-45028922D01*
X130572494Y-45028922D02*
X130524875Y-44933684D01*
X130524875Y-44933684D02*
X130524875Y-44886065D01*
X130524875Y-44886065D02*
X130572494Y-44790827D01*
X130572494Y-44790827D02*
X130667732Y-44743208D01*
X130667732Y-44743208D02*
X130810589Y-44743208D01*
X130810589Y-44743208D02*
X130905827Y-44790827D01*
X131382018Y-45409875D02*
X131382018Y-44409875D01*
X131810589Y-45409875D02*
X131810589Y-44886065D01*
X131810589Y-44886065D02*
X131762970Y-44790827D01*
X131762970Y-44790827D02*
X131667732Y-44743208D01*
X131667732Y-44743208D02*
X131524875Y-44743208D01*
X131524875Y-44743208D02*
X131429637Y-44790827D01*
X131429637Y-44790827D02*
X131382018Y-44838446D01*
X128953445Y-47115057D02*
X128858207Y-47067438D01*
X128858207Y-47067438D02*
X128762969Y-46972200D01*
X128762969Y-46972200D02*
X128620112Y-46829342D01*
X128620112Y-46829342D02*
X128524874Y-46781723D01*
X128524874Y-46781723D02*
X128429636Y-46781723D01*
X128477255Y-47019819D02*
X128382017Y-46972200D01*
X128382017Y-46972200D02*
X128286779Y-46876961D01*
X128286779Y-46876961D02*
X128239160Y-46686485D01*
X128239160Y-46686485D02*
X128239160Y-46353152D01*
X128239160Y-46353152D02*
X128286779Y-46162676D01*
X128286779Y-46162676D02*
X128382017Y-46067438D01*
X128382017Y-46067438D02*
X128477255Y-46019819D01*
X128477255Y-46019819D02*
X128667731Y-46019819D01*
X128667731Y-46019819D02*
X128762969Y-46067438D01*
X128762969Y-46067438D02*
X128858207Y-46162676D01*
X128858207Y-46162676D02*
X128905826Y-46353152D01*
X128905826Y-46353152D02*
X128905826Y-46686485D01*
X128905826Y-46686485D02*
X128858207Y-46876961D01*
X128858207Y-46876961D02*
X128762969Y-46972200D01*
X128762969Y-46972200D02*
X128667731Y-47019819D01*
X128667731Y-47019819D02*
X128477255Y-47019819D01*
X129286779Y-46972200D02*
X129429636Y-47019819D01*
X129429636Y-47019819D02*
X129667731Y-47019819D01*
X129667731Y-47019819D02*
X129762969Y-46972200D01*
X129762969Y-46972200D02*
X129810588Y-46924580D01*
X129810588Y-46924580D02*
X129858207Y-46829342D01*
X129858207Y-46829342D02*
X129858207Y-46734104D01*
X129858207Y-46734104D02*
X129810588Y-46638866D01*
X129810588Y-46638866D02*
X129762969Y-46591247D01*
X129762969Y-46591247D02*
X129667731Y-46543628D01*
X129667731Y-46543628D02*
X129477255Y-46496009D01*
X129477255Y-46496009D02*
X129382017Y-46448390D01*
X129382017Y-46448390D02*
X129334398Y-46400771D01*
X129334398Y-46400771D02*
X129286779Y-46305533D01*
X129286779Y-46305533D02*
X129286779Y-46210295D01*
X129286779Y-46210295D02*
X129334398Y-46115057D01*
X129334398Y-46115057D02*
X129382017Y-46067438D01*
X129382017Y-46067438D02*
X129477255Y-46019819D01*
X129477255Y-46019819D02*
X129715350Y-46019819D01*
X129715350Y-46019819D02*
X129858207Y-46067438D01*
X130286779Y-47019819D02*
X130286779Y-46019819D01*
X130286779Y-46019819D02*
X130667731Y-46019819D01*
X130667731Y-46019819D02*
X130762969Y-46067438D01*
X130762969Y-46067438D02*
X130810588Y-46115057D01*
X130810588Y-46115057D02*
X130858207Y-46210295D01*
X130858207Y-46210295D02*
X130858207Y-46353152D01*
X130858207Y-46353152D02*
X130810588Y-46448390D01*
X130810588Y-46448390D02*
X130762969Y-46496009D01*
X130762969Y-46496009D02*
X130667731Y-46543628D01*
X130667731Y-46543628D02*
X130286779Y-46543628D01*
X131286779Y-47019819D02*
X131286779Y-46019819D01*
X141272493Y-136069819D02*
X141272493Y-136784104D01*
X141272493Y-136784104D02*
X141224874Y-136926961D01*
X141224874Y-136926961D02*
X141129636Y-137022200D01*
X141129636Y-137022200D02*
X140986779Y-137069819D01*
X140986779Y-137069819D02*
X140891541Y-137069819D01*
X142224874Y-137069819D02*
X141748684Y-137069819D01*
X141748684Y-137069819D02*
X141748684Y-136069819D01*
X143129636Y-136974580D02*
X143082017Y-137022200D01*
X143082017Y-137022200D02*
X142939160Y-137069819D01*
X142939160Y-137069819D02*
X142843922Y-137069819D01*
X142843922Y-137069819D02*
X142701065Y-137022200D01*
X142701065Y-137022200D02*
X142605827Y-136926961D01*
X142605827Y-136926961D02*
X142558208Y-136831723D01*
X142558208Y-136831723D02*
X142510589Y-136641247D01*
X142510589Y-136641247D02*
X142510589Y-136498390D01*
X142510589Y-136498390D02*
X142558208Y-136307914D01*
X142558208Y-136307914D02*
X142605827Y-136212676D01*
X142605827Y-136212676D02*
X142701065Y-136117438D01*
X142701065Y-136117438D02*
X142843922Y-136069819D01*
X142843922Y-136069819D02*
X142939160Y-136069819D01*
X142939160Y-136069819D02*
X143082017Y-136117438D01*
X143082017Y-136117438D02*
X143129636Y-136165057D01*
X143843922Y-136069819D02*
X143843922Y-136784104D01*
X143843922Y-136784104D02*
X143796303Y-136926961D01*
X143796303Y-136926961D02*
X143701065Y-137022200D01*
X143701065Y-137022200D02*
X143558208Y-137069819D01*
X143558208Y-137069819D02*
X143462970Y-137069819D01*
X144796303Y-137069819D02*
X144320113Y-137069819D01*
X144320113Y-137069819D02*
X144320113Y-136069819D01*
X145701065Y-136974580D02*
X145653446Y-137022200D01*
X145653446Y-137022200D02*
X145510589Y-137069819D01*
X145510589Y-137069819D02*
X145415351Y-137069819D01*
X145415351Y-137069819D02*
X145272494Y-137022200D01*
X145272494Y-137022200D02*
X145177256Y-136926961D01*
X145177256Y-136926961D02*
X145129637Y-136831723D01*
X145129637Y-136831723D02*
X145082018Y-136641247D01*
X145082018Y-136641247D02*
X145082018Y-136498390D01*
X145082018Y-136498390D02*
X145129637Y-136307914D01*
X145129637Y-136307914D02*
X145177256Y-136212676D01*
X145177256Y-136212676D02*
X145272494Y-136117438D01*
X145272494Y-136117438D02*
X145415351Y-136069819D01*
X145415351Y-136069819D02*
X145510589Y-136069819D01*
X145510589Y-136069819D02*
X145653446Y-136117438D01*
X145653446Y-136117438D02*
X145701065Y-136165057D01*
X146415351Y-136069819D02*
X146415351Y-136784104D01*
X146415351Y-136784104D02*
X146367732Y-136926961D01*
X146367732Y-136926961D02*
X146272494Y-137022200D01*
X146272494Y-137022200D02*
X146129637Y-137069819D01*
X146129637Y-137069819D02*
X146034399Y-137069819D01*
X147367732Y-137069819D02*
X146891542Y-137069819D01*
X146891542Y-137069819D02*
X146891542Y-136069819D01*
X148272494Y-136974580D02*
X148224875Y-137022200D01*
X148224875Y-137022200D02*
X148082018Y-137069819D01*
X148082018Y-137069819D02*
X147986780Y-137069819D01*
X147986780Y-137069819D02*
X147843923Y-137022200D01*
X147843923Y-137022200D02*
X147748685Y-136926961D01*
X147748685Y-136926961D02*
X147701066Y-136831723D01*
X147701066Y-136831723D02*
X147653447Y-136641247D01*
X147653447Y-136641247D02*
X147653447Y-136498390D01*
X147653447Y-136498390D02*
X147701066Y-136307914D01*
X147701066Y-136307914D02*
X147748685Y-136212676D01*
X147748685Y-136212676D02*
X147843923Y-136117438D01*
X147843923Y-136117438D02*
X147986780Y-136069819D01*
X147986780Y-136069819D02*
X148082018Y-136069819D01*
X148082018Y-136069819D02*
X148224875Y-136117438D01*
X148224875Y-136117438D02*
X148272494Y-136165057D01*
X148986780Y-136069819D02*
X148986780Y-136784104D01*
X148986780Y-136784104D02*
X148939161Y-136926961D01*
X148939161Y-136926961D02*
X148843923Y-137022200D01*
X148843923Y-137022200D02*
X148701066Y-137069819D01*
X148701066Y-137069819D02*
X148605828Y-137069819D01*
X149939161Y-137069819D02*
X149462971Y-137069819D01*
X149462971Y-137069819D02*
X149462971Y-136069819D01*
X150843923Y-136974580D02*
X150796304Y-137022200D01*
X150796304Y-137022200D02*
X150653447Y-137069819D01*
X150653447Y-137069819D02*
X150558209Y-137069819D01*
X150558209Y-137069819D02*
X150415352Y-137022200D01*
X150415352Y-137022200D02*
X150320114Y-136926961D01*
X150320114Y-136926961D02*
X150272495Y-136831723D01*
X150272495Y-136831723D02*
X150224876Y-136641247D01*
X150224876Y-136641247D02*
X150224876Y-136498390D01*
X150224876Y-136498390D02*
X150272495Y-136307914D01*
X150272495Y-136307914D02*
X150320114Y-136212676D01*
X150320114Y-136212676D02*
X150415352Y-136117438D01*
X150415352Y-136117438D02*
X150558209Y-136069819D01*
X150558209Y-136069819D02*
X150653447Y-136069819D01*
X150653447Y-136069819D02*
X150796304Y-136117438D01*
X150796304Y-136117438D02*
X150843923Y-136165057D01*
X185998287Y-129233388D02*
X185998287Y-128233388D01*
X185998287Y-128709578D02*
X186569715Y-128709578D01*
X186569715Y-129233388D02*
X186569715Y-128233388D01*
X186950668Y-128233388D02*
X187569715Y-128233388D01*
X187569715Y-128233388D02*
X187236382Y-128614340D01*
X187236382Y-128614340D02*
X187379239Y-128614340D01*
X187379239Y-128614340D02*
X187474477Y-128661959D01*
X187474477Y-128661959D02*
X187522096Y-128709578D01*
X187522096Y-128709578D02*
X187569715Y-128804816D01*
X187569715Y-128804816D02*
X187569715Y-129042911D01*
X187569715Y-129042911D02*
X187522096Y-129138149D01*
X187522096Y-129138149D02*
X187474477Y-129185769D01*
X187474477Y-129185769D02*
X187379239Y-129233388D01*
X187379239Y-129233388D02*
X187093525Y-129233388D01*
X187093525Y-129233388D02*
X186998287Y-129185769D01*
X186998287Y-129185769D02*
X186950668Y-129138149D01*
X105973287Y-129233388D02*
X105973287Y-128233388D01*
X105973287Y-128709578D02*
X106544715Y-128709578D01*
X106544715Y-129233388D02*
X106544715Y-128233388D01*
X107449477Y-128566721D02*
X107449477Y-129233388D01*
X107211382Y-128185769D02*
X106973287Y-128900054D01*
X106973287Y-128900054D02*
X107592334Y-128900054D01*
X185973287Y-49233388D02*
X185973287Y-48233388D01*
X185973287Y-48709578D02*
X186544715Y-48709578D01*
X186544715Y-49233388D02*
X186544715Y-48233388D01*
X186973287Y-48328626D02*
X187020906Y-48281007D01*
X187020906Y-48281007D02*
X187116144Y-48233388D01*
X187116144Y-48233388D02*
X187354239Y-48233388D01*
X187354239Y-48233388D02*
X187449477Y-48281007D01*
X187449477Y-48281007D02*
X187497096Y-48328626D01*
X187497096Y-48328626D02*
X187544715Y-48423864D01*
X187544715Y-48423864D02*
X187544715Y-48519102D01*
X187544715Y-48519102D02*
X187497096Y-48661959D01*
X187497096Y-48661959D02*
X186925668Y-49233388D01*
X186925668Y-49233388D02*
X187544715Y-49233388D01*
X105998287Y-49258388D02*
X105998287Y-48258388D01*
X105998287Y-48734578D02*
X106569715Y-48734578D01*
X106569715Y-49258388D02*
X106569715Y-48258388D01*
X107569715Y-49258388D02*
X106998287Y-49258388D01*
X107284001Y-49258388D02*
X107284001Y-48258388D01*
X107284001Y-48258388D02*
X107188763Y-48401245D01*
X107188763Y-48401245D02*
X107093525Y-48496483D01*
X107093525Y-48496483D02*
X106998287Y-48544102D01*
D11*
%TO.C,R42*%
X152222367Y-105222314D02*
X151886834Y-104886781D01*
X152961294Y-104483387D02*
X152625761Y-104147854D01*
%TO.C,R25*%
X122287500Y-84362742D02*
X122287500Y-84837258D01*
X123332500Y-84362742D02*
X123332500Y-84837258D01*
%TO.C,C9*%
X143015192Y-56381405D02*
X143015192Y-56165733D01*
X143735192Y-56381405D02*
X143735192Y-56165733D01*
%TO.C,C38*%
X122450000Y-82092164D02*
X122450000Y-82307836D01*
X123170000Y-82092164D02*
X123170000Y-82307836D01*
D12*
%TO.C,RJ3*%
X97160000Y-107782500D02*
X97160000Y-92032500D01*
X97790000Y-91402500D02*
X102420000Y-91402500D01*
X97850000Y-108422500D02*
X102480000Y-108422500D01*
X109620000Y-92032500D02*
X97160000Y-92032500D01*
X109620000Y-107782500D02*
X97160000Y-107782500D01*
X118940000Y-92032500D02*
X112580000Y-92032500D01*
X118940000Y-107782500D02*
X112580000Y-107782500D01*
X118940000Y-107782500D02*
X118940000Y-92032500D01*
X97160000Y-92032500D02*
G75*
G02*
X97790000Y-91402500I630001J-1D01*
G01*
X97790000Y-108422500D02*
G75*
G02*
X97160081Y-107782385I0J630000D01*
G01*
D11*
%TO.C,C63*%
X134881885Y-95747759D02*
X134729382Y-95900262D01*
X135391002Y-96256876D02*
X135238499Y-96409379D01*
%TO.C,R44*%
X138451461Y-90885721D02*
X138115928Y-90550188D01*
X139190388Y-90146794D02*
X138854855Y-89811261D01*
%TO.C,TP1*%
X151805344Y-90207069D02*
X152795293Y-89217120D01*
X152795293Y-89217120D02*
X153785242Y-90207069D01*
X152795293Y-91197018D02*
X151805344Y-90207069D01*
X153785242Y-90207069D02*
X152795293Y-91197018D01*
%TO.C,C4*%
X143542356Y-71618569D02*
X143758028Y-71618569D01*
X143542356Y-72338569D02*
X143758028Y-72338569D01*
%TO.C,C3*%
X138818028Y-62418569D02*
X138602356Y-62418569D01*
X138818028Y-63138569D02*
X138602356Y-63138569D01*
%TO.C,D4*%
X115165000Y-64515000D02*
X115165000Y-65985000D01*
X115165000Y-65985000D02*
X117450000Y-65985000D01*
X117450000Y-64515000D02*
X115165000Y-64515000D01*
%TO.C,C21*%
X167629222Y-84394449D02*
X167781725Y-84546952D01*
X168138339Y-83885332D02*
X168290842Y-84037835D01*
%TO.C,R28*%
X120312742Y-96240000D02*
X120787258Y-96240000D01*
X120312742Y-97285000D02*
X120787258Y-97285000D01*
%TO.C,R29*%
X120312742Y-97740000D02*
X120787258Y-97740000D01*
X120312742Y-98785000D02*
X120787258Y-98785000D01*
%TO.C,R43*%
X151886489Y-87336387D02*
X151550956Y-87671920D01*
X152625416Y-88075314D02*
X152289883Y-88410847D01*
%TO.C,C71*%
X151697750Y-102770828D02*
X151545247Y-102618325D01*
X152206867Y-102261711D02*
X152054364Y-102109208D01*
%TO.C,Y2*%
X178150766Y-95252573D02*
X175322339Y-98081000D01*
X180484219Y-97586026D02*
X178150766Y-95252573D01*
D10*
%TO.C,U6*%
X159430192Y-60158569D02*
X166090192Y-60158569D01*
X159430192Y-63098569D02*
X159430192Y-60158569D01*
X166090192Y-60158569D02*
X166090192Y-63098569D01*
X166090192Y-63098569D02*
X159430192Y-63098569D01*
D11*
%TO.C,C6*%
X145590192Y-69670733D02*
X145590192Y-69886405D01*
X146310192Y-69670733D02*
X146310192Y-69886405D01*
D12*
%TO.C,SW2*%
X148330192Y-77053569D02*
X148330192Y-73553569D01*
X148950192Y-75003569D02*
X148950192Y-75003569D01*
X148950192Y-75003569D02*
X149150192Y-74803569D01*
X148950192Y-75603569D02*
X148950192Y-75003569D01*
X149100192Y-75753569D02*
X148950192Y-75603569D01*
X149100192Y-75753569D02*
X149100192Y-75753569D01*
X149100192Y-76053569D02*
X149100192Y-75753569D01*
X149150192Y-74453569D02*
X150700192Y-74453569D01*
X149150192Y-74803569D02*
X149150192Y-74453569D01*
X150700192Y-74453569D02*
X150700192Y-74703569D01*
X150700192Y-74703569D02*
X150700192Y-74703569D01*
X150700192Y-74703569D02*
X150850192Y-74853569D01*
X150700192Y-75703569D02*
X150700192Y-76103569D01*
X150700192Y-76103569D02*
X149100192Y-76103569D01*
X150850192Y-74853569D02*
X150850192Y-75553569D01*
X150850192Y-75553569D02*
X150700192Y-75703569D01*
X150850192Y-75553569D02*
X150850192Y-75553569D01*
X151370192Y-73553569D02*
X151370192Y-77053569D01*
D11*
%TO.C,C41*%
X120157836Y-102652500D02*
X119942164Y-102652500D01*
X120157836Y-103372500D02*
X119942164Y-103372500D01*
D13*
%TO.C,U5*%
X183553062Y-91080646D02*
X183454067Y-90981651D01*
X184224814Y-91752397D02*
X184196530Y-91724113D01*
X184726860Y-89708858D02*
X183454067Y-90981651D01*
X184825855Y-89807853D02*
X184726860Y-89708858D01*
X184896565Y-92424148D02*
X184868281Y-92395864D01*
X185646098Y-93173682D02*
X185540032Y-93067616D01*
X186169357Y-91151356D02*
X185469322Y-90451321D01*
X186918891Y-91900889D02*
X185646098Y-93173682D01*
X186918891Y-91900889D02*
X186812825Y-91794823D01*
D11*
%TO.C,R47*%
X142919587Y-87656988D02*
X142702306Y-87439707D01*
X143456988Y-87119587D02*
X143239707Y-86902306D01*
%TO.C,D1*%
X138325192Y-45193569D02*
X138325192Y-46663569D01*
X138325192Y-46663569D02*
X140610192Y-46663569D01*
X140610192Y-45193569D02*
X138325192Y-45193569D01*
%TO.C,R19*%
X173297450Y-69243569D02*
X172822934Y-69243569D01*
X173297450Y-70288569D02*
X172822934Y-70288569D01*
%TO.C,R13*%
X113737257Y-62177500D02*
X113262741Y-62177500D01*
X113737257Y-63222500D02*
X113262741Y-63222500D01*
%TO.C,C12*%
X139493028Y-63993569D02*
X139277356Y-63993569D01*
X139493028Y-64713569D02*
X139277356Y-64713569D01*
%TO.C,R9*%
X141687692Y-46491311D02*
X141687692Y-46965827D01*
X142732692Y-46491311D02*
X142732692Y-46965827D01*
%TO.C,C66*%
X157892474Y-97219968D02*
X157739971Y-97067465D01*
X158401591Y-96710851D02*
X158249088Y-96558348D01*
%TO.C,R45*%
X141569013Y-88993421D02*
X141351732Y-88776140D01*
X142106414Y-88456020D02*
X141889133Y-88238739D01*
%TO.C,D5*%
X148706449Y-104411077D02*
X150322188Y-106026816D01*
X149745896Y-103371630D02*
X148706449Y-104411077D01*
X151361635Y-104987369D02*
X149745896Y-103371630D01*
%TO.C,R14*%
X113799758Y-64727500D02*
X113325242Y-64727500D01*
X113799758Y-65772500D02*
X113325242Y-65772500D01*
%TO.C,C67*%
X159179408Y-95749186D02*
X159026905Y-95596683D01*
X159688525Y-95240069D02*
X159536022Y-95087566D01*
%TO.C,C45*%
X120117838Y-121690000D02*
X119902166Y-121690000D01*
X120117838Y-122410000D02*
X119902166Y-122410000D01*
%TO.C,C53*%
X157722356Y-57268569D02*
X157938028Y-57268569D01*
X157722356Y-57988569D02*
X157938028Y-57988569D01*
%TO.C,R37*%
X173487258Y-117265000D02*
X173012742Y-117265000D01*
X173487258Y-118310000D02*
X173012742Y-118310000D01*
%TO.C,C42*%
X122490000Y-101004664D02*
X122490000Y-101220336D01*
X123210000Y-101004664D02*
X123210000Y-101220336D01*
%TO.C,RN1*%
X134935192Y-59348569D02*
X135935192Y-59348569D01*
X134935192Y-62708569D02*
X135935192Y-62708569D01*
%TO.C,R23*%
X120272742Y-77327500D02*
X120747258Y-77327500D01*
X120272742Y-78372500D02*
X120747258Y-78372500D01*
%TO.C,C23*%
X167779040Y-96035933D02*
X167931543Y-95883430D01*
X168288157Y-96545050D02*
X168440660Y-96392547D01*
%TO.C,R15*%
X165097746Y-86657862D02*
X165433279Y-86993395D01*
X165836673Y-85918935D02*
X166172206Y-86254468D01*
%TO.C,R38*%
X173487258Y-115765000D02*
X173012742Y-115765000D01*
X173487258Y-116810000D02*
X173012742Y-116810000D01*
D14*
%TO.C,U4*%
X167416885Y-90472532D02*
X172105003Y-85784414D01*
X172105003Y-85784414D02*
X176807263Y-90486674D01*
X172119145Y-95174792D02*
X167416885Y-90472532D01*
X176503207Y-90790730D02*
X172119145Y-95174792D01*
X176807263Y-90486674D02*
X176269862Y-91024075D01*
D12*
X172119440Y-86618800D02*
G75*
G02*
X171779440Y-86618800I-170000J0D01*
G01*
X171779440Y-86618800D02*
G75*
G02*
X172119440Y-86618800I170000J0D01*
G01*
D11*
%TO.C,C20*%
X164208151Y-88296175D02*
X164360654Y-88448678D01*
X164717268Y-87787058D02*
X164869771Y-87939561D01*
%TO.C,R6*%
X144995192Y-56149928D02*
X144995192Y-56457210D01*
X145755192Y-56149928D02*
X145755192Y-56457210D01*
%TO.C,C29*%
X175132950Y-100210924D02*
X175285453Y-100363427D01*
X175642067Y-99701807D02*
X175794570Y-99854310D01*
%TO.C,R24*%
X120272742Y-78827500D02*
X120747258Y-78827500D01*
X120272742Y-79872500D02*
X120747258Y-79872500D01*
%TO.C,C75*%
X140029382Y-90056876D02*
X140181885Y-90209379D01*
X140538499Y-89547759D02*
X140691002Y-89700262D01*
%TO.C,R11*%
X152572450Y-61131069D02*
X152097934Y-61131069D01*
X152572450Y-62176069D02*
X152097934Y-62176069D01*
%TO.C,C48*%
X173672164Y-108327500D02*
X173887836Y-108327500D01*
X173672164Y-109047500D02*
X173887836Y-109047500D01*
%TO.C,C44*%
X120087836Y-123040000D02*
X119872164Y-123040000D01*
X120087836Y-123760000D02*
X119872164Y-123760000D01*
%TO.C,C2*%
X147217356Y-57643569D02*
X147433028Y-57643569D01*
X147217356Y-58363569D02*
X147433028Y-58363569D01*
%TO.C,C54*%
X142070014Y-101908157D02*
X142222517Y-101755654D01*
X142579131Y-102417274D02*
X142731634Y-102264771D01*
%TO.C,C37*%
X120117836Y-83740000D02*
X119902164Y-83740000D01*
X120117836Y-84460000D02*
X119902164Y-84460000D01*
%TO.C,JP1*%
X129175192Y-49703569D02*
X129175192Y-48303569D01*
X129875192Y-47603569D02*
X130475192Y-47603569D01*
X130475192Y-50403569D02*
X129875192Y-50403569D01*
X131175192Y-48303569D02*
X131175192Y-49703569D01*
X129175192Y-48303569D02*
G75*
G02*
X129875192Y-47603569I700000J0D01*
G01*
X129875192Y-50403569D02*
G75*
G02*
X129175192Y-49703569I-1J699999D01*
G01*
X130475192Y-47603569D02*
G75*
G02*
X131175192Y-48303569I0J-700000D01*
G01*
X131175192Y-49703569D02*
G75*
G02*
X130475192Y-50403569I-699999J-1D01*
G01*
D10*
%TO.C,U7*%
X140625987Y-95828569D02*
X141318952Y-96521534D01*
X141205815Y-95828569D02*
X147810192Y-89224192D01*
X141318952Y-95135604D02*
X140625987Y-95828569D01*
X147117227Y-89337329D02*
X147810192Y-88644364D01*
X147810192Y-88644364D02*
X148503157Y-89337329D01*
X147810192Y-89224192D02*
X154414569Y-95828569D01*
X147810192Y-102432946D02*
X141205815Y-95828569D01*
X147810192Y-103012774D02*
X147117227Y-102319809D01*
X148503157Y-102319809D02*
X147810192Y-103012774D01*
X154301432Y-96521534D02*
X154994397Y-95828569D01*
X154414569Y-95828569D02*
X147810192Y-102432946D01*
X154994397Y-95828569D02*
X154301432Y-95135604D01*
D14*
X140513855Y-97850894D02*
G75*
G02*
X140313855Y-97850894I-100000J0D01*
G01*
X140313855Y-97850894D02*
G75*
G02*
X140513855Y-97850894I100000J0D01*
G01*
D15*
X142324551Y-96090199D02*
G75*
G02*
X142024551Y-96090199I-150000J0D01*
G01*
X142024551Y-96090199D02*
G75*
G02*
X142324551Y-96090199I150000J0D01*
G01*
D11*
%TO.C,R50*%
X150030678Y-86342905D02*
X150366211Y-86678438D01*
X150769605Y-85603978D02*
X151105138Y-85939511D01*
%TO.C,D2*%
X154560192Y-62388569D02*
X156845192Y-62388569D01*
X156845192Y-60918569D02*
X154560192Y-60918569D01*
X156845192Y-62388569D02*
X156845192Y-60918569D01*
%TO.C,C5*%
X146108028Y-71643569D02*
X145892356Y-71643569D01*
X146108028Y-72363569D02*
X145892356Y-72363569D01*
D10*
%TO.C,U3*%
X134495192Y-48763569D02*
X138855192Y-48763569D01*
X134495192Y-54043569D02*
X134495192Y-48763569D01*
X138855192Y-48763569D02*
X138855192Y-54043569D01*
X138855192Y-54043569D02*
X134495192Y-54043569D01*
D15*
X133295192Y-48733569D02*
G75*
G02*
X132995192Y-48733569I-150000J0D01*
G01*
X132995192Y-48733569D02*
G75*
G02*
X133295192Y-48733569I150000J0D01*
G01*
X135405192Y-49493569D02*
G75*
G02*
X135105192Y-49493569I-150000J0D01*
G01*
X135105192Y-49493569D02*
G75*
G02*
X135405192Y-49493569I150000J0D01*
G01*
D11*
%TO.C,C7*%
X149215192Y-58295733D02*
X149215192Y-58511405D01*
X149935192Y-58295733D02*
X149935192Y-58511405D01*
%TO.C,C73*%
X155374703Y-92563264D02*
X155222200Y-92715767D01*
X155883820Y-93072381D02*
X155731317Y-93224884D01*
%TO.C,R27*%
X120312742Y-94740000D02*
X120787258Y-94740000D01*
X120312742Y-95785000D02*
X120787258Y-95785000D01*
%TO.C,FB1*%
X175447652Y-81861937D02*
X175677857Y-81631732D01*
X176168901Y-82583186D02*
X176399106Y-82352981D01*
%TO.C,C28*%
X173588397Y-98100684D02*
X173435894Y-97948181D01*
X174097514Y-97591567D02*
X173945011Y-97439064D01*
%TO.C,R4*%
X144445192Y-69932210D02*
X144445192Y-69624928D01*
X145205192Y-69932210D02*
X145205192Y-69624928D01*
D12*
%TO.C,RJ5*%
X174860000Y-105267500D02*
X174860000Y-121017500D01*
X174860000Y-105267500D02*
X181220000Y-105267500D01*
X174860000Y-121017500D02*
X181220000Y-121017500D01*
X184180000Y-105267500D02*
X196640000Y-105267500D01*
X184180000Y-121017500D02*
X196640000Y-121017500D01*
X195950000Y-104627500D02*
X191320000Y-104627500D01*
X196010000Y-121647500D02*
X191380000Y-121647500D01*
X196640000Y-105267500D02*
X196640000Y-121017500D01*
X196010000Y-104627500D02*
G75*
G02*
X196639919Y-105267615I0J-630000D01*
G01*
X196640000Y-121017500D02*
G75*
G02*
X196010000Y-121647500I-630001J1D01*
G01*
D11*
%TO.C,Y1*%
X142600192Y-72753569D02*
X142600192Y-76053569D01*
X142600192Y-76053569D02*
X146600192Y-76053569D01*
%TO.C,R48*%
X140537770Y-86240029D02*
X140873303Y-85904496D01*
X141276697Y-86978956D02*
X141612230Y-86643423D01*
%TO.C,C10*%
X139318028Y-59043569D02*
X139102356Y-59043569D01*
X139318028Y-59763569D02*
X139102356Y-59763569D01*
%TO.C,C19*%
X139833028Y-47143569D02*
X139617356Y-47143569D01*
X139833028Y-47863569D02*
X139617356Y-47863569D01*
%TO.C,C33*%
X173482356Y-63306069D02*
X173698028Y-63306069D01*
X173482356Y-64026069D02*
X173698028Y-64026069D01*
%TO.C,R33*%
X120272743Y-115277500D02*
X120747259Y-115277500D01*
X120272743Y-116322500D02*
X120747259Y-116322500D01*
%TO.C,C17*%
X153983944Y-45243569D02*
X153461440Y-45243569D01*
X153983944Y-46713569D02*
X153461440Y-46713569D01*
%TO.C,C36*%
X120087836Y-85090000D02*
X119872164Y-85090000D01*
X120087836Y-85810000D02*
X119872164Y-85810000D01*
%TO.C,R31*%
X120362742Y-101190000D02*
X120837258Y-101190000D01*
X120362742Y-102235000D02*
X120837258Y-102235000D01*
%TO.C,C13*%
X150402356Y-66743569D02*
X150618028Y-66743569D01*
X150402356Y-67463569D02*
X150618028Y-67463569D01*
%TO.C,C64*%
X157795543Y-91715010D02*
X158165010Y-91345543D01*
X158834990Y-92754457D02*
X159204457Y-92384990D01*
%TO.C,R26*%
X120322742Y-82277500D02*
X120797258Y-82277500D01*
X120322742Y-83322500D02*
X120797258Y-83322500D01*
%TO.C,R40*%
X170427500Y-109774758D02*
X170427500Y-109300242D01*
X171472500Y-109774758D02*
X171472500Y-109300242D01*
%TO.C,JP5*%
X159510192Y-76528569D02*
X159510192Y-75128569D01*
X160210191Y-74428569D02*
X160810193Y-74428569D01*
X160810193Y-77228569D02*
X160210191Y-77228569D01*
X161510192Y-75128569D02*
X161510192Y-76528569D01*
X159510192Y-75128569D02*
G75*
G02*
X160210191Y-74428569I700000J0D01*
G01*
X160210191Y-77228569D02*
G75*
G02*
X159510192Y-76528569I0J699999D01*
G01*
X160810193Y-74428569D02*
G75*
G02*
X161510192Y-75128569I-1J-700000D01*
G01*
X161510192Y-76528569D02*
G75*
G02*
X160810193Y-77228569I-699999J-1D01*
G01*
%TO.C,C50*%
X170590000Y-112045336D02*
X170590000Y-111829664D01*
X171310000Y-112045336D02*
X171310000Y-111829664D01*
%TO.C,C11*%
X151702356Y-63793569D02*
X151918028Y-63793569D01*
X151702356Y-64513569D02*
X151918028Y-64513569D01*
%TO.C,C60*%
X153628150Y-90986418D02*
X153475647Y-91138921D01*
X154137267Y-91495535D02*
X153984764Y-91648038D01*
%TO.C,C59*%
X153995847Y-100543440D02*
X153843344Y-100390937D01*
X154504964Y-100034323D02*
X154352461Y-99881820D01*
%TO.C,L1*%
D16*
X146520902Y-55061780D02*
G75*
G02*
X146329482Y-55061780I-95710J0D01*
G01*
X146329482Y-55061780D02*
G75*
G02*
X146520902Y-55061780I95710J0D01*
G01*
D12*
%TO.C,J3*%
X143265192Y-42293569D02*
X143265192Y-47623569D01*
X143325192Y-47623569D02*
X150825192Y-47623569D01*
X150885192Y-42293569D02*
X143265192Y-42293569D01*
X150885192Y-47623569D02*
X150885192Y-42293569D01*
D11*
%TO.C,C26*%
X169334675Y-97170363D02*
X169487178Y-97322866D01*
X169843792Y-96661246D02*
X169996295Y-96813749D01*
%TO.C,R39*%
X173487258Y-114265000D02*
X173012742Y-114265000D01*
X173487258Y-115310000D02*
X173012742Y-115310000D01*
%TO.C,C39*%
X120307836Y-99102500D02*
X120092164Y-99102500D01*
X120307836Y-99822500D02*
X120092164Y-99822500D01*
%TO.C,R41*%
X173437258Y-110815000D02*
X172962742Y-110815000D01*
X173437258Y-111860000D02*
X172962742Y-111860000D01*
%TO.C,R2*%
X149195192Y-56707210D02*
X149195192Y-56399928D01*
X149955192Y-56707210D02*
X149955192Y-56399928D01*
%TO.C,C56*%
X166765000Y-60438748D02*
X166765000Y-60961252D01*
X168235000Y-60438748D02*
X168235000Y-60961252D01*
%TO.C,C18*%
X155133944Y-58293569D02*
X154611440Y-58293569D01*
X155133944Y-59763569D02*
X154611440Y-59763569D01*
%TO.C,C34*%
X173302356Y-68206069D02*
X173518028Y-68206069D01*
X173302356Y-68926069D02*
X173518028Y-68926069D01*
D10*
%TO.C,Y3*%
X133767051Y-92363746D02*
X136637904Y-89492893D01*
X134969132Y-93891097D02*
X136142930Y-95064894D01*
X136142930Y-94739625D02*
X133767051Y-92363746D01*
X136142930Y-95064894D02*
X137458148Y-93749676D01*
X136637904Y-89492893D02*
X139013783Y-91868772D01*
X139013783Y-91868772D02*
X136142930Y-94739625D01*
D11*
%TO.C,R34*%
X120272743Y-116777499D02*
X120747259Y-116777499D01*
X120272743Y-117822499D02*
X120747259Y-117822499D01*
%TO.C,C68*%
X138463770Y-92715768D02*
X138616273Y-92563265D01*
X138972887Y-93224885D02*
X139125390Y-93072382D01*
%TO.C,C52*%
X139312299Y-98160491D02*
X139464802Y-98007988D01*
X139821416Y-98669608D02*
X139973919Y-98517105D01*
D12*
%TO.C,SIM1*%
X163385000Y-48555000D02*
X163385000Y-44215000D01*
X163385000Y-52255000D02*
X163385000Y-50015000D01*
X163385000Y-54295000D02*
X163385000Y-53715000D01*
X165585000Y-42985000D02*
X164785000Y-42985000D01*
X165925000Y-54295000D02*
X163385000Y-54295000D01*
X171895000Y-54295000D02*
X168285000Y-54295000D01*
X175445000Y-44665000D02*
X175445000Y-54295000D01*
X175445000Y-54295000D02*
X174255000Y-54295000D01*
D11*
%TO.C,C40*%
X120127836Y-104002500D02*
X119912164Y-104002500D01*
X120127836Y-104722500D02*
X119912164Y-104722500D01*
%TO.C,R10*%
X160607692Y-43531311D02*
X160607692Y-44005827D01*
X161652692Y-43531311D02*
X161652692Y-44005827D01*
D12*
%TO.C,RJ1*%
X174670192Y-60246069D02*
X174670192Y-75996069D01*
X174670192Y-60246069D02*
X181030192Y-60246069D01*
X174670192Y-75996069D02*
X181030192Y-75996069D01*
X183990192Y-60246069D02*
X196450192Y-60246069D01*
X183990192Y-75996069D02*
X196450192Y-75996069D01*
X195760192Y-59606069D02*
X191130192Y-59606069D01*
X195820192Y-76626069D02*
X191190192Y-76626069D01*
X196450192Y-60246069D02*
X196450192Y-75996069D01*
X195820192Y-59606069D02*
G75*
G02*
X196450111Y-60246184I0J-630000D01*
G01*
X196450192Y-75996069D02*
G75*
G02*
X195820192Y-76626069I-630001J1D01*
G01*
D11*
%TO.C,C62*%
X141579382Y-90306876D02*
X141731885Y-90459379D01*
X142088499Y-89797759D02*
X142241002Y-89950262D01*
%TO.C,D6*%
X148421839Y-87155902D02*
X150037578Y-88771641D01*
X150037578Y-88771641D02*
X151077025Y-87732194D01*
X151077025Y-87732194D02*
X149461286Y-86116455D01*
%TO.C,C22*%
X165763785Y-93879258D02*
X165916288Y-93726755D01*
X166272902Y-94388375D02*
X166425405Y-94235872D01*
%TO.C,C16*%
X125663940Y-53918569D02*
X126186444Y-53918569D01*
X125663940Y-55388569D02*
X126186444Y-55388569D01*
D10*
%TO.C,U2*%
X150542692Y-50758569D02*
X157202692Y-50758569D01*
X150542692Y-53698569D02*
X150542692Y-50758569D01*
X157202692Y-50758569D02*
X157202692Y-53698569D01*
X157202692Y-53698569D02*
X150542692Y-53698569D01*
D11*
%TO.C,C25*%
X166729461Y-94539927D02*
X166576958Y-94692430D01*
X167238578Y-95049044D02*
X167086075Y-95201547D01*
%TO.C,C43*%
X120267837Y-118139999D02*
X120052165Y-118139999D01*
X120267837Y-118859999D02*
X120052165Y-118859999D01*
%TO.C,R12*%
X133737934Y-46981069D02*
X134212450Y-46981069D01*
X133737934Y-48026069D02*
X134212450Y-48026069D01*
%TO.C,C32*%
X173452356Y-64656069D02*
X173668028Y-64656069D01*
X173452356Y-65376069D02*
X173668028Y-65376069D01*
%TO.C,C35*%
X120267836Y-80190000D02*
X120052164Y-80190000D01*
X120267836Y-80910000D02*
X120052164Y-80910000D01*
%TO.C,C55*%
X140691157Y-92188499D02*
X140843660Y-92341002D01*
X141200274Y-91679382D02*
X141352777Y-91831885D01*
%TO.C,C61*%
X132415010Y-95454457D02*
X132045543Y-95084990D01*
X133454457Y-94415010D02*
X133084990Y-94045543D01*
%TO.C,R17*%
X173247450Y-65793569D02*
X172772934Y-65793569D01*
X173247450Y-66838569D02*
X172772934Y-66838569D01*
%TO.C,R36*%
X120322743Y-120227500D02*
X120797259Y-120227500D01*
X120322743Y-121272500D02*
X120797259Y-121272500D01*
%TO.C,D3*%
X115165000Y-61965000D02*
X115165000Y-63435000D01*
X115165000Y-63435000D02*
X117450000Y-63435000D01*
X117450000Y-61965000D02*
X115165000Y-61965000D01*
%TO.C,C14*%
X150427356Y-60018569D02*
X150643028Y-60018569D01*
X150427356Y-60738569D02*
X150643028Y-60738569D01*
%TO.C,R20*%
X173297450Y-70743569D02*
X172822934Y-70743569D01*
X173297450Y-71788569D02*
X172822934Y-71788569D01*
%TO.C,R30*%
X122327500Y-103275242D02*
X122327500Y-103749758D01*
X123372500Y-103275242D02*
X123372500Y-103749758D01*
%TO.C,R1*%
X127445192Y-49057210D02*
X127445192Y-48749928D01*
X128205192Y-49057210D02*
X128205192Y-48749928D01*
%TO.C,C49*%
X173642164Y-109677500D02*
X173857836Y-109677500D01*
X173642164Y-110397500D02*
X173857836Y-110397500D01*
D12*
%TO.C,RJ4*%
X97120000Y-126820000D02*
X97120000Y-111070000D01*
X97750000Y-110440000D02*
X102380000Y-110440000D01*
X97810000Y-127460000D02*
X102440000Y-127460000D01*
X109580000Y-111070000D02*
X97120000Y-111070000D01*
X109580000Y-126820000D02*
X97120000Y-126820000D01*
X118900000Y-111070000D02*
X112540000Y-111070000D01*
X118900000Y-126820000D02*
X112540000Y-126820000D01*
X118900000Y-126820000D02*
X118900000Y-111070000D01*
X97120000Y-111070000D02*
G75*
G02*
X97750000Y-110440000I630001J-1D01*
G01*
X97750000Y-127460000D02*
G75*
G02*
X97120081Y-126819885I0J630000D01*
G01*
%TO.C,CN1*%
X97900000Y-52300000D02*
X102900000Y-52300000D01*
X97900000Y-70300000D02*
X97900000Y-52300000D01*
X97900000Y-70300000D02*
X102900000Y-70300000D01*
X102430000Y-54680000D02*
X102900000Y-54680000D01*
X102430000Y-57220000D02*
X102900000Y-57220000D01*
X102430000Y-65360000D02*
X102900000Y-65360000D01*
X102430000Y-67900000D02*
X102900000Y-67900000D01*
X102900000Y-70300000D02*
X102900000Y-52300000D01*
%TO.C,RJ2*%
X97120000Y-88870000D02*
X97120000Y-73120000D01*
X97750000Y-72490000D02*
X102380000Y-72490000D01*
X97810000Y-89510000D02*
X102440000Y-89510000D01*
X109580000Y-73120000D02*
X97120000Y-73120000D01*
X109580000Y-88870000D02*
X97120000Y-88870000D01*
X118900000Y-73120000D02*
X112540000Y-73120000D01*
X118900000Y-88870000D02*
X112540000Y-88870000D01*
X118900000Y-88870000D02*
X118900000Y-73120000D01*
X97120000Y-73120000D02*
G75*
G02*
X97750000Y-72490000I630001J-1D01*
G01*
X97750000Y-89510000D02*
G75*
G02*
X97120081Y-88869885I0J630000D01*
G01*
D11*
%TO.C,C8*%
X151717356Y-62818569D02*
X151933028Y-62818569D01*
X151717356Y-63538569D02*
X151933028Y-63538569D01*
%TO.C,R21*%
X173297450Y-72243569D02*
X172822934Y-72243569D01*
X173297450Y-73288569D02*
X172822934Y-73288569D01*
%TO.C,C47*%
X173492164Y-113227500D02*
X173707836Y-113227500D01*
X173492164Y-113947500D02*
X173707836Y-113947500D01*
%TO.C,C24*%
X172845936Y-83640351D02*
X172693433Y-83487848D01*
X173355053Y-83131234D02*
X173202550Y-82978731D01*
D12*
%TO.C,SW3*%
X137592498Y-83913820D02*
X138688514Y-82817804D01*
X137839986Y-84161307D02*
X137592498Y-83913820D01*
X137839986Y-84444150D02*
X137839986Y-84161307D01*
X137839986Y-84444150D02*
X137839986Y-84444150D01*
X138264250Y-84868414D02*
X137839986Y-84444150D01*
X138476382Y-84868414D02*
X138264250Y-84868414D01*
X138476382Y-84868414D02*
X138476382Y-84868414D01*
X138525879Y-81707647D02*
X141000753Y-84182521D01*
X138688514Y-82817804D02*
X138865291Y-82994581D01*
X138688514Y-85080546D02*
X138476382Y-84868414D01*
X138851149Y-86332125D02*
X136376275Y-83857251D01*
X138865291Y-82994581D02*
X138865291Y-82994581D01*
X138865291Y-82994581D02*
X139077423Y-82994581D01*
X139077423Y-82994581D02*
X139572397Y-83489556D01*
X139572397Y-83489556D02*
X139572397Y-83489556D01*
X139572397Y-83489556D02*
X139572397Y-83701688D01*
X139572397Y-83701688D02*
X139855240Y-83984531D01*
X139855240Y-83984531D02*
X138723869Y-85115902D01*
D11*
%TO.C,C27*%
X172881290Y-98807792D02*
X172728787Y-98655289D01*
X173390407Y-98298675D02*
X173237904Y-98146172D01*
%TO.C,C74*%
X138569837Y-97418029D02*
X138722340Y-97265526D01*
X139078954Y-97927146D02*
X139231457Y-97774643D01*
%TO.C,RN2*%
X180180163Y-83889369D02*
X179473056Y-84596476D01*
X182556042Y-86265248D02*
X181848935Y-86972355D01*
%TO.C,TP2*%
X136991459Y-87201866D02*
X137981408Y-86211917D01*
X137981408Y-86211917D02*
X138971357Y-87201866D01*
X137981408Y-88191815D02*
X136991459Y-87201866D01*
X138971357Y-87201866D02*
X137981408Y-88191815D01*
%TO.C,C15*%
X143090192Y-69670733D02*
X143090192Y-69886405D01*
X143810192Y-69670733D02*
X143810192Y-69886405D01*
%TO.C,C69*%
X136975785Y-94203755D02*
X136823282Y-94356258D01*
X137484902Y-94712872D02*
X137332399Y-94865375D01*
D12*
%TO.C,J2*%
X119250000Y-53830000D02*
X119250000Y-69070000D01*
X121750000Y-53830000D02*
X119250000Y-53830000D01*
X121750000Y-56370000D02*
X119250000Y-56370000D01*
X121750000Y-69070000D02*
X119250000Y-69070000D01*
X121750000Y-69070000D02*
X121750000Y-53830000D01*
D11*
%TO.C,C46*%
X122450001Y-120042164D02*
X122450001Y-120257836D01*
X123170001Y-120042164D02*
X123170001Y-120257836D01*
%TO.C,C65*%
X136171693Y-96969190D02*
X136019190Y-97121693D01*
X136680810Y-97478307D02*
X136528307Y-97630810D01*
%TO.C,R46*%
X142247835Y-88328740D02*
X142030554Y-88111459D01*
X142785236Y-87791339D02*
X142567955Y-87574058D01*
%TO.C,R49*%
X151833801Y-107237911D02*
X152169334Y-107573444D01*
X152572728Y-106498984D02*
X152908261Y-106834517D01*
%TO.C,C31*%
X170400192Y-67023905D02*
X170400192Y-66808233D01*
X171120192Y-67023905D02*
X171120192Y-66808233D01*
D12*
%TO.C,U1*%
X141625192Y-59973569D02*
X141625192Y-60443569D01*
X141625192Y-66713569D02*
X141625192Y-67173569D01*
X141625192Y-67173569D02*
X142095192Y-67173569D01*
X142025192Y-59973569D02*
X141625192Y-59973569D01*
X142095192Y-59973569D02*
X142025192Y-59973569D01*
X148355192Y-67173569D02*
X148825192Y-67173569D01*
X148825192Y-59973569D02*
X148355192Y-59973569D01*
X148825192Y-60443569D02*
X148825192Y-59973569D01*
X148825192Y-67173569D02*
X148825192Y-66713569D01*
X141165192Y-60013569D02*
G75*
G02*
X140905192Y-60013569I-130000J0D01*
G01*
X140905192Y-60013569D02*
G75*
G02*
X141165192Y-60013569I130000J0D01*
G01*
%TO.C,SW1*%
X122275192Y-47583569D02*
X125775192Y-47583569D01*
X123175192Y-48253569D02*
X123425192Y-48253569D01*
X123175192Y-49803569D02*
X123175192Y-48253569D01*
X123425192Y-48253569D02*
X123425192Y-48253569D01*
X123425192Y-48253569D02*
X123575192Y-48103569D01*
X123525192Y-49803569D02*
X123175192Y-49803569D01*
X123575192Y-48103569D02*
X124275192Y-48103569D01*
X123725192Y-50003569D02*
X123525192Y-49803569D01*
X123725192Y-50003569D02*
X123725192Y-50003569D01*
X124275192Y-48103569D02*
X124275192Y-48103569D01*
X124275192Y-48103569D02*
X124425192Y-48253569D01*
X124325192Y-50003569D02*
X123725192Y-50003569D01*
X124425192Y-48253569D02*
X124825192Y-48253569D01*
X124475192Y-49853569D02*
X124325192Y-50003569D01*
X124475192Y-49853569D02*
X124475192Y-49853569D01*
X124775192Y-49853569D02*
X124475192Y-49853569D01*
X124825192Y-48253569D02*
X124825192Y-49853569D01*
X125775192Y-50623569D02*
X122275192Y-50623569D01*
D11*
%TO.C,R3*%
X146930192Y-77142209D02*
X146930192Y-76834927D01*
X147690192Y-77142209D02*
X147690192Y-76834927D01*
%TO.C,R32*%
X120272743Y-113777499D02*
X120747259Y-113777499D01*
X120272743Y-114822499D02*
X120747259Y-114822499D01*
%TO.C,FB4*%
X164150192Y-67415789D02*
X164150192Y-67741349D01*
X165170192Y-67415789D02*
X165170192Y-67741349D01*
%TO.C,R22*%
X120272742Y-75827500D02*
X120747258Y-75827500D01*
X120272742Y-76872500D02*
X120747258Y-76872500D01*
%TO.C,FB2*%
X170975598Y-97294147D02*
X170745393Y-97524352D01*
X171696847Y-98015396D02*
X171466642Y-98245601D01*
%TO.C,C57*%
X162350192Y-67286405D02*
X162350192Y-67070733D01*
X163070192Y-67286405D02*
X163070192Y-67070733D01*
%TO.C,C30*%
X176547165Y-95470249D02*
X176699668Y-95317746D01*
X177056282Y-95979366D02*
X177208785Y-95826863D01*
%TO.C,FB3*%
X159950192Y-67415789D02*
X159950192Y-67741349D01*
X160970192Y-67415789D02*
X160970192Y-67741349D01*
%TO.C,R35*%
X122287501Y-122312742D02*
X122287501Y-122787258D01*
X123332501Y-122312742D02*
X123332501Y-122787258D01*
%TO.C,R18*%
X170237692Y-64753327D02*
X170237692Y-64278811D01*
X171282692Y-64753327D02*
X171282692Y-64278811D01*
%TO.C,R16*%
X179522724Y-95920963D02*
X179858257Y-96256496D01*
X180261651Y-95182036D02*
X180597184Y-95517569D01*
%TO.C,C1*%
X147217356Y-58593569D02*
X147433028Y-58593569D01*
X147217356Y-59313569D02*
X147433028Y-59313569D01*
%TO.C,JP6*%
X163710192Y-76478570D02*
X163710192Y-75078570D01*
X164410191Y-74378570D02*
X165010193Y-74378570D01*
X165010193Y-77178570D02*
X164410191Y-77178570D01*
X165710192Y-75078570D02*
X165710192Y-76478570D01*
X163710192Y-75078570D02*
G75*
G02*
X164410191Y-74378570I700000J0D01*
G01*
X164410191Y-77178570D02*
G75*
G02*
X163710192Y-76478570I0J699999D01*
G01*
X165010193Y-74378570D02*
G75*
G02*
X165710192Y-75078570I-1J-700000D01*
G01*
X165710192Y-76478570D02*
G75*
G02*
X165010193Y-77178570I-699999J-1D01*
G01*
%TO.C,R5*%
X143995192Y-56149928D02*
X143995192Y-56457210D01*
X144755192Y-56149928D02*
X144755192Y-56457210D01*
%TD*%
%LPC*%
%TO.C,JP1*%
G36*
X129425192Y-49153569D02*
G01*
X130925192Y-49153569D01*
X130925192Y-48853569D01*
X129425192Y-48853569D01*
X129425192Y-49153569D01*
G37*
D17*
%TO.C,JP5*%
G36*
X161260192Y-75978569D02*
G01*
X159760192Y-75978569D01*
X159760192Y-75678569D01*
X161260192Y-75678569D01*
X161260192Y-75978569D01*
G37*
%TO.C,JP6*%
G36*
X165460192Y-75928570D02*
G01*
X163960192Y-75928570D01*
X163960192Y-75628570D01*
X165460192Y-75628570D01*
X165460192Y-75928570D01*
G37*
%TD*%
D18*
%TO.C,R42*%
X153007427Y-105268447D03*
X151840701Y-104101721D03*
%TD*%
D19*
%TO.C,R25*%
X122810000Y-83775000D03*
X122810000Y-85425000D03*
%TD*%
D20*
%TO.C,C9*%
X143375192Y-56753569D03*
X143375192Y-55793569D03*
%TD*%
D21*
%TO.C,C38*%
X122810000Y-81720000D03*
X122810000Y-82680000D03*
%TD*%
D22*
%TO.C,RJ3*%
X108050000Y-94192500D03*
X108050000Y-105632500D03*
D23*
X114400000Y-95462500D03*
X116940000Y-96732500D03*
X114400000Y-98012500D03*
X116940000Y-99282500D03*
X114400000Y-100542500D03*
X116940000Y-101812500D03*
X114400000Y-103082500D03*
X116940000Y-104352500D03*
X104670000Y-96122500D03*
X103150000Y-93582500D03*
X104670000Y-106242500D03*
X103150000Y-103702500D03*
D24*
X111100000Y-92142500D03*
X111100000Y-107682500D03*
%TD*%
D25*
%TO.C,C63*%
X135399603Y-95739158D03*
X134720781Y-96417980D03*
%TD*%
D18*
%TO.C,R44*%
X139236521Y-90931854D03*
X138069795Y-89765128D03*
%TD*%
D26*
%TO.C,TP1*%
X152795293Y-90207069D03*
%TD*%
D27*
%TO.C,C4*%
X143170192Y-71978569D03*
X144130192Y-71978569D03*
%TD*%
D28*
%TO.C,C3*%
X139190192Y-62778569D03*
X138230192Y-62778569D03*
%TD*%
D29*
%TO.C,D4*%
X115862499Y-65250000D03*
X117437501Y-65250000D03*
%TD*%
D30*
%TO.C,C21*%
X167620621Y-83876731D03*
X168299443Y-84555553D03*
%TD*%
D31*
%TO.C,R28*%
X119725000Y-96762500D03*
X121375000Y-96762500D03*
%TD*%
%TO.C,R29*%
X119725000Y-98262500D03*
X121375000Y-98262500D03*
%TD*%
D32*
%TO.C,R43*%
X152671549Y-87290254D03*
X151504823Y-88456980D03*
%TD*%
D33*
%TO.C,C71*%
X152215468Y-102779429D03*
X151536646Y-102100607D03*
%TD*%
D34*
%TO.C,Y2*%
X178080056Y-96454655D03*
X176524421Y-98010290D03*
X177726502Y-99212371D03*
X179282137Y-97656736D03*
%TD*%
D35*
%TO.C,U6*%
X165060192Y-58558569D03*
X162760192Y-58558569D03*
X160460192Y-58558569D03*
D36*
X162760192Y-64498569D03*
%TD*%
D21*
%TO.C,C6*%
X145950192Y-69298569D03*
X145950192Y-70258569D03*
%TD*%
D37*
%TO.C,H3*%
X186760192Y-132278569D03*
%TD*%
D38*
%TO.C,SW2*%
X149100192Y-77003569D03*
X149100192Y-73603569D03*
X150600192Y-77003569D03*
X150600192Y-73603569D03*
%TD*%
D28*
%TO.C,C41*%
X120530000Y-103012500D03*
X119570000Y-103012500D03*
%TD*%
D39*
%TO.C,U5*%
X183595489Y-91688757D03*
X184267240Y-92360509D03*
X184938992Y-93032260D03*
X186777469Y-91193783D03*
X185433966Y-89850280D03*
%TD*%
D40*
%TO.C,R47*%
X143440271Y-87640271D03*
X142719023Y-86919023D03*
%TD*%
D29*
%TO.C,D1*%
X139022692Y-45928569D03*
X140597692Y-45928569D03*
%TD*%
D41*
%TO.C,R19*%
X173885192Y-69766069D03*
X172235192Y-69766069D03*
%TD*%
%TO.C,R13*%
X114324999Y-62700000D03*
X112674999Y-62700000D03*
%TD*%
D37*
%TO.C,H4*%
X106735192Y-132278569D03*
%TD*%
D28*
%TO.C,C12*%
X139865192Y-64353569D03*
X138905192Y-64353569D03*
%TD*%
D19*
%TO.C,R9*%
X142210192Y-45903569D03*
X142210192Y-47553569D03*
%TD*%
D33*
%TO.C,C66*%
X158410192Y-97228569D03*
X157731370Y-96549747D03*
%TD*%
D40*
%TO.C,R45*%
X142089697Y-88976704D03*
X141368449Y-88255456D03*
%TD*%
D42*
%TO.C,D5*%
X149719379Y-104384560D03*
X150833073Y-105498254D03*
%TD*%
D41*
%TO.C,R14*%
X114387500Y-65250000D03*
X112737500Y-65250000D03*
%TD*%
D33*
%TO.C,C67*%
X159697126Y-95757787D03*
X159018304Y-95078965D03*
%TD*%
D28*
%TO.C,C45*%
X120490002Y-122050000D03*
X119530002Y-122050000D03*
%TD*%
D27*
%TO.C,C53*%
X157350192Y-57628569D03*
X158310192Y-57628569D03*
%TD*%
D41*
%TO.C,R37*%
X174075000Y-117787500D03*
X172425000Y-117787500D03*
%TD*%
D21*
%TO.C,C42*%
X122850000Y-100632500D03*
X122850000Y-101592500D03*
%TD*%
D43*
%TO.C,RN1*%
X136335192Y-62228569D03*
D44*
X136335192Y-61428569D03*
X136335192Y-60628569D03*
D43*
X136335192Y-59828569D03*
X134535192Y-59828569D03*
D44*
X134535192Y-60628569D03*
X134535192Y-61428569D03*
D43*
X134535192Y-62228569D03*
%TD*%
D31*
%TO.C,R23*%
X119685000Y-77850000D03*
X121335000Y-77850000D03*
%TD*%
D45*
%TO.C,C23*%
X167770439Y-96553651D03*
X168449261Y-95874829D03*
%TD*%
D46*
%TO.C,R15*%
X165051613Y-85872802D03*
X166218339Y-87039528D03*
%TD*%
D41*
%TO.C,R38*%
X174075000Y-116287500D03*
X172425000Y-116287500D03*
%TD*%
D47*
%TO.C,U4*%
X171037272Y-85522785D03*
X170683718Y-85876338D03*
X170330165Y-86229891D03*
X169976612Y-86583445D03*
X169623058Y-86936998D03*
X169269505Y-87290551D03*
X168915951Y-87644105D03*
X168562398Y-87997658D03*
X168208845Y-88351212D03*
X167855291Y-88704765D03*
X167501738Y-89058318D03*
X167148185Y-89411872D03*
D48*
X167148185Y-91533192D03*
X167501738Y-91886746D03*
X167855291Y-92240299D03*
X168208845Y-92593852D03*
X168562398Y-92947406D03*
X168915951Y-93300959D03*
X169269505Y-93654513D03*
X169623058Y-94008066D03*
X169976612Y-94361619D03*
X170330165Y-94715173D03*
X170683718Y-95068726D03*
X171037272Y-95422279D03*
D47*
X173158592Y-95422279D03*
X173512146Y-95068726D03*
X173865699Y-94715173D03*
X174219252Y-94361619D03*
X174572806Y-94008066D03*
X174926359Y-93654513D03*
X175279913Y-93300959D03*
X175633466Y-92947406D03*
X175987019Y-92593852D03*
X176340573Y-92240299D03*
X176694126Y-91886746D03*
X177047679Y-91533192D03*
D48*
X177047679Y-89411872D03*
X176694126Y-89058318D03*
X176340573Y-88704765D03*
X175987019Y-88351212D03*
X175633466Y-87997658D03*
X175279913Y-87644105D03*
X174926359Y-87290551D03*
X174572806Y-86936998D03*
X174219252Y-86583445D03*
X173865699Y-86229891D03*
X173512146Y-85876338D03*
X173158592Y-85522785D03*
%TD*%
D30*
%TO.C,C20*%
X164199550Y-87778457D03*
X164878372Y-88457279D03*
%TD*%
D49*
%TO.C,R6*%
X145375192Y-55793569D03*
X145375192Y-56813569D03*
%TD*%
D30*
%TO.C,C29*%
X175124349Y-99693206D03*
X175803171Y-100372028D03*
%TD*%
D31*
%TO.C,R24*%
X119685000Y-79350000D03*
X121335000Y-79350000D03*
%TD*%
D30*
%TO.C,C75*%
X140020781Y-89539158D03*
X140699603Y-90217980D03*
%TD*%
D41*
%TO.C,R11*%
X153160192Y-61653569D03*
X151510192Y-61653569D03*
%TD*%
D27*
%TO.C,C48*%
X173300000Y-108687500D03*
X174260000Y-108687500D03*
%TD*%
D28*
%TO.C,C44*%
X120460000Y-123400000D03*
X119500000Y-123400000D03*
%TD*%
D50*
%TO.C,C2*%
X146845192Y-58003569D03*
X147805192Y-58003569D03*
%TD*%
D45*
%TO.C,C54*%
X142061413Y-102425875D03*
X142740235Y-101747053D03*
%TD*%
D28*
%TO.C,C37*%
X120490000Y-84100000D03*
X119530000Y-84100000D03*
%TD*%
D51*
%TO.C,JP1*%
X130175192Y-49653569D03*
D52*
X130175192Y-48353569D03*
%TD*%
D53*
%TO.C,U7*%
X141142175Y-97122574D03*
X141425018Y-97405417D03*
X141707860Y-97688260D03*
X141990703Y-97971103D03*
X142273546Y-98253945D03*
X142556389Y-98536788D03*
X142839231Y-98819631D03*
X143122074Y-99102473D03*
X143404917Y-99385316D03*
X143687759Y-99668159D03*
X143970602Y-99951002D03*
X144253445Y-100233844D03*
X144536288Y-100516687D03*
X144819130Y-100799530D03*
X145101973Y-101082372D03*
X145384816Y-101365215D03*
X145667658Y-101648058D03*
X145950501Y-101930901D03*
X146233344Y-102213743D03*
X146516187Y-102496586D03*
D54*
X149104197Y-102496586D03*
X149387040Y-102213743D03*
X149669883Y-101930901D03*
X149952726Y-101648058D03*
X150235568Y-101365215D03*
X150518411Y-101082372D03*
X150801254Y-100799530D03*
X151084096Y-100516687D03*
X151366939Y-100233844D03*
X151649782Y-99951002D03*
X151932625Y-99668159D03*
X152215467Y-99385316D03*
X152498310Y-99102473D03*
X152781153Y-98819631D03*
X153063995Y-98536788D03*
X153346838Y-98253945D03*
X153629681Y-97971103D03*
X153912524Y-97688260D03*
X154195366Y-97405417D03*
X154478209Y-97122574D03*
D53*
X154478209Y-94534564D03*
X154195366Y-94251721D03*
X153912524Y-93968878D03*
X153629681Y-93686035D03*
X153346838Y-93403193D03*
X153063995Y-93120350D03*
X152781153Y-92837507D03*
X152498310Y-92554665D03*
X152215467Y-92271822D03*
X151932625Y-91988979D03*
X151649782Y-91706136D03*
X151366939Y-91423294D03*
X151084096Y-91140451D03*
X150801254Y-90857608D03*
X150518411Y-90574766D03*
X150235568Y-90291923D03*
X149952726Y-90009080D03*
X149669883Y-89726237D03*
X149387040Y-89443395D03*
X149104197Y-89160552D03*
D54*
X146516187Y-89160552D03*
X146233344Y-89443395D03*
X145950501Y-89726237D03*
X145667658Y-90009080D03*
X145384816Y-90291923D03*
X145101973Y-90574766D03*
X144819130Y-90857608D03*
X144536288Y-91140451D03*
X144253445Y-91423294D03*
X143970602Y-91706136D03*
X143687759Y-91988979D03*
X143404917Y-92271822D03*
X143122074Y-92554665D03*
X142839231Y-92837507D03*
X142556389Y-93120350D03*
X142273546Y-93403193D03*
X141990703Y-93686035D03*
X141707860Y-93968878D03*
X141425018Y-94251721D03*
X141142175Y-94534564D03*
%TD*%
D46*
%TO.C,R50*%
X149984545Y-85557845D03*
X151151271Y-86724571D03*
%TD*%
D55*
%TO.C,D2*%
X156147692Y-61653569D03*
X154572692Y-61653569D03*
%TD*%
D28*
%TO.C,C5*%
X146480192Y-72003569D03*
X145520192Y-72003569D03*
%TD*%
D56*
%TO.C,U3*%
X133145192Y-49493569D03*
X133145192Y-50773569D03*
X133145192Y-52033569D03*
X133145192Y-53303569D03*
X140205192Y-53303569D03*
X140205192Y-52033569D03*
X140205192Y-50773569D03*
X140205192Y-49493569D03*
%TD*%
D21*
%TO.C,C7*%
X149575192Y-57923569D03*
X149575192Y-58883569D03*
%TD*%
D25*
%TO.C,C73*%
X155892421Y-92554663D03*
X155213599Y-93233485D03*
%TD*%
D31*
%TO.C,R27*%
X119725000Y-95262500D03*
X121375000Y-95262500D03*
%TD*%
D57*
%TO.C,FB1*%
X175366532Y-82664306D03*
X176480226Y-81550612D03*
%TD*%
D37*
%TO.C,H2*%
X186735192Y-52278569D03*
%TD*%
D33*
%TO.C,C28*%
X174106115Y-98109285D03*
X173427293Y-97430463D03*
%TD*%
D58*
%TO.C,R4*%
X144825192Y-70288569D03*
X144825192Y-69268569D03*
%TD*%
D22*
%TO.C,RJ5*%
X185750000Y-118857500D03*
X185750000Y-107417500D03*
D23*
X179400000Y-117587500D03*
X176860000Y-116317500D03*
X179400000Y-115037499D03*
X176860000Y-113767500D03*
X179400000Y-112507500D03*
X176860000Y-111237500D03*
X179400000Y-109967500D03*
X176860000Y-108697500D03*
X189130000Y-116927500D03*
X190650000Y-119467500D03*
X189129999Y-106807500D03*
X190650000Y-109347500D03*
D24*
X182700000Y-120907500D03*
X182700000Y-105367500D03*
%TD*%
D59*
%TO.C,Y1*%
X143500192Y-75253569D03*
X145700192Y-75253569D03*
X145700192Y-73553569D03*
X143500192Y-73553569D03*
%TD*%
D60*
%TO.C,R48*%
X140491637Y-87025089D03*
X141658363Y-85858363D03*
%TD*%
D28*
%TO.C,C10*%
X139690192Y-59403569D03*
X138730192Y-59403569D03*
%TD*%
%TO.C,C19*%
X140205192Y-47503569D03*
X139245192Y-47503569D03*
%TD*%
D27*
%TO.C,C33*%
X173110192Y-63666069D03*
X174070192Y-63666069D03*
%TD*%
D31*
%TO.C,R33*%
X119685001Y-115800000D03*
X121335001Y-115800000D03*
%TD*%
D61*
%TO.C,C17*%
X154672692Y-45978569D03*
X152772692Y-45978569D03*
%TD*%
D28*
%TO.C,C36*%
X120460000Y-85450000D03*
X119500000Y-85450000D03*
%TD*%
D31*
%TO.C,R31*%
X119775000Y-101712500D03*
X121425000Y-101712500D03*
%TD*%
D27*
%TO.C,C13*%
X150030192Y-67103569D03*
X150990192Y-67103569D03*
%TD*%
D62*
%TO.C,C64*%
X157828249Y-92721751D03*
X159171751Y-91378249D03*
%TD*%
D31*
%TO.C,R26*%
X119735000Y-82800000D03*
X121385000Y-82800000D03*
%TD*%
D63*
%TO.C,R40*%
X170950000Y-110362500D03*
X170950000Y-108712500D03*
%TD*%
D51*
%TO.C,JP5*%
X160510192Y-76478568D03*
D52*
X160510192Y-75178570D03*
%TD*%
D20*
%TO.C,C50*%
X170950000Y-112417500D03*
X170950000Y-111457500D03*
%TD*%
D27*
%TO.C,C11*%
X151330192Y-64153569D03*
X152290192Y-64153569D03*
%TD*%
D25*
%TO.C,C60*%
X154145868Y-90977817D03*
X153467046Y-91656639D03*
%TD*%
D33*
%TO.C,C59*%
X154513565Y-100552041D03*
X153834743Y-99873219D03*
%TD*%
D64*
%TO.C,L1*%
X146625192Y-56361780D03*
X148025192Y-56361780D03*
%TD*%
D65*
%TO.C,J3*%
X145775192Y-46603569D03*
X146425192Y-46603569D03*
X147075192Y-46603569D03*
X147725192Y-46603569D03*
X148375192Y-46603569D03*
D66*
X151025192Y-43903569D03*
X143125192Y-43903569D03*
D67*
X148015192Y-43953569D03*
X146135192Y-43953569D03*
D68*
X149535192Y-46253569D03*
X144615192Y-46253569D03*
%TD*%
D30*
%TO.C,C26*%
X169326074Y-96652645D03*
X170004896Y-97331467D03*
%TD*%
D41*
%TO.C,R39*%
X174075000Y-114787500D03*
X172425000Y-114787500D03*
%TD*%
D28*
%TO.C,C39*%
X120680000Y-99462500D03*
X119720000Y-99462500D03*
%TD*%
D41*
%TO.C,R41*%
X174025000Y-111337500D03*
X172375000Y-111337500D03*
%TD*%
D58*
%TO.C,R2*%
X149575192Y-57063569D03*
X149575192Y-56043569D03*
%TD*%
D69*
%TO.C,C56*%
X167500000Y-59750000D03*
X167500000Y-61650000D03*
%TD*%
D61*
%TO.C,C18*%
X155822692Y-59028569D03*
X153922692Y-59028569D03*
%TD*%
D37*
%TO.C,H1*%
X106760192Y-52303569D03*
%TD*%
D27*
%TO.C,C34*%
X172930192Y-68566069D03*
X173890192Y-68566069D03*
%TD*%
D70*
%TO.C,Y3*%
X136213640Y-93495117D03*
X137769275Y-91939482D03*
X136567194Y-90737401D03*
X135011559Y-92293036D03*
%TD*%
D31*
%TO.C,R34*%
X119685001Y-117299999D03*
X121335001Y-117299999D03*
%TD*%
D45*
%TO.C,C68*%
X138455169Y-93233486D03*
X139133991Y-92554664D03*
%TD*%
%TO.C,C52*%
X139303698Y-98678209D03*
X139982520Y-97999387D03*
%TD*%
D71*
%TO.C,SIM1*%
X166235000Y-43285000D03*
X167335000Y-43285000D03*
X168435000Y-43285000D03*
X169535000Y-43285000D03*
X170635000Y-43285000D03*
X171735000Y-43285000D03*
X172835000Y-43285000D03*
X173935000Y-43285000D03*
D72*
X175145000Y-43485000D03*
D73*
X163775000Y-43315000D03*
D74*
X163605000Y-49285000D03*
X163605000Y-52985000D03*
D75*
X167105000Y-53965000D03*
X173075000Y-53965000D03*
%TD*%
D28*
%TO.C,C40*%
X120500000Y-104362500D03*
X119540000Y-104362500D03*
%TD*%
D19*
%TO.C,R10*%
X161130192Y-42943569D03*
X161130192Y-44593569D03*
%TD*%
D22*
%TO.C,RJ1*%
X185560192Y-73836069D03*
X185560192Y-62396069D03*
D23*
X179210192Y-72566069D03*
X176670192Y-71296069D03*
X179210192Y-70016069D03*
X176670192Y-68746069D03*
X179210192Y-67486069D03*
X176670192Y-66216069D03*
X179210192Y-64946069D03*
X176670192Y-63676069D03*
X188940192Y-71906069D03*
X190460192Y-74446069D03*
X188940192Y-61786069D03*
X190460192Y-64326069D03*
D24*
X182510192Y-75886069D03*
X182510192Y-60346069D03*
%TD*%
D30*
%TO.C,C62*%
X141570781Y-89789158D03*
X142249603Y-90467980D03*
%TD*%
D76*
%TO.C,D6*%
X150064095Y-87758711D03*
X148950401Y-86645017D03*
%TD*%
D45*
%TO.C,C22*%
X165755184Y-94396976D03*
X166434006Y-93718154D03*
%TD*%
D77*
%TO.C,C16*%
X124975192Y-54653569D03*
X126875192Y-54653569D03*
%TD*%
D35*
%TO.C,U2*%
X156172692Y-49158569D03*
X153872692Y-49158569D03*
X151572692Y-49158569D03*
D36*
X153872692Y-55098569D03*
%TD*%
D25*
%TO.C,C25*%
X167247179Y-94531326D03*
X166568357Y-95210148D03*
%TD*%
D28*
%TO.C,C43*%
X120640001Y-118499999D03*
X119680001Y-118499999D03*
%TD*%
D31*
%TO.C,R12*%
X133150192Y-47503569D03*
X134800192Y-47503569D03*
%TD*%
D27*
%TO.C,C32*%
X173080192Y-65016069D03*
X174040192Y-65016069D03*
%TD*%
D28*
%TO.C,C35*%
X120640000Y-80550000D03*
X119680000Y-80550000D03*
%TD*%
D30*
%TO.C,C55*%
X140682556Y-91670781D03*
X141361378Y-92349603D03*
%TD*%
D78*
%TO.C,C61*%
X133421751Y-95421751D03*
X132078249Y-94078249D03*
%TD*%
D41*
%TO.C,R17*%
X173835192Y-66316069D03*
X172185192Y-66316069D03*
%TD*%
D31*
%TO.C,R36*%
X119735001Y-120750000D03*
X121385001Y-120750000D03*
%TD*%
D29*
%TO.C,D3*%
X115862499Y-62700000D03*
X117437501Y-62700000D03*
%TD*%
D27*
%TO.C,C14*%
X150055192Y-60378569D03*
X151015192Y-60378569D03*
%TD*%
D41*
%TO.C,R20*%
X173885192Y-71266069D03*
X172235192Y-71266069D03*
%TD*%
D19*
%TO.C,R30*%
X122850000Y-102687500D03*
X122850000Y-104337500D03*
%TD*%
D58*
%TO.C,R1*%
X127825192Y-49413569D03*
X127825192Y-48393569D03*
%TD*%
D27*
%TO.C,C49*%
X173270000Y-110037500D03*
X174230000Y-110037500D03*
%TD*%
D22*
%TO.C,RJ4*%
X108010000Y-113230000D03*
X108010000Y-124670000D03*
D23*
X114360000Y-114500000D03*
X116900000Y-115770000D03*
X114360000Y-117050001D03*
X116900000Y-118320000D03*
X114360000Y-119580000D03*
X116900000Y-120850000D03*
X114360000Y-122120000D03*
X116900000Y-123390000D03*
X104630000Y-115160000D03*
X103110000Y-112620000D03*
X104630001Y-125280000D03*
X103110000Y-122740000D03*
D24*
X111060000Y-111180000D03*
X111060000Y-126720000D03*
%TD*%
D79*
%TO.C,CN1*%
X101400000Y-54300000D03*
D80*
X99400000Y-54300000D03*
X101400000Y-56300000D03*
X99400000Y-56300000D03*
X101400000Y-58300000D03*
X99400000Y-58300000D03*
X101400000Y-60300000D03*
X99400000Y-60300000D03*
X101400000Y-62300000D03*
X99400000Y-62300000D03*
X101400000Y-64300000D03*
X99400000Y-64300000D03*
X101400000Y-66300000D03*
X99400000Y-66300000D03*
X101400000Y-68300000D03*
X99400000Y-68300000D03*
%TD*%
D22*
%TO.C,RJ2*%
X108010000Y-75280000D03*
X108010000Y-86720000D03*
D23*
X114360000Y-76550000D03*
X116900000Y-77820000D03*
X114360000Y-79100000D03*
X116900000Y-80370000D03*
X114360000Y-81630000D03*
X116900000Y-82900000D03*
X114360000Y-84170000D03*
X116900000Y-85440000D03*
X104630000Y-77210000D03*
X103110000Y-74670000D03*
X104630000Y-87330000D03*
X103110000Y-84790000D03*
D24*
X111060000Y-73230000D03*
X111060000Y-88770000D03*
%TD*%
D27*
%TO.C,C8*%
X151345192Y-63178569D03*
X152305192Y-63178569D03*
%TD*%
D41*
%TO.C,R21*%
X173885192Y-72766069D03*
X172235192Y-72766069D03*
%TD*%
D27*
%TO.C,C47*%
X173120000Y-113587500D03*
X174080000Y-113587500D03*
%TD*%
D33*
%TO.C,C24*%
X173363654Y-83648952D03*
X172684832Y-82970130D03*
%TD*%
D81*
%TO.C,SW3*%
X139360265Y-85752298D03*
X136956102Y-83348135D03*
X140420926Y-84691637D03*
X138016763Y-82287474D03*
%TD*%
D33*
%TO.C,C27*%
X173399008Y-98816393D03*
X172720186Y-98137571D03*
%TD*%
D45*
%TO.C,C74*%
X138561236Y-97935747D03*
X139240058Y-97256925D03*
%TD*%
D82*
%TO.C,RN2*%
X179529625Y-85218730D03*
D83*
X180095310Y-85784415D03*
X180660996Y-86350101D03*
D82*
X181226681Y-86915786D03*
X182499473Y-85642994D03*
D83*
X181933788Y-85077309D03*
X181368102Y-84511623D03*
D82*
X180802417Y-83945938D03*
%TD*%
D84*
%TO.C,TP2*%
X137981408Y-87201866D03*
%TD*%
D21*
%TO.C,C15*%
X143450192Y-69298569D03*
X143450192Y-70258569D03*
%TD*%
D25*
%TO.C,C69*%
X137493503Y-94195154D03*
X136814681Y-94873976D03*
%TD*%
D85*
%TO.C,J2*%
X120500000Y-55100000D03*
D86*
X120500000Y-57640000D03*
X120500000Y-60179999D03*
X120500000Y-62720001D03*
X120500000Y-65260000D03*
X120500000Y-67800000D03*
%TD*%
D21*
%TO.C,C46*%
X122810001Y-119670000D03*
X122810001Y-120630000D03*
%TD*%
D25*
%TO.C,C65*%
X136689411Y-96960589D03*
X136010589Y-97639411D03*
%TD*%
D40*
%TO.C,R46*%
X142768519Y-88312023D03*
X142047271Y-87590775D03*
%TD*%
D46*
%TO.C,R49*%
X151787668Y-106452851D03*
X152954394Y-107619577D03*
%TD*%
D20*
%TO.C,C31*%
X170760192Y-67396069D03*
X170760192Y-66436069D03*
%TD*%
D87*
%TO.C,U1*%
X141645192Y-60773569D03*
X141645192Y-61173569D03*
X141645192Y-61573569D03*
X141645192Y-61973569D03*
X141645192Y-62373569D03*
X141645192Y-62773569D03*
X141645192Y-63173569D03*
X141645192Y-63573569D03*
X141645192Y-63973569D03*
X141645192Y-64373569D03*
X141645192Y-64773569D03*
X141645192Y-65173569D03*
X141645192Y-65573569D03*
X141645192Y-65973569D03*
X141645192Y-66373569D03*
D88*
X142425192Y-67143569D03*
X142825192Y-67143569D03*
X143225192Y-67143569D03*
X143625192Y-67143569D03*
X144025192Y-67143569D03*
X144425192Y-67143569D03*
X144825192Y-67143569D03*
X145225192Y-67143569D03*
X145625192Y-67143569D03*
X146025192Y-67143569D03*
X146425192Y-67143569D03*
X146825192Y-67143569D03*
X147225192Y-67143569D03*
X147625192Y-67143569D03*
X148025192Y-67143569D03*
D87*
X148805192Y-66373569D03*
X148805192Y-65973569D03*
X148805192Y-65573569D03*
X148805192Y-65173569D03*
X148805192Y-64773569D03*
X148805192Y-64373569D03*
X148805192Y-63973569D03*
X148805192Y-63573569D03*
X148805192Y-63173569D03*
X148805192Y-62773569D03*
X148805192Y-62373569D03*
X148805192Y-61973569D03*
X148805192Y-61573569D03*
X148805192Y-61173569D03*
X148805192Y-60773569D03*
D88*
X148025192Y-60003569D03*
X147625192Y-60003569D03*
X147225192Y-60003569D03*
X146825192Y-60003569D03*
X146425192Y-60003569D03*
X146025192Y-60003569D03*
X145625192Y-60003569D03*
X145225192Y-60003569D03*
X144825192Y-60003569D03*
X144425192Y-60003569D03*
X144025192Y-60003569D03*
X143625192Y-60003569D03*
X143225192Y-60003569D03*
X142825192Y-60003569D03*
X142425192Y-60003569D03*
D89*
X145225192Y-63573569D03*
%TD*%
D90*
%TO.C,SW1*%
X125725192Y-49853569D03*
X122325192Y-49853569D03*
X125725192Y-48353569D03*
X122325192Y-48353569D03*
%TD*%
D58*
%TO.C,R3*%
X147310192Y-77498567D03*
X147310192Y-76478569D03*
%TD*%
D31*
%TO.C,R32*%
X119685001Y-114299999D03*
X121335001Y-114299999D03*
%TD*%
D91*
%TO.C,FB4*%
X164660192Y-66791068D03*
X164660192Y-68366070D03*
%TD*%
D31*
%TO.C,R22*%
X119685000Y-76350000D03*
X121335000Y-76350000D03*
%TD*%
D92*
%TO.C,FB2*%
X171777967Y-97213027D03*
X170664273Y-98326721D03*
%TD*%
D20*
%TO.C,C57*%
X162710192Y-67658569D03*
X162710192Y-66698569D03*
%TD*%
D45*
%TO.C,C30*%
X176538564Y-95987967D03*
X177217386Y-95309145D03*
%TD*%
D91*
%TO.C,FB3*%
X160460192Y-66791068D03*
X160460192Y-68366070D03*
%TD*%
D19*
%TO.C,R35*%
X122810001Y-121725000D03*
X122810001Y-123375000D03*
%TD*%
D63*
%TO.C,R18*%
X170760192Y-65341069D03*
X170760192Y-63691069D03*
%TD*%
D46*
%TO.C,R16*%
X179476591Y-95135903D03*
X180643317Y-96302629D03*
%TD*%
D50*
%TO.C,C1*%
X146845192Y-58953569D03*
X147805192Y-58953569D03*
%TD*%
D51*
%TO.C,JP6*%
X164710192Y-76428569D03*
D52*
X164710192Y-75128571D03*
%TD*%
D49*
%TO.C,R5*%
X144375192Y-55793569D03*
X144375192Y-56813569D03*
%TD*%
D93*
%TO.C,J4*%
X144985192Y-80933569D03*
X144985192Y-77123569D03*
%TD*%
%LPD*%
M02*
