%TF.GenerationSoftware,KiCad,Pcbnew,9.0.0*%
%TF.CreationDate,2025-03-11T14:35:03-07:00*%
%TF.ProjectId,RTW_production_pathfinder_V1,5254575f-7072-46f6-9475-6374696f6e5f,rev?*%
%TF.SameCoordinates,Original*%
%TF.FileFunction,Copper,L2,Bot*%
%TF.FilePolarity,Positive*%
%FSLAX46Y46*%
G04 Gerber Fmt 4.6, Leading zero omitted, Abs format (unit mm)*
G04 Created by KiCad (PCBNEW 9.0.0) date 2025-03-11 14:35:03*
%MOMM*%
%LPD*%
G01*
G04 APERTURE LIST*
%TA.AperFunction,ComponentPad*%
%ADD10R,1.700000X1.700000*%
%TD*%
%TA.AperFunction,ComponentPad*%
%ADD11O,1.700000X1.700000*%
%TD*%
%TA.AperFunction,ComponentPad*%
%ADD12C,3.800000*%
%TD*%
%TA.AperFunction,ViaPad*%
%ADD13C,0.600000*%
%TD*%
%TA.AperFunction,Conductor*%
%ADD14C,0.200000*%
%TD*%
G04 APERTURE END LIST*
D10*
%TO.P,J16,1,Pin_1*%
%TO.N,WDT_WDI_2*%
X133650000Y-99900000D03*
D11*
%TO.P,J16,2,Pin_2*%
X133650000Y-102440000D03*
%TO.P,J16,3,Pin_3*%
%TO.N,GND*%
X133650000Y-104980000D03*
%TO.P,J16,4,Pin_4*%
X133650000Y-107520000D03*
%TD*%
D10*
%TO.P,J12,1,Pin_1*%
%TO.N,VBIAS_2*%
X149600000Y-98500000D03*
D11*
%TO.P,J12,2,Pin_2*%
X147060000Y-98500000D03*
%TO.P,J12,3,Pin_3*%
%TO.N,GND*%
X144520001Y-98500000D03*
%TO.P,J12,4,Pin_4*%
X141980000Y-98500000D03*
%TD*%
D10*
%TO.P,J18,1,Pin_1*%
%TO.N,WDT_WDI_1*%
X147800000Y-83800000D03*
D11*
%TO.P,J18,2,Pin_2*%
X147800000Y-86340000D03*
%TO.P,J18,3,Pin_3*%
%TO.N,GND*%
X147800000Y-88880000D03*
%TO.P,J18,4,Pin_4*%
X147800000Y-91420000D03*
%TD*%
D10*
%TO.P,J17,1,Pin_1*%
%TO.N,WDT_WDI_3*%
X147800000Y-113600000D03*
D11*
%TO.P,J17,2,Pin_2*%
X147800000Y-116140000D03*
%TO.P,J17,3,Pin_3*%
%TO.N,GND*%
X147800000Y-118680000D03*
%TO.P,J17,4,Pin_4*%
X147800000Y-121220000D03*
%TD*%
D10*
%TO.P,J15,1,Pin_1*%
%TO.N,~{RESET_1}*%
X177800000Y-84200000D03*
D11*
%TO.P,J15,2,Pin_2*%
X177800000Y-86740000D03*
%TO.P,J15,3,Pin_3*%
%TO.N,GND*%
X177800000Y-89280000D03*
%TO.P,J15,4,Pin_4*%
X177800000Y-91820000D03*
%TD*%
D10*
%TO.P,J14,1,Pin_1*%
%TO.N,~{RESET_3}*%
X178000000Y-113220000D03*
D11*
%TO.P,J14,2,Pin_2*%
X178000000Y-115760000D03*
%TO.P,J14,3,Pin_3*%
%TO.N,GND*%
X178000000Y-118300000D03*
%TO.P,J14,4,Pin_4*%
X178000000Y-120840000D03*
%TD*%
D10*
%TO.P,J13,1,Pin_1*%
%TO.N,~{RESET_2}*%
X178000000Y-98960000D03*
D11*
%TO.P,J13,2,Pin_2*%
X178000000Y-101500000D03*
%TO.P,J13,3,Pin_3*%
%TO.N,GND*%
X178000000Y-104040000D03*
%TO.P,J13,4,Pin_4*%
X178000000Y-106580000D03*
%TD*%
D10*
%TO.P,J11,1,Pin_1*%
%TO.N,VBIAS_3*%
X153700000Y-113520000D03*
D11*
%TO.P,J11,2,Pin_2*%
X153700000Y-116060000D03*
%TO.P,J11,3,Pin_3*%
%TO.N,GND*%
X153700000Y-118600000D03*
%TO.P,J11,4,Pin_4*%
X153700000Y-121140000D03*
%TD*%
D10*
%TO.P,J1,1,Pin_1*%
%TO.N,VBIAS_1*%
X153700000Y-83700000D03*
D11*
%TO.P,J1,2,Pin_2*%
X153700000Y-86240000D03*
%TO.P,J1,3,Pin_3*%
%TO.N,GND*%
X153700000Y-88780000D03*
%TO.P,J1,4,Pin_4*%
X153700000Y-91320000D03*
%TD*%
D12*
%TO.P,H1,1*%
%TO.N,N/C*%
X181000000Y-80000000D03*
%TD*%
%TO.P,H2,1*%
%TO.N,N/C*%
X131000000Y-80000000D03*
%TD*%
%TO.P,H4,1*%
%TO.N,N/C*%
X181000000Y-125000000D03*
%TD*%
%TO.P,H3,1*%
%TO.N,N/C*%
X131000000Y-125000000D03*
%TD*%
D13*
%TO.N,GND*%
X152937974Y-98325001D03*
X157150000Y-113050000D03*
X156900000Y-83550000D03*
X136900000Y-108300000D03*
X145600000Y-109800000D03*
X138900000Y-110000000D03*
X159800000Y-91100000D03*
X159725000Y-105950500D03*
X159825000Y-120912500D03*
X150100000Y-108300000D03*
X143600000Y-108300000D03*
X158000000Y-83700000D03*
X158025000Y-113512500D03*
X157925000Y-98550500D03*
X141300000Y-108200000D03*
X156300000Y-87400000D03*
X156325000Y-117212500D03*
X156225000Y-102250500D03*
X149000000Y-108300000D03*
X147900000Y-108200000D03*
X142300000Y-108200000D03*
X156700000Y-85100000D03*
X156725000Y-114912500D03*
X156625000Y-99950500D03*
X171400000Y-86200000D03*
X171425000Y-116012500D03*
X171325000Y-101050500D03*
X152200000Y-109900000D03*
X173300000Y-83500000D03*
X173325000Y-113312500D03*
X173225000Y-98350500D03*
X154400000Y-108300000D03*
%TO.N,Net-(U1C--)*%
X167374265Y-87374265D03*
X163000000Y-84000000D03*
%TO.N,Net-(U1D--)*%
X168817670Y-84311651D03*
X168786201Y-87511993D03*
X167624265Y-86324265D03*
X168600000Y-92700000D03*
%TO.N,Net-(U1D-+)*%
X172600000Y-88100000D03*
X168075000Y-84900000D03*
X166875000Y-84900000D03*
X170700000Y-89800000D03*
%TO.N,Net-(U1C-+)*%
X170675000Y-90599612D03*
X171103290Y-87999999D03*
%TO.N,/Watchdog1/WDT-VP*%
X165400000Y-87600000D03*
X165336158Y-89267761D03*
X166324265Y-88424265D03*
%TO.N,Net-(U3C-+)*%
X170600000Y-105450112D03*
X171028290Y-102850499D03*
%TO.N,/Watchdog3/WDT-VP*%
X165425000Y-117412500D03*
X165361158Y-119080261D03*
X166349265Y-118236765D03*
%TO.N,Net-(U2C-+)*%
X170700000Y-120412112D03*
X171128290Y-117812499D03*
%TO.N,/Watchdog2/WDT-VP*%
X165325000Y-102450500D03*
X165261158Y-104118261D03*
X166249265Y-103274765D03*
%TO.N,Net-(U3D-+)*%
X172525000Y-102950500D03*
X168000000Y-99750500D03*
X166800000Y-99750500D03*
X170625000Y-104650500D03*
%TO.N,Net-(U2D-+)*%
X172625000Y-117912500D03*
X168100000Y-114712500D03*
X166900000Y-114712500D03*
X170725000Y-119612500D03*
%TO.N,Net-(U3D--)*%
X168742670Y-99162151D03*
X168711201Y-102362493D03*
X167549265Y-101174765D03*
X168525000Y-107550500D03*
%TO.N,Net-(U3C--)*%
X167299265Y-102224765D03*
X162925000Y-98850500D03*
%TO.N,Net-(U2D--)*%
X168842670Y-114124151D03*
X168811201Y-117324493D03*
X167649265Y-116136765D03*
X168625000Y-122512500D03*
%TO.N,Net-(U2C--)*%
X167399265Y-117186765D03*
X163636795Y-113822243D03*
%TO.N,VBIAS_1*%
X165278260Y-86126790D03*
X165941855Y-89790384D03*
%TO.N,VBIAS_3*%
X165303260Y-115939290D03*
X165966855Y-119602884D03*
%TO.N,/Watchdog2/WDT-VIN*%
X165203260Y-100977290D03*
X165866855Y-104640884D03*
%TD*%
D14*
%TO.N,Net-(U1C--)*%
X167374265Y-87374265D02*
X164000000Y-84000000D01*
X164000000Y-84000000D02*
X163000000Y-84000000D01*
%TO.N,Net-(U1D--)*%
X168786201Y-87813799D02*
X168298988Y-88301012D01*
X168600000Y-91600000D02*
X168600000Y-92700000D01*
X168298988Y-91298988D02*
X168600000Y-91600000D01*
X168298988Y-88301012D02*
X168298988Y-91298988D01*
X167624265Y-86324265D02*
X168817670Y-85130860D01*
X168817670Y-85130860D02*
X168817670Y-84311651D01*
X168786201Y-87511993D02*
X168786201Y-87813799D01*
%TO.N,Net-(U1D-+)*%
X170900000Y-89800000D02*
X170700000Y-89800000D01*
X172600000Y-88100000D02*
X170900000Y-89800000D01*
X166875000Y-84900000D02*
X168075000Y-84900000D01*
%TO.N,Net-(U1C-+)*%
X171103290Y-87999999D02*
X170099000Y-89004289D01*
X170099000Y-89004289D02*
X170099000Y-90048943D01*
X170649669Y-90599612D02*
X170675000Y-90599612D01*
X170099000Y-90048943D02*
X170649669Y-90599612D01*
%TO.N,/Watchdog1/WDT-VP*%
X165336158Y-87663842D02*
X165400000Y-87600000D01*
X165500000Y-87600000D02*
X166324265Y-88424265D01*
X165400000Y-87600000D02*
X165500000Y-87600000D01*
X165336158Y-89267761D02*
X165336158Y-87663842D01*
%TO.N,Net-(U3C-+)*%
X171028290Y-102850499D02*
X170024000Y-103854789D01*
X170024000Y-103854789D02*
X170024000Y-104899443D01*
X170574669Y-105450112D02*
X170600000Y-105450112D01*
X170024000Y-104899443D02*
X170574669Y-105450112D01*
%TO.N,/Watchdog3/WDT-VP*%
X165361158Y-117476342D02*
X165425000Y-117412500D01*
X165525000Y-117412500D02*
X166349265Y-118236765D01*
X165425000Y-117412500D02*
X165525000Y-117412500D01*
X165361158Y-119080261D02*
X165361158Y-117476342D01*
%TO.N,Net-(U2C-+)*%
X171128290Y-117812499D02*
X170124000Y-118816789D01*
X170124000Y-118816789D02*
X170124000Y-119861443D01*
X170674669Y-120412112D02*
X170700000Y-120412112D01*
X170124000Y-119861443D02*
X170674669Y-120412112D01*
%TO.N,/Watchdog2/WDT-VP*%
X165261158Y-102514342D02*
X165325000Y-102450500D01*
X165425000Y-102450500D02*
X166249265Y-103274765D01*
X165325000Y-102450500D02*
X165425000Y-102450500D01*
X165261158Y-104118261D02*
X165261158Y-102514342D01*
%TO.N,Net-(U3D-+)*%
X170825000Y-104650500D02*
X170625000Y-104650500D01*
X172525000Y-102950500D02*
X170825000Y-104650500D01*
X166800000Y-99750500D02*
X168000000Y-99750500D01*
%TO.N,Net-(U2D-+)*%
X170925000Y-119612500D02*
X170725000Y-119612500D01*
X172625000Y-117912500D02*
X170925000Y-119612500D01*
X166900000Y-114712500D02*
X168100000Y-114712500D01*
%TO.N,Net-(U3D--)*%
X168711201Y-102664299D02*
X168223988Y-103151512D01*
X168525000Y-106450500D02*
X168525000Y-107550500D01*
X168223988Y-106149488D02*
X168525000Y-106450500D01*
X168223988Y-103151512D02*
X168223988Y-106149488D01*
X167549265Y-101174765D02*
X168742670Y-99981360D01*
X168742670Y-99981360D02*
X168742670Y-99162151D01*
X168711201Y-102362493D02*
X168711201Y-102664299D01*
%TO.N,Net-(U3C--)*%
X167299265Y-102224765D02*
X163925000Y-98850500D01*
X163925000Y-98850500D02*
X162925000Y-98850500D01*
%TO.N,Net-(U2D--)*%
X168811201Y-117626299D02*
X168323988Y-118113512D01*
X168625000Y-121412500D02*
X168625000Y-122512500D01*
X168323988Y-121111488D02*
X168625000Y-121412500D01*
X168323988Y-118113512D02*
X168323988Y-121111488D01*
X167649265Y-116136765D02*
X168842670Y-114943360D01*
X168842670Y-114943360D02*
X168842670Y-114124151D01*
X168811201Y-117324493D02*
X168811201Y-117626299D01*
%TO.N,Net-(U2C--)*%
X163646538Y-113812500D02*
X164025000Y-113812500D01*
X163636795Y-113822243D02*
X163646538Y-113812500D01*
X164025000Y-113812500D02*
X167399265Y-117186765D01*
%TO.N,VBIAS_1*%
X166925265Y-87773795D02*
X165278260Y-86126790D01*
X165941855Y-89790384D02*
X166925265Y-88806974D01*
X166925265Y-88806974D02*
X166925265Y-87773795D01*
%TO.N,VBIAS_3*%
X166950265Y-117586295D02*
X165303260Y-115939290D01*
X165966855Y-119602884D02*
X166950265Y-118619474D01*
X166950265Y-118619474D02*
X166950265Y-117586295D01*
%TO.N,/Watchdog2/WDT-VIN*%
X166850265Y-102624295D02*
X165203260Y-100977290D01*
X165866855Y-104640884D02*
X166850265Y-103657474D01*
X166850265Y-103657474D02*
X166850265Y-102624295D01*
%TD*%
%TA.AperFunction,Conductor*%
%TO.N,GND*%
G36*
X148050000Y-120786988D02*
G01*
X147992993Y-120754075D01*
X147865826Y-120720000D01*
X147734174Y-120720000D01*
X147607007Y-120754075D01*
X147550000Y-120786988D01*
X147550000Y-119113012D01*
X147607007Y-119145925D01*
X147734174Y-119180000D01*
X147865826Y-119180000D01*
X147992993Y-119145925D01*
X148050000Y-119113012D01*
X148050000Y-120786988D01*
G37*
%TD.AperFunction*%
%TA.AperFunction,Conductor*%
G36*
X153950000Y-120706988D02*
G01*
X153892993Y-120674075D01*
X153765826Y-120640000D01*
X153634174Y-120640000D01*
X153507007Y-120674075D01*
X153450000Y-120706988D01*
X153450000Y-119033012D01*
X153507007Y-119065925D01*
X153634174Y-119100000D01*
X153765826Y-119100000D01*
X153892993Y-119065925D01*
X153950000Y-119033012D01*
X153950000Y-120706988D01*
G37*
%TD.AperFunction*%
%TA.AperFunction,Conductor*%
G36*
X178250000Y-120406988D02*
G01*
X178192993Y-120374075D01*
X178065826Y-120340000D01*
X177934174Y-120340000D01*
X177807007Y-120374075D01*
X177750000Y-120406988D01*
X177750000Y-118733012D01*
X177807007Y-118765925D01*
X177934174Y-118800000D01*
X178065826Y-118800000D01*
X178192993Y-118765925D01*
X178250000Y-118733012D01*
X178250000Y-120406988D01*
G37*
%TD.AperFunction*%
%TA.AperFunction,Conductor*%
G36*
X133900000Y-107086988D02*
G01*
X133842993Y-107054075D01*
X133715826Y-107020000D01*
X133584174Y-107020000D01*
X133457007Y-107054075D01*
X133400000Y-107086988D01*
X133400000Y-105413012D01*
X133457007Y-105445925D01*
X133584174Y-105480000D01*
X133715826Y-105480000D01*
X133842993Y-105445925D01*
X133900000Y-105413012D01*
X133900000Y-107086988D01*
G37*
%TD.AperFunction*%
%TA.AperFunction,Conductor*%
G36*
X178250000Y-106146988D02*
G01*
X178192993Y-106114075D01*
X178065826Y-106080000D01*
X177934174Y-106080000D01*
X177807007Y-106114075D01*
X177750000Y-106146988D01*
X177750000Y-104473012D01*
X177807007Y-104505925D01*
X177934174Y-104540000D01*
X178065826Y-104540000D01*
X178192993Y-104505925D01*
X178250000Y-104473012D01*
X178250000Y-106146988D01*
G37*
%TD.AperFunction*%
%TA.AperFunction,Conductor*%
G36*
X144054076Y-98307007D02*
G01*
X144020001Y-98434174D01*
X144020001Y-98565826D01*
X144054076Y-98692993D01*
X144086989Y-98750000D01*
X142413012Y-98750000D01*
X142445925Y-98692993D01*
X142480000Y-98565826D01*
X142480000Y-98434174D01*
X142445925Y-98307007D01*
X142413012Y-98250000D01*
X144086989Y-98250000D01*
X144054076Y-98307007D01*
G37*
%TD.AperFunction*%
%TA.AperFunction,Conductor*%
G36*
X178050000Y-91386988D02*
G01*
X177992993Y-91354075D01*
X177865826Y-91320000D01*
X177734174Y-91320000D01*
X177607007Y-91354075D01*
X177550000Y-91386988D01*
X177550000Y-89713012D01*
X177607007Y-89745925D01*
X177734174Y-89780000D01*
X177865826Y-89780000D01*
X177992993Y-89745925D01*
X178050000Y-89713012D01*
X178050000Y-91386988D01*
G37*
%TD.AperFunction*%
%TA.AperFunction,Conductor*%
G36*
X148050000Y-90986988D02*
G01*
X147992993Y-90954075D01*
X147865826Y-90920000D01*
X147734174Y-90920000D01*
X147607007Y-90954075D01*
X147550000Y-90986988D01*
X147550000Y-89313012D01*
X147607007Y-89345925D01*
X147734174Y-89380000D01*
X147865826Y-89380000D01*
X147992993Y-89345925D01*
X148050000Y-89313012D01*
X148050000Y-90986988D01*
G37*
%TD.AperFunction*%
%TA.AperFunction,Conductor*%
G36*
X153950000Y-90886988D02*
G01*
X153892993Y-90854075D01*
X153765826Y-90820000D01*
X153634174Y-90820000D01*
X153507007Y-90854075D01*
X153450000Y-90886988D01*
X153450000Y-89213012D01*
X153507007Y-89245925D01*
X153634174Y-89280000D01*
X153765826Y-89280000D01*
X153892993Y-89245925D01*
X153950000Y-89213012D01*
X153950000Y-90886988D01*
G37*
%TD.AperFunction*%
%TA.AperFunction,Conductor*%
G36*
X179372858Y-78019685D02*
G01*
X179418613Y-78072489D01*
X179428557Y-78141647D01*
X179399532Y-78205203D01*
X179393500Y-78211681D01*
X179207265Y-78397915D01*
X179039161Y-78608712D01*
X178895714Y-78837005D01*
X178778734Y-79079917D01*
X178689687Y-79334397D01*
X178689684Y-79334405D01*
X178629688Y-79597268D01*
X178629686Y-79597280D01*
X178599500Y-79865186D01*
X178599500Y-80134813D01*
X178629686Y-80402719D01*
X178629688Y-80402731D01*
X178689684Y-80665594D01*
X178689687Y-80665602D01*
X178778734Y-80920082D01*
X178895714Y-81162994D01*
X178895716Y-81162997D01*
X179039162Y-81391289D01*
X179207266Y-81602085D01*
X179397915Y-81792734D01*
X179608711Y-81960838D01*
X179837003Y-82104284D01*
X180079921Y-82221267D01*
X180271049Y-82288145D01*
X180334397Y-82310312D01*
X180334405Y-82310315D01*
X180334408Y-82310315D01*
X180334409Y-82310316D01*
X180597268Y-82370312D01*
X180865187Y-82400499D01*
X180865188Y-82400500D01*
X180865191Y-82400500D01*
X181134812Y-82400500D01*
X181134812Y-82400499D01*
X181402732Y-82370312D01*
X181665591Y-82310316D01*
X181920079Y-82221267D01*
X182162997Y-82104284D01*
X182391289Y-81960838D01*
X182602085Y-81792734D01*
X182792734Y-81602085D01*
X182960838Y-81391289D01*
X182971005Y-81375107D01*
X183023338Y-81328816D01*
X183092392Y-81318166D01*
X183156241Y-81346540D01*
X183194614Y-81404929D01*
X183200000Y-81441078D01*
X183200000Y-123558921D01*
X183180315Y-123625960D01*
X183127511Y-123671715D01*
X183058353Y-123681659D01*
X182994797Y-123652634D01*
X182971006Y-123624893D01*
X182969252Y-123622103D01*
X182960838Y-123608711D01*
X182792734Y-123397915D01*
X182602085Y-123207266D01*
X182391289Y-123039162D01*
X182162997Y-122895716D01*
X182162994Y-122895714D01*
X181920082Y-122778734D01*
X181665602Y-122689687D01*
X181665594Y-122689684D01*
X181468446Y-122644687D01*
X181402732Y-122629688D01*
X181402728Y-122629687D01*
X181402719Y-122629686D01*
X181134813Y-122599500D01*
X181134809Y-122599500D01*
X180865191Y-122599500D01*
X180865186Y-122599500D01*
X180597280Y-122629686D01*
X180597268Y-122629688D01*
X180334405Y-122689684D01*
X180334397Y-122689687D01*
X180079917Y-122778734D01*
X179837005Y-122895714D01*
X179608712Y-123039161D01*
X179397915Y-123207265D01*
X179207265Y-123397915D01*
X179039161Y-123608712D01*
X178895714Y-123837005D01*
X178778734Y-124079917D01*
X178689687Y-124334397D01*
X178689684Y-124334405D01*
X178629688Y-124597268D01*
X178629686Y-124597280D01*
X178599500Y-124865186D01*
X178599500Y-125134813D01*
X178629686Y-125402719D01*
X178629688Y-125402731D01*
X178689684Y-125665594D01*
X178689687Y-125665602D01*
X178748978Y-125835045D01*
X178752540Y-125904824D01*
X178717812Y-125965451D01*
X178655818Y-125997679D01*
X178631937Y-126000000D01*
X133368063Y-126000000D01*
X133301024Y-125980315D01*
X133255269Y-125927511D01*
X133245325Y-125858353D01*
X133251022Y-125835045D01*
X133310312Y-125665602D01*
X133310315Y-125665594D01*
X133310316Y-125665591D01*
X133370312Y-125402732D01*
X133400500Y-125134809D01*
X133400500Y-124865191D01*
X133370312Y-124597268D01*
X133310316Y-124334409D01*
X133221267Y-124079921D01*
X133104284Y-123837003D01*
X132960838Y-123608711D01*
X132792734Y-123397915D01*
X132602085Y-123207266D01*
X132391289Y-123039162D01*
X132162997Y-122895716D01*
X132162994Y-122895714D01*
X131920082Y-122778734D01*
X131665602Y-122689687D01*
X131665594Y-122689684D01*
X131468446Y-122644687D01*
X131402732Y-122629688D01*
X131402728Y-122629687D01*
X131402719Y-122629686D01*
X131134813Y-122599500D01*
X131134809Y-122599500D01*
X130865191Y-122599500D01*
X130865186Y-122599500D01*
X130597280Y-122629686D01*
X130597268Y-122629688D01*
X130334405Y-122689684D01*
X130334397Y-122689687D01*
X130079917Y-122778734D01*
X129837005Y-122895714D01*
X129608712Y-123039161D01*
X129397915Y-123207265D01*
X129311681Y-123293500D01*
X129250358Y-123326985D01*
X129180666Y-123322001D01*
X129124733Y-123280129D01*
X129100316Y-123214665D01*
X129100000Y-123205819D01*
X129100000Y-112702135D01*
X146449500Y-112702135D01*
X146449500Y-114497870D01*
X146449501Y-114497876D01*
X146455908Y-114557483D01*
X146506202Y-114692328D01*
X146506206Y-114692335D01*
X146592452Y-114807544D01*
X146592455Y-114807547D01*
X146707664Y-114893793D01*
X146707671Y-114893797D01*
X146839082Y-114942810D01*
X146895016Y-114984681D01*
X146919433Y-115050145D01*
X146904582Y-115118418D01*
X146883431Y-115146673D01*
X146769889Y-115260215D01*
X146644951Y-115432179D01*
X146548444Y-115621585D01*
X146482753Y-115823760D01*
X146462171Y-115953713D01*
X146449500Y-116033713D01*
X146449500Y-116246287D01*
X146459534Y-116309644D01*
X146481698Y-116449579D01*
X146482754Y-116456243D01*
X146545282Y-116648684D01*
X146548444Y-116658414D01*
X146644951Y-116847820D01*
X146769890Y-117019786D01*
X146920213Y-117170109D01*
X147092179Y-117295048D01*
X147092181Y-117295049D01*
X147092184Y-117295051D01*
X147101493Y-117299794D01*
X147152290Y-117347766D01*
X147169087Y-117415587D01*
X147146552Y-117481722D01*
X147101502Y-117520762D01*
X147092443Y-117525378D01*
X146920540Y-117650272D01*
X146920535Y-117650276D01*
X146770276Y-117800535D01*
X146770272Y-117800540D01*
X146645379Y-117972442D01*
X146548904Y-118161782D01*
X146483242Y-118363870D01*
X146483242Y-118363873D01*
X146472769Y-118430000D01*
X147366988Y-118430000D01*
X147334075Y-118487007D01*
X147300000Y-118614174D01*
X147300000Y-118745826D01*
X147334075Y-118872993D01*
X147366988Y-118930000D01*
X146472769Y-118930000D01*
X146483242Y-118996126D01*
X146483242Y-118996129D01*
X146548904Y-119198217D01*
X146645379Y-119387557D01*
X146770272Y-119559459D01*
X146770276Y-119559464D01*
X146920535Y-119709723D01*
X146920540Y-119709727D01*
X147092444Y-119834622D01*
X147102048Y-119839516D01*
X147152844Y-119887491D01*
X147169638Y-119955312D01*
X147147100Y-120021447D01*
X147102048Y-120060484D01*
X147092444Y-120065377D01*
X146920540Y-120190272D01*
X146920535Y-120190276D01*
X146770276Y-120340535D01*
X146770272Y-120340540D01*
X146645379Y-120512442D01*
X146548904Y-120701782D01*
X146483242Y-120903870D01*
X146483242Y-120903873D01*
X146472769Y-120970000D01*
X147366988Y-120970000D01*
X147334075Y-121027007D01*
X147300000Y-121154174D01*
X147300000Y-121285826D01*
X147334075Y-121412993D01*
X147366988Y-121470000D01*
X146472769Y-121470000D01*
X146483242Y-121536126D01*
X146483242Y-121536129D01*
X146548904Y-121738217D01*
X146645379Y-121927557D01*
X146770272Y-122099459D01*
X146770276Y-122099464D01*
X146920535Y-122249723D01*
X146920540Y-122249727D01*
X147092442Y-122374620D01*
X147281782Y-122471095D01*
X147483871Y-122536757D01*
X147550000Y-122547231D01*
X147550000Y-121653012D01*
X147607007Y-121685925D01*
X147734174Y-121720000D01*
X147865826Y-121720000D01*
X147992993Y-121685925D01*
X148050000Y-121653012D01*
X148050000Y-122547230D01*
X148116126Y-122536757D01*
X148116129Y-122536757D01*
X148318217Y-122471095D01*
X148507557Y-122374620D01*
X148679459Y-122249727D01*
X148679464Y-122249723D01*
X148829723Y-122099464D01*
X148829727Y-122099459D01*
X148954620Y-121927557D01*
X149051095Y-121738217D01*
X149116757Y-121536129D01*
X149116757Y-121536126D01*
X149127231Y-121470000D01*
X148233012Y-121470000D01*
X148265925Y-121412993D01*
X148300000Y-121285826D01*
X148300000Y-121154174D01*
X148265925Y-121027007D01*
X148233012Y-120970000D01*
X149127231Y-120970000D01*
X149116757Y-120903873D01*
X149116757Y-120903870D01*
X149051095Y-120701782D01*
X148954620Y-120512442D01*
X148829727Y-120340540D01*
X148829723Y-120340535D01*
X148679464Y-120190276D01*
X148679459Y-120190272D01*
X148507558Y-120065379D01*
X148497954Y-120060486D01*
X148447157Y-120012512D01*
X148430361Y-119944692D01*
X148452897Y-119878556D01*
X148497954Y-119839514D01*
X148507558Y-119834620D01*
X148679459Y-119709727D01*
X148679464Y-119709723D01*
X148829723Y-119559464D01*
X148829727Y-119559459D01*
X148954620Y-119387557D01*
X149051095Y-119198217D01*
X149116757Y-118996129D01*
X149116757Y-118996126D01*
X149127231Y-118930000D01*
X148233012Y-118930000D01*
X148265925Y-118872993D01*
X148300000Y-118745826D01*
X148300000Y-118614174D01*
X148265925Y-118487007D01*
X148233012Y-118430000D01*
X149127231Y-118430000D01*
X149116757Y-118363873D01*
X149116757Y-118363870D01*
X149051095Y-118161782D01*
X148954620Y-117972442D01*
X148829727Y-117800540D01*
X148829723Y-117800535D01*
X148679464Y-117650276D01*
X148679459Y-117650272D01*
X148507555Y-117525377D01*
X148498500Y-117520763D01*
X148447706Y-117472788D01*
X148430912Y-117404966D01*
X148453451Y-117338832D01*
X148498508Y-117299793D01*
X148507816Y-117295051D01*
X148587007Y-117237515D01*
X148679786Y-117170109D01*
X148679788Y-117170106D01*
X148679792Y-117170104D01*
X148830104Y-117019792D01*
X148830106Y-117019788D01*
X148830109Y-117019786D01*
X148955048Y-116847820D01*
X148955047Y-116847820D01*
X148955051Y-116847816D01*
X149051557Y-116658412D01*
X149117246Y-116456243D01*
X149150500Y-116246287D01*
X149150500Y-116033713D01*
X149117246Y-115823757D01*
X149051557Y-115621588D01*
X148955051Y-115432184D01*
X148955049Y-115432181D01*
X148955048Y-115432179D01*
X148830109Y-115260213D01*
X148716569Y-115146673D01*
X148683084Y-115085350D01*
X148688068Y-115015658D01*
X148729940Y-114959725D01*
X148760915Y-114942810D01*
X148892331Y-114893796D01*
X149007546Y-114807546D01*
X149093796Y-114692331D01*
X149144091Y-114557483D01*
X149150500Y-114497873D01*
X149150499Y-112702128D01*
X149144091Y-112642517D01*
X149136489Y-112622135D01*
X152349500Y-112622135D01*
X152349500Y-114417870D01*
X152349501Y-114417876D01*
X152355908Y-114477483D01*
X152406202Y-114612328D01*
X152406206Y-114612335D01*
X152492452Y-114727544D01*
X152492455Y-114727547D01*
X152607664Y-114813793D01*
X152607671Y-114813797D01*
X152739082Y-114862810D01*
X152795016Y-114904681D01*
X152819433Y-114970145D01*
X152804582Y-115038418D01*
X152783431Y-115066673D01*
X152669889Y-115180215D01*
X152544951Y-115352179D01*
X152448444Y-115541585D01*
X152448443Y-115541587D01*
X152448443Y-115541588D01*
X152442423Y-115560117D01*
X152382753Y-115743760D01*
X152364272Y-115860448D01*
X152349500Y-115953713D01*
X152349500Y-116166287D01*
X152382754Y-116376243D01*
X152444157Y-116565222D01*
X152448444Y-116578414D01*
X152544951Y-116767820D01*
X152669890Y-116939786D01*
X152820213Y-117090109D01*
X152992179Y-117215048D01*
X152992181Y-117215049D01*
X152992184Y-117215051D01*
X153001493Y-117219794D01*
X153052290Y-117267766D01*
X153069087Y-117335587D01*
X153046552Y-117401722D01*
X153001502Y-117440762D01*
X152992443Y-117445378D01*
X152820540Y-117570272D01*
X152820535Y-117570276D01*
X152670276Y-117720535D01*
X152670272Y-117720540D01*
X152545379Y-117892442D01*
X152448904Y-118081782D01*
X152383242Y-118283870D01*
X152383242Y-118283873D01*
X152372769Y-118350000D01*
X153266988Y-118350000D01*
X153234075Y-118407007D01*
X153200000Y-118534174D01*
X153200000Y-118665826D01*
X153234075Y-118792993D01*
X153266988Y-118850000D01*
X152372769Y-118850000D01*
X152383242Y-118916126D01*
X152383242Y-118916129D01*
X152448904Y-119118217D01*
X152545379Y-119307557D01*
X152670272Y-119479459D01*
X152670276Y-119479464D01*
X152820535Y-119629723D01*
X152820540Y-119629727D01*
X152992444Y-119754622D01*
X153002048Y-119759516D01*
X153052844Y-119807491D01*
X153069638Y-119875312D01*
X153047100Y-119941447D01*
X153002048Y-119980484D01*
X152992444Y-119985377D01*
X152820540Y-120110272D01*
X152820535Y-120110276D01*
X152670276Y-120260535D01*
X152670272Y-120260540D01*
X152545379Y-120432442D01*
X152448904Y-120621782D01*
X152383242Y-120823870D01*
X152383242Y-120823873D01*
X152372769Y-120890000D01*
X153266988Y-120890000D01*
X153234075Y-120947007D01*
X153200000Y-121074174D01*
X153200000Y-121205826D01*
X153234075Y-121332993D01*
X153266988Y-121390000D01*
X152372769Y-121390000D01*
X152383242Y-121456126D01*
X152383242Y-121456129D01*
X152448904Y-121658217D01*
X152545379Y-121847557D01*
X152670272Y-122019459D01*
X152670276Y-122019464D01*
X152820535Y-122169723D01*
X152820540Y-122169727D01*
X152992442Y-122294620D01*
X153181782Y-122391095D01*
X153383871Y-122456757D01*
X153450000Y-122467231D01*
X153450000Y-121573012D01*
X153507007Y-121605925D01*
X153634174Y-121640000D01*
X153765826Y-121640000D01*
X153892993Y-121605925D01*
X153950000Y-121573012D01*
X153950000Y-122467230D01*
X154016126Y-122456757D01*
X154016129Y-122456757D01*
X154218217Y-122391095D01*
X154407557Y-122294620D01*
X154579459Y-122169727D01*
X154579464Y-122169723D01*
X154729723Y-122019464D01*
X154729727Y-122019459D01*
X154854620Y-121847557D01*
X154951095Y-121658217D01*
X155016757Y-121456129D01*
X155016757Y-121456126D01*
X155027231Y-121390000D01*
X154133012Y-121390000D01*
X154165925Y-121332993D01*
X154200000Y-121205826D01*
X154200000Y-121074174D01*
X154165925Y-120947007D01*
X154133012Y-120890000D01*
X155027231Y-120890000D01*
X155016757Y-120823873D01*
X155016757Y-120823870D01*
X154951095Y-120621782D01*
X154854620Y-120432442D01*
X154729727Y-120260540D01*
X154729723Y-120260535D01*
X154579464Y-120110276D01*
X154579459Y-120110272D01*
X154407558Y-119985379D01*
X154397954Y-119980486D01*
X154347157Y-119932512D01*
X154330361Y-119864692D01*
X154352897Y-119798556D01*
X154397954Y-119759514D01*
X154407558Y-119754620D01*
X154579459Y-119629727D01*
X154579464Y-119629723D01*
X154729723Y-119479464D01*
X154729727Y-119479459D01*
X154854620Y-119307557D01*
X154951095Y-119118217D01*
X155016757Y-118916129D01*
X155016757Y-118916126D01*
X155027231Y-118850000D01*
X154133012Y-118850000D01*
X154165925Y-118792993D01*
X154200000Y-118665826D01*
X154200000Y-118534174D01*
X154165925Y-118407007D01*
X154133012Y-118350000D01*
X155027231Y-118350000D01*
X155016757Y-118283873D01*
X155016757Y-118283870D01*
X154951095Y-118081782D01*
X154854620Y-117892442D01*
X154729727Y-117720540D01*
X154729723Y-117720535D01*
X154579464Y-117570276D01*
X154579459Y-117570272D01*
X154407555Y-117445377D01*
X154398500Y-117440763D01*
X154347706Y-117392788D01*
X154330912Y-117324966D01*
X154353451Y-117258832D01*
X154398508Y-117219793D01*
X154407816Y-117215051D01*
X154507313Y-117142763D01*
X154579786Y-117090109D01*
X154579788Y-117090106D01*
X154579792Y-117090104D01*
X154730104Y-116939792D01*
X154730106Y-116939788D01*
X154730109Y-116939786D01*
X154855048Y-116767820D01*
X154855047Y-116767820D01*
X154855051Y-116767816D01*
X154951557Y-116578412D01*
X155017246Y-116376243D01*
X155050500Y-116166287D01*
X155050500Y-115953713D01*
X155017246Y-115743757D01*
X154951557Y-115541588D01*
X154855051Y-115352184D01*
X154855049Y-115352181D01*
X154855048Y-115352179D01*
X154730109Y-115180213D01*
X154616569Y-115066673D01*
X154583084Y-115005350D01*
X154588068Y-114935658D01*
X154629940Y-114879725D01*
X154660915Y-114862810D01*
X154792331Y-114813796D01*
X154907546Y-114727546D01*
X154993796Y-114612331D01*
X155044091Y-114477483D01*
X155050500Y-114417873D01*
X155050499Y-113743396D01*
X162836295Y-113743396D01*
X162836295Y-113901089D01*
X162867056Y-114055732D01*
X162867059Y-114055744D01*
X162927397Y-114201415D01*
X162927404Y-114201428D01*
X163015005Y-114332531D01*
X163015008Y-114332535D01*
X163126502Y-114444029D01*
X163126506Y-114444032D01*
X163257609Y-114531633D01*
X163257622Y-114531640D01*
X163400488Y-114590816D01*
X163403298Y-114591980D01*
X163505594Y-114612328D01*
X163557948Y-114622742D01*
X163557951Y-114622743D01*
X163557953Y-114622743D01*
X163715639Y-114622743D01*
X163876144Y-114590816D01*
X163945736Y-114597043D01*
X163988017Y-114624752D01*
X164653890Y-115290625D01*
X164687375Y-115351948D01*
X164682391Y-115421640D01*
X164669312Y-115447196D01*
X164593868Y-115560106D01*
X164593862Y-115560117D01*
X164533524Y-115705788D01*
X164533521Y-115705800D01*
X164502760Y-115860443D01*
X164502760Y-116018136D01*
X164533521Y-116172779D01*
X164533524Y-116172791D01*
X164593862Y-116318462D01*
X164593869Y-116318475D01*
X164681470Y-116449578D01*
X164681473Y-116449582D01*
X164792970Y-116561079D01*
X164877972Y-116617875D01*
X164922777Y-116671487D01*
X164931484Y-116740812D01*
X164901330Y-116803839D01*
X164896763Y-116808658D01*
X164803210Y-116902211D01*
X164715609Y-117033314D01*
X164715602Y-117033327D01*
X164655264Y-117178998D01*
X164655261Y-117179010D01*
X164624500Y-117333653D01*
X164624500Y-117491346D01*
X164655261Y-117645989D01*
X164655264Y-117646001D01*
X164715602Y-117791672D01*
X164715610Y-117791687D01*
X164739759Y-117827827D01*
X164760638Y-117894504D01*
X164760658Y-117896719D01*
X164760658Y-118500495D01*
X164740973Y-118567534D01*
X164739760Y-118569386D01*
X164651767Y-118701075D01*
X164651760Y-118701088D01*
X164591422Y-118846759D01*
X164591419Y-118846771D01*
X164560658Y-119001414D01*
X164560658Y-119159107D01*
X164591419Y-119313750D01*
X164591422Y-119313762D01*
X164651760Y-119459433D01*
X164651767Y-119459446D01*
X164739368Y-119590549D01*
X164739371Y-119590553D01*
X164850865Y-119702047D01*
X164850869Y-119702050D01*
X164981972Y-119789651D01*
X164981985Y-119789658D01*
X165090535Y-119834620D01*
X165127661Y-119849998D01*
X165144491Y-119853345D01*
X165206402Y-119885728D01*
X165234864Y-119927510D01*
X165257459Y-119982059D01*
X165257464Y-119982069D01*
X165345065Y-120113172D01*
X165345068Y-120113176D01*
X165456562Y-120224670D01*
X165456566Y-120224673D01*
X165587669Y-120312274D01*
X165587682Y-120312281D01*
X165733353Y-120372619D01*
X165733358Y-120372621D01*
X165888008Y-120403383D01*
X165888011Y-120403384D01*
X165888013Y-120403384D01*
X166045699Y-120403384D01*
X166045700Y-120403383D01*
X166200352Y-120372621D01*
X166346034Y-120312278D01*
X166477144Y-120224673D01*
X166588644Y-120113173D01*
X166676249Y-119982063D01*
X166736592Y-119836381D01*
X166761786Y-119709723D01*
X166767493Y-119681034D01*
X166799878Y-119619123D01*
X166801370Y-119617603D01*
X167430785Y-118988190D01*
X167492101Y-118881985D01*
X167542667Y-118833771D01*
X167611274Y-118820547D01*
X167676139Y-118846515D01*
X167716668Y-118903429D01*
X167723488Y-118943986D01*
X167723488Y-121024818D01*
X167723487Y-121024836D01*
X167723487Y-121190542D01*
X167723486Y-121190542D01*
X167764411Y-121343273D01*
X167793346Y-121393388D01*
X167793347Y-121393392D01*
X167793348Y-121393392D01*
X167843467Y-121480202D01*
X167843469Y-121480205D01*
X167962337Y-121599073D01*
X167962343Y-121599078D01*
X167988181Y-121624916D01*
X168021666Y-121686239D01*
X168024500Y-121712597D01*
X168024500Y-121932734D01*
X168004815Y-121999773D01*
X168003602Y-122001625D01*
X167915609Y-122133314D01*
X167915602Y-122133327D01*
X167855264Y-122278998D01*
X167855261Y-122279010D01*
X167824500Y-122433653D01*
X167824500Y-122591346D01*
X167855261Y-122745989D01*
X167855264Y-122746001D01*
X167915602Y-122891672D01*
X167915609Y-122891685D01*
X168003210Y-123022788D01*
X168003213Y-123022792D01*
X168114707Y-123134286D01*
X168114711Y-123134289D01*
X168245814Y-123221890D01*
X168245827Y-123221897D01*
X168386414Y-123280129D01*
X168391503Y-123282237D01*
X168546153Y-123312999D01*
X168546156Y-123313000D01*
X168546158Y-123313000D01*
X168703844Y-123313000D01*
X168703845Y-123312999D01*
X168858497Y-123282237D01*
X169004179Y-123221894D01*
X169135289Y-123134289D01*
X169246789Y-123022789D01*
X169334394Y-122891679D01*
X169394737Y-122745997D01*
X169425500Y-122591342D01*
X169425500Y-122433658D01*
X169425500Y-122433655D01*
X169425499Y-122433653D01*
X169417034Y-122391095D01*
X169394737Y-122279003D01*
X169348440Y-122167231D01*
X169334397Y-122133327D01*
X169334390Y-122133314D01*
X169246398Y-122001625D01*
X169225520Y-121934947D01*
X169225500Y-121932734D01*
X169225500Y-121333445D01*
X169225499Y-121333441D01*
X169218126Y-121305925D01*
X169200489Y-121240099D01*
X169193124Y-121212610D01*
X169193124Y-121212609D01*
X169184579Y-121180720D01*
X169184576Y-121180714D01*
X169150392Y-121121505D01*
X169150392Y-121121504D01*
X169105524Y-121043790D01*
X169105521Y-121043786D01*
X169105520Y-121043784D01*
X168993716Y-120931980D01*
X168993715Y-120931979D01*
X168989385Y-120927649D01*
X168989374Y-120927639D01*
X168960807Y-120899072D01*
X168927322Y-120837749D01*
X168924488Y-120811391D01*
X168924488Y-119940497D01*
X169523498Y-119940497D01*
X169564423Y-120093228D01*
X169578596Y-120117776D01*
X169578595Y-120117776D01*
X169578596Y-120117777D01*
X169643475Y-120230152D01*
X169643481Y-120230160D01*
X169871715Y-120458394D01*
X169905200Y-120519717D01*
X169905651Y-120521883D01*
X169930261Y-120645603D01*
X169930264Y-120645613D01*
X169990602Y-120791284D01*
X169990609Y-120791297D01*
X170078210Y-120922400D01*
X170078213Y-120922404D01*
X170189707Y-121033898D01*
X170189711Y-121033901D01*
X170320814Y-121121502D01*
X170320827Y-121121509D01*
X170463763Y-121180714D01*
X170466503Y-121181849D01*
X170587043Y-121205826D01*
X170621153Y-121212611D01*
X170621156Y-121212612D01*
X170621158Y-121212612D01*
X170778844Y-121212612D01*
X170778845Y-121212611D01*
X170933497Y-121181849D01*
X171079179Y-121121506D01*
X171210289Y-121033901D01*
X171219372Y-121024818D01*
X171278936Y-120965255D01*
X171321786Y-120922404D01*
X171321789Y-120922401D01*
X171409394Y-120791291D01*
X171469737Y-120645609D01*
X171500500Y-120490954D01*
X171500500Y-120333270D01*
X171500500Y-120333267D01*
X171500499Y-120333265D01*
X171479988Y-120230152D01*
X171469737Y-120178615D01*
X171444537Y-120117776D01*
X171433005Y-120089935D01*
X171429725Y-120059432D01*
X171424276Y-120029229D01*
X171425825Y-120023158D01*
X171425536Y-120020466D01*
X171433005Y-119995031D01*
X171434392Y-119991681D01*
X171434394Y-119991679D01*
X171452771Y-119947310D01*
X171479648Y-119907085D01*
X172639662Y-118747072D01*
X172700983Y-118713589D01*
X172703150Y-118713138D01*
X172776582Y-118698531D01*
X172858497Y-118682237D01*
X173004179Y-118621894D01*
X173082763Y-118569386D01*
X173135291Y-118534288D01*
X173135292Y-118534286D01*
X173244324Y-118425255D01*
X173246786Y-118422792D01*
X173246789Y-118422789D01*
X173334394Y-118291679D01*
X173394737Y-118145997D01*
X173425500Y-117991342D01*
X173425500Y-117833658D01*
X173425500Y-117833655D01*
X173425499Y-117833653D01*
X173418805Y-117800000D01*
X173394737Y-117679003D01*
X173353316Y-117579002D01*
X173334397Y-117533327D01*
X173334390Y-117533314D01*
X173246789Y-117402211D01*
X173246786Y-117402207D01*
X173135292Y-117290713D01*
X173135288Y-117290710D01*
X173004185Y-117203109D01*
X173004172Y-117203102D01*
X172858501Y-117142764D01*
X172858489Y-117142761D01*
X172703845Y-117112000D01*
X172703842Y-117112000D01*
X172546158Y-117112000D01*
X172546155Y-117112000D01*
X172391510Y-117142761D01*
X172391498Y-117142764D01*
X172245827Y-117203102D01*
X172245814Y-117203109D01*
X172114711Y-117290710D01*
X172114707Y-117290713D01*
X171998903Y-117406518D01*
X171997027Y-117404642D01*
X171948701Y-117437482D01*
X171878855Y-117439274D01*
X171819127Y-117403020D01*
X171807624Y-117388331D01*
X171750079Y-117302210D01*
X171750076Y-117302206D01*
X171638582Y-117190712D01*
X171638578Y-117190709D01*
X171507475Y-117103108D01*
X171507462Y-117103101D01*
X171361791Y-117042763D01*
X171361779Y-117042760D01*
X171207135Y-117011999D01*
X171207132Y-117011999D01*
X171049448Y-117011999D01*
X171049445Y-117011999D01*
X170894800Y-117042760D01*
X170894788Y-117042763D01*
X170749117Y-117103101D01*
X170749104Y-117103108D01*
X170618001Y-117190709D01*
X170617997Y-117190712D01*
X170506503Y-117302206D01*
X170506500Y-117302210D01*
X170418899Y-117433313D01*
X170418892Y-117433326D01*
X170358554Y-117578997D01*
X170358551Y-117579007D01*
X170327652Y-117734347D01*
X170295267Y-117796258D01*
X170293716Y-117797836D01*
X169755286Y-118336267D01*
X169643481Y-118448071D01*
X169643475Y-118448079D01*
X169593704Y-118534287D01*
X169593704Y-118534288D01*
X169564423Y-118585003D01*
X169564423Y-118585004D01*
X169523499Y-118737732D01*
X169523499Y-118895846D01*
X169523499Y-118895848D01*
X169523500Y-118905847D01*
X169523500Y-119774773D01*
X169523499Y-119774791D01*
X169523499Y-119940497D01*
X169523498Y-119940497D01*
X168924488Y-119940497D01*
X168924488Y-118413608D01*
X168944173Y-118346569D01*
X168960803Y-118325931D01*
X169179914Y-118106820D01*
X169179917Y-118106819D01*
X169291721Y-117995015D01*
X169315863Y-117953197D01*
X169324393Y-117943653D01*
X169326113Y-117942584D01*
X169329165Y-117938606D01*
X169432990Y-117834782D01*
X169520595Y-117703672D01*
X169580938Y-117557990D01*
X169611701Y-117403335D01*
X169611701Y-117245651D01*
X169611701Y-117245648D01*
X169611700Y-117245646D01*
X169598443Y-117178998D01*
X169580938Y-117090996D01*
X169575243Y-117077246D01*
X169520598Y-116945320D01*
X169520591Y-116945307D01*
X169432990Y-116814204D01*
X169432987Y-116814200D01*
X169321493Y-116702706D01*
X169321489Y-116702703D01*
X169190386Y-116615102D01*
X169190373Y-116615095D01*
X169044702Y-116554757D01*
X169044690Y-116554754D01*
X168890046Y-116523993D01*
X168890043Y-116523993D01*
X168732359Y-116523993D01*
X168732356Y-116523993D01*
X168577711Y-116554754D01*
X168577696Y-116554758D01*
X168570451Y-116557759D01*
X168500981Y-116565222D01*
X168438504Y-116533941D01*
X168402857Y-116473849D01*
X168402369Y-116414518D01*
X168404656Y-116404896D01*
X168419002Y-116370262D01*
X168449765Y-116215607D01*
X168449765Y-116215124D01*
X168450881Y-116210430D01*
X168467122Y-116181997D01*
X168482288Y-116153004D01*
X168483781Y-116151483D01*
X169323190Y-115312076D01*
X169402247Y-115175144D01*
X169443171Y-115022417D01*
X169443171Y-114864302D01*
X169443171Y-114856707D01*
X169443170Y-114856689D01*
X169443170Y-114703916D01*
X169462855Y-114636877D01*
X169464068Y-114635025D01*
X169464982Y-114633658D01*
X169552064Y-114503330D01*
X169562141Y-114479003D01*
X169583454Y-114427547D01*
X169612407Y-114357648D01*
X169643170Y-114202993D01*
X169643170Y-114045309D01*
X169643170Y-114045306D01*
X169643169Y-114045304D01*
X169622772Y-113942761D01*
X169612407Y-113890654D01*
X169592030Y-113841458D01*
X169552067Y-113744978D01*
X169552060Y-113744965D01*
X169464459Y-113613862D01*
X169464456Y-113613858D01*
X169352962Y-113502364D01*
X169352958Y-113502361D01*
X169221855Y-113414760D01*
X169221842Y-113414753D01*
X169076171Y-113354415D01*
X169076159Y-113354412D01*
X168921515Y-113323651D01*
X168921512Y-113323651D01*
X168763828Y-113323651D01*
X168763825Y-113323651D01*
X168609180Y-113354412D01*
X168609168Y-113354415D01*
X168463497Y-113414753D01*
X168463484Y-113414760D01*
X168332381Y-113502361D01*
X168332377Y-113502364D01*
X168220883Y-113613858D01*
X168220880Y-113613862D01*
X168133279Y-113744965D01*
X168133272Y-113744978D01*
X168093310Y-113841458D01*
X168049469Y-113895862D01*
X168002941Y-113915623D01*
X167866508Y-113942761D01*
X167866498Y-113942764D01*
X167720827Y-114003102D01*
X167720814Y-114003109D01*
X167589125Y-114091102D01*
X167571078Y-114096752D01*
X167555169Y-114106977D01*
X167524207Y-114111428D01*
X167522447Y-114111980D01*
X167520234Y-114112000D01*
X167479766Y-114112000D01*
X167412727Y-114092315D01*
X167410875Y-114091102D01*
X167279185Y-114003109D01*
X167279172Y-114003102D01*
X167133501Y-113942764D01*
X167133489Y-113942761D01*
X166978845Y-113912000D01*
X166978842Y-113912000D01*
X166821158Y-113912000D01*
X166821155Y-113912000D01*
X166666510Y-113942761D01*
X166666498Y-113942764D01*
X166520827Y-114003102D01*
X166520814Y-114003109D01*
X166389711Y-114090710D01*
X166389707Y-114090713D01*
X166278213Y-114202207D01*
X166278210Y-114202211D01*
X166190609Y-114333314D01*
X166190602Y-114333327D01*
X166130264Y-114478998D01*
X166130261Y-114479010D01*
X166099500Y-114633653D01*
X166099500Y-114738403D01*
X166079815Y-114805442D01*
X166027011Y-114851197D01*
X165957853Y-114861141D01*
X165894297Y-114832116D01*
X165887819Y-114826084D01*
X164512590Y-113450855D01*
X164512588Y-113450852D01*
X164393717Y-113331981D01*
X164393716Y-113331980D01*
X164359029Y-113311954D01*
X164313419Y-113285621D01*
X164313416Y-113285619D01*
X164306904Y-113281860D01*
X164256785Y-113252923D01*
X164202269Y-113238315D01*
X164194231Y-113234894D01*
X164178581Y-113222030D01*
X164155110Y-113208479D01*
X164147087Y-113200456D01*
X164147083Y-113200453D01*
X164015980Y-113112852D01*
X164015967Y-113112845D01*
X163870296Y-113052507D01*
X163870284Y-113052504D01*
X163715640Y-113021743D01*
X163715637Y-113021743D01*
X163557953Y-113021743D01*
X163557950Y-113021743D01*
X163403305Y-113052504D01*
X163403293Y-113052507D01*
X163257622Y-113112845D01*
X163257609Y-113112852D01*
X163126506Y-113200453D01*
X163126502Y-113200456D01*
X163015008Y-113311950D01*
X163015005Y-113311954D01*
X162927404Y-113443057D01*
X162927397Y-113443070D01*
X162867059Y-113588741D01*
X162867056Y-113588753D01*
X162836295Y-113743396D01*
X155050499Y-113743396D01*
X155050499Y-113502364D01*
X155050499Y-112622129D01*
X155050498Y-112622123D01*
X155050497Y-112622116D01*
X155044091Y-112562517D01*
X154993796Y-112427669D01*
X154914793Y-112322135D01*
X176649500Y-112322135D01*
X176649500Y-114117870D01*
X176649501Y-114117876D01*
X176655908Y-114177483D01*
X176706202Y-114312328D01*
X176706206Y-114312335D01*
X176792452Y-114427544D01*
X176792455Y-114427547D01*
X176907664Y-114513793D01*
X176907671Y-114513797D01*
X177039082Y-114562810D01*
X177095016Y-114604681D01*
X177119433Y-114670145D01*
X177104582Y-114738418D01*
X177083431Y-114766673D01*
X176969889Y-114880215D01*
X176844951Y-115052179D01*
X176748444Y-115241585D01*
X176682753Y-115443760D01*
X176649500Y-115653713D01*
X176649500Y-115866286D01*
X176673550Y-116018136D01*
X176682754Y-116076243D01*
X176728036Y-116215607D01*
X176748444Y-116278414D01*
X176844951Y-116467820D01*
X176969890Y-116639786D01*
X177120213Y-116790109D01*
X177292179Y-116915048D01*
X177292181Y-116915049D01*
X177292184Y-116915051D01*
X177301493Y-116919794D01*
X177352290Y-116967766D01*
X177369087Y-117035587D01*
X177346552Y-117101722D01*
X177301502Y-117140762D01*
X177292443Y-117145378D01*
X177120540Y-117270272D01*
X177120535Y-117270276D01*
X176970276Y-117420535D01*
X176970272Y-117420540D01*
X176845379Y-117592442D01*
X176748904Y-117781782D01*
X176683242Y-117983870D01*
X176683242Y-117983873D01*
X176672769Y-118050000D01*
X177566988Y-118050000D01*
X177534075Y-118107007D01*
X177500000Y-118234174D01*
X177500000Y-118365826D01*
X177534075Y-118492993D01*
X177566988Y-118550000D01*
X176672769Y-118550000D01*
X176683242Y-118616126D01*
X176683242Y-118616129D01*
X176748904Y-118818217D01*
X176845379Y-119007557D01*
X176970272Y-119179459D01*
X176970276Y-119179464D01*
X177120535Y-119329723D01*
X177120540Y-119329727D01*
X177292444Y-119454622D01*
X177302048Y-119459516D01*
X177352844Y-119507491D01*
X177369638Y-119575312D01*
X177347100Y-119641447D01*
X177302048Y-119680484D01*
X177292444Y-119685377D01*
X177120540Y-119810272D01*
X177120535Y-119810276D01*
X176970276Y-119960535D01*
X176970272Y-119960540D01*
X176845379Y-120132442D01*
X176748904Y-120321782D01*
X176683242Y-120523870D01*
X176683242Y-120523873D01*
X176672769Y-120590000D01*
X177566988Y-120590000D01*
X177534075Y-120647007D01*
X177500000Y-120774174D01*
X177500000Y-120905826D01*
X177534075Y-121032993D01*
X177566988Y-121090000D01*
X176672769Y-121090000D01*
X176683242Y-121156126D01*
X176683242Y-121156129D01*
X176748904Y-121358217D01*
X176845379Y-121547557D01*
X176970272Y-121719459D01*
X176970276Y-121719464D01*
X177120535Y-121869723D01*
X177120540Y-121869727D01*
X177292442Y-121994620D01*
X177481782Y-122091095D01*
X177683871Y-122156757D01*
X177750000Y-122167231D01*
X177750000Y-121273012D01*
X177807007Y-121305925D01*
X177934174Y-121340000D01*
X178065826Y-121340000D01*
X178192993Y-121305925D01*
X178250000Y-121273012D01*
X178250000Y-122167230D01*
X178316126Y-122156757D01*
X178316129Y-122156757D01*
X178518217Y-122091095D01*
X178707557Y-121994620D01*
X178879459Y-121869727D01*
X178879464Y-121869723D01*
X179029723Y-121719464D01*
X179029727Y-121719459D01*
X179154620Y-121547557D01*
X179251095Y-121358217D01*
X179316757Y-121156129D01*
X179316757Y-121156126D01*
X179327231Y-121090000D01*
X178433012Y-121090000D01*
X178465925Y-121032993D01*
X178500000Y-120905826D01*
X178500000Y-120774174D01*
X178465925Y-120647007D01*
X178433012Y-120590000D01*
X179327231Y-120590000D01*
X179316757Y-120523873D01*
X179316757Y-120523870D01*
X179251095Y-120321782D01*
X179154620Y-120132442D01*
X179029727Y-119960540D01*
X179029723Y-119960535D01*
X178879464Y-119810276D01*
X178879459Y-119810272D01*
X178707558Y-119685379D01*
X178697954Y-119680486D01*
X178647157Y-119632512D01*
X178630361Y-119564692D01*
X178652897Y-119498556D01*
X178697954Y-119459514D01*
X178707558Y-119454620D01*
X178879459Y-119329727D01*
X178879464Y-119329723D01*
X179029723Y-119179464D01*
X179029727Y-119179459D01*
X179154620Y-119007557D01*
X179251095Y-118818217D01*
X179316757Y-118616129D01*
X179316757Y-118616126D01*
X179327231Y-118550000D01*
X178433012Y-118550000D01*
X178465925Y-118492993D01*
X178500000Y-118365826D01*
X178500000Y-118234174D01*
X178465925Y-118107007D01*
X178433012Y-118050000D01*
X179327231Y-118050000D01*
X179316757Y-117983873D01*
X179316757Y-117983870D01*
X179251095Y-117781782D01*
X179154620Y-117592442D01*
X179029727Y-117420540D01*
X179029723Y-117420535D01*
X178879464Y-117270276D01*
X178879459Y-117270272D01*
X178707555Y-117145377D01*
X178698500Y-117140763D01*
X178647706Y-117092788D01*
X178630912Y-117024966D01*
X178653451Y-116958832D01*
X178698508Y-116919793D01*
X178707816Y-116915051D01*
X178800358Y-116847816D01*
X178879786Y-116790109D01*
X178879788Y-116790106D01*
X178879792Y-116790104D01*
X179030104Y-116639792D01*
X179030106Y-116639788D01*
X179030109Y-116639786D01*
X179155048Y-116467820D01*
X179155047Y-116467820D01*
X179155051Y-116467816D01*
X179251557Y-116278412D01*
X179317246Y-116076243D01*
X179350500Y-115866287D01*
X179350500Y-115653713D01*
X179317246Y-115443757D01*
X179251557Y-115241588D01*
X179155051Y-115052184D01*
X179155049Y-115052181D01*
X179155048Y-115052179D01*
X179030109Y-114880213D01*
X178916569Y-114766673D01*
X178883084Y-114705350D01*
X178888068Y-114635658D01*
X178929940Y-114579725D01*
X178960915Y-114562810D01*
X179092331Y-114513796D01*
X179207546Y-114427546D01*
X179293796Y-114312331D01*
X179344091Y-114177483D01*
X179350500Y-114117873D01*
X179350499Y-112322128D01*
X179344091Y-112262517D01*
X179341626Y-112255909D01*
X179293797Y-112127671D01*
X179293793Y-112127664D01*
X179207547Y-112012455D01*
X179207544Y-112012452D01*
X179092335Y-111926206D01*
X179092328Y-111926202D01*
X178957482Y-111875908D01*
X178957483Y-111875908D01*
X178897883Y-111869501D01*
X178897881Y-111869500D01*
X178897873Y-111869500D01*
X178897864Y-111869500D01*
X177102129Y-111869500D01*
X177102123Y-111869501D01*
X177042516Y-111875908D01*
X176907671Y-111926202D01*
X176907664Y-111926206D01*
X176792455Y-112012452D01*
X176792452Y-112012455D01*
X176706206Y-112127664D01*
X176706202Y-112127671D01*
X176655908Y-112262517D01*
X176650540Y-112312452D01*
X176649501Y-112322123D01*
X176649500Y-112322135D01*
X154914793Y-112322135D01*
X154907546Y-112312454D01*
X154907544Y-112312452D01*
X154792335Y-112226206D01*
X154792328Y-112226202D01*
X154657482Y-112175908D01*
X154657483Y-112175908D01*
X154597883Y-112169501D01*
X154597881Y-112169500D01*
X154597873Y-112169500D01*
X154597864Y-112169500D01*
X152802129Y-112169500D01*
X152802123Y-112169501D01*
X152742516Y-112175908D01*
X152607671Y-112226202D01*
X152607664Y-112226206D01*
X152492455Y-112312452D01*
X152492452Y-112312455D01*
X152406206Y-112427664D01*
X152406202Y-112427671D01*
X152355908Y-112562517D01*
X152349501Y-112622116D01*
X152349501Y-112622123D01*
X152349500Y-112622135D01*
X149136489Y-112622135D01*
X149136486Y-112622128D01*
X149093797Y-112507671D01*
X149093793Y-112507664D01*
X149007547Y-112392455D01*
X149007544Y-112392452D01*
X148892335Y-112306206D01*
X148892328Y-112306202D01*
X148757482Y-112255908D01*
X148757483Y-112255908D01*
X148697883Y-112249501D01*
X148697881Y-112249500D01*
X148697873Y-112249500D01*
X148697864Y-112249500D01*
X146902129Y-112249500D01*
X146902123Y-112249501D01*
X146842516Y-112255908D01*
X146707671Y-112306202D01*
X146707664Y-112306206D01*
X146592455Y-112392452D01*
X146592452Y-112392455D01*
X146506206Y-112507664D01*
X146506202Y-112507671D01*
X146455908Y-112642517D01*
X146449501Y-112702116D01*
X146449501Y-112702123D01*
X146449500Y-112702135D01*
X129100000Y-112702135D01*
X129100000Y-99002135D01*
X132299500Y-99002135D01*
X132299500Y-100797870D01*
X132299501Y-100797876D01*
X132305908Y-100857483D01*
X132356202Y-100992328D01*
X132356206Y-100992335D01*
X132442452Y-101107544D01*
X132442455Y-101107547D01*
X132557664Y-101193793D01*
X132557671Y-101193797D01*
X132689082Y-101242810D01*
X132745016Y-101284681D01*
X132769433Y-101350145D01*
X132754582Y-101418418D01*
X132733431Y-101446673D01*
X132619889Y-101560215D01*
X132494951Y-101732179D01*
X132398444Y-101921585D01*
X132332753Y-102123760D01*
X132299500Y-102333713D01*
X132299500Y-102546286D01*
X132332011Y-102751557D01*
X132332754Y-102756243D01*
X132374712Y-102885377D01*
X132398444Y-102958414D01*
X132494951Y-103147820D01*
X132619890Y-103319786D01*
X132770213Y-103470109D01*
X132942179Y-103595048D01*
X132942181Y-103595049D01*
X132942184Y-103595051D01*
X132951493Y-103599794D01*
X133002290Y-103647766D01*
X133019087Y-103715587D01*
X132996552Y-103781722D01*
X132951502Y-103820762D01*
X132942443Y-103825378D01*
X132770540Y-103950272D01*
X132770535Y-103950276D01*
X132620276Y-104100535D01*
X132620272Y-104100540D01*
X132495379Y-104272442D01*
X132398904Y-104461782D01*
X132333242Y-104663870D01*
X132333242Y-104663873D01*
X132322769Y-104730000D01*
X133216988Y-104730000D01*
X133184075Y-104787007D01*
X133150000Y-104914174D01*
X133150000Y-105045826D01*
X133184075Y-105172993D01*
X133216988Y-105230000D01*
X132322769Y-105230000D01*
X132333242Y-105296126D01*
X132333242Y-105296129D01*
X132398904Y-105498217D01*
X132495379Y-105687557D01*
X132620272Y-105859459D01*
X132620276Y-105859464D01*
X132770535Y-106009723D01*
X132770540Y-106009727D01*
X132942444Y-106134622D01*
X132952048Y-106139516D01*
X133002844Y-106187491D01*
X133019638Y-106255312D01*
X132997100Y-106321447D01*
X132952048Y-106360484D01*
X132942444Y-106365377D01*
X132770540Y-106490272D01*
X132770535Y-106490276D01*
X132620276Y-106640535D01*
X132620272Y-106640540D01*
X132495379Y-106812442D01*
X132398904Y-107001782D01*
X132333242Y-107203870D01*
X132333242Y-107203873D01*
X132322769Y-107270000D01*
X133216988Y-107270000D01*
X133184075Y-107327007D01*
X133150000Y-107454174D01*
X133150000Y-107585826D01*
X133184075Y-107712993D01*
X133216988Y-107770000D01*
X132322769Y-107770000D01*
X132333242Y-107836126D01*
X132333242Y-107836129D01*
X132398904Y-108038217D01*
X132495379Y-108227557D01*
X132620272Y-108399459D01*
X132620276Y-108399464D01*
X132770535Y-108549723D01*
X132770540Y-108549727D01*
X132942442Y-108674620D01*
X133131782Y-108771095D01*
X133333871Y-108836757D01*
X133400000Y-108847231D01*
X133400000Y-107953012D01*
X133457007Y-107985925D01*
X133584174Y-108020000D01*
X133715826Y-108020000D01*
X133842993Y-107985925D01*
X133900000Y-107953012D01*
X133900000Y-108847230D01*
X133966126Y-108836757D01*
X133966129Y-108836757D01*
X134168217Y-108771095D01*
X134357557Y-108674620D01*
X134529459Y-108549727D01*
X134529464Y-108549723D01*
X134679723Y-108399464D01*
X134679727Y-108399459D01*
X134804620Y-108227557D01*
X134901095Y-108038217D01*
X134966757Y-107836129D01*
X134966757Y-107836126D01*
X134977231Y-107770000D01*
X134083012Y-107770000D01*
X134115925Y-107712993D01*
X134150000Y-107585826D01*
X134150000Y-107454174D01*
X134115925Y-107327007D01*
X134083012Y-107270000D01*
X134977231Y-107270000D01*
X134966757Y-107203873D01*
X134966757Y-107203870D01*
X134901095Y-107001782D01*
X134804620Y-106812442D01*
X134679727Y-106640540D01*
X134679723Y-106640535D01*
X134529464Y-106490276D01*
X134529459Y-106490272D01*
X134357558Y-106365379D01*
X134347954Y-106360486D01*
X134297157Y-106312512D01*
X134280361Y-106244692D01*
X134302897Y-106178556D01*
X134347954Y-106139514D01*
X134357558Y-106134620D01*
X134529459Y-106009727D01*
X134529464Y-106009723D01*
X134679723Y-105859464D01*
X134679727Y-105859459D01*
X134804620Y-105687557D01*
X134901095Y-105498217D01*
X134966757Y-105296129D01*
X134966757Y-105296126D01*
X134977231Y-105230000D01*
X134083012Y-105230000D01*
X134115925Y-105172993D01*
X134150000Y-105045826D01*
X134150000Y-104914174D01*
X134115925Y-104787007D01*
X134083012Y-104730000D01*
X134977231Y-104730000D01*
X134966757Y-104663873D01*
X134966757Y-104663870D01*
X134901095Y-104461782D01*
X134804620Y-104272442D01*
X134679727Y-104100540D01*
X134679723Y-104100535D01*
X134529464Y-103950276D01*
X134529459Y-103950272D01*
X134357555Y-103825377D01*
X134348500Y-103820763D01*
X134297706Y-103772788D01*
X134280912Y-103704966D01*
X134303451Y-103638832D01*
X134348508Y-103599793D01*
X134357816Y-103595051D01*
X134458663Y-103521782D01*
X134529786Y-103470109D01*
X134529788Y-103470106D01*
X134529792Y-103470104D01*
X134680104Y-103319792D01*
X134680106Y-103319788D01*
X134680109Y-103319786D01*
X134789086Y-103169789D01*
X134805051Y-103147816D01*
X134901557Y-102958412D01*
X134967246Y-102756243D01*
X135000500Y-102546287D01*
X135000500Y-102333713D01*
X134967246Y-102123757D01*
X134901557Y-101921588D01*
X134805051Y-101732184D01*
X134805049Y-101732181D01*
X134805048Y-101732179D01*
X134680109Y-101560213D01*
X134566569Y-101446673D01*
X134533084Y-101385350D01*
X134538068Y-101315658D01*
X134579940Y-101259725D01*
X134610915Y-101242810D01*
X134742331Y-101193796D01*
X134857546Y-101107546D01*
X134943796Y-100992331D01*
X134994091Y-100857483D01*
X135000500Y-100797873D01*
X135000499Y-99002128D01*
X134994091Y-98942517D01*
X134988920Y-98928654D01*
X134943797Y-98807671D01*
X134943796Y-98807669D01*
X134928508Y-98787247D01*
X134928507Y-98787244D01*
X134857547Y-98692455D01*
X134857544Y-98692452D01*
X134742335Y-98606206D01*
X134742328Y-98606202D01*
X134607482Y-98555908D01*
X134607483Y-98555908D01*
X134547883Y-98549501D01*
X134547881Y-98549500D01*
X134547873Y-98549500D01*
X134547864Y-98549500D01*
X132752129Y-98549500D01*
X132752123Y-98549501D01*
X132692516Y-98555908D01*
X132557671Y-98606202D01*
X132557664Y-98606206D01*
X132442455Y-98692452D01*
X132442452Y-98692455D01*
X132356206Y-98807664D01*
X132356202Y-98807671D01*
X132305908Y-98942517D01*
X132299501Y-99002116D01*
X132299501Y-99002123D01*
X132299500Y-99002135D01*
X129100000Y-99002135D01*
X129100000Y-98250000D01*
X140652769Y-98250000D01*
X141546988Y-98250000D01*
X141514075Y-98307007D01*
X141480000Y-98434174D01*
X141480000Y-98565826D01*
X141514075Y-98692993D01*
X141546988Y-98750000D01*
X140652769Y-98750000D01*
X140663242Y-98816126D01*
X140663242Y-98816129D01*
X140728904Y-99018217D01*
X140825379Y-99207557D01*
X140950272Y-99379459D01*
X140950276Y-99379464D01*
X141100535Y-99529723D01*
X141100540Y-99529727D01*
X141272442Y-99654620D01*
X141461782Y-99751095D01*
X141663871Y-99816757D01*
X141730000Y-99827231D01*
X141730000Y-98933012D01*
X141787007Y-98965925D01*
X141914174Y-99000000D01*
X142045826Y-99000000D01*
X142172993Y-98965925D01*
X142230000Y-98933012D01*
X142230000Y-99827230D01*
X142296126Y-99816757D01*
X142296129Y-99816757D01*
X142498217Y-99751095D01*
X142687557Y-99654620D01*
X142859459Y-99529727D01*
X142859464Y-99529723D01*
X143009723Y-99379464D01*
X143009727Y-99379459D01*
X143134621Y-99207556D01*
X143139513Y-99197956D01*
X143187485Y-99147158D01*
X143255305Y-99130360D01*
X143321441Y-99152894D01*
X143360484Y-99197950D01*
X143365378Y-99207555D01*
X143490273Y-99379459D01*
X143490277Y-99379464D01*
X143640536Y-99529723D01*
X143640541Y-99529727D01*
X143812443Y-99654620D01*
X144001783Y-99751095D01*
X144203872Y-99816757D01*
X144270001Y-99827231D01*
X144270001Y-98933012D01*
X144327008Y-98965925D01*
X144454175Y-99000000D01*
X144585827Y-99000000D01*
X144712994Y-98965925D01*
X144770001Y-98933012D01*
X144770001Y-99827230D01*
X144836127Y-99816757D01*
X144836130Y-99816757D01*
X145038218Y-99751095D01*
X145227558Y-99654620D01*
X145399460Y-99529727D01*
X145399465Y-99529723D01*
X145549724Y-99379464D01*
X145549728Y-99379459D01*
X145674622Y-99207556D01*
X145679231Y-99198511D01*
X145727202Y-99147712D01*
X145795022Y-99130912D01*
X145861158Y-99153446D01*
X145900202Y-99198501D01*
X145904949Y-99207817D01*
X146029890Y-99379786D01*
X146180213Y-99530109D01*
X146352179Y-99655048D01*
X146352181Y-99655049D01*
X146352184Y-99655051D01*
X146541588Y-99751557D01*
X146743757Y-99817246D01*
X146953713Y-99850500D01*
X146953714Y-99850500D01*
X147166286Y-99850500D01*
X147166287Y-99850500D01*
X147376243Y-99817246D01*
X147578412Y-99751557D01*
X147767816Y-99655051D01*
X147898795Y-99559890D01*
X147939784Y-99530110D01*
X147939784Y-99530109D01*
X147939792Y-99530104D01*
X148053329Y-99416566D01*
X148114648Y-99383084D01*
X148184340Y-99388068D01*
X148240274Y-99429939D01*
X148257189Y-99460917D01*
X148306202Y-99592328D01*
X148306206Y-99592335D01*
X148392452Y-99707544D01*
X148392455Y-99707547D01*
X148507664Y-99793793D01*
X148507671Y-99793797D01*
X148642517Y-99844091D01*
X148642516Y-99844091D01*
X148649444Y-99844835D01*
X148702127Y-99850500D01*
X150497872Y-99850499D01*
X150557483Y-99844091D01*
X150692331Y-99793796D01*
X150807546Y-99707546D01*
X150893796Y-99592331D01*
X150944091Y-99457483D01*
X150950500Y-99397873D01*
X150950499Y-98771653D01*
X162124500Y-98771653D01*
X162124500Y-98929346D01*
X162155261Y-99083989D01*
X162155264Y-99084001D01*
X162215602Y-99229672D01*
X162215609Y-99229685D01*
X162303210Y-99360788D01*
X162303213Y-99360792D01*
X162414707Y-99472286D01*
X162414711Y-99472289D01*
X162545814Y-99559890D01*
X162545827Y-99559897D01*
X162691498Y-99620235D01*
X162691503Y-99620237D01*
X162846153Y-99650999D01*
X162846156Y-99651000D01*
X162846158Y-99651000D01*
X163003844Y-99651000D01*
X163003845Y-99650999D01*
X163158497Y-99620237D01*
X163304179Y-99559894D01*
X163331962Y-99541330D01*
X163435875Y-99471898D01*
X163453921Y-99466247D01*
X163469831Y-99456023D01*
X163500792Y-99451571D01*
X163502553Y-99451020D01*
X163504766Y-99451000D01*
X163624903Y-99451000D01*
X163691942Y-99470685D01*
X163712584Y-99487319D01*
X164553890Y-100328625D01*
X164587375Y-100389948D01*
X164582391Y-100459640D01*
X164569312Y-100485196D01*
X164493868Y-100598106D01*
X164493862Y-100598117D01*
X164433524Y-100743788D01*
X164433521Y-100743800D01*
X164402760Y-100898443D01*
X164402760Y-101056136D01*
X164433521Y-101210779D01*
X164433524Y-101210791D01*
X164493862Y-101356462D01*
X164493869Y-101356475D01*
X164581470Y-101487578D01*
X164581473Y-101487582D01*
X164692970Y-101599079D01*
X164777972Y-101655875D01*
X164822777Y-101709487D01*
X164831484Y-101778812D01*
X164801330Y-101841839D01*
X164796763Y-101846658D01*
X164703210Y-101940211D01*
X164615609Y-102071314D01*
X164615602Y-102071327D01*
X164555264Y-102216998D01*
X164555261Y-102217010D01*
X164524500Y-102371653D01*
X164524500Y-102529346D01*
X164555261Y-102683989D01*
X164555264Y-102684001D01*
X164615602Y-102829672D01*
X164615610Y-102829687D01*
X164639759Y-102865827D01*
X164660638Y-102932504D01*
X164660658Y-102934719D01*
X164660658Y-103538495D01*
X164640973Y-103605534D01*
X164639760Y-103607386D01*
X164551767Y-103739075D01*
X164551760Y-103739088D01*
X164491422Y-103884759D01*
X164491419Y-103884771D01*
X164460658Y-104039414D01*
X164460658Y-104197107D01*
X164491419Y-104351750D01*
X164491422Y-104351762D01*
X164551760Y-104497433D01*
X164551767Y-104497446D01*
X164639368Y-104628549D01*
X164639371Y-104628553D01*
X164750865Y-104740047D01*
X164750869Y-104740050D01*
X164881972Y-104827651D01*
X164881985Y-104827658D01*
X164991240Y-104872912D01*
X165027661Y-104887998D01*
X165044491Y-104891345D01*
X165106402Y-104923728D01*
X165134864Y-104965510D01*
X165157459Y-105020059D01*
X165157464Y-105020069D01*
X165245065Y-105151172D01*
X165245068Y-105151176D01*
X165356562Y-105262670D01*
X165356566Y-105262673D01*
X165487669Y-105350274D01*
X165487682Y-105350281D01*
X165562925Y-105381447D01*
X165633358Y-105410621D01*
X165788008Y-105441383D01*
X165788011Y-105441384D01*
X165788013Y-105441384D01*
X165945699Y-105441384D01*
X165945700Y-105441383D01*
X166100352Y-105410621D01*
X166246034Y-105350278D01*
X166377144Y-105262673D01*
X166488644Y-105151173D01*
X166576249Y-105020063D01*
X166636592Y-104874381D01*
X166661819Y-104747557D01*
X166667493Y-104719034D01*
X166699878Y-104657123D01*
X166701370Y-104655603D01*
X167330785Y-104026190D01*
X167392101Y-103919985D01*
X167442667Y-103871771D01*
X167511274Y-103858547D01*
X167576139Y-103884515D01*
X167616668Y-103941429D01*
X167623488Y-103981986D01*
X167623488Y-106062818D01*
X167623487Y-106062836D01*
X167623487Y-106228542D01*
X167623486Y-106228542D01*
X167664411Y-106381273D01*
X167693346Y-106431388D01*
X167693347Y-106431392D01*
X167693348Y-106431392D01*
X167743467Y-106518202D01*
X167743469Y-106518205D01*
X167862337Y-106637073D01*
X167862343Y-106637078D01*
X167888181Y-106662916D01*
X167921666Y-106724239D01*
X167924500Y-106750597D01*
X167924500Y-106970734D01*
X167904815Y-107037773D01*
X167903602Y-107039625D01*
X167815609Y-107171314D01*
X167815602Y-107171327D01*
X167755264Y-107316998D01*
X167755261Y-107317010D01*
X167724500Y-107471653D01*
X167724500Y-107629346D01*
X167755261Y-107783989D01*
X167755264Y-107784001D01*
X167815602Y-107929672D01*
X167815609Y-107929685D01*
X167903210Y-108060788D01*
X167903213Y-108060792D01*
X168014707Y-108172286D01*
X168014711Y-108172289D01*
X168145814Y-108259890D01*
X168145827Y-108259897D01*
X168291498Y-108320235D01*
X168291503Y-108320237D01*
X168446153Y-108350999D01*
X168446156Y-108351000D01*
X168446158Y-108351000D01*
X168603844Y-108351000D01*
X168603845Y-108350999D01*
X168758497Y-108320237D01*
X168904179Y-108259894D01*
X169035289Y-108172289D01*
X169146789Y-108060789D01*
X169234394Y-107929679D01*
X169294737Y-107783997D01*
X169325500Y-107629342D01*
X169325500Y-107471658D01*
X169325500Y-107471655D01*
X169325499Y-107471653D01*
X169294738Y-107317010D01*
X169294737Y-107317003D01*
X169251655Y-107212993D01*
X169234397Y-107171327D01*
X169234390Y-107171314D01*
X169146398Y-107039625D01*
X169140747Y-107021578D01*
X169130523Y-107005669D01*
X169126071Y-106974707D01*
X169125520Y-106972947D01*
X169125500Y-106970734D01*
X169125500Y-106371445D01*
X169125499Y-106371441D01*
X169123874Y-106365377D01*
X169099121Y-106272993D01*
X169093124Y-106250610D01*
X169093124Y-106250609D01*
X169084579Y-106218720D01*
X169084576Y-106218714D01*
X169050392Y-106159505D01*
X169050392Y-106159504D01*
X169005524Y-106081790D01*
X169005521Y-106081786D01*
X169005520Y-106081784D01*
X168893716Y-105969980D01*
X168893715Y-105969979D01*
X168889385Y-105965649D01*
X168889374Y-105965639D01*
X168860807Y-105937072D01*
X168827322Y-105875749D01*
X168824488Y-105849391D01*
X168824488Y-104978497D01*
X169423498Y-104978497D01*
X169464423Y-105131228D01*
X169478596Y-105155776D01*
X169478595Y-105155776D01*
X169478596Y-105155777D01*
X169543475Y-105268152D01*
X169543481Y-105268160D01*
X169771715Y-105496394D01*
X169805200Y-105557717D01*
X169805651Y-105559883D01*
X169830261Y-105683603D01*
X169830264Y-105683613D01*
X169890602Y-105829284D01*
X169890609Y-105829297D01*
X169978210Y-105960400D01*
X169978213Y-105960404D01*
X170089707Y-106071898D01*
X170089711Y-106071901D01*
X170220814Y-106159502D01*
X170220827Y-106159509D01*
X170288383Y-106187491D01*
X170366503Y-106219849D01*
X170521143Y-106250609D01*
X170521153Y-106250611D01*
X170521156Y-106250612D01*
X170521158Y-106250612D01*
X170678844Y-106250612D01*
X170678845Y-106250611D01*
X170833497Y-106219849D01*
X170979179Y-106159506D01*
X171110289Y-106071901D01*
X171221789Y-105960401D01*
X171309394Y-105829291D01*
X171369737Y-105683609D01*
X171400500Y-105528954D01*
X171400500Y-105371270D01*
X171400500Y-105371267D01*
X171400499Y-105371265D01*
X171379988Y-105268152D01*
X171369737Y-105216615D01*
X171369735Y-105216610D01*
X171333005Y-105127935D01*
X171329725Y-105097432D01*
X171324276Y-105067229D01*
X171325825Y-105061158D01*
X171325536Y-105058466D01*
X171333005Y-105033031D01*
X171334392Y-105029681D01*
X171334394Y-105029679D01*
X171352771Y-104985310D01*
X171379648Y-104945085D01*
X172539662Y-103785072D01*
X172600983Y-103751589D01*
X172603150Y-103751138D01*
X172676582Y-103736531D01*
X172758497Y-103720237D01*
X172904179Y-103659894D01*
X172934101Y-103639901D01*
X173035291Y-103572288D01*
X173035292Y-103572286D01*
X173146786Y-103460792D01*
X173146789Y-103460789D01*
X173234394Y-103329679D01*
X173294737Y-103183997D01*
X173325500Y-103029342D01*
X173325500Y-102871658D01*
X173325500Y-102871655D01*
X173325499Y-102871653D01*
X173319545Y-102841722D01*
X173294737Y-102717003D01*
X173290911Y-102707766D01*
X173234397Y-102571327D01*
X173234390Y-102571314D01*
X173146789Y-102440211D01*
X173146786Y-102440207D01*
X173035292Y-102328713D01*
X173035288Y-102328710D01*
X172904185Y-102241109D01*
X172904172Y-102241102D01*
X172758501Y-102180764D01*
X172758489Y-102180761D01*
X172603845Y-102150000D01*
X172603842Y-102150000D01*
X172446158Y-102150000D01*
X172446155Y-102150000D01*
X172291510Y-102180761D01*
X172291498Y-102180764D01*
X172145827Y-102241102D01*
X172145814Y-102241109D01*
X172014711Y-102328710D01*
X172014707Y-102328713D01*
X171898903Y-102444518D01*
X171897027Y-102442642D01*
X171848701Y-102475482D01*
X171778855Y-102477274D01*
X171719127Y-102441020D01*
X171707624Y-102426331D01*
X171650079Y-102340210D01*
X171650076Y-102340206D01*
X171538582Y-102228712D01*
X171538578Y-102228709D01*
X171407475Y-102141108D01*
X171407462Y-102141101D01*
X171261791Y-102080763D01*
X171261779Y-102080760D01*
X171107135Y-102049999D01*
X171107132Y-102049999D01*
X170949448Y-102049999D01*
X170949445Y-102049999D01*
X170794800Y-102080760D01*
X170794788Y-102080763D01*
X170649117Y-102141101D01*
X170649104Y-102141108D01*
X170518001Y-102228709D01*
X170517997Y-102228712D01*
X170406503Y-102340206D01*
X170406500Y-102340210D01*
X170318899Y-102471313D01*
X170318892Y-102471326D01*
X170258554Y-102616997D01*
X170258551Y-102617007D01*
X170227652Y-102772347D01*
X170195267Y-102834258D01*
X170193716Y-102835836D01*
X169655286Y-103374267D01*
X169543481Y-103486071D01*
X169543475Y-103486079D01*
X169493704Y-103572287D01*
X169493704Y-103572288D01*
X169464423Y-103623003D01*
X169464423Y-103623004D01*
X169423499Y-103775732D01*
X169423499Y-103933846D01*
X169423499Y-103933848D01*
X169423500Y-103943847D01*
X169423500Y-104812773D01*
X169423499Y-104812791D01*
X169423499Y-104978497D01*
X169423498Y-104978497D01*
X168824488Y-104978497D01*
X168824488Y-103451608D01*
X168844173Y-103384569D01*
X168860803Y-103363931D01*
X169079914Y-103144820D01*
X169079917Y-103144819D01*
X169191721Y-103033015D01*
X169215863Y-102991197D01*
X169224393Y-102981653D01*
X169226113Y-102980584D01*
X169229165Y-102976606D01*
X169332990Y-102872782D01*
X169420595Y-102741672D01*
X169480938Y-102595990D01*
X169511701Y-102441335D01*
X169511701Y-102283651D01*
X169511701Y-102283648D01*
X169511700Y-102283646D01*
X169483347Y-102141108D01*
X169480938Y-102128996D01*
X169478768Y-102123757D01*
X169420598Y-101983320D01*
X169420591Y-101983307D01*
X169332990Y-101852204D01*
X169332987Y-101852200D01*
X169221493Y-101740706D01*
X169221489Y-101740703D01*
X169090386Y-101653102D01*
X169090373Y-101653095D01*
X168944702Y-101592757D01*
X168944690Y-101592754D01*
X168790046Y-101561993D01*
X168790043Y-101561993D01*
X168632359Y-101561993D01*
X168632356Y-101561993D01*
X168477711Y-101592754D01*
X168477696Y-101592758D01*
X168470451Y-101595759D01*
X168400981Y-101603222D01*
X168338504Y-101571941D01*
X168302857Y-101511849D01*
X168302369Y-101452518D01*
X168304656Y-101442896D01*
X168319002Y-101408262D01*
X168349765Y-101253607D01*
X168349765Y-101253124D01*
X168350881Y-101248430D01*
X168367122Y-101219997D01*
X168382288Y-101191004D01*
X168383781Y-101189483D01*
X169223190Y-100350076D01*
X169302247Y-100213144D01*
X169343171Y-100060417D01*
X169343171Y-99902302D01*
X169343171Y-99894707D01*
X169343170Y-99894689D01*
X169343170Y-99741916D01*
X169362855Y-99674877D01*
X169364068Y-99673025D01*
X169364982Y-99671658D01*
X169452064Y-99541330D01*
X169456712Y-99530110D01*
X169474436Y-99487319D01*
X169512407Y-99395648D01*
X169543170Y-99240993D01*
X169543170Y-99083309D01*
X169543170Y-99083306D01*
X169543169Y-99083304D01*
X169527021Y-99002123D01*
X169512407Y-98928654D01*
X169492030Y-98879458D01*
X169452067Y-98782978D01*
X169452060Y-98782965D01*
X169364459Y-98651862D01*
X169364456Y-98651858D01*
X169252962Y-98540364D01*
X169252958Y-98540361D01*
X169121855Y-98452760D01*
X169121842Y-98452753D01*
X168976171Y-98392415D01*
X168976159Y-98392412D01*
X168821515Y-98361651D01*
X168821512Y-98361651D01*
X168663828Y-98361651D01*
X168663825Y-98361651D01*
X168509180Y-98392412D01*
X168509168Y-98392415D01*
X168363497Y-98452753D01*
X168363484Y-98452760D01*
X168232381Y-98540361D01*
X168232377Y-98540364D01*
X168120883Y-98651858D01*
X168120880Y-98651862D01*
X168033279Y-98782965D01*
X168033272Y-98782978D01*
X167993310Y-98879458D01*
X167949469Y-98933862D01*
X167902941Y-98953623D01*
X167766508Y-98980761D01*
X167766498Y-98980764D01*
X167620827Y-99041102D01*
X167620814Y-99041109D01*
X167489125Y-99129102D01*
X167471078Y-99134752D01*
X167455169Y-99144977D01*
X167424207Y-99149428D01*
X167422447Y-99149980D01*
X167420234Y-99150000D01*
X167379766Y-99150000D01*
X167312727Y-99130315D01*
X167310875Y-99129102D01*
X167179185Y-99041109D01*
X167179172Y-99041102D01*
X167033501Y-98980764D01*
X167033489Y-98980761D01*
X166878845Y-98950000D01*
X166878842Y-98950000D01*
X166721158Y-98950000D01*
X166721155Y-98950000D01*
X166566510Y-98980761D01*
X166566498Y-98980764D01*
X166420827Y-99041102D01*
X166420814Y-99041109D01*
X166289711Y-99128710D01*
X166289707Y-99128713D01*
X166178213Y-99240207D01*
X166178210Y-99240211D01*
X166090609Y-99371314D01*
X166090602Y-99371327D01*
X166030264Y-99516998D01*
X166030261Y-99517010D01*
X165999500Y-99671653D01*
X165999500Y-99776403D01*
X165979815Y-99843442D01*
X165927011Y-99889197D01*
X165857853Y-99899141D01*
X165794297Y-99870116D01*
X165787819Y-99864084D01*
X164412590Y-98488855D01*
X164412588Y-98488852D01*
X164293717Y-98369981D01*
X164293716Y-98369980D01*
X164206904Y-98319860D01*
X164206904Y-98319859D01*
X164206900Y-98319858D01*
X164156785Y-98290923D01*
X164004057Y-98249999D01*
X163845943Y-98249999D01*
X163838347Y-98249999D01*
X163838331Y-98250000D01*
X163504766Y-98250000D01*
X163486622Y-98244672D01*
X163467713Y-98244335D01*
X163439495Y-98230834D01*
X163437727Y-98230315D01*
X163435875Y-98229102D01*
X163335312Y-98161908D01*
X163304184Y-98141109D01*
X163304172Y-98141102D01*
X163158501Y-98080764D01*
X163158489Y-98080761D01*
X163064851Y-98062135D01*
X176649500Y-98062135D01*
X176649500Y-99857870D01*
X176649501Y-99857876D01*
X176655908Y-99917483D01*
X176706202Y-100052328D01*
X176706206Y-100052335D01*
X176792452Y-100167544D01*
X176792455Y-100167547D01*
X176907664Y-100253793D01*
X176907671Y-100253797D01*
X177039082Y-100302810D01*
X177095016Y-100344681D01*
X177119433Y-100410145D01*
X177104582Y-100478418D01*
X177083431Y-100506673D01*
X176969889Y-100620215D01*
X176844951Y-100792179D01*
X176748444Y-100981585D01*
X176682753Y-101183760D01*
X176649500Y-101393713D01*
X176649500Y-101606286D01*
X176679635Y-101796554D01*
X176682754Y-101816243D01*
X176694438Y-101852204D01*
X176748444Y-102018414D01*
X176844951Y-102207820D01*
X176969890Y-102379786D01*
X177120213Y-102530109D01*
X177292179Y-102655048D01*
X177292181Y-102655049D01*
X177292184Y-102655051D01*
X177301493Y-102659794D01*
X177352290Y-102707766D01*
X177369087Y-102775587D01*
X177346552Y-102841722D01*
X177301502Y-102880762D01*
X177292443Y-102885378D01*
X177120540Y-103010272D01*
X177120535Y-103010276D01*
X176970276Y-103160535D01*
X176970272Y-103160540D01*
X176845379Y-103332442D01*
X176748904Y-103521782D01*
X176683242Y-103723870D01*
X176683242Y-103723873D01*
X176672769Y-103790000D01*
X177566988Y-103790000D01*
X177534075Y-103847007D01*
X177500000Y-103974174D01*
X177500000Y-104105826D01*
X177534075Y-104232993D01*
X177566988Y-104290000D01*
X176672769Y-104290000D01*
X176683242Y-104356126D01*
X176683242Y-104356129D01*
X176748904Y-104558217D01*
X176845379Y-104747557D01*
X176970272Y-104919459D01*
X176970276Y-104919464D01*
X177120535Y-105069723D01*
X177120540Y-105069727D01*
X177292444Y-105194622D01*
X177302048Y-105199516D01*
X177352844Y-105247491D01*
X177369638Y-105315312D01*
X177347100Y-105381447D01*
X177302048Y-105420484D01*
X177292444Y-105425377D01*
X177120540Y-105550272D01*
X177120535Y-105550276D01*
X176970276Y-105700535D01*
X176970272Y-105700540D01*
X176845379Y-105872442D01*
X176748904Y-106061782D01*
X176683242Y-106263870D01*
X176683242Y-106263873D01*
X176672769Y-106330000D01*
X177566988Y-106330000D01*
X177534075Y-106387007D01*
X177500000Y-106514174D01*
X177500000Y-106645826D01*
X177534075Y-106772993D01*
X177566988Y-106830000D01*
X176672769Y-106830000D01*
X176683242Y-106896126D01*
X176683242Y-106896129D01*
X176748904Y-107098217D01*
X176845379Y-107287557D01*
X176970272Y-107459459D01*
X176970276Y-107459464D01*
X177120535Y-107609723D01*
X177120540Y-107609727D01*
X177292442Y-107734620D01*
X177481782Y-107831095D01*
X177683871Y-107896757D01*
X177750000Y-107907231D01*
X177750000Y-107013012D01*
X177807007Y-107045925D01*
X177934174Y-107080000D01*
X178065826Y-107080000D01*
X178192993Y-107045925D01*
X178250000Y-107013012D01*
X178250000Y-107907230D01*
X178316126Y-107896757D01*
X178316129Y-107896757D01*
X178518217Y-107831095D01*
X178707557Y-107734620D01*
X178879459Y-107609727D01*
X178879464Y-107609723D01*
X179029723Y-107459464D01*
X179029727Y-107459459D01*
X179154620Y-107287557D01*
X179251095Y-107098217D01*
X179316757Y-106896129D01*
X179316757Y-106896126D01*
X179327231Y-106830000D01*
X178433012Y-106830000D01*
X178465925Y-106772993D01*
X178500000Y-106645826D01*
X178500000Y-106514174D01*
X178465925Y-106387007D01*
X178433012Y-106330000D01*
X179327231Y-106330000D01*
X179316757Y-106263873D01*
X179316757Y-106263870D01*
X179251095Y-106061782D01*
X179154620Y-105872442D01*
X179029727Y-105700540D01*
X179029723Y-105700535D01*
X178879464Y-105550276D01*
X178879459Y-105550272D01*
X178707558Y-105425379D01*
X178697954Y-105420486D01*
X178647157Y-105372512D01*
X178630361Y-105304692D01*
X178652897Y-105238556D01*
X178697954Y-105199514D01*
X178707558Y-105194620D01*
X178879459Y-105069727D01*
X178879464Y-105069723D01*
X179029723Y-104919464D01*
X179029727Y-104919459D01*
X179154620Y-104747557D01*
X179251095Y-104558217D01*
X179316757Y-104356129D01*
X179316757Y-104356126D01*
X179327231Y-104290000D01*
X178433012Y-104290000D01*
X178465925Y-104232993D01*
X178500000Y-104105826D01*
X178500000Y-103974174D01*
X178465925Y-103847007D01*
X178433012Y-103790000D01*
X179327231Y-103790000D01*
X179316757Y-103723873D01*
X179316757Y-103723870D01*
X179251095Y-103521782D01*
X179154620Y-103332442D01*
X179029727Y-103160540D01*
X179029723Y-103160535D01*
X178879464Y-103010276D01*
X178879459Y-103010272D01*
X178707555Y-102885377D01*
X178698500Y-102880763D01*
X178647706Y-102832788D01*
X178630912Y-102764966D01*
X178653451Y-102698832D01*
X178698508Y-102659793D01*
X178707816Y-102655051D01*
X178823053Y-102571327D01*
X178879786Y-102530109D01*
X178879788Y-102530106D01*
X178879792Y-102530104D01*
X179030104Y-102379792D01*
X179030106Y-102379788D01*
X179030109Y-102379786D01*
X179155048Y-102207820D01*
X179155047Y-102207820D01*
X179155051Y-102207816D01*
X179251557Y-102018412D01*
X179317246Y-101816243D01*
X179350500Y-101606287D01*
X179350500Y-101393713D01*
X179317246Y-101183757D01*
X179251557Y-100981588D01*
X179155051Y-100792184D01*
X179155049Y-100792181D01*
X179155048Y-100792179D01*
X179030109Y-100620213D01*
X178916569Y-100506673D01*
X178883084Y-100445350D01*
X178888068Y-100375658D01*
X178929940Y-100319725D01*
X178960915Y-100302810D01*
X179092331Y-100253796D01*
X179207546Y-100167546D01*
X179293796Y-100052331D01*
X179344091Y-99917483D01*
X179350500Y-99857873D01*
X179350499Y-98062128D01*
X179344091Y-98002517D01*
X179343152Y-98000000D01*
X179293797Y-97867671D01*
X179293793Y-97867664D01*
X179207547Y-97752455D01*
X179207544Y-97752452D01*
X179092335Y-97666206D01*
X179092328Y-97666202D01*
X178957482Y-97615908D01*
X178957483Y-97615908D01*
X178897883Y-97609501D01*
X178897881Y-97609500D01*
X178897873Y-97609500D01*
X178897864Y-97609500D01*
X177102129Y-97609500D01*
X177102123Y-97609501D01*
X177042516Y-97615908D01*
X176907671Y-97666202D01*
X176907664Y-97666206D01*
X176792455Y-97752452D01*
X176792452Y-97752455D01*
X176706206Y-97867664D01*
X176706202Y-97867671D01*
X176655908Y-98002517D01*
X176649501Y-98062116D01*
X176649501Y-98062123D01*
X176649500Y-98062135D01*
X163064851Y-98062135D01*
X163003845Y-98050000D01*
X163003842Y-98050000D01*
X162846158Y-98050000D01*
X162846155Y-98050000D01*
X162691510Y-98080761D01*
X162691498Y-98080764D01*
X162545827Y-98141102D01*
X162545814Y-98141109D01*
X162414711Y-98228710D01*
X162414707Y-98228713D01*
X162303213Y-98340207D01*
X162303210Y-98340211D01*
X162215609Y-98471314D01*
X162215602Y-98471327D01*
X162155264Y-98616998D01*
X162155261Y-98617010D01*
X162124500Y-98771653D01*
X150950499Y-98771653D01*
X150950499Y-98488855D01*
X150950499Y-97602129D01*
X150950498Y-97602123D01*
X150944091Y-97542516D01*
X150893797Y-97407671D01*
X150893793Y-97407664D01*
X150807547Y-97292455D01*
X150807544Y-97292452D01*
X150692335Y-97206206D01*
X150692328Y-97206202D01*
X150557482Y-97155908D01*
X150557483Y-97155908D01*
X150497883Y-97149501D01*
X150497881Y-97149500D01*
X150497873Y-97149500D01*
X150497864Y-97149500D01*
X148702129Y-97149500D01*
X148702123Y-97149501D01*
X148642516Y-97155908D01*
X148507671Y-97206202D01*
X148507664Y-97206206D01*
X148392455Y-97292452D01*
X148392452Y-97292455D01*
X148306206Y-97407664D01*
X148306203Y-97407669D01*
X148257189Y-97539083D01*
X148215317Y-97595016D01*
X148149853Y-97619433D01*
X148081580Y-97604581D01*
X148053326Y-97583430D01*
X147939786Y-97469890D01*
X147767820Y-97344951D01*
X147578414Y-97248444D01*
X147578413Y-97248443D01*
X147578412Y-97248443D01*
X147376243Y-97182754D01*
X147376241Y-97182753D01*
X147376240Y-97182753D01*
X147214957Y-97157208D01*
X147166287Y-97149500D01*
X146953713Y-97149500D01*
X146905042Y-97157208D01*
X146743760Y-97182753D01*
X146541585Y-97248444D01*
X146352179Y-97344951D01*
X146180213Y-97469890D01*
X146029890Y-97620213D01*
X145904950Y-97792181D01*
X145900201Y-97801501D01*
X145852223Y-97852294D01*
X145784402Y-97869086D01*
X145718268Y-97846545D01*
X145679232Y-97801491D01*
X145674621Y-97792441D01*
X145549728Y-97620540D01*
X145549724Y-97620535D01*
X145399465Y-97470276D01*
X145399460Y-97470272D01*
X145227558Y-97345379D01*
X145038216Y-97248903D01*
X144836125Y-97183241D01*
X144770001Y-97172768D01*
X144770001Y-98066988D01*
X144712994Y-98034075D01*
X144585827Y-98000000D01*
X144454175Y-98000000D01*
X144327008Y-98034075D01*
X144270001Y-98066988D01*
X144270001Y-97172768D01*
X144270000Y-97172768D01*
X144203876Y-97183241D01*
X144001785Y-97248903D01*
X143812443Y-97345379D01*
X143640541Y-97470272D01*
X143640536Y-97470276D01*
X143490277Y-97620535D01*
X143490273Y-97620540D01*
X143365379Y-97792442D01*
X143360483Y-97802052D01*
X143312506Y-97852846D01*
X143244685Y-97869639D01*
X143178551Y-97847099D01*
X143139514Y-97802046D01*
X143134620Y-97792441D01*
X143009727Y-97620540D01*
X143009723Y-97620535D01*
X142859464Y-97470276D01*
X142859459Y-97470272D01*
X142687557Y-97345379D01*
X142498215Y-97248903D01*
X142296124Y-97183241D01*
X142230000Y-97172768D01*
X142230000Y-98066988D01*
X142172993Y-98034075D01*
X142045826Y-98000000D01*
X141914174Y-98000000D01*
X141787007Y-98034075D01*
X141730000Y-98066988D01*
X141730000Y-97172768D01*
X141729999Y-97172768D01*
X141663875Y-97183241D01*
X141461784Y-97248903D01*
X141272442Y-97345379D01*
X141100540Y-97470272D01*
X141100535Y-97470276D01*
X140950276Y-97620535D01*
X140950272Y-97620540D01*
X140825379Y-97792442D01*
X140728904Y-97981782D01*
X140663242Y-98183870D01*
X140663242Y-98183873D01*
X140652769Y-98250000D01*
X129100000Y-98250000D01*
X129100000Y-82902135D01*
X146449500Y-82902135D01*
X146449500Y-84697870D01*
X146449501Y-84697876D01*
X146455908Y-84757483D01*
X146506202Y-84892328D01*
X146506206Y-84892335D01*
X146592452Y-85007544D01*
X146592455Y-85007547D01*
X146707664Y-85093793D01*
X146707671Y-85093797D01*
X146839082Y-85142810D01*
X146895016Y-85184681D01*
X146919433Y-85250145D01*
X146904582Y-85318418D01*
X146883431Y-85346673D01*
X146769889Y-85460215D01*
X146644951Y-85632179D01*
X146548444Y-85821585D01*
X146482753Y-86023760D01*
X146449500Y-86233713D01*
X146449500Y-86446286D01*
X146479718Y-86637079D01*
X146482754Y-86656243D01*
X146544503Y-86846287D01*
X146548444Y-86858414D01*
X146644951Y-87047820D01*
X146769890Y-87219786D01*
X146920213Y-87370109D01*
X147092179Y-87495048D01*
X147092181Y-87495049D01*
X147092184Y-87495051D01*
X147101493Y-87499794D01*
X147152290Y-87547766D01*
X147169087Y-87615587D01*
X147146552Y-87681722D01*
X147101502Y-87720762D01*
X147092443Y-87725378D01*
X146920540Y-87850272D01*
X146920535Y-87850276D01*
X146770276Y-88000535D01*
X146770272Y-88000540D01*
X146645379Y-88172442D01*
X146548904Y-88361782D01*
X146483242Y-88563870D01*
X146483242Y-88563873D01*
X146472769Y-88630000D01*
X147366988Y-88630000D01*
X147334075Y-88687007D01*
X147300000Y-88814174D01*
X147300000Y-88945826D01*
X147334075Y-89072993D01*
X147366988Y-89130000D01*
X146472769Y-89130000D01*
X146483242Y-89196126D01*
X146483242Y-89196129D01*
X146548904Y-89398217D01*
X146645379Y-89587557D01*
X146770272Y-89759459D01*
X146770276Y-89759464D01*
X146920535Y-89909723D01*
X146920540Y-89909727D01*
X147092444Y-90034622D01*
X147102048Y-90039516D01*
X147152844Y-90087491D01*
X147169638Y-90155312D01*
X147147100Y-90221447D01*
X147102048Y-90260484D01*
X147092444Y-90265377D01*
X146920540Y-90390272D01*
X146920535Y-90390276D01*
X146770276Y-90540535D01*
X146770272Y-90540540D01*
X146645379Y-90712442D01*
X146548904Y-90901782D01*
X146483242Y-91103870D01*
X146483242Y-91103873D01*
X146472769Y-91170000D01*
X147366988Y-91170000D01*
X147334075Y-91227007D01*
X147300000Y-91354174D01*
X147300000Y-91485826D01*
X147334075Y-91612993D01*
X147366988Y-91670000D01*
X146472769Y-91670000D01*
X146483242Y-91736126D01*
X146483242Y-91736129D01*
X146548904Y-91938217D01*
X146645379Y-92127557D01*
X146770272Y-92299459D01*
X146770276Y-92299464D01*
X146920535Y-92449723D01*
X146920540Y-92449727D01*
X147092442Y-92574620D01*
X147281782Y-92671095D01*
X147483871Y-92736757D01*
X147550000Y-92747231D01*
X147550000Y-91853012D01*
X147607007Y-91885925D01*
X147734174Y-91920000D01*
X147865826Y-91920000D01*
X147992993Y-91885925D01*
X148050000Y-91853012D01*
X148050000Y-92747230D01*
X148116126Y-92736757D01*
X148116129Y-92736757D01*
X148318217Y-92671095D01*
X148507557Y-92574620D01*
X148679459Y-92449727D01*
X148679464Y-92449723D01*
X148829723Y-92299464D01*
X148829727Y-92299459D01*
X148954620Y-92127557D01*
X149051095Y-91938217D01*
X149116757Y-91736129D01*
X149116757Y-91736126D01*
X149127231Y-91670000D01*
X148233012Y-91670000D01*
X148265925Y-91612993D01*
X148300000Y-91485826D01*
X148300000Y-91354174D01*
X148265925Y-91227007D01*
X148233012Y-91170000D01*
X149127231Y-91170000D01*
X149116757Y-91103873D01*
X149116757Y-91103870D01*
X149051095Y-90901782D01*
X148954620Y-90712442D01*
X148829727Y-90540540D01*
X148829723Y-90540535D01*
X148679464Y-90390276D01*
X148679459Y-90390272D01*
X148507558Y-90265379D01*
X148497954Y-90260486D01*
X148447157Y-90212512D01*
X148430361Y-90144692D01*
X148452897Y-90078556D01*
X148497954Y-90039514D01*
X148507558Y-90034620D01*
X148679459Y-89909727D01*
X148679464Y-89909723D01*
X148829723Y-89759464D01*
X148829727Y-89759459D01*
X148954620Y-89587557D01*
X149051095Y-89398217D01*
X149116757Y-89196129D01*
X149116757Y-89196126D01*
X149127231Y-89130000D01*
X148233012Y-89130000D01*
X148265925Y-89072993D01*
X148300000Y-88945826D01*
X148300000Y-88814174D01*
X148265925Y-88687007D01*
X148233012Y-88630000D01*
X149127231Y-88630000D01*
X149116757Y-88563873D01*
X149116757Y-88563870D01*
X149051095Y-88361782D01*
X148954620Y-88172442D01*
X148829727Y-88000540D01*
X148829723Y-88000535D01*
X148679464Y-87850276D01*
X148679459Y-87850272D01*
X148507555Y-87725377D01*
X148498500Y-87720763D01*
X148447706Y-87672788D01*
X148430912Y-87604966D01*
X148453451Y-87538832D01*
X148498508Y-87499793D01*
X148507816Y-87495051D01*
X148593022Y-87433146D01*
X148679786Y-87370109D01*
X148679788Y-87370106D01*
X148679792Y-87370104D01*
X148830104Y-87219792D01*
X148830106Y-87219788D01*
X148830109Y-87219786D01*
X148955048Y-87047820D01*
X148955047Y-87047820D01*
X148955051Y-87047816D01*
X149051557Y-86858412D01*
X149117246Y-86656243D01*
X149150500Y-86446287D01*
X149150500Y-86233713D01*
X149117246Y-86023757D01*
X149051557Y-85821588D01*
X148955051Y-85632184D01*
X148955049Y-85632181D01*
X148955048Y-85632179D01*
X148830109Y-85460213D01*
X148716569Y-85346673D01*
X148683084Y-85285350D01*
X148688068Y-85215658D01*
X148729940Y-85159725D01*
X148760915Y-85142810D01*
X148892331Y-85093796D01*
X149007546Y-85007546D01*
X149093796Y-84892331D01*
X149144091Y-84757483D01*
X149150500Y-84697873D01*
X149150499Y-82902128D01*
X149144091Y-82842517D01*
X149129029Y-82802135D01*
X152349500Y-82802135D01*
X152349500Y-84597870D01*
X152349501Y-84597876D01*
X152355908Y-84657483D01*
X152406202Y-84792328D01*
X152406206Y-84792335D01*
X152492452Y-84907544D01*
X152492455Y-84907547D01*
X152607664Y-84993793D01*
X152607671Y-84993797D01*
X152739082Y-85042810D01*
X152795016Y-85084681D01*
X152819433Y-85150145D01*
X152804582Y-85218418D01*
X152783431Y-85246673D01*
X152669889Y-85360215D01*
X152544951Y-85532179D01*
X152448444Y-85721585D01*
X152382753Y-85923760D01*
X152363085Y-86047943D01*
X152349500Y-86133713D01*
X152349500Y-86346287D01*
X152351718Y-86360291D01*
X152365338Y-86446287D01*
X152382754Y-86556243D01*
X152446594Y-86752722D01*
X152448444Y-86758414D01*
X152544951Y-86947820D01*
X152669890Y-87119786D01*
X152820213Y-87270109D01*
X152992179Y-87395048D01*
X152992181Y-87395049D01*
X152992184Y-87395051D01*
X153001493Y-87399794D01*
X153052290Y-87447766D01*
X153069087Y-87515587D01*
X153046552Y-87581722D01*
X153001502Y-87620762D01*
X152992443Y-87625378D01*
X152820540Y-87750272D01*
X152820535Y-87750276D01*
X152670276Y-87900535D01*
X152670272Y-87900540D01*
X152545379Y-88072442D01*
X152448904Y-88261782D01*
X152383242Y-88463870D01*
X152383242Y-88463873D01*
X152372769Y-88530000D01*
X153266988Y-88530000D01*
X153234075Y-88587007D01*
X153200000Y-88714174D01*
X153200000Y-88845826D01*
X153234075Y-88972993D01*
X153266988Y-89030000D01*
X152372769Y-89030000D01*
X152383242Y-89096126D01*
X152383242Y-89096129D01*
X152448904Y-89298217D01*
X152545379Y-89487557D01*
X152670272Y-89659459D01*
X152670276Y-89659464D01*
X152820535Y-89809723D01*
X152820540Y-89809727D01*
X152992444Y-89934622D01*
X153002048Y-89939516D01*
X153052844Y-89987491D01*
X153069638Y-90055312D01*
X153047100Y-90121447D01*
X153002048Y-90160484D01*
X152992444Y-90165377D01*
X152820540Y-90290272D01*
X152820535Y-90290276D01*
X152670276Y-90440535D01*
X152670272Y-90440540D01*
X152545379Y-90612442D01*
X152448904Y-90801782D01*
X152383242Y-91003870D01*
X152383242Y-91003873D01*
X152372769Y-91070000D01*
X153266988Y-91070000D01*
X153234075Y-91127007D01*
X153200000Y-91254174D01*
X153200000Y-91385826D01*
X153234075Y-91512993D01*
X153266988Y-91570000D01*
X152372769Y-91570000D01*
X152383242Y-91636126D01*
X152383242Y-91636129D01*
X152448904Y-91838217D01*
X152545379Y-92027557D01*
X152670272Y-92199459D01*
X152670276Y-92199464D01*
X152820535Y-92349723D01*
X152820540Y-92349727D01*
X152992442Y-92474620D01*
X153181782Y-92571095D01*
X153383871Y-92636757D01*
X153450000Y-92647231D01*
X153450000Y-91753012D01*
X153507007Y-91785925D01*
X153634174Y-91820000D01*
X153765826Y-91820000D01*
X153892993Y-91785925D01*
X153950000Y-91753012D01*
X153950000Y-92647230D01*
X154016126Y-92636757D01*
X154016129Y-92636757D01*
X154218217Y-92571095D01*
X154407557Y-92474620D01*
X154579459Y-92349727D01*
X154579464Y-92349723D01*
X154729723Y-92199464D01*
X154729727Y-92199459D01*
X154854620Y-92027557D01*
X154951095Y-91838217D01*
X155016757Y-91636129D01*
X155016757Y-91636126D01*
X155027231Y-91570000D01*
X154133012Y-91570000D01*
X154165925Y-91512993D01*
X154200000Y-91385826D01*
X154200000Y-91254174D01*
X154165925Y-91127007D01*
X154133012Y-91070000D01*
X155027231Y-91070000D01*
X155016757Y-91003873D01*
X155016757Y-91003870D01*
X154951095Y-90801782D01*
X154854620Y-90612442D01*
X154729727Y-90440540D01*
X154729723Y-90440535D01*
X154579464Y-90290276D01*
X154579459Y-90290272D01*
X154407558Y-90165379D01*
X154397954Y-90160486D01*
X154347157Y-90112512D01*
X154330361Y-90044692D01*
X154352897Y-89978556D01*
X154397954Y-89939514D01*
X154407558Y-89934620D01*
X154579459Y-89809727D01*
X154579464Y-89809723D01*
X154729723Y-89659464D01*
X154729727Y-89659459D01*
X154854620Y-89487557D01*
X154951095Y-89298217D01*
X155016757Y-89096129D01*
X155016757Y-89096126D01*
X155027231Y-89030000D01*
X154133012Y-89030000D01*
X154165925Y-88972993D01*
X154200000Y-88845826D01*
X154200000Y-88714174D01*
X154165925Y-88587007D01*
X154133012Y-88530000D01*
X155027231Y-88530000D01*
X155016757Y-88463873D01*
X155016757Y-88463870D01*
X154951095Y-88261782D01*
X154854620Y-88072442D01*
X154729727Y-87900540D01*
X154729723Y-87900535D01*
X154579464Y-87750276D01*
X154579459Y-87750272D01*
X154407555Y-87625377D01*
X154398500Y-87620763D01*
X154347706Y-87572788D01*
X154330912Y-87504966D01*
X154353451Y-87438832D01*
X154398508Y-87399793D01*
X154407816Y-87395051D01*
X154496990Y-87330263D01*
X154579786Y-87270109D01*
X154579788Y-87270106D01*
X154579792Y-87270104D01*
X154730104Y-87119792D01*
X154730106Y-87119788D01*
X154730109Y-87119786D01*
X154855048Y-86947820D01*
X154855047Y-86947820D01*
X154855051Y-86947816D01*
X154951557Y-86758412D01*
X155017246Y-86556243D01*
X155050500Y-86346287D01*
X155050500Y-86133713D01*
X155017246Y-85923757D01*
X154951557Y-85721588D01*
X154855051Y-85532184D01*
X154855049Y-85532181D01*
X154855048Y-85532179D01*
X154730109Y-85360213D01*
X154616569Y-85246673D01*
X154583084Y-85185350D01*
X154588068Y-85115658D01*
X154629940Y-85059725D01*
X154660915Y-85042810D01*
X154792331Y-84993796D01*
X154907546Y-84907546D01*
X154993796Y-84792331D01*
X155044091Y-84657483D01*
X155050500Y-84597873D01*
X155050499Y-83921153D01*
X162199500Y-83921153D01*
X162199500Y-84078846D01*
X162230261Y-84233489D01*
X162230264Y-84233501D01*
X162290602Y-84379172D01*
X162290609Y-84379185D01*
X162378210Y-84510288D01*
X162378213Y-84510292D01*
X162489707Y-84621786D01*
X162489711Y-84621789D01*
X162620814Y-84709390D01*
X162620827Y-84709397D01*
X162736919Y-84757483D01*
X162766503Y-84769737D01*
X162921153Y-84800499D01*
X162921156Y-84800500D01*
X162921158Y-84800500D01*
X163078844Y-84800500D01*
X163078845Y-84800499D01*
X163233497Y-84769737D01*
X163379179Y-84709394D01*
X163379185Y-84709390D01*
X163510875Y-84621398D01*
X163528921Y-84615747D01*
X163544831Y-84605523D01*
X163575792Y-84601071D01*
X163577553Y-84600520D01*
X163579766Y-84600500D01*
X163699903Y-84600500D01*
X163766942Y-84620185D01*
X163787584Y-84636819D01*
X164628890Y-85478125D01*
X164662375Y-85539448D01*
X164657391Y-85609140D01*
X164644312Y-85634696D01*
X164568868Y-85747606D01*
X164568862Y-85747617D01*
X164508524Y-85893288D01*
X164508521Y-85893300D01*
X164477760Y-86047943D01*
X164477760Y-86205636D01*
X164508521Y-86360279D01*
X164508524Y-86360291D01*
X164568862Y-86505962D01*
X164568869Y-86505975D01*
X164656470Y-86637078D01*
X164656473Y-86637082D01*
X164767970Y-86748579D01*
X164852972Y-86805375D01*
X164897777Y-86858987D01*
X164906484Y-86928312D01*
X164876330Y-86991339D01*
X164871763Y-86996158D01*
X164778210Y-87089711D01*
X164690609Y-87220814D01*
X164690602Y-87220827D01*
X164630264Y-87366498D01*
X164630261Y-87366510D01*
X164599500Y-87521153D01*
X164599500Y-87678846D01*
X164630261Y-87833489D01*
X164630264Y-87833501D01*
X164690602Y-87979172D01*
X164690610Y-87979187D01*
X164714759Y-88015327D01*
X164735638Y-88082004D01*
X164735658Y-88084219D01*
X164735658Y-88687995D01*
X164715973Y-88755034D01*
X164714760Y-88756886D01*
X164626767Y-88888575D01*
X164626760Y-88888588D01*
X164566422Y-89034259D01*
X164566419Y-89034271D01*
X164535658Y-89188914D01*
X164535658Y-89346607D01*
X164566419Y-89501250D01*
X164566422Y-89501262D01*
X164626760Y-89646933D01*
X164626767Y-89646946D01*
X164714368Y-89778049D01*
X164714371Y-89778053D01*
X164825865Y-89889547D01*
X164825869Y-89889550D01*
X164956972Y-89977151D01*
X164956985Y-89977158D01*
X165066240Y-90022412D01*
X165102661Y-90037498D01*
X165119491Y-90040845D01*
X165181402Y-90073228D01*
X165209864Y-90115010D01*
X165232459Y-90169559D01*
X165232464Y-90169569D01*
X165320065Y-90300672D01*
X165320068Y-90300676D01*
X165431562Y-90412170D01*
X165431566Y-90412173D01*
X165562669Y-90499774D01*
X165562682Y-90499781D01*
X165696748Y-90555312D01*
X165708358Y-90560121D01*
X165863008Y-90590883D01*
X165863011Y-90590884D01*
X165863013Y-90590884D01*
X166020699Y-90590884D01*
X166020700Y-90590883D01*
X166175352Y-90560121D01*
X166321034Y-90499778D01*
X166452144Y-90412173D01*
X166563644Y-90300673D01*
X166651249Y-90169563D01*
X166711592Y-90023881D01*
X166734300Y-89909723D01*
X166742493Y-89868534D01*
X166774878Y-89806623D01*
X166776370Y-89805103D01*
X167405785Y-89175690D01*
X167467101Y-89069485D01*
X167517667Y-89021271D01*
X167586274Y-89008047D01*
X167651139Y-89034015D01*
X167691668Y-89090929D01*
X167698488Y-89131486D01*
X167698488Y-91212318D01*
X167698487Y-91212336D01*
X167698487Y-91378042D01*
X167698486Y-91378042D01*
X167704400Y-91400112D01*
X167739411Y-91530773D01*
X167762059Y-91570000D01*
X167768346Y-91580888D01*
X167768347Y-91580892D01*
X167768348Y-91580892D01*
X167818467Y-91667702D01*
X167818469Y-91667705D01*
X167937337Y-91786573D01*
X167937343Y-91786578D01*
X167963181Y-91812416D01*
X167996666Y-91873739D01*
X167999500Y-91900097D01*
X167999500Y-92120234D01*
X167979815Y-92187273D01*
X167978602Y-92189125D01*
X167890609Y-92320814D01*
X167890602Y-92320827D01*
X167830264Y-92466498D01*
X167830261Y-92466510D01*
X167799500Y-92621153D01*
X167799500Y-92778846D01*
X167830261Y-92933489D01*
X167830264Y-92933501D01*
X167890602Y-93079172D01*
X167890609Y-93079185D01*
X167978210Y-93210288D01*
X167978213Y-93210292D01*
X168089707Y-93321786D01*
X168089711Y-93321789D01*
X168220814Y-93409390D01*
X168220827Y-93409397D01*
X168366498Y-93469735D01*
X168366503Y-93469737D01*
X168521153Y-93500499D01*
X168521156Y-93500500D01*
X168521158Y-93500500D01*
X168678844Y-93500500D01*
X168678845Y-93500499D01*
X168833497Y-93469737D01*
X168979179Y-93409394D01*
X169110289Y-93321789D01*
X169221789Y-93210289D01*
X169309394Y-93079179D01*
X169312743Y-93071095D01*
X169369735Y-92933501D01*
X169369737Y-92933497D01*
X169400500Y-92778842D01*
X169400500Y-92621158D01*
X169400500Y-92621155D01*
X169400499Y-92621153D01*
X169381881Y-92527557D01*
X169369737Y-92466503D01*
X169362787Y-92449723D01*
X169309397Y-92320827D01*
X169309390Y-92320814D01*
X169221398Y-92189125D01*
X169215747Y-92171078D01*
X169205523Y-92155169D01*
X169201071Y-92124207D01*
X169200520Y-92122447D01*
X169200500Y-92120234D01*
X169200500Y-91520945D01*
X169200499Y-91520941D01*
X169198369Y-91512993D01*
X169185473Y-91464862D01*
X169168124Y-91400110D01*
X169168124Y-91400109D01*
X169159579Y-91368220D01*
X169159576Y-91368214D01*
X169125392Y-91309005D01*
X169125392Y-91309004D01*
X169080524Y-91231290D01*
X169080521Y-91231286D01*
X169080520Y-91231284D01*
X168968716Y-91119480D01*
X168968715Y-91119479D01*
X168964385Y-91115149D01*
X168964374Y-91115139D01*
X168935807Y-91086572D01*
X168902322Y-91025249D01*
X168899488Y-90998891D01*
X168899488Y-90127997D01*
X169498498Y-90127997D01*
X169539423Y-90280728D01*
X169553596Y-90305276D01*
X169553595Y-90305276D01*
X169553596Y-90305277D01*
X169618475Y-90417652D01*
X169618481Y-90417660D01*
X169846715Y-90645894D01*
X169880200Y-90707217D01*
X169880651Y-90709383D01*
X169905261Y-90833103D01*
X169905264Y-90833113D01*
X169965602Y-90978784D01*
X169965609Y-90978797D01*
X170053210Y-91109900D01*
X170053213Y-91109904D01*
X170164707Y-91221398D01*
X170164711Y-91221401D01*
X170295814Y-91309002D01*
X170295827Y-91309009D01*
X170404628Y-91354075D01*
X170441503Y-91369349D01*
X170596143Y-91400109D01*
X170596153Y-91400111D01*
X170596156Y-91400112D01*
X170596158Y-91400112D01*
X170753844Y-91400112D01*
X170753845Y-91400111D01*
X170908497Y-91369349D01*
X171054179Y-91309006D01*
X171185289Y-91221401D01*
X171296789Y-91109901D01*
X171384394Y-90978791D01*
X171444737Y-90833109D01*
X171475500Y-90678454D01*
X171475500Y-90520770D01*
X171475500Y-90520767D01*
X171475499Y-90520765D01*
X171458364Y-90434622D01*
X171444737Y-90366115D01*
X171419537Y-90305276D01*
X171408005Y-90277435D01*
X171404725Y-90246932D01*
X171399276Y-90216729D01*
X171400825Y-90210658D01*
X171400536Y-90207966D01*
X171408005Y-90182531D01*
X171409392Y-90179181D01*
X171409394Y-90179179D01*
X171427771Y-90134810D01*
X171454648Y-90094585D01*
X172614662Y-88934572D01*
X172675983Y-88901089D01*
X172678150Y-88900638D01*
X172751582Y-88886031D01*
X172833497Y-88869737D01*
X172979179Y-88809394D01*
X173034390Y-88772503D01*
X173110291Y-88721788D01*
X173110292Y-88721786D01*
X173221786Y-88610292D01*
X173221789Y-88610289D01*
X173309394Y-88479179D01*
X173369737Y-88333497D01*
X173400500Y-88178842D01*
X173400500Y-88021158D01*
X173400500Y-88021155D01*
X173400499Y-88021153D01*
X173394612Y-87991557D01*
X173369737Y-87866503D01*
X173328316Y-87766502D01*
X173309397Y-87720827D01*
X173309390Y-87720814D01*
X173221789Y-87589711D01*
X173221786Y-87589707D01*
X173110292Y-87478213D01*
X173110288Y-87478210D01*
X172979185Y-87390609D01*
X172979172Y-87390602D01*
X172833501Y-87330264D01*
X172833489Y-87330261D01*
X172678845Y-87299500D01*
X172678842Y-87299500D01*
X172521158Y-87299500D01*
X172521155Y-87299500D01*
X172366510Y-87330261D01*
X172366498Y-87330264D01*
X172220827Y-87390602D01*
X172220814Y-87390609D01*
X172089711Y-87478210D01*
X172089707Y-87478213D01*
X171973903Y-87594018D01*
X171972027Y-87592142D01*
X171923701Y-87624982D01*
X171853855Y-87626774D01*
X171794127Y-87590520D01*
X171782624Y-87575831D01*
X171725079Y-87489710D01*
X171725076Y-87489706D01*
X171613582Y-87378212D01*
X171613578Y-87378209D01*
X171482475Y-87290608D01*
X171482462Y-87290601D01*
X171336791Y-87230263D01*
X171336779Y-87230260D01*
X171182135Y-87199499D01*
X171182132Y-87199499D01*
X171024448Y-87199499D01*
X171024445Y-87199499D01*
X170869800Y-87230260D01*
X170869788Y-87230263D01*
X170724117Y-87290601D01*
X170724104Y-87290608D01*
X170593001Y-87378209D01*
X170592997Y-87378212D01*
X170481503Y-87489706D01*
X170481500Y-87489710D01*
X170393899Y-87620813D01*
X170393892Y-87620826D01*
X170333554Y-87766497D01*
X170333551Y-87766507D01*
X170302652Y-87921847D01*
X170270267Y-87983758D01*
X170268716Y-87985336D01*
X169730286Y-88523767D01*
X169618481Y-88635571D01*
X169618475Y-88635579D01*
X169568704Y-88721787D01*
X169568704Y-88721788D01*
X169539423Y-88772503D01*
X169539423Y-88772504D01*
X169498499Y-88925232D01*
X169498499Y-89083346D01*
X169498499Y-89083348D01*
X169498500Y-89093347D01*
X169498500Y-89962273D01*
X169498499Y-89962291D01*
X169498499Y-90127997D01*
X169498498Y-90127997D01*
X168899488Y-90127997D01*
X168899488Y-88601108D01*
X168919173Y-88534069D01*
X168935803Y-88513431D01*
X169154914Y-88294320D01*
X169154917Y-88294319D01*
X169266721Y-88182515D01*
X169290863Y-88140697D01*
X169299393Y-88131153D01*
X169301113Y-88130084D01*
X169304165Y-88126106D01*
X169407990Y-88022282D01*
X169495595Y-87891172D01*
X169555938Y-87745490D01*
X169586701Y-87590835D01*
X169586701Y-87433151D01*
X169586701Y-87433148D01*
X169586700Y-87433146D01*
X169558347Y-87290608D01*
X169555938Y-87278496D01*
X169547619Y-87258412D01*
X169495598Y-87132820D01*
X169495591Y-87132807D01*
X169407990Y-87001704D01*
X169407987Y-87001700D01*
X169296493Y-86890206D01*
X169296489Y-86890203D01*
X169165386Y-86802602D01*
X169165373Y-86802595D01*
X169019702Y-86742257D01*
X169019690Y-86742254D01*
X168865046Y-86711493D01*
X168865043Y-86711493D01*
X168707359Y-86711493D01*
X168707356Y-86711493D01*
X168552711Y-86742254D01*
X168552696Y-86742258D01*
X168545451Y-86745259D01*
X168475981Y-86752722D01*
X168413504Y-86721441D01*
X168377857Y-86661349D01*
X168377369Y-86602018D01*
X168379656Y-86592396D01*
X168394002Y-86557762D01*
X168424765Y-86403107D01*
X168424765Y-86402624D01*
X168425881Y-86397930D01*
X168442122Y-86369497D01*
X168457288Y-86340504D01*
X168458781Y-86338983D01*
X169298190Y-85499576D01*
X169377247Y-85362644D01*
X169418171Y-85209917D01*
X169418171Y-85051802D01*
X169418171Y-85044207D01*
X169418170Y-85044189D01*
X169418170Y-84891416D01*
X169437855Y-84824377D01*
X169439068Y-84822525D01*
X169439982Y-84821158D01*
X169527064Y-84690830D01*
X169537141Y-84666503D01*
X169549436Y-84636819D01*
X169587407Y-84545148D01*
X169618170Y-84390493D01*
X169618170Y-84232809D01*
X169618170Y-84232806D01*
X169618169Y-84232804D01*
X169597772Y-84130261D01*
X169587407Y-84078154D01*
X169567030Y-84028958D01*
X169527067Y-83932478D01*
X169527060Y-83932465D01*
X169439459Y-83801362D01*
X169439456Y-83801358D01*
X169327962Y-83689864D01*
X169327958Y-83689861D01*
X169196855Y-83602260D01*
X169196842Y-83602253D01*
X169051171Y-83541915D01*
X169051159Y-83541912D01*
X168896515Y-83511151D01*
X168896512Y-83511151D01*
X168738828Y-83511151D01*
X168738825Y-83511151D01*
X168584180Y-83541912D01*
X168584168Y-83541915D01*
X168438497Y-83602253D01*
X168438484Y-83602260D01*
X168307381Y-83689861D01*
X168307377Y-83689864D01*
X168195883Y-83801358D01*
X168195880Y-83801362D01*
X168108279Y-83932465D01*
X168108272Y-83932478D01*
X168068310Y-84028958D01*
X168024469Y-84083362D01*
X167977941Y-84103123D01*
X167841508Y-84130261D01*
X167841498Y-84130264D01*
X167695827Y-84190602D01*
X167695814Y-84190609D01*
X167564125Y-84278602D01*
X167546078Y-84284252D01*
X167530169Y-84294477D01*
X167499207Y-84298928D01*
X167497447Y-84299480D01*
X167495234Y-84299500D01*
X167454766Y-84299500D01*
X167387727Y-84279815D01*
X167385875Y-84278602D01*
X167254185Y-84190609D01*
X167254172Y-84190602D01*
X167108501Y-84130264D01*
X167108489Y-84130261D01*
X166953845Y-84099500D01*
X166953842Y-84099500D01*
X166796158Y-84099500D01*
X166796155Y-84099500D01*
X166641510Y-84130261D01*
X166641498Y-84130264D01*
X166495827Y-84190602D01*
X166495814Y-84190609D01*
X166364711Y-84278210D01*
X166364707Y-84278213D01*
X166253213Y-84389707D01*
X166253210Y-84389711D01*
X166165609Y-84520814D01*
X166165602Y-84520827D01*
X166105264Y-84666498D01*
X166105261Y-84666510D01*
X166074500Y-84821153D01*
X166074500Y-84925903D01*
X166054815Y-84992942D01*
X166002011Y-85038697D01*
X165932853Y-85048641D01*
X165869297Y-85019616D01*
X165862819Y-85013584D01*
X164487590Y-83638355D01*
X164487588Y-83638352D01*
X164368717Y-83519481D01*
X164368716Y-83519480D01*
X164281904Y-83469360D01*
X164231785Y-83440423D01*
X164079057Y-83399499D01*
X163920943Y-83399499D01*
X163913347Y-83399499D01*
X163913331Y-83399500D01*
X163579766Y-83399500D01*
X163512727Y-83379815D01*
X163510875Y-83378602D01*
X163396435Y-83302135D01*
X176449500Y-83302135D01*
X176449500Y-85097870D01*
X176449501Y-85097876D01*
X176455908Y-85157483D01*
X176506202Y-85292328D01*
X176506206Y-85292335D01*
X176592452Y-85407544D01*
X176592455Y-85407547D01*
X176707664Y-85493793D01*
X176707671Y-85493797D01*
X176839082Y-85542810D01*
X176895016Y-85584681D01*
X176919433Y-85650145D01*
X176904582Y-85718418D01*
X176883431Y-85746673D01*
X176769889Y-85860215D01*
X176644951Y-86032179D01*
X176548444Y-86221585D01*
X176482753Y-86423760D01*
X176454520Y-86602018D01*
X176449500Y-86633713D01*
X176449500Y-86846287D01*
X176459534Y-86909644D01*
X176473067Y-86995086D01*
X176482754Y-87056243D01*
X176539296Y-87230262D01*
X176548444Y-87258414D01*
X176644951Y-87447820D01*
X176769890Y-87619786D01*
X176920213Y-87770109D01*
X177092179Y-87895048D01*
X177092181Y-87895049D01*
X177092184Y-87895051D01*
X177101493Y-87899794D01*
X177152290Y-87947766D01*
X177169087Y-88015587D01*
X177146552Y-88081722D01*
X177101502Y-88120762D01*
X177092443Y-88125378D01*
X176920540Y-88250272D01*
X176920535Y-88250276D01*
X176770276Y-88400535D01*
X176770272Y-88400540D01*
X176645379Y-88572442D01*
X176548904Y-88761782D01*
X176483242Y-88963870D01*
X176483242Y-88963873D01*
X176472769Y-89030000D01*
X177366988Y-89030000D01*
X177334075Y-89087007D01*
X177300000Y-89214174D01*
X177300000Y-89345826D01*
X177334075Y-89472993D01*
X177366988Y-89530000D01*
X176472769Y-89530000D01*
X176483242Y-89596126D01*
X176483242Y-89596129D01*
X176548904Y-89798217D01*
X176645379Y-89987557D01*
X176770272Y-90159459D01*
X176770276Y-90159464D01*
X176920535Y-90309723D01*
X176920540Y-90309727D01*
X177092444Y-90434622D01*
X177102048Y-90439516D01*
X177152844Y-90487491D01*
X177169638Y-90555312D01*
X177147100Y-90621447D01*
X177102048Y-90660484D01*
X177092444Y-90665377D01*
X176920540Y-90790272D01*
X176920535Y-90790276D01*
X176770276Y-90940535D01*
X176770272Y-90940540D01*
X176645379Y-91112442D01*
X176548904Y-91301782D01*
X176483242Y-91503870D01*
X176483242Y-91503873D01*
X176472769Y-91570000D01*
X177366988Y-91570000D01*
X177334075Y-91627007D01*
X177300000Y-91754174D01*
X177300000Y-91885826D01*
X177334075Y-92012993D01*
X177366988Y-92070000D01*
X176472769Y-92070000D01*
X176483242Y-92136126D01*
X176483242Y-92136129D01*
X176548904Y-92338217D01*
X176645379Y-92527557D01*
X176770272Y-92699459D01*
X176770276Y-92699464D01*
X176920535Y-92849723D01*
X176920540Y-92849727D01*
X177092442Y-92974620D01*
X177281782Y-93071095D01*
X177483871Y-93136757D01*
X177550000Y-93147231D01*
X177550000Y-92253012D01*
X177607007Y-92285925D01*
X177734174Y-92320000D01*
X177865826Y-92320000D01*
X177992993Y-92285925D01*
X178050000Y-92253012D01*
X178050000Y-93147230D01*
X178116126Y-93136757D01*
X178116129Y-93136757D01*
X178318217Y-93071095D01*
X178507557Y-92974620D01*
X178679459Y-92849727D01*
X178679464Y-92849723D01*
X178829723Y-92699464D01*
X178829727Y-92699459D01*
X178954620Y-92527557D01*
X179051095Y-92338217D01*
X179116757Y-92136129D01*
X179116757Y-92136126D01*
X179127231Y-92070000D01*
X178233012Y-92070000D01*
X178265925Y-92012993D01*
X178300000Y-91885826D01*
X178300000Y-91754174D01*
X178265925Y-91627007D01*
X178233012Y-91570000D01*
X179127231Y-91570000D01*
X179116757Y-91503873D01*
X179116757Y-91503870D01*
X179051095Y-91301782D01*
X178954620Y-91112442D01*
X178829727Y-90940540D01*
X178829723Y-90940535D01*
X178679464Y-90790276D01*
X178679459Y-90790272D01*
X178507558Y-90665379D01*
X178497954Y-90660486D01*
X178447157Y-90612512D01*
X178430361Y-90544692D01*
X178452897Y-90478556D01*
X178497954Y-90439514D01*
X178507558Y-90434620D01*
X178679459Y-90309727D01*
X178679464Y-90309723D01*
X178829723Y-90159464D01*
X178829727Y-90159459D01*
X178954620Y-89987557D01*
X179051095Y-89798217D01*
X179116757Y-89596129D01*
X179116757Y-89596126D01*
X179127231Y-89530000D01*
X178233012Y-89530000D01*
X178265925Y-89472993D01*
X178300000Y-89345826D01*
X178300000Y-89214174D01*
X178265925Y-89087007D01*
X178233012Y-89030000D01*
X179127231Y-89030000D01*
X179116757Y-88963873D01*
X179116757Y-88963870D01*
X179051095Y-88761782D01*
X178954620Y-88572442D01*
X178829727Y-88400540D01*
X178829723Y-88400535D01*
X178679464Y-88250276D01*
X178679459Y-88250272D01*
X178507555Y-88125377D01*
X178498500Y-88120763D01*
X178447706Y-88072788D01*
X178430912Y-88004966D01*
X178453451Y-87938832D01*
X178498508Y-87899793D01*
X178507816Y-87895051D01*
X178592549Y-87833489D01*
X178679786Y-87770109D01*
X178679788Y-87770106D01*
X178679792Y-87770104D01*
X178830104Y-87619792D01*
X178830106Y-87619788D01*
X178830109Y-87619786D01*
X178955048Y-87447820D01*
X178955047Y-87447820D01*
X178955051Y-87447816D01*
X179051557Y-87258412D01*
X179117246Y-87056243D01*
X179150500Y-86846287D01*
X179150500Y-86633713D01*
X179117246Y-86423757D01*
X179051557Y-86221588D01*
X178955051Y-86032184D01*
X178955049Y-86032181D01*
X178955048Y-86032179D01*
X178830109Y-85860213D01*
X178716569Y-85746673D01*
X178683084Y-85685350D01*
X178688068Y-85615658D01*
X178729940Y-85559725D01*
X178760915Y-85542810D01*
X178892331Y-85493796D01*
X179007546Y-85407546D01*
X179093796Y-85292331D01*
X179144091Y-85157483D01*
X179150500Y-85097873D01*
X179150499Y-83302128D01*
X179144091Y-83242517D01*
X179093796Y-83107669D01*
X179093795Y-83107668D01*
X179093793Y-83107664D01*
X179007547Y-82992455D01*
X179007544Y-82992452D01*
X178892335Y-82906206D01*
X178892328Y-82906202D01*
X178757482Y-82855908D01*
X178757483Y-82855908D01*
X178697883Y-82849501D01*
X178697881Y-82849500D01*
X178697873Y-82849500D01*
X178697864Y-82849500D01*
X176902129Y-82849500D01*
X176902123Y-82849501D01*
X176842516Y-82855908D01*
X176707671Y-82906202D01*
X176707664Y-82906206D01*
X176592455Y-82992452D01*
X176592452Y-82992455D01*
X176506206Y-83107664D01*
X176506202Y-83107671D01*
X176455908Y-83242517D01*
X176450738Y-83290609D01*
X176449501Y-83302123D01*
X176449500Y-83302135D01*
X163396435Y-83302135D01*
X163379185Y-83290609D01*
X163379172Y-83290602D01*
X163233501Y-83230264D01*
X163233489Y-83230261D01*
X163078845Y-83199500D01*
X163078842Y-83199500D01*
X162921158Y-83199500D01*
X162921155Y-83199500D01*
X162766510Y-83230261D01*
X162766498Y-83230264D01*
X162620827Y-83290602D01*
X162620814Y-83290609D01*
X162489711Y-83378210D01*
X162489707Y-83378213D01*
X162378213Y-83489707D01*
X162378210Y-83489711D01*
X162290609Y-83620814D01*
X162290602Y-83620827D01*
X162230264Y-83766498D01*
X162230261Y-83766510D01*
X162199500Y-83921153D01*
X155050499Y-83921153D01*
X155050499Y-83689864D01*
X155050499Y-82802129D01*
X155050498Y-82802123D01*
X155050497Y-82802116D01*
X155044091Y-82742517D01*
X155031094Y-82707671D01*
X154993797Y-82607671D01*
X154993793Y-82607664D01*
X154907547Y-82492455D01*
X154907544Y-82492452D01*
X154792335Y-82406206D01*
X154792328Y-82406202D01*
X154657482Y-82355908D01*
X154657483Y-82355908D01*
X154597883Y-82349501D01*
X154597881Y-82349500D01*
X154597873Y-82349500D01*
X154597864Y-82349500D01*
X152802129Y-82349500D01*
X152802123Y-82349501D01*
X152742516Y-82355908D01*
X152607671Y-82406202D01*
X152607664Y-82406206D01*
X152492455Y-82492452D01*
X152492452Y-82492455D01*
X152406206Y-82607664D01*
X152406202Y-82607671D01*
X152355908Y-82742517D01*
X152349501Y-82802116D01*
X152349501Y-82802123D01*
X152349500Y-82802135D01*
X149129029Y-82802135D01*
X149129022Y-82802116D01*
X149093797Y-82707671D01*
X149093793Y-82707664D01*
X149007547Y-82592455D01*
X149007544Y-82592452D01*
X148892335Y-82506206D01*
X148892328Y-82506202D01*
X148757482Y-82455908D01*
X148757483Y-82455908D01*
X148697883Y-82449501D01*
X148697881Y-82449500D01*
X148697873Y-82449500D01*
X148697864Y-82449500D01*
X146902129Y-82449500D01*
X146902123Y-82449501D01*
X146842516Y-82455908D01*
X146707671Y-82506202D01*
X146707664Y-82506206D01*
X146592455Y-82592452D01*
X146592452Y-82592455D01*
X146506206Y-82707664D01*
X146506202Y-82707671D01*
X146455908Y-82842517D01*
X146449501Y-82902116D01*
X146449501Y-82902123D01*
X146449500Y-82902135D01*
X129100000Y-82902135D01*
X129100000Y-81794181D01*
X129119685Y-81727142D01*
X129172489Y-81681387D01*
X129241647Y-81671443D01*
X129305203Y-81700468D01*
X129311681Y-81706500D01*
X129397915Y-81792734D01*
X129608711Y-81960838D01*
X129837003Y-82104284D01*
X130079921Y-82221267D01*
X130271049Y-82288145D01*
X130334397Y-82310312D01*
X130334405Y-82310315D01*
X130334408Y-82310315D01*
X130334409Y-82310316D01*
X130597268Y-82370312D01*
X130865187Y-82400499D01*
X130865188Y-82400500D01*
X130865191Y-82400500D01*
X131134812Y-82400500D01*
X131134812Y-82400499D01*
X131402732Y-82370312D01*
X131665591Y-82310316D01*
X131920079Y-82221267D01*
X132162997Y-82104284D01*
X132391289Y-81960838D01*
X132602085Y-81792734D01*
X132792734Y-81602085D01*
X132960838Y-81391289D01*
X133104284Y-81162997D01*
X133221267Y-80920079D01*
X133310316Y-80665591D01*
X133370312Y-80402732D01*
X133400500Y-80134809D01*
X133400500Y-79865191D01*
X133370312Y-79597268D01*
X133310316Y-79334409D01*
X133221267Y-79079921D01*
X133104284Y-78837003D01*
X132960838Y-78608711D01*
X132792734Y-78397915D01*
X132606500Y-78211681D01*
X132573015Y-78150358D01*
X132577999Y-78080666D01*
X132619871Y-78024733D01*
X132685335Y-78000316D01*
X132694181Y-78000000D01*
X179305819Y-78000000D01*
X179372858Y-78019685D01*
G37*
%TD.AperFunction*%
%TD*%
%TA.AperFunction,NonConductor*%
G36*
X183143039Y-78019685D02*
G01*
X183188794Y-78072489D01*
X183200000Y-78124000D01*
X183200000Y-78558921D01*
X183180315Y-78625960D01*
X183127511Y-78671715D01*
X183058353Y-78681659D01*
X182994797Y-78652634D01*
X182971006Y-78624893D01*
X182969252Y-78622103D01*
X182960838Y-78608711D01*
X182792734Y-78397915D01*
X182606500Y-78211681D01*
X182573015Y-78150358D01*
X182577999Y-78080666D01*
X182619871Y-78024733D01*
X182685335Y-78000316D01*
X182694181Y-78000000D01*
X183076000Y-78000000D01*
X183143039Y-78019685D01*
G37*
%TD.AperFunction*%
M02*
