%TF.GenerationSoftware,KiCad,Pcbnew,9.0.0*%
%TF.CreationDate,2025-03-10T20:15:45-07:00*%
%TF.ProjectId,RTW_production_pathfinder_V1,5254575f-7072-46f6-9475-6374696f6e5f,rev?*%
%TF.SameCoordinates,Original*%
%TF.FileFunction,Soldermask,Bot*%
%TF.FilePolarity,Negative*%
%FSLAX46Y46*%
G04 Gerber Fmt 4.6, Leading zero omitted, Abs format (unit mm)*
G04 Created by KiCad (PCBNEW 9.0.0) date 2025-03-10 20:15:45*
%MOMM*%
%LPD*%
G01*
G04 APERTURE LIST*
%ADD10C,3.800000*%
%ADD11O,1.700000X1.700000*%
%ADD12R,1.700000X1.700000*%
G04 APERTURE END LIST*
D10*
%TO.C,H4*%
X181000000Y-125000000D03*
%TD*%
%TO.C,H3*%
X131000000Y-125000000D03*
%TD*%
%TO.C,H2*%
X131000000Y-80000000D03*
%TD*%
%TO.C,H1*%
X181000000Y-80000000D03*
%TD*%
D11*
%TO.C,J12*%
X141920000Y-98500000D03*
X144460000Y-98500000D03*
X147000000Y-98500000D03*
D12*
X149540000Y-98500000D03*
%TD*%
D11*
%TO.C,J16*%
X133700000Y-107540000D03*
X133700000Y-105000000D03*
X133700000Y-102460000D03*
D12*
X133700000Y-99920000D03*
%TD*%
%TO.C,J18*%
X147800000Y-83700000D03*
D11*
X147800000Y-86240000D03*
X147800000Y-88780000D03*
X147800000Y-91320000D03*
%TD*%
D12*
%TO.C,J17*%
X147800000Y-113520000D03*
D11*
X147800000Y-116060000D03*
X147800000Y-118600000D03*
X147800000Y-121140000D03*
%TD*%
D12*
%TO.C,J15*%
X177800000Y-84200000D03*
D11*
X177800000Y-86740000D03*
X177800000Y-89280000D03*
X177800000Y-91820000D03*
%TD*%
D12*
%TO.C,J14*%
X178000000Y-113200000D03*
D11*
X178000000Y-115740000D03*
X178000000Y-118280000D03*
X178000000Y-120820000D03*
%TD*%
D12*
%TO.C,J13*%
X178000000Y-98920000D03*
D11*
X178000000Y-101460000D03*
X178000000Y-104000000D03*
X178000000Y-106540000D03*
%TD*%
D12*
%TO.C,J1*%
X153700000Y-83720000D03*
D11*
X153700000Y-86260000D03*
X153700000Y-88800000D03*
X153700000Y-91340000D03*
%TD*%
%TO.C,J11*%
X153725000Y-121132500D03*
X153725000Y-118592500D03*
X153725000Y-116052500D03*
D12*
X153725000Y-113512500D03*
%TD*%
M02*
