M48
; DRILL file {KiCad 9.0.0} date 2025-03-18T11:13:48-0700
; FORMAT={-:-/ absolute / inch / decimal}
; #@! TF.CreationDate,2025-03-18T11:13:48-07:00
; #@! TF.GenerationSoftware,Kicad,Pcbnew,9.0.0
; #@! TF.FileFunction,Plated,1,2,PTH
FMAT,2
INCH
; #@! TA.AperFunction,Plated,PTH,ViaDrill
T1C0.0118
; #@! TA.AperFunction,Plated,PTH,ComponentDrill
T2C0.0394
; #@! TA.AperFunction,Plated,PTH,ComponentDrill
T3C0.0866
%
G90
G05
T1
X5.3898Y-4.2638
X5.4685Y-4.3307
X5.563Y-4.2598
X5.6024Y-4.2598
X5.6535Y-4.2638
X5.7323Y-4.3228
X5.8228Y-4.2598
X5.8661Y-4.2638
X5.9094Y-4.2638
X5.9921Y-4.3268
X6.0212Y-3.8711
X6.0787Y-4.2638
X6.1181Y-4.6885
X6.1506Y-4.0256
X6.1535Y-3.4409
X6.1663Y-3.9351
X6.1693Y-3.3504
X6.1703Y-4.5241
X6.1772Y-3.2894
X6.187Y-4.4508
X6.2175Y-3.8799
X6.2205Y-3.2953
X6.2215Y-4.469
X6.2677Y-4.1693
X6.2677Y-4.7913
X6.2717Y-3.5866
X6.3092Y-4.5589
X6.3268Y-4.1654
X6.3307Y-3.5866
X6.3376Y-4.6339
X6.3558Y-3.3164
X6.3858Y-3.6181
X6.3858Y-4.6339
X6.3976Y-4.1732
X6.4055Y-4.7953
X6.4144Y-3.8918
X6.4424Y-4.4812
X6.4685Y-3.2323
X6.5041Y-3.9755
X6.5063Y-4.0991
X6.507Y-3.3908
X6.508Y-4.5645
X6.5089Y-4.0335
X6.5093Y-3.5145
X6.5103Y-4.6882
X6.5118Y-3.4488
X6.5128Y-4.6225
X6.5197Y-4.2638
X6.5276Y-4.8386
X6.5302Y-4.1197
X6.5331Y-3.5351
X6.5341Y-4.7088
X6.5354Y-3.6811
X6.5709Y-4.5162
X6.5905Y-4.6137
X6.5915Y-3.4872
X6.5969Y-4.0842
X6.5984Y-4.7717
X6.6012Y-4.1886
X6.6024Y-3.5945
X6.6181Y-4.5162
X6.6289Y-3.4832
X6.6392Y-4.0772
X6.6461Y-4.6191
X6.6496Y-4.8543
X6.6535Y-4.2677
X6.6628Y-3.6465
X6.7165Y-4.1516
X6.7195Y-3.5669
X6.7205Y-3.5354
X6.7205Y-4.7406
X6.7215Y-4.7092
X6.7318Y-4.1137
X6.7334Y-4.0492
X6.7363Y-3.4646
X6.7373Y-4.6383
X6.7451Y-3.9784
X6.748Y-3.3937
X6.749Y-4.5674
X6.7923Y-4.0532
X6.7953Y-3.4685
X6.7963Y-4.6422
T2
X5.2618Y-3.9331
X5.2618Y-4.0331
X5.2618Y-4.1331
X5.2618Y-4.2331
X5.5898Y-3.878
X5.6898Y-3.878
X5.7898Y-3.878
X5.8189Y-3.2992
X5.8189Y-3.3992
X5.8189Y-3.4992
X5.8189Y-3.5992
X5.8189Y-4.4724
X5.8189Y-4.5724
X5.8189Y-4.6724
X5.8189Y-4.7724
X5.8898Y-3.878
X6.0512Y-3.2953
X6.0512Y-3.3953
X6.0512Y-3.4953
X6.0512Y-3.5953
X6.0512Y-4.4693
X6.0512Y-4.5693
X6.0512Y-4.6693
X6.0512Y-4.7693
X7.0Y-3.315
X7.0Y-3.415
X7.0Y-3.515
X7.0Y-3.615
X7.0079Y-3.8961
X7.0079Y-3.9961
X7.0079Y-4.0961
X7.0079Y-4.1961
X7.0079Y-4.4575
X7.0079Y-4.5575
X7.0079Y-4.6575
X7.0079Y-4.7575
T3
X5.1575Y-3.1496
X5.1575Y-4.9213
X7.126Y-3.1496
X7.126Y-4.9213
M30
