M48
; DRILL file {KiCad 9.0.0} date 2025-03-10T20:15:45-0700
; FORMAT={-:-/ absolute / inch / decimal}
; #@! TF.CreationDate,2025-03-10T20:15:45-07:00
; #@! TF.GenerationSoftware,Kicad,Pcbnew,9.0.0
; #@! TF.FileFunction,Plated,1,2,PTH
FMAT,2
INCH
; #@! TA.AperFunction,Plated,PTH,ViaDrill
T1C0.0118
; #@! TA.AperFunction,Plated,PTH,ComponentDrill
T2C0.0394
; #@! TA.AperFunction,Plated,PTH,ComponentDrill
T3C0.0866
%
G90
G05
T1
X5.3898Y-4.2638
X5.4685Y-4.3307
X5.563Y-4.2598
X5.6024Y-4.2598
X5.6535Y-4.2638
X5.7323Y-4.3228
X5.8228Y-4.2598
X5.8661Y-4.2638
X5.9094Y-4.2638
X5.9921Y-4.3268
X6.0787Y-4.2638
X6.1506Y-4.0256
X6.1535Y-3.4409
X6.1545Y-4.6147
X6.1663Y-3.9351
X6.1693Y-3.3504
X6.1703Y-4.5241
X6.2175Y-3.8799
X6.2205Y-3.2953
X6.2215Y-4.469
X6.2884Y-4.1713
X6.2913Y-3.5866
X6.2923Y-4.7603
X6.4144Y-3.8918
X6.4173Y-3.3071
X6.4424Y-4.4812
X6.5041Y-3.9755
X6.5063Y-4.0991
X6.507Y-3.3908
X6.508Y-4.5645
X6.5089Y-4.0335
X6.5093Y-3.5145
X6.5103Y-4.6882
X6.5118Y-3.4488
X6.5128Y-4.6225
X6.5302Y-4.1197
X6.5331Y-3.5351
X6.5341Y-4.7088
X6.5452Y-4.0659
X6.5482Y-3.4813
X6.5492Y-4.655
X6.5669Y-3.9272
X6.5699Y-3.3425
X6.5709Y-4.5162
X6.5866Y-4.0246
X6.5895Y-3.4399
X6.5905Y-4.6137
X6.5964Y-3.9833
X6.5994Y-3.3986
X6.6004Y-4.5723
X6.6142Y-3.9272
X6.6171Y-3.3425
X6.6181Y-4.5162
X6.6348Y-4.2343
X6.6378Y-3.6496
X6.6388Y-4.8233
X6.6422Y-4.03
X6.6434Y-3.904
X6.6451Y-3.4454
X6.6461Y-4.6191
X6.6464Y-3.3194
X6.6473Y-4.4931
X6.7165Y-4.1516
X6.7175Y-4.1201
X6.7195Y-3.5669
X6.7205Y-3.5354
X6.7205Y-4.7406
X6.7215Y-4.7092
X6.7334Y-4.0492
X6.7363Y-3.4646
X6.7373Y-4.6383
X6.7451Y-3.9784
X6.748Y-3.3937
X6.749Y-4.5674
X6.7923Y-4.0532
X6.7953Y-3.4685
X6.7963Y-4.6422
X6.8199Y-3.8721
X6.8228Y-3.2874
X6.8238Y-4.4611
T2
X5.2638Y-3.9339
X5.2638Y-4.0339
X5.2638Y-4.1339
X5.2638Y-4.2339
X5.5874Y-3.878
X5.6874Y-3.878
X5.7874Y-3.878
X5.8189Y-3.2953
X5.8189Y-3.3953
X5.8189Y-3.4953
X5.8189Y-3.5953
X5.8189Y-4.4693
X5.8189Y-4.5693
X5.8189Y-4.6693
X5.8189Y-4.7693
X5.8874Y-3.878
X6.0512Y-3.2961
X6.0512Y-3.3961
X6.0512Y-3.4961
X6.0512Y-3.5961
X6.0522Y-4.469
X6.0522Y-4.569
X6.0522Y-4.669
X6.0522Y-4.769
X7.0Y-3.315
X7.0Y-3.415
X7.0Y-3.515
X7.0Y-3.615
X7.0079Y-3.8945
X7.0079Y-3.9945
X7.0079Y-4.0945
X7.0079Y-4.1945
X7.0079Y-4.4567
X7.0079Y-4.5567
X7.0079Y-4.6567
X7.0079Y-4.7567
T3
X5.1575Y-3.1496
X5.1575Y-4.9213
X7.126Y-3.1496
X7.126Y-4.9213
M30
